<svg width="125" height="130" viewBox="0 0 125 130" fill="none" xmlns="http://www.w3.org/2000/svg">
<path fill-rule="evenodd" clip-rule="evenodd" d="M9.90452 118.104C8.58078 119.073 9.75656 117.006 8.5978 117.175C8.44417 116.71 7.1811 116.779 7.97761 115.945C7.24744 115.248 6.35796 114.718 6.47362 113.552L6.36931 113.453C6.05638 113.154 5.74345 112.855 5.58982 112.39C5.28256 111.458 3.65724 110.863 4.30012 109.563C4.04218 108.998 3.62494 108.6 3.367 108.035C2.84545 107.537 3.11473 106.837 3.12041 106.204C2.53819 106.605 2.28025 106.04 2.86247 105.639C2.54954 105.34 2.03366 104.21 2.14364 103.677C2.03933 103.577 2.09432 103.311 2.51724 103.077C2.36361 102.611 1.94069 102.845 1.5671 103.446C1.41347 102.98 2.05067 102.313 1.63343 101.914L2.00136 101.946L1.89705 101.847C1.31483 102.248 1.26551 101.882 1.21619 101.516C1.27686 100.617 0.0744495 99.7877 1.03026 98.7867C0.624367 97.1233 0.734351 96.5905 0.960003 94.8922L0.910672 94.5262C0.548422 93.8614 0.922018 93.2613 1.19131 92.5615C0.927703 92.6288 0.664079 92.696 0.614761 92.33C0.779735 91.5307 0.000243902 90.4675 1.00537 89.8324C1.01105 89.2 1.01672 88.5675 1.0224 87.935C1.08873 86.4036 1.25939 84.9718 1.48503 83.2736C1.43571 82.9076 2.12224 82.6062 2.07292 82.2402C2.02928 81.2417 1.77134 80.6764 2.62284 79.5758L2.67783 79.3093C2.94711 78.6096 2.95278 77.9772 3.22207 77.2774L3.27707 77.011C3.70565 76.1444 3.50838 74.6803 4.61782 74.1448L5.20571 73.1114L5.63997 71.6124C5.96992 70.0137 8.37648 65.6136 8.81074 64.1146L9.02503 63.6813C10.2501 61.9805 10.9044 59.4157 12.4917 58.3797C12.9696 57.8792 12.3931 57.6477 12.7117 57.314C13.5139 55.8473 14.5797 54.3133 15.4862 52.9462C16.184 51.3799 17.5021 51.0437 18.3043 49.577L19.3151 48.3095C19.848 47.5425 20.3259 47.042 20.8588 46.275C22.2925 44.7734 23.6826 42.2733 25.16 41.7702C27.5552 38.635 31.1585 35.6965 33.9652 33.5922C35.1297 32.7904 36.5691 30.6563 37.7771 30.8529C38.475 29.2866 40.2653 29.0823 40.8532 28.0489C41.9626 27.5134 43.347 25.6458 44.2915 25.9097C45.2416 25.5411 44.9344 24.6098 45.6152 24.941C48.6306 23.0359 52.0196 20.5306 54.5021 19.3925C55.238 19.4572 55.9852 18.2569 57.4625 17.7538L57.5119 18.1199C58.7806 17.4176 59.89 16.8821 61.2631 16.2795C64.9593 14.7055 66.8046 14.2347 70.9238 12.4267C72.1376 11.9908 73.192 11.7218 74.4058 11.286C75.3009 11.1838 76.8883 10.1478 77.2505 10.8127C77.992 10.2449 78.6786 9.94353 79.623 10.2074C81.4797 8.47171 83.3079 9.89838 85.0546 8.69556C85.7904 8.76025 87.4821 7.82387 87.5257 8.82238L87.7893 8.75513C88.5365 7.55487 89.7389 8.38398 90.4255 8.08263C91.057 8.04773 90.892 8.84705 91.7379 8.37886C92.0072 7.67913 92.5837 7.91067 92.9516 7.94301C93.1602 8.1422 93.5282 8.17455 93.9511 7.94045C90.4368 6.81769 87.9164 6.32483 84.5007 5.93413C83.287 6.36998 83.5069 5.30422 82.6118 5.40637C81.9253 5.70772 81.4587 4.9433 79.822 5.61324C79.1905 5.64815 78.2954 5.7503 77.5045 5.95205L77.2409 6.0193C76.9773 6.08655 76.928 5.72052 76.8237 5.62092C76.0878 5.55623 74.5005 6.59221 74.2975 5.76055C73.2374 6.66202 72.9795 6.0968 71.925 6.3658C70.3983 6.50286 67.8058 8.17386 66.6528 7.7108C64.9118 8.28114 62.9508 9.91724 62.0614 9.38692C60.6826 10.6221 58.6667 12.5246 57.25 12.1288C56.9864 12.1961 56.8327 11.7304 56.6791 11.2648C56.2562 11.4989 56.2619 10.8664 55.894 10.8341L55.7346 11.0009C55.3724 10.3361 55.4824 9.80323 55.5924 9.27035C55.7517 9.1035 55.911 8.93666 56.0703 8.76981C56.2296 8.60297 56.2296 8.60297 56.3889 8.43612C56.5482 8.26928 56.8118 8.20203 56.9711 8.03518L58.2398 7.3329C60.0472 5.23116 60.876 6.6604 63.1555 4.6906C66.1102 3.68441 67.5876 3.18132 70.383 2.34197C71.2782 2.23982 73.1841 0.870156 73.3321 1.96826L74.0186 1.66691C74.8095 1.46517 75.7046 1.36301 76.6548 0.994414C77.2863 0.959509 77.7585 1.09145 78.0715 1.39023L78.3351 1.32298C79.7024 1.35277 82.0256 0.381484 82.4372 1.41234C86.2814 0.936466 88.324 1.92986 91.8989 2.15371L91.6846 2.58699C92.3655 2.91812 94.0021 2.24818 93.7822 3.31394C95.0509 2.61166 96.3026 3.8068 97.0385 3.87149C97.983 4.13537 98.9274 4.39925 99.8719 4.66312L99.6576 5.09641L99.8662 5.2956C100.981 4.12768 100.541 6.2592 101.755 5.82336C102.068 6.12214 103.65 5.71864 103.062 6.75206C104.111 7.11553 105.527 7.51135 105.835 8.44261L106.043 8.6418L107.405 9.30406C108.135 10.0012 110.238 10.0957 109.963 11.4279C110.644 11.759 111.061 12.1574 111.742 12.4885C112.582 12.6528 112.681 13.3849 112.939 13.9501C113.417 13.4496 113.834 13.848 113.461 14.4481C113.933 14.58 115.135 15.4091 115.185 15.7752C115.289 15.8748 115.393 15.9744 115.075 16.308C115.388 16.6068 115.706 16.2731 116.08 15.673C116.497 16.0714 115.964 16.8384 116.7 16.903L116.381 17.2367L116.59 17.4359C117.068 16.9354 117.276 17.1346 117.43 17.6002C117.737 18.5315 119.418 18.86 118.83 19.8935C120.026 21.355 120.18 21.8207 120.586 23.484L120.795 23.6832C121.316 24.1812 121.311 24.8136 121.25 25.7125C121.673 25.4784 121.777 25.578 121.986 25.7772C122.084 26.5093 123.446 27.1716 122.49 28.1726C122.748 28.7379 123.006 29.3031 123.105 30.0351C123.566 31.432 123.972 33.0954 124.273 34.6591C124.427 35.1247 123.845 35.5257 123.998 35.9913C124.41 37.0222 124.827 37.4205 124.288 38.82L124.233 39.0864C124.332 39.8185 124.326 40.451 124.266 41.3499L124.211 41.6163C123.886 42.5825 124.611 43.9121 123.551 44.8136L123.49 45.7125L123.265 47.4107C123.302 49.0417 122.049 53.9049 121.719 55.5035L121.609 56.0364C120.856 57.8691 120.834 60.399 119.4 61.9006C119.026 62.5008 119.658 62.4659 119.443 62.8992C118.85 64.565 118.256 66.2309 117.558 67.7972C117.069 69.5627 115.8 70.265 115.207 71.9309L114.405 73.3976C113.976 74.2641 113.603 74.8643 113.174 75.7309C111.949 77.4316 111.135 80.1633 109.389 81.3661C107.515 84.9992 104.219 88.869 101.67 91.5385C100.451 92.6068 99.4835 94.8729 98.1655 95.2091C97.8355 96.8077 95.9352 97.5449 95.4516 98.6779C94.3915 99.5794 93.2157 101.646 92.112 101.549C91.1068 102.184 91.7327 102.782 90.9969 102.717C88.0801 105.354 84.6854 108.492 82.3566 110.096C81.4614 110.198 80.8185 111.498 79.3905 112.367L79.3412 112.001C78.1767 112.803 76.853 113.771 75.6886 114.573C71.9866 116.78 70.0314 117.783 65.9065 120.224C64.7971 120.759 63.5283 121.462 62.3146 121.898C61.2601 122.167 59.8814 123.402 59.2555 122.804C58.514 123.372 57.7725 123.94 56.828 123.676C55.18 125.611 52.7695 124.585 51.2315 125.987C50.4957 125.922 48.8533 127.225 48.5461 126.293L48.2824 126.361C47.6946 127.394 46.2779 126.998 45.432 127.466C44.9048 127.601 44.8062 126.869 43.9603 127.337C43.691 128.037 43.2188 127.905 42.6916 128.039C41.3792 127.743 40.7363 129.043 39.7862 129.412L40.0005 128.978C39.001 128.981 38.7374 129.048 38.6881 128.682L38.4245 128.749C37.315 129.285 37.6943 128.052 38.0736 126.82C37.6013 126.688 37.1841 126.289 36.179 126.924C34.3393 126.763 33.1806 126.932 31.4453 126.87C30.8687 126.638 29.1771 127.575 29.397 126.509L29.0291 126.477C28.3976 126.512 27.766 126.546 27.1895 126.315C26.558 126.35 26.3493 126.151 26.3 125.785L26.0364 125.852C25.2512 125.421 23.0873 126.226 23.0987 124.961C20.1553 124.702 18.7993 123.407 16.0702 122.715L15.5486 122.217C15.1314 121.819 13.5497 122.222 14.1376 121.189C13.0282 121.724 12.3037 120.395 11.8864 119.996C11.2056 119.665 10.4204 119.234 9.89885 118.736L10.2175 118.403L9.90452 118.104ZM50.909 120.895C52.3863 120.392 53.7044 120.056 55.1818 119.552L55.709 119.418C56.7634 119.149 57.6093 118.681 58.823 118.245C59.7732 117.876 60.8826 117.341 61.4591 117.572C61.9427 116.439 62.305 117.104 62.9915 116.803C63.0465 116.536 63.1015 116.27 63.2551 116.736C64.4252 115.301 65.2104 115.732 66.6934 114.596C67.4843 114.395 68.918 112.893 69.5438 113.491C70.3897 113.022 71.2355 112.554 71.977 111.986C73.4051 111.117 74.7288 110.149 76.1569 109.279C76.8984 108.712 77.6949 107.877 78.2714 108.109C77.9642 107.178 78.848 108.341 79.1723 107.374C80.1281 106.373 81.8747 105.17 83.8357 103.534C84.5772 102.967 85.0551 102.466 85.6923 101.799C88.3454 99.2288 89.5099 98.4269 91.0479 97.0249L92.4816 95.5233C93.2782 94.689 94.234 93.688 94.9262 92.7541L95.0855 92.5873C95.7227 91.9199 96.1513 91.0534 96.7828 91.0184L97.2607 90.5179C97.1127 89.4198 98.4801 89.4496 98.9637 88.3166L99.4416 87.816C101.035 86.1476 101.952 83.5155 103.803 82.4123C104.171 82.4447 104.116 82.7111 104.325 82.9103C104.699 82.3102 103.595 82.2131 104.336 81.6453C104.974 80.978 105.144 79.5462 106.199 79.2772C106.413 78.8439 105.941 78.7119 106.259 78.3783C107.545 75.7786 109.187 74.4761 109.682 72.0782C109.946 72.0109 110.05 72.1105 110.21 71.9437C110.479 71.244 111.012 70.477 111.281 69.7773C110.809 69.6453 111.232 69.4112 111.495 69.344L111.924 68.4774C111.298 67.8798 112.787 66.1118 112.902 64.9464L113.43 64.8119L113.54 64.2791C113.864 63.3129 114.293 62.4463 114.457 61.647C115.205 60.4467 114.799 58.7834 116.123 57.8147L116.178 57.5483C115.502 56.5846 117.052 53.9177 117.014 52.2867C118.085 50.1203 116.466 48.8928 118.641 46.8234C118.745 46.923 118.531 47.3563 119.058 47.2218L119.223 46.4225C118.959 46.4897 118.273 46.7911 118.328 46.5246C118.493 45.7253 118.499 45.0928 118.4 44.3608C118.351 43.9947 118.301 43.6287 118.516 43.1954C118.571 42.929 118.785 42.4957 118.944 42.3288C118.631 42.0301 118.423 41.8309 118.851 40.9643C118.33 40.4663 118.33 40.4663 118.758 39.5998C117.814 39.3359 118.929 38.168 118.413 37.0375C118.271 35.3069 117.81 33.91 117.245 32.4136C116.361 31.2508 116.795 29.7517 116.016 28.6885L115.911 28.5889C115.923 27.324 115.077 27.7922 115.297 26.7264C114.885 25.6956 114.989 25.7952 114.259 25.098L115.056 24.2638C114.952 24.1642 114.529 24.3983 114.051 24.8988C113.738 24.6 114.216 24.0995 113.903 23.8007L113.173 23.1035C113.068 23.0039 113.283 22.5707 113.338 22.3042C112.492 22.7724 111.344 21.6769 111.773 20.8103C111.405 20.7779 110.982 21.012 110.828 20.5464L111.147 20.2127C110.043 20.1157 110.57 19.9812 109.895 19.0176C109.165 18.3204 108.276 17.7901 107.65 17.1925C107.6 16.8265 106.282 17.1628 107.238 16.1617C105.827 15.1334 103.993 14.3392 103.686 13.4079L103.582 13.3083C103.324 12.7431 101.742 13.1466 102.33 12.1132L102.226 12.0136C101.863 11.3488 101.116 12.549 100.754 11.8842C100.551 11.0526 99.2879 11.1224 99.2443 10.1239L99.14 10.0243C98.2392 10.7589 98.2998 9.85998 97.7233 9.62844L97.0917 9.66335C96.6631 10.5299 96.3389 11.4961 96.3882 11.8621C95.7567 11.897 93.993 14.9973 94.0536 14.0984C91.1369 16.7355 90.583 13.9741 89.1113 13.8447L88.8477 13.912C87.8919 14.913 88.1119 13.8473 87.1068 14.4823C86.2666 14.318 84.3113 15.3216 84.2677 14.3231L83.3725 14.4253C81.9502 14.662 80.5278 14.8986 79.2097 15.2349L78.6825 15.3694C77.0515 15.4068 74.3547 16.9782 73.0973 16.4156C72.5094 17.449 72.1472 16.7842 71.6199 16.9187C71.565 17.1851 71.2463 17.5188 71.3563 16.9859C69.9776 18.2211 69.3517 17.6235 67.7644 18.6595C66.8692 18.7616 65.3312 20.1637 65.1283 19.332C64.1781 19.7006 63.4916 20.0019 62.6458 20.4701C61.2727 21.0728 59.8996 21.6755 58.4716 22.5446C57.7851 22.846 56.8843 23.5806 56.467 23.1822C56.5107 24.1807 56.0498 22.7838 55.4619 23.8173C54.4018 24.7187 52.7651 25.3887 50.4912 26.726L48.4809 27.9961C45.7292 29.8339 44.6197 30.3694 43.0324 31.4053L41.9229 31.9408L41.7636 32.1076C40.8628 32.8422 39.962 33.5769 39.0612 34.3115L38.9019 34.4783C38.3196 34.8793 37.7867 35.6463 37.2102 35.4147L36.7323 35.9153C36.6166 37.0806 35.4635 36.6175 34.8757 37.651L34.3977 38.1515C32.7554 39.4539 31.261 41.8544 29.52 42.4248C29.3114 42.2256 29.3664 41.9591 29.1578 41.76C28.6799 42.2605 29.5694 42.7908 28.8828 43.0922C28.3006 43.4931 27.6027 45.0594 26.9219 44.7282C26.6033 45.0619 26.9162 45.3607 26.5976 45.6944C24.7903 47.7961 23.0986 48.7325 22.1315 50.9986C21.9228 50.7994 21.6592 50.8666 21.6042 51.133L20.2198 53.0007C20.5328 53.2995 20.2692 53.3667 20.0055 53.434L19.4726 54.2009C19.7799 55.1322 18.1376 56.4346 17.8133 57.4008L17.4454 57.3684L17.2311 57.8017C16.5939 58.4691 16.2203 59.0692 15.7917 59.9358C14.8359 60.9369 14.7145 62.7347 13.5008 63.1705L13.4458 63.437C13.8024 64.7343 11.8907 66.7364 11.7201 68.1682C10.2314 69.9362 11.3731 71.6643 8.99493 72.902C8.89062 72.8024 9.20922 72.4687 8.8413 72.4364L8.4677 73.0365C8.83563 73.0688 9.36286 72.9343 9.30786 73.2008C8.66498 74.5006 9.07087 76.164 7.74714 77.1327C7.74146 77.7652 7.95009 77.9643 7.31287 78.6317C7.57081 79.197 7.57081 79.1969 7.03792 79.9639C7.66378 80.5615 6.49934 81.3634 6.6473 82.4615C6.47665 83.8933 6.25101 85.5915 6.34397 86.956C6.70055 88.2533 5.79406 89.6204 6.04632 90.8181L5.99132 91.0846C5.61205 92.3172 6.4029 92.1154 5.7107 93.0493C5.59505 94.2146 5.65004 93.9482 5.9573 94.8794L5.11145 95.3476C5.21577 95.4472 5.47939 95.38 6.06161 94.979C6.27023 95.1782 5.688 95.5792 5.73732 95.9452L6.04458 96.8764C6.14889 96.976 5.83028 97.3097 5.67098 97.4766C6.46182 97.2748 6.9227 98.6717 6.18119 99.2395C6.38981 99.4387 6.81272 99.2046 6.96635 99.6702L6.54343 99.9043L6.75206 100.104C6.75206 100.104 6.75206 100.104 6.85637 100.203L6.96068 100.303C7.06499 100.402 7.06499 100.402 7.1693 100.502C7.27361 100.601 7.21862 100.868 7.21294 101.5C7.41589 102.332 7.88245 103.096 8.34901 103.861C8.13472 104.294 9.3978 104.224 8.23336 105.026C8.95786 106.356 10.1053 107.451 9.8853 108.517L9.98961 108.617C9.98394 109.249 11.247 109.179 10.5548 110.113L10.6591 110.213C10.7578 110.945 11.7136 109.944 11.8122 110.676C11.6472 111.475 12.751 111.572 12.4267 112.538L12.531 112.638C13.5362 112.003 13.1076 112.87 13.4205 113.168C13.7334 113.467 14.31 113.699 14.6229 113.997C15.3588 114.062 15.3531 114.695 15.5067 115.16L15.611 115.26C18.2245 117.117 20.0034 118.178 22.7325 118.87C23.6277 118.768 23.3034 119.734 24.0942 119.532C24.7807 119.231 24.8244 120.229 26.1425 119.893L27.8778 119.955L28.1414 119.888C28.405 119.821 28.1907 120.254 28.295 120.354C28.7122 120.752 30.4039 119.816 29.9203 120.949C30.9255 120.314 31.0791 120.779 31.6556 121.011C32.7044 121.374 34.9233 120.303 35.3349 121.334C36.175 121.498 37.971 120.662 38.1739 121.493C39.2834 120.958 41.1343 119.855 41.4416 120.786C42.7597 120.45 43.5885 121.879 44.7472 121.71L45.0109 121.642C45.8624 120.542 45.7467 121.707 46.8068 120.805C47.8063 120.803 49.5529 119.6 49.8602 120.531L50.909 120.895Z" fill="#5745FF"/>
</svg>
