<svg width="153" height="155" viewBox="0 0 153 155" fill="none" xmlns="http://www.w3.org/2000/svg">
<path fill-rule="evenodd" clip-rule="evenodd" d="M108.071 116.209L108.838 115.445C110.179 114.109 109.956 113.885 111.105 112.739C112.175 111.897 115.641 107.328 117.797 104.51C117.909 104.622 118.372 103.938 118.452 103.635C119.298 102.568 120.145 101.501 120.991 100.435C122.221 98.9866 122.956 97.8079 123.499 96.82C124.186 96.3596 124.777 94.6534 126.006 93.2051C127.588 90.9598 128.019 89.8598 129.137 88.2993C130.255 86.7388 130.223 86.3236 131.15 84.954C131.884 83.7752 132.507 82.4843 133.242 81.3056C133.513 80.8116 134.057 79.8238 134.136 79.5207C136.117 75.7601 136.085 75.3449 137.763 71.6629C137.842 71.3599 137.922 71.0568 138.194 70.5629C137.891 70.6416 137.667 70.4172 137.635 70.0019C137.603 69.5867 137.683 69.2836 137.651 68.8684C137.62 68.4531 137.779 67.847 137.859 67.5439C137.939 67.2409 138.131 67.05 138.322 66.8591C138.402 66.5561 138.482 66.253 138.674 66.0621C138.945 65.5682 139.329 65.1865 139.935 65.0291C140.111 63.2894 140.399 61.6619 140.575 59.9222C140.464 59.81 140.352 59.6978 140.128 59.4735C140.145 58.3399 139.969 57.3972 140.289 56.1849C140.385 54.7483 140.178 53.3904 140.274 51.9537C140.146 52.9751 140.226 52.672 140.178 53.3904C140.178 53.3904 140.178 53.3904 140.098 53.6934C140.129 54.1087 139.81 55.3209 139.65 55.927L139.251 57.4423C139.522 56.9484 139.203 58.1607 138.851 58.9577C138.771 59.2607 138.771 59.2607 138.771 59.2607C138.42 60.0577 138.292 61.0791 137.701 62.7853C136.678 65.5915 136.598 65.8946 135.464 68.5886C135.959 68.3191 135.224 69.4978 135.033 69.6887C135.144 69.8009 135.144 69.8009 134.793 70.5979C134.41 70.9796 133.355 73.3706 132.621 74.5493C132.349 75.0432 131.806 76.0311 131.918 76.1433C131.646 76.6372 131.566 76.9403 131.487 77.2434C130.864 78.5343 128.851 81.8796 128.196 82.7553C127.573 84.0462 125.72 86.7854 124.411 88.5368C123.564 89.6033 123.596 90.0186 122.558 91.276C120.705 94.0152 118.933 96.4514 116.665 99.1571L116.281 99.5388C115.818 100.224 114.477 101.56 114.7 101.784L114.317 102.166C113.279 103.423 112.049 104.872 111.011 106.129L109.015 108.341C104.751 113.258 100.726 117.266 96.7817 120.972C96.0151 121.735 95.1368 122.386 94.3702 123.15C93.7154 124.026 91.7353 125.104 90.809 126.473C89.739 127.316 88.6691 128.158 87.5992 129C84.3893 131.526 83.3993 132.065 81.0678 133.941C80.3811 134.401 79.5028 135.052 78.8162 135.513C77.2512 136.625 75.1912 138.006 72.4127 139.432L71.4227 139.971C69.6342 140.859 68.3408 141.476 67.0474 142.094C65.4506 142.791 64.1572 143.408 62.4486 143.993C61.0434 144.498 58.4248 145.319 57.0196 145.824C54.0975 146.723 52.5806 147.117 50.457 147.667L49.2434 147.982C47.8064 148.072 45.3794 148.702 43.7507 148.983C42.0104 149.152 40.9086 149.579 38.9447 149.524C37.0926 149.58 35.3522 149.749 33.9152 149.84C32.4782 149.93 30.4825 149.459 29.6522 149.392L28.1834 149.067C27.3531 149 26.2994 148.709 26.0759 148.485L25.8843 148.676C25.4692 148.642 25.6608 148.451 25.5491 148.339C25.5491 148.339 25.2457 148.418 25.1339 148.305C23.4416 147.756 20.6955 146.915 18.9714 145.951C18.4445 145.805 17.6623 145.02 17.359 145.099C16.3851 144.504 15.5231 144.022 14.7409 143.236L14.2939 142.788C13.6553 142.53 12.6496 141.52 11.8674 140.735C11.2288 140.477 10.4148 139.276 9.82426 138.3L9.45719 137.548C8.86664 136.572 8.0526 135.371 7.23858 134.171C6.39271 132.555 6.02566 131.803 5.37143 129.996L5.22784 129.469C4.97251 128.829 4.82893 128.302 4.65351 127.359L4.2546 126.192C3.64843 123.667 3.28195 120.233 3.28255 117.55C3.36245 117.247 3.3306 116.832 3.3306 116.832C3.34682 115.699 3.47477 114.677 3.49098 113.544C3.5871 112.107 3.68322 110.67 4.05087 108.74C4.29057 107.831 4.22689 107 4.46659 106.091L4.78619 104.879C4.7225 104.048 5.39353 102.039 5.60138 100.714C6.35232 98.4022 6.28864 97.5717 7.03956 95.2594L7.27928 94.3502C7.51897 93.441 8.06204 92.4531 8.30174 91.5439C8.42969 90.5226 9.86729 87.7498 9.99525 86.7285C10.6182 85.4375 11.1295 84.0344 12.3754 81.4526L12.7269 80.6556C13.1582 79.5555 14.0527 77.7706 14.8673 76.2888C14.7556 76.1767 14.7556 76.1767 14.8355 75.8736C15.7937 74.9192 17.0877 71.6191 17.6626 71.0465C18.1258 70.3616 18.3493 70.586 18.8924 69.5982L18.7806 69.486L19.5153 68.3072C20.9848 65.9498 23.6521 61.7288 25.8082 58.9109L25.6965 58.7987L27.1179 57.1595C27.4693 56.3625 28.8108 55.0264 28.699 54.9142C30.2003 52.972 30.6953 52.7025 31.8133 51.142C32.005 50.9511 32.1966 50.7603 32.0849 50.6481C32.4681 50.2663 32.7715 50.1876 33.0431 49.6937C33.3146 49.1998 34.3527 47.9424 35.1193 47.1789L35.5025 46.7971C36.349 45.7306 36.349 45.7306 37.6106 44.6976C37.9939 44.3158 38.5688 43.7432 38.457 43.631C40.1818 41.9132 42.4016 39.9258 43.6313 38.4775C44.9728 37.1414 44.7812 37.3323 46.5378 36.0297C47.001 35.3449 48.0709 34.5028 49.1408 33.6606L50.5941 32.4367C52.5423 30.9432 53.5005 29.9889 55.0655 28.8772C57.1254 27.4959 58.4669 26.1598 60.942 24.8121L61.7404 24.4638C62.4271 24.0034 63.2255 23.6552 63.3054 23.3521C64.6787 22.4313 65.9721 21.8135 67.3455 20.8927L68.1439 20.5444C69.4054 19.5114 70.7307 19.3089 71.8007 18.4667L72.2957 18.1972C73.3176 18.0733 75.3457 16.2768 77.3576 15.6139C79.1461 14.7265 81.158 14.0636 82.6431 13.2549C84.0482 12.7494 85.4534 12.2438 86.7468 11.626L87.0502 11.5473C87.8005 11.9174 90.5472 10.0757 91.6009 10.3671L91.7925 10.1763L96.2634 9.29913C97.7004 9.2088 98.7703 8.36663 99.1374 9.11846C100.431 8.50068 100.654 8.72507 102.171 8.33167C102.091 8.63473 102.698 8.47738 102.89 8.2865C104.63 8.11749 106.179 8.13935 107.728 8.16121L107.919 7.97034C109.053 7.95868 108.973 8.26174 110.107 8.25009C110.825 8.20492 111.991 8.60852 112.262 8.11459C113.092 8.18161 114.034 8.36083 114.865 8.42785C116.94 8.59541 117.579 8.85331 119.798 9.54832C121.043 9.64885 120.628 9.61534 121.682 9.90675C121.299 10.2885 123.294 10.7591 123.374 10.4561C123.933 11.017 124.731 10.6688 125.929 11.4876C126.456 11.6333 126.791 11.9699 127.318 12.1156C128.515 12.9345 129.68 13.3381 130.846 13.7417C130.958 13.8539 131.436 14.7179 131.82 14.3361C132.267 14.7849 132.793 14.9306 133.24 15.3794L133.464 15.6037C134.661 16.4226 135.667 17.4323 136.673 18.442C138.205 19.5975 138.157 20.3158 139.945 22.1108C140.392 22.5596 140.647 23.1993 141.206 23.7602L141.429 23.9846C141.956 24.1303 142.052 25.3761 142.802 25.7461C142.419 26.1279 143.425 27.1376 143.568 27.6651C143.792 27.8894 143.792 27.8894 144.015 28.1138C144.382 28.8656 144.637 29.5053 145.005 30.2571C145.595 31.2333 145.722 32.8943 146.169 33.3431C146.169 33.3431 145.978 33.534 146.089 33.6462C146.488 34.8132 147.031 36.5078 147.414 38.8084L147.557 39.3359C147.733 40.2786 147.94 41.6365 148.083 42.164L148.115 42.5792C147.987 43.6006 148.562 45.7104 148.497 47.5622L148.529 47.9775C148.433 49.4141 148.529 50.6599 148.592 51.4904C148.816 51.7148 148.816 51.7148 148.736 52.0178C148.353 52.3996 148.703 54.285 148.224 56.1033C148.144 56.4064 148.256 56.5186 148.176 56.8217C148.288 56.9339 148.208 57.2369 148.128 57.54C147.968 58.1461 147.92 58.8644 147.728 59.0553C147.537 59.2462 147.585 58.5278 147.473 58.4157C147.425 59.134 147.313 59.0218 147.154 59.6279C147.297 60.1553 147.377 59.8523 147.057 61.0645C147.281 61.2889 147.361 60.9859 147.424 61.8164C147.185 62.7255 147.217 63.1408 147.057 63.7469C147.057 63.7469 146.625 64.847 146.737 64.9592C146.338 66.4745 146.37 66.8897 146.018 67.6867C146.481 67.0019 145.65 69.6173 145.571 69.9204C144.979 71.6265 146.13 67.7989 145.619 69.202C145.379 70.1112 145.219 70.7173 145.139 71.0204C144.676 71.7052 143.957 74.4328 143.909 75.1511C144.58 73.1419 145.251 71.1326 146.114 68.9325C146.194 68.6294 146.577 68.2477 146.768 68.0568C147.168 66.5415 147.567 65.0262 147.967 63.5109C148.207 62.6017 147.951 61.9621 148.67 61.9169C148.91 61.0077 149.309 59.4924 149.277 59.0772L151.593 55.6531L151.881 54.0256C152.041 53.4195 150.7 52.0732 150.86 51.4671C151.243 48.403 152.713 46.0455 152.873 42.757C152.921 42.0387 152.411 40.7594 152.459 40.0411L151.564 41.8259C151.277 40.771 152.652 34.4854 152.157 32.0726C152.014 31.5451 151.87 31.0177 151.758 30.9055C151.806 30.1872 151.152 28.3805 150.833 26.9103L150.546 25.8554C150.067 24.9914 149.78 23.9365 149.381 22.7694C149.014 22.0176 148.615 20.8505 148.28 20.514C147.402 18.4829 145.662 15.9695 144.034 13.5683C143.779 12.9287 143.14 12.6708 142.917 12.4464L142.693 12.222C142.518 11.2793 141.464 10.9879 140.123 9.64159L139.229 8.74406C138.064 8.34046 137.968 7.0947 136.611 6.88198C134.999 6.02961 134.935 5.19911 133.466 4.87419C133.211 4.23455 132.046 3.83095 131.742 3.90963L131.519 3.68525C130.768 3.31516 130.018 2.94507 129.268 2.57499C128.629 2.31709 127.99 2.0592 127.464 1.91349C127.192 2.40743 126.505 2.86784 125.787 2.91301C123.679 2.3302 121.3 2.24131 119.113 1.96156C118.81 2.04024 118.81 2.04024 118.506 2.11892C117.341 1.71532 115.904 1.80566 114.738 1.40206C114.323 1.36854 114.291 0.953292 114.563 0.459359C113.126 0.549692 111.801 0.752219 110.172 1.03342C109.9 1.52736 109.214 1.98778 108.687 1.84207C108.575 1.72988 108.575 1.72988 108.272 1.80856C108.639 2.56039 107.218 4.19954 106.547 3.52639C106.435 3.4142 106.435 3.4142 106.132 3.49288C105.829 3.57156 105.829 3.57156 105.717 3.45937L105.413 3.53805C103.37 3.78574 101.821 3.76388 100.192 4.04509C98.867 4.24761 98.3564 2.96834 99.6816 2.76582C101.31 2.48461 100.911 3.99992 102.539 3.71872C102.843 3.64004 104.887 3.39235 105.11 3.61673C105.413 3.53805 106.978 2.42634 107.09 2.53853C106.867 2.31415 106.851 0.765326 107.234 0.383585L108.08 1.99943C107.234 0.383582 103.562 0.912481 103.035 0.766779C99.5861 1.52006 95.6103 2.12763 91.4747 3.34133C88.7761 4.4647 86.3491 5.09413 83.6505 6.21749C82.8521 6.56572 82.2453 6.72308 81.7503 6.99263C82.1654 7.02614 82.6923 7.17185 82.9158 7.39623C83.5544 7.65412 83.3147 8.56331 82.4364 9.2146C82.6599 9.43898 82.5001 10.0451 82.2285 10.539C82.3721 11.0665 82.0207 11.8635 81.2223 12.2117C72.9349 15.7727 64.9184 21.5221 56.8064 26.0258C55.3214 26.8344 55.3856 24.9825 56.759 24.0617C59.5056 22.22 62.1724 20.6814 64.9989 18.5366C67.5539 16.8858 70.1888 14.932 72.8556 13.3933C72.4086 12.9446 72.8399 11.8445 73.83 11.3054C75.5385 10.7212 77.5504 10.0582 79.5305 8.98002C78.7003 8.91299 77.87 8.84596 76.9599 9.082C75.3631 9.77846 74.1814 10.5084 71.4029 11.9349L70.9079 12.2044C69.0396 13.3948 68.1294 13.6308 66.0694 15.0121C66.0694 15.0121 65.6543 14.9786 65.5744 15.2816C63.4027 16.5507 62.0294 17.4716 60.161 18.6619C59.6978 19.3467 57.9893 19.931 57.9094 20.2341L57.4144 20.5036C52.4161 23.9174 47.8648 27.78 43.6169 31.5639C42.5469 32.4061 41.3971 33.5513 40.4389 34.5057C39.4807 35.46 38.7141 36.2235 37.6442 37.0656C34.4981 40.4226 32.1984 42.7131 29.9624 45.834C29.1958 46.5975 28.541 47.4732 27.8862 48.3489C27.8862 48.3489 27.7744 48.2367 27.3912 48.6184C27.5029 48.7306 26.6564 49.7972 26.0815 50.3698L25.6982 50.7515C24.5003 52.6151 22.6158 54.939 20.843 57.3752L19.725 58.9356C19.0701 59.8113 19.102 60.2266 18.1756 61.5962C17.7124 62.281 17.2493 62.9658 16.7861 63.6506C16.3229 64.3354 15.3966 65.705 15.5083 65.8172C13.5757 68.8594 12.09 72.3505 11.0838 74.0232C10.8122 74.5171 10.4608 75.3141 10.1892 75.808C11.4827 75.1902 12.1213 75.4481 11.8816 76.3573C11.8816 76.3573 11.8816 76.3573 11.8017 76.6604C12.1051 76.5817 12.3285 76.8061 12.4403 76.9183C12.5202 76.6152 12.7917 76.1213 12.8716 75.8182C12.7599 75.706 12.728 75.2908 12.8079 74.9877C13.3991 73.2815 13.9103 71.8784 14.9166 70.2057C15.1082 70.0149 15.1082 70.0149 15.2998 69.824C16.4022 66.7147 16.8978 63.7628 19.7406 60.4845C20.7787 59.227 21.8961 60.349 20.858 61.6064C18.5902 64.3121 17.8711 67.0396 17.0402 69.655C17.152 69.7672 16.9603 69.9581 16.8804 70.2611C16.6888 70.452 16.8005 70.5642 16.6089 70.755C16.3692 71.6642 16.0178 72.4612 15.6663 73.2582C15.0752 74.9644 14.3723 76.5584 13.7812 78.2646C13.6214 78.8707 16.1613 72.9887 15.6663 73.2582C15.4747 73.4491 11.8648 80.1733 11.5614 80.252C10.6987 82.4521 9.64441 84.8431 8.47834 87.1219C8.28671 87.3127 8.2068 87.6158 8.09506 87.5036C7.66373 88.6036 7.31229 89.4006 6.88095 90.5007C6.52951 91.2977 6.0345 91.5672 5.61938 91.5337C5.49142 92.5551 5.25172 93.4643 5.12376 94.4857C4.88406 95.3949 4.08567 95.7431 3.47891 95.9004C2.91961 98.0219 2.63185 99.6494 1.9446 102.792C1.65684 104.42 1.73674 104.117 1.52889 105.441C1.32103 106.766 1.17685 108.92 0.809195 110.851C0.841036 111.266 0.681247 111.872 0.792988 111.985C0.66503 113.006 0.712505 114.97 0.64823 116.822L0.68007 117.237C0.632012 117.955 0.535905 119.392 0.839275 119.313C0.934809 120.559 1.03033 121.805 1.2376 123.163C1.38118 123.69 1.33312 124.409 1.44486 124.521C1.62029 125.464 1.79571 126.406 2.08287 127.461C2.3382 128.101 2.29014 128.819 2.54546 129.459C2.80078 130.098 3.23155 131.681 3.45503 131.905C3.59862 132.433 3.74219 132.96 4.07741 133.297C4.47631 134.464 4.6998 134.688 5.1786 135.552L5.80099 136.944C6.16805 137.695 6.7586 138.672 7.09382 139.008L7.3173 139.232C7.90784 140.209 8.49839 141.185 9.28058 141.97L9.50406 142.195C10.2862 142.98 10.8768 143.956 12.4093 145.112L12.6328 145.336C13.8301 146.155 15.3945 147.726 16.3683 148.32L16.5918 148.544C18.1243 149.7 19.0663 149.879 20.0401 150.473L20.9022 150.956C21.8761 151.55 22.818 151.729 22.9298 151.842C24.8456 152.615 26.1228 153.131 27.2564 153.119C31.2478 154.061 34.9839 154.362 39.5184 154.316C41.0672 154.338 42.3924 154.135 43.7177 153.933L44.1328 153.966C45.1547 153.842 46.1766 153.718 47.1985 153.594C49.3222 153.044 50.5675 153.144 53.9047 152.279C55.725 151.807 58.3755 151.402 59.7488 150.481C61.0741 150.278 60.659 150.245 62.3675 149.661L62.6709 149.582C64.2996 149.301 66.088 148.413 69.585 146.942C70.3834 146.593 71.1818 146.245 72.1718 145.706C71.9484 145.482 72.1082 144.876 72.6831 144.303C73.8329 143.158 74.9029 142.316 76.1644 141.283C76.3561 141.092 76.7394 140.71 77.0427 140.631C78.1127 139.789 79.2944 139.059 80.5559 138.026C80.6358 137.723 80.7157 137.42 80.9074 137.229C83.4786 134.445 86.6085 132.221 89.5468 130.189C90.9201 129.268 91.5425 130.659 90.0893 131.883L89.706 132.265C89.5144 132.456 89.3227 132.647 89.1311 132.838C87.6779 134.062 86.2247 135.286 84.7714 136.509C85.1067 136.846 85.1385 137.261 84.372 138.025C83.797 138.597 83.302 138.867 82.6952 139.024C82.6153 139.327 82.3438 139.821 81.6571 140.282L81.4655 140.473C81.9605 140.203 82.1522 140.012 82.6472 139.743C83.6054 138.788 84.8189 138.473 85.4737 137.598L86.352 136.947C89.5937 134.835 94.4165 130.479 98.936 126.201L99.3193 125.819C101.667 122.81 103.583 120.902 108.071 116.209ZM84.8154 9.30348C85.9971 8.57351 87.0988 8.14661 88.1688 7.30445C89.5421 6.38361 90.0846 8.07813 88.7113 8.99897C87.5296 9.72894 86.4278 10.1558 85.4378 10.6949C84.0644 11.6158 83.442 10.2243 84.8154 9.30348ZM95.1675 128.166C94.0176 129.312 92.9002 128.19 94.0501 127.045L97.8829 123.227C99.0327 122.082 100.15 123.204 99.0003 124.349L95.1675 128.166Z" fill="#D4F54D"/>
</svg>
