<svg width="151" height="18" viewBox="0 0 151 18" fill="none" xmlns="http://www.w3.org/2000/svg">
<path d="M150.182 11.9478C101.768 13.4111 53.3619 13.1768 4.9214 9.80345C4.63435 9.64172 4.31584 9.36771 4.02879 9.20599C11.7914 7.15075 19.5539 5.09552 27.285 2.92801C28.5175 2.58246 27.9824 0.673758 26.7184 0.907027C18.2836 3.15074 9.76817 5.53814 1.33334 7.78186C0.549024 8.00175 0.464713 8.9942 0.989717 9.57362C-0.0816417 9.63179 -0.232644 11.2485 0.821105 11.5585C3.18417 12.2281 5.46666 13.0414 7.55655 14.0298C9.8844 15.4359 12.4363 16.7792 14.9253 17.8979C16.1541 18.4011 17.1523 16.7891 15.9727 16.0299C13.6133 14.5116 11.0929 13.2806 8.60391 12.1619C55.6231 15.2071 103.115 16.0609 150.192 13.2771C151.008 13.1695 151.029 11.9525 150.182 11.9478Z" fill="#D4F54D"/>
</svg>
