<svg width="54" height="151" viewBox="0 0 54 151" fill="none" xmlns="http://www.w3.org/2000/svg">
<path d="M10.9886 148.544C10.8462 148.687 10.5615 148.83 10.4191 148.83C9.70722 149.259 8.85297 148.83 8.56821 148.115C8.14109 147.972 7.71396 147.972 7.28683 147.829C6.2902 147.685 6.14783 146.398 6.71733 145.682C10.2767 141.246 13.6937 136.954 17.2531 132.518C18.1074 131.373 19.9583 132.804 19.2464 134.092C17.2531 137.526 15.2599 140.96 13.1242 144.538C25.3685 137.669 36.3315 129.799 42.7384 116.492C49.7148 102.04 52.7047 85.1549 51.2809 69.1287C48.7181 38.5073 29.4974 11.3201 0.310427 0.874505C-0.259075 0.731415 0.025676 -0.127129 0.595179 0.0159616C29.9246 9.31685 49.9995 36.361 53.4165 66.6962C55.2674 83.2947 52.7047 100.466 45.8706 115.633C39.179 130.372 27.9313 138.957 14.4056 146.684C17.8226 147.256 21.0973 147.829 24.5143 148.544C26.0804 148.83 25.5109 151.263 23.8024 150.977C19.5311 150.118 15.2599 149.403 10.9886 148.544Z" fill="#D4F54D"/>
</svg>
