<svg width="151" height="18" viewBox="0 0 151 18" fill="none" xmlns="http://www.w3.org/2000/svg">
<path d="M0.765995 9.54529C49.1278 6.86485 97.5247 5.88159 146.035 8.03557C146.326 8.19003 146.651 8.45594 146.942 8.61039C139.234 10.8602 131.525 13.11 123.851 15.4713C122.628 15.8477 123.211 17.7424 124.468 17.4774C132.844 15.0222 141.297 12.4214 149.673 9.96628C150.451 9.72673 150.51 8.73247 149.971 8.16644C151.041 8.08135 151.151 6.46139 150.09 6.17792C147.71 5.56795 145.408 4.81232 143.294 3.8768C140.932 2.52969 138.347 1.25103 135.83 0.195273C134.589 -0.276882 133.632 1.35972 134.83 2.08899C137.227 3.54755 139.778 4.71476 142.294 5.77052C95.2132 3.9088 47.7144 4.24972 0.722443 8.21668C-0.0903836 8.34478 -0.0811234 9.56194 0.765995 9.54529Z" fill="#D4F54D"/>
</svg>
