<svg width="20" height="20" viewBox="0 0 20 20" fill="none" xmlns="http://www.w3.org/2000/svg">
<path d="M19.0994 17.566C19.5336 17.5752 19.8846 17.2057 19.8846 16.7715V5.9863C19.8846 5.56135 19.5382 5.21493 19.1133 5.21493H14.2495V4.41586C14.2495 2.07867 12.3835 0.138721 10.0463 0.115626C7.68603 0.0925318 5.75532 2.00477 5.75532 4.36043V5.21031H0.886958C0.462016 5.21031 0.115596 5.55673 0.115596 5.98168V16.7946C0.115596 18.499 1.49666 19.8847 3.20566 19.8847H16.7946C18.4851 19.8847 19.8662 18.5175 19.8846 16.8316C19.8893 16.3974 19.5521 16.0279 19.1179 16.0232C18.6883 16.0232 18.3419 16.3697 18.3419 16.7946C18.3419 17.6537 17.6121 18.3373 16.753 18.3373H3.20566C2.35116 18.3373 1.66294 17.6445 1.66294 16.7946V6.75766H5.75532V9.63526C5.75532 10.0694 6.11098 10.4343 6.54054 10.4297C6.96086 10.4205 7.29804 10.0787 7.29804 9.65835V4.402C7.29804 2.91932 8.47587 1.68145 9.95855 1.65835C11.4689 1.63526 12.7022 2.85466 12.7022 4.36043V5.21031H9.63523C9.20105 5.21031 8.83615 5.56597 8.84077 5.99553C8.85001 6.41586 9.19181 6.75304 9.61213 6.75304H12.7022V9.63064C12.7022 10.0648 13.0579 10.4297 13.4874 10.4251C13.9077 10.4159 14.2449 10.0741 14.2449 9.65373V6.75766H18.3373V16.7946C18.3419 17.2196 18.6791 17.5614 19.0994 17.566Z" fill="#D4F54D"/>
<path d="M16.7946 20.0001H3.20566C1.43661 20.0001 0.00012207 18.5637 0.00012207 16.7946V5.98628C0.00012207 5.49668 0.397351 5.09945 0.886958 5.09945H5.63523V4.36504C5.63523 3.19183 6.09712 2.09252 6.92853 1.26573C7.76456 0.438939 8.86848 -0.00909783 10.0417 0.000140049C12.4251 0.0232347 14.365 2.00476 14.365 4.41584V5.09483H19.1133C19.6029 5.09483 20.0001 5.49206 20.0001 5.98167V16.7715C20.0001 16.7807 20.0001 16.79 20.0001 16.7992C20.0001 16.8085 20.0001 16.8223 20.0001 16.8315C19.9816 18.5775 18.5405 20.0001 16.7946 20.0001ZM0.886958 5.32578C0.526681 5.32578 0.231069 5.62139 0.231069 5.98167V16.7946C0.231069 18.4343 1.56594 19.7692 3.20566 19.7692H16.7946C18.1987 19.7692 19.3904 18.7761 19.6953 17.4597C19.529 17.6075 19.3165 17.6907 19.0948 17.6861C18.7992 17.6814 18.5359 17.5244 18.3789 17.2934C18.3004 17.5382 18.1618 17.76 17.9724 17.9493C17.6491 18.2727 17.2057 18.4574 16.7484 18.4574H3.20566C2.29112 18.4574 1.54747 17.7138 1.54747 16.7992V6.64217H5.86617V9.63525C5.86617 9.81538 5.94008 9.99552 6.07403 10.1249C6.19874 10.2496 6.36502 10.3188 6.53592 10.3142C6.89158 10.3096 7.17795 10.014 7.17795 9.65834V4.40199C7.17795 2.85003 8.42045 1.56596 9.95393 1.54287C10.7114 1.52901 11.432 1.82 11.9724 2.3558C12.5174 2.8916 12.8131 3.60291 12.8131 4.36504V5.33039H9.63061C9.45047 5.33039 9.27033 5.4043 9.141 5.53825C9.01629 5.66296 8.95162 5.82924 8.95162 6.00014C8.95624 6.3558 9.25185 6.64217 9.60751 6.64217H12.8131V9.63525C12.8131 9.81538 12.887 9.99552 13.0209 10.1249C13.1456 10.2496 13.3119 10.3188 13.4828 10.3142C13.8385 10.3096 14.1248 10.014 14.1248 9.65834V6.64679H18.4482V16.2034C18.4574 16.1941 18.4666 16.1803 18.4805 16.171C18.6468 16.0048 18.8685 15.9124 19.1087 15.9124H19.1133C19.3442 15.9124 19.5659 16.0048 19.7322 16.1757C19.7461 16.1895 19.7553 16.1988 19.7692 16.2126V5.98628C19.7692 5.62601 19.4736 5.33039 19.1133 5.33039H14.1341V4.41584C14.1341 2.12947 12.3004 0.254182 10.0417 0.231087C8.93315 0.221849 7.88465 0.646791 7.09481 1.42739C6.30497 2.21261 5.87079 3.25187 5.87079 4.36042V5.32578H0.886958ZM1.77379 16.7946C1.77379 17.5844 2.41583 18.2219 3.20105 18.2219H16.7484C17.141 18.2219 17.529 18.0602 17.8061 17.7831C18.074 17.5152 18.2218 17.1641 18.2218 16.7946V6.87312H14.365V9.65372C14.365 10.1341 13.9724 10.5313 13.492 10.5406C13.2565 10.5452 13.0348 10.4528 12.8639 10.2865C12.6883 10.1156 12.5867 9.87543 12.5867 9.63063V6.8685H9.61213C9.13176 6.8685 8.73453 6.47589 8.7253 5.99552C8.72068 5.75996 8.81306 5.53825 8.97934 5.36735C9.15024 5.19183 9.39042 5.09021 9.63523 5.09021H12.5867V4.36504C12.5867 3.66758 12.3142 3.01169 11.8154 2.52208C11.3165 2.03247 10.656 1.76457 9.95855 1.77843C8.5544 1.80153 7.41352 2.97936 7.41352 4.40661V9.65372C7.41352 10.1341 7.02091 10.5313 6.54054 10.5406C6.30959 10.5452 6.08326 10.4528 5.91236 10.2865C5.73684 10.1156 5.63523 9.87543 5.63523 9.63063V6.8685H1.77379V16.7946ZM19.0994 17.4505C19.2703 17.4551 19.4366 17.3858 19.5613 17.2611C19.686 17.1364 19.7599 16.9701 19.7692 16.7992C19.7646 16.6237 19.6907 16.4574 19.5706 16.3327C19.4505 16.208 19.2888 16.1387 19.1179 16.1387C19.1179 16.1387 19.1179 16.1387 19.1133 16.1387C18.9378 16.1387 18.7761 16.208 18.6514 16.3281C18.5267 16.4528 18.4574 16.6191 18.4574 16.7946C18.4574 17.1503 18.7438 17.4459 19.0994 17.4505Z" fill="#D4F54D"/>
</svg>
