<svg width="158" height="86" viewBox="0 0 158 86" fill="none" xmlns="http://www.w3.org/2000/svg">
<path d="M1.16598 11.856C1.06465 10.9187 1.02665 10.07 1.05198 9.31C1.05198 9.03133 1.06465 8.67667 1.08998 8.246C1.11531 7.79 1.17865 7.34667 1.27998 6.916C1.40665 6.48533 1.57131 6.118 1.77398 5.814C1.97665 5.51 2.24265 5.37067 2.57198 5.396C2.85065 5.42133 3.04065 5.586 3.14198 5.89C3.24331 6.194 3.29398 6.58667 3.29398 7.068C3.31931 7.524 3.31931 8.03067 3.29398 8.588C3.26865 9.12 3.26865 9.62667 3.29398 10.108C3.34465 10.5893 3.44598 10.9947 3.59798 11.324C3.77531 11.6533 4.05398 11.8307 4.43398 11.856C4.83931 11.8307 5.29531 11.8307 5.80198 11.856C6.33398 11.8813 6.84065 11.8687 7.32198 11.818C7.80331 11.742 8.20865 11.6153 8.53798 11.438C8.86731 11.2353 9.04464 10.9187 9.06998 10.488C8.99398 10.0067 8.95598 9.52533 8.95598 9.044C8.95598 8.664 8.95598 8.22067 8.95598 7.714C8.95598 7.182 8.96865 6.67533 8.99398 6.194C9.04465 5.71267 9.12065 5.30733 9.22198 4.978C9.34865 4.64867 9.53865 4.49667 9.79198 4.522C10.0453 4.54733 10.2606 4.62333 10.438 4.75C10.6153 4.87667 10.7546 5.02867 10.856 5.206C10.9573 5.358 11.0333 5.51 11.084 5.662C11.1346 5.78867 11.1726 5.87733 11.198 5.928C11.2486 6.232 11.274 6.66267 11.274 7.22C11.2993 7.752 11.312 8.22067 11.312 8.626C11.2613 10.0193 11.3246 11.4127 11.502 12.806C11.7046 14.1993 11.7806 15.5927 11.73 16.986C11.73 17.1127 11.7173 17.29 11.692 17.518C11.692 17.7207 11.654 17.9233 11.578 18.126C11.5273 18.3033 11.4386 18.468 11.312 18.62C11.1853 18.7467 11.008 18.81 10.78 18.81C10.4253 18.7847 10.134 18.582 9.90598 18.202C9.70331 17.7967 9.53865 17.3533 9.41198 16.872C9.28531 16.3653 9.18398 15.884 9.10798 15.428C9.03198 14.9467 8.94331 14.6173 8.84198 14.44C8.71531 14.1867 8.49998 14.0093 8.19598 13.908C7.91731 13.7813 7.66398 13.7053 7.43598 13.68C6.29598 13.6293 5.39665 13.7813 4.73798 14.136C4.10465 14.4907 3.77531 14.9847 3.74998 15.618C3.74998 15.922 3.83865 16.3527 4.01598 16.91C4.19331 17.442 4.28198 17.9867 4.28198 18.544C4.28198 18.7467 4.21865 18.9367 4.09198 19.114C3.96531 19.3167 3.67398 19.4053 3.21798 19.38C2.86331 19.3547 2.55931 19.19 2.30598 18.886C2.07798 18.582 1.88798 18.1893 1.73598 17.708C1.60931 17.2267 1.50798 16.7073 1.43198 16.15C1.35598 15.5673 1.29265 15.01 1.24198 14.478C1.21665 13.9207 1.20398 13.414 1.20398 12.958C1.20398 12.4767 1.19131 12.1093 1.16598 11.856Z" fill="white"/>
<path d="M25.5884 18.202C25.5884 18.7087 25.4237 19.0887 25.0944 19.342C24.7904 19.6207 24.4611 19.76 24.1064 19.76C23.7517 19.76 23.4731 19.6587 23.2704 19.456C23.0931 19.2787 22.9284 19.076 22.7764 18.848C22.6244 18.62 22.4597 18.4173 22.2824 18.24C22.1304 18.0373 21.9024 17.936 21.5984 17.936C21.1677 17.936 20.6737 18.0247 20.1164 18.202C19.5844 18.3793 19.0651 18.468 18.5584 18.468C18.2544 18.468 17.9504 18.43 17.6464 18.354C17.3424 18.2527 17.0511 18.126 16.7724 17.974C16.5191 17.7967 16.3037 17.5813 16.1264 17.328C15.9744 17.0747 15.8984 16.796 15.8984 16.492C15.8984 15.9093 16.1011 15.3647 16.5064 14.858C16.9117 14.326 17.3931 13.87 17.9504 13.49C18.5331 13.0847 19.1411 12.7553 19.7744 12.502C20.4077 12.2487 20.9524 12.1093 21.4084 12.084C21.9657 12.0333 22.3331 11.9447 22.5104 11.818C22.6877 11.666 22.7764 11.3747 22.7764 10.944C22.7764 10.6147 22.7637 10.2727 22.7384 9.918C22.7131 9.538 22.6497 9.196 22.5484 8.892C22.4471 8.588 22.2951 8.34733 22.0924 8.17C21.9151 7.96733 21.6617 7.866 21.3324 7.866C20.9777 7.866 20.5851 7.98 20.1544 8.208C19.7491 8.436 19.3311 8.702 18.9004 9.006C18.4951 9.28467 18.0897 9.538 17.6844 9.766C17.3044 9.994 16.9624 10.108 16.6584 10.108C16.3544 10.108 16.0504 9.98133 15.7464 9.728C15.4677 9.44933 15.3284 9.12 15.3284 8.74C15.3284 8.38534 15.6071 8.03067 16.1644 7.676C16.7217 7.296 17.3677 6.96667 18.1024 6.688C18.8371 6.384 19.5591 6.14333 20.2684 5.966C20.9777 5.78867 21.4844 5.7 21.7884 5.7C22.5991 5.7 23.2197 5.90267 23.6504 6.308C24.0811 6.688 24.3851 7.16934 24.5624 7.752C24.7651 8.33467 24.8791 8.95534 24.9044 9.614C24.9297 10.2727 24.9424 10.868 24.9424 11.4C24.9424 12.464 24.9804 13.5153 25.0564 14.554C25.1324 15.5927 25.3097 16.6187 25.5884 17.632V18.202ZM21.9404 16.112C22.0671 15.9853 22.1177 15.846 22.0924 15.694C22.0924 15.5167 22.0417 15.352 21.9404 15.2C21.8644 15.048 21.7504 14.9213 21.5984 14.82C21.4717 14.6933 21.3324 14.63 21.1804 14.63C21.0284 14.63 20.8131 14.6553 20.5344 14.706C20.2811 14.7567 20.0277 14.8327 19.7744 14.934C19.5211 15.01 19.2931 15.1367 19.0904 15.314C18.9131 15.466 18.8244 15.6687 18.8244 15.922C18.8244 16.226 18.9511 16.416 19.2044 16.492C19.4831 16.5427 19.7997 16.5553 20.1544 16.53C20.5091 16.4793 20.8511 16.416 21.1804 16.34C21.5351 16.2387 21.7884 16.1627 21.9404 16.112Z" fill="white"/>
<path d="M37.388 10.26C37.7933 10.4373 38.2113 10.602 38.642 10.754C39.098 10.906 39.516 11.0833 39.896 11.286C40.276 11.4633 40.5927 11.6913 40.846 11.97C41.0993 12.2233 41.226 12.54 41.226 12.92C41.226 13.4013 41.0233 13.87 40.618 14.326C40.2127 14.7567 39.706 15.1493 39.098 15.504C38.5153 15.8587 37.882 16.1627 37.198 16.416C36.514 16.6693 35.8933 16.8467 35.336 16.948C34.4747 17.1507 33.6133 17.3153 32.752 17.442C31.8907 17.5687 31.0547 17.6827 30.244 17.784C30.1173 17.8093 29.94 17.7713 29.712 17.67C29.5093 17.5433 29.408 17.3787 29.408 17.176C29.3573 15.656 29.3067 14.136 29.256 12.616C29.2053 11.096 29.18 9.56333 29.18 8.018C29.18 7.61267 29.3573 7.27067 29.712 6.992C30.0667 6.71333 30.4973 6.48533 31.004 6.308C31.5107 6.13067 32.0427 6.01667 32.6 5.966C33.1573 5.89 33.626 5.852 34.006 5.852C34.4367 5.852 34.918 5.89 35.45 5.966C36.0073 6.042 36.514 6.16867 36.97 6.346C37.4513 6.498 37.844 6.71333 38.148 6.992C38.4773 7.24533 38.642 7.562 38.642 7.942C38.642 8.27133 38.4773 8.664 38.148 9.12C37.844 9.55067 37.5907 9.93067 37.388 10.26ZM35.526 12.236C35.3233 12.2613 35.0193 12.2993 34.614 12.35C34.234 12.3753 33.8413 12.4513 33.436 12.578C33.0307 12.7047 32.676 12.8947 32.372 13.148C32.068 13.376 31.916 13.7053 31.916 14.136C31.916 14.516 32.0173 14.8073 32.22 15.01C32.4227 15.1873 32.6633 15.314 32.942 15.39C33.2207 15.4407 33.5247 15.466 33.854 15.466C34.1833 15.4407 34.4873 15.4027 34.766 15.352C35.1713 15.276 35.5893 15.1747 36.02 15.048C36.476 14.9213 36.894 14.782 37.274 14.63C37.654 14.4527 37.958 14.2753 38.186 14.098C38.4393 13.8953 38.5533 13.68 38.528 13.452C38.5027 13.1987 38.376 12.996 38.148 12.844C37.9453 12.692 37.692 12.578 37.388 12.502C37.084 12.426 36.7547 12.3753 36.4 12.35C36.0707 12.2993 35.7793 12.2613 35.526 12.236ZM32.296 10.64H32.638C32.9673 10.64 33.322 10.5767 33.702 10.45C34.082 10.3233 34.4367 10.1713 34.766 9.994C35.0953 9.79134 35.3613 9.58867 35.564 9.386C35.7667 9.158 35.868 8.968 35.868 8.816C35.868 8.63867 35.8047 8.48667 35.678 8.36C35.5513 8.208 35.3993 8.08133 35.222 7.98C35.0447 7.87867 34.8547 7.81534 34.652 7.79C34.4493 7.73933 34.2847 7.714 34.158 7.714C33.9047 7.714 33.626 7.752 33.322 7.828C33.018 7.87867 32.7393 7.98 32.486 8.132C32.2327 8.25867 32.0173 8.42333 31.84 8.626C31.688 8.82867 31.612 9.06933 31.612 9.348C31.612 9.728 31.688 9.994 31.84 10.146C31.992 10.298 32.144 10.4627 32.296 10.64Z" fill="white"/>
<path d="M52.2219 15.808C51.2593 16.2893 50.3093 16.7327 49.3719 17.138C48.4346 17.5433 47.5226 17.7207 46.6359 17.67C45.6479 17.6193 44.9006 17.2393 44.3939 16.53C43.8873 15.7953 43.6339 14.934 43.6339 13.946C43.6339 13.2367 43.7353 12.464 43.9379 11.628C44.1406 10.792 44.4319 10.0193 44.8119 9.31C45.2173 8.57533 45.7366 7.98 46.3699 7.524C47.0033 7.04267 47.7633 6.82733 48.6499 6.878C49.0553 6.90333 49.4859 7.03 49.9419 7.258C50.4233 7.46067 50.8539 7.714 51.2339 8.018C51.6393 8.322 51.9686 8.664 52.2219 9.044C52.5006 9.424 52.6399 9.804 52.6399 10.184C52.6399 10.64 52.4753 11.0073 52.1459 11.286C51.8419 11.5647 51.4493 11.7927 50.9679 11.97C50.4866 12.1473 49.9546 12.2993 49.3719 12.426C48.8146 12.5273 48.2826 12.6413 47.7759 12.768C47.2946 12.8693 46.8766 12.996 46.5219 13.148C46.1926 13.3 46.0153 13.5153 45.9899 13.794C45.9899 14.326 46.2053 14.744 46.6359 15.048C47.0666 15.352 47.4973 15.5167 47.9279 15.542C48.3079 15.5673 48.7259 15.4913 49.1819 15.314C49.6379 15.1367 50.0939 14.9467 50.5499 14.744C51.0059 14.516 51.4366 14.3133 51.8419 14.136C52.2726 13.9587 52.6526 13.87 52.9819 13.87C53.1339 13.87 53.2733 13.9587 53.3999 14.136C53.5266 14.3133 53.5899 14.4527 53.5899 14.554C53.5899 14.7313 53.4633 14.9467 53.2099 15.2C52.9819 15.428 52.6526 15.6307 52.2219 15.808ZM49.9039 10.146V9.88C49.9039 9.70267 49.8279 9.538 49.6759 9.386C49.5493 9.20867 49.3846 9.05667 49.1819 8.93C49.0046 8.80333 48.8146 8.702 48.6119 8.626C48.4093 8.55 48.2446 8.512 48.1179 8.512C47.9659 8.512 47.8013 8.56267 47.6239 8.664C47.4466 8.74 47.2693 8.854 47.0919 9.006C46.9146 9.158 46.7626 9.33534 46.6359 9.538C46.5346 9.71533 46.4839 9.90534 46.4839 10.108C46.4839 10.3867 46.5599 10.6147 46.7119 10.792C46.8893 10.944 47.1299 11.02 47.4339 11.02C47.6113 11.0453 47.8139 11.0453 48.0419 11.02C48.2953 10.9693 48.5486 10.906 48.8019 10.83C49.0553 10.7287 49.2833 10.6273 49.4859 10.526C49.6886 10.3993 49.8279 10.2727 49.9039 10.146Z" fill="white"/>
<path d="M62.6503 15.01C62.9036 15.1873 63.1443 15.276 63.3723 15.276C64.0816 15.276 64.6516 15.2507 65.0823 15.2C65.5383 15.124 65.8803 15.01 66.1083 14.858C66.3616 14.706 66.5263 14.5033 66.6023 14.25C66.7036 13.9713 66.7543 13.642 66.7543 13.262C66.7543 12.2993 66.7923 11.5773 66.8683 11.096C66.9443 10.6147 66.9823 10.1713 66.9823 9.766C66.9823 9.56333 66.8683 9.36067 66.6403 9.158C66.4376 8.93 66.2223 8.816 65.9943 8.816C65.4876 8.86667 65.0189 8.892 64.5883 8.892C64.1576 8.892 63.7903 8.90467 63.4863 8.93C63.1823 8.95534 62.9416 9.01867 62.7643 9.12C62.5869 9.22133 62.4983 9.424 62.4983 9.728C62.4983 10.108 62.4856 10.5133 62.4603 10.944C62.4603 11.3747 62.4476 11.78 62.4223 12.16C62.4223 12.54 62.4096 12.882 62.3843 13.186C62.3843 13.4647 62.3843 13.6547 62.3843 13.756C62.3843 13.984 62.3969 14.1993 62.4223 14.402C62.4476 14.6047 62.5236 14.8073 62.6503 15.01ZM59.0783 15.998C59.4583 15.846 59.6989 15.5547 59.8003 15.124C59.9269 14.6933 59.9903 14.288 59.9903 13.908C59.9903 12.9453 60.0156 12.0587 60.0663 11.248C60.1169 10.412 60.0789 9.462 59.9523 8.398V8.246C59.9523 7.84067 60.0916 7.486 60.3703 7.182C60.6743 6.85267 61.0289 6.688 61.4343 6.688C61.9663 6.688 62.3843 6.688 62.6883 6.688C63.0176 6.66267 63.4609 6.65 64.0183 6.65C64.4996 6.65 64.9683 6.62467 65.4243 6.574C65.9056 6.52333 66.3743 6.498 66.8303 6.498C67.1343 6.498 67.4256 6.574 67.7043 6.726C68.0083 6.878 68.2743 7.08067 68.5023 7.334C68.7303 7.562 68.9203 7.828 69.0723 8.132C69.2243 8.41067 69.3003 8.702 69.3003 9.006C69.3003 9.20867 69.2749 9.576 69.2243 10.108C69.1736 10.6147 69.1229 11.1467 69.0723 11.704C69.0216 12.2613 68.9836 12.768 68.9583 13.224C68.9329 13.68 68.9456 13.946 68.9963 14.022C69.1736 14.2247 69.6296 14.2753 70.3643 14.174C70.7443 14.098 71.0356 14.1613 71.2383 14.364C71.4663 14.5667 71.6309 14.8453 71.7323 15.2C71.8589 15.5293 71.9349 15.9093 71.9603 16.34C71.9856 16.7453 71.9983 17.138 71.9983 17.518C71.9983 17.9233 71.9983 18.3667 71.9983 18.848C72.0236 19.304 71.9983 19.722 71.9223 20.102C71.8463 20.5073 71.7196 20.8367 71.5423 21.09C71.3649 21.3687 71.0863 21.508 70.7063 21.508C70.5796 21.508 70.4403 21.508 70.2883 21.508C70.1363 21.508 69.9969 21.47 69.8703 21.394C69.7436 21.318 69.6296 21.1913 69.5283 21.014C69.4269 20.8367 69.3763 20.5707 69.3763 20.216C69.3763 19.7347 69.4143 19.2533 69.4903 18.772C69.5916 18.2653 69.6549 17.822 69.6803 17.442C69.7056 17.062 69.6549 16.7707 69.5283 16.568C69.4016 16.3653 69.1229 16.302 68.6923 16.378C67.0963 16.682 65.6143 16.9227 64.2463 17.1C62.9036 17.2773 61.7383 17.442 60.7503 17.594C59.7623 17.746 58.9769 17.9107 58.3943 18.088C57.8116 18.2653 57.4823 18.4933 57.4063 18.772C57.3556 18.924 57.3683 19.1267 57.4443 19.38C57.5203 19.6587 57.6089 19.95 57.7103 20.254C57.8369 20.5833 57.9636 20.9127 58.0903 21.242C58.2423 21.5967 58.3816 21.926 58.5083 22.23C58.5336 22.2807 58.5336 22.3187 58.5083 22.344C58.5083 22.3693 58.5083 22.4073 58.5083 22.458C58.5083 22.7113 58.3816 22.9773 58.1283 23.256C57.8749 23.56 57.5963 23.712 57.2923 23.712C57.0136 23.712 56.7729 23.636 56.5703 23.484C56.3676 23.332 56.1903 23.142 56.0383 22.914C55.9116 22.686 55.7976 22.4327 55.6963 22.154C55.5949 21.8753 55.4936 21.6093 55.3923 21.356C55.2656 20.8493 55.1389 20.3427 55.0123 19.836C54.8856 19.3547 54.8223 18.8607 54.8223 18.354C54.8223 18.1007 54.8476 17.898 54.8983 17.746C54.9489 17.5687 55.0376 17.3913 55.1643 17.214C55.2656 17.1127 55.4936 16.9987 55.8483 16.872C56.2029 16.7453 56.5829 16.6313 56.9883 16.53C57.4189 16.4033 57.8243 16.302 58.2043 16.226C58.5843 16.1247 58.8756 16.0487 59.0783 15.998Z" fill="white"/>
<path d="M85.7676 7.486C85.8436 7.942 85.907 8.67667 85.9576 9.69C86.0083 10.7033 86.0463 11.7547 86.0716 12.844C86.1223 13.9333 86.1603 14.9593 86.1856 15.922C86.211 16.8593 86.211 17.5053 86.1856 17.86C86.0336 18.1133 85.7676 18.24 85.3876 18.24C85.0076 18.24 84.7543 18.0627 84.6276 17.708C84.577 17.556 84.5263 17.2647 84.4756 16.834C84.425 16.378 84.3616 15.8713 84.2856 15.314C84.2096 14.7313 84.121 14.1233 84.0196 13.49C83.9436 12.8567 83.855 12.274 83.7536 11.742C83.6523 11.21 83.551 10.7793 83.4496 10.45C83.3736 10.1207 83.2976 9.956 83.2216 9.956C83.095 9.98133 82.8923 10.184 82.6136 10.564C82.3603 10.944 82.0563 11.4127 81.7016 11.97C81.347 12.5273 80.9543 13.148 80.5236 13.832C80.093 14.4907 79.6496 15.124 79.1936 15.732C78.763 16.34 78.3323 16.872 77.9016 17.328C77.471 17.7587 77.0783 18.0247 76.7236 18.126C76.4196 18.2273 76.1536 18.2273 75.9256 18.126C75.6976 17.9993 75.5076 17.822 75.3556 17.594C75.2036 17.366 75.0896 17.1 75.0136 16.796C74.9376 16.492 74.8996 16.2007 74.8996 15.922C74.849 14.5287 74.849 13.072 74.8996 11.552C74.9503 10.032 74.925 8.56267 74.8236 7.144C74.7983 7.04267 74.8616 6.92867 75.0136 6.802C75.1656 6.67533 75.343 6.58667 75.5456 6.536C75.7483 6.48533 75.9383 6.51067 76.1156 6.612C76.293 6.688 76.407 6.89067 76.4576 7.22C76.5336 7.65067 76.5843 8.15733 76.6096 8.74C76.6603 9.29734 76.6983 9.88 76.7236 10.488C76.749 11.096 76.7616 11.704 76.7616 12.312C76.787 12.92 76.825 13.4647 76.8756 13.946C76.9263 14.2247 76.977 14.402 77.0276 14.478C77.0783 14.5287 77.205 14.4527 77.4076 14.25C77.737 13.946 78.0916 13.4773 78.4716 12.844C78.877 12.2107 79.2696 11.5393 79.6496 10.83C80.055 10.1207 80.4476 9.43667 80.8276 8.778C81.233 8.094 81.613 7.562 81.9676 7.182C82.221 6.92867 82.5503 6.764 82.9556 6.688C83.3863 6.58667 83.8043 6.574 84.2096 6.65C84.615 6.70067 84.9696 6.802 85.2736 6.954C85.5776 7.106 85.7423 7.28333 85.7676 7.486Z" fill="white"/>
<path d="M90.8329 22.306C90.6809 22.4327 90.5036 22.4707 90.3009 22.42C90.1236 22.3693 90.0223 22.2553 89.9969 22.078C90.2249 21.2927 90.3136 20.6847 90.2629 20.254C90.2122 19.8233 90.1236 19.456 89.9969 19.152C89.8703 18.848 89.7309 18.544 89.5789 18.24C89.4269 17.936 89.3763 17.5307 89.4269 17.024C89.4523 16.7707 89.5662 16.53 89.7689 16.302C89.9969 16.0487 90.2123 15.8967 90.4149 15.846C90.8456 15.77 91.1876 15.8587 91.4409 16.112C91.6943 16.34 91.8589 16.6693 91.9349 17.1C92.0362 17.5053 92.0616 17.974 92.0109 18.506C91.9856 19.038 91.9096 19.5447 91.7829 20.026C91.6816 20.5327 91.5422 20.9887 91.3649 21.394C91.1876 21.8247 91.0102 22.1287 90.8329 22.306Z" fill="white"/>
<path d="M0.291979 38.55C0.317312 38.3727 0.367978 38.1827 0.443979 37.98C0.545312 37.7773 0.659312 37.6 0.785979 37.448C0.937979 37.2707 1.10265 37.144 1.27998 37.068C1.45731 36.9667 1.64731 36.9287 1.84998 36.954C2.05265 36.9793 2.20465 37.0553 2.30598 37.182C2.40731 37.2833 2.48331 37.41 2.53398 37.562C2.58465 37.714 2.60998 37.866 2.60998 38.018C2.60998 38.1447 2.60998 38.246 2.60998 38.322C2.58465 38.7527 2.52131 39.196 2.41998 39.652C2.34398 40.0827 2.28065 40.5133 2.22998 40.944C2.15398 41.4507 2.17931 41.8687 2.30598 42.198C2.43265 42.502 2.72398 42.6793 3.17998 42.73C3.45865 42.7553 3.74998 42.7427 4.05398 42.692C4.35798 42.616 4.63665 42.5147 4.88998 42.388C5.14331 42.2613 5.35865 42.1093 5.53598 41.932C5.71331 41.7293 5.81465 41.514 5.83998 41.286C5.94131 40.4247 5.94131 39.5633 5.83998 38.702C5.73865 37.8153 5.72598 36.9287 5.80198 36.042C5.82731 35.7887 5.97931 35.5607 6.25798 35.358C6.56198 35.1553 6.86598 35.0667 7.16998 35.092C7.37265 35.1427 7.53731 35.2567 7.66398 35.434C7.81598 35.6113 7.94265 35.814 8.04398 36.042C8.14531 36.2447 8.20865 36.46 8.23398 36.688C8.25931 36.8907 8.25931 37.0553 8.23398 37.182C8.20865 37.41 8.18331 37.6253 8.15798 37.828C8.13265 38.0053 8.10731 38.1953 8.08198 38.398C8.00598 39.0313 8.01865 39.652 8.11998 40.26C8.24665 40.868 8.44931 41.476 8.72798 42.084C8.77865 42.1853 8.80398 42.2993 8.80398 42.426C8.82931 42.5273 8.84198 42.6413 8.84198 42.768C8.81665 43.0467 8.70265 43.3507 8.49998 43.68C8.29731 44.0093 8.17065 44.3513 8.11998 44.706C8.06931 45.0353 8.05665 45.3773 8.08198 45.732C8.13265 46.0867 8.18331 46.454 8.23398 46.834C8.30998 47.1887 8.36065 47.556 8.38598 47.936C8.41131 48.2907 8.41131 48.6327 8.38598 48.962C8.36065 49.2153 8.29731 49.4687 8.19598 49.722C8.09465 50.0007 7.85398 50.1147 7.47398 50.064C7.14465 50.0387 6.90398 49.874 6.75198 49.57C6.59998 49.266 6.49865 48.8987 6.44798 48.468C6.39731 48.0373 6.35931 47.5813 6.33398 47.1C6.33398 46.5933 6.30865 46.1373 6.25798 45.732C6.23265 45.3013 6.15665 44.934 6.02998 44.63C5.90331 44.326 5.68798 44.1613 5.38398 44.136C5.18131 44.1107 4.87731 44.136 4.47198 44.212C4.09198 44.2627 3.59798 44.3513 2.98998 44.478C2.83798 44.5287 2.69865 44.554 2.57198 44.554C2.44531 44.554 2.33131 44.554 2.22998 44.554C1.54598 44.4527 1.05198 44.174 0.747979 43.718C0.469312 43.2367 0.291978 42.692 0.215979 42.084C0.165312 41.4507 0.165312 40.8173 0.215979 40.184C0.266645 39.5253 0.291979 38.9807 0.291979 38.55Z" fill="white"/>
<path d="M14.9888 39.272C14.7101 39.2213 14.3428 39.2087 13.8868 39.234C13.4308 39.2593 12.9748 39.2847 12.5188 39.31C12.0881 39.31 11.7081 39.31 11.3788 39.31C11.0494 39.2847 10.8848 39.2087 10.8848 39.082C10.8848 38.778 10.9228 38.5373 10.9988 38.36C11.0748 38.1827 11.1888 38.0433 11.3408 37.942C11.4928 37.8407 11.6954 37.7647 11.9488 37.714C12.2021 37.638 12.5061 37.5747 12.8608 37.524C13.3674 37.448 13.9881 37.372 14.7228 37.296C15.4828 37.1947 16.2554 37.106 17.0408 37.03C17.8514 36.954 18.6241 36.8907 19.3588 36.84C20.1188 36.764 20.7521 36.726 21.2588 36.726C21.6388 36.726 21.9808 36.84 22.2848 37.068C22.6141 37.2707 22.7788 37.5873 22.7788 38.018C22.7788 38.2967 22.7028 38.4993 22.5508 38.626C22.4241 38.7273 22.2594 38.8033 22.0568 38.854C21.8794 38.9047 21.6768 38.93 21.4488 38.93C21.2208 38.9047 21.0308 38.892 20.8788 38.892H19.6248C18.9661 38.8667 18.4974 38.9047 18.2188 39.006C17.9401 39.082 17.7374 39.1833 17.6108 39.31C17.5094 39.4367 17.4714 39.804 17.4968 40.412C17.5474 41.02 17.6108 41.704 17.6868 42.464C17.7628 43.1987 17.8388 43.9207 17.9148 44.63C18.0161 45.3393 18.0668 45.8713 18.0668 46.226C18.0668 46.606 17.9528 46.834 17.7248 46.91C17.5221 46.986 17.2814 46.9607 17.0028 46.834C16.7494 46.682 16.4961 46.4667 16.2428 46.188C15.9894 45.9093 15.8374 45.6053 15.7868 45.276C15.7108 44.8453 15.6474 44.3767 15.5968 43.87C15.5714 43.338 15.5334 42.806 15.4828 42.274C15.4574 41.742 15.4068 41.2227 15.3308 40.716C15.2548 40.184 15.1408 39.7027 14.9888 39.272Z" fill="white"/>
<path d="M24.7922 45.048C24.5135 44.6933 24.3742 44.2247 24.3742 43.642C24.3742 43.034 24.5262 42.4133 24.8302 41.78C25.1595 41.1467 25.5648 40.564 26.0462 40.032C26.5275 39.5 27.0468 39.0693 27.6042 38.74C28.1868 38.3853 28.7315 38.208 29.2382 38.208C29.6942 38.208 30.1248 38.322 30.5302 38.55C30.9608 38.778 31.3282 39.082 31.6322 39.462C31.9615 39.8167 32.2148 40.222 32.3922 40.678C32.5948 41.134 32.6962 41.59 32.6962 42.046C32.6962 42.578 32.5062 43.072 32.1262 43.528C31.7715 43.984 31.3028 44.3893 30.7202 44.744C30.1628 45.0733 29.5422 45.3393 28.8582 45.542C28.1742 45.7193 27.5155 45.808 26.8822 45.808C26.4262 45.808 26.0082 45.7573 25.6282 45.656C25.2735 45.5293 24.9948 45.3267 24.7922 45.048ZM29.4282 40.678C29.1242 40.678 28.8328 40.7667 28.5542 40.944C28.2755 41.1213 28.0222 41.3367 27.7942 41.59C27.5915 41.8433 27.4142 42.122 27.2622 42.426C27.1355 42.7047 27.0722 42.958 27.0722 43.186C27.0722 43.566 27.2875 43.756 27.7182 43.756C28.1235 43.756 28.4908 43.6927 28.8202 43.566C29.1748 43.4393 29.4662 43.3 29.6942 43.148C29.9475 42.9707 30.1375 42.7807 30.2642 42.578C30.3908 42.3753 30.4542 42.198 30.4542 42.046C30.4542 41.7167 30.3528 41.4127 30.1502 41.134C29.9475 40.83 29.7068 40.678 29.4282 40.678Z" fill="white"/>
<path d="M36.465 36.726C36.5663 36.27 36.6043 35.7633 36.579 35.206C36.579 34.6487 36.6043 34.1293 36.655 33.648C36.7057 33.1413 36.8197 32.7233 36.997 32.394C37.1997 32.0647 37.567 31.9 38.099 31.9C38.5043 31.9 38.8337 32.0267 39.087 32.28C39.3657 32.5333 39.505 32.8247 39.505 33.154C39.4797 33.762 39.3783 34.37 39.201 34.978C39.049 35.586 38.8717 36.194 38.669 36.802C38.4917 37.3847 38.327 37.98 38.175 38.588C38.023 39.1707 37.947 39.7407 37.947 40.298C37.947 40.5513 37.985 40.868 38.061 41.248C38.137 41.6027 38.3143 41.78 38.593 41.78C39.0997 41.78 39.6317 41.6533 40.189 41.4C40.7463 41.1213 41.2783 40.982 41.785 40.982C42.2157 40.982 42.5957 41.0707 42.925 41.248C43.2543 41.4253 43.5203 41.666 43.723 41.97C43.951 42.2487 44.1157 42.5653 44.217 42.92C44.3437 43.2493 44.407 43.5787 44.407 43.908C44.407 44.5667 44.2423 45.2127 43.913 45.846C43.609 46.454 43.2163 46.9987 42.735 47.48C42.2537 47.9613 41.7217 48.354 41.139 48.658C40.5563 48.9367 39.9863 49.0633 39.429 49.038C38.517 49.0127 37.795 48.7847 37.263 48.354C36.731 47.9233 36.3257 47.366 36.047 46.682C35.7937 45.9727 35.6417 45.1873 35.591 44.326C35.5403 43.4393 35.553 42.54 35.629 41.628C35.705 40.716 35.819 39.842 35.971 39.006C36.1483 38.1447 36.313 37.3847 36.465 36.726ZM39.885 46.986C40.5183 46.7073 41.0123 46.378 41.367 45.998C41.747 45.618 41.937 45.1113 41.937 44.478C41.937 44.1993 41.8483 43.9587 41.671 43.756C41.519 43.528 41.2657 43.414 40.911 43.414C40.6577 43.414 40.379 43.49 40.075 43.642C39.7963 43.7687 39.5177 43.946 39.239 44.174C38.9857 44.402 38.7703 44.6553 38.593 44.934C38.4157 45.1873 38.327 45.4407 38.327 45.694C38.327 46.074 38.479 46.378 38.783 46.606C39.1123 46.8087 39.4797 46.9353 39.885 46.986Z" fill="white"/>
<path d="M62.0634 46.796C62.0634 46.872 62.0254 46.9733 61.9494 47.1C61.8734 47.2267 61.772 47.3533 61.6454 47.48C61.544 47.5813 61.4047 47.67 61.2274 47.746C61.0754 47.822 60.898 47.8473 60.6954 47.822C60.29 47.7713 59.9987 47.366 59.8214 46.606C59.644 45.8207 59.5047 44.8833 59.4034 43.794C59.3274 42.7047 59.264 41.5773 59.2134 40.412C59.188 39.2213 59.0994 38.1827 58.9474 37.296C58.922 37.2453 58.9094 37.1947 58.9094 37.144C58.9347 37.0933 58.9474 37.0427 58.9474 36.992C58.998 36.536 59.15 36.194 59.4034 35.966C59.6567 35.738 59.91 35.6367 60.1634 35.662C60.442 35.662 60.6827 35.7887 60.8854 36.042C61.1134 36.27 61.2147 36.612 61.1894 37.068C61.2147 38.1827 61.278 39.2213 61.3794 40.184C61.506 41.1213 61.62 41.9953 61.7214 42.806C61.848 43.5913 61.9367 44.326 61.9874 45.01C62.0634 45.6687 62.0887 46.264 62.0634 46.796ZM51.0054 41.97C51.1574 42.122 51.5247 42.16 52.1074 42.084C52.69 41.9827 53.3107 41.932 53.9694 41.932C54.6534 41.932 55.2867 42.0713 55.8694 42.35C56.4774 42.6033 56.8827 43.1607 57.0854 44.022C57.1867 44.554 57.1107 45.0733 56.8574 45.58C56.6294 46.0613 56.2494 46.5047 55.7174 46.91C55.1854 47.29 54.5394 47.632 53.7794 47.936C53.0194 48.24 52.1834 48.468 51.2714 48.62C50.4607 48.772 49.84 48.734 49.4094 48.506C49.004 48.2527 48.7507 47.5687 48.6494 46.454C48.5734 44.6047 48.4467 42.768 48.2694 40.944C48.092 39.0947 47.8767 37.2327 47.6234 35.358V35.206C47.6234 34.902 47.712 34.6613 47.8894 34.484C48.092 34.3067 48.32 34.1927 48.5734 34.142C48.8267 34.0913 49.0674 34.1167 49.2954 34.218C49.5487 34.3193 49.726 34.5093 49.8274 34.788C49.9287 35.016 50.0047 35.4847 50.0554 36.194C50.1314 36.9033 50.2074 37.6633 50.2834 38.474C50.3594 39.2593 50.448 39.994 50.5494 40.678C50.676 41.362 50.828 41.7927 51.0054 41.97ZM51.5374 45.504C51.6134 45.732 51.854 45.8587 52.2594 45.884C52.6647 45.884 53.0827 45.8207 53.5134 45.694C53.944 45.5673 54.3114 45.39 54.6154 45.162C54.9194 44.934 55.0334 44.6933 54.9574 44.44C54.8814 44.212 54.628 44.0853 54.1974 44.06C53.792 44.0347 53.3614 44.0853 52.9054 44.212C52.4747 44.3387 52.1074 44.5287 51.8034 44.782C51.4994 45.01 51.4107 45.2507 51.5374 45.504Z" fill="white"/>
<path d="M79.028 37.676C79.028 37.448 79.0533 37.2073 79.104 36.954C79.18 36.6753 79.2813 36.422 79.408 36.194C79.5346 35.966 79.6993 35.776 79.902 35.624C80.1046 35.472 80.3453 35.396 80.624 35.396C80.928 35.396 81.1433 35.5227 81.27 35.776C81.422 36.0293 81.498 36.308 81.498 36.612V36.726C81.3206 37.1313 81.2066 37.7773 81.156 38.664C81.1306 39.5253 81.1306 40.4373 81.156 41.4C81.1813 42.3627 81.2193 43.3 81.27 44.212C81.3206 45.0987 81.346 45.77 81.346 46.226C81.346 47.062 81.2953 47.86 81.194 48.62C81.0926 49.3547 80.8646 50.0007 80.51 50.558C80.1806 51.1407 79.6866 51.5967 79.028 51.926C78.3693 52.2553 77.47 52.42 76.33 52.42C76.1273 52.42 75.8866 52.3947 75.608 52.344C75.3293 52.2933 75.0633 52.2173 74.81 52.116C74.5566 52.0147 74.3413 51.8753 74.164 51.698C74.012 51.546 73.936 51.356 73.936 51.128C73.936 50.9 74.0626 50.7353 74.316 50.634C74.5693 50.5327 74.8733 50.4693 75.228 50.444C75.608 50.4187 75.988 50.406 76.368 50.406C76.748 50.4313 77.0773 50.4313 77.356 50.406C77.7106 50.3807 78.0146 50.2413 78.268 49.988C78.5213 49.7347 78.724 49.4307 78.876 49.076C79.028 48.7467 79.142 48.392 79.218 48.012C79.294 47.632 79.332 47.3153 79.332 47.062C79.332 46.3527 79.1293 45.7447 78.724 45.238C78.344 44.7313 77.7993 44.25 77.09 43.794C76.406 43.3127 75.5826 42.8187 74.62 42.312C73.6826 41.8053 72.6566 41.1847 71.542 40.45C71.39 40.374 71.2633 40.2473 71.162 40.07C71.086 39.8673 71.048 39.6773 71.048 39.5C71.048 39.1707 71.2126 38.9047 71.542 38.702C71.8713 38.4993 72.1753 38.398 72.454 38.398C72.6313 38.398 72.8593 38.4867 73.138 38.664C73.4166 38.816 73.708 39.0187 74.012 39.272C74.316 39.5 74.6073 39.7407 74.886 39.994C75.19 40.2473 75.456 40.45 75.684 40.602C75.836 40.7033 76.026 40.8427 76.254 41.02C76.482 41.172 76.7226 41.324 76.976 41.476C77.2293 41.628 77.47 41.7673 77.698 41.894C77.926 41.9953 78.1033 42.046 78.23 42.046C78.6606 42.046 78.9013 41.894 78.952 41.59C79.0026 41.2607 79.028 40.944 79.028 40.64V37.676Z" fill="white"/>
<path d="M92.998 41.552C93.226 41.628 93.454 41.7673 93.682 41.97C93.91 42.1473 94.1254 42.3627 94.328 42.616C94.5307 42.844 94.6954 43.0847 94.822 43.338C94.9487 43.5913 95.0374 43.832 95.088 44.06C95.164 44.5413 95.1387 44.9467 95.012 45.276C94.8854 45.6053 94.6827 45.8967 94.404 46.15C94.1254 46.4033 93.796 46.6187 93.416 46.796C93.036 46.948 92.6434 47.1 92.238 47.252C91.7314 47.404 91.1107 47.5687 90.376 47.746C89.6414 47.898 88.9067 47.9993 88.172 48.05C87.4627 48.1007 86.842 48.05 86.31 47.898C85.778 47.746 85.474 47.442 85.398 46.986C85.3474 46.758 85.3727 46.568 85.474 46.416C85.5754 46.264 85.7147 46.15 85.892 46.074C86.0694 45.9727 86.2594 45.8967 86.462 45.846C86.6647 45.7953 86.842 45.77 86.994 45.77C87.1207 45.77 87.488 45.7827 88.096 45.808C88.7294 45.808 89.388 45.7827 90.072 45.732C90.756 45.656 91.3514 45.5293 91.858 45.352C92.39 45.1493 92.618 44.8327 92.542 44.402C92.5167 44.1993 92.428 44.0093 92.276 43.832C92.124 43.6547 91.934 43.49 91.706 43.338C91.5034 43.186 91.2754 43.0593 91.022 42.958C90.794 42.8567 90.5787 42.7807 90.376 42.73C89.8947 42.6793 89.3247 42.692 88.666 42.768C88.0074 42.8187 87.4627 42.844 87.032 42.844C86.7787 42.844 86.576 42.7807 86.424 42.654C86.272 42.5273 86.196 42.3753 86.196 42.198C86.196 42.0207 86.272 41.8433 86.424 41.666C86.576 41.4633 86.842 41.2987 87.222 41.172C87.3994 41.096 87.7667 41.0073 88.324 40.906C88.9067 40.7793 89.502 40.6273 90.11 40.45C90.7434 40.2727 91.288 40.07 91.744 39.842C92.2 39.5887 92.4027 39.2847 92.352 38.93C92.3014 38.626 92.1114 38.4233 91.782 38.322C91.478 38.1953 91.098 38.132 90.642 38.132C90.186 38.1067 89.692 38.132 89.16 38.208C88.628 38.284 88.1087 38.3727 87.602 38.474C87.1207 38.5753 86.6774 38.6767 86.272 38.778C85.892 38.854 85.6134 38.9047 85.436 38.93C85.284 38.9553 85.1447 38.9173 85.018 38.816C84.8914 38.7147 84.8027 38.5753 84.752 38.398C84.7014 38.2207 84.714 38.0433 84.79 37.866C84.866 37.6633 85.0434 37.486 85.322 37.334C85.854 37.03 86.6014 36.764 87.564 36.536C88.5267 36.2827 89.4894 36.156 90.452 36.156C91.44 36.156 92.314 36.308 93.074 36.612C93.8594 36.916 94.3534 37.4353 94.556 38.17C94.6827 38.7273 94.594 39.3353 94.29 39.994C94.0114 40.6273 93.5807 41.1467 92.998 41.552Z" fill="white"/>
<path d="M97.9339 40.906C97.9339 40.83 97.9212 40.7033 97.8959 40.526C97.8959 40.3233 97.8959 40.108 97.8959 39.88C97.8959 39.5253 97.9465 39.1707 98.0479 38.816C98.1492 38.436 98.4025 38.246 98.8079 38.246C99.1879 38.3473 99.4665 38.5373 99.6439 38.816C99.8465 39.0947 99.9859 39.424 100.062 39.804C100.163 40.1587 100.227 40.5387 100.252 40.944C100.277 41.3493 100.315 41.7167 100.366 42.046C100.442 42.3753 100.556 42.654 100.708 42.882C100.86 43.0847 101.113 43.186 101.468 43.186C101.671 43.186 101.873 43.1987 102.076 43.224C102.304 43.224 102.519 43.224 102.722 43.224C103.077 43.224 103.431 43.2113 103.786 43.186C104.166 43.1353 104.495 43.0593 104.774 42.958C105.078 42.8313 105.319 42.6667 105.496 42.464C105.699 42.236 105.8 41.9447 105.8 41.59C105.8 40.8553 105.762 40.1333 105.686 39.424C105.61 38.6893 105.572 37.9547 105.572 37.22C105.572 37.0427 105.585 36.8527 105.61 36.65C105.661 36.422 105.724 36.2193 105.8 36.042C105.901 35.8393 106.015 35.6747 106.142 35.548C106.269 35.4213 106.408 35.358 106.56 35.358C106.864 35.358 107.092 35.4213 107.244 35.548C107.396 35.6747 107.51 35.8393 107.586 36.042C107.662 36.2447 107.7 36.4727 107.7 36.726C107.7 36.954 107.7 37.182 107.7 37.41C107.7 37.7393 107.687 38.056 107.662 38.36C107.637 38.664 107.624 38.968 107.624 39.272C107.624 39.956 107.687 40.6273 107.814 41.286C107.966 41.9447 108.232 42.5907 108.612 43.224C108.688 43.3507 108.726 43.4393 108.726 43.49C108.726 43.6167 108.713 43.7433 108.688 43.87C108.663 43.9713 108.65 44.0853 108.65 44.212C108.65 44.8453 108.777 45.466 109.03 46.074C109.309 46.682 109.448 47.29 109.448 47.898C109.448 48.126 109.347 48.3667 109.144 48.62C108.967 48.8733 108.764 49 108.536 49C107.928 49 107.497 48.7973 107.244 48.392C107.016 47.9613 106.826 47.4927 106.674 46.986C106.547 46.4793 106.383 46.0233 106.18 45.618C106.003 45.1873 105.673 44.972 105.192 44.972C104.837 44.972 104.419 45.01 103.938 45.086C103.457 45.1367 102.988 45.2253 102.532 45.352C102.101 45.4787 101.721 45.6433 101.392 45.846C101.088 46.0233 100.936 46.2513 100.936 46.53C100.936 46.8847 100.999 47.252 101.126 47.632C101.253 48.012 101.316 48.3793 101.316 48.734C101.316 48.962 101.227 49.152 101.05 49.304C100.873 49.4813 100.657 49.57 100.404 49.57C99.9985 49.57 99.6565 49.38 99.3779 49C99.0992 48.5947 98.8712 48.1007 98.6939 47.518C98.5165 46.9353 98.3772 46.2893 98.2759 45.58C98.1745 44.8707 98.0985 44.1993 98.0479 43.566C97.9972 42.9073 97.9592 42.3373 97.9339 41.856C97.9339 41.3747 97.9339 41.058 97.9339 40.906Z" fill="white"/>
<path d="M122.518 48.202C122.518 48.7087 122.353 49.0887 122.024 49.342C121.72 49.6207 121.391 49.76 121.036 49.76C120.681 49.76 120.403 49.6587 120.2 49.456C120.023 49.2787 119.858 49.076 119.706 48.848C119.554 48.62 119.389 48.4173 119.212 48.24C119.06 48.0373 118.832 47.936 118.528 47.936C118.097 47.936 117.603 48.0247 117.046 48.202C116.514 48.3793 115.995 48.468 115.488 48.468C115.184 48.468 114.88 48.43 114.576 48.354C114.272 48.2527 113.981 48.126 113.702 47.974C113.449 47.7967 113.233 47.5813 113.056 47.328C112.904 47.0747 112.828 46.796 112.828 46.492C112.828 45.9093 113.031 45.3647 113.436 44.858C113.841 44.326 114.323 43.87 114.88 43.49C115.463 43.0847 116.071 42.7553 116.704 42.502C117.337 42.2487 117.882 42.1093 118.338 42.084C118.895 42.0333 119.263 41.9447 119.44 41.818C119.617 41.666 119.706 41.3747 119.706 40.944C119.706 40.6147 119.693 40.2727 119.668 39.918C119.643 39.538 119.579 39.196 119.478 38.892C119.377 38.588 119.225 38.3473 119.022 38.17C118.845 37.9673 118.591 37.866 118.262 37.866C117.907 37.866 117.515 37.98 117.084 38.208C116.679 38.436 116.261 38.702 115.83 39.006C115.425 39.2847 115.019 39.538 114.614 39.766C114.234 39.994 113.892 40.108 113.588 40.108C113.284 40.108 112.98 39.9813 112.676 39.728C112.397 39.4493 112.258 39.12 112.258 38.74C112.258 38.3853 112.537 38.0307 113.094 37.676C113.651 37.296 114.297 36.9667 115.032 36.688C115.767 36.384 116.489 36.1433 117.198 35.966C117.907 35.7887 118.414 35.7 118.718 35.7C119.529 35.7 120.149 35.9027 120.58 36.308C121.011 36.688 121.315 37.1693 121.492 37.752C121.695 38.3347 121.809 38.9553 121.834 39.614C121.859 40.2727 121.872 40.868 121.872 41.4C121.872 42.464 121.91 43.5153 121.986 44.554C122.062 45.5927 122.239 46.6187 122.518 47.632V48.202ZM118.87 46.112C118.997 45.9853 119.047 45.846 119.022 45.694C119.022 45.5167 118.971 45.352 118.87 45.2C118.794 45.048 118.68 44.9213 118.528 44.82C118.401 44.6933 118.262 44.63 118.11 44.63C117.958 44.63 117.743 44.6553 117.464 44.706C117.211 44.7567 116.957 44.8327 116.704 44.934C116.451 45.01 116.223 45.1367 116.02 45.314C115.843 45.466 115.754 45.6687 115.754 45.922C115.754 46.226 115.881 46.416 116.134 46.492C116.413 46.5427 116.729 46.5553 117.084 46.53C117.439 46.4793 117.781 46.416 118.11 46.34C118.465 46.2387 118.718 46.1627 118.87 46.112Z" fill="white"/>
<path d="M128.618 39.272C128.339 39.2213 127.972 39.2087 127.516 39.234C127.06 39.2593 126.604 39.2847 126.148 39.31C125.717 39.31 125.337 39.31 125.008 39.31C124.678 39.2847 124.514 39.2087 124.514 39.082C124.514 38.778 124.552 38.5373 124.628 38.36C124.704 38.1827 124.818 38.0433 124.97 37.942C125.122 37.8407 125.324 37.7647 125.578 37.714C125.831 37.638 126.135 37.5747 126.49 37.524C126.996 37.448 127.617 37.372 128.352 37.296C129.112 37.1947 129.884 37.106 130.67 37.03C131.48 36.954 132.253 36.8907 132.988 36.84C133.748 36.764 134.381 36.726 134.888 36.726C135.268 36.726 135.61 36.84 135.914 37.068C136.243 37.2707 136.408 37.5873 136.408 38.018C136.408 38.2967 136.332 38.4993 136.18 38.626C136.053 38.7273 135.888 38.8033 135.686 38.854C135.508 38.9047 135.306 38.93 135.078 38.93C134.85 38.9047 134.66 38.892 134.508 38.892H133.254C132.595 38.8667 132.126 38.9047 131.848 39.006C131.569 39.082 131.366 39.1833 131.24 39.31C131.138 39.4367 131.1 39.804 131.126 40.412C131.176 41.02 131.24 41.704 131.316 42.464C131.392 43.1987 131.468 43.9207 131.544 44.63C131.645 45.3393 131.696 45.8713 131.696 46.226C131.696 46.606 131.582 46.834 131.354 46.91C131.151 46.986 130.91 46.9607 130.632 46.834C130.378 46.682 130.125 46.4667 129.872 46.188C129.618 45.9093 129.466 45.6053 129.416 45.276C129.34 44.8453 129.276 44.3767 129.226 43.87C129.2 43.338 129.162 42.806 129.112 42.274C129.086 41.742 129.036 41.2227 128.96 40.716C128.884 40.184 128.77 39.7027 128.618 39.272Z" fill="white"/>
<path d="M142.183 41.97C142.335 42.122 142.702 42.16 143.285 42.084C143.868 41.9827 144.488 41.932 145.147 41.932C145.831 41.932 146.464 42.0713 147.047 42.35C147.655 42.6033 148.06 43.1607 148.263 44.022C148.364 44.554 148.288 45.0733 148.035 45.58C147.807 46.0613 147.427 46.5047 146.895 46.91C146.363 47.29 145.717 47.632 144.957 47.936C144.197 48.24 143.361 48.468 142.449 48.62C141.638 48.772 141.018 48.734 140.587 48.506C140.182 48.2527 139.928 47.5687 139.827 46.454C139.751 44.6047 139.624 42.768 139.447 40.944C139.27 39.0947 139.054 37.2327 138.801 35.358V35.206C138.801 34.902 138.89 34.6613 139.067 34.484C139.27 34.3067 139.498 34.1927 139.751 34.142C140.004 34.0913 140.245 34.1167 140.473 34.218C140.726 34.3193 140.904 34.5093 141.005 34.788C141.106 35.016 141.182 35.4847 141.233 36.194C141.309 36.9033 141.385 37.6633 141.461 38.474C141.537 39.2593 141.626 39.994 141.727 40.678C141.854 41.362 142.006 41.7927 142.183 41.97ZM142.715 45.504C142.791 45.732 143.032 45.8587 143.437 45.884C143.842 45.884 144.26 45.8207 144.691 45.694C145.122 45.5673 145.489 45.39 145.793 45.162C146.097 44.934 146.211 44.6933 146.135 44.44C146.059 44.212 145.806 44.0853 145.375 44.06C144.97 44.0347 144.539 44.0853 144.083 44.212C143.652 44.3387 143.285 44.5287 142.981 44.782C142.677 45.01 142.588 45.2507 142.715 45.504Z" fill="white"/>
<path d="M5.07998 66.878C5.83998 66.878 6.61265 66.954 7.39798 67.106C8.18331 67.2327 8.89265 67.4607 9.52598 67.79C10.1846 68.094 10.7166 68.5247 11.122 69.082C11.5273 69.6393 11.73 70.336 11.73 71.172C11.73 71.6787 11.692 72.2233 11.616 72.806C11.5653 73.3887 11.54 73.946 11.54 74.478C11.54 74.7567 11.6033 75.0607 11.73 75.39C11.8566 75.694 11.92 76.0107 11.92 76.34C11.92 76.568 11.7806 76.7707 11.502 76.948C11.2486 77.1253 10.9826 77.214 10.704 77.214C10.172 77.214 9.80465 76.9733 9.60198 76.492C9.42465 75.9853 9.32331 75.4027 9.29798 74.744C9.29798 74.0853 9.33598 73.4393 9.41198 72.806C9.51331 72.1473 9.56398 71.666 9.56398 71.362C9.56398 70.9313 9.44998 70.5513 9.22198 70.222C8.99398 69.8927 8.70265 69.6267 8.34798 69.424C8.01865 69.196 7.65131 69.0313 7.24598 68.93C6.84065 68.8287 6.44798 68.778 6.06798 68.778C5.78931 68.778 5.47265 68.8033 5.11798 68.854C4.78865 68.8793 4.47198 68.9553 4.16798 69.082C3.86398 69.1833 3.61065 69.3607 3.40798 69.614C3.20531 69.8673 3.10398 70.1967 3.10398 70.602C3.10398 71.7167 3.23065 72.7807 3.48398 73.794C3.73731 74.8073 3.92731 75.8587 4.05398 76.948C4.05398 77.2773 3.90198 77.5813 3.59798 77.86C3.29398 78.1133 2.97731 78.24 2.64798 78.24C2.14131 78.24 1.78665 78.0627 1.58398 77.708C1.40665 77.3533 1.26731 76.9353 1.16598 76.454C1.03931 75.8967 0.950645 75.3393 0.899979 74.782C0.874645 74.2247 0.849312 73.6673 0.823978 73.11C0.823978 72.5527 0.811312 71.9953 0.785979 71.438C0.760645 70.8807 0.697312 70.3233 0.595979 69.766V69.576C0.595979 68.8413 0.735312 68.2967 1.01398 67.942C1.31798 67.562 1.68531 67.296 2.11598 67.144C2.57198 66.992 3.05331 66.916 3.55998 66.916C4.09198 66.8907 4.59865 66.878 5.07998 66.878Z" fill="white"/>
<path d="M15.1437 75.048C14.8651 74.6933 14.7257 74.2247 14.7257 73.642C14.7257 73.034 14.8777 72.4133 15.1817 71.78C15.5111 71.1467 15.9164 70.564 16.3977 70.032C16.8791 69.5 17.3984 69.0693 17.9557 68.74C18.5384 68.3853 19.0831 68.208 19.5897 68.208C20.0457 68.208 20.4764 68.322 20.8817 68.55C21.3124 68.778 21.6797 69.082 21.9837 69.462C22.3131 69.8167 22.5664 70.222 22.7437 70.678C22.9464 71.134 23.0477 71.59 23.0477 72.046C23.0477 72.578 22.8577 73.072 22.4777 73.528C22.1231 73.984 21.6544 74.3893 21.0717 74.744C20.5144 75.0733 19.8937 75.3393 19.2097 75.542C18.5257 75.7193 17.8671 75.808 17.2337 75.808C16.7777 75.808 16.3597 75.7573 15.9797 75.656C15.6251 75.5293 15.3464 75.3267 15.1437 75.048ZM19.7797 70.678C19.4757 70.678 19.1844 70.7667 18.9057 70.944C18.6271 71.1213 18.3737 71.3367 18.1457 71.59C17.9431 71.8433 17.7657 72.122 17.6137 72.426C17.4871 72.7047 17.4237 72.958 17.4237 73.186C17.4237 73.566 17.6391 73.756 18.0697 73.756C18.4751 73.756 18.8424 73.6927 19.1717 73.566C19.5264 73.4393 19.8177 73.3 20.0457 73.148C20.2991 72.9707 20.4891 72.7807 20.6157 72.578C20.7424 72.3753 20.8057 72.198 20.8057 72.046C20.8057 71.7167 20.7044 71.4127 20.5017 71.134C20.2991 70.83 20.0584 70.678 19.7797 70.678Z" fill="white"/>
<path d="M32.5546 75.01C32.8079 75.1873 33.0486 75.276 33.2766 75.276C33.9859 75.276 34.5559 75.2507 34.9866 75.2C35.4426 75.124 35.7846 75.01 36.0126 74.858C36.2659 74.706 36.4306 74.5033 36.5066 74.25C36.6079 73.9713 36.6586 73.642 36.6586 73.262C36.6586 72.2993 36.6966 71.5773 36.7726 71.096C36.8486 70.6147 36.8866 70.1713 36.8866 69.766C36.8866 69.5633 36.7726 69.3607 36.5446 69.158C36.3419 68.93 36.1266 68.816 35.8986 68.816C35.3919 68.8667 34.9232 68.892 34.4926 68.892C34.0619 68.892 33.6946 68.9047 33.3906 68.93C33.0866 68.9553 32.8459 69.0187 32.6686 69.12C32.4912 69.2213 32.4026 69.424 32.4026 69.728C32.4026 70.108 32.3899 70.5133 32.3646 70.944C32.3646 71.3747 32.3519 71.78 32.3266 72.16C32.3266 72.54 32.3139 72.882 32.2886 73.186C32.2886 73.4647 32.2886 73.6547 32.2886 73.756C32.2886 73.984 32.3012 74.1993 32.3266 74.402C32.3519 74.6047 32.4279 74.8073 32.5546 75.01ZM28.9826 75.998C29.3626 75.846 29.6032 75.5547 29.7046 75.124C29.8312 74.6933 29.8946 74.288 29.8946 73.908C29.8946 72.9453 29.9199 72.0587 29.9706 71.248C30.0212 70.412 29.9832 69.462 29.8566 68.398V68.246C29.8566 67.8407 29.9959 67.486 30.2746 67.182C30.5786 66.8527 30.9332 66.688 31.3386 66.688C31.8706 66.688 32.2886 66.688 32.5926 66.688C32.9219 66.6627 33.3652 66.65 33.9226 66.65C34.4039 66.65 34.8726 66.6247 35.3286 66.574C35.8099 66.5233 36.2786 66.498 36.7346 66.498C37.0386 66.498 37.3299 66.574 37.6086 66.726C37.9126 66.878 38.1786 67.0807 38.4066 67.334C38.6346 67.562 38.8246 67.828 38.9766 68.132C39.1286 68.4107 39.2046 68.702 39.2046 69.006C39.2046 69.2087 39.1792 69.576 39.1286 70.108C39.0779 70.6147 39.0272 71.1467 38.9766 71.704C38.9259 72.2613 38.8879 72.768 38.8626 73.224C38.8372 73.68 38.8499 73.946 38.9006 74.022C39.0779 74.2247 39.5339 74.2753 40.2686 74.174C40.6486 74.098 40.9399 74.1613 41.1426 74.364C41.3706 74.5667 41.5352 74.8453 41.6366 75.2C41.7632 75.5293 41.8392 75.9093 41.8646 76.34C41.8899 76.7453 41.9026 77.138 41.9026 77.518C41.9026 77.9233 41.9026 78.3667 41.9026 78.848C41.9279 79.304 41.9026 79.722 41.8266 80.102C41.7506 80.5073 41.6239 80.8367 41.4466 81.09C41.2692 81.3687 40.9906 81.508 40.6106 81.508C40.4839 81.508 40.3446 81.508 40.1926 81.508C40.0406 81.508 39.9012 81.47 39.7746 81.394C39.6479 81.318 39.5339 81.1913 39.4326 81.014C39.3312 80.8367 39.2806 80.5707 39.2806 80.216C39.2806 79.7347 39.3186 79.2533 39.3946 78.772C39.4959 78.2653 39.5592 77.822 39.5846 77.442C39.6099 77.062 39.5592 76.7707 39.4326 76.568C39.3059 76.3653 39.0272 76.302 38.5966 76.378C37.0006 76.682 35.5186 76.9227 34.1506 77.1C32.8079 77.2773 31.6426 77.442 30.6546 77.594C29.6666 77.746 28.8812 77.9107 28.2986 78.088C27.7159 78.2653 27.3866 78.4933 27.3106 78.772C27.2599 78.924 27.2726 79.1267 27.3486 79.38C27.4246 79.6587 27.5132 79.95 27.6146 80.254C27.7412 80.5833 27.8679 80.9127 27.9946 81.242C28.1466 81.5967 28.2859 81.926 28.4126 82.23C28.4379 82.2807 28.4379 82.3187 28.4126 82.344C28.4126 82.3693 28.4126 82.4073 28.4126 82.458C28.4126 82.7113 28.2859 82.9773 28.0326 83.256C27.7792 83.56 27.5006 83.712 27.1966 83.712C26.9179 83.712 26.6772 83.636 26.4746 83.484C26.2719 83.332 26.0946 83.142 25.9426 82.914C25.8159 82.686 25.7019 82.4327 25.6006 82.154C25.4992 81.8753 25.3979 81.6093 25.2966 81.356C25.1699 80.8493 25.0432 80.3427 24.9166 79.836C24.7899 79.3547 24.7266 78.8607 24.7266 78.354C24.7266 78.1007 24.7519 77.898 24.8026 77.746C24.8532 77.5687 24.9419 77.3913 25.0686 77.214C25.1699 77.1127 25.3979 76.9987 25.7526 76.872C26.1072 76.7453 26.4872 76.6313 26.8926 76.53C27.3232 76.4033 27.7286 76.302 28.1086 76.226C28.4886 76.1247 28.7799 76.0487 28.9826 75.998Z" fill="white"/>
<path d="M44.9559 77.48C44.9053 76.7453 44.8546 75.9727 44.8039 75.162C44.7786 74.326 44.7659 73.5153 44.7659 72.73C44.7659 72.122 44.7786 71.628 44.8039 71.248C44.8546 70.868 44.9433 70.4627 45.0699 70.032C45.1459 69.7787 45.3106 69.5 45.5639 69.196C45.8426 68.892 46.1719 68.6133 46.5519 68.36C46.9319 68.0813 47.3373 67.8533 47.7679 67.676C48.2239 67.4987 48.6673 67.41 49.0979 67.41C49.4273 67.41 49.7439 67.4607 50.0479 67.562C50.3773 67.6633 50.6686 67.8407 50.9219 68.094C51.2006 68.322 51.4159 68.6513 51.5679 69.082C51.7453 69.4873 51.8339 69.994 51.8339 70.602C51.8339 71.21 51.7453 71.742 51.5679 72.198C51.4159 72.6287 51.1753 73.034 50.8459 73.414C50.5419 73.794 50.1493 74.1613 49.6679 74.516C49.2119 74.8707 48.6799 75.2507 48.0719 75.656C47.5906 75.9853 47.3499 76.4287 47.3499 76.986C47.3499 77.746 47.3626 78.43 47.3879 79.038C47.4133 79.646 47.4386 80.2287 47.4639 80.786C47.5146 81.3687 47.5779 81.9513 47.6539 82.534C47.7299 83.1167 47.8313 83.75 47.9579 84.434C47.9579 84.7633 47.8819 85.0673 47.7299 85.346C47.5779 85.6247 47.3119 85.764 46.9319 85.764C46.4506 85.764 46.0833 85.4473 45.8299 84.814C45.5766 84.1807 45.3866 83.4207 45.2599 82.534C45.1586 81.6473 45.0826 80.7353 45.0319 79.798C45.0066 78.8607 44.9813 78.088 44.9559 77.48ZM47.3879 73.3C47.3879 73.3253 47.4259 73.338 47.5019 73.338C47.8566 73.338 48.1859 73.2747 48.4899 73.148C48.7939 72.996 49.0473 72.8187 49.2499 72.616C49.4779 72.388 49.6426 72.16 49.7439 71.932C49.8706 71.6787 49.9339 71.4507 49.9339 71.248C49.8833 70.5387 49.7059 70.0573 49.4019 69.804C49.1233 69.5253 48.8066 69.4493 48.4519 69.576C48.1226 69.6773 47.8186 69.9687 47.5399 70.45C47.2866 70.906 47.1599 71.4887 47.1599 72.198C47.1599 72.7553 47.2359 73.1227 47.3879 73.3Z" fill="white"/>
<path d="M54.7023 75.048C54.4237 74.6933 54.2843 74.2247 54.2843 73.642C54.2843 73.034 54.4363 72.4133 54.7403 71.78C55.0697 71.1467 55.475 70.564 55.9563 70.032C56.4377 69.5 56.957 69.0693 57.5143 68.74C58.097 68.3853 58.6417 68.208 59.1483 68.208C59.6043 68.208 60.035 68.322 60.4403 68.55C60.871 68.778 61.2383 69.082 61.5423 69.462C61.8717 69.8167 62.125 70.222 62.3023 70.678C62.505 71.134 62.6063 71.59 62.6063 72.046C62.6063 72.578 62.4163 73.072 62.0363 73.528C61.6817 73.984 61.213 74.3893 60.6303 74.744C60.073 75.0733 59.4523 75.3393 58.7683 75.542C58.0843 75.7193 57.4257 75.808 56.7923 75.808C56.3363 75.808 55.9183 75.7573 55.5383 75.656C55.1837 75.5293 54.905 75.3267 54.7023 75.048ZM59.3383 70.678C59.0343 70.678 58.743 70.7667 58.4643 70.944C58.1857 71.1213 57.9323 71.3367 57.7043 71.59C57.5017 71.8433 57.3243 72.122 57.1723 72.426C57.0457 72.7047 56.9823 72.958 56.9823 73.186C56.9823 73.566 57.1977 73.756 57.6283 73.756C58.0337 73.756 58.401 73.6927 58.7303 73.566C59.085 73.4393 59.3763 73.3 59.6043 73.148C59.8577 72.9707 60.0477 72.7807 60.1743 72.578C60.301 72.3753 60.3643 72.198 60.3643 72.046C60.3643 71.7167 60.263 71.4127 60.0603 71.134C59.8577 70.83 59.617 70.678 59.3383 70.678Z" fill="white"/>
<path d="M66.3752 66.726C66.4765 66.27 66.5145 65.7633 66.4892 65.206C66.4892 64.6487 66.5145 64.1293 66.5652 63.648C66.6158 63.1413 66.7298 62.7233 66.9072 62.394C67.1098 62.0647 67.4772 61.9 68.0092 61.9C68.4145 61.9 68.7438 62.0267 68.9972 62.28C69.2758 62.5333 69.4152 62.8247 69.4152 63.154C69.3898 63.762 69.2885 64.37 69.1112 64.978C68.9592 65.586 68.7818 66.194 68.5792 66.802C68.4018 67.3847 68.2372 67.98 68.0852 68.588C67.9332 69.1707 67.8572 69.7407 67.8572 70.298C67.8572 70.5513 67.8952 70.868 67.9712 71.248C68.0472 71.6027 68.2245 71.78 68.5032 71.78C69.0098 71.78 69.5418 71.6533 70.0992 71.4C70.6565 71.1213 71.1885 70.982 71.6952 70.982C72.1258 70.982 72.5058 71.0707 72.8352 71.248C73.1645 71.4253 73.4305 71.666 73.6332 71.97C73.8612 72.2487 74.0258 72.5653 74.1272 72.92C74.2538 73.2493 74.3172 73.5787 74.3172 73.908C74.3172 74.5667 74.1525 75.2127 73.8232 75.846C73.5192 76.454 73.1265 76.9987 72.6452 77.48C72.1638 77.9613 71.6318 78.354 71.0492 78.658C70.4665 78.9367 69.8965 79.0633 69.3392 79.038C68.4272 79.0127 67.7052 78.7847 67.1732 78.354C66.6412 77.9233 66.2358 77.366 65.9572 76.682C65.7038 75.9727 65.5518 75.1873 65.5012 74.326C65.4505 73.4393 65.4632 72.54 65.5392 71.628C65.6152 70.716 65.7292 69.842 65.8812 69.006C66.0585 68.1447 66.2232 67.3847 66.3752 66.726ZM69.7952 76.986C70.4285 76.7073 70.9225 76.378 71.2772 75.998C71.6572 75.618 71.8472 75.1113 71.8472 74.478C71.8472 74.1993 71.7585 73.9587 71.5812 73.756C71.4292 73.528 71.1758 73.414 70.8212 73.414C70.5678 73.414 70.2892 73.49 69.9852 73.642C69.7065 73.7687 69.4278 73.946 69.1492 74.174C68.8958 74.402 68.6805 74.6553 68.5032 74.934C68.3258 75.1873 68.2372 75.4407 68.2372 75.694C68.2372 76.074 68.3892 76.378 68.6932 76.606C69.0225 76.8087 69.3898 76.9353 69.7952 76.986Z" fill="white"/>
<path d="M77.1155 70.906C77.1155 70.83 77.1028 70.7033 77.0775 70.526C77.0775 70.3233 77.0775 70.108 77.0775 69.88C77.0775 69.5253 77.1282 69.1707 77.2295 68.816C77.3308 68.436 77.5842 68.246 77.9895 68.246C78.3695 68.3473 78.6482 68.5373 78.8255 68.816C79.0282 69.0947 79.1675 69.424 79.2435 69.804C79.3448 70.1587 79.4082 70.5387 79.4335 70.944C79.4588 71.3493 79.4968 71.7167 79.5475 72.046C79.6235 72.3753 79.7375 72.654 79.8895 72.882C80.0415 73.0847 80.2948 73.186 80.6495 73.186C80.8522 73.186 81.0548 73.1987 81.2575 73.224C81.4855 73.224 81.7008 73.224 81.9035 73.224C82.2582 73.224 82.6128 73.2113 82.9675 73.186C83.3475 73.1353 83.6768 73.0593 83.9555 72.958C84.2595 72.8313 84.5002 72.6667 84.6775 72.464C84.8802 72.236 84.9815 71.9447 84.9815 71.59C84.9815 70.8553 84.9435 70.1333 84.8675 69.424C84.7915 68.6893 84.7535 67.9547 84.7535 67.22C84.7535 67.0427 84.7662 66.8527 84.7915 66.65C84.8422 66.422 84.9055 66.2193 84.9815 66.042C85.0828 65.8393 85.1968 65.6747 85.3235 65.548C85.4502 65.4213 85.5895 65.358 85.7415 65.358C86.0455 65.358 86.2735 65.4213 86.4255 65.548C86.5775 65.6747 86.6915 65.8393 86.7675 66.042C86.8435 66.2447 86.8815 66.4727 86.8815 66.726C86.8815 66.954 86.8815 67.182 86.8815 67.41C86.8815 67.7393 86.8688 68.056 86.8435 68.36C86.8182 68.664 86.8055 68.968 86.8055 69.272C86.8055 69.956 86.8688 70.6273 86.9955 71.286C87.1475 71.9447 87.4135 72.5907 87.7935 73.224C87.8695 73.3507 87.9075 73.4393 87.9075 73.49C87.9075 73.6167 87.8948 73.7433 87.8695 73.87C87.8442 73.9713 87.8315 74.0853 87.8315 74.212C87.8315 74.8453 87.9582 75.466 88.2115 76.074C88.4902 76.682 88.6295 77.29 88.6295 77.898C88.6295 78.126 88.5282 78.3667 88.3255 78.62C88.1482 78.8733 87.9455 79 87.7175 79C87.1095 79 86.6788 78.7973 86.4255 78.392C86.1975 77.9613 86.0075 77.4927 85.8555 76.986C85.7288 76.4793 85.5642 76.0233 85.3615 75.618C85.1842 75.1873 84.8548 74.972 84.3735 74.972C84.0188 74.972 83.6008 75.01 83.1195 75.086C82.6382 75.1367 82.1695 75.2253 81.7135 75.352C81.2828 75.4787 80.9028 75.6433 80.5735 75.846C80.2695 76.0233 80.1175 76.2513 80.1175 76.53C80.1175 76.8847 80.1808 77.252 80.3075 77.632C80.4342 78.012 80.4975 78.3793 80.4975 78.734C80.4975 78.962 80.4088 79.152 80.2315 79.304C80.0542 79.4813 79.8388 79.57 79.5855 79.57C79.1802 79.57 78.8382 79.38 78.5595 79C78.2808 78.5947 78.0528 78.1007 77.8755 77.518C77.6982 76.9353 77.5588 76.2893 77.4575 75.58C77.3562 74.8707 77.2802 74.1993 77.2295 73.566C77.1788 72.9073 77.1408 72.3373 77.1155 71.856C77.1155 71.3747 77.1155 71.058 77.1155 70.906Z" fill="white"/>
<path d="M99.6477 75.808C98.6851 76.2893 97.7351 76.7327 96.7977 77.138C95.8604 77.5433 94.9484 77.7207 94.0617 77.67C93.0737 77.6193 92.3264 77.2393 91.8197 76.53C91.3131 75.7953 91.0597 74.934 91.0597 73.946C91.0597 73.2367 91.1611 72.464 91.3637 71.628C91.5664 70.792 91.8577 70.0193 92.2377 69.31C92.6431 68.5753 93.1624 67.98 93.7957 67.524C94.4291 67.0427 95.1891 66.8273 96.0757 66.878C96.4811 66.9033 96.9117 67.03 97.3677 67.258C97.8491 67.4607 98.2797 67.714 98.6597 68.018C99.0651 68.322 99.3944 68.664 99.6477 69.044C99.9264 69.424 100.066 69.804 100.066 70.184C100.066 70.64 99.9011 71.0073 99.5717 71.286C99.2677 71.5647 98.8751 71.7927 98.3937 71.97C97.9124 72.1473 97.3804 72.2993 96.7977 72.426C96.2404 72.5273 95.7084 72.6413 95.2017 72.768C94.7204 72.8693 94.3024 72.996 93.9477 73.148C93.6184 73.3 93.4411 73.5153 93.4157 73.794C93.4157 74.326 93.6311 74.744 94.0617 75.048C94.4924 75.352 94.9231 75.5167 95.3537 75.542C95.7337 75.5673 96.1517 75.4913 96.6077 75.314C97.0637 75.1367 97.5197 74.9467 97.9757 74.744C98.4317 74.516 98.8624 74.3133 99.2677 74.136C99.6984 73.9587 100.078 73.87 100.408 73.87C100.56 73.87 100.699 73.9587 100.826 74.136C100.952 74.3133 101.016 74.4527 101.016 74.554C101.016 74.7313 100.889 74.9467 100.636 75.2C100.408 75.428 100.078 75.6307 99.6477 75.808ZM97.3297 70.146V69.88C97.3297 69.7027 97.2537 69.538 97.1017 69.386C96.9751 69.2087 96.8104 69.0567 96.6077 68.93C96.4304 68.8033 96.2404 68.702 96.0377 68.626C95.8351 68.55 95.6704 68.512 95.5437 68.512C95.3917 68.512 95.2271 68.5627 95.0497 68.664C94.8724 68.74 94.6951 68.854 94.5177 69.006C94.3404 69.158 94.1884 69.3353 94.0617 69.538C93.9604 69.7153 93.9097 69.9053 93.9097 70.108C93.9097 70.3867 93.9857 70.6147 94.1377 70.792C94.3151 70.944 94.5557 71.02 94.8597 71.02C95.0371 71.0453 95.2397 71.0453 95.4677 71.02C95.7211 70.9693 95.9744 70.906 96.2277 70.83C96.4811 70.7287 96.7091 70.6273 96.9117 70.526C97.1144 70.3993 97.2537 70.2727 97.3297 70.146Z" fill="white"/>
<path d="M111.634 75.808C110.671 76.2893 109.721 76.7327 108.784 77.138C107.847 77.5433 106.935 77.7207 106.048 77.67C105.06 77.6193 104.313 77.2393 103.806 76.53C103.299 75.7953 103.046 74.934 103.046 73.946C103.046 73.2367 103.147 72.464 103.35 71.628C103.553 70.792 103.844 70.0193 104.224 69.31C104.629 68.5753 105.149 67.98 105.782 67.524C106.415 67.0427 107.175 66.8273 108.062 66.878C108.467 66.9033 108.898 67.03 109.354 67.258C109.835 67.4607 110.266 67.714 110.646 68.018C111.051 68.322 111.381 68.664 111.634 69.044C111.913 69.424 112.052 69.804 112.052 70.184C112.052 70.64 111.887 71.0073 111.558 71.286C111.254 71.5647 110.861 71.7927 110.38 71.97C109.899 72.1473 109.367 72.2993 108.784 72.426C108.227 72.5273 107.695 72.6413 107.188 72.768C106.707 72.8693 106.289 72.996 105.934 73.148C105.605 73.3 105.427 73.5153 105.402 73.794C105.402 74.326 105.617 74.744 106.048 75.048C106.479 75.352 106.909 75.5167 107.34 75.542C107.72 75.5673 108.138 75.4913 108.594 75.314C109.05 75.1367 109.506 74.9467 109.962 74.744C110.418 74.516 110.849 74.3133 111.254 74.136C111.685 73.9587 112.065 73.87 112.394 73.87C112.546 73.87 112.685 73.9587 112.812 74.136C112.939 74.3133 113.002 74.4527 113.002 74.554C113.002 74.7313 112.875 74.9467 112.622 75.2C112.394 75.428 112.065 75.6307 111.634 75.808ZM109.316 70.146V69.88C109.316 69.7027 109.24 69.538 109.088 69.386C108.961 69.2087 108.797 69.0567 108.594 68.93C108.417 68.8033 108.227 68.702 108.024 68.626C107.821 68.55 107.657 68.512 107.53 68.512C107.378 68.512 107.213 68.5627 107.036 68.664C106.859 68.74 106.681 68.854 106.504 69.006C106.327 69.158 106.175 69.3353 106.048 69.538C105.947 69.7153 105.896 69.9053 105.896 70.108C105.896 70.3867 105.972 70.6147 106.124 70.792C106.301 70.944 106.542 71.02 106.846 71.02C107.023 71.0453 107.226 71.0453 107.454 71.02C107.707 70.9693 107.961 70.906 108.214 70.83C108.467 70.7287 108.695 70.6273 108.898 70.526C109.101 70.3993 109.24 70.2727 109.316 70.146Z" fill="white"/>
<path d="M141.394 5.15032C144.252 7.63951 147.087 9.97794 150.073 12.2929C134.345 7.48271 117.941 7.25599 102.278 12.782C101.699 13.0266 101.863 14.082 102.617 13.9646C118.27 9.36676 134.778 9.26848 150.146 14.7521C147.48 15.476 145.034 16.6287 142.658 18.2338C141.673 18.8503 142.431 20.7399 143.613 20.4014C147.892 19.1179 152.043 18.0086 156.321 16.7251C157.353 16.4101 157.792 15.2609 156.898 14.4736C152.297 10.7113 147.673 6.79832 142.946 3.2103C141.575 2.34262 140.302 4.08494 141.394 5.15032Z" fill="#FF6635"/>
</svg>
