<svg width="293" height="310" viewBox="0 0 293 310" fill="none" xmlns="http://www.w3.org/2000/svg">
<path d="M98.5178 24.8656C96.8322 28.6246 95.1145 32.283 93.4289 36.042C92.1545 39.0033 90.8137 41.9303 89.5393 44.8916C87.2026 49.9137 84.9322 54.9701 82.5955 59.9923C81.9102 61.3219 81.257 62.7522 80.5717 64.0818C78.9203 67.7743 77.2026 71.4327 75.5512 75.1252C74.8295 76.6885 74.1397 78.3524 73.418 79.9157C70.218 87.1013 67.0502 94.3876 63.8502 101.573C62.7836 103.968 61.6506 106.33 60.584 108.725C58.9006 112.317 57.2492 116.009 55.5658 119.601C54.7412 121.364 53.8823 123.193 53.0578 124.956C50.4061 131.078 47.7201 137.266 45.0685 143.388C44.2329 145.986 42.4322 148.34 42.9044 150.518C43.0305 151.088 43.9139 152.469 44.9498 152.414C45.4506 152.42 46.146 152.862 46.7474 152.836C46.6723 153.47 46.4645 154.036 46.9587 154.543C46.5818 155.275 46.2004 156.34 46.594 156.88C46.7267 156.948 46.8594 157.017 47.0584 157.119C47.5293 156.857 48.1694 156.43 48.5441 155.865C48.6768 155.934 48.7752 156.069 48.9078 156.137C48.563 156.969 47.4023 158.895 47.7274 159.567C47.8601 159.636 47.9264 159.67 48.0248 159.805C48.5643 159.41 48.8129 158.276 49.1556 157.611C49.254 157.746 49.4187 157.915 49.7183 157.985C50.1229 157.689 50.6369 156.692 50.9453 156.093C51.5423 156.401 51.9812 156.038 52.2896 155.44C52.6191 155.778 53.079 156.352 53.6461 156.392C54.9131 156.54 56.2517 153.78 56.7722 152.281C58.5949 148.256 60.3513 144.197 62.174 140.172C65.4446 132.686 68.649 125.166 71.9196 117.681C73.5732 113.821 75.3273 109.929 76.9809 106.069C78.0818 103.608 79.1827 101.146 80.2173 98.65C81.7316 95.2234 83.3122 91.8309 84.8265 88.4043C84.0142 91.7721 83.1013 95.1721 82.2227 98.5056C76.5402 111.648 70.892 124.724 65.1432 137.832C63.5261 141.458 61.8748 145.151 60.324 148.811C59.2574 151.206 58.5268 153.438 55.9753 154.479C56.0074 154.58 56.0395 154.68 56.1721 154.749C56.9747 154.657 57.6126 154.397 58.1885 153.768C59.8135 152.082 61.2615 148.621 62.0606 146.256C62.5425 145.158 63.125 144.028 63.6069 142.93C69.3601 129.488 75.1454 116.146 80.8986 102.703C81.091 103.307 80.3393 104.603 80.1636 105.27C79.3623 107.802 78.5953 110.267 77.794 112.799C75.8122 118.761 73.7299 124.756 71.7482 130.719C70.8054 133.851 69.3961 136.911 69.0912 139.783C69.5533 140.189 69.9513 140.394 70.4499 140.567C71.5952 139.811 72.7901 137.819 73.4434 136.388C73.5396 136.69 73.6358 136.992 73.565 137.293C73.6634 137.427 73.7618 137.562 74.0614 137.633C74.3975 137.469 74.6672 137.272 74.8728 136.873C74.2815 138.672 73.1244 142.871 74.0122 143.918C73.6994 144.85 73.2153 146.116 73.5061 146.854C73.7051 146.957 73.8377 147.025 74.0025 147.194C74.741 146.902 75.3213 145.939 75.8994 145.143C75.5778 146.744 74.0016 149.802 75.294 150.553C76.3299 150.498 76.416 149.027 77.2595 148.368C77.4949 148.237 77.8951 148.275 78.1328 147.977C78.5418 147.346 79.0514 146.683 79.4604 146.053C79.6958 145.922 80.096 145.96 80.3658 145.762C81.2413 145.204 82.1322 143.475 82.7811 142.379C82.9392 143.05 82.2772 145.149 82.3004 145.918C82.4994 146.021 82.6984 146.123 82.9295 146.326C84.2694 146.007 86.4945 141.853 87.3832 140.292C87.1047 141.158 86.8261 142.024 86.6482 142.858C86.6096 143.259 86.8064 143.528 86.802 143.863C84.5096 150.591 82.1852 157.218 79.8929 163.946C78.1919 168.875 76.5915 173.772 74.8905 178.701C73.363 183.13 71.8355 187.56 70.308 191.989C68.0324 199.988 64.9242 207.81 62.8177 215.643C61.3434 221.11 59.1029 226.434 57.7634 231.802C57.2363 233.802 56.4416 235.833 56.2847 237.603C56.6827 237.808 57.0144 237.979 57.3781 238.251C58.5212 237.662 59.7504 235.603 60.4357 234.273C60.6988 234.577 60.5617 234.843 60.7243 235.179C60.857 235.248 60.889 235.348 61.0217 235.417C61.4904 235.322 61.6297 234.889 62.0343 234.592C61.6486 235.992 61.2286 237.459 60.8086 238.925C60.8042 239.259 61.0695 239.396 61.0994 239.664C61.1569 240.367 60.2107 241.225 61.2079 241.571C60.6917 242.735 60.1391 244.133 61.0655 244.779C61.605 244.384 62.4594 242.889 63.0951 242.796C62.915 243.797 61.5356 247.125 61.9933 247.866C62.126 247.934 62.2586 248.002 62.357 248.137C63.2304 247.746 63.4149 246.411 64.2562 245.919C64.391 245.82 64.6906 245.89 64.9261 245.759C65.3351 245.129 65.8447 244.466 66.2537 243.835C66.4571 243.603 67.0242 243.643 67.3282 243.379C68.1119 242.184 68.962 241.024 69.7457 239.829C69.6728 240.296 69.8696 240.566 69.7646 240.933C69.5933 241.265 69.4883 241.632 69.2827 242.03C69.1412 242.631 69.1025 243.032 69.0274 243.666C69.3591 243.837 69.4597 243.805 69.6565 244.074C71.0007 243.421 73.699 238.838 74.7612 236.777C74.9813 237.816 72.2299 241.362 73.7622 241.647C76.434 239.069 77.8245 234.906 80.169 231.823C83.9229 225.68 87.5762 219.569 91.3301 213.427C92.253 211.799 93.1418 210.237 94.1311 208.644C98.1977 201.568 102.296 194.593 106.363 187.518C107.937 184.627 109.511 181.736 111.152 178.879C112.591 176.087 113.996 173.361 115.501 170.603C117.112 167.479 118.622 164.386 120.232 161.262C120.883 159.999 121.5 158.802 122.085 157.505C123.494 154.445 124.869 151.451 126.278 148.391C127.927 144.866 129.545 141.24 131.194 137.714C132.192 135.452 133.224 133.123 134.222 130.861C136.81 124.538 139.331 118.18 141.919 111.857C141.843 112.491 141.668 113.158 141.593 113.792C141.164 115.927 140.801 118.097 140.373 120.232C139.219 126.705 137.631 133.207 136.075 139.809C134.341 147.246 132.17 154.878 130.201 162.445C128.804 167.11 127.34 171.741 125.943 176.406C124.975 178.936 124.041 181.4 123.073 183.93C120.705 191.292 117.439 198.444 115.307 205.675C114.752 207.24 114.097 208.837 113.542 210.403C111.357 216.597 109.172 222.791 106.987 228.985C106.115 231.817 104.776 234.577 104.272 237.346C104.604 237.517 104.935 237.688 105.233 237.926C106.074 237.434 107.33 233.369 107.846 232.205C109.919 226.879 112.192 221.655 113.73 216.39C117.128 206.866 120.56 197.275 123.958 187.752C125.592 182.788 127.161 177.791 128.795 172.828C129.727 170.531 130.659 168.235 131.49 165.971C132.698 162.975 133.872 160.046 135.014 157.016C133.788 161.349 132.43 165.613 131.138 169.912C129.859 173.207 128.58 176.503 127.301 179.799C126.262 182.629 125.157 185.425 124.118 188.255C121.344 196.081 118.604 203.84 115.763 211.632C114.122 217.096 111.717 222.251 110.178 227.517C109.409 230.149 107.97 232.942 108.14 235.217C108.273 235.286 108.339 235.32 108.506 235.322C109.827 233.899 110.644 230.197 111.503 228.368C110.633 231.033 109.797 233.631 108.927 236.296C108.683 237.096 107.863 238.524 108.524 239.033C108.417 239.567 108.278 240 108.17 240.534C108.335 240.703 108.401 240.737 108.635 240.773C108.224 241.571 108.007 242.805 107.966 243.373C108.165 243.476 108.298 243.544 108.497 243.647C109.036 243.252 109.315 242.386 109.591 241.687C109.657 241.721 109.724 241.755 109.856 241.823C110.087 242.027 110.122 241.96 110.259 241.694C109.805 243.227 109.147 244.992 109.095 246.395C109.228 246.464 109.427 246.566 109.559 246.635C109.964 246.338 110.579 245.309 110.654 244.675C110.688 244.608 110.722 244.542 110.791 244.409C111.717 245.054 112.272 243.489 112.752 242.559C112.818 242.593 112.951 242.661 113.051 242.629C113.715 242.971 115.7 239.282 116.182 238.184C116.164 239.521 115.639 241.354 115.423 242.589C115.622 242.691 115.821 242.794 116.02 242.897C117.366 242.076 117.767 239.506 118.585 238.245C120.275 234.152 121.997 230.159 123.687 226.066C122.541 229.429 121.361 232.86 120.215 236.224C119.9 237.324 118.7 239.65 119.188 240.659C119.915 241.202 120.505 239.571 120.916 238.773C121.914 236.511 122.878 234.315 123.876 232.053C124.979 229.424 126.082 226.795 127.219 224.1C128.183 221.904 129.081 219.674 130.01 217.545C130.632 216.014 131.285 214.583 131.906 213.052C133.256 209.457 134.605 205.861 135.92 202.332C137.932 196.637 139.944 190.943 141.921 185.315C143.14 181.483 144.293 177.618 145.546 173.72C146.738 169.454 148.03 165.156 149.221 160.889C153.152 151.472 157.116 141.988 161.047 132.57C162.735 128.644 164.489 124.752 166.177 120.826C166.761 119.529 167.412 118.266 168.031 116.902C168.922 115.173 169.781 113.344 170.672 111.616C172.49 107.925 174.375 104.269 176.228 100.511C178.211 96.9899 180.194 93.4683 182.177 89.9467C183.337 88.0206 184.599 86.0623 185.759 84.1362C186.883 82.4438 188.008 80.7514 189.198 79.0932C188.67 83.7012 188.142 88.3093 187.547 92.8832C186.923 97.1893 186.365 101.53 185.707 105.902C184.864 111.61 184.053 117.419 183.21 123.126C182.017 130.001 180.859 136.808 179.667 143.682C176.933 158.597 173.234 173.266 169.729 188.373C167.023 198.673 164.284 208.874 161.578 219.174C160.735 222.274 159.861 225.273 159.019 228.373C157.851 233.409 156.083 238.304 154.883 243.239C153.238 249.038 151.699 254.303 150.193 259.669C149.314 263.002 147.935 266.33 147.794 269.371C148.126 269.542 148.458 269.713 148.79 269.884C149.592 269.793 150.654 267.732 151.166 266.902C151.23 267.103 151.26 267.371 151.324 267.572C151.656 267.743 151.69 267.677 151.958 267.647C151.3 269.411 151.381 270.883 151.528 272.389C151.583 273.259 150.973 273.955 151.23 274.76C151.395 274.929 151.461 274.963 151.728 274.933C152.163 274.904 152.64 274.141 152.981 273.643C152.597 274.876 152.28 276.143 152.233 277.212C152.365 277.281 152.564 277.383 152.663 277.518C153.335 277.191 153.513 276.357 154.121 275.829C154.29 275.664 154.624 275.668 154.928 275.404C155.234 274.973 155.44 274.574 155.746 274.143C156.048 274.046 156.283 273.915 156.619 273.751C157.197 272.956 157.709 272.125 158.287 271.33C158.141 272.264 157.829 273.197 157.918 274C158.117 274.103 158.25 274.171 158.449 274.274C159.66 273.552 160.691 271.39 161.577 269.996C161.538 270.397 160.575 272.593 161.544 272.503C162.013 272.408 162.461 271.377 162.801 270.879C163.859 269.153 164.882 267.493 166.007 265.8C167.263 264.176 167.994 261.944 169.253 260.153C169.63 259.422 170.007 258.691 170.45 257.994C171.615 255.733 172.815 253.406 174.046 251.18C175.656 248.056 177.301 244.864 178.845 241.706C180.15 239.012 181.486 236.419 182.79 233.726C183.581 232.03 184.437 230.368 185.228 228.672C187.532 223.549 189.837 218.426 192.141 213.303C194.313 208.112 196.552 202.955 198.724 197.764C199.548 196.001 200.272 194.271 201.097 192.508C202.963 187.748 204.863 182.921 206.728 178.161C208.356 173.699 210.017 169.338 211.645 164.876C211.134 168.147 211.28 172.262 211.271 175.538C211.194 181.388 210.982 187.338 212.245 192.869C212.875 195.718 213.225 199.6 216.542 201.31C216.922 202.852 217.54 204.096 218.122 205.574C218.575 206.649 218.761 207.755 219.415 208.765C219.743 209.271 220.466 210.148 221.365 210.359C223.162 210.781 224.616 209.426 225.868 208.137C226.41 207.574 226.952 207.012 227.493 206.45C227.626 206.518 227.759 206.587 227.958 206.689C228.557 206.83 229.325 206.805 229.862 206.577C230.77 206.119 231.181 205.322 232.157 204.731C232.324 204.733 232.592 204.702 232.759 204.704C233.429 204.545 234.204 204.019 234.777 203.557C237.582 201.048 241.561 193.002 242.851 188.87C243.543 187.039 244.168 185.174 244.86 183.343C246.296 178.277 247.995 173.515 249.062 168.512C250.524 161.44 252.151 154.538 253.01 147.66C253.864 141.116 254.585 134.504 255.005 127.989C255.111 125.014 255.217 122.04 255.389 119.1C255.692 113.787 255.895 108.506 255.63 103.321C255.281 96.8303 255.902 90.2506 255.016 83.9881C254.772 82.1798 254.597 80.2385 253.851 78.5917C253.558 78.02 253.233 77.3476 252.94 76.7758C252.611 76.4377 252.315 76.0331 251.986 75.695C251.89 75.393 251.828 75.0245 251.732 74.7225C251.443 73.8165 251.017 73.1764 250.226 72.4318C249.96 72.295 249.96 72.295 249.791 72.4602C249.466 71.7878 249.406 71.2522 248.578 70.7412C248.403 71.408 248.869 71.4801 249.194 72.1525C249.487 72.7243 249.508 73.6607 249.566 74.3635C249.268 74.1261 249.072 73.8564 248.774 73.6189C248.706 73.7519 248.703 73.919 248.701 74.0862C248.305 73.7139 247.944 73.2751 247.548 72.9028C247.514 72.9693 247.48 73.0358 247.411 73.1687C247.706 73.5733 247.636 73.8734 247.864 74.2438C247.83 74.3103 247.73 74.3426 247.695 74.4091C247.167 73.9684 247.34 73.4689 246.88 72.8952C246.913 78.0446 246.234 83.9216 245.892 89.6351C245.726 94.682 245.493 99.6947 245.326 104.742C245.252 107.817 245.144 110.958 245.137 114.068C244.797 119.614 244.523 125.195 243.948 130.872C243.258 137.585 242.267 144.395 241.043 151.168C240.475 153.736 239.941 156.238 239.373 158.806C238.794 162.21 237.547 165.606 236.799 169.175C235.204 176.178 232.167 183.7 228.228 191.178C227.717 189.4 230.583 184.819 231.21 182.786C232.076 180.456 232.841 178.157 233.706 175.827C234.966 171.428 236.391 167.198 237.45 162.863C240.322 150.123 242.488 137.777 243.449 125.651C244.186 115.261 244.119 105.129 244.722 94.8378C245.055 89.7928 245.323 84.7136 245.857 79.6041C246.046 77.9345 246.934 73.9323 246.215 72.7205C246.167 73.7899 246.15 75.1271 245.768 76.1927C245.912 75.4253 245.989 74.6237 245.328 74.1147C245.228 74.147 245.193 74.2135 245.125 74.3464C245.274 75.6855 244.754 77.1842 244.501 78.6525C244.138 80.8217 243.876 82.9585 243.514 85.1277C242.941 90.638 242.603 96.0173 242.297 101.497C242.158 106.979 241.953 112.427 241.814 117.909C241.519 122.553 241.158 127.163 240.863 131.807C240.134 141.528 238.104 151.168 236.168 161.277C235.128 166.715 233.322 172.011 231.745 177.677C230.871 180.676 229.791 184.074 228.181 187.199C228.175 185.092 228.169 182.986 228.23 180.914C228.447 177.071 228.697 173.329 228.914 169.486C229.256 166.381 229.597 163.275 229.938 160.17C230.995 148.345 232.759 136.128 234.854 124.082C235.905 117.808 237.123 111.536 237.671 105.423C237.9 103.186 238.775 100.187 237.797 98.3365C236.667 97.9225 235.47 100.082 235.025 100.946C235.173 99.8447 235.464 97.9757 234.27 97.3602C234.069 97.4248 233.934 97.5236 233.733 97.5882C233.62 96.0154 235.013 91.6847 233.723 90.7672C233.59 90.6988 233.457 90.6305 233.224 90.5944C232.216 91.0844 231.499 92.3134 230.713 93.6753C230.417 93.2707 230.799 92.2051 230.872 91.7378C230.992 90.2012 231.423 87.899 230.167 86.9151C228.731 86.9322 226.876 90.8565 226.319 92.5888C226.255 92.3875 225.932 91.5479 225.496 91.7435C224.928 91.7037 224.62 92.302 224.215 92.5983C224.359 91.8309 223.963 91.4586 223.533 91.1528C222.091 91.6714 221.634 93.3714 220.677 95.0657C220.165 95.8958 219.182 96.9879 218.799 98.2207C218.178 99.7517 217.556 101.283 216.935 102.814C215.506 107.378 214.045 111.842 212.616 116.406C209.601 127.305 205.353 137.99 202.169 149.054C200.712 153.183 199.29 157.246 197.833 161.376C196.411 165.439 194.988 169.502 193.566 173.565C191.785 179.462 189.232 185.719 186.818 191.543C187.667 187.942 188.515 184.34 189.396 180.839C190.796 173.399 192.761 166.166 194.027 158.825C197.852 137.068 200.672 115.635 203.523 94.3021C204.564 86.256 205.436 78.3752 205.974 70.4905C206.023 69.254 206.347 62.4368 203.245 64.7086C203.144 64.7409 203.044 64.7732 202.877 64.7713C202.68 64.5015 202.549 64.266 202.387 63.9298C202.144 62.1215 203.455 56.3187 199.731 57.6806C199.278 56.6055 199.496 55.2037 198.439 54.3223C197.481 53.5759 196.267 54.4648 195.661 54.8257C194.82 55.3177 193.876 56.0091 193.099 56.7024C192.726 57.0994 192.354 57.4963 191.915 57.8592C191.446 57.9541 191.044 58.0833 190.575 58.1782C189.5 58.6341 188.588 59.4262 187.676 60.2183C184.975 62.528 182.498 65.5425 179.954 68.5227C179.104 69.6833 178.254 70.8438 177.37 72.0709C176.115 73.5278 174.109 76.2801 173.215 78.1757C171.168 81.496 169.087 84.8827 167.04 88.203C165.536 90.7938 164.065 93.4854 162.562 96.0762C162.646 94.7732 162.762 93.5708 162.978 92.3362C163.249 89.5307 163.618 86.8601 163.788 84.0868C164.1 78.1055 165.113 72.2323 165.391 66.3174C165.522 63.945 166.511 57.3026 165.33 55.6843C164.335 55.1714 163.213 56.6967 162.8 57.6616C162.513 56.5884 163.167 55.1581 161.605 54.6054C161.922 53.3384 162.292 48.0599 160.86 47.7426C159.792 47.6971 159.409 48.9298 158.597 49.6896C158.921 47.9212 158.855 45.279 157.638 43.8943C155.971 43.7082 154.425 47.0342 153.497 48.9963C152.836 48.4872 152.267 48.6145 151.789 49.3781C151.597 48.7741 151.3 48.5366 150.803 48.1966C148.652 49.2755 146.42 53.9311 144.878 56.9227C142.582 61.3769 141.053 65.9736 139.761 70.2721C138.927 72.7034 138.128 75.0682 137.295 77.4995C135.718 83.1656 133.073 88.7861 131.26 94.5832C130.395 96.9139 129.429 99.2768 128.563 101.607C126.783 107.505 123.634 113.287 121.685 119.35C120.652 121.679 119.62 124.008 118.62 126.437C116.863 130.496 115.075 134.455 113.319 138.514C112.115 141.175 110.845 143.802 109.641 146.463C108.954 147.96 108.165 149.489 107.478 150.986C106.037 153.945 104.595 156.904 103.154 159.864C105.003 153.833 106.985 147.871 108.866 141.941C109.631 139.642 110.361 137.41 111.126 135.112C112.975 129.081 114.925 123.018 116.774 116.987C119.857 105.955 124.037 95.4038 127.356 84.2407C129.018 79.7124 130.68 75.1841 132.308 70.7223C133.206 68.4923 134.071 66.1617 134.969 63.9317C136.608 58.6341 138.88 53.4106 140.35 48.2783C141.156 45.412 143.21 41.5903 141.8 39.6016C140.672 39.0203 139.315 40.6767 138.803 41.5067C138.954 40.2379 138.864 39.4344 138.241 38.5246C137.775 38.4524 137.574 38.517 137.206 38.5797C136.834 36.3687 138.918 32.8148 137.172 30.9895C135.868 31.0749 134.415 32.4292 133.526 33.9906C134.229 31.3237 134.964 28.7576 133.618 26.9702C132.191 26.3187 130.146 29.4718 129.161 30.7311C128.921 31.1965 128.649 31.5612 128.41 32.0265C127.971 32.3893 127.371 32.2488 126.93 32.7787C126.738 32.1747 126.74 32.0076 126.312 31.5346C124.039 31.7093 122.664 34.7029 121.033 36.8911C120.519 37.8883 119.938 38.8513 119.459 39.782C115.958 44.4566 114.575 50.5596 112.074 55.4127C112.811 52.6794 113.514 50.0125 114.251 47.2792C115.584 42.4128 117.018 37.5141 118.083 32.6781C118.512 30.5431 120.382 25.4487 119.231 24.0982C118.03 23.9842 116.518 27.2437 115.73 28.7728C115.313 27.4641 117.292 24.2768 115.837 23.1903C115.368 23.2852 115.032 23.4486 114.692 23.9463C114.872 22.9453 114.547 22.2728 114.59 21.5377C114.642 20.134 115.944 17.6078 115.323 16.5308C115.225 16.3959 115.092 16.3275 114.994 16.1927C113.889 16.3807 112.829 18.2745 112.144 19.6041C112.014 19.3686 111.949 19.1672 111.549 19.1292C111.282 19.1596 111.147 19.2584 111.01 19.5243C110.976 16.9829 113.083 14.1983 111.472 12.2741C110.103 12.3254 107.965 17.4501 107.074 19.1786C107.181 18.6449 107.464 17.4444 106.732 17.2355C106.465 17.2659 106.264 17.3305 106.028 17.4615C105.317 18.189 104.803 19.1862 104.255 20.2499C104.47 19.1824 104.819 18.0162 104.898 17.0474C104.734 16.8784 104.601 16.81 104.436 16.641C102.189 17.4178 99.8885 22.2064 98.5178 24.8656ZM241.477 133.385C241.806 128.675 242.201 123.998 242.53 119.288C242.617 115.209 242.805 111.099 242.892 107.021C243.269 101.241 243.41 95.5918 243.82 89.7453C243.95 87.5401 244.246 85.3367 244.542 83.1333C244.544 82.9661 244.581 82.7325 244.583 82.5654C244.658 81.9309 244.767 81.2301 244.842 80.5956C244.993 79.3268 245.109 78.1244 245.291 76.9563C245.175 78.1586 244.958 79.3933 244.842 80.5956C244.731 81.4637 244.619 82.3317 244.542 83.1333C244.251 87.4432 243.927 91.8195 243.636 96.1294C243.463 101.678 243.322 107.327 243.149 112.875C243.09 117.388 242.564 121.829 242.203 126.439C241.96 129.679 241.516 132.985 241.138 136.324C240.951 137.826 240.732 139.228 240.545 140.731C240.878 138.294 241.144 135.822 241.477 133.385ZM61.283 240.936C61.251 240.836 61.2852 240.769 61.2874 240.602C61.3217 240.536 61.3559 240.469 61.3902 240.403C61.587 240.672 61.4864 240.705 61.283 240.936ZM83.0762 198.655C83.2054 196.449 85.2393 194.132 86.2673 192.137C85.6053 194.236 84.5707 196.732 83.0762 198.655ZM90.985 183.799C93.0731 179.911 95.1932 176.123 97.2812 172.235C96.9319 173.401 96.5484 174.634 96.1328 175.766C93.9099 179.753 91.6528 183.806 89.4299 187.793C89.3359 187.324 90.4732 184.629 90.985 183.799ZM80.9209 205.116C80.9086 203.511 82.8398 201.394 83.6279 199.864C83.103 201.697 81.9788 203.39 80.9209 205.116ZM61.721 243.182C61.6911 242.914 61.7596 242.781 61.9608 242.716C61.9266 242.783 61.8238 242.982 61.721 243.182ZM92.4268 185.888C90.583 188.977 88.7713 192.166 86.9276 195.254C86.8103 194.016 89.7097 189.368 90.7311 187.875C91.108 187.144 91.5855 186.38 91.9625 185.649C92.4721 184.986 93.4746 182.389 93.9776 182.228C93.2303 183.189 93.5145 184.429 92.4268 185.888ZM63.8094 244.342C63.7795 244.074 63.9188 243.641 64.1885 243.444C64.1521 243.677 63.9807 244.01 63.8094 244.342ZM63.0468 246.473C62.9506 246.171 63.2247 245.639 63.2954 245.339C63.4325 245.073 63.4988 245.108 63.7663 245.077C63.5928 245.577 63.3209 245.941 63.0468 246.473ZM141.238 100.147C142.45 96.817 143.663 93.4873 144.875 90.1575C144.794 91.2934 144.678 92.4957 144.529 93.5974C144.045 94.8625 143.527 96.194 143.109 97.4932C141.552 101.655 140.029 105.75 138.471 109.912C137.921 111.143 137.471 112.341 136.921 113.572C135.505 117.134 134.023 120.661 132.607 124.222C131.366 127.117 130.158 130.113 128.918 133.007C128.473 133.872 128.094 134.77 127.682 135.568C126.581 138.03 125.481 140.491 124.345 143.019C123.521 144.782 122.696 146.545 121.938 148.342C121.388 149.573 120.771 150.769 120.22 152C119.741 152.931 119.327 153.896 118.847 154.826C117.44 157.719 115.999 160.679 114.592 163.572C112.742 167.162 110.857 170.818 109.007 174.408C107.672 176.834 106.404 179.293 105.07 181.719C103.019 185.373 101.034 189.062 98.982 192.717C96.4871 197.068 93.8917 201.452 91.3969 205.804C87.6408 212.114 83.8184 218.39 80.0966 224.633C80.2579 222.529 82.714 218.578 84.0737 216.754C84.9281 215.26 85.8489 213.799 86.7034 212.304C89.5729 207.388 92.4425 202.472 95.312 197.557C98.081 192.673 100.85 187.79 103.685 182.94C105.739 179.119 107.726 175.263 109.78 171.441C112.076 166.987 114.34 162.432 116.636 157.978C117.357 156.414 118.079 154.851 118.801 153.288C121.654 147.101 124.472 140.981 127.259 134.761C128.12 132.764 128.981 130.768 129.842 128.772C132.19 122.914 134.638 117.023 136.986 111.166C138.504 107.405 139.854 103.809 141.238 100.147ZM146.682 94.9593C147.165 91.2535 147.748 87.5154 149.365 83.8893C149.058 86.9284 148.751 89.9676 148.343 93.039C147.581 95.1702 146.818 97.3014 146.122 99.4668C146.309 97.9643 146.495 96.4618 146.682 94.9593ZM144.742 102.795C145.219 99.5902 145.629 96.3516 146.105 93.1473C145.661 96.4523 145.219 99.5902 144.742 102.795ZM159.316 73.7044C159.637 69.6624 160.058 65.5881 160.412 61.4795C160.446 61.413 160.481 61.3466 160.515 61.2801C160.298 65.1227 159.979 68.9976 159.696 72.806C159.038 79.6193 158.347 86.4992 157.69 93.3125C157.385 96.1845 157.046 99.1229 156.674 101.961C156.481 103.965 156.56 105.604 155.26 107.963C155.931 102.588 156.669 97.2463 157.376 91.8043C158.022 85.8268 158.636 79.7485 159.316 73.7044ZM87.1413 214.549C87.0043 214.815 86.9015 215.015 86.8307 215.315C86.7323 215.18 86.97 214.882 87.1413 214.549ZM86.3875 216.012C86.2891 215.877 86.561 215.512 86.6638 215.313C86.561 215.512 86.4903 215.812 86.3875 216.012ZM86.2205 216.01C85.9807 216.475 85.7066 217.007 85.4667 217.472C85.4026 217.271 86.0492 216.342 86.2205 216.01ZM85.3661 217.505C85.1262 217.97 84.8521 218.502 84.6122 218.967C84.4818 218.732 85.1948 217.837 85.3661 217.505ZM72.5568 236.818C72.6429 235.348 73.735 233.555 74.6194 232.328C76.2233 229.705 77.7266 227.114 79.3305 224.491C78.7326 226.791 77.0535 230.049 75.1158 232.668C74.2292 234.062 73.4433 235.424 72.5568 236.818ZM75.295 234.275C73.8281 236.632 72.3613 238.989 70.8281 241.312C70.9076 240.344 72.128 238.953 72.8068 238.125C74.1045 235.933 75.4685 233.775 76.7662 231.583C76.8923 232.153 75.7062 233.477 75.295 234.275ZM78.6056 228.829C80.5522 225.541 82.4987 222.253 84.5459 218.933C84.4708 219.568 83.3145 221.159 82.9055 221.79C81.4387 224.147 79.9719 226.504 78.6056 228.829ZM131.284 135.91C129.29 140.267 127.296 144.624 125.403 148.95C123.788 152.408 122.173 155.867 120.624 159.36C119.494 161.554 118.363 163.748 117.333 165.91C115.962 168.569 114.591 171.228 113.287 173.922C111.679 176.879 110.137 179.871 108.528 182.828C106.991 185.486 105.52 188.177 103.982 190.834C103.059 192.462 102.202 194.124 101.279 195.752C98.1701 201.133 94.9943 206.48 91.8849 211.861C89.3923 216.046 86.9339 220.164 84.375 224.314C82.7025 227.07 81.0644 229.76 79.3919 232.516C77.6531 235.238 75.9144 237.96 74.1756 240.682C74.5204 239.85 74.799 238.984 75.1438 238.152C75.9109 235.686 76.8448 233.223 78.4764 231.035C79.1253 229.939 79.8405 228.877 80.5236 227.714C86.192 218.183 91.8946 208.585 97.563 199.053C99.6145 195.399 101.7 191.678 103.818 188.057C105.735 184.502 107.686 180.879 109.669 177.358C111.417 173.967 113.164 170.577 114.845 167.152C115.736 165.423 116.595 163.594 117.486 161.866C118.069 160.736 118.651 159.605 119.201 158.375C120.748 155.049 122.26 151.789 123.74 148.429C125.046 145.568 126.353 142.708 127.66 139.847C128.521 137.851 129.448 135.889 130.275 133.959C132.275 129.1 134.242 124.308 136.242 119.449C138.074 114.755 139.905 110.062 141.702 105.435C142.36 103.67 142.984 101.972 143.641 100.208C143.932 100.946 143.347 102.244 143.27 103.045C142.942 105.148 142.68 107.285 142.352 109.388C142.041 110.153 141.731 110.919 141.42 111.684C138.575 119.81 134.566 127.588 131.284 135.91ZM135.616 149.333C136.989 143.899 138.297 138.43 139.705 132.929C140.854 126.79 142.47 120.724 143.551 114.717C144.239 110.613 144.927 106.508 145.584 102.303C146.312 100.238 147.141 98.1409 147.869 96.0762C147.644 97.9795 147.318 99.915 147.093 101.818C146.539 105.824 145.853 109.762 145.098 113.832C143.694 121.607 141.82 129.476 140.046 137.481C139.373 140.415 138.633 143.316 137.96 146.25C137.031 148.38 136.167 150.543 135.272 152.606C134.685 154.07 134.098 155.535 133.511 156.999C134.212 154.5 134.947 151.934 135.616 149.333ZM154.565 112.569C154.873 111.971 155.181 111.373 155.424 110.74C155.068 112.408 155.185 113.646 154.054 115.84C154.202 114.738 154.35 113.637 154.565 112.569ZM160.136 105.344C159.992 106.111 159.881 106.979 159.737 107.746C158.364 110.573 157.092 113.367 155.719 116.193C155.549 113.918 157.294 110.694 158.53 108.134C159.005 107.538 159.8 105.507 160.136 105.344ZM154.64 116.984C154.081 118.883 154.027 120.454 152.793 122.847C152.976 121.679 153.224 120.545 153.407 119.377C153.784 118.646 154.128 117.814 154.505 117.082C154.574 116.949 154.574 116.949 154.64 116.984ZM136.682 154.595C137.316 152.061 137.852 149.392 139.291 146.6C138.976 147.7 138.762 148.767 138.447 149.867C137.808 152.735 137 155.769 135.458 158.76C135.91 157.394 136.296 155.995 136.682 154.595ZM179.83 72.8345C179.871 72.2665 180.55 71.4384 180.991 70.9084C181.706 69.8466 182.522 68.7525 183.269 67.7914C183.882 66.9291 184.528 66.0002 185.107 65.2043C184.56 66.1009 183.948 66.9633 183.269 67.7914C182.623 68.7203 181.875 69.6814 181.229 70.6102C181.195 70.6767 181.06 70.7754 180.991 70.9084C180.582 71.539 180.173 72.1696 179.83 72.8345ZM130.151 176.387C130.884 173.988 131.651 171.523 132.383 169.124C132.865 168.026 133.281 166.894 133.763 165.796C134.213 164.597 134.729 163.433 135.213 162.168C134.688 164.001 134.163 165.834 133.638 167.667C132.796 170.767 131.252 173.925 130.172 177.324C129.446 179.221 128.754 181.052 128.028 182.95C128.724 180.784 129.455 178.553 130.151 176.387ZM122.589 195.292C123.56 192.595 124.597 189.932 125.601 187.168C125.323 188.035 125.012 188.8 124.734 189.666C123.658 192.73 122.583 195.794 121.507 198.858C120.087 202.754 118.667 206.649 117.212 210.612C115.863 214.207 114.58 217.837 113.23 221.433C114.652 217.37 116.141 213.341 117.564 209.278C119.194 204.649 120.859 199.954 122.589 195.292ZM192.225 59.7016C192.353 60.1043 192.348 60.4386 192.376 60.8736C192.006 61.1034 191.702 61.3674 191.297 61.6638C191.167 61.4282 191.068 61.2934 190.771 61.0559C191.212 60.526 191.685 60.0967 192.225 59.7016ZM181.082 86.8582C181.831 85.7299 182.549 84.5009 183.298 83.3727C184.911 80.0809 187.788 77.1044 189.664 74.1166C189.379 75.4842 187.414 77.6686 186.429 78.9279C184.964 81.118 183.534 83.2416 182.069 85.4317C180.977 87.2247 179.784 89.0501 178.692 90.8432C178.874 89.675 180.666 87.9902 181.082 86.8582ZM188.117 75.0017C186.046 77.5527 184.335 80.7096 182.262 83.4277C181.716 84.3243 181.205 85.1543 180.658 86.0509C178.952 88.8735 177.245 91.6961 175.538 94.5187C175.024 95.5159 174.545 96.4466 173.964 97.4096C171.72 100.46 170.46 104.859 168.381 108.079C167.248 110.44 166.049 112.767 164.916 115.128C161.187 121.873 158.713 129.769 155.215 136.717C155.075 134.709 156.368 132.852 157.101 130.453C158.615 127.026 160.095 123.666 161.61 120.239C162.021 119.441 162.466 118.577 162.811 117.745C164.099 113.781 166.916 110.269 168.44 106.174C169.125 104.844 169.776 103.581 170.461 102.251C171.318 100.589 172.241 98.9615 173.098 97.2995C173.577 96.3687 174.057 95.438 174.569 94.6079C176.31 91.7189 178.085 88.7633 179.892 85.9084C181.56 83.4866 183.162 81.0306 184.83 78.6088C186.494 76.5213 188.258 74.4015 189.755 72.3121C189.373 73.3777 188.761 74.2401 188.117 75.0017ZM154.142 139.614C152.039 144.672 149.935 149.73 147.832 154.788C148.076 153.989 148.254 153.155 148.498 152.355C148.784 150.988 149.473 149.324 150.065 147.525C150.512 146.494 150.96 145.462 151.408 144.431C152.579 141.669 153.751 138.907 154.856 136.111C154.573 137.312 154.325 138.446 154.142 139.614ZM195.67 59.2059C195.435 59.3369 195.133 59.4338 194.863 59.6313C194.701 59.2951 194.573 58.8924 194.41 58.5562C195.08 58.3967 195.343 58.7006 195.705 59.1394L195.67 59.2059ZM193.96 59.7548C193.992 59.8555 193.924 59.9884 193.956 60.0891C193.654 60.186 193.384 60.3835 193.083 60.4804C193.021 60.1119 192.959 59.7434 192.865 59.2742C192.999 59.1755 193.068 59.0425 193.203 58.9437C193.601 59.1489 193.731 59.3844 193.96 59.7548ZM141.811 168.261C142.619 165.228 143.87 161.497 145.481 158.373C144.088 162.703 142.986 167.773 140.59 172.26C141.042 170.894 141.46 169.595 141.811 168.261ZM121.157 228.043C122.475 224.347 123.758 220.717 125.075 217.02C125.628 215.622 126.213 214.325 126.765 212.927C129.364 205.768 132.063 198.577 134.661 191.418C136.285 187.29 137.877 183.062 139.5 178.934C139.012 180.534 138.491 182.032 138.003 183.632C136.882 187.598 135.233 191.123 134.01 195.289C131.964 201.05 129.851 206.777 127.84 212.471C127.15 214.135 126.495 215.733 125.805 217.396C123.734 222.555 121.63 227.614 119.559 232.773C120.114 231.207 120.669 229.642 121.157 228.043ZM146.903 167.015C145.157 172.847 143.445 178.611 141.632 184.409C140.071 188.905 138.509 193.401 136.981 197.83C136.047 200.294 135.18 202.792 134.246 205.255C133.415 207.519 132.583 209.783 131.752 212.048C130.099 215.907 128.511 219.801 126.858 223.661C125.894 225.857 124.962 228.153 123.998 230.349C123.056 233.481 121.578 236.674 119.593 240.363C119.411 238.923 120.985 236.032 121.508 234.366C123.14 229.57 124.805 224.875 126.438 220.078C129.07 212.853 131.769 205.662 134.402 198.436C135.094 196.605 135.818 194.875 136.51 193.043C138.204 188.616 139.933 184.122 141.628 179.694C143.452 175.502 145.211 171.276 146.903 167.015ZM144.13 172.233C142.264 176.993 140.398 181.753 138.533 186.513C139.439 183.615 140.38 180.65 141.286 177.751C143.131 169.447 147.372 159.264 151.885 148.716C150.792 153.117 149.633 157.484 148.474 161.851C147.026 165.311 145.578 168.772 144.13 172.233ZM185.051 84.6966C183.821 86.7556 182.56 88.7139 181.331 90.7729C180.305 92.6002 179.314 94.361 178.288 96.1883C177.708 97.1513 177.228 98.082 176.648 99.0451C176.408 99.5104 176.168 99.9758 175.928 100.441C173.801 104.73 171.608 108.985 169.482 113.274C168.109 116.1 166.736 118.927 165.429 121.787C163.536 126.112 161.643 130.437 159.749 134.762C158.267 138.29 156.851 141.851 155.334 145.445C153.713 149.405 152.025 153.332 150.404 157.292C150.181 156.42 151.666 152.726 151.882 151.491C152.48 149.191 153.046 146.79 153.644 144.49C155.021 141.329 156.364 138.235 157.675 135.04C159.637 130.582 161.565 126.19 163.527 121.732C164.214 120.235 164.968 118.773 165.69 117.21C166.958 114.75 168.159 112.256 169.461 109.73C170.763 107.203 172.031 104.743 173.333 102.217C174.496 100.124 175.659 98.0307 176.788 96.004C177.848 94.1103 178.974 92.2507 180 90.4234C181.432 88.1327 182.897 85.9426 184.33 83.6519C185.998 81.2301 187.732 78.8424 189.434 76.3542C189.46 76.9563 189.385 77.5907 189.31 78.2251C187.911 80.4494 186.481 82.573 185.051 84.6966ZM191.191 72.295C191.225 72.2285 191.294 72.0956 191.328 72.0291C191.392 72.2304 191.356 72.4641 191.184 72.7965C191.186 72.6293 191.189 72.4622 191.191 72.295ZM192.167 71.7043C192.075 71.068 192.758 69.9055 193.46 69.8466C193.687 70.3842 192.542 71.1401 192.167 71.7043ZM199.144 59.1451C199.377 59.1812 199.544 59.1831 199.777 59.2191C200.436 59.8954 200.691 60.8679 200.545 61.8024C199.683 61.3579 199.621 60.9894 199.026 60.5146C199.064 60.1138 199.071 59.6123 199.144 59.1451ZM191.03 74.3996C191.055 75.0017 190.914 75.602 190.838 76.2364C190.914 75.602 190.989 74.9675 191.03 74.3996ZM193.269 71.6834C193.519 72.9902 192.44 73.7804 191.791 74.8764C191.642 73.5373 192.453 72.7775 193.269 71.6834ZM190.656 77.4046C190.69 77.3381 190.725 77.2716 190.793 77.1386C189.896 84.4174 188.965 91.7625 188.001 99.0071C187.632 101.678 187.263 104.348 186.894 107.019C188.092 97.2026 189.424 87.2874 190.656 77.4046ZM149.184 267.816C149.088 267.514 149.296 266.948 149.467 266.615C149.6 266.684 149.666 266.718 149.764 266.853C149.561 267.084 149.355 267.483 149.184 267.816ZM153.349 260.875C154.712 256.276 156.04 251.744 157.469 247.18C160.969 235.016 164.433 222.918 167.933 210.754C170.076 202.687 172.218 194.62 174.361 186.553C177.633 171.411 181.499 156.743 184.164 141.961C185.315 135.655 186.467 129.349 187.351 123.073C187.75 120.67 188.149 118.268 188.548 115.865C189.281 110.858 189.949 105.817 190.682 100.81C190.058 105.116 189.5 109.456 188.876 113.762C187.886 123.012 186.061 132.253 184.436 141.597C181.438 158.815 177.237 176.087 173.064 193.794C170.869 203.264 167.744 212.424 165.38 222.06C163.143 229.657 160.972 237.289 158.735 244.887C158 247.453 157.233 249.919 156.498 252.485C155.692 255.351 154.957 257.918 153.349 260.875ZM200.205 80.0543C200.587 76.3807 201.035 72.7414 201.383 69.1343C201.601 70.3405 201.316 71.7081 201.166 72.9769C200.994 75.9173 200.62 78.9222 200.313 81.9613C199.353 91.4795 197.792 101.024 196.763 110.675C194.674 129.877 190.882 149.126 187.284 168.812C186.132 175.118 184.283 181.149 182.965 187.453C181.541 194.124 179.519 200.655 177.894 207.39C176.726 212.426 175.624 217.495 172.647 222.945C174.4 216.612 176.219 210.313 177.972 203.981C181.224 190.342 185.106 176.946 187.521 163.465C190.615 146.549 194.107 129.837 195.827 113.306C196.381 109.3 196.934 105.294 197.522 101.222C198.417 94.1103 199.344 87.0994 200.205 80.0543ZM177.423 215.309C177.868 214.445 178.247 213.546 178.658 212.748C179.864 209.92 181.105 207.025 182.31 204.197C181.783 206.197 181.256 208.197 180.729 210.197C178.666 214.688 176.638 219.112 174.642 223.636C174.888 222.669 175.235 221.67 175.482 220.703C175.703 219.134 176.797 217.174 177.423 215.309ZM151.843 266.241C151.819 265.472 152.633 264.545 152.907 264.013C152.93 264.782 152.252 265.61 151.843 266.241ZM169.05 234.974C169.226 234.307 169.468 233.675 169.643 233.008C170.207 230.774 171.308 228.313 172.574 226.02C172.366 226.586 172.259 227.12 172.051 227.686C171.487 229.92 170.384 232.548 169.05 234.974ZM175.579 223.446C176.714 220.918 177.916 218.424 179.051 215.896C178.595 217.596 178.106 219.195 177.583 220.861C175.66 224.918 173.636 229.008 171.713 233.065C171.771 231.16 173.337 228.938 174.209 226.105C174.654 225.241 175.134 224.31 175.579 223.446ZM166.125 244.069C166.225 241.595 168.402 238.511 169.505 235.882C168.837 238.482 167.734 241.111 166.125 244.069ZM152.125 272.697C152.159 272.631 152.127 272.53 152.162 272.464C152.226 272.665 152.191 272.731 152.125 272.697ZM151.842 273.898C151.879 273.664 151.915 273.43 151.952 273.197C152.118 273.199 152.118 273.199 152.253 273.1C152.183 273.4 152.046 273.666 151.842 273.898ZM152.843 276.517C152.95 275.983 153.057 275.45 153.164 274.916C153.331 274.918 153.464 274.986 153.597 275.054C153.656 275.59 153.149 276.086 152.843 276.517ZM186.285 216.847C190.007 207.996 193.73 199.145 197.453 190.293C200.186 183.035 202.954 175.711 205.754 168.487C208.254 161.193 210.72 153.966 213.286 146.706C213.17 147.909 213.054 149.111 212.906 150.213C212.038 152.71 211.205 155.142 210.337 157.639C208.415 164.138 205.391 170.656 203.334 177.253C202.608 179.151 201.816 181.014 201.089 182.912C199.521 187.909 196.821 192.66 195.184 197.79C194.391 199.654 193.532 201.483 192.74 203.346C190.604 208.304 188.501 213.362 186.365 218.32C185.609 219.949 184.819 221.645 184.063 223.275C182.551 226.535 181.039 229.794 179.527 233.054C179.15 233.785 178.807 234.45 178.43 235.181C176.989 238.14 175.515 240.999 174.074 243.958C173.149 245.753 172.224 247.548 171.365 249.378C169.707 253.572 167.253 257.355 165.099 261.209C165.164 258.803 168.913 252.994 170.455 250.002C173.233 244.45 175.978 238.798 178.756 233.245C180.129 230.419 181.502 227.593 182.808 224.732C183.946 222.037 185.115 219.442 186.285 216.847ZM216.662 138.854C216.292 136.476 218.505 130.717 219.578 127.82C219.888 129.662 217.829 136.426 216.662 138.854ZM221.455 122.224C221.268 123.727 221.313 125.432 220.625 126.929C220.503 126.025 221.042 123.189 221.455 122.224ZM217.587 142.108C217.239 145.715 216.654 149.62 214.936 153.278C215.086 152.009 215.236 150.741 215.387 149.472C215.771 145.631 216.618 142.197 218.139 138.269C217.922 139.503 217.737 140.839 217.587 142.108ZM219.707 133.271C219.301 136.176 218.896 139.08 218.49 141.984C218.602 141.116 218.714 140.248 218.825 139.38C219.085 137.41 219.18 135.271 219.707 133.271ZM214.766 148.395C213.926 151.328 214.751 154.614 213.546 157.442C213.323 156.57 214.252 149.392 214.766 148.395C214.7 148.361 214.7 148.361 214.766 148.395ZM216.686 149.721C216.638 150.79 216.524 151.825 216.445 152.794C216.282 155.066 216.052 157.303 215.856 159.474C215.218 167.391 215.085 174.98 215.05 182.703C215.079 185.579 215.14 188.555 215.169 191.431C214.307 188.378 214.182 185.201 214.025 181.922C213.672 175.766 214.021 169.551 214.239 163.1C214.326 159.022 214.385 154.509 216.686 149.721ZM224.267 164.819C224.508 161.746 224.717 158.572 225.026 155.366C225.679 148.887 226.634 142.311 227.355 135.699C228.046 131.427 228.702 127.222 229.393 122.95C229.94 119.445 230.553 115.975 231.1 112.47C231.465 110.134 231.395 107.826 232.832 105.201C232.059 110.609 231.253 116.083 230.48 121.491C228.673 132.003 226.801 142.313 225.729 152.699C225.19 158.143 224.619 163.486 224.08 168.93C224.097 167.593 224.216 166.223 224.267 164.819ZM215.237 143.084C215.083 142.079 215.441 140.244 215.788 139.245C215.878 140.049 215.582 142.252 215.237 143.084ZM159.741 269.975C159.765 268.137 163.405 263.029 164.568 260.936C164.466 263.576 161.144 267.417 159.741 269.975ZM161.565 268.391C160.644 269.852 159.723 271.312 158.802 272.773C158.813 271.937 161.905 267.893 162.625 266.497C162.584 267.065 161.905 267.893 161.565 268.391ZM203.505 184.578C202.192 187.94 200.879 191.302 199.566 194.664C198.913 196.094 198.259 197.524 197.606 198.955C196.814 200.818 195.987 202.748 195.261 204.645C194.573 206.142 193.918 207.74 193.23 209.236C191.748 212.764 190.199 216.257 188.751 219.718C188.098 221.148 187.413 222.477 186.759 223.908C184.391 228.829 182.123 233.718 179.754 238.64C178.452 241.166 177.216 243.727 175.914 246.253C174.166 249.643 172.384 253.101 170.571 256.457C168.84 261.118 164.759 266.756 161.619 271.869C161.273 270.26 164.961 264.083 166.29 261.992C167.995 259.336 170.049 255.515 170.983 253.051C172.045 250.99 173.141 248.863 174.137 246.768C175.645 243.843 177.086 240.883 178.594 237.958C179.279 236.628 179.933 235.198 180.618 233.868C183.094 228.413 185.67 222.926 188.146 217.47C190.8 211.181 193.52 204.926 196.174 198.637C196.691 197.473 197.207 196.309 197.622 195.177C199.662 189.917 201.701 184.657 203.74 179.398C205.368 174.936 206.996 170.474 208.59 166.079C209.771 162.648 210.951 159.218 212.131 155.788C212.088 156.523 212.011 157.324 211.968 158.059C211.805 160.331 211.746 162.236 211.08 164.669C209.228 170.867 205.663 177.948 203.505 184.578ZM213.131 191.475C212.755 189.598 212.649 187.524 212.641 185.584C212.56 184.112 212.447 182.539 212.367 181.067C212.387 176.955 212.474 172.877 212.696 168.7C212.789 166.728 212.948 164.791 213.041 162.819C213.125 161.516 212.975 160.177 213.629 158.747C213.577 160.151 213.525 161.554 213.441 162.857C213.339 165.498 213.105 168.069 213.104 170.677C213.086 174.623 212.969 178.433 213.186 182.247C213.361 184.188 213.202 186.126 213.578 188.002C213.892 189.51 214.206 191.019 214.488 192.426C214.744 193.232 215.035 193.97 215.292 194.776C215.347 195.646 215.435 196.616 215.49 197.486C215.678 198.425 215.8 199.329 215.988 200.267C213.951 197.703 213.693 194.457 213.131 191.475ZM221.508 209.592C220.419 208.61 219.79 208.201 219.405 206.993C219.838 207.132 220.236 207.337 220.668 207.476C221.002 207.479 221.304 207.382 221.637 207.386C221.868 207.59 222.033 207.759 222.264 207.962C223.058 208.539 223.826 208.515 224.428 208.488C223.614 209.415 222.544 209.536 221.508 209.592ZM226.305 195.235C226.38 194.601 227.084 194.375 227.489 194.079C227.249 194.544 226.909 195.042 226.502 195.505C226.47 195.404 226.438 195.304 226.305 195.235ZM225.588 196.464C225.556 196.364 225.524 196.263 225.491 196.162C225.56 196.029 225.594 195.963 225.729 195.864C225.761 195.965 225.828 195.999 225.86 196.1C225.857 196.267 225.757 196.299 225.588 196.464ZM222.627 205.793C222.558 205.926 222.426 205.857 222.359 205.823C222.393 205.757 222.494 205.724 222.627 205.793ZM228.557 194.124C228.488 194.257 228.386 194.457 228.383 194.624C228.285 194.489 228.319 194.422 228.557 194.124ZM222.254 206.19C222.119 206.288 222.019 206.321 221.884 206.419C221.753 206.184 221.623 205.948 221.492 205.713C221.724 205.916 221.989 206.053 222.254 206.19ZM227.259 196.316C227.193 196.282 227.06 196.214 227.028 196.113C227.266 195.815 227.503 195.517 227.775 195.152C227.803 195.587 227.531 195.952 227.259 196.316ZM228.174 192.749C228.686 191.919 229.262 191.29 229.838 190.662C229.726 191.53 228.615 192.219 228.174 192.749ZM226.285 196.74C226.418 196.808 226.551 196.877 226.75 196.979C226.578 197.312 226.375 197.543 226.204 197.876C226.039 197.707 225.94 197.572 225.776 197.403C225.878 197.203 226.082 196.972 226.285 196.74ZM222.611 206.963C222.881 206.765 223.117 206.634 223.386 206.437C223.652 206.573 223.917 206.71 224.217 206.78C223.746 207.042 223.345 207.004 222.81 207.065C222.744 207.031 222.678 206.997 222.611 206.963ZM223.204 207.605C223.138 207.571 223.071 207.536 222.939 207.468C223.977 207.246 224.85 206.854 225.854 206.699C224.942 207.491 224.34 207.517 223.204 207.605ZM242.761 175.361C245.196 165.425 247.624 155.991 248.884 146.543C249.48 141.802 250.043 137.127 250.639 132.386C250.869 130.149 251.033 127.877 251.262 125.639C251.608 127.248 251.04 129.816 250.918 131.52C250.598 135.562 250.142 139.703 249.687 143.844C248.652 153.996 246.282 164.134 243.669 174.904C242.998 177.671 241.964 180.167 241.092 182.999C239.172 189.33 235.424 197.579 231.12 202.345C231.598 201.582 232.109 200.751 232.587 199.988C233.709 198.463 235.587 195.308 236.247 193.376C236.969 191.813 237.59 190.282 238.312 188.718C239.807 184.188 241.7 179.863 242.761 175.361ZM228.27 205.757C228.204 205.722 228.138 205.688 228.071 205.654C228.881 205.061 229.559 204.233 230.366 203.808C230.531 203.977 230.796 204.113 230.961 204.283C230.278 205.445 229.441 205.603 228.27 205.757ZM231.533 203.988C231.334 203.886 231.135 203.783 230.97 203.614C232.387 202.493 233.811 200.871 234.805 198.943C234.657 200.045 232.145 203.126 231.533 203.988ZM249.941 73.7994C250.27 74.1375 250.462 74.7415 250.556 75.2107C250.062 74.7035 250 74.335 249.941 73.7994ZM249.823 72.5609C251.081 73.3777 251.425 75.1537 251.474 76.5251C251.408 76.4909 249.823 72.5609 249.823 72.5609ZM253.032 102.823C253.029 97.9415 253.127 93.0276 253.124 88.146C252.986 85.9711 252.813 83.8627 252.741 81.722C252.498 79.9137 251.989 77.9687 251.981 76.0293C253.984 78.6601 254.276 81.8398 254.602 84.953C255.257 91.0122 255.238 97.5654 255.022 103.849C254.973 107.526 255.026 111.171 254.977 114.849C254.465 123.335 254.389 131.626 253.241 140.206C252.688 144.212 252.134 148.218 251.647 152.258C251.107 155.261 250.532 158.331 249.925 161.3C249.535 163.034 249.145 164.768 248.755 166.502C247.632 170.636 246.61 174.737 245.487 178.87C243.974 184.737 240.726 192.992 238.337 196.977C236.63 199.8 235.289 202.727 232.601 204.034C232.569 203.933 233.761 202.108 234.067 201.676C235.29 200.119 237.616 195.933 238.348 193.534C239.454 190.738 240.493 187.907 241.598 185.111C242.119 183.613 242.539 182.146 243.059 180.648C244.129 175.477 246.209 169.65 247.217 164.111C251.021 144.026 253.541 122.522 253.032 102.823ZM235.795 174.379C237.726 167.213 239.854 160.316 241.014 153.341C241.773 148.936 242.466 144.497 243.225 140.092C243.079 141.027 242.966 142.062 242.82 142.997C242.489 145.266 242.159 147.536 241.829 149.806C240.61 158.686 238.188 167.619 235.628 176.985C234.507 180.952 232.384 187.514 229.204 190.587C230.061 188.925 230.851 187.229 231.708 185.567C232.19 184.469 232.672 183.371 233.053 182.306C233.923 179.641 234.859 177.01 235.795 174.379ZM227.334 190.633C227.254 191.602 227.241 192.605 226.1 193.026C226.477 192.295 226.923 191.431 227.334 190.633ZM225.991 193.727C225.957 193.794 225.922 193.86 225.854 193.993C225.756 193.858 225.721 193.925 225.723 193.758C225.824 193.725 225.89 193.76 225.991 193.727ZM220.166 205.029C220.427 205.5 220.688 205.971 220.914 206.509C220.679 206.64 220.446 206.604 220.279 206.602C218.62 205.747 217.977 203.901 218.029 202.497C218.388 203.103 218.782 203.642 219.141 204.248C219.539 204.454 219.903 204.725 220.166 205.029ZM236.761 98.3916C236.896 98.2929 236.796 98.3252 236.963 98.3271C237.542 99.972 236.743 102.337 236.684 104.242C236.411 109.823 234.872 115.088 234.335 120.365C233.902 122.834 233.469 125.303 233.07 127.706C232.669 130.276 232.234 132.912 231.832 135.482C231.468 137.819 231.17 140.189 230.839 142.459C230.33 148.171 229.16 153.373 228.989 158.754C228.645 162.027 228.267 165.366 227.924 168.639C227.674 172.381 227.491 176.157 227.241 179.899C227.206 182.574 227.237 185.282 227.236 187.89C226.551 189.22 225.9 190.483 225.215 191.813C224.558 190.969 224.826 188.331 224.808 187.227C224.531 182.878 224.757 178.366 225.05 173.889C225.691 163.197 227.17 152.348 228.383 141.361C229.513 134.119 230.609 126.942 231.806 119.734C232.578 114.326 233.684 108.922 234.221 103.646C234.273 102.242 235.179 99.3433 236.761 98.3916ZM232.265 105.161C232.141 104.424 232.651 101.153 233.092 100.624C233.034 102.529 233.089 103.399 232.265 105.161ZM233.53 97.8199C233.656 98.3897 233.681 98.9919 233.741 99.5275C233.508 99.4914 233.24 99.5218 233.007 99.4857C232.881 98.9159 233.089 98.3498 233.53 97.8199ZM232.052 95.9641C231.949 96.1636 232.017 96.0306 231.848 96.1959C231.882 96.1294 231.917 96.0629 231.885 95.9622C231.985 95.9299 232.052 95.9641 232.052 95.9641ZM232.685 90.9894C232.98 91.394 232.836 92.1614 232.83 92.6629C232.731 92.528 232.633 92.3932 232.569 92.1918C232.372 91.9221 232.104 91.9525 231.871 91.9164C232.175 91.6524 232.413 91.3542 232.685 90.9894ZM232.197 95.0296C232.063 95.1284 231.994 95.2613 231.859 95.3601C231.797 94.9916 231.701 94.6896 231.639 94.3211C231.408 94.1179 231.241 94.116 230.941 94.0457C231.248 93.6145 231.554 93.1833 231.926 92.7863C232.151 93.491 232.174 94.2603 232.197 95.0296ZM205.017 150.858C202.639 159.056 199.032 166.706 196.486 174.902C194.742 180.566 191.866 185.983 190.019 191.847C188.8 195.678 186.648 199.365 185.326 203.396C183.364 207.854 181.368 212.378 179.472 216.87C179.682 216.137 179.892 215.404 180.102 214.671C180.417 213.571 180.767 212.405 181.082 211.305C182.08 209.043 183.078 206.78 184.076 204.518C185.074 202.256 185.972 200.026 186.97 197.764C189.354 191.672 191.738 185.581 194.156 179.422C195.159 176.826 196.095 174.195 197.098 171.599C199.874 163.606 202.65 155.613 205.493 147.654C206.429 145.023 207.299 142.358 208.27 139.661C212.169 127.535 216.169 115.377 220.103 103.184C219.847 104.819 219.626 106.388 219.305 107.99C214.407 122.378 209.679 136.601 205.017 150.858ZM227.058 92.2963C227.083 92.8984 227.243 93.4018 226.802 93.9317C226.736 93.8975 226.603 93.8292 226.503 93.8614C226.441 93.493 226.818 92.7617 227.058 92.2963ZM228.744 93.586C228.611 93.5176 228.545 93.4834 228.446 93.3486C228.481 93.2821 228.581 93.2498 228.615 93.1833C228.682 93.2175 228.748 93.2517 228.846 93.3866C228.812 93.4531 228.778 93.5195 228.744 93.586ZM229.484 88.0776C229.741 88.883 229.333 91.9544 229.02 92.887C228.489 92.6135 228.185 92.8775 227.948 93.1757C228.057 92.4748 227.728 92.1367 227.672 91.2668C227.48 90.6628 229.212 88.4423 229.484 88.0776ZM229.367 86.8392C229.499 86.9075 229.531 87.0082 229.598 87.0424C228.921 87.7034 228.313 88.2314 227.731 89.3616C227.776 88.4594 228.926 87.3691 229.367 86.8392ZM224.851 92.5052C224.934 93.8102 223.838 95.9375 223.084 97.4001C222.939 95.7267 223.697 93.9298 224.851 92.5052ZM221.193 93.9013C221.741 92.8376 222.287 91.9411 222.863 91.3124C223.285 92.2868 222.935 93.453 222.184 94.7485C221.955 94.3781 221.493 93.9716 221.193 93.9013ZM191.778 179.964C193.546 175.069 195.279 170.24 197.046 165.346C198.503 161.216 199.994 157.02 201.451 152.891C202.389 150.093 203.36 147.396 204.298 144.598C206.631 137.302 208.964 130.006 211.364 122.745C213.384 116.381 215.405 110.018 217.526 103.623C217.948 101.989 219.921 96.6954 221.002 95.7381C221.025 96.5074 220.914 97.3754 220.836 98.177C220.491 99.009 220.147 99.8409 219.902 100.641C219.103 103.005 218.304 105.37 217.571 107.769C214.649 116.697 211.827 125.592 208.905 134.519C206.417 143.418 202.56 152.369 199.836 161.399C198.795 164.396 197.653 167.425 196.612 170.423C195.402 173.585 194.157 176.815 193.013 180.011C191.527 183.873 190.04 187.734 188.519 191.663C187.579 194.628 185.973 197.418 184.963 200.516C184.171 202.379 183.378 204.243 182.586 206.106C182.762 205.439 182.937 204.773 183.113 204.106C183.43 202.839 183.747 201.572 184.03 200.372C184.512 199.274 184.962 198.075 185.444 196.977C187.456 191.283 189.634 185.59 191.778 179.964ZM204.118 64.3173C205.864 66.1427 204.657 71.5789 204.489 74.185C204.069 83.3081 202.347 92.3495 201.391 101.533C200.244 110.113 199.096 118.693 198.014 127.307C197.43 131.045 196.879 134.884 196.296 138.622C195.5 143.261 194.739 147.833 194.009 152.505C193.008 157.543 192.007 162.58 191.072 167.652C190.197 173.259 188.494 178.355 187.385 183.926C186.5 187.761 185.615 191.596 184.629 195.463C183.819 198.664 181.676 201.682 180.731 204.982C179.938 206.845 179.146 208.708 178.353 210.572C179.83 204.938 181.272 199.371 182.682 193.703C183.567 189.868 184.519 186.067 185.404 182.232C185.972 179.664 186.54 177.096 187.143 174.461C188.2 167.686 190.161 160.787 191.291 153.544C193.741 137.389 196.865 120.741 198.647 104.578C199.31 99.8713 199.906 95.1303 200.569 90.4234C201.25 84.3794 201.83 78.3676 202.51 72.3235C202.603 70.3519 202.696 68.3802 202.788 66.4086C202.697 65.7723 202.705 65.1037 202.614 64.4674C203.05 64.2717 203.519 64.1767 204.118 64.3173ZM201.839 64.9935C201.866 65.4285 201.894 65.8635 201.887 66.3649C201.658 65.9945 201.564 65.5254 201.839 64.9935C201.772 64.9593 201.772 64.9593 201.839 64.9935ZM190.298 96.9937C188.519 110.381 186.441 123.698 184.125 137.313C181.412 153.164 177.366 168.833 173.814 185.009C171.72 194.447 168.562 203.506 166.333 213.043C163.647 224.28 159.727 235.47 156.673 246.77C155.797 249.936 154.653 253.133 153.774 256.466C152.896 259.8 152.086 263 150.009 266.053C149.791 264.847 150.647 263.185 150.965 261.918C151.942 258.719 152.919 255.52 153.896 252.322C157.013 241.223 160.198 230.159 163.281 219.127C165.54 209.857 168.499 200.696 170.657 191.459C171.429 188.66 172.134 185.826 172.905 183.026C174.391 176.723 175.876 170.421 177.261 164.151C178.648 157.714 179.934 151.309 181.321 144.871C182.796 136.797 184.237 128.789 185.545 120.712C187.255 110.066 188.898 99.3851 190.006 88.7652C190.495 84.5579 190.985 80.3506 191.508 76.0768C192.018 75.4139 192.461 74.7168 192.971 74.0539C192.136 81.7011 191.234 89.3142 190.298 96.9937ZM200.53 62.9725C200.166 62.7009 200.067 62.566 200.106 62.1652C200.438 62.3362 200.568 62.5717 200.53 62.9725ZM200.266 57.6198C201.359 58.2675 201.168 60.1043 201.155 61.1072C200.638 59.8308 200.884 58.864 199.185 58.5771C199.155 58.3093 199.157 58.1422 199.127 57.8743C199.498 57.6445 199.866 57.5818 200.266 57.6198ZM197.832 59.8992C197.798 59.9656 197.697 59.9979 197.564 59.9296C197.633 59.7966 197.599 59.8631 197.733 59.7643C197.699 59.8308 197.765 59.865 197.832 59.8992ZM198.22 58.3321C198.183 58.5657 198.181 58.7329 198.113 58.8659C197.71 58.995 197.34 59.2248 196.937 59.354C197.244 58.9228 197.648 58.6265 198.087 58.2637C198.153 58.2979 198.22 58.3321 198.22 58.3321ZM198.199 57.3957C197.593 57.7566 196.886 58.1498 196.345 58.712C196.045 58.6417 195.983 58.2732 195.752 58.07C195.455 57.8325 193.186 57.673 192.919 57.7034C192.829 56.8999 196.695 54.9378 197.397 54.8789C198.326 55.3576 198.377 56.5618 198.199 57.3957ZM197.639 54.2464C195.908 53.8589 193.304 56.3035 191.986 57.559C191.919 57.5249 191.853 57.4907 191.787 57.4565C193.105 56.2009 195.882 53.2567 197.639 54.2464ZM190.752 59.9523C190.583 60.1176 190.414 60.2828 190.144 60.4804C190.281 60.2145 190.517 60.0834 190.752 59.9523ZM191.213 57.918C191.142 58.2181 190.973 58.3834 190.738 58.5145C190.907 58.3492 191.11 58.1175 191.213 57.918ZM190.097 61.5498C190.325 61.9202 190.39 62.1215 190.454 62.3229C190.454 62.3229 187.375 65.3639 187.037 65.6944C184.735 68.0421 182.795 70.8287 180.622 73.5791C179.669 74.9391 178.682 76.3655 177.663 77.6914C177.706 76.9563 180.29 73.4081 180.8 72.7452C182.838 70.0935 184.442 67.4704 186.508 65.2537C187.727 64.0305 188.878 62.773 190.097 61.5498ZM183.859 63.5518C185.585 61.8328 188.064 58.6512 190.141 58.2067C187.926 61.5251 184.408 62.4881 181.96 65.7704C182.136 65.1037 183.352 64.0476 183.859 63.5518ZM178.381 73.8545C176.503 77.0095 174.593 80.0638 172.715 83.2188C171.586 85.2455 170.458 87.2722 169.329 89.299C168.438 91.0275 167.447 92.7883 166.556 94.5168C164.603 98.3062 162.615 102.162 160.729 105.986C160.38 104.544 162.441 100.221 163.802 98.2302C165.957 94.3762 168.111 90.5222 170.332 86.7024C171.73 84.4781 173.062 82.2197 174.46 79.9954C175.69 77.9364 177.086 75.8793 178.381 73.8545ZM165.215 92.3951C166.138 90.7672 167.127 89.1736 168.05 87.5458C169.211 85.6197 170.438 83.7279 171.598 81.8018C172.894 79.777 174.224 77.6857 175.586 75.695C176.401 74.601 177.217 73.5069 178.033 72.4128C176.397 74.9353 174.795 77.3913 173.159 79.9137C171.862 82.1057 170.532 84.197 169.234 86.389C168.277 88.0833 167.354 89.7111 166.397 91.4055C164.72 94.4959 163.009 97.6528 161.265 100.709C161.134 98.0327 164.178 95.0581 165.215 92.3951ZM160.7 100.502C160.364 103.273 158.413 106.896 156.804 109.853C156.572 107.209 159.229 103.193 160.7 100.502ZM142.011 135.296C141.653 137.131 141.361 139 140.233 141.027C141.508 135.458 142.818 129.822 144.027 124.219C145.139 118.313 146.451 112.51 147.262 106.702C147.811 103.03 148.294 99.3243 148.809 95.7191C148.695 96.7543 148.547 97.856 148.433 98.8912C148.124 102.098 147.415 105.266 147.071 108.539C146.311 115.551 144.549 122.553 143.186 129.759C142.862 131.528 142.403 133.395 142.011 135.296ZM163.928 55.6349C164.029 55.6026 164.13 55.5703 164.297 55.5722C164.78 56.9151 164.362 58.2143 164.477 59.62C164.735 62.8661 163.957 66.1674 163.81 69.7099C163.494 73.4176 163.178 77.1253 162.929 80.8673C162.708 82.4362 162.587 83.9729 162.366 85.5418C162.441 87.5154 161.674 89.9809 161.716 91.8537C161.527 93.5233 161.372 95.1265 161.183 96.7961C160.053 98.99 158.855 101.15 157.759 103.277C158.173 99.7042 158.587 96.1313 159.068 92.5926C159.876 84.5104 160.617 76.394 161.39 68.3783C161.601 65.0372 161.844 61.7967 162.055 58.4556C162.237 57.2874 163.387 56.1971 163.928 55.6349ZM146.612 87.6027C146.456 86.7651 146.821 84.4288 147.2 83.5303C147.392 84.1343 147.023 86.805 146.612 87.6027ZM160.997 55.1334C160.988 55.802 161.246 56.4403 161.103 57.2076C160.97 57.1393 160.872 57.0044 160.673 56.9018C160.714 56.3339 160.789 55.6995 160.83 55.1315C160.93 55.0992 160.93 55.0992 160.997 55.1334ZM150.255 74.6713C150.173 75.8071 149.991 76.9753 149.909 78.1112C149.283 79.9764 148.591 81.8075 147.966 83.6728C147.555 81.8626 149.256 76.9335 150.255 74.6713ZM159.589 52.9776C159.553 53.2112 159.55 53.3783 159.58 53.6461C159.448 53.5778 159.315 53.5094 159.217 53.3745C159.251 53.308 159.319 53.1751 159.287 53.0744C159.422 52.9756 159.523 52.9434 159.589 52.9776ZM159.161 52.5046C159.033 52.1019 158.937 51.7999 158.642 51.3953C158.31 51.2243 158.143 51.2225 157.907 51.3535C158.015 50.8198 158.623 50.2917 159.061 49.9289C159.654 50.5709 159.607 51.6403 159.529 52.4419C159.463 52.4077 159.328 52.5065 159.161 52.5046ZM159.886 48.1662C160.28 48.7057 160.365 49.8434 160.189 50.5101C160.061 50.1075 159.999 49.739 159.669 49.4009C159.271 49.1957 159.137 49.2945 158.869 49.3249C159.244 48.7608 159.548 48.4967 159.886 48.1662ZM131.081 105.682C130.217 107.845 129.32 110.075 128.523 112.273C127.317 115.101 126.178 117.964 124.972 120.792C122.667 125.915 120.429 131.072 118.124 136.195C116.406 139.853 114.789 143.479 113.072 147.137C112.455 148.334 111.838 149.531 111.288 150.762C109.129 154.95 107.036 159.172 104.912 163.294C103.509 165.853 102.173 168.446 100.736 171.071C98.7871 174.526 96.8383 177.981 94.8896 181.436C95.064 178.328 99.1706 173.293 100.55 169.965C102.686 165.008 107.18 158.405 109.153 153.111C109.838 151.782 110.457 150.418 111.177 149.022C112.07 147.126 113.029 145.265 113.923 143.369C115.745 139.344 117.602 135.253 119.425 131.228C120.734 128.2 122.077 125.106 123.385 122.078C124.212 120.148 125.073 118.152 125.834 116.188C128.286 109.963 130.705 103.805 133.157 97.5806C135.653 90.621 138.215 83.6956 140.677 76.8024C141.996 72.9389 143.316 69.0754 144.636 65.2119C145.476 62.2792 146.587 58.9817 148.129 55.9901C148.048 57.126 147.966 58.2618 147.852 59.297C146.886 61.66 145.986 64.0571 145.055 66.3535C142.902 72.6483 140.783 78.8766 138.563 85.1373C136.536 92.0019 133.309 98.7526 131.081 105.682ZM154.062 49.2033C154.565 49.0419 154.58 50.4798 154.308 50.8445C154.207 50.8767 153.471 51.0021 153.302 51.1674C153.139 50.8312 153.623 49.5661 154.062 49.2033ZM155.547 50.5576C155.648 50.5254 155.682 50.4589 155.783 50.4266C155.849 50.4608 155.915 50.495 155.982 50.5291C155.812 50.6944 155.68 50.626 155.547 50.5576ZM156.921 45.1233C157.177 45.9287 157.033 49.304 156.654 50.2025C156.288 50.098 156.022 49.9612 155.823 49.8587C155.689 49.9574 155.487 50.022 155.352 50.1208C154.989 49.8491 155.471 48.7513 154.508 48.3391C154.756 47.2051 156.077 45.7824 156.754 45.1214C156.854 45.0891 156.854 45.0891 156.921 45.1233ZM156.467 44.0482C156.701 44.0843 156.733 44.185 156.799 44.2192C155.784 45.2107 154.772 46.035 153.847 47.83C154.063 46.5954 155.926 44.6104 156.467 44.0482ZM152.087 49.6155C151.808 50.4817 151.397 51.2794 150.986 52.0772C150.731 51.1047 151.31 50.3088 152.087 49.6155ZM150.217 52.1019C150.072 53.0364 150.262 53.8076 149.682 54.7706C149.425 53.9653 149.571 53.0307 150.085 52.0335C150.151 52.0677 150.151 52.0677 150.217 52.1019ZM147.994 51.0401C148.039 50.1379 149.39 48.983 149.898 48.4872C150.993 48.9678 149.702 50.6583 149.053 51.7543C148.623 51.4485 148.459 51.2794 147.994 51.0401ZM119.909 124.914C121.391 121.386 122.873 117.859 124.289 114.298C125.257 111.768 126.292 109.272 127.294 106.675C129.945 98.1124 134.027 89.8669 136.609 81.4371C137.405 79.2394 138.237 76.9753 138.967 74.7434C140.437 69.6111 142.342 64.4503 144.413 59.2913C145.24 57.3615 146.724 53.6671 148.173 52.6471C148.498 53.3195 147.685 54.2464 147.338 55.2455C146.58 57.0424 145.922 58.807 145.164 60.6039C142.803 67.4647 140.408 74.392 138.047 81.2529C136.037 86.7803 134.062 92.2412 132.053 97.7686C131.432 99.2996 130.811 100.831 130.221 102.462C128.321 107.289 126.456 112.049 124.556 116.875C123.971 118.173 123.352 119.536 122.834 120.868C121.146 124.794 119.426 128.62 117.738 132.546C116.5 135.273 115.262 138.001 114.024 140.729C112.583 143.688 111.208 146.682 109.766 149.641C108.841 151.436 107.982 153.265 107.057 155.06C106.132 156.855 105.207 158.65 104.348 160.479C102.258 164.535 100.135 168.489 98.0451 172.545C98.1312 171.074 99.1548 169.414 99.7097 167.849C100.772 165.788 101.834 163.727 102.896 161.666C104.406 158.574 105.916 155.482 107.426 152.389C108.388 150.361 109.416 148.366 110.343 146.404C112.32 140.776 116.241 134.635 118.154 128.806C118.707 127.408 119.258 126.177 119.909 124.914ZM90.5128 138.455C90.3911 137.551 91.3119 136.09 91.5583 135.123C92.574 131.524 94.4885 128.135 96.4351 124.847C95.7023 127.246 94.9695 129.645 94.2711 131.978C92.9733 134.17 91.7099 136.295 90.5128 138.455ZM101.194 115.941C100.847 116.94 100.566 117.973 100.253 118.906C99.3767 122.072 98.3289 125.571 96.6995 127.592C96.9438 126.792 97.2223 125.926 97.4666 125.127C98.343 121.96 99.5854 118.898 101.194 115.941ZM58.4579 234.852C58.4922 234.786 58.4601 234.685 58.5287 234.552C58.6613 234.621 58.5928 234.754 58.4579 234.852ZM59.2483 233.156C60.0496 230.624 60.7503 228.125 61.5516 225.593C63.6084 218.996 65.6996 212.332 67.8228 205.77C70.3471 196.637 74.1726 187.586 76.866 178.289C77.8364 175.591 78.7748 172.793 79.7452 170.096C82.9759 160.57 86.2409 150.978 89.4053 141.418C90.6345 139.359 91.7973 137.266 92.9922 135.273C92.1545 138.039 91.2503 140.77 90.3462 143.502C87.9854 150.363 85.7251 157.191 83.3642 164.052C82.4259 166.85 81.4532 169.714 80.5149 172.512C77.8513 182.078 73.5184 191.625 70.9576 200.991C70.0171 203.956 69.0102 206.887 68.0696 209.852C66.8505 213.683 65.6314 217.514 64.4123 221.345C63.3558 225.513 62.1002 229.578 59.2483 233.156ZM64.1219 225.655C65.2018 222.257 66.3479 218.893 67.3935 215.562C69.5321 207.829 72.6015 200.408 74.875 192.576C79.4254 179.187 83.9757 165.798 88.5261 152.408C89.9508 148.178 91.3413 144.015 92.7659 139.785C93.9231 135.585 95.078 131.552 97.6049 127.301C96.1394 132.099 94.5732 136.93 93.1077 141.728C91.2652 147.257 89.4227 152.786 87.5803 158.316C83.1349 171.338 78.6895 184.361 74.2441 197.384C72.1573 203.713 70.1712 210.009 68.0845 216.338C67.281 219.038 66.3228 223.34 64.1219 225.655ZM61.7865 233.118C61.7698 231.848 63.0886 230.592 63.7718 229.429C63.7221 230.666 62.4675 232.123 61.7865 233.118ZM140.499 39.5199C141.119 40.5969 140.667 41.9626 140.419 43.0966C139.814 45.8983 138.585 47.9573 137.775 51.1579C136.894 54.6586 134.806 58.5468 133.923 62.2146C133.347 62.8433 132.267 66.2415 131.986 67.2748C131.58 67.7382 130.26 71.6017 130.048 72.5021C129.356 74.3331 128.63 76.2307 127.938 78.0618C126.792 81.4257 125.611 84.8561 124.465 88.2201C123.958 88.7158 123.216 91.7835 123.072 92.5508C122.599 92.9801 121.442 97.1798 121.367 97.8142C121.123 98.6139 120.778 99.4459 120.534 100.246C119.872 102.344 119.209 104.443 118.614 106.576C117.78 109.008 116.979 111.54 116.146 113.971C114.507 119.269 112.833 124.633 111.194 129.93C110.708 131.362 110.222 132.795 109.701 134.293C106.603 143.887 103.505 153.482 100.507 163.043C98.1431 167.631 95.7125 172.184 93.3138 176.837C96.1654 168.21 99.017 159.583 101.802 150.921C103.718 144.925 105.633 138.928 107.615 132.966C110.925 122.471 114.235 111.977 117.545 101.482C118.831 97.6851 120.05 93.8539 121.335 90.0569C122.998 85.5286 124.594 80.966 126.222 76.5042C127.327 73.7082 128.332 70.9445 129.437 68.1485C131.567 61.0844 135.071 53.6348 136.477 48.3011C136.792 47.2013 137.207 46.0692 137.522 44.9695C137.6 44.1679 137.743 43.4005 137.821 42.5989C137.866 41.6967 140.065 39.5484 140.499 39.5199ZM135.748 45.3171C134.696 49.1502 132.841 53.0744 131.549 57.3729C130.926 59.071 130.302 60.7691 129.745 62.5014C128.916 64.5984 128.053 66.7619 127.29 68.8931C125.767 72.9883 124.244 77.0836 122.721 81.1788C119.719 91.075 115.791 100.325 113.155 110.326C112.319 112.924 111.484 115.523 110.614 118.188C107.617 127.75 104.553 137.277 101.555 146.839C100.688 149.337 99.8864 151.869 98.9845 154.433C97.6969 158.397 96.4093 162.362 95.0874 166.392C94.7061 167.458 94.2905 168.59 93.9091 169.655C92.2424 174.518 90.6077 179.481 88.941 184.344C88.0523 185.905 87.2299 187.501 86.3412 189.062C87.7294 185.066 89.017 181.102 90.4052 177.105C93.7089 167.112 97.0788 157.153 100.382 147.16C105.608 130.669 110.799 114.245 116.025 97.7534C117.518 93.3904 118.977 89.0938 120.47 84.7308C122.411 79.3363 124.386 73.8754 126.327 68.4809C126.777 67.2824 127.293 66.118 127.777 64.853C128.711 62.3894 129.645 59.9258 130.547 57.3615C131.835 53.3973 133.42 49.6706 135.748 45.3171ZM84.9433 140.465C85.0703 138.427 86.6953 136.74 87.7597 134.512C89.263 131.921 90.6657 129.362 92.169 126.771C92.1062 129.011 88.8962 134.424 87.2646 136.613C86.513 137.908 85.7613 139.203 84.9433 140.465ZM83.6557 144.429C83.6689 143.426 86.5529 139.948 87.4438 138.219C87.3643 139.188 84.403 143.468 83.6557 144.429ZM95.5991 122.397C95.5073 121.761 96.0534 120.864 96.2291 120.197C96.9663 117.464 98.9427 114.444 100.551 111.487C100.268 112.687 99.8846 113.92 99.5353 115.086C98.2012 117.512 96.9333 119.971 95.5991 122.397ZM102.799 108.102C103.537 105.368 105.184 102.01 106.49 99.1496C105.273 102.814 104.228 106.145 102.274 109.935C102.416 109.334 102.592 108.668 102.799 108.102ZM134.6 46.2402C134.444 45.4025 135.753 42.3748 136.226 41.9455C136.472 43.5866 135.423 44.6446 134.6 46.2402ZM136.767 38.9425C136.867 38.9102 136.934 38.9444 137.034 38.9121C137.261 39.4496 137.083 40.2835 137.074 40.9521C136.777 40.7147 136.443 40.7109 136.173 40.9084C135.949 40.2037 136.294 39.3717 136.767 38.9425ZM76.7872 146.19C76.8215 146.123 76.9564 146.024 76.9906 145.958C76.9199 146.258 76.8492 146.558 76.7121 146.824C76.7828 146.524 76.785 146.357 76.7872 146.19ZM75.8444 149.322C76.0202 148.655 76.2622 148.023 76.438 147.356C76.5043 147.39 76.6712 147.392 76.7376 147.426C76.6624 148.061 76.2877 148.625 75.8444 149.322ZM135.1 36.1484C134.647 35.0733 134.981 35.0771 133.682 34.8282C133.823 34.228 134.596 33.869 134.969 33.472C135.069 33.4397 135.17 33.4075 135.337 33.4094C135.795 34.1501 135.413 35.2157 135.302 36.0838C135.235 36.0496 135.135 36.0819 135.1 36.1484ZM135.896 31.5099C136.429 31.6163 136.178 32.9174 136.073 33.284C135.844 32.9136 135.812 32.8129 135.247 32.6059C135.012 32.7369 134.676 32.9003 134.44 33.0314C134.515 32.3969 135.491 31.8062 135.896 31.5099ZM75.1355 144.833C74.9641 145.166 74.7928 145.498 74.5551 145.796C74.4954 145.261 74.8657 145.031 75.1355 144.833ZM47.5016 156.422C47.5724 156.122 47.6431 155.822 47.6818 155.421C47.9836 155.324 47.9493 155.391 48.1527 155.159C48.3174 155.328 48.3152 155.495 48.6469 155.666C48.2102 155.862 47.8399 156.091 47.5016 156.422ZM47.8896 154.855C48.0908 154.79 48.1571 154.825 48.1892 154.925C48.1549 154.992 48.1206 155.058 48.1527 155.159C48.0864 155.125 48.02 155.09 47.8874 155.022C47.9216 154.956 47.8553 154.921 47.8896 154.855ZM55.2887 153.368C55.1174 153.7 54.946 154.032 54.8068 154.466C54.537 154.663 54.4386 154.528 54.6034 154.697C54.3314 155.062 54.1601 155.394 53.8882 155.759C53.3531 155.82 53.1221 155.617 52.6256 155.277C52.7627 155.011 52.934 154.678 53.0711 154.412C53.3707 154.483 53.7046 154.486 54.0042 154.557C54.2717 154.526 54.9825 153.799 55.2887 153.368ZM62.4301 135.929C60.4682 140.387 58.5405 144.778 56.5785 149.236C56.0215 150.969 54.6188 153.527 53.4116 153.915C54.2682 152.253 55.0585 150.556 55.9152 148.894C57.9457 144.303 59.9762 139.712 61.906 135.154C64.9368 128.133 68.034 121.147 71.099 114.06C73.1295 109.469 75.16 104.878 77.1241 100.253C78.2936 97.6585 79.463 95.0638 80.5661 92.435C82.7657 87.6787 84.9996 82.856 87.1329 78.0656C86.8843 79.1996 86.6356 80.3335 86.4212 81.401C85.9758 82.2653 85.5646 83.0631 85.1854 83.9615C83.4313 87.8535 81.6429 91.812 79.8887 95.7039C74.1355 109.146 68.2496 122.52 62.4301 135.929ZM92.2227 76.9867C92.4006 76.1528 92.5785 75.319 92.7564 74.4851C93.1509 72.4166 93.2801 70.2113 94.443 68.1181C93.5024 71.0832 93.4905 74.5269 92.2227 76.9867ZM111.717 36.8854C110.977 39.7858 110.171 42.6521 109.432 45.5526C107.775 52.1874 105.723 58.4499 104.569 64.9232C104.033 67.592 103.497 70.2607 102.927 72.9959C102.457 75.6989 101.885 78.6012 100.208 81.6917C101.1 77.3552 101.992 73.0187 102.884 68.6823C103.853 63.5442 105.19 58.3435 106.429 53.008C107.601 47.6382 109.069 42.673 111.717 36.8854ZM88.0554 84.0945C88.7671 80.759 89.9497 77.1615 91.9692 73.4062C91.4697 75.8413 90.9359 78.3429 90.4364 80.778C89.3377 83.0726 88.239 85.3671 87.2409 87.6294C87.4575 86.3947 87.8067 85.2284 88.0554 84.0945ZM71.4722 136.466C71.47 136.633 71.4015 136.766 71.333 136.899C71.4015 136.766 71.4037 136.599 71.4722 136.466ZM72.1576 135.137C72.0767 133.665 73.1688 131.872 73.6231 130.339C74.977 126.409 76.331 122.479 77.7192 118.482C79.4998 112.584 81.8773 106.994 83.4566 101.161C85.0017 95.3943 86.3091 89.9258 89.7313 83.612C89.234 85.88 88.6361 88.1802 88.0725 90.414C87.196 93.5803 86.3196 96.7468 85.4432 99.9131C83.9798 104.544 82.5165 109.175 81.0874 113.739C80.5668 115.238 79.9799 116.702 79.4593 118.201C78.1031 122.298 76.6464 126.428 75.2902 130.525C74.1682 132.05 73.1469 133.543 72.1576 135.137ZM77.7165 126.306C79.8696 120.011 81.9563 113.682 84.1094 107.388C85.9308 100.922 88.0839 94.6269 89.6035 88.2581C90.0964 86.3244 90.555 84.4573 91.0479 82.5236C91.3352 80.9889 91.554 79.5871 92.4449 77.8586C91.5531 82.195 90.5629 86.3966 89.6047 90.6989C87.9415 97.8351 85.48 104.728 83.4122 112.161C82.7501 114.26 82.0218 116.324 81.3597 118.423C80.6955 120.689 79.5792 124.321 77.7165 126.306ZM102.672 79.6801C103.188 78.5157 103.705 77.3514 104.189 76.0863C104.602 75.1214 105.048 74.2572 105.461 73.2922C106.254 71.4289 107.08 69.499 107.806 67.6015C107.48 69.537 107.088 71.4384 106.696 73.3397C104.942 77.2317 103.22 81.2244 101.465 85.1164C101.68 84.0489 101.894 82.9814 102.109 81.9139C102.319 81.1807 102.529 80.4475 102.672 79.6801ZM74.6594 135.332C74.6449 133.894 76.4434 131.708 77.195 130.413C77.1067 132.05 75.5801 133.872 74.6594 135.332ZM97.4862 93.1625C98.0542 90.5944 98.9241 87.9295 100.329 85.2037C100.151 86.0376 99.9068 86.8373 99.7289 87.6711C99.163 90.0721 98.2589 92.8035 96.8883 95.4627C97.1325 94.663 97.2762 93.8956 97.4862 93.1625ZM103.87 82.5692C104.078 82.0032 105.558 78.643 105.759 78.5784C105.405 80.079 105.084 81.6803 104.73 83.1808C102.873 87.2723 101.016 91.3637 99.159 95.4551C99.369 94.7219 99.4784 94.021 99.6884 93.2878C99.9006 92.3875 100.147 91.4207 100.359 90.5203C101.497 87.825 102.666 85.2303 103.87 82.5692ZM129.511 34.6136C129.01 34.6079 128.742 34.6383 128.372 34.8681C128.154 33.662 128.829 33.1681 129.672 32.509C129.738 32.5432 129.805 32.5774 129.905 32.5451C129.762 33.3125 130.055 33.8842 129.511 34.6136ZM74.2973 142.55C74.43 142.619 74.43 142.619 74.462 142.719C74.3935 142.852 74.2907 143.052 74.2885 143.219C74.2244 143.018 74.2608 142.784 74.2973 142.55ZM94.2203 105.363C94.06 104.859 94.6082 103.796 94.7497 103.195C95.2426 101.262 96.3778 98.7336 97.5406 96.6404C97.1527 98.2074 96.7991 99.708 96.3448 101.241C95.6252 102.637 94.9057 104.033 94.2203 105.363ZM132.567 28.1953C132.819 29.335 131.771 32.8338 130.926 33.6601C130.859 33.6259 130.793 33.5917 130.66 33.5233C130.999 33.1928 130.744 32.2203 130.317 31.7473C130.049 31.7777 129.784 31.641 129.383 31.603C130.567 30.4462 131.486 29.1527 132.567 28.1953ZM132.349 26.9892C132.514 27.1582 132.546 27.2589 132.512 27.3254C131.307 27.5457 128.999 30.3949 128.211 31.924C128.192 30.8204 131.778 27.2836 132.349 26.9892ZM126.578 36.7201C126.818 36.2547 127.092 35.7229 127.266 35.2233C127.122 35.9907 126.985 36.2566 126.578 36.7201ZM122.808 38.9843C122.178 41.1838 121.379 43.5487 120.58 45.9135C119.064 49.5073 117.581 53.0345 116.131 56.6625C115.028 59.2914 113.824 61.9525 112.721 64.5814C110.483 69.7384 108.311 74.9296 106.073 80.0866C106.251 79.2527 106.394 78.4854 106.572 77.6515C107.186 74.1812 109.505 70.4962 110.724 66.665C112.414 62.5717 114.17 58.5126 115.86 54.4193C116.826 52.0563 117.893 49.6611 118.859 47.2982C119.729 44.6332 121.239 41.5409 122.808 38.9843ZM108.005 70.312C108.146 69.7118 108.287 69.1115 108.363 68.4771C108.613 67.176 108.899 65.8084 109.083 64.4731C109.841 62.6762 110.634 60.8128 111.392 59.0159C112.716 54.8181 115.145 50.4323 116.905 46.0388C117.732 44.109 118.867 41.5808 119.955 40.122C120.771 39.028 121.653 37.9681 122.503 36.8075C121.886 38.0041 121.304 39.1343 120.687 40.331C119.689 42.5932 118.59 44.8878 117.592 47.15C114.418 54.9378 111.211 62.6249 108.005 70.312ZM125.039 31.8879C125.691 33.0656 124.679 33.8899 123.863 34.984C123.197 34.8093 123 34.5395 122.157 35.1986C122.406 34.0647 124.362 32.5489 125.039 31.8879ZM118.126 24.2863C118.148 25.2227 118.102 26.1249 118.023 27.0937C116.964 31.4282 115.905 35.7628 114.78 40.0632C113.94 42.9959 113.1 45.9287 112.26 48.8614C111.414 52.2957 110.567 55.7299 109.721 59.1641C108.686 61.66 107.585 64.1217 106.516 66.684C105.724 68.5474 104.897 70.4773 104.171 72.3748C104.351 71.3738 104.597 70.407 104.743 69.4724C105.346 66.8379 105.881 64.1692 106.484 61.5346C107.361 55.7603 110.186 49.1388 111.505 42.8345C112.1 40.7014 112.63 38.5341 113.191 36.4675C113.875 32.6971 114.964 28.6303 118.126 24.2863ZM113.984 26.9474C113.656 29.0501 113.225 31.3522 112.629 33.4853C111.873 35.1151 111.152 36.6783 110.462 38.3422C110.302 37.8389 111.096 35.8084 111.306 35.0752C111.947 32.0398 112.41 29.8384 113.984 26.9474ZM90.679 72.4888C90.3328 70.88 92.8022 65.9262 93.933 63.7323C93.6843 64.8663 93.4357 66.0002 93.2213 67.0677C92.3624 68.8969 91.5378 70.6596 90.679 72.4888ZM114.557 24.045C114.619 24.4135 114.546 24.8808 114.507 25.2816C114.235 25.6463 113.766 25.7413 113.428 26.0718C113.471 25.3367 114.214 24.7098 114.557 24.045ZM96.7151 57.8459C96.2929 59.4794 96.1405 60.9154 95.181 62.7769C95.066 61.3713 95.8927 59.4414 96.7151 57.8459ZM47.5733 153.514C47.4705 153.713 47.434 153.947 47.3312 154.146C47.2008 153.911 47.2051 153.577 47.3422 153.311C47.4085 153.345 47.4406 153.446 47.5733 153.514ZM112.76 21.0154C112.565 20.5785 112.94 20.0144 112.275 19.8396C112.547 19.4749 112.752 19.076 113.024 18.7113C113.047 19.4806 112.904 20.248 112.76 21.0154ZM113.748 16.981C113.744 17.3153 113.707 17.5489 113.636 17.849C113.504 17.7806 113.437 17.7464 113.305 17.6781C113.474 17.5128 113.611 17.2469 113.748 16.981ZM110.813 19.2546C110.744 19.3876 110.71 19.454 110.676 19.5205C110.644 19.4199 110.744 19.3876 110.813 19.2546ZM109.901 14.9979C109.616 16.3655 109.33 17.7331 108.945 19.133C108.709 19.2641 108.677 19.1634 108.508 19.3287C108.085 18.5214 109.151 16.1262 109.901 14.9979ZM93.4209 46.8081C89.6749 54.8903 85.9632 62.906 82.2172 70.9882C76.4021 84.0622 70.5549 97.0355 64.7397 110.109C62.2273 115.798 59.6143 121.519 57.1019 127.208C55.3456 131.267 53.6235 135.26 51.8671 139.319C50.4534 142.714 49.074 146.041 47.6603 149.436C46.5524 147.35 49.1667 144.07 50.0708 141.338C50.6898 139.975 51.343 138.544 51.8957 137.146C53.7913 132.654 55.7875 128.13 57.6831 123.637C58.2336 122.407 58.8504 121.21 59.4009 119.979C64.2842 109.201 69.067 98.4563 73.9503 87.6787C76.7026 81.5245 79.3885 75.3361 82.1408 69.1818C82.8283 67.6851 83.5822 66.2225 84.3039 64.6592C86.3986 60.2696 88.3926 55.9122 90.4872 51.5226C92.9289 46.1338 95.3706 40.7451 97.7116 35.3886C97.5016 36.1218 97.2916 36.855 97.0817 37.5882C96.6959 38.9881 96.3102 40.388 95.8902 41.8543C94.9673 43.4822 94.2112 45.1119 93.4209 46.8081ZM110.364 12.7964C109.987 13.5277 109.509 14.2913 109.032 15.0549C109.006 14.4528 109.959 13.0928 110.364 12.7964ZM105.27 19.2584C105.056 20.3259 104.809 21.2927 104.528 22.326C103.393 24.8542 102.192 27.3482 101.022 29.9429C101.198 29.2761 101.374 28.6094 101.549 27.9427C102.184 25.4088 103.364 21.9784 105.27 19.2584ZM99.2954 29.221C96.8194 34.6763 94.4098 40.1657 91.9682 45.5545C90.0791 49.5453 88.2564 53.5702 86.3674 57.5609C85.6821 58.8906 85.0974 60.1879 84.412 61.5175C82.7264 65.2765 81.0065 69.102 79.3209 72.8611C77.0505 77.9174 74.8465 83.008 72.5762 88.0643C69.4127 95.0164 66.2813 102.069 63.1179 109.021C62.1562 111.05 61.1946 113.078 60.3335 115.075C59.5432 116.771 58.7186 118.534 57.9947 120.264C55.6536 125.62 53.3788 131.011 51.0378 136.368C49.9579 139.766 47.7504 142.583 46.9724 145.884C46.7237 147.018 46.5414 148.186 46.7958 149.158C46.9583 149.495 47.1551 149.764 47.3176 150.101C47.4138 150.403 46.8911 152.068 46.953 152.437C46.4544 152.264 45.7225 152.055 45.393 151.717C45.2924 151.749 45.1918 151.782 45.0912 151.814C43.9016 150.864 44.0541 149.428 44.8765 147.833C45.1695 148.404 45.426 149.21 46.0893 149.552C46.1579 149.419 46.1921 149.352 46.2607 149.219C43.9522 147.02 47.2408 143.245 48.2178 140.047C50.6639 134.324 53.1763 128.635 55.6224 122.912C56.447 121.149 57.2716 119.386 58.0961 117.624C63.0138 106.78 67.8651 95.9015 72.7827 85.0575C75.158 79.6345 77.5676 74.1451 79.943 68.7222C80.699 67.0924 81.4551 65.4627 82.2111 63.8329C83.0357 62.0703 83.9609 60.2753 84.7855 58.5126C86.9166 53.8893 89.0476 49.266 91.1124 44.6086C92.4554 41.5143 93.8989 38.3878 95.2419 35.2936C95.8266 33.9963 96.4456 32.6325 97.0303 31.3352C98.1976 28.9076 99.2642 26.5124 100.431 24.0849C100.108 25.8533 99.6855 27.4868 99.2954 29.221ZM103.252 17.7977C103.008 18.5974 102.958 19.8339 102.586 20.2309C102.421 20.0619 102.323 19.927 102.124 19.8244C102.501 19.0932 102.91 18.4625 103.252 17.7977Z" fill="#D4F54D"/>
</svg>
