<svg width="330" height="203" viewBox="0 0 330 203" fill="none" xmlns="http://www.w3.org/2000/svg">
<path fill-rule="evenodd" clip-rule="evenodd" d="M176.292 174.776C183.952 173.326 191.487 171.21 197.388 170.323L199.599 169.675C204.063 168.6 209.67 166.16 212.908 166.006C218.515 163.567 221.795 163.635 226.951 161.281C229.12 160.411 231.289 159.541 233.417 158.449L234.727 157.971C239.84 155.395 243.403 154.491 248.109 152.222C251.378 149.766 257.813 149.236 257.844 146.934L260.788 145.228C263.041 144.801 269.381 141.304 268.847 140.946C271.665 138.575 273.96 138.37 276.37 136.306L277.188 135.692C280.457 133.235 283.726 130.779 286.503 128.186C287.32 127.572 288.138 126.958 288.462 126.207C292.392 124.774 292.339 122.028 295.325 120.544C297.243 118.343 299.16 116.143 300.627 114.028L303.927 109.268C307.238 107.034 308.369 103.145 310.077 99.8354C310.359 98.8631 311.051 97.5838 311.333 96.6115L311.658 95.861C312.632 93.6094 313.156 91.4431 313.679 89.2768C315.031 89.0208 314.863 88.1339 315.146 87.1616C315.387 85.9676 315.219 85.0806 315.459 83.8866L315.334 83.2213C315.731 80.3898 317.366 79.1616 315.185 77.5072C314.724 75.068 316.767 73.5328 315.362 71.0425L315.236 70.3773C314.365 68.2452 314.48 66.3859 314.595 64.5267L313.694 64.6973C313.851 63.0598 314.049 61.644 312.728 59.5973C312.308 57.3798 309.563 57.67 310.663 56.0836L310.621 55.8619C309.342 54.0368 308.062 52.2118 306.333 50.4721C307.192 50.0797 307.108 49.6362 306.531 49.0563C303.607 45.935 300.724 43.0355 299.979 41.5686C297.306 39.7777 295.576 38.038 294.339 36.4347L292.201 35.002C290.639 34.1493 289.528 33.2112 287.966 32.3584C288.375 32.0514 288.291 31.6079 287.264 31.1133C279.947 26.9859 274.559 23.1825 265.566 20.0616C264.906 19.0382 260.629 16.1729 258.868 16.7359L257.883 16.463C256.898 16.1902 255.913 15.9173 254.927 15.6445C250.085 14.7237 253.522 13.1542 247.989 13.5127C244.582 12.7795 244.33 11.449 240.851 12.7968C238.881 12.2511 237.613 12.9505 235.684 12.6265C229.91 14.1791 228.684 15.1003 229.47 16.7889C232.09 15.8335 235.026 21.4793 240.801 19.9267L243.714 20.5235C246.754 21.7856 249.794 23.0476 254.636 23.9684C256.648 24.7358 259.112 25.418 261.124 26.1854C260.967 27.8229 267.654 28.6242 269.834 30.2786C273.775 31.37 273.168 33.0928 276.658 34.2696C279.74 35.7534 279.583 37.3909 283.65 39.1475C285.746 40.3584 287.392 41.6547 289.08 43.1727C286.911 44.0427 291.344 45.2705 291.554 46.3793C294.846 48.9717 297.194 51.5131 297.698 54.174C298.274 54.7539 298.893 55.5556 299.469 56.1355L299.553 56.579C297.468 57.8925 301.619 60.0926 301.462 61.7301C303.486 65.022 304.356 67.1541 305.028 70.702C303.027 72.459 305.951 75.5803 305.47 77.9683C305.89 80.1858 305.817 82.2667 305.786 84.5695C303.491 84.7743 305.305 86.9575 304.529 87.7934C305.075 90.676 303.765 91.1537 303.001 94.514L302.676 95.2645C300.717 97.2433 302.363 98.5395 300.121 101.491L299.796 102.241C299.681 104.1 296.893 104.169 296.779 106.028C297.974 107.41 295.155 109.781 293.52 111.009L293.154 111.538C291.645 113.431 290.587 115.239 288.628 117.218C286.416 117.866 284.992 120.203 282.99 121.96C281.031 123.939 279.072 125.918 276.662 127.982L273.843 130.353C273.434 130.66 273.068 131.189 272.208 131.581L270.207 133.338C267.671 134.737 264.643 136 264.077 137.944C261.373 138.456 258.597 141.049 255.61 142.533C253.315 142.738 250.454 144.887 247.468 146.371C247.059 146.678 246.2 147.071 245.791 147.378C241.663 150.227 235.354 151.421 234.296 153.229C232.042 153.656 230.282 154.219 228.113 155.089C225.943 155.959 223.323 156.914 220.704 157.87C215.914 159.695 211.125 161.521 206.619 162.374C205.309 162.851 203.548 163.414 202.239 163.892C200.478 164.455 198.717 165.018 196.506 165.666C193.268 165.82 192.378 168.515 191.507 166.383C190.155 166.639 189.338 167.253 188.479 167.645C186.099 167.407 181.719 168.925 178.072 169.386C171.354 170.887 165.003 171.86 158.16 172.696C156.556 171.622 149.922 173.567 146.642 173.499C141.601 173.994 141.433 173.107 137.419 174.096C137.167 172.766 130.9 174.182 128.521 173.943C124.34 174.046 120.116 173.927 116.385 173.944C114.781 172.87 108.797 173.314 104.94 172.666C100.8 172.99 98.8296 172.444 96.4085 171.984C94.48 171.66 92.1009 171.421 90.2144 171.319C86.4833 171.336 88.076 169.886 84.7956 169.818C81.5572 169.972 80.9806 169.392 77.0396 168.301C71.7887 167.687 71.4529 165.913 66.6106 164.992C63.1623 164.037 59.672 162.861 56.1817 161.684C56.999 161.07 56.0138 160.797 54.9866 160.302C53.5087 159.893 52.0308 159.484 51.4962 159.126L48.4566 157.863C46.7268 156.124 40.8462 152.184 38.8338 151.416C39.1165 150.444 38.5399 149.864 36.9781 149.012C35.3324 147.715 33.6866 146.419 32.4914 145.037C32.9729 142.649 27.7949 139.955 26.7985 137.157C29.0097 136.509 25.97 135.247 26.2527 134.275L25.5082 132.808C23.5377 132.262 24.8785 129.482 23.5575 127.435C25.8106 127.008 23.6303 125.354 23.913 124.382C22.5919 122.335 23.5352 122.386 23.5241 119.862C25.8192 119.657 24.0475 117.695 24.3722 116.945L24.2882 116.501C25.0944 113.363 23.5746 112.732 24.9574 110.173C24.2437 106.403 30.0909 102.77 28.6858 100.28L29.0525 99.7508C32.081 98.4883 32.3106 94.7699 34.27 92.7911L34.6367 92.2623C36.1454 90.3688 37.6541 88.4754 39.1627 86.582C40.7134 84.9103 41.8554 83.5456 43.4481 82.0956C44.2234 81.2598 45.8581 80.0316 44.8728 79.7587L46.0149 78.3941C48.6767 77.6604 54.314 72.9182 54.1041 71.8095L54.8794 70.9736C57.2166 70.9905 59.4587 68.0395 61.5859 66.9477L62.4032 66.3336C63.6292 65.4124 64.8972 64.713 66.5738 63.7065L68.701 62.6147L70.3777 61.6082C72.5049 60.5164 74.1815 59.5099 76.3088 58.4182C77.5767 57.7187 78.8867 57.241 80.1966 56.7634C82.6906 55.1428 88.9995 53.9484 89.6069 52.2255C91.0008 52.1913 97.6764 50.4681 97.9172 49.2741C104.425 46.664 115.282 44.8382 119.987 42.5692L121.339 42.3133C125.112 42.5177 132.563 39.9587 136.829 40.2996L140.434 39.6171C144.94 38.7639 149.038 38.2178 153.587 37.5864C158.135 36.955 163.134 36.2383 167.724 35.8286L170.019 35.6238C180.961 34.2415 192.647 34.326 200.517 33.9844C205.642 33.9329 210.317 33.9667 215.033 34.2223C220.116 33.949 226.52 35.7226 230.576 34.9548C232.997 35.4152 234.841 35.2956 236.193 35.0397C235.952 36.2337 241.528 36.0969 243.582 37.0861L244.568 37.3589C248.467 38.2286 251.915 39.1836 254.955 40.4456C259.996 39.9507 256.035 43.6865 259.231 43.311C262.229 44.3513 261.695 43.9931 264.326 45.5622L265.185 45.1699L265.761 45.7498C270.562 46.4488 273.087 42.5255 269.837 40.1547C268.726 39.2167 267.248 38.8074 265.854 38.8416C265.308 35.9589 258.705 35.6012 252.668 33.2988L251.683 33.026C246.841 32.1052 240.353 29.8882 235.846 30.7413C231.046 30.0423 225.837 29.6503 221.121 29.3947L219.601 28.7637C214.35 28.15 200.946 28.8501 194.385 28.7141C192.048 28.6972 189.302 28.9873 186.965 28.9704L181.882 29.2437C178.643 29.3974 175.447 29.7728 171.758 30.0119C169.463 30.2167 166.717 30.5068 164.422 30.7117C159.465 31.6501 153.973 32.2304 148.565 33.2542L144.918 33.715C142.665 34.1416 139.961 34.6534 137.666 34.8583L136.314 35.1142C133.16 35.7114 129.554 36.3939 126.4 36.9911C127.133 35.9335 120.416 37.435 121.485 38.1513C107.641 41.4613 100.064 43.3551 88.2747 47.6543C87.7821 47.5179 86.0215 48.0809 86.1475 48.7461C78.2878 51.6122 71.0048 55.0582 64.2144 58.6407C57.9165 62.3595 51.6607 66.3001 46.3901 70.5136C44.3468 72.0489 42.3035 73.5842 40.7528 75.2559C38.7515 77.0129 36.7502 78.7699 34.7909 80.7487C33.397 80.7829 33.5229 81.4481 33.6069 81.8916C32.0142 83.3415 30.8722 84.7062 29.7722 86.2926L29.4055 86.8214C27.1634 89.7724 24.9214 92.7234 23.1299 95.5892C21.6521 95.1799 19.494 98.5744 21.7472 98.1478C21.0558 99.4272 20.3644 100.707 19.673 101.986C16.6445 103.248 17.3162 106.796 15.8494 108.911C15.5247 109.662 15.242 110.634 15.368 111.299C15.9137 114.182 12.2778 117.167 14.4162 118.6C12.0902 121.107 14.7743 125.423 13.3915 127.981C14.0212 131.308 15.5522 134.463 17.5338 137.533C17.0832 137.619 16.2239 138.011 16.7585 138.369C17.377 139.171 18.0376 140.194 18.6561 140.996C19.8513 142.377 20.5957 143.844 22.2415 145.14C21.0995 146.505 26.0368 150.394 26.4875 150.309L28.1332 151.605C26.5826 153.276 32.0434 154.999 33.6892 156.295C37.1795 157.472 36.0374 158.837 38.5845 159.962L39.0351 159.877C41.1735 161.31 41.918 162.776 45.9009 164.09C49.7691 167.262 56.9065 167.978 62.6192 171.031C65.323 170.519 66.1934 172.651 70.4591 172.992C72.4296 173.538 74.358 173.862 76.7372 174.1C77.031 175.652 84.4932 175.618 87.9415 176.573C90.3626 177.033 93.1924 177.186 95.5715 177.425L96.5148 177.476C99.8372 177.766 103.16 178.056 106.933 178.26C106.692 179.454 112.634 178.789 114.563 179.113L116.9 179.13C121.574 179.163 126.699 179.112 131.331 178.924C132.034 180.169 138.793 178.889 142.074 178.957L147.115 178.462C151.255 178.138 155.352 177.592 159.45 177.046C162.856 177.779 171.293 175.493 176.292 174.776Z" fill="#5745FF"/>
</svg>
