<svg width="214" height="266" viewBox="0 0 214 266" fill="none" xmlns="http://www.w3.org/2000/svg">
<path d="M56.5183 12.8655C54.8327 16.6245 53.115 20.2829 51.4294 24.0419C50.155 27.0031 48.8142 29.9302 47.5397 32.8915C45.2031 37.9136 42.9327 42.97 40.596 47.9921C39.9107 49.3218 39.2575 50.752 38.5722 52.0817C36.9208 55.7742 35.2031 59.4326 33.5517 63.1251C32.8299 64.6884 32.1402 66.3523 31.4184 67.9155C28.2185 75.1012 25.0507 82.3875 21.8507 89.5731C20.7841 91.9684 19.6511 94.3294 18.5845 96.7246C16.901 100.316 15.2497 104.009 13.5662 107.601C12.7417 109.364 11.8828 111.193 11.0582 112.955C8.40658 119.077 5.72064 125.266 3.06896 131.388C2.23338 133.986 0.432686 136.34 0.904911 138.518C1.03099 139.088 1.91439 140.469 2.95027 140.414C3.45106 140.42 4.14649 140.862 4.74789 140.836C4.67276 141.47 4.46497 142.036 4.95918 142.543C4.58225 143.275 4.20093 144.34 4.59454 144.88C4.72721 144.948 4.85987 145.016 5.05887 145.119C5.5298 144.857 6.16987 144.429 6.5446 143.865C6.67726 143.934 6.77567 144.069 6.90833 144.137C6.56348 144.969 5.40282 146.895 5.7279 147.567C5.86058 147.636 5.92691 147.67 6.02531 147.805C6.56477 147.41 6.81343 146.276 7.15609 145.611C7.2545 145.746 7.41923 145.915 7.71883 145.985C8.12343 145.689 8.63741 144.692 8.94581 144.093C9.54282 144.401 9.98168 144.038 10.2901 143.44C10.6195 143.778 11.0795 144.352 11.6466 144.391C12.9136 144.54 14.2521 141.78 14.7727 140.281C16.5954 136.256 18.3518 132.197 20.1745 128.172C23.4451 120.686 26.6494 113.166 29.9201 105.681C31.5737 101.821 33.3278 97.9289 34.9814 94.0692C36.0823 91.6075 37.1832 89.1458 38.2178 86.6499C39.7321 83.2233 41.3127 79.8308 42.827 76.4042C42.0147 79.7719 41.1018 83.172 40.2232 86.5055C34.5407 99.6479 28.8925 112.724 23.1437 125.832C21.5266 129.458 19.8753 133.15 18.3245 136.811C17.2578 139.206 16.5273 141.438 13.9758 142.479C14.0079 142.579 14.0399 142.68 14.1726 142.748C14.9752 142.657 15.6131 142.397 16.189 141.768C17.814 140.082 19.262 136.621 20.0611 134.256C20.543 133.158 21.1255 132.028 21.6074 130.93C27.3606 117.488 33.1459 104.146 38.8991 90.7033C39.0915 91.3073 38.3398 92.6028 38.1641 93.2695C37.3628 95.8015 36.5958 98.267 35.7945 100.799C33.8127 106.761 31.7304 112.756 29.7486 118.718C28.8059 121.851 27.3966 124.911 27.0917 127.783C27.5538 128.189 27.9518 128.394 28.4504 128.567C29.5957 127.811 30.7906 125.819 31.4438 124.388C31.54 124.69 31.6363 124.992 31.5655 125.292C31.6639 125.427 31.7623 125.562 32.0619 125.632C32.398 125.469 32.6677 125.272 32.8733 124.873C32.282 126.671 31.1249 130.871 32.0127 131.918C31.6999 132.85 31.2158 134.115 31.5066 134.854C31.7056 134.957 31.8382 135.025 32.003 135.194C32.7414 134.902 33.3218 133.939 33.8999 133.143C33.5783 134.744 32.0021 137.802 33.2945 138.553C34.3304 138.497 34.4165 137.027 35.2599 136.368C35.4954 136.237 35.8956 136.275 36.1333 135.977C36.5423 135.346 37.0519 134.683 37.4609 134.053C37.6963 133.922 38.0965 133.96 38.3662 133.762C39.2418 133.204 40.1327 131.475 40.7815 130.379C40.9397 131.05 40.2777 133.149 40.3009 133.918C40.4999 134.02 40.6989 134.123 40.93 134.326C42.2699 134.007 44.495 129.853 45.3837 128.292C45.1051 129.158 44.8266 130.024 44.6487 130.858C44.61 131.259 44.8068 131.528 44.8024 131.863C42.5101 138.591 40.1857 145.218 37.8934 151.946C36.1924 156.875 34.592 161.772 32.891 166.701C31.3635 171.13 29.836 175.56 28.3085 179.989C26.0329 187.988 22.9247 195.81 20.8182 203.643C19.3439 209.11 17.1034 214.434 15.7639 219.802C15.2368 221.802 14.442 223.832 14.2852 225.603C14.6832 225.808 15.0149 225.979 15.3786 226.25C16.5217 225.662 17.7508 223.603 18.4362 222.273C18.6993 222.577 18.5622 222.843 18.7248 223.179C18.8574 223.247 18.8895 223.348 19.0222 223.416C19.4909 223.321 19.6302 222.888 20.0348 222.592C19.6491 223.992 19.2291 225.458 18.8091 226.925C18.8047 227.259 19.07 227.396 19.0999 227.664C19.1574 228.366 18.2112 229.225 19.2084 229.571C18.6922 230.735 18.1395 232.133 19.066 232.779C19.6055 232.384 20.4599 230.889 21.0956 230.796C20.9155 231.797 19.536 235.125 19.9938 235.866C20.1265 235.934 20.2591 236.002 20.3575 236.137C21.2309 235.746 21.4154 234.411 22.2566 233.919C22.3915 233.82 22.6911 233.89 22.9266 233.759C23.3356 233.128 23.8452 232.465 24.2542 231.835C24.4576 231.603 25.0247 231.643 25.3287 231.379C26.1124 230.184 26.9625 229.024 27.7462 227.829C27.6733 228.296 27.8701 228.566 27.7651 228.932C27.5937 229.265 27.4887 229.631 27.2832 230.03C27.1417 230.631 27.103 231.031 27.0279 231.666C27.3596 231.837 27.4602 231.804 27.657 232.074C29.0012 231.421 31.6995 226.837 32.7617 224.776C32.9818 225.815 30.2304 229.362 31.7627 229.647C34.4345 227.069 35.825 222.906 38.1695 219.823C41.9234 213.68 45.5767 207.569 49.3306 201.426C50.2535 199.799 51.1422 198.237 52.1316 196.644C56.1982 189.568 60.297 182.593 64.3636 175.518C65.9377 172.627 67.5117 169.736 69.1521 166.879C70.5912 164.087 71.9961 161.361 73.5017 158.603C75.1122 155.479 76.6221 152.386 78.2326 149.262C78.8836 147.999 79.5004 146.802 80.0851 145.505C81.4944 142.445 82.8695 139.451 84.2788 136.391C85.9279 132.866 87.545 129.239 89.1942 125.714C90.1923 123.452 91.2247 121.123 92.2228 118.861C94.8103 112.538 97.3315 106.18 99.919 99.8568C99.8439 100.491 99.6682 101.158 99.5931 101.792C99.1643 103.927 98.8018 106.097 98.3731 108.231C97.2194 114.705 95.6313 121.207 94.0752 127.809C92.3412 135.246 90.1706 142.878 88.2011 150.445C86.8041 155.11 85.3408 159.741 83.9438 164.406C82.9755 166.936 82.0415 169.4 81.0733 171.93C78.7058 179.292 75.4396 186.444 73.3076 193.675C72.7528 195.24 72.0973 196.837 71.5425 198.403C69.3573 204.597 67.1722 210.791 64.987 216.985C64.115 219.817 62.7764 222.577 62.2725 225.346C62.6042 225.517 62.9359 225.688 63.2333 225.926C64.0745 225.434 65.3301 221.369 65.8463 220.204C67.9198 214.878 70.1924 209.655 71.7309 204.39C75.1285 194.866 78.5604 185.275 81.958 175.751C83.5927 170.788 85.161 165.791 86.7957 160.827C87.7275 158.531 88.6593 156.235 89.4904 153.97C90.6985 150.975 91.8724 148.046 93.0142 145.016C91.7885 149.349 90.4301 153.613 89.1381 157.912C87.8593 161.207 86.5804 164.503 85.3016 167.798C84.2626 170.629 83.1573 173.425 82.1184 176.255C79.3441 184.081 76.6041 191.84 73.7635 199.631C72.1223 205.096 69.7171 210.251 68.1786 215.517C67.4093 218.149 65.9702 220.941 66.1406 223.217C66.2733 223.285 66.3396 223.32 66.5065 223.321C67.8275 221.899 68.6442 218.197 69.5031 216.368C68.6332 219.033 67.7976 221.631 66.9278 224.296C66.6835 225.096 65.8634 226.524 66.5245 227.033C66.4173 227.567 66.278 228 66.1709 228.534C66.3356 228.703 66.4019 228.737 66.6352 228.773C66.224 229.571 66.0074 230.805 65.9665 231.373C66.1656 231.476 66.2982 231.544 66.4972 231.647C67.0367 231.252 67.3152 230.386 67.5915 229.687C67.6579 229.721 67.7242 229.755 67.8569 229.823C68.0879 230.027 68.1222 229.96 68.2593 229.694C67.805 231.227 67.1474 232.992 67.0955 234.395C67.2282 234.464 67.4272 234.566 67.5599 234.635C67.9645 234.338 68.579 233.309 68.6542 232.674C68.6884 232.608 68.7227 232.541 68.7912 232.408C69.7177 233.054 70.2726 231.489 70.7523 230.558C70.8186 230.593 70.9513 230.661 71.0519 230.629C71.7152 230.971 73.7005 227.282 74.1824 226.184C74.1648 227.521 73.6398 229.354 73.4232 230.589C73.6222 230.691 73.8212 230.794 74.0202 230.897C75.3667 230.076 75.7678 227.506 76.5858 226.245C78.2758 222.151 79.9979 218.159 81.6879 214.065C80.5418 217.429 79.3613 220.86 78.2152 224.224C77.9002 225.324 76.7009 227.65 77.1885 228.659C77.916 229.202 78.5051 227.571 78.9163 226.773C79.9144 224.511 80.8782 222.315 81.8763 220.053C82.9794 217.424 84.0825 214.795 85.2199 212.099C86.1838 209.904 87.0813 207.674 88.0109 205.544C88.632 204.014 89.2853 202.583 89.9065 201.052C91.256 197.457 92.6056 193.861 93.9209 190.332C95.9325 184.637 97.9441 178.943 99.9214 173.314C101.141 169.483 102.293 165.618 103.547 161.72C104.738 157.454 106.03 153.156 107.222 148.889C111.152 139.472 115.117 129.988 119.047 120.57C120.735 116.644 122.489 112.752 124.177 108.826C124.762 107.529 125.413 106.266 126.032 104.902C126.923 103.173 127.782 101.344 128.673 99.6155C130.491 95.9249 132.375 92.2684 134.228 88.5113C136.211 84.9897 138.194 81.4681 140.177 77.9466C141.338 76.0205 142.599 74.0622 143.76 72.1361C144.884 70.4437 146.008 68.7513 147.199 67.0931C146.67 71.7011 146.142 76.3092 145.548 80.8831C144.924 85.1892 144.366 89.5294 143.707 93.902C142.864 99.6098 142.053 105.418 141.21 111.126C140.018 118 138.86 124.808 137.667 131.682C134.933 146.597 131.234 161.266 127.73 176.373C125.023 186.673 122.285 196.873 119.578 207.174C118.736 210.274 117.862 213.273 117.019 216.373C115.851 221.409 114.084 226.304 112.884 231.238C111.238 237.037 109.7 242.303 108.193 247.669C107.315 251.002 105.935 254.33 105.795 257.371C106.127 257.542 106.458 257.713 106.79 257.884C107.593 257.793 108.655 255.732 109.167 254.902C109.231 255.103 109.261 255.371 109.325 255.572C109.656 255.743 109.691 255.677 109.958 255.646C109.301 257.411 109.381 258.883 109.529 260.389C109.584 261.259 108.974 261.955 109.23 262.76C109.395 262.929 109.461 262.963 109.729 262.933C110.163 262.904 110.641 262.141 110.981 261.643C110.598 262.876 110.281 264.143 110.233 265.212C110.366 265.28 110.565 265.383 110.663 265.518C111.335 265.191 111.513 264.357 112.121 263.829C112.29 263.664 112.624 263.668 112.928 263.404C113.234 262.973 113.44 262.574 113.746 262.143C114.048 262.046 114.284 261.915 114.62 261.751C115.198 260.955 115.71 260.125 116.288 259.329C116.142 260.264 115.829 261.197 115.919 262C116.118 262.103 116.25 262.171 116.449 262.274C117.661 261.552 118.691 259.39 119.578 257.996C119.539 258.397 118.575 260.593 119.545 260.503C120.013 260.408 120.461 259.377 120.801 258.879C121.859 257.153 122.883 255.493 124.007 253.8C125.264 252.176 125.994 249.944 127.254 248.153C127.63 247.422 128.007 246.69 128.451 245.993C129.616 243.733 130.815 241.406 132.046 239.18C133.657 236.055 135.302 232.864 136.846 229.706C138.15 227.012 139.487 224.419 140.791 221.726C141.581 220.03 142.438 218.368 143.228 216.671C145.533 211.549 147.837 206.426 150.142 201.303C152.314 196.112 154.552 190.955 156.724 185.763C157.549 184.001 158.273 182.27 159.097 180.508C160.963 175.748 162.863 170.921 164.729 166.161C166.357 161.699 168.017 157.338 169.645 152.876C169.135 156.147 169.281 160.261 169.271 163.538C169.194 169.388 168.982 175.337 170.245 180.869C170.876 183.718 171.225 187.6 174.542 189.31C174.922 190.852 175.541 192.096 176.122 193.574C176.576 194.649 176.761 195.755 177.416 196.765C177.743 197.27 178.466 198.148 179.365 198.359C181.163 198.78 182.616 197.426 183.869 196.136C184.41 195.574 184.952 195.012 185.494 194.45C185.626 194.518 185.759 194.586 185.958 194.689C186.557 194.83 187.326 194.805 187.863 194.577C188.771 194.119 189.182 193.321 190.158 192.731C190.325 192.733 190.592 192.702 190.759 192.704C191.429 192.545 192.204 192.018 192.778 191.557C195.582 189.048 199.562 181.002 200.851 176.87C201.543 175.039 202.169 173.174 202.861 171.343C204.296 166.277 205.995 161.515 207.063 156.512C208.525 149.44 210.152 142.538 211.01 135.66C211.864 129.116 212.586 122.504 213.005 115.989C213.111 113.014 213.217 110.04 213.389 107.099C213.693 101.787 213.896 96.5061 213.63 91.3206C213.281 84.8302 213.902 78.2504 213.016 71.9879C212.773 70.1796 212.598 68.2384 211.852 66.5916C211.559 66.0198 211.234 65.3474 210.941 64.7757C210.611 64.4376 210.316 64.033 209.986 63.6949C209.89 63.3929 209.828 63.0244 209.732 62.7224C209.443 61.8163 209.018 61.1762 208.226 60.4316C207.961 60.2949 207.961 60.2949 207.792 60.4601C207.467 59.7877 207.407 59.2521 206.579 58.7411C206.403 59.4078 206.87 59.48 207.195 60.1524C207.488 60.7242 207.509 61.6606 207.566 62.3634C207.269 62.126 207.072 61.8562 206.775 61.6188C206.706 61.7518 206.704 61.9189 206.702 62.0861C206.306 61.7138 205.944 61.275 205.549 60.9027C205.514 60.9692 205.48 61.0357 205.412 61.1686C205.707 61.5732 205.636 61.8733 205.865 62.2437C205.831 62.3102 205.73 62.3425 205.696 62.409C205.167 61.9683 205.341 61.4687 204.881 60.8951C204.913 66.0445 204.235 71.9214 203.893 77.635C203.726 82.6819 203.493 87.6945 203.327 92.7414C203.253 95.8166 203.145 98.9583 203.137 102.068C202.797 107.614 202.524 113.195 201.948 118.872C201.259 125.585 200.268 132.394 199.043 139.168C198.475 141.736 197.941 144.238 197.373 146.806C196.794 150.209 195.548 153.606 194.799 157.175C193.205 164.178 190.167 171.7 186.229 179.178C185.718 177.4 188.583 172.819 189.211 170.786C190.076 168.456 190.841 166.157 191.707 163.827C192.967 159.428 194.391 155.197 195.45 150.863C198.322 138.123 200.488 125.777 201.449 113.651C202.187 103.261 202.12 93.1289 202.722 82.8376C203.056 77.7927 203.323 72.7135 203.858 67.604C204.047 65.9344 204.934 61.9322 204.215 60.7204C204.168 61.7898 204.15 63.127 203.769 64.1926C203.913 63.4252 203.99 62.6236 203.329 62.1146C203.228 62.1469 203.194 62.2133 203.125 62.3463C203.275 63.6854 202.754 65.1841 202.501 66.6524C202.139 68.8215 201.877 70.9584 201.514 73.1276C200.941 78.6379 200.603 84.0172 200.297 89.4971C200.159 94.979 199.953 100.427 199.814 105.908C199.52 110.553 199.158 115.163 198.864 119.807C198.135 129.528 196.105 139.168 194.169 149.277C193.129 154.715 191.323 160.011 189.746 165.677C188.871 168.676 187.792 172.074 186.181 175.199C186.175 173.092 186.17 170.986 186.23 168.913C186.448 165.071 186.697 161.329 186.915 157.486C187.256 154.381 187.598 151.275 187.939 148.169C188.996 136.345 190.759 124.128 192.855 112.082C193.905 105.808 195.123 99.5358 195.671 93.4233C195.901 91.1857 196.775 88.1865 195.798 86.3364C194.668 85.9224 193.471 88.082 193.025 88.9463C193.173 87.8446 193.465 85.9755 192.271 85.3601C192.07 85.4247 191.935 85.5235 191.734 85.5881C191.621 84.0153 193.013 79.6845 191.723 78.7671C191.591 78.6987 191.458 78.6303 191.225 78.5942C190.216 79.0843 189.499 80.3133 188.713 81.6752C188.418 81.2706 188.799 80.205 188.872 79.7377C188.993 78.2011 189.424 75.8989 188.168 74.915C186.731 74.9321 184.877 78.8564 184.32 80.5887C184.256 80.3873 183.933 79.5478 183.496 79.7434C182.929 79.7035 182.62 80.3019 182.216 80.5982C182.36 79.8308 181.964 79.4585 181.534 79.1527C180.091 79.6712 179.635 81.3713 178.677 83.0656C178.166 83.8956 177.183 84.9878 176.799 86.2206C176.178 87.7515 175.557 89.2825 174.936 90.8135C173.507 95.3779 172.045 99.8416 170.616 104.406C167.601 115.305 163.354 125.989 160.17 137.054C158.713 141.183 157.29 145.246 155.834 149.376C154.411 153.439 152.989 157.501 151.566 161.564C149.786 167.462 147.232 173.719 144.818 179.543C145.667 175.941 146.516 172.34 147.397 168.839C148.797 161.399 150.762 154.166 152.027 146.825C155.853 125.068 158.672 103.635 161.524 82.302C162.565 74.2559 163.436 66.375 163.974 58.4904C164.024 57.2539 164.347 50.4367 161.245 52.7085C161.145 52.7407 161.044 52.773 160.877 52.7711C160.68 52.5014 160.55 52.2659 160.387 51.9297C160.144 50.1214 161.456 44.3186 157.731 45.6805C157.278 44.6054 157.497 43.2036 156.44 42.3222C155.481 41.5757 154.268 42.4647 153.662 42.8256C152.82 43.3176 151.876 44.0089 151.099 44.7023C150.727 45.0992 150.354 45.4962 149.915 45.859C149.447 45.954 149.044 46.0831 148.575 46.1781C147.501 46.634 146.589 47.4261 145.677 48.2181C142.975 50.5279 140.498 53.5423 137.954 56.5226C137.104 57.6832 136.254 58.8437 135.37 60.0708C134.115 61.5276 132.109 64.28 131.216 66.1756C129.169 69.4959 127.087 72.8826 125.04 76.2028C123.537 78.7937 122.066 81.4852 120.562 84.0761C120.646 82.7731 120.762 81.5707 120.979 80.3361C121.249 77.5306 121.618 74.8599 121.789 72.0867C122.101 66.1053 123.113 60.2322 123.391 54.3173C123.523 51.9449 124.512 45.3025 123.331 43.6841C122.336 43.1713 121.214 44.6966 120.8 45.6615C120.514 44.5883 121.167 43.158 119.605 42.6053C119.922 41.3383 120.292 36.0597 118.86 35.7425C117.793 35.6969 117.409 36.9297 116.598 37.6895C116.921 35.9211 116.856 33.2789 115.639 31.8942C113.972 31.7081 112.425 35.034 111.498 36.9962C110.837 36.4871 110.267 36.6144 109.79 37.378C109.597 36.7739 109.3 36.5365 108.804 36.1965C106.652 37.2754 104.421 41.9309 102.879 44.9226C100.583 49.3768 99.0532 53.9735 97.7612 58.272C96.9278 60.7033 96.1287 63.0681 95.2953 65.4994C93.7182 71.1655 91.0731 76.786 89.2605 82.5831C88.395 84.9138 87.429 87.2767 86.5635 89.6073C84.783 95.5051 81.6349 101.287 79.6853 107.35C78.6529 109.679 77.6205 112.008 76.6202 114.437C74.8639 118.496 73.0754 122.455 71.3191 126.514C70.1154 129.175 68.8453 131.802 67.6416 134.463C66.9541 135.96 66.166 137.489 65.4785 138.986C64.0371 141.945 62.5957 144.904 61.1543 147.864C63.0034 141.833 64.9852 135.87 66.8663 129.94C67.6311 127.642 68.3617 125.41 69.1266 123.112C70.9756 117.081 72.9253 111.018 74.7744 104.987C77.8579 93.9552 82.0371 83.4037 85.3561 72.2406C87.0184 67.7123 88.6808 63.184 90.3089 58.7222C91.2064 56.4922 92.0718 54.1616 92.9693 51.9316C94.6084 46.634 96.881 41.4105 98.3509 36.2782C99.1566 33.4119 101.21 29.5902 99.8007 27.6015C98.673 27.0202 97.3155 28.6766 96.8037 29.5066C96.954 28.2378 96.8644 27.4343 96.2419 26.5245C95.7754 26.4523 95.5742 26.5169 95.206 26.5796C94.8344 24.3686 96.918 20.8147 95.1723 18.9893C93.8689 19.0748 92.4152 20.4291 91.5265 21.9905C92.2294 19.3236 92.9644 16.7575 91.6188 14.9701C90.1915 14.3186 88.1466 17.4717 87.1616 18.731C86.9218 19.1964 86.6499 19.5611 86.41 20.0264C85.9711 20.3892 85.3719 20.2487 84.9309 20.7786C84.7385 20.1746 84.7407 20.0074 84.3128 19.5345C82.0398 19.7092 80.6648 22.7028 79.0332 24.8909C78.5192 25.8882 77.9389 26.8512 77.4592 27.7819C73.9584 32.4565 72.5758 38.5594 70.0744 43.4126C70.8116 40.6792 71.5145 38.0124 72.2517 35.2791C73.5845 30.4127 75.018 25.514 76.0834 20.6779C76.5121 18.5429 78.3823 13.4486 77.2313 12.0981C76.0307 11.9841 74.5186 15.2436 73.7305 16.7727C73.3136 15.4639 75.2923 12.2766 73.8373 11.1902C73.3686 11.2851 73.0325 11.4485 72.6921 11.9461C72.8722 10.9451 72.5471 10.2727 72.5901 9.53761C72.642 8.13392 73.9441 5.60764 73.3238 4.53066C73.2254 4.39579 73.0928 4.32742 72.9944 4.19257C71.89 4.38061 70.8299 6.27435 70.1446 7.60398C70.0141 7.36844 69.95 7.16709 69.5498 7.1291C69.2822 7.1595 69.1474 7.25829 69.0103 7.52421C68.977 4.98273 71.0839 2.19814 69.473 0.273984C68.1032 0.325265 65.9655 5.44999 65.0746 7.17851C65.1818 6.64477 65.4647 5.4443 64.7329 5.23535C64.4653 5.26575 64.2641 5.33034 64.0287 5.46141C63.3179 6.18889 62.8039 7.18611 62.2556 8.2498C62.47 7.1823 62.8193 6.01603 62.8988 5.04731C62.7341 4.87826 62.6014 4.80988 62.4366 4.64084C60.1892 5.41771 57.889 10.2062 56.5183 12.8655ZM199.477 121.385C199.806 116.675 200.202 111.998 200.531 107.287C200.618 103.209 200.806 99.0989 200.893 95.0207C201.269 89.2407 201.41 83.5917 201.821 77.7452C201.95 75.5399 202.246 73.3365 202.542 71.1332C202.545 70.966 202.581 70.7324 202.583 70.5652C202.658 69.9308 202.768 69.2299 202.843 68.5955C202.993 67.3267 203.109 66.1243 203.291 64.9561C203.175 66.1585 202.959 67.3932 202.843 68.5955C202.731 69.4636 202.62 70.3316 202.542 71.1332C202.252 75.443 201.927 79.8194 201.637 84.1293C201.464 89.6776 201.323 95.3266 201.15 100.875C201.09 105.388 200.564 109.829 200.203 114.439C199.96 117.679 199.516 120.984 199.138 124.324C198.951 125.826 198.733 127.228 198.546 128.73C198.879 126.293 199.145 123.822 199.477 121.385ZM19.2835 228.936C19.2514 228.836 19.2857 228.769 19.2879 228.602C19.3222 228.536 19.3564 228.469 19.3907 228.403C19.5875 228.672 19.4869 228.705 19.2835 228.936ZM41.0767 186.654C41.2059 184.449 43.2398 182.132 44.2678 180.137C43.6058 182.236 42.5712 184.732 41.0767 186.654ZM48.9855 171.799C51.0735 167.911 53.1936 164.123 55.2817 160.235C54.9324 161.401 54.5489 162.634 54.1333 163.766C51.9104 167.753 49.6533 171.806 47.4304 175.793C47.3364 175.324 48.4737 172.629 48.9855 171.799ZM38.9214 193.116C38.9091 191.511 40.8403 189.393 41.6284 187.864C41.1035 189.697 39.9793 191.39 38.9214 193.116ZM19.7215 231.181C19.6916 230.914 19.7601 230.781 19.9613 230.716C19.9271 230.783 19.8243 230.982 19.7215 231.181ZM50.4273 173.888C48.5835 176.977 46.7718 180.166 44.9281 183.254C44.8108 182.016 47.7102 177.368 48.7316 175.875C49.1085 175.144 49.586 174.38 49.963 173.649C50.4725 172.986 51.4751 170.389 51.978 170.228C51.2308 171.189 51.515 172.429 50.4273 173.888ZM21.8099 232.342C21.78 232.074 21.9193 231.641 22.189 231.444C22.1526 231.677 21.9812 232.01 21.8099 232.342ZM21.0473 234.473C20.9511 234.171 21.2252 233.639 21.2959 233.339C21.433 233.073 21.4993 233.107 21.7668 233.077C21.5933 233.577 21.3214 233.941 21.0473 234.473ZM99.2382 88.1466C100.451 84.8169 101.663 81.4872 102.876 78.1574C102.794 79.2933 102.678 80.4956 102.53 81.5973C102.046 82.8624 101.527 84.1939 101.11 85.4931C99.5523 89.6548 98.0292 93.75 96.4719 97.9117C95.9214 99.1426 95.4716 100.341 94.9211 101.572C93.5052 105.133 92.023 108.661 90.6071 112.222C89.3669 115.117 88.1588 118.112 86.9187 121.007C86.4732 121.871 86.0941 122.77 85.6829 123.568C84.582 126.029 83.4811 128.491 82.3459 131.019C81.5213 132.782 80.6967 134.545 79.9385 136.342C79.388 137.572 78.7712 138.769 78.2208 140C77.7411 140.931 77.3277 141.896 76.8479 142.826C75.4408 145.719 73.9995 148.679 72.5924 151.571C70.742 155.161 68.8574 158.818 67.007 162.408C65.6728 164.833 64.405 167.293 63.0708 169.719C61.0193 173.373 59.034 177.062 56.9825 180.717C54.4876 185.068 51.8922 189.452 49.3974 193.804C45.6413 200.114 41.8189 206.39 38.0971 212.633C38.2584 210.529 40.7145 206.578 42.0742 204.754C42.9286 203.259 43.8494 201.799 44.7039 200.304C47.5734 195.388 50.443 190.472 53.3125 185.556C56.0815 180.673 58.8504 175.789 61.6857 170.94C63.7395 167.118 65.7269 163.263 67.7806 159.441C70.0765 154.987 72.3402 150.432 74.636 145.978C75.3578 144.414 76.0796 142.851 76.8014 141.288C79.6543 135.101 82.4729 128.981 85.2594 122.76C86.1204 120.764 86.9815 118.768 87.8425 116.771C90.1902 110.914 92.6385 105.023 94.9862 99.1654C96.5048 95.4045 97.8544 91.8088 99.2382 88.1466ZM104.683 82.9592C105.165 79.2534 105.749 75.5153 107.366 71.8892C107.059 74.9283 106.752 77.9674 106.344 81.0389C105.581 83.1701 104.819 85.3013 104.122 87.4666C104.309 85.9642 104.496 84.4617 104.683 82.9592ZM102.743 90.7945C103.219 87.5901 103.629 84.3515 104.105 81.1471C103.661 84.4522 103.219 87.5901 102.743 90.7945ZM117.317 61.7043C117.637 57.6623 118.058 53.5879 118.413 49.4794C118.447 49.4129 118.481 49.3464 118.516 49.2799C118.298 53.1226 117.98 56.9974 117.696 60.8059C117.039 67.6192 116.347 74.499 115.69 81.3124C115.385 84.1844 115.046 87.1228 114.675 89.9606C114.481 91.9645 114.56 93.6038 113.26 95.9629C113.932 90.5874 114.67 85.2462 115.376 79.8042C116.022 73.8266 116.636 67.7484 117.317 61.7043ZM45.1418 202.549C45.0047 202.815 44.902 203.014 44.8312 203.315C44.7328 203.18 44.9705 202.881 45.1418 202.549ZM44.388 204.012C44.2896 203.877 44.5615 203.512 44.6643 203.313C44.5615 203.512 44.4908 203.812 44.388 204.012ZM44.221 204.01C43.9812 204.475 43.707 205.007 43.4672 205.472C43.403 205.271 44.0497 204.342 44.221 204.01ZM43.3666 205.505C43.1267 205.97 42.8526 206.502 42.6127 206.967C42.4822 206.732 43.1952 205.837 43.3666 205.505ZM30.5573 224.818C30.6434 223.348 31.7355 221.555 32.6198 220.328C34.2238 217.705 35.7271 215.114 37.331 212.491C36.7331 214.791 35.054 218.049 33.1163 220.668C32.2297 222.062 31.4438 223.424 30.5573 224.818ZM33.2955 222.275C31.8286 224.632 30.3618 226.989 28.8286 229.312C28.9081 228.344 30.1285 226.953 30.8072 226.125C32.105 223.933 33.469 221.775 34.7667 219.583C34.8928 220.153 33.7067 221.477 33.2955 222.275ZM36.6061 216.829C38.5527 213.541 40.4992 210.253 42.5464 206.933C42.4713 207.567 41.315 209.159 40.906 209.79C39.4392 212.147 37.9723 214.504 36.6061 216.829ZM89.2847 123.91C87.2907 128.267 85.2966 132.624 83.4032 136.949C81.7883 140.408 80.1734 143.867 78.6249 147.36C77.4941 149.554 76.3633 151.748 75.3331 153.91C73.9625 156.569 72.5919 159.228 71.2875 161.922C69.6792 164.879 68.1373 167.871 66.529 170.828C64.9914 173.485 63.5202 176.177 61.9826 178.834C61.0596 180.462 60.203 182.124 59.28 183.752C56.1706 189.133 52.9948 194.48 49.8854 199.861C47.3928 204.046 44.9344 208.164 42.3754 212.314C40.703 215.07 39.0648 217.76 37.3924 220.516C35.6536 223.238 33.9149 225.96 32.1761 228.682C32.5209 227.85 32.7995 226.984 33.1443 226.152C33.9114 223.686 34.8453 221.223 36.4769 219.034C37.1258 217.938 37.841 216.877 38.5241 215.714C44.1924 206.183 49.8951 196.585 55.5635 187.053C57.615 183.399 59.7009 179.678 61.8188 176.057C63.7355 172.502 65.6864 168.879 67.6694 165.358C69.417 161.967 71.1646 158.577 72.8458 155.152C73.7367 153.423 74.5956 151.594 75.4865 149.866C76.069 148.736 76.6515 147.605 77.202 146.374C78.7483 143.049 80.2605 139.789 81.7405 136.429C83.047 133.568 84.3535 130.708 85.66 127.847C86.5211 125.851 87.4484 123.889 88.2752 121.959C90.2758 117.1 92.2422 112.308 94.2428 107.449C96.0743 102.755 97.9058 98.0618 99.703 93.4347C100.361 91.6701 100.984 89.972 101.642 88.2074C101.932 88.9463 101.348 90.2436 101.27 91.0452C100.942 93.1479 100.68 95.2848 100.352 97.3875C100.042 98.153 99.731 98.9185 99.4204 99.6839C96.5755 107.81 92.5663 115.588 89.2847 123.91ZM93.6161 137.333C94.9898 131.899 96.2972 126.43 97.7052 120.929C98.8545 114.79 100.47 108.723 101.551 102.717C102.239 98.6127 102.928 94.5079 103.584 90.3025C104.313 88.2378 105.142 86.1408 105.87 84.0761C105.645 85.9794 105.319 87.9149 105.093 89.8182C104.54 93.8241 103.853 97.7617 103.099 101.832C101.694 109.607 99.8209 117.476 98.0461 125.48C97.373 128.415 96.6337 131.316 95.9606 134.25C95.0311 136.38 94.1678 138.543 93.2725 140.606C92.6856 142.07 92.0987 143.535 91.5118 144.999C92.2125 142.5 92.9474 139.933 93.6161 137.333ZM112.565 100.569C112.874 99.9707 113.182 99.3724 113.424 98.7399C113.068 100.408 113.185 101.646 112.055 103.84C112.203 102.738 112.351 101.637 112.565 100.569ZM118.136 93.3435C117.993 94.1109 117.881 94.979 117.738 95.7464C116.365 98.5728 115.092 101.367 113.72 104.193C113.549 101.918 115.295 98.6943 116.53 96.1338C117.006 95.5374 117.8 93.5069 118.136 93.3435ZM112.641 104.983C112.081 106.883 112.027 108.454 110.794 110.847C110.976 109.679 111.225 108.545 111.407 107.377C111.784 106.645 112.129 105.813 112.506 105.082C112.574 104.949 112.574 104.949 112.641 104.983ZM94.6822 142.595C95.3166 140.061 95.8526 137.392 97.2917 134.6C96.9767 135.7 96.7623 136.767 96.4474 137.867C95.8086 140.735 95.0007 143.768 93.4587 146.76C93.9108 145.394 94.2965 143.994 94.6822 142.595ZM137.831 60.8343C137.872 60.2664 138.551 59.4382 138.992 58.9083C139.707 57.8465 140.523 56.7524 141.27 55.7913C141.882 54.9289 142.529 54.0001 143.107 53.2042C142.561 54.1008 141.949 54.9631 141.27 55.7913C140.623 56.7201 139.876 57.6812 139.229 58.6101C139.195 58.6765 139.06 58.7753 138.992 58.9083C138.583 59.5389 138.174 60.1695 137.831 60.8343ZM88.1514 164.387C88.8841 161.988 89.6512 159.523 90.384 157.124C90.8659 156.026 91.2815 154.894 91.7634 153.796C92.2133 152.597 92.7294 151.433 93.2136 150.168C92.6886 152.001 92.1636 153.834 91.6386 155.667C90.7964 158.767 89.2523 161.925 88.1724 165.323C87.4463 167.221 86.7544 169.052 86.0282 170.95C86.7245 168.784 87.4551 166.552 88.1514 164.387ZM80.59 183.292C81.5604 180.595 82.5972 177.932 83.6019 175.168C83.3233 176.035 83.0128 176.8 82.7342 177.666C81.6588 180.73 80.5834 183.794 79.5079 186.858C78.0876 190.753 76.6674 194.649 75.2128 198.611C73.8632 202.207 72.58 205.837 71.2304 209.433C72.6529 205.37 74.1418 201.341 75.5642 197.278C77.1945 192.649 78.8591 187.954 80.59 183.292ZM150.225 47.7015C150.353 48.1042 150.349 48.4385 150.377 48.8735C150.006 49.1033 149.702 49.3673 149.298 49.6636C149.167 49.4281 149.069 49.2932 148.771 49.0558C149.212 48.5259 149.686 48.0966 150.225 47.7015ZM139.082 74.858C139.832 73.7298 140.549 72.5008 141.299 71.3725C142.911 68.0808 145.789 65.1043 147.665 62.1165C147.38 63.4841 145.414 65.6685 144.429 66.9278C142.965 69.1179 141.534 71.2415 140.07 73.4315C138.977 75.2246 137.785 77.05 136.693 78.8431C136.875 77.6749 138.667 75.9901 139.082 74.858ZM146.117 63.0016C144.047 65.5526 142.335 68.7095 140.263 71.4276C139.717 72.3241 139.205 73.1542 138.659 74.0508C136.952 76.8733 135.246 79.6959 133.539 82.5185C133.025 83.5158 132.545 84.4465 131.965 85.4095C129.721 88.46 128.461 92.8592 126.382 96.0788C125.249 98.4398 124.049 100.767 122.916 103.128C119.188 109.873 116.713 117.769 113.216 124.717C113.075 122.709 114.369 120.851 115.102 118.452C116.616 115.026 118.096 111.666 119.61 108.239C120.021 107.441 120.467 106.577 120.812 105.745C122.099 101.781 124.917 98.2688 126.44 94.1736C127.125 92.844 127.776 91.5808 128.462 90.2512C129.318 88.5892 130.241 86.9614 131.098 85.2993C131.578 84.3686 132.057 83.4379 132.569 82.6078C134.31 79.7187 136.085 76.7632 137.893 73.9083C139.561 71.4865 141.163 69.0305 142.831 66.6087C144.494 64.5212 146.258 62.4014 147.755 60.312C147.374 61.3776 146.761 62.2399 146.117 63.0016ZM112.143 127.614C110.039 132.672 107.936 137.73 105.833 142.788C106.077 141.989 106.255 141.155 106.499 140.355C106.784 138.987 107.474 137.324 108.065 135.525C108.513 134.493 108.96 133.462 109.408 132.431C110.58 129.669 111.751 126.907 112.857 124.111C112.574 125.311 112.325 126.445 112.143 127.614ZM153.671 47.2057C153.435 47.3368 153.134 47.4337 152.864 47.6312C152.701 47.295 152.573 46.8923 152.411 46.5561C153.081 46.3966 153.344 46.7005 153.705 47.1392L153.671 47.2057ZM151.961 47.7547C151.993 47.8554 151.924 47.9883 151.956 48.089C151.655 48.1859 151.385 48.3834 151.083 48.4803C151.021 48.1118 150.959 47.7433 150.865 47.2741C151 47.1754 151.069 47.0424 151.203 46.9436C151.601 47.1487 151.732 47.3843 151.961 47.7547ZM99.8118 156.261C100.62 153.228 101.871 149.497 103.481 146.373C102.089 150.703 100.987 155.773 98.5905 160.26C99.0425 158.894 99.4603 157.595 99.8118 156.261ZM79.1575 216.043C80.475 212.346 81.7583 208.717 83.0758 205.02C83.6284 203.622 84.2131 202.325 84.7658 200.927C87.3643 193.768 90.0634 186.576 92.662 179.417C94.2856 175.29 95.8773 171.062 97.501 166.934C97.0124 168.534 96.4919 170.032 96.0033 171.632C94.8827 175.598 93.2335 179.123 92.01 183.289C89.9641 189.05 87.8519 194.776 85.8403 200.471C85.1506 202.135 84.4952 203.732 83.8054 205.396C81.7341 210.555 79.6307 215.613 77.5593 220.772C78.1142 219.207 78.669 217.642 79.1575 216.043ZM104.904 155.015C103.157 160.846 101.445 166.611 99.6328 172.408C98.0711 176.904 96.5093 181.4 94.9818 185.83C94.0479 188.294 93.1802 190.791 92.2463 193.255C91.4151 195.519 90.5839 197.783 89.7527 200.047C88.0992 203.907 86.5119 207.801 84.8584 211.661C83.8945 213.856 82.9628 216.153 81.9989 218.349C81.0562 221.481 79.5783 224.674 77.5931 228.363C77.4117 226.923 78.9857 224.032 79.5085 222.366C81.141 217.57 82.8055 212.874 84.438 208.078C87.0708 200.853 89.7699 193.661 92.4027 186.436C93.0946 184.605 93.8186 182.874 94.5105 181.043C96.2049 176.616 97.9336 172.122 99.628 167.694C101.453 163.502 103.211 159.276 104.904 155.015ZM102.13 160.233C100.265 164.993 98.3989 169.753 96.5331 174.513C97.4394 171.614 98.38 168.649 99.2863 165.751C101.132 157.446 105.373 147.263 109.886 136.716C108.793 141.117 107.634 145.484 106.474 149.85C105.026 153.311 103.578 156.772 102.13 160.233ZM143.051 72.6965C141.822 74.7555 140.561 76.7138 139.331 78.7728C138.306 80.6001 137.314 82.3609 136.288 84.1882C135.708 85.1512 135.228 86.0819 134.648 87.0449C134.408 87.5103 134.168 87.9757 133.928 88.441C131.802 92.73 129.609 96.9848 127.482 101.274C126.109 104.1 124.736 106.927 123.43 109.787C121.536 114.112 119.643 118.437 117.75 122.762C116.267 126.29 114.851 129.851 113.335 133.445C111.713 137.405 110.026 141.331 108.404 145.292C108.182 144.42 109.666 140.725 109.883 139.491C110.481 137.191 111.047 134.79 111.645 132.489C113.022 129.329 114.365 126.235 115.676 123.04C117.638 118.582 119.565 114.19 121.527 109.732C122.215 108.235 122.969 106.773 123.69 105.209C124.958 102.75 126.16 100.256 127.462 97.7294C128.764 95.2031 130.032 92.7433 131.334 90.217C132.497 88.1238 133.66 86.0306 134.788 84.0039C135.848 82.1101 136.975 80.2506 138 78.4233C139.433 76.1326 140.898 73.9425 142.33 71.6517C143.998 69.2299 145.733 66.8423 147.435 64.354C147.46 64.9562 147.385 65.5906 147.31 66.225C145.912 68.4493 144.481 70.5729 143.051 72.6965ZM149.191 60.2949C149.226 60.2284 149.294 60.0954 149.328 60.029C149.392 60.2303 149.356 60.4639 149.185 60.7963C149.187 60.6292 149.189 60.4621 149.191 60.2949ZM150.167 59.7042C150.076 59.0678 150.759 57.9054 151.461 57.8465C151.687 58.384 150.542 59.14 150.167 59.7042ZM157.144 47.145C157.378 47.181 157.545 47.1829 157.778 47.219C158.437 47.8952 158.691 48.8678 158.545 49.8023C157.683 49.3578 157.621 48.9893 157.026 48.5145C157.065 48.1137 157.072 47.6122 157.144 47.145ZM149.03 62.3995C149.055 63.0016 148.914 63.6018 148.839 64.2363C148.914 63.6018 148.989 62.9674 149.03 62.3995ZM151.27 59.6833C151.52 60.9901 150.441 61.7803 149.792 62.8763C149.642 61.5371 150.454 60.7774 151.27 59.6833ZM148.657 65.4044C148.691 65.338 148.725 65.2715 148.794 65.1385C147.897 72.4172 146.965 79.7624 146.002 87.0069C145.633 89.6776 145.264 92.3482 144.895 95.0189C146.092 85.2025 147.425 75.2873 148.657 65.4044ZM107.185 255.815C107.088 255.513 107.296 254.947 107.467 254.615C107.6 254.683 107.666 254.718 107.765 254.852C107.561 255.084 107.356 255.483 107.185 255.815ZM111.35 248.875C112.712 244.276 114.041 239.744 115.47 235.18C118.969 223.016 122.434 210.918 125.933 198.754C128.076 190.687 130.219 182.62 132.362 174.553C135.633 159.41 139.499 144.743 142.164 129.961C143.316 123.655 144.467 117.349 145.351 111.073C145.75 108.67 146.149 106.267 146.548 103.865C147.282 98.8577 147.949 93.8165 148.683 88.8095C148.058 93.1156 147.501 97.4559 146.876 101.762C145.886 111.012 144.062 120.253 142.436 129.597C139.438 146.815 135.238 164.087 131.065 181.794C128.87 191.264 125.744 200.424 123.38 210.059C121.143 217.657 118.973 225.289 116.736 232.887C116.001 235.453 115.234 237.919 114.499 240.485C113.693 243.351 112.958 245.917 111.35 248.875ZM158.205 68.0542C158.587 64.3806 159.036 60.7413 159.384 57.1342C159.602 58.3404 159.317 59.708 159.166 60.9768C158.994 63.9171 158.621 66.9221 158.314 69.9612C157.354 79.4794 155.792 89.0242 154.764 98.6753C152.675 117.877 148.882 137.126 145.284 156.812C144.133 163.118 142.284 169.149 140.965 175.453C139.542 182.124 137.519 188.654 135.895 195.39C134.726 200.425 133.625 205.495 130.648 210.945C132.401 204.612 134.22 198.313 135.973 191.98C139.224 178.342 143.107 164.945 145.521 151.465C148.616 134.548 152.108 117.837 153.828 101.306C154.381 97.3001 154.935 93.2942 155.523 89.2217C156.418 82.1102 157.345 75.0993 158.205 68.0542ZM135.423 203.309C135.869 202.445 136.248 201.546 136.659 200.748C137.865 197.92 139.105 195.025 140.311 192.197C139.784 194.197 139.257 196.197 138.729 198.197C136.667 202.688 134.639 207.112 132.642 211.636C132.889 210.669 133.236 209.67 133.482 208.703C133.703 207.134 134.798 205.174 135.423 203.309ZM109.843 254.241C109.82 253.472 110.633 252.545 110.908 252.013C110.931 252.782 110.252 253.61 109.843 254.241ZM127.05 222.974C127.226 222.307 127.468 221.675 127.644 221.008C128.208 218.774 129.308 216.312 130.574 214.02C130.366 214.586 130.259 215.12 130.051 215.686C129.488 217.919 128.385 220.548 127.05 222.974ZM133.58 211.446C134.715 208.918 135.916 206.424 137.052 203.896C136.595 205.596 136.107 207.195 135.584 208.861C133.661 212.918 131.637 217.008 129.713 221.065C129.772 219.16 131.337 216.937 132.209 214.105C132.655 213.241 133.134 212.31 133.58 211.446ZM124.126 232.068C124.225 229.595 126.403 226.511 127.506 223.882C126.837 226.482 125.734 229.111 124.126 232.068ZM110.126 260.697C110.16 260.631 110.128 260.53 110.162 260.463C110.226 260.665 110.192 260.731 110.126 260.697ZM109.843 261.898C109.879 261.664 109.916 261.43 109.952 261.197C110.119 261.199 110.119 261.199 110.254 261.1C110.183 261.4 110.046 261.666 109.843 261.898ZM110.843 264.517C110.951 263.983 111.058 263.449 111.165 262.916C111.332 262.918 111.465 262.986 111.597 263.054C111.657 263.59 111.15 264.086 110.843 264.517ZM144.285 204.847C148.008 195.996 151.731 187.144 155.453 178.293C158.187 171.035 160.954 163.711 163.754 156.487C166.254 149.193 168.72 141.966 171.286 134.706C171.17 135.908 171.055 137.111 170.906 138.212C170.039 140.71 169.205 143.142 168.338 145.639C166.416 152.137 163.392 158.656 161.335 165.253C160.609 167.151 159.816 169.014 159.09 170.912C157.522 175.909 154.821 180.66 153.184 185.79C152.392 187.653 151.533 189.483 150.74 191.346C148.605 196.304 146.501 201.362 144.366 206.319C143.61 207.949 142.82 209.645 142.064 211.275C140.551 214.535 139.039 217.794 137.527 221.054C137.15 221.785 136.808 222.45 136.431 223.181C134.989 226.14 133.516 228.999 132.075 231.958C131.149 233.753 130.224 235.548 129.365 237.377C127.707 241.571 125.253 245.355 123.099 249.209C123.164 246.803 126.914 240.994 128.456 238.002C131.233 232.45 133.979 226.797 136.757 221.245C138.13 218.419 139.502 215.593 140.809 212.732C141.946 210.037 143.116 207.442 144.285 204.847ZM174.662 126.854C174.293 124.476 176.506 118.716 177.579 115.82C177.888 117.662 175.829 124.426 174.662 126.854ZM179.455 110.224C179.269 111.726 179.313 113.432 178.626 114.929C178.504 114.025 179.042 111.189 179.455 110.224ZM175.588 130.108C175.24 133.715 174.654 137.62 172.936 141.278C173.087 140.009 173.237 138.741 173.387 137.472C173.772 133.631 174.618 130.197 176.139 126.269C175.922 127.503 175.738 128.839 175.588 130.108ZM177.707 121.271C177.302 124.176 176.896 127.08 176.491 129.984C176.603 129.116 176.714 128.248 176.826 127.38C177.085 125.41 177.18 123.271 177.707 121.271ZM172.767 136.395C171.927 139.327 172.752 142.614 171.546 145.442C171.324 144.57 172.253 137.392 172.767 136.395C172.701 136.361 172.701 136.361 172.767 136.395ZM174.686 137.721C174.639 138.79 174.525 139.825 174.445 140.794C174.282 143.066 174.052 145.303 173.857 147.474C173.218 155.391 173.085 162.98 173.05 170.703C173.079 173.578 173.14 176.555 173.169 179.431C172.308 176.378 172.183 173.2 172.026 169.922C171.672 163.766 172.021 157.551 172.24 151.1C172.327 147.022 172.386 142.509 174.686 137.721ZM182.268 152.819C182.509 149.746 182.717 146.572 183.027 143.366C183.68 136.887 184.634 130.311 185.356 123.699C186.046 119.427 186.703 115.221 187.393 110.95C187.94 107.445 188.553 103.975 189.1 100.47C189.465 98.134 189.395 95.8261 190.832 93.2011C190.06 98.6088 189.253 104.083 188.481 109.491C186.673 120.002 184.801 130.313 183.73 140.699C183.191 146.143 182.619 151.486 182.08 156.93C182.098 155.593 182.216 154.223 182.268 152.819ZM173.237 131.084C173.084 130.079 173.442 128.244 173.789 127.245C173.878 128.048 173.582 130.252 173.237 131.084ZM117.741 257.975C117.765 256.136 121.406 251.029 122.568 248.936C122.467 251.576 119.144 255.417 117.741 257.975ZM119.565 256.391C118.644 257.852 117.724 259.312 116.803 260.773C116.814 259.937 119.906 255.893 120.625 254.497C120.584 255.065 119.906 255.893 119.565 256.391ZM161.506 172.577C160.192 175.94 158.879 179.302 157.566 182.664C156.913 184.094 156.26 185.524 155.607 186.954C154.814 188.818 153.987 190.748 153.261 192.645C152.574 194.142 151.918 195.739 151.231 197.236C149.748 200.764 148.2 204.257 146.752 207.717C146.099 209.148 145.413 210.477 144.76 211.908C142.391 216.829 140.123 221.718 137.754 226.64C136.452 229.166 135.216 231.727 133.914 234.253C132.167 237.643 130.385 241.1 128.571 244.457C126.84 249.118 122.759 254.756 119.62 259.869C119.274 258.26 122.961 252.083 124.291 249.992C125.995 247.336 128.049 243.515 128.983 241.051C130.045 238.99 131.142 236.863 132.138 234.768C133.646 231.842 135.087 228.883 136.595 225.958C137.28 224.628 137.933 223.198 138.618 221.868C141.094 216.413 143.671 210.926 146.147 205.47C148.801 199.181 151.521 192.926 154.175 186.637C154.691 185.473 155.207 184.309 155.623 183.176C157.662 177.917 159.701 172.657 161.741 167.398C163.369 162.936 164.997 158.474 166.591 154.079C167.771 150.648 168.951 147.218 170.132 143.787C170.089 144.522 170.012 145.324 169.968 146.059C169.805 148.331 169.747 150.236 169.08 152.669C167.229 158.867 163.663 165.948 161.506 172.577ZM171.132 179.474C170.756 177.598 170.65 175.524 170.642 173.584C170.561 172.112 170.448 170.539 170.367 169.067C170.388 164.955 170.475 160.877 170.697 156.7C170.789 154.728 170.948 152.791 171.041 150.819C171.125 149.516 170.976 148.177 171.629 146.747C171.577 148.15 171.525 149.554 171.441 150.857C171.34 153.497 171.106 156.069 171.105 158.677C171.086 162.622 170.969 166.433 171.186 170.247C171.361 172.188 171.202 174.126 171.578 176.002C171.892 177.51 172.206 179.019 172.488 180.426C172.745 181.231 173.036 181.97 173.292 182.776C173.348 183.646 173.435 184.616 173.49 185.486C173.678 186.425 173.8 187.329 173.988 188.267C171.952 185.703 171.694 182.457 171.132 179.474ZM179.509 197.591C178.42 196.609 177.791 196.201 177.406 194.993C177.838 195.132 178.236 195.337 178.668 195.475C179.002 195.479 179.304 195.382 179.638 195.386C179.869 195.589 180.034 195.758 180.265 195.962C181.059 196.539 181.827 196.514 182.428 196.488C181.615 197.415 180.545 197.536 179.509 197.591ZM184.306 183.235C184.381 182.601 185.085 182.375 185.489 182.079C185.25 182.544 184.909 183.042 184.502 183.505C184.47 183.404 184.438 183.304 184.306 183.235ZM183.588 184.464C183.556 184.364 183.524 184.263 183.492 184.162C183.561 184.029 183.595 183.963 183.73 183.864C183.762 183.965 183.828 183.999 183.86 184.1C183.858 184.267 183.757 184.299 183.588 184.464ZM180.627 193.792C180.559 193.925 180.426 193.857 180.36 193.823C180.394 193.756 180.495 193.724 180.627 193.792ZM186.557 182.124C186.489 182.257 186.386 182.457 186.384 182.624C186.285 182.489 186.32 182.422 186.557 182.124ZM180.255 194.189C180.12 194.288 180.019 194.321 179.884 194.419C179.754 194.184 179.623 193.948 179.493 193.713C179.724 193.916 179.989 194.053 180.255 194.189ZM185.26 184.316C185.193 184.282 185.061 184.214 185.029 184.113C185.266 183.815 185.504 183.516 185.776 183.152C185.804 183.587 185.532 183.951 185.26 184.316ZM186.175 180.749C186.687 179.919 187.263 179.29 187.838 178.661C187.727 179.529 186.616 180.219 186.175 180.749ZM184.286 184.74C184.418 184.808 184.551 184.876 184.75 184.979C184.579 185.311 184.375 185.543 184.204 185.876C184.039 185.707 183.941 185.572 183.776 185.403C183.879 185.203 184.082 184.971 184.286 184.74ZM180.612 194.963C180.882 194.765 181.117 194.634 181.387 194.436C181.652 194.573 181.917 194.71 182.217 194.78C181.746 195.042 181.346 195.004 180.811 195.065C180.744 195.031 180.678 194.997 180.612 194.963ZM181.204 195.605C181.138 195.57 181.072 195.536 180.939 195.468C181.977 195.246 182.85 194.854 183.854 194.699C182.942 195.491 182.341 195.517 181.204 195.605ZM200.762 163.361C203.197 153.425 205.625 143.991 206.884 134.543C207.481 129.802 208.043 125.127 208.64 120.386C208.87 118.149 209.033 115.877 209.263 113.639C209.609 115.248 209.041 117.816 208.918 119.52C208.598 123.562 208.143 127.703 207.688 131.844C206.653 141.996 204.282 152.134 201.67 162.904C200.999 165.671 199.964 168.167 199.092 170.999C197.172 177.33 193.424 185.579 189.121 190.345C189.598 189.581 190.11 188.751 190.588 187.988C191.709 186.462 193.588 183.307 194.247 181.376C194.969 179.812 195.59 178.282 196.312 176.718C197.808 172.188 199.701 167.863 200.762 163.361ZM186.271 193.756C186.205 193.722 186.138 193.688 186.072 193.654C186.881 193.061 187.56 192.233 188.367 191.808C188.532 191.977 188.797 192.113 188.962 192.282C188.278 193.445 187.442 193.603 186.271 193.756ZM189.533 191.988C189.334 191.885 189.135 191.783 188.97 191.614C190.388 190.493 191.811 188.871 192.805 186.943C192.657 188.045 190.146 191.126 189.533 191.988ZM207.941 61.7992C208.27 62.1373 208.463 62.7414 208.557 63.2105C208.063 62.7034 208.001 62.3349 207.941 61.7992ZM207.824 60.5608C209.082 61.3776 209.426 63.1536 209.475 64.525C209.408 64.4908 207.824 60.5608 207.824 60.5608ZM211.032 90.8229C211.03 85.9413 211.128 81.0275 211.125 76.1458C210.987 73.971 210.814 71.8626 210.742 69.7219C210.499 67.9136 209.99 65.9686 209.982 64.0292C211.984 66.6599 212.276 69.8396 212.603 72.9529C213.258 79.0121 213.238 85.5653 213.022 91.8487C212.974 95.526 213.026 99.1711 212.978 102.848C212.465 111.335 212.39 119.626 211.242 128.206C210.688 132.212 210.135 136.218 209.647 140.258C209.107 143.261 208.532 146.331 207.926 149.3C207.536 151.034 207.145 152.768 206.755 154.502C205.632 158.635 204.61 162.736 203.487 166.87C201.974 172.737 198.727 180.992 196.337 184.977C194.63 187.8 193.29 190.727 190.601 192.034C190.569 191.933 191.762 190.108 192.068 189.676C193.291 188.119 195.616 183.932 196.349 181.533C197.454 178.737 198.493 175.907 199.599 173.111C200.119 171.613 200.539 170.146 201.06 168.647C202.129 163.477 204.21 157.65 205.217 152.111C209.021 132.026 211.541 110.522 211.032 90.8229ZM193.796 162.379C195.727 155.213 197.854 148.316 199.015 141.341C199.774 136.936 200.467 132.497 201.226 128.092C201.08 129.027 200.966 130.062 200.82 130.996C200.49 133.266 200.159 135.536 199.829 137.806C198.61 146.686 196.189 155.619 193.628 164.985C192.507 168.951 190.384 175.514 187.205 178.587C188.062 176.925 188.852 175.229 189.709 173.567C190.191 172.469 190.672 171.371 191.054 170.306C191.924 167.641 192.86 165.01 193.796 162.379ZM185.334 178.633C185.255 179.602 185.242 180.605 184.101 181.026C184.478 180.295 184.923 179.431 185.334 178.633ZM183.991 181.727C183.957 181.794 183.923 181.86 183.854 181.993C183.756 181.858 183.722 181.925 183.724 181.758C183.825 181.725 183.891 181.759 183.991 181.727ZM178.166 193.029C178.427 193.5 178.688 193.971 178.915 194.509C178.679 194.64 178.446 194.604 178.279 194.602C176.621 193.747 175.977 191.901 176.029 190.497C176.388 191.103 176.782 191.642 177.141 192.248C177.539 192.453 177.903 192.725 178.166 193.029ZM194.762 86.3915C194.897 86.2927 194.796 86.325 194.963 86.3269C195.542 87.9719 194.743 90.3367 194.685 92.2418C194.411 97.8224 192.873 103.088 192.336 108.364C191.903 110.834 191.469 113.303 191.071 115.706C190.669 118.276 190.234 120.912 189.833 123.482C189.468 125.819 189.17 128.189 188.84 130.459C188.33 136.171 187.16 141.373 186.989 146.754C186.646 150.027 186.268 153.366 185.924 156.639C185.675 160.381 185.491 164.157 185.242 167.899C185.207 170.574 185.238 173.282 185.237 175.89C184.552 177.22 183.901 178.483 183.215 179.812C182.559 178.969 182.827 176.331 182.808 175.227C182.531 170.877 182.758 166.366 183.05 161.889C183.692 151.197 185.17 140.347 186.383 129.361C187.513 122.118 188.61 114.942 189.806 107.734C190.579 102.326 191.685 96.9221 192.222 91.6454C192.274 90.2417 193.18 87.3431 194.762 86.3915ZM190.265 93.1612C190.141 92.4242 190.652 89.1533 191.093 88.6234C191.034 90.5285 191.09 91.3985 190.265 93.1612ZM191.53 85.8198C191.656 86.3896 191.682 86.9917 191.742 87.5274C191.508 87.4913 191.241 87.5217 191.008 87.4856C190.881 86.9158 191.089 86.3497 191.53 85.8198ZM190.052 83.964C189.949 84.1634 190.018 84.0305 189.849 84.1958C189.883 84.1293 189.917 84.0628 189.885 83.9621C189.986 83.9298 190.052 83.964 190.052 83.964ZM190.685 78.9893C190.98 79.3939 190.837 80.1613 190.83 80.6627C190.732 80.5279 190.633 80.393 190.569 80.1917C190.372 79.922 190.105 79.9524 189.872 79.9163C190.176 79.6522 190.413 79.354 190.685 78.9893ZM190.198 83.0295C190.063 83.1283 189.995 83.2612 189.86 83.36C189.798 82.9915 189.702 82.6895 189.64 82.321C189.409 82.1177 189.242 82.1158 188.942 82.0456C189.248 81.6144 189.554 81.1832 189.927 80.7862C190.151 81.4909 190.175 82.2602 190.198 83.0295ZM163.018 138.858C160.639 147.056 157.032 154.705 154.487 162.902C152.743 168.566 149.867 173.983 148.02 179.847C146.801 183.678 144.649 187.365 143.327 191.395C141.365 195.853 139.369 200.378 137.473 204.87C137.683 204.137 137.893 203.404 138.103 202.671C138.418 201.571 138.767 200.405 139.082 199.305C140.08 197.042 141.078 194.78 142.076 192.518C143.075 190.256 143.972 188.026 144.97 185.763C147.354 179.672 149.738 173.58 152.157 167.422C153.159 164.826 154.096 162.195 155.098 159.598C157.875 151.606 160.651 143.613 163.494 135.654C164.43 133.023 165.3 130.358 166.27 127.661C170.17 115.535 174.169 103.376 178.103 91.1839C177.848 92.8193 177.627 94.3882 177.305 95.9895C172.408 110.378 167.679 124.601 163.018 138.858ZM185.058 80.2962C185.084 80.8983 185.244 81.4017 184.803 81.9316C184.737 81.8974 184.604 81.829 184.503 81.8613C184.441 81.4928 184.818 80.7615 185.058 80.2962ZM186.744 81.5859C186.612 81.5175 186.545 81.4833 186.447 81.3485C186.481 81.282 186.582 81.2497 186.616 81.1832C186.682 81.2174 186.749 81.2516 186.847 81.3865C186.813 81.4529 186.778 81.5194 186.744 81.5859ZM187.484 76.0775C187.741 76.8828 187.333 79.9543 187.02 80.8869C186.49 80.6134 186.186 80.8774 185.948 81.1756C186.058 80.4747 185.728 80.1366 185.673 79.2667C185.48 78.6626 187.213 76.4422 187.484 76.0775ZM187.367 74.839C187.5 74.9074 187.532 75.0081 187.598 75.0423C186.922 75.7033 186.314 76.2313 185.731 77.3615C185.776 76.4593 186.926 75.369 187.367 74.839ZM182.852 80.5051C182.935 81.81 181.838 83.9374 181.084 85.4C180.939 83.7266 181.697 81.9297 182.852 80.5051ZM179.193 81.9012C179.742 80.8375 180.288 79.941 180.864 79.3122C181.285 80.2867 180.936 81.4529 180.184 82.7484C179.955 82.378 179.493 81.9715 179.193 81.9012ZM149.779 167.964C151.546 163.069 153.279 158.24 155.047 153.345C156.503 149.216 157.995 145.02 159.451 140.891C160.39 138.093 161.36 135.396 162.298 132.598C164.632 125.302 166.965 118.006 169.364 110.744C171.385 104.381 173.405 98.0181 175.526 91.6226C175.948 89.9891 177.921 84.6953 179.002 83.738C179.026 84.5073 178.914 85.3753 178.837 86.1769C178.492 87.0088 178.147 87.8408 177.903 88.6405C177.104 91.0053 176.305 93.3701 175.572 95.7691C172.649 104.697 169.828 113.592 166.905 122.519C164.418 131.418 160.56 140.368 157.837 149.398C156.796 152.396 155.654 155.425 154.613 158.423C153.402 161.585 152.158 164.814 151.014 168.011C149.527 171.873 148.041 175.734 146.52 179.662C145.579 182.627 143.973 185.418 142.964 188.516C142.171 190.379 141.379 192.243 140.586 194.106C140.762 193.439 140.938 192.773 141.114 192.106C141.431 190.839 141.748 189.572 142.031 188.371C142.513 187.274 142.963 186.075 143.445 184.977C145.456 179.283 147.635 173.59 149.779 167.964ZM162.119 52.3172C163.864 54.1425 162.658 59.5788 162.49 62.1848C162.069 71.3079 160.348 80.3494 159.392 89.5332C158.244 98.1131 157.096 106.693 156.014 115.307C155.431 119.045 154.88 122.884 154.296 126.622C153.501 131.26 152.739 135.832 152.01 140.505C151.009 145.543 150.008 150.58 149.073 155.651C148.198 161.259 146.494 166.355 145.386 171.926C144.501 175.761 143.615 179.596 142.63 183.463C141.82 186.664 139.676 189.682 138.731 192.981C137.939 194.845 137.146 196.708 136.354 198.572C137.83 192.938 139.272 187.37 140.683 181.702C141.568 177.867 142.519 174.067 143.405 170.232C143.973 167.664 144.541 165.096 145.143 162.461C146.201 155.686 148.161 148.787 149.292 141.544C151.741 125.389 154.865 108.741 156.647 92.5781C157.31 87.8712 157.907 83.1302 158.57 78.4233C159.25 72.3792 159.83 66.3675 160.511 60.3234C160.603 58.3517 160.696 56.3801 160.789 54.4085C160.697 53.7722 160.706 53.1035 160.614 52.4672C161.051 52.2716 161.519 52.1766 162.119 52.3172ZM159.839 52.9934C159.867 53.4284 159.894 53.8633 159.888 54.3648C159.659 53.9944 159.565 53.5252 159.839 52.9934C159.773 52.9592 159.773 52.9592 159.839 52.9934ZM148.299 84.9935C146.52 98.3809 144.442 111.698 142.125 125.313C139.413 141.164 135.366 156.833 131.815 173.009C129.72 182.447 126.563 191.506 124.334 201.043C121.648 212.28 117.728 223.47 114.674 234.769C113.797 237.936 112.653 241.133 111.775 244.466C110.896 247.8 110.086 251 108.009 254.053C107.791 252.847 108.648 251.185 108.965 249.918C109.942 246.719 110.919 243.52 111.896 240.322C115.014 229.223 118.198 218.159 121.282 207.127C123.541 197.857 126.499 188.696 128.658 179.459C129.429 176.659 130.134 173.825 130.906 171.026C132.391 164.723 133.876 158.421 135.261 152.151C136.648 145.713 137.934 139.308 139.321 132.871C140.797 124.797 142.238 116.789 143.546 108.712C145.255 98.0656 146.898 87.3849 148.006 76.7651C148.496 72.5578 148.985 68.3505 149.509 64.0767C150.018 63.4138 150.462 62.7167 150.971 62.0538C150.136 69.701 149.235 77.314 148.299 84.9935ZM158.53 50.9724C158.166 50.7007 158.068 50.5659 158.107 50.1651C158.438 50.336 158.569 50.5716 158.53 50.9724ZM158.266 45.6197C159.36 46.2674 159.169 48.1042 159.156 49.1071C158.638 47.8306 158.885 46.8638 157.185 46.577C157.155 46.3092 157.158 46.142 157.128 45.8742C157.498 45.6444 157.866 45.5817 158.266 45.6197ZM155.832 47.899C155.798 47.9655 155.697 47.9978 155.565 47.9294C155.633 47.7965 155.599 47.8629 155.734 47.7642C155.7 47.8307 155.766 47.8648 155.832 47.899ZM156.22 46.332C156.184 46.5656 156.182 46.7328 156.113 46.8657C155.711 46.9949 155.34 47.2247 154.938 47.3539C155.244 46.9227 155.649 46.6264 156.088 46.2636C156.154 46.2978 156.22 46.332 156.22 46.332ZM156.199 45.3956C155.593 45.7565 154.887 46.1496 154.345 46.7119C154.046 46.6416 153.984 46.2731 153.753 46.0699C153.455 45.8324 151.187 45.6729 150.919 45.7033C150.83 44.8998 154.695 42.9377 155.397 42.8788C156.326 43.3574 156.377 44.5617 156.199 45.3956ZM155.639 42.2462C153.908 41.8588 151.305 44.3034 149.986 45.5589C149.92 45.5247 149.853 45.4905 149.787 45.4563C151.106 44.2008 153.883 41.2566 155.639 42.2462ZM148.753 47.9522C148.583 48.1175 148.414 48.2827 148.145 48.4803C148.282 48.2143 148.517 48.0833 148.753 47.9522ZM149.213 45.9179C149.143 46.218 148.974 46.3833 148.738 46.5143C148.907 46.3491 149.111 46.1173 149.213 45.9179ZM148.097 49.5497C148.326 49.9201 148.39 50.1214 148.454 50.3227C148.454 50.3227 145.376 53.3638 145.037 53.6943C142.736 56.042 140.796 58.8285 138.623 61.5789C137.67 62.9389 136.683 64.3654 135.663 65.6912C135.706 64.9562 138.291 61.408 138.801 60.7451C140.839 58.0934 142.443 55.4703 144.509 53.2536C145.727 52.0304 146.879 50.7729 148.097 49.5497ZM141.86 51.5517C143.585 49.8327 146.065 46.6511 148.141 46.2066C145.927 49.525 142.408 50.488 139.961 53.7703C140.136 53.1036 141.352 52.0474 141.86 51.5517ZM136.382 61.8544C134.504 65.0093 132.594 68.0637 130.716 71.2187C129.587 73.2454 128.458 75.2721 127.33 77.2988C126.439 79.0273 125.447 80.7881 124.556 82.5166C122.603 86.3061 120.616 90.162 118.729 93.9856C118.381 92.5439 120.441 88.2207 121.803 86.2301C123.957 82.3761 126.112 78.5221 128.332 74.7023C129.731 72.478 131.063 70.2196 132.461 67.9953C133.69 65.9363 135.086 63.8792 136.382 61.8544ZM123.215 80.395C124.138 78.7671 125.128 77.1735 126.051 75.5456C127.211 73.6196 128.438 71.7277 129.599 69.8017C130.894 67.7769 132.224 65.6856 133.586 63.6949C134.402 62.6008 135.218 61.5067 136.033 60.4127C134.397 62.9351 132.796 65.3911 131.16 67.9136C129.862 70.1056 128.532 72.1969 127.235 74.3889C126.277 76.0832 125.354 77.711 124.397 79.4053C122.72 82.4958 121.009 85.6526 119.266 88.7089C119.134 86.0325 122.179 83.058 123.215 80.395ZM118.701 88.5018C118.364 91.2731 116.413 94.8954 114.805 97.8529C114.572 95.2088 117.23 91.1934 118.701 88.5018ZM100.012 123.296C99.6535 125.131 99.3618 127 98.2332 129.027C99.5085 123.458 100.818 117.822 102.027 112.218C103.14 106.313 104.452 100.51 105.263 94.7017C105.812 91.03 106.295 87.3242 106.81 83.719C106.696 84.7542 106.548 85.8559 106.434 86.8911C106.125 90.0974 105.415 93.2657 105.072 96.5384C104.312 103.551 102.55 110.553 101.186 117.759C100.862 119.528 100.404 121.395 100.012 123.296ZM121.929 43.6348C122.03 43.6025 122.13 43.5702 122.297 43.5721C122.78 44.915 122.362 46.2142 122.478 47.6198C122.735 50.866 121.957 54.1673 121.811 57.7097C121.495 61.4175 121.179 65.1252 120.929 68.8672C120.708 70.4361 120.588 71.9728 120.367 73.5417C120.441 75.5152 119.674 77.9807 119.716 79.8536C119.527 81.5232 119.373 83.1264 119.184 84.796C118.053 86.9899 116.856 89.1496 115.759 91.2769C116.174 87.7041 116.588 84.1312 117.069 80.5925C117.876 72.5103 118.617 64.3939 119.391 56.3782C119.601 53.0371 119.844 49.7966 120.055 46.4555C120.238 45.2873 121.387 44.197 121.929 43.6348ZM104.612 75.6026C104.456 74.765 104.821 72.4286 105.2 71.5302C105.393 72.1342 105.024 74.8049 104.612 75.6026ZM118.997 43.1333C118.988 43.8019 119.247 44.4401 119.103 45.2075C118.971 45.1391 118.872 45.0043 118.673 44.9017C118.714 44.3338 118.789 43.6993 118.83 43.1314C118.931 43.0991 118.931 43.0991 118.997 43.1333ZM108.255 62.6711C108.173 63.807 107.991 64.9752 107.909 66.111C107.284 67.9763 106.592 69.8074 105.966 71.6727C105.556 69.8625 107.257 64.9334 108.255 62.6711ZM117.59 40.9774C117.553 41.2111 117.551 41.3782 117.581 41.646C117.448 41.5776 117.315 41.5093 117.217 41.3744C117.251 41.3079 117.32 41.175 117.288 41.0743C117.423 40.9755 117.523 40.9432 117.59 40.9774ZM117.162 40.5045C117.033 40.1018 116.937 39.7998 116.642 39.3952C116.31 39.2242 116.143 39.2223 115.908 39.3534C116.015 38.8197 116.623 38.2916 117.062 37.9288C117.655 38.5708 117.607 39.6402 117.53 40.4418C117.463 40.4076 117.329 40.5064 117.162 40.5045ZM117.887 36.1661C118.28 36.7056 118.365 37.8433 118.19 38.51C118.061 38.1073 117.999 37.7388 117.67 37.4007C117.272 37.1956 117.137 37.2944 116.87 37.3248C117.244 36.7606 117.548 36.4966 117.887 36.1661ZM89.0811 93.6816C88.2179 95.8451 87.3204 98.0751 86.5235 100.273C85.3176 103.101 84.178 105.964 82.9721 108.792C80.6675 113.915 78.4292 119.072 76.1246 124.195C74.4069 127.853 72.7898 131.479 71.0721 135.137C70.4553 136.334 69.8385 137.531 69.2881 138.761C67.1293 142.95 65.0369 147.172 62.9124 151.294C61.5097 153.853 60.1733 156.445 58.7363 159.07C56.7876 162.526 54.8388 165.981 52.8901 169.436C53.0645 166.328 57.1711 161.293 58.5505 157.965C60.686 153.007 65.1805 146.405 67.1535 141.111C67.8388 139.781 68.4578 138.418 69.1774 137.022C70.0705 135.126 71.0299 133.264 71.9231 131.369C73.7457 127.344 75.6027 123.252 77.4254 119.227C78.7341 116.2 80.0771 113.105 81.3858 110.078C82.2126 108.148 83.0736 106.152 83.834 104.188C86.2867 97.963 88.7051 91.805 91.1578 85.5805C93.6535 78.6209 96.2156 71.6954 98.677 64.8023C99.9967 60.9388 101.316 57.0753 102.636 53.2118C103.476 50.2791 104.588 46.9816 106.13 43.99C106.048 45.1259 105.966 46.2617 105.853 47.2969C104.887 49.6598 103.987 52.057 103.055 54.3534C100.902 60.6482 98.7833 66.8765 96.5639 73.1371C94.5369 80.0018 91.3093 86.7524 89.0811 93.6816ZM112.063 37.2032C112.566 37.0418 112.58 38.4796 112.308 38.8443C112.208 38.8766 111.471 39.002 111.302 39.1672C111.14 38.831 111.624 37.566 112.063 37.2032ZM113.548 38.5575C113.648 38.5252 113.682 38.4587 113.783 38.4265C113.849 38.4606 113.916 38.4948 113.982 38.529C113.813 38.6943 113.68 38.6259 113.548 38.5575ZM114.921 33.1232C115.178 33.9285 115.033 37.3039 114.654 38.2023C114.288 38.0979 114.023 37.9611 113.824 37.8585C113.689 37.9573 113.488 38.0219 113.353 38.1206C112.989 37.849 113.471 36.7511 112.508 36.339C112.757 35.205 114.078 33.7823 114.754 33.1213C114.855 33.089 114.855 33.089 114.921 33.1232ZM114.468 32.0481C114.701 32.0842 114.733 32.1848 114.8 32.219C113.785 33.2105 112.772 34.0349 111.847 35.8299C112.064 34.5953 113.926 32.6103 114.468 32.0481ZM110.087 37.6154C109.809 38.4815 109.397 39.2793 108.986 40.0771C108.732 39.1046 109.31 38.3087 110.087 37.6154ZM108.218 40.1018C108.072 41.0363 108.262 41.8075 107.682 42.7705C107.425 41.9651 107.571 41.0306 108.085 40.0334C108.152 40.0676 108.152 40.0676 108.218 40.1018ZM105.995 39.04C106.04 38.1377 107.391 36.9829 107.898 36.4871C108.994 36.9677 107.703 38.6582 107.054 39.7542C106.624 39.4484 106.459 39.2793 105.995 39.04ZM77.9091 112.914C79.3914 109.386 80.8736 105.859 82.2895 102.298C83.2577 99.7675 84.2923 97.2716 85.2948 94.6751C87.9452 86.1123 92.0272 77.8668 94.6091 69.437C95.406 67.2393 96.2372 64.9752 96.9677 62.7433C98.4377 57.611 100.342 52.4501 102.413 47.2912C103.24 45.3614 104.725 41.6669 106.174 40.6469C106.499 41.3193 105.685 42.2463 105.338 43.2454C104.58 45.0423 103.922 46.8069 103.164 48.6038C100.803 55.4646 98.4082 62.3919 96.0474 69.2527C94.0379 74.7802 92.0628 80.2411 90.0534 85.7685C89.4322 87.2995 88.811 88.8304 88.2219 90.4621C86.3219 95.2886 84.4561 100.049 82.5561 104.875C81.9714 106.172 81.3524 107.536 80.834 108.868C79.1462 112.794 77.4263 116.62 75.7385 120.546C74.5005 123.273 73.2625 126.001 72.0246 128.729C70.5832 131.688 69.2082 134.681 67.7668 137.641C66.8416 139.436 65.9828 141.265 65.0576 143.06C64.1324 144.855 63.2072 146.65 62.3484 148.479C60.2581 152.534 58.1358 156.489 56.0456 160.544C56.1317 159.074 57.1553 157.414 57.7102 155.849C58.7724 153.788 59.8347 151.727 60.8969 149.666C62.4068 146.574 63.9167 143.482 65.4266 140.389C66.3883 138.361 67.4162 136.366 68.3436 134.404C70.321 128.776 74.2418 122.635 76.155 116.806C76.7076 115.408 77.2581 114.177 77.9091 112.914ZM48.5133 126.455C48.3916 125.551 49.3124 124.09 49.5588 123.123C50.5745 119.524 52.489 116.135 54.4356 112.847C53.7028 115.246 52.97 117.645 52.2715 119.978C50.9738 122.17 49.7104 124.295 48.5133 126.455ZM59.1942 103.941C58.8471 104.94 58.5664 105.973 58.2536 106.906C57.3772 110.072 56.3294 113.571 54.7 115.592C54.9443 114.792 55.2228 113.926 55.4671 113.126C56.3435 109.96 57.5859 106.898 59.1942 103.941ZM16.4584 222.852C16.4927 222.786 16.4606 222.685 16.5292 222.552C16.6618 222.621 16.5933 222.754 16.4584 222.852ZM17.2487 221.156C18.0501 218.624 18.7508 216.124 19.5521 213.592C21.6089 206.996 23.7001 200.332 25.8232 193.77C28.3475 184.637 32.173 175.586 34.8665 166.288C35.8369 163.591 36.7753 160.793 37.7457 158.096C40.9764 148.57 44.2414 138.978 47.4058 129.418C48.6349 127.359 49.7978 125.266 50.9927 123.273C50.1549 126.039 49.2508 128.77 48.3467 131.502C45.9859 138.363 43.7256 145.191 41.3647 152.052C40.4264 154.85 39.4537 157.714 38.5154 160.512C35.8518 170.078 31.5189 179.624 28.9581 188.991C28.0176 191.956 27.0107 194.887 26.0701 197.852C24.851 201.683 23.6319 205.514 22.4128 209.345C21.3563 213.513 20.1007 217.578 17.2487 221.156ZM22.1224 213.655C23.2022 210.257 24.3484 206.893 25.394 203.561C27.5325 195.829 30.602 188.408 32.8755 180.576C37.4258 167.187 41.9762 153.798 46.5266 140.408C47.9513 136.178 49.3417 132.015 50.7664 127.785C51.9236 123.585 53.0785 119.552 55.6054 115.301C54.1399 120.099 52.5737 124.93 51.1082 129.728C49.2657 135.257 47.4232 140.786 45.5807 146.316C41.1353 159.338 36.69 172.361 32.2446 185.384C30.1578 191.713 28.1717 198.009 26.085 204.338C25.2815 207.037 24.3233 211.34 22.1224 213.655ZM19.787 221.118C19.7703 219.847 21.0891 218.592 21.7722 217.429C21.7226 218.666 20.4679 220.123 19.787 221.118ZM98.4995 27.5198C99.1197 28.5968 98.6677 29.9625 98.419 31.0965C97.8145 33.8982 96.5853 35.9572 95.7753 39.1577C94.8944 42.6584 92.8064 46.5466 91.9234 50.2145C91.3474 50.8432 90.2676 54.2413 89.9869 55.2746C89.5801 55.7381 88.2604 59.6016 88.0482 60.5019C87.3563 62.333 86.6301 64.2306 85.9382 66.0617C84.792 69.4256 83.6116 72.856 82.4655 76.22C81.9581 76.7157 81.2165 79.7833 81.0728 80.5507C80.5997 80.98 79.4426 85.1797 79.3674 85.8141C79.1232 86.6138 78.7783 87.4457 78.534 88.2454C77.872 90.3443 77.2099 92.4432 76.6142 94.5763C75.7809 97.0076 74.9796 99.5396 74.1462 101.971C72.5071 107.268 70.8338 112.633 69.1947 117.93C68.7084 119.362 68.2221 120.795 67.7015 122.293C64.6034 131.887 61.5054 141.482 58.508 151.043C56.1436 155.631 53.7129 160.184 51.3143 164.837C54.1659 156.21 57.0175 147.583 59.8027 138.921C61.7181 132.924 63.6335 126.928 65.6153 120.965C68.9255 110.471 72.2357 99.9765 75.5459 89.482C76.8313 85.685 78.0504 81.8537 79.3359 78.0567C80.9982 73.5284 82.5942 68.9659 84.2223 64.5041C85.3276 61.7081 86.3323 58.9444 87.4376 56.1484C89.5674 49.0843 93.0713 41.6346 94.4771 36.301C94.7921 35.2012 95.2077 34.0691 95.5227 32.9693C95.6 32.1678 95.7437 31.4004 95.821 30.5988C95.8663 29.6966 98.065 27.5483 98.4995 27.5198ZM93.7484 33.3169C92.6962 37.15 90.8415 41.0743 89.5495 45.3728C88.9261 47.0709 88.3027 48.769 87.7456 50.5013C86.9166 52.5983 86.0534 54.7618 85.2908 56.893C83.7677 60.9882 82.2446 65.0834 80.7215 69.1787C77.7197 79.0748 73.7914 88.3252 71.1555 98.3258C70.3199 100.924 69.4843 103.523 68.6145 106.188C65.6171 115.75 62.5533 125.277 59.5559 134.839C58.6882 137.337 57.8869 139.869 56.985 142.433C55.6974 146.397 54.4098 150.361 53.0879 154.392C52.7066 155.458 52.291 156.59 51.9096 157.655C50.2429 162.518 48.6082 167.481 46.9415 172.344C46.0528 173.905 45.2304 175.501 44.3416 177.062C45.7299 173.066 47.0175 169.102 48.4057 165.105C51.7093 155.112 55.0793 145.153 58.3829 135.16C63.6086 118.669 68.7999 102.244 74.0255 85.7533C75.5187 81.3903 76.9777 77.0937 78.4709 72.7307C80.4118 67.3362 82.3869 61.8753 84.3278 56.4808C84.7777 55.2822 85.2938 54.1179 85.778 52.8528C86.7119 50.3893 87.6459 47.9257 88.5478 45.3614C89.8354 41.3972 91.4205 37.6705 93.7484 33.3169ZM42.9438 128.465C43.0708 126.426 44.6958 124.74 45.7602 122.512C47.2635 119.921 48.6662 117.362 50.1695 114.771C50.1067 117.011 46.8967 122.424 45.2651 124.612C44.5134 125.908 43.7618 127.203 42.9438 128.465ZM41.6562 132.429C41.6694 131.426 44.5534 127.948 45.4443 126.219C45.3648 127.188 42.4034 131.468 41.6562 132.429ZM53.5996 110.397C53.5078 109.761 54.0539 108.864 54.2296 108.197C54.9668 105.464 56.9432 102.444 58.5515 99.4864C58.2686 100.687 57.8851 101.92 57.5358 103.086C56.2016 105.511 54.9338 107.971 53.5996 110.397ZM60.7999 96.1016C61.537 93.3683 63.184 90.01 64.4905 87.1494C63.2736 90.8135 62.2281 94.1451 60.2749 97.9345C60.4164 97.3343 60.5921 96.6676 60.7999 96.1016ZM92.6009 34.24C92.445 33.4024 93.7537 30.3747 94.2268 29.9454C94.4724 31.5865 93.4233 32.6445 92.6009 34.24ZM94.7672 26.9423C94.8678 26.91 94.9341 26.9443 95.0347 26.912C95.2614 27.4495 95.0835 28.2834 95.0747 28.952C94.7773 28.7145 94.4434 28.7107 94.1737 28.9083C93.9492 28.2036 94.294 27.3716 94.7672 26.9423ZM34.7877 134.189C34.822 134.123 34.9568 134.024 34.9911 133.958C34.9204 134.258 34.8497 134.558 34.7126 134.824C34.7833 134.524 34.7855 134.357 34.7877 134.189ZM33.8449 137.322C34.0207 136.655 34.2627 136.022 34.4385 135.356C34.5048 135.39 34.6717 135.392 34.7381 135.426C34.6629 136.06 34.2882 136.625 33.8449 137.322ZM93.1009 24.1483C92.6476 23.0732 92.9815 23.077 91.6824 22.8281C91.8239 22.2279 92.5966 21.8689 92.9692 21.4719C93.0698 21.4396 93.1704 21.4073 93.3373 21.4092C93.795 22.15 93.4137 23.2156 93.3021 24.0837C93.2358 24.0495 93.1352 24.0818 93.1009 24.1483ZM93.8965 19.5098C94.4294 19.6161 94.1786 20.9173 94.0736 21.2839C93.8447 20.9135 93.8126 20.8128 93.2477 20.6058C93.0122 20.7368 92.6762 20.9002 92.4407 21.0312C92.5158 20.3968 93.4919 19.8061 93.8965 19.5098ZM33.136 132.833C32.9646 133.166 32.7933 133.498 32.5556 133.796C32.4959 133.261 32.8662 133.031 33.136 132.833ZM5.50214 144.422C5.57286 144.122 5.64359 143.822 5.68225 143.421C5.98405 143.324 5.94978 143.39 6.15319 143.159C6.31792 143.328 6.31573 143.495 6.6474 143.666C6.21073 143.862 5.84041 144.091 5.50214 144.422ZM5.89006 142.855C6.09125 142.79 6.15758 142.824 6.18965 142.925C6.15538 142.992 6.12112 143.058 6.15319 143.159C6.08685 143.125 6.02051 143.09 5.88785 143.022C5.92212 142.955 5.8558 142.921 5.89006 142.855ZM13.2892 141.368C13.1179 141.7 12.9465 142.032 12.8073 142.465C12.5375 142.663 12.4391 142.528 12.6039 142.697C12.3319 143.062 12.1606 143.394 11.8887 143.759C11.3536 143.82 11.1225 143.616 10.6261 143.276C10.7632 143.011 10.9345 142.678 11.0716 142.412C11.3712 142.483 11.7051 142.486 12.0047 142.557C12.2722 142.526 12.983 141.799 13.2892 141.368ZM20.4306 123.929C18.4687 128.387 16.541 132.778 14.579 137.236C14.022 138.969 12.6193 141.527 11.4121 141.915C12.2687 140.253 13.059 138.556 13.9157 136.894C15.9462 132.303 17.9766 127.712 19.9065 123.154C22.9373 116.133 26.0345 109.147 29.0995 102.06C31.13 97.4692 33.1605 92.8782 35.1246 88.253C36.2941 85.6584 37.4635 83.0637 38.5666 80.4349C40.7662 75.6786 43.0001 70.8559 45.1334 66.0655C44.8847 67.1994 44.6361 68.3334 44.4217 69.4009C43.9763 70.2652 43.5651 71.0629 43.1859 71.9614C41.4318 75.8534 39.6434 79.8118 37.8892 83.7038C32.136 97.1463 26.2501 110.52 20.4306 123.929ZM50.2232 64.9866C50.4011 64.1527 50.579 63.3189 50.7569 62.485C51.1514 60.4165 51.2806 58.2112 52.4434 56.118C51.5029 59.0831 51.491 62.5268 50.2232 64.9866ZM69.717 24.8852C68.9776 27.7857 68.1719 30.652 67.4326 33.5525C65.7759 40.1873 63.7234 46.4498 62.5698 52.9231C62.0338 55.5919 61.4978 58.2606 60.9276 60.9958C60.458 63.6988 59.8855 66.6011 58.2087 69.6915C59.1005 65.3551 59.9923 61.0186 60.8842 56.6821C61.8533 51.5441 63.1906 46.3434 64.4294 41.0078C65.602 35.6381 67.0697 30.6729 69.717 24.8852ZM46.0559 72.0943C46.7676 68.7589 47.9502 65.1613 49.9697 61.4061C49.4702 63.8412 48.9364 66.3428 48.4369 68.7779C47.3382 71.0724 46.2395 73.367 45.2414 75.6292C45.458 74.3946 45.8072 73.2283 46.0559 72.0943ZM29.4727 124.466C29.4705 124.633 29.402 124.766 29.3335 124.899C29.402 124.766 29.4042 124.599 29.4727 124.466ZM30.158 123.137C30.0772 121.664 31.1693 119.871 31.6236 118.339C32.9775 114.409 34.3315 110.479 35.7197 106.482C37.5002 100.584 39.8778 94.9942 41.4571 89.161C43.0022 83.3942 44.3096 77.9257 47.7318 71.6119C47.2345 73.8798 46.6366 76.1801 46.073 78.4138C45.1965 81.5802 44.3201 84.7466 43.4437 87.913C41.9803 92.5439 40.517 97.1748 39.0879 101.739C38.5673 103.238 37.9804 104.702 37.4598 106.201C36.1036 110.298 34.6469 114.428 33.2907 118.525C32.1687 120.05 31.1474 121.543 30.158 123.137ZM35.717 114.306C37.8701 108.011 39.9568 101.682 42.1099 95.3874C43.9313 88.9216 46.0844 82.6268 47.6039 76.258C48.0969 74.3243 48.5555 72.4571 49.0484 70.5235C49.3357 68.9887 49.5545 67.5869 50.4454 65.8584C49.5536 70.1949 48.5634 74.3965 47.6052 78.6988C45.942 85.835 43.4805 92.7281 41.4127 100.161C40.7506 102.26 40.0222 104.324 39.3602 106.423C38.696 108.689 37.5797 112.321 35.717 114.306ZM60.6727 67.68C61.1889 66.5156 61.7051 65.3513 62.1892 64.0862C62.6026 63.1213 63.0481 62.2571 63.4615 61.2921C64.254 59.4288 65.0808 57.4989 65.807 55.6014C65.481 57.5369 65.0887 59.4383 64.6963 61.3396C62.9422 65.2316 61.2201 69.2243 59.4659 73.1162C59.6803 72.0488 59.8947 70.9813 60.1091 69.9138C60.3191 69.1806 60.5291 68.4474 60.6727 67.68ZM32.6598 123.332C32.6454 121.894 34.4439 119.708 35.1955 118.413C35.1072 120.05 33.5806 121.872 32.6598 123.332ZM55.4867 81.1623C56.0547 78.5943 56.9246 75.9293 58.3295 73.2036C58.1515 74.0375 57.9073 74.8372 57.7294 75.671C57.1635 78.0719 56.2594 80.8034 54.8888 83.4626C55.133 82.6629 55.2767 81.8955 55.4867 81.1623ZM61.8702 70.5691C62.0781 70.003 63.5581 66.6429 63.7593 66.5783C63.4056 68.0789 63.084 69.6801 62.7304 71.1807C60.8734 75.2721 59.0165 79.3636 57.1595 83.455C57.3695 82.7218 57.4789 82.0209 57.6889 81.2877C57.9011 80.3874 58.1475 79.4205 58.3597 78.5202C59.4971 75.8249 60.6665 73.2302 61.8702 70.5691ZM87.5113 22.6135C87.0105 22.6078 86.743 22.6382 86.3726 22.868C86.1547 21.6619 86.8291 21.168 87.6725 20.5089C87.7389 20.5431 87.8052 20.5773 87.9058 20.545C87.7621 21.3124 88.0552 21.8841 87.5113 22.6135ZM32.2978 130.55C32.4305 130.619 32.4305 130.619 32.4625 130.719C32.394 130.852 32.2912 131.052 32.289 131.219C32.2249 131.017 32.2613 130.784 32.2978 130.55ZM52.2208 93.3626C52.0605 92.8592 52.6087 91.7955 52.7502 91.1953C53.2431 89.2616 54.3783 86.7335 55.5411 84.6403C55.1532 86.2073 54.7996 87.7079 54.3453 89.2407C53.6257 90.6368 52.9061 92.0329 52.2208 93.3626ZM90.5676 16.1952C90.8197 17.3349 89.7719 20.8337 88.9263 21.66C88.86 21.6258 88.7936 21.5916 88.6609 21.5232C88.9992 21.1927 88.7449 20.2202 88.317 19.7472C88.0495 19.7776 87.7841 19.6408 87.3839 19.6028C88.5678 18.4461 89.4864 17.1526 90.5676 16.1952ZM90.3497 14.9891C90.5144 15.1581 90.5465 15.2588 90.5122 15.3253C89.3072 15.5456 86.9991 18.3948 86.211 19.9239C86.1921 18.8203 89.7782 15.2835 90.3497 14.9891ZM84.5785 24.72C84.8184 24.2546 85.0925 23.7228 85.266 23.2232C85.1224 23.9906 84.9853 24.2565 84.5785 24.72ZM80.8089 26.9841C80.1789 29.1837 79.3798 31.5485 78.5807 33.9134C77.0642 37.5071 75.5819 41.0344 74.1318 44.6624C73.0287 47.2912 71.825 49.9524 70.7219 52.5812C68.4836 57.7383 66.3116 62.9295 64.0733 68.0865C64.2513 67.2526 64.3949 66.4852 64.5729 65.6514C65.1862 62.1811 67.5053 58.4961 68.7243 54.6649C70.4144 50.5716 72.1707 46.5125 73.8608 42.4191C74.8268 40.0562 75.8934 37.661 76.8595 35.2981C77.7293 32.6331 79.2392 29.5408 80.8089 26.9841ZM66.005 58.3119C66.1465 57.7117 66.288 57.1114 66.3631 56.477C66.614 55.1759 66.8991 53.8083 67.0836 52.473C67.8418 50.6761 68.6343 48.8127 69.3926 47.0158C70.7167 42.818 73.1452 38.4322 74.9059 34.0387C75.7327 32.1089 76.8679 29.5807 77.9556 28.1219C78.7714 27.0278 79.6535 25.9679 80.5036 24.8074C79.8868 26.004 79.3043 27.1342 78.6875 28.3308C77.6894 30.5931 76.5906 32.8876 75.5925 35.1499C72.4181 42.9377 69.2116 50.6248 66.005 58.3119ZM83.0392 19.8878C83.6916 21.0654 82.679 21.8898 81.8632 22.9839C81.1977 22.8091 81.0009 22.5394 80.1574 23.1985C80.4061 22.0645 82.3627 20.5488 83.0392 19.8878ZM76.127 12.2861C76.148 13.2226 76.1028 14.1248 76.0232 15.0935C74.9645 19.4281 73.9057 23.7627 72.7807 28.063C71.9407 30.9958 71.1007 33.9286 70.2607 36.8613C69.4142 40.2955 68.5676 43.7298 67.7211 47.164C66.6865 49.6599 65.5856 52.1216 64.5167 54.6839C63.7242 56.5473 62.8974 58.4771 62.1713 60.3747C62.3514 59.3737 62.5978 58.4069 62.7437 57.4723C63.346 54.8378 63.882 52.169 64.4843 49.5345C65.3616 43.7602 68.1868 37.1386 69.5052 30.8343C70.1009 28.7013 70.6303 26.534 71.1917 24.4674C71.8758 20.6969 72.9644 16.6302 76.127 12.2861ZM71.9848 14.9473C71.6566 17.05 71.2256 19.3521 70.6299 21.4852C69.8738 23.1149 69.1521 24.6782 68.4624 26.3421C68.302 25.8388 69.0967 23.8082 69.3067 23.075C69.9477 20.0397 70.4107 17.8383 71.9848 14.9473ZM48.6795 60.4887C48.3333 58.8798 50.8027 53.926 51.9335 51.7322C51.6848 52.8661 51.4361 54.0001 51.2218 55.0676C50.3629 56.8968 49.5383 58.6595 48.6795 60.4887ZM72.5572 12.0449C72.6191 12.4134 72.5462 12.8807 72.5075 13.2815C72.2356 13.6461 71.7669 13.7411 71.4286 14.0716C71.4717 13.3365 72.2145 12.7097 72.5572 12.0449ZM54.7156 45.8457C54.2934 47.4793 54.141 48.9153 53.1815 50.7767C53.0664 49.3711 53.8932 47.4413 54.7156 45.8457ZM5.57378 141.514C5.47098 141.713 5.4345 141.947 5.33171 142.146C5.20124 141.911 5.20563 141.576 5.34269 141.311C5.40903 141.345 5.4411 141.445 5.57378 141.514ZM70.7605 9.01527C70.5659 8.57839 70.9406 8.01428 70.2751 7.83953C70.547 7.47483 70.7526 7.07593 71.0245 6.71122C71.0478 7.48051 70.9041 8.24788 70.7605 9.01527ZM71.7485 4.98083C71.7441 5.31513 71.7076 5.54877 71.6369 5.84888C71.5042 5.78051 71.4379 5.74632 71.3052 5.67794C71.4744 5.51268 71.6114 5.24675 71.7485 4.98083ZM68.8135 7.25448C68.745 7.38743 68.7107 7.45392 68.6765 7.52039C68.6444 7.41973 68.745 7.38743 68.8135 7.25448ZM67.9011 2.99779C67.616 4.3654 67.3309 5.73301 66.9452 7.13291C66.7097 7.26398 66.6776 7.1633 66.5085 7.32855C66.085 6.52129 67.1517 4.12606 67.9011 2.99779ZM51.4214 34.808C47.6754 42.8902 43.9637 50.9059 40.2177 58.9881C34.4026 72.0621 28.5554 85.0353 22.7402 98.1093C20.2278 103.798 17.6148 109.519 15.1024 115.208C13.346 119.267 11.624 123.26 9.86761 127.319C8.45391 130.713 7.07447 134.041 5.66078 137.436C4.55289 135.35 7.16719 132.07 8.0713 129.338C8.69028 127.974 9.34353 126.544 9.89619 125.146C11.7918 120.654 13.788 116.129 15.6836 111.637C16.2341 110.406 16.8509 109.21 17.4013 107.979C22.2847 97.2014 27.0674 86.4561 31.9508 75.6786C34.7031 69.5244 37.389 63.336 40.1413 57.1817C40.8288 55.6849 41.5826 54.2224 42.3044 52.6591C44.399 48.2694 46.3931 43.9121 48.4877 39.5225C50.9294 34.1337 53.371 28.7449 55.7121 23.3885C55.5021 24.1217 55.2921 24.8549 55.0822 25.588C54.6964 26.9879 54.3107 28.3878 53.8907 29.8542C52.9678 31.482 52.2117 33.1118 51.4214 34.808ZM68.3642 0.796323C67.9872 1.52762 67.5097 2.2912 67.0322 3.05478C67.0067 2.45265 67.9596 1.09265 68.3642 0.796323ZM63.2704 7.25828C63.056 8.32577 62.8096 9.2926 62.5289 10.3259C61.3937 12.8541 60.1922 15.3481 59.0227 17.9427C59.1985 17.276 59.3742 16.6093 59.5499 15.9426C60.1843 13.4087 61.3647 9.97829 63.2704 7.25828ZM57.2959 17.2209C54.8199 22.6762 52.4103 28.1656 49.9686 33.5544C48.0796 37.5451 46.2569 41.5701 44.3679 45.5608C43.6826 46.8904 43.0978 48.1878 42.4125 49.5174C40.7269 53.2764 39.007 57.1019 37.3214 60.861C35.051 65.9173 32.847 71.0079 30.5767 76.0642C27.4132 83.0162 24.2818 90.0689 21.1183 97.0209C20.1567 99.0495 19.1951 101.078 18.334 103.074C17.5437 104.771 16.7191 106.533 15.9951 108.264C13.6541 113.62 11.3793 119.011 9.03825 124.367C7.95842 127.766 5.7509 130.582 4.97287 133.884C4.72422 135.018 4.54189 136.186 4.79624 137.158C4.95878 137.495 5.15558 137.764 5.31812 138.1C5.41433 138.402 4.89155 140.068 4.95348 140.437C4.45488 140.264 3.72299 140.055 3.39353 139.717C3.29292 139.749 3.19233 139.781 3.09173 139.814C1.90212 138.864 2.05457 137.428 2.87695 135.833C3.16996 136.404 3.4265 137.21 4.08983 137.552C4.15837 137.419 4.19263 137.352 4.26116 137.219C1.95267 135.02 5.2413 131.245 6.21834 128.047C8.66442 122.324 11.1768 116.635 13.6229 110.912C14.4475 109.149 15.2721 107.386 16.0966 105.624C21.0143 94.7796 25.8656 83.9014 30.7832 73.0574C33.1585 67.6344 35.5681 62.145 37.9435 56.722C38.6995 55.0923 39.4556 53.4626 40.2116 51.8328C41.0362 50.0701 41.9614 48.2752 42.786 46.5125C44.9171 41.8892 47.0481 37.2659 49.1129 32.6084C50.4559 29.5142 51.8994 26.3877 53.2424 23.2935C53.8271 21.9962 54.4461 20.6324 55.0308 19.335C56.198 16.9075 57.2647 14.5123 58.4319 12.0848C58.1082 13.8532 57.686 15.4867 57.2959 17.2209ZM61.2528 5.7976C61.0085 6.59726 60.9588 7.83382 60.5863 8.2308C60.4216 8.06175 60.3232 7.92688 60.1242 7.82432C60.5011 7.09303 60.9101 6.46241 61.2528 5.7976Z" fill="#FF6635"/>
</svg>
