<svg width="312" height="368" viewBox="0 0 312 368" fill="none" xmlns="http://www.w3.org/2000/svg">
<path d="M296.538 342.489C297.001 336.174 297.563 329.988 298.025 323.673C298.312 318.727 298.713 313.795 299 308.849C299.74 300.368 300.367 291.872 301.107 283.391C301.4 281.111 301.593 278.702 301.886 276.422C302.334 270.221 302.896 264.036 303.344 257.835C303.566 255.198 303.689 252.432 303.911 249.796C304.763 237.736 305.516 225.549 306.367 213.489C306.651 209.47 307.049 205.465 307.333 201.445C307.881 195.373 308.329 189.172 308.876 183.1C309.142 180.121 309.423 177.028 309.69 174.05C310.307 163.815 310.94 153.466 311.557 143.231C311.399 139.038 312.769 134.694 310.937 131.794C310.454 131.036 308.446 129.504 306.974 130.126C306.246 130.38 305.005 130.105 304.147 130.459C303.922 129.503 303.925 128.576 302.941 128.102C303.102 126.848 303.094 125.108 302.239 124.535C302.011 124.506 301.782 124.476 301.44 124.433C300.896 125.058 300.193 126.011 299.947 127.022C299.719 126.993 299.506 126.85 299.277 126.82C299.339 125.438 300.006 122.047 299.181 121.245C298.952 121.216 298.838 121.201 298.625 121.058C298.051 121.911 298.288 123.68 298.142 124.82C297.928 124.677 297.6 124.519 297.129 124.575C296.699 125.215 296.479 126.925 296.348 127.951C295.321 127.819 294.876 128.573 294.744 129.599C294.088 129.283 293.12 128.695 292.277 128.935C290.363 129.385 289.877 134.074 289.912 136.512C289.391 143.283 288.984 150.068 288.463 156.839C287.667 169.368 286.985 181.913 286.189 194.443C285.826 200.886 285.334 207.429 284.971 213.872C284.672 218.006 284.374 222.139 284.189 226.288C283.8 232.032 283.297 237.762 282.907 243.507C282.31 238.215 281.842 232.824 281.359 227.547C282.671 205.58 283.967 183.728 285.393 161.775C285.826 155.689 286.274 149.488 286.593 143.387C286.877 139.367 286.76 135.76 289.909 132.919C289.81 132.79 289.71 132.662 289.482 132.632C288.367 133.185 287.58 133.895 287.076 135.105C285.61 138.393 285.335 144.153 285.422 147.988C285.302 149.827 285.054 151.765 284.934 153.604C283.678 176.042 282.323 198.35 281.067 220.788C280.47 220.016 280.877 217.75 280.78 216.695C280.607 212.617 280.42 208.652 280.247 204.574C279.978 194.92 279.838 185.168 279.569 175.514C279.285 170.494 279.715 165.335 278.644 161.025C277.76 160.68 277.076 160.592 276.262 160.603C275.001 162.296 274.319 165.801 274.125 168.21C273.827 167.824 273.528 167.438 273.473 166.967C273.259 166.824 273.046 166.68 272.574 166.736C272.173 167.148 271.887 167.575 271.799 168.259C271.708 165.35 271.173 158.675 269.335 157.628C269.297 156.117 269.332 154.035 268.521 153.12C268.179 153.076 267.951 153.047 267.623 152.889C266.707 153.698 266.373 155.394 265.955 156.847C265.577 154.365 266.25 149.12 263.982 148.713C262.51 149.335 263.16 151.505 262.285 152.899C262.012 153.212 261.412 153.366 261.225 153.922C260.965 155.047 260.575 156.272 260.315 157.398C260.043 157.71 259.443 157.865 259.156 158.292C258.181 159.557 257.801 162.522 257.438 164.445C256.856 163.559 256.709 160.18 256.27 159.08C255.928 159.036 255.586 158.992 255.144 158.82C253.37 159.983 252.334 167.151 251.869 169.873C251.816 168.475 251.763 167.078 251.582 165.78C251.427 165.18 250.999 164.894 250.83 164.408C250.607 153.486 250.485 142.692 250.262 131.77C250.131 123.757 249.87 115.843 249.739 107.83C249.619 100.629 249.499 93.4284 249.379 86.2278C248.463 73.4782 248.847 60.5477 247.773 48.1255C247.03 39.4542 247.472 30.5874 246.585 22.1295C246.295 18.9632 246.377 15.6129 245.672 12.9728C244.987 12.8849 244.417 12.8117 243.746 12.6097C242.4 14.0594 241.703 17.6785 241.411 19.9587C240.869 19.6574 240.928 19.2014 240.515 18.8008C240.287 18.7715 240.188 18.6428 239.959 18.6135C239.33 18.9963 239.356 19.695 238.926 20.3351C238.748 18.1103 238.584 15.7715 238.42 13.4326C238.25 12.9473 237.794 12.8887 237.609 12.5173C237.156 11.532 238.075 9.7957 236.447 9.81861C236.582 7.86576 236.646 5.55622 234.964 5.10844C234.39 5.96193 233.939 8.56955 233.067 9.03706C232.801 7.4963 233.047 1.96513 231.993 1.13455C231.765 1.10525 231.537 1.07595 231.323 0.932632C230.264 1.95555 230.7 3.98166 229.74 5.13323C229.596 5.34661 229.125 5.40202 228.853 5.71475C228.592 6.84022 228.203 8.06505 227.943 9.19052C227.77 9.63191 226.927 9.8714 226.626 10.4122C226.119 12.5491 225.499 14.6714 224.993 16.8083C224.852 16.0949 224.425 15.8083 224.384 15.2236C224.457 14.6535 224.416 14.0688 224.504 13.3847C224.393 12.4433 224.238 11.844 224.012 10.8879C223.442 10.8147 223.313 10.914 222.885 10.6274C221.282 12.2758 219.786 20.312 219.332 23.8464C218.466 22.4604 220.585 15.8949 218.215 16.2859C215.701 21.4101 215.879 28.1546 214.105 33.8374C211.902 44.68 209.826 55.4232 207.623 66.2658C207.143 69.1015 206.677 71.8231 206.083 74.6441C203.917 86.9981 201.652 99.2235 199.486 111.578C198.728 116.579 197.97 121.581 197.098 126.569C196.483 131.357 195.883 136.032 195.154 140.805C194.466 146.164 193.907 151.423 193.22 156.782C192.942 158.948 192.678 161 192.514 163.181C192.084 168.341 191.668 173.387 191.238 178.547C190.705 184.504 190.272 190.591 189.739 196.549C189.485 200.341 189.215 204.246 188.961 208.038C188.542 218.53 188.238 229.037 187.819 239.53C187.594 238.574 187.497 237.518 187.272 236.562C186.768 233.253 186.151 229.928 185.648 226.619C183.909 216.661 182.786 206.434 181.562 196.079C180.158 184.425 179.283 172.26 178.15 160.294C177.717 152.822 177.398 145.364 176.965 137.891C177.036 133.728 177.091 129.679 177.162 125.516C176.714 113.638 177.68 101.593 176.96 90.0278C176.94 87.4756 177.048 84.824 177.028 82.2718C176.931 72.177 176.835 62.0821 176.738 51.9873C176.51 47.4383 176.996 42.7491 176.267 38.4835C175.697 38.4103 175.126 38.337 174.57 38.1498C173.61 39.3013 173.932 45.8325 173.797 47.7854C173.598 56.5675 173.056 65.3056 173.601 73.7196C173.694 89.2609 173.773 104.916 173.866 120.458C174.112 128.486 174.472 136.528 174.718 144.556C174.577 148.362 174.437 152.169 174.425 155.876C174.252 160.837 174.094 165.684 174.035 170.66C173.529 163.757 173.251 156.884 172.859 149.996C172.976 144.564 173.094 139.133 173.211 133.701C173.225 129.067 173.354 124.448 173.369 119.814C173.267 107.053 173.15 94.4061 173.162 81.6597C172.661 72.9037 173.431 64.1948 172.887 55.7808C172.615 51.5739 173.229 46.7854 171.784 43.5866C171.555 43.5573 171.441 43.5427 171.198 43.6274C170.033 46.3751 170.8 52.1522 170.519 55.2452C170.376 50.9388 170.218 46.7465 170.074 42.4401C170.007 41.1567 170.443 38.6631 169.217 38.2739C169.091 37.4465 169.065 36.7478 168.939 35.9204C168.611 35.7625 168.497 35.7478 168.14 35.8179C168.316 34.4497 167.979 32.5523 167.739 31.7102C167.397 31.6663 167.168 31.637 166.826 31.593C166.252 32.4465 166.305 33.844 166.273 34.9987C166.159 34.9841 166.045 34.9694 165.816 34.9401C165.374 34.7675 165.36 34.8815 165.301 35.3376C165.152 32.8847 165.175 29.9905 164.511 27.9351C164.283 27.9058 163.94 27.8618 163.712 27.8325C163.282 28.4726 162.934 30.2822 163.159 31.2382C163.144 31.3522 163.13 31.4663 163.1 31.6943C161.418 31.2465 161.438 33.7987 161.233 35.3949C161.119 35.3802 160.891 35.3509 160.762 35.4503C159.621 35.3038 158.687 41.6738 158.567 43.5126C157.888 41.5712 157.683 38.6477 157.347 36.7502C157.004 36.7063 156.662 36.6623 156.319 36.6184C154.801 38.5095 155.573 42.433 155.052 44.6839C154.759 51.4839 154.367 58.1552 154.074 64.9551C153.963 59.494 153.867 53.9189 153.756 48.4578C153.633 46.7037 154.145 42.7132 152.907 41.5113C151.567 41.1075 151.572 43.7737 151.397 45.1419C151.142 48.9336 150.902 52.6112 150.647 56.4029C150.434 60.7793 150.22 65.1557 149.992 69.6462C149.752 73.3239 149.626 77.0162 149.4 80.5799C149.307 83.1174 149.114 85.5263 149.02 88.0639C148.958 93.9664 148.897 99.8689 148.85 105.657C148.935 114.94 149.019 124.222 149.119 133.39C149.37 139.564 149.736 145.753 149.973 152.042C150.494 158.83 150.886 165.718 151.407 172.507C150.672 188.174 149.923 203.954 149.188 219.621C148.81 226.178 148.319 232.721 147.941 239.278C147.777 241.459 147.499 243.625 147.32 245.92C146.94 248.885 146.659 251.978 146.278 254.942C145.588 261.227 144.783 267.498 144.077 273.897C143.059 280.024 142.04 286.152 141.022 292.279C140.355 295.67 139.558 299.161 138.891 302.552C138.154 305.586 137.416 308.62 136.564 311.64C134.902 304.705 133.24 297.77 131.692 290.85C130.328 284.301 128.85 277.737 127.501 271.074C125.716 262.385 123.831 253.567 122.046 244.878C120.153 234.321 118.245 223.877 116.351 213.32C112.456 190.337 110.089 167.203 107.21 143.54C105.706 127.238 104.301 111.065 102.797 94.7628C102.384 89.8425 102.071 85.0508 101.659 80.1304C100.699 72.2425 100.681 64.2439 99.8211 56.4847C99.151 47.2433 98.6067 38.8293 97.963 30.2867C97.4802 25.0097 97.7261 19.4785 96.3272 15.011C95.7565 14.9377 95.1858 14.8645 94.6152 14.7912C93.5001 15.3434 93.0464 18.8778 92.7421 20.3453C92.5431 20.088 92.3587 19.7167 92.1597 19.4593C91.589 19.3861 91.5743 19.5001 91.2027 19.6842C91.2261 16.7899 90.3335 14.7052 89.3268 12.6059C88.7883 11.3778 89.3063 10.0536 88.5103 9.02434C88.1825 8.86637 88.0684 8.85172 87.6967 9.03579C87.0821 9.30458 86.7924 10.6581 86.5612 11.5555C86.4675 9.57336 86.2598 7.57655 85.7652 6.00649C85.5369 5.97719 85.1945 5.93324 84.9809 5.78993C84.179 6.61412 84.3604 7.9122 83.7575 8.99372C83.5995 9.32111 83.1137 9.49053 82.8122 10.0313C82.5956 10.8147 82.5078 11.4988 82.2912 12.2822C81.9049 12.5803 81.6327 12.893 81.2318 13.3051C80.8133 14.758 80.5089 16.2255 80.0904 17.6784C79.8094 16.2516 79.7714 14.7401 79.2183 13.6261C78.8759 13.5822 78.6476 13.5529 78.3052 13.5089C76.9297 15.1866 76.5755 18.8496 76.0253 21.3286C75.8702 20.7292 76.1102 17.0516 74.7522 17.6885C74.123 18.0713 74.0176 19.7961 73.7864 20.6936C73.163 23.7426 72.5542 26.6776 71.8167 29.712C70.8509 32.717 70.9679 36.3247 70.0869 39.5724C69.926 40.8265 69.765 42.0807 69.4899 43.3201C68.9923 47.1966 68.4801 51.187 67.8684 55.0487C67.1806 60.4073 66.4781 65.8799 65.9044 71.2531C65.4332 75.8282 64.8624 80.2747 64.3912 84.8498C64.1395 87.7147 63.7736 90.565 63.5219 93.43C62.8808 102.039 62.2398 110.649 61.5988 119.258C61.186 127.897 60.6591 136.521 60.2464 145.16C59.98 148.139 59.8424 151.019 59.5761 153.998C59.3799 161.853 59.1691 169.823 58.9729 177.678C58.964 184.978 58.8556 192.149 58.8468 199.449C57.8635 194.455 55.4842 188.587 53.7722 183.848C50.8018 175.354 47.9748 166.647 43.2309 159.317C40.8165 155.53 38.2645 150.103 32.5577 149.371C31.1939 147.341 29.6428 145.868 28.0215 144.037C26.7982 142.721 25.9466 141.221 24.4657 140.104C23.7253 139.545 22.2152 138.656 20.8016 138.822C17.9745 139.155 16.5814 141.873 15.4459 144.393C14.9571 145.489 14.4683 146.585 13.9796 147.681C13.7513 147.652 13.523 147.623 13.1806 147.579C12.2382 147.69 11.1378 148.128 10.4793 148.739C9.40527 149.876 9.22965 151.244 8.1263 152.609C7.88339 152.693 7.51171 152.878 7.2688 152.962C6.38203 153.544 5.53623 154.71 4.94797 155.678C2.20567 160.772 0.677813 174.483 0.985023 181.128C0.946939 184.137 1.02299 187.159 0.984909 190.168C1.57306 198.24 1.61978 206.01 2.70838 213.799C4.31495 224.783 5.59374 235.609 7.97295 245.997C10.1824 255.899 12.6201 265.831 15.4442 275.465C16.8577 279.818 18.2712 284.172 19.5706 288.511C21.9293 296.346 24.4168 304.083 27.5336 311.436C31.458 320.632 34.0246 330.464 38.6075 339.049C39.9127 341.534 41.1887 344.247 43.1378 346.236C43.8636 346.909 44.6889 347.71 45.4147 348.382C46.0702 348.698 46.7112 349.128 47.3667 349.444C47.6652 349.83 47.9491 350.33 48.2476 350.716C49.1431 351.874 50.0972 352.576 51.6366 353.237C52.0931 353.296 52.0931 353.296 52.2512 352.969C53.0765 353.77 53.4452 354.512 54.9144 354.817C54.8178 353.761 54.1037 353.902 53.2784 353.1C52.5526 352.428 52.0288 351.086 51.5752 350.1C52.1312 350.288 52.5585 350.574 53.1146 350.762C53.1438 350.533 53.059 350.291 52.9741 350.048C53.7438 350.379 54.4988 350.823 55.2685 351.154C55.2832 351.04 55.2978 350.926 55.3271 350.698C54.6861 350.268 54.6305 349.797 54.1038 349.382C54.1184 349.268 54.2472 349.169 54.2618 349.055C55.2598 349.414 55.2715 350.227 56.2402 350.815C53.4805 343.392 51.3676 334.544 48.8537 326.109C46.4364 318.73 44.1333 311.365 41.716 303.985C40.203 299.503 38.7046 294.907 37.0775 290.41C34.6485 282.218 32.1054 274.011 29.9486 265.506C27.4114 255.445 25.2604 245.087 23.4666 234.658C22.9369 230.65 22.3926 226.756 21.8629 222.747C20.9089 217.526 20.9265 211.965 20.1306 206.416C18.7523 195.462 19.1914 183.002 20.9593 170.133C22.6362 172.434 20.8977 180.555 21.0586 183.821C21.0322 187.642 21.1346 191.363 21.1082 195.184C21.5998 202.201 21.7636 209.06 22.5127 215.877C25.0615 235.79 28.4269 254.764 33.4224 272.789C37.8267 288.188 43.2613 302.793 47.809 317.979C49.9834 325.443 52.2719 332.922 54.1887 340.585C54.7945 343.097 55.6168 349.344 57.2967 350.719C56.8021 349.149 56.1232 347.207 56.1144 345.468C56.3105 346.652 56.6207 347.851 57.8469 348.24C57.9757 348.141 57.9903 348.027 58.0196 347.799C57.0977 345.942 57.0626 343.504 56.6559 341.249C56.0384 337.925 55.2922 334.701 54.6747 331.376C52.6027 323.114 50.2586 315.164 47.815 307.086C45.1285 299.092 42.5561 291.113 39.8696 283.12C37.8503 276.255 35.9452 269.405 33.9259 262.54C29.861 248.111 27.7248 233.119 25.2052 217.498C23.8473 209.095 23.6748 200.497 22.9754 191.484C22.6623 186.692 22.4371 181.216 23.1249 175.858C24.2428 178.899 25.3607 181.939 26.3645 184.965C28.0736 190.632 29.6832 196.169 31.3922 201.835C32.5335 206.502 33.6749 211.168 34.8162 215.834C39.5132 233.473 43.3936 252.05 46.7034 270.554C48.4856 280.17 50.0248 289.87 52.4509 298.989C53.2966 302.343 53.6097 307.134 56.0007 309.296C57.8562 309.302 58.4533 305.554 58.6435 304.072C59.0093 305.741 59.5712 308.595 61.6257 308.859C61.8832 308.66 62.0266 308.447 62.2842 308.248C63.2762 310.461 63.5396 317.448 65.8925 318.098C66.1208 318.127 66.3491 318.157 66.7061 318.087C67.909 316.85 68.3012 314.699 68.7226 312.319C69.3636 312.749 69.3723 314.489 69.5128 315.202C70.1478 317.485 70.736 321.038 73.0744 321.801C75.1464 321.024 75.767 314.382 75.6616 311.587C75.8606 311.845 76.7708 312.889 77.3005 312.377C78.1434 312.138 78.2751 311.112 78.7053 310.472C78.9014 311.656 79.6711 311.986 80.4554 312.203C82.2729 310.698 82.0388 308.002 82.5334 305.052C82.8378 303.585 83.6865 301.492 83.5929 299.51C83.6866 296.972 83.7803 294.435 83.874 291.897C83.5404 284.553 83.3064 277.338 82.9728 269.994C81.6005 252.666 82.1275 235.003 80.9132 217.347C80.8489 210.617 80.7699 204.001 80.7056 197.272C80.6267 190.656 80.5477 184.04 80.4688 177.424C79.9421 167.969 80.3461 157.591 80.7765 147.911C81.4437 153.56 82.1109 159.208 82.6786 164.728C84.569 176.212 85.5317 187.693 87.5656 198.963C93.4827 232.404 100.688 264.851 107.793 297.169C110.523 309.341 113.412 321.185 116.786 332.859C117.366 334.672 120.488 344.691 123.786 339.784C123.915 339.684 124.044 339.585 124.287 339.5C124.714 339.787 125.027 340.059 125.44 340.46C126.745 342.945 127.901 352.017 132.581 348.098C133.804 349.414 134.225 351.554 136.221 352.274C138.004 352.85 139.294 350.93 139.982 350.091C140.942 348.939 141.946 347.446 142.707 346.037C143.038 345.268 143.368 344.499 143.813 343.745C144.442 343.362 144.957 342.965 145.587 342.582C146.904 341.361 147.808 339.738 148.712 338.116C151.411 333.363 153.413 327.71 155.529 322.071C156.149 319.949 156.77 317.826 157.405 315.59C158.455 312.828 159.913 307.8 160.209 304.593C161.426 298.723 162.658 292.739 163.876 286.869C164.689 282.337 165.404 277.678 166.217 273.146C166.782 275.073 167.247 276.871 167.584 278.769C168.67 282.964 169.542 287.016 170.756 291.113C173.454 299.919 175.081 308.935 177.794 317.628C178.854 321.125 180.92 331.24 183.483 332.96C185.196 333.18 186.018 330.388 186.109 328.777C187.089 330.178 186.896 332.587 189.451 332.567C189.659 334.564 191.903 342.385 194.145 342.093C195.717 341.6 195.623 339.618 196.399 338.095C196.861 340.82 198.348 344.603 200.841 345.966C203.355 345.362 203.844 339.746 204.154 336.425C205.38 336.814 206.138 336.332 206.428 334.978C207.025 335.75 207.581 335.937 208.48 336.169C211.029 333.483 211.81 325.587 212.469 320.456C213.449 312.817 213.244 305.374 212.852 298.486C212.779 294.536 212.692 290.701 212.618 286.751C211.919 277.738 212.791 268.231 212.364 258.905C212.391 255.084 212.546 251.163 212.572 247.343C212.045 237.888 213.562 227.884 213.193 218.102C213.462 214.196 213.731 210.29 213.901 206.256C214.308 199.471 214.815 192.814 215.221 186.029C215.564 181.553 216.021 177.092 216.363 172.616C216.571 170.093 216.907 167.471 217.115 164.948C217.645 159.917 218.175 154.886 218.705 149.855C219.202 159.537 219.471 169.191 219.869 178.745C219.971 182.467 220.088 186.074 220.191 189.796C220.688 199.479 221.057 209.261 221.554 218.943C222.897 236.499 222.4 253.935 223.47 271.804C223.447 279.218 223.423 286.632 223.415 293.932C223.289 297.624 223.262 301.445 223.136 305.137C223.552 313.65 223.01 322.389 223.584 330.575C223.926 335.138 222.963 341.736 226.054 343.871C227.994 344.12 229.089 341.016 229.393 339.548C229.844 341.461 230.397 342.575 231.778 343.563C232.492 343.423 232.75 343.224 233.25 342.941C234.954 345.941 233.806 352.168 237.298 353.89C239.141 353.084 240.535 350.366 241 347.644C241.386 351.866 241.673 355.959 244.564 357.836C246.976 358.03 248.278 352.403 249.042 350.067C249.145 349.269 249.347 348.6 249.449 347.801C249.894 347.047 250.836 346.937 251.196 345.94C251.793 346.712 251.878 346.954 252.747 347.414C255.949 345.97 256.365 340.924 257.576 336.908C257.796 335.198 258.13 333.502 258.334 331.906C260.945 323.318 259.734 313.775 260.802 305.452C261.173 309.788 261.56 314.009 261.931 318.345C262.563 326.075 263.067 333.904 264.07 341.45C264.574 344.76 264.547 353.1 266.927 354.449C268.726 353.984 269.201 348.483 269.537 345.86C270.831 347.533 269.643 353.175 272.323 353.983C272.953 353.6 273.353 353.188 273.585 352.29C273.851 353.831 274.676 354.632 275.001 355.717C275.665 357.772 275.109 362.105 276.576 363.336C276.789 363.479 277.017 363.509 277.231 363.652C278.732 362.802 279.271 359.51 279.564 357.23C279.877 357.502 280.076 357.759 280.676 357.604C281.048 357.42 281.191 357.207 281.249 356.751C282.637 360.405 281.05 365.533 284.398 367.469C286.356 366.677 286.754 358.153 287.135 355.188C287.261 356.016 287.483 357.899 288.654 357.817C289.025 357.633 289.283 357.434 289.555 357.121C290.202 355.698 290.421 353.988 290.656 352.164C290.907 353.818 291.016 355.687 291.411 357.128C291.738 357.286 291.967 357.315 292.294 357.473C295.142 355.173 295.953 347.049 296.538 342.489ZM32.2051 260.58C34.2097 267.559 36.1002 274.524 38.1049 281.503C40.1271 287.441 42.0205 293.478 44.0427 299.417C46.5419 307.966 49.3133 316.202 51.7979 324.865C52.7724 328.119 53.504 331.458 54.2356 334.797C54.3205 335.039 54.3908 335.396 54.4756 335.639C54.701 336.595 54.9117 337.665 55.137 338.621C55.5877 340.533 56.053 342.331 56.4041 344.114C55.9388 342.316 55.6023 340.419 55.137 338.621C54.8414 337.308 54.5459 335.995 54.2356 334.797C52.3861 328.417 50.5512 321.923 48.7017 315.544C46.0298 307.436 43.2584 299.2 40.5865 291.092C38.2951 284.54 36.7177 277.848 34.8126 270.997C33.4576 266.188 32.3602 261.18 31.1486 256.157C30.6277 253.888 30.2063 251.748 29.6854 249.479C30.4873 253.175 31.4032 256.885 32.2051 260.58ZM236.673 10.7747C236.772 10.9033 236.758 11.0173 236.842 11.26C236.828 11.374 236.813 11.488 236.799 11.602C236.371 11.3154 236.5 11.2161 236.673 10.7747ZM227.365 83.2863C228.34 86.5404 226.613 90.9544 226.174 94.3747C226.028 90.9951 226.212 86.8467 227.365 83.2863ZM223.73 108.895C222.752 115.607 221.675 122.19 220.698 128.902C220.59 127.034 220.496 125.052 220.502 123.199C221.623 116.273 222.758 109.234 223.879 102.308C224.263 102.937 224.034 107.427 223.73 108.895ZM227.084 72.8201C227.948 75.1328 226.265 79.2047 225.928 81.827C225.723 78.9035 226.461 75.8691 227.084 72.8201ZM234.855 7.76001C235.04 8.13135 235.01 8.35937 234.753 8.5581C234.768 8.44408 234.811 8.10205 234.855 7.76001ZM220.54 106.631C221.585 101.203 222.53 95.6454 223.575 90.2168C224.398 91.9448 222.644 100.18 221.951 102.872C221.79 104.126 221.5 105.48 221.339 106.734C220.95 107.959 220.865 112.236 220.221 112.733C220.798 110.952 219.732 109.309 220.54 106.631ZM231.218 7.17718C231.402 7.54852 231.428 8.24724 231.141 8.67399C231.071 8.3173 231.144 7.74724 231.218 7.17718ZM231.2 3.69822C231.499 4.08421 231.382 4.9963 231.437 5.467C231.379 5.92305 231.264 5.9084 230.893 6.09247C230.881 5.27974 231.083 4.61032 231.2 3.69822ZM194.974 256.093C194.971 261.54 194.968 266.986 194.965 272.433C194.485 270.749 194.02 268.95 193.654 267.281C193.689 265.2 193.739 263.004 193.66 260.908C193.725 254.079 193.774 247.363 193.839 240.534C193.988 238.467 194.009 236.5 194.158 234.433C194.334 228.545 194.624 222.672 194.799 216.784C195.071 211.951 195.244 206.99 195.516 202.158C195.707 200.676 195.783 199.179 195.958 197.811C196.257 193.677 196.555 189.543 196.869 185.296C197.135 182.317 197.401 179.338 197.554 176.344C197.703 174.277 197.966 172.225 198.116 170.158C198.321 168.562 198.411 166.951 198.616 165.355C199.131 160.438 199.661 155.407 200.176 150.489C200.966 144.333 201.771 138.062 202.562 131.905C203.217 127.702 203.759 123.483 204.414 119.279C205.462 112.924 206.396 106.554 207.444 100.199C208.767 92.6039 210.218 84.9097 211.541 77.3148C213.66 66.2295 215.893 55.1589 217.998 44.1877C218.873 47.3131 217.395 54.3086 216.385 57.6557C215.934 60.2634 215.369 62.8563 214.919 65.464C213.35 74.0703 211.781 82.6766 210.212 91.2829C208.772 99.7898 207.332 108.297 205.778 116.789C204.815 123.387 203.966 130 203.003 136.598C202.023 144.237 201.142 152.004 200.161 159.643C199.939 162.28 199.717 164.917 199.494 167.554C198.619 177.987 197.758 188.307 196.997 198.755C196.801 202.091 196.605 205.427 196.409 208.762C196.093 218.457 195.648 228.25 195.332 237.944C195.112 244.174 195.05 250.077 194.974 256.093ZM189.817 266.441C191.07 272.049 192.194 277.756 191.761 283.842C190.605 279.29 189.449 274.738 188.421 270.086C188.404 266.607 188.386 263.128 188.255 259.635C188.776 261.903 189.297 264.172 189.817 266.441ZM188.501 254.103C189.499 258.983 190.611 263.877 191.609 268.757C190.511 263.749 189.499 258.983 188.501 254.103ZM182.705 303.772C184.371 309.78 185.907 315.888 187.557 322.01C187.543 322.124 187.528 322.238 187.514 322.352C185.804 316.686 184.224 310.92 182.629 305.269C179.992 295.08 177.37 284.776 174.734 274.587C173.663 270.278 172.606 265.854 171.649 261.559C170.874 258.562 169.896 256.235 170.537 252.145C172.395 260.264 174.14 268.369 175.983 276.602C178.196 285.578 180.508 294.682 182.705 303.772ZM213.101 62.4493C213.16 61.9933 213.204 61.6512 213.148 61.1805C213.362 61.3238 213.174 61.8792 213.101 62.4493ZM213.423 59.941C213.637 60.0844 213.435 60.7538 213.391 61.0958C213.435 60.7538 213.379 60.2831 213.423 59.941ZM213.666 59.8563C213.769 59.0583 213.886 58.1462 213.988 57.3481C214.187 57.6054 213.739 59.2863 213.666 59.8563ZM214.117 57.2487C214.219 56.4506 214.336 55.5385 214.439 54.7405C214.752 55.0124 214.19 56.6787 214.117 57.2487ZM222.505 22.6312C223.155 24.8006 222.517 27.9636 221.881 30.1999C220.939 34.8304 220.125 39.3616 219.183 43.9921C218.838 40.3552 219.555 34.7686 220.983 29.9687C221.533 27.4897 221.955 25.1101 222.505 22.6312ZM219.877 27.7407C220.761 23.5662 221.645 19.3917 222.643 15.2318C223.038 16.6732 222.002 19.3216 221.454 20.8738C220.728 24.7209 219.888 28.5534 219.163 32.4005C218.68 31.6432 219.701 29.1088 219.877 27.7407ZM217.948 37.3438C216.859 43.1144 215.77 48.8851 214.553 54.7551C214.328 53.7991 215.165 50.8933 215.425 49.7679C216.309 45.5934 217.193 41.4189 217.948 37.3438ZM190.559 199.204C191.153 191.863 191.747 184.522 192.213 177.281C192.731 171.437 193.249 165.593 193.653 159.735C194.136 155.972 194.619 152.21 194.973 148.547C195.558 143.986 196.143 139.426 196.615 134.851C197.387 129.735 198.046 124.604 198.819 119.488C199.647 114.843 200.361 110.183 201.189 105.538C201.669 102.702 202.035 99.8522 202.515 97.0165C204.186 87.6121 205.972 78.2224 207.643 68.818C209.051 61.4658 210.444 54.2277 211.966 46.8902C212.938 42.0316 213.895 37.287 214.866 32.4285C215.952 27.5846 217.038 22.7407 218.124 17.8968C218.062 19.2795 218.115 20.677 218.054 22.0598C218.241 26.0241 218.185 30.0731 216.973 34.0896C216.611 36.0132 216.133 37.9221 215.756 39.9597C212.563 56.7016 209.355 73.5575 206.162 90.2994C205.114 96.6548 204.052 103.124 202.89 109.465C201.985 115.607 201.066 121.863 200.048 127.99C199.301 133.805 198.555 139.619 197.923 145.449C197.542 148.413 197.261 151.506 196.881 154.47C196.632 156.408 196.383 158.347 196.234 160.414C195.745 166.029 195.271 171.531 194.896 177.162C194.51 181.98 194.124 186.797 193.737 191.615C193.541 194.951 193.231 198.272 193.049 201.494C192.71 209.562 192.385 217.517 192.045 225.586C191.864 233.327 191.682 241.068 191.515 248.696C191.492 251.59 191.483 254.37 191.459 257.265C190.649 256.349 190.813 254.168 190.502 252.97C189.87 249.759 189.124 246.535 188.492 243.324C188.539 242.056 188.586 240.787 188.633 239.518C188.475 226.286 190.187 212.947 190.559 199.204ZM177.211 182.077C178.083 190.649 179.069 199.235 179.926 207.921C181.495 217.394 182.349 227.007 183.947 236.251C185.112 242.543 186.276 248.835 187.541 255.255C187.573 258.62 187.476 262.084 187.508 265.449C186.832 262.581 186.285 259.614 185.609 256.745C184.301 250.667 183.221 244.618 182.171 238.341C180.11 226.372 178.679 214.019 177.035 201.524C176.464 196.931 176.008 192.353 175.437 187.76C175.662 184.196 175.774 180.618 175.985 177.168C176.064 174.745 176.143 172.321 176.222 169.897C176.523 173.876 176.81 177.969 177.211 182.077ZM169.118 245.126C168.986 246.152 168.854 247.178 168.837 248.219C168.474 245.622 167.652 243.894 168.135 240.132C168.5 241.801 168.866 243.471 169.118 245.126ZM164.851 258.485C164.655 257.301 164.359 255.988 164.163 254.804C164.663 250.001 165.035 245.297 165.536 240.494C166.981 243.692 166.15 249.264 165.708 253.611C165.334 254.722 165.252 258.073 164.851 258.485ZM166.683 238.787C166.493 235.749 165.744 233.451 166.27 229.347C166.622 231.13 166.859 232.899 167.21 234.682C167.049 235.936 166.987 237.319 166.826 238.573C166.797 238.801 166.797 238.801 166.683 238.787ZM172.894 175.033C173.31 179.027 173.939 183.164 173.324 187.952C173.201 186.198 172.95 184.543 172.827 182.789C172.241 178.31 171.814 173.504 172.473 168.373C172.537 170.583 172.716 172.808 172.894 175.033ZM153.436 315.776C153.676 316.618 153.129 318.17 152.769 319.167C152.292 321.076 151.686 323.084 151.109 324.864C150.676 326.431 150.228 328.112 149.81 329.565C150.129 327.984 150.562 326.417 151.109 324.864C151.557 323.184 152.134 321.403 152.582 319.722C152.596 319.608 152.74 319.395 152.769 319.167C153.029 318.042 153.29 316.916 153.436 315.776ZM170.878 140.123C171.08 143.973 171.267 147.938 171.469 151.788C171.349 153.627 171.343 155.48 171.223 157.319C171.203 159.287 171.068 161.239 171.033 163.321C170.828 160.397 170.623 157.474 170.418 154.55C170.006 149.63 170.579 144.257 170.354 138.781C170.407 135.659 170.445 132.65 170.498 129.528C170.629 133.022 170.746 136.629 170.878 140.123ZM171.876 108.845C171.891 113.251 171.791 117.642 171.791 122.161C171.739 120.764 171.786 119.495 171.733 118.098C171.677 113.107 171.622 108.117 171.566 103.126C171.572 96.7532 171.578 90.38 171.599 83.8928C171.66 77.9903 171.608 72.0731 171.669 66.1706C171.748 72.7865 171.713 79.3877 171.792 86.0036C171.868 93.5462 171.929 101.203 171.876 108.845ZM142.394 341.245C141.996 340.73 141.826 340.245 141.557 339.631C141.972 339.105 142.274 338.564 142.704 337.924C143.017 338.196 143.231 338.339 143.787 338.527C143.427 339.524 142.967 340.392 142.394 341.245ZM144.235 296.168C143.743 298.191 143.351 300.343 142.86 302.366C142.257 307.967 139.655 313.775 138.51 319.075C138.203 316.95 139.901 312.764 140.665 310.428C141.633 306.496 142.587 302.679 143.556 298.747C144.194 295.584 144.961 292.321 145.599 289.158C145.95 290.942 144.241 294.315 144.235 296.168ZM140.287 316.985C141.943 312.215 142.76 306.757 144.332 301.744C144.651 300.162 144.955 298.694 145.274 297.113C146.26 292.14 147.247 287.168 148.233 282.195C148.453 280.485 148.658 278.889 148.991 277.193C150.636 271.61 150.144 264.593 151.461 258.852C151.859 254.847 152.372 250.857 152.77 246.852C154.62 235.152 154.046 222.447 155.454 210.575C156.715 213.402 155.82 216.764 156.022 220.614C155.632 226.359 155.258 231.989 154.868 237.734C154.693 239.102 154.502 240.584 154.441 241.967C154.663 248.369 152.43 254.92 152.38 261.636C152.088 263.916 151.81 266.082 151.517 268.362C151.151 271.213 150.671 274.048 150.305 276.898C150.1 278.495 149.895 280.091 149.591 281.558C148.59 286.645 147.574 291.845 146.459 296.917C145.318 301.291 144.291 305.679 143.149 310.052C141.838 313.94 140.398 317.927 139.33 321.73C139.321 319.99 139.754 318.424 140.287 316.985ZM155.483 205.827C155.867 197.416 156.25 189.005 156.634 180.595C156.701 181.878 156.882 183.176 156.95 184.46C157.257 186.585 157.134 189.351 157.225 192.26C157.119 193.984 157.014 195.709 156.909 197.434C156.666 202.038 156.423 206.643 156.294 211.262C156.071 209.379 155.834 207.61 155.483 205.827ZM137.661 343.767C137.934 343.454 138.32 343.156 138.607 342.729C139.019 343.13 139.417 343.644 139.83 344.045C138.943 344.627 138.402 344.325 137.647 343.881L137.661 343.767ZM139.851 342.078C139.751 341.949 139.78 341.721 139.681 341.592C140.067 341.294 140.354 340.867 140.74 340.569C141.024 341.069 141.308 341.569 141.691 342.198C141.548 342.411 141.519 342.639 141.375 342.853C140.69 342.765 140.377 342.493 139.851 342.078ZM158.261 157.973C158.688 162.779 158.841 168.825 158.153 174.184C157.889 167.197 156.815 159.294 157.925 151.556C157.989 153.766 158.068 155.862 158.261 157.973ZM156.7 60.7724C156.738 66.8036 156.79 72.7207 156.828 78.7519C156.764 81.0615 156.6 83.2423 156.535 85.5519C156.541 97.2575 156.418 109.063 156.424 120.768C156.245 127.583 156.166 134.526 155.987 141.341C155.853 138.774 155.818 136.336 155.683 133.769C155.218 127.451 155.751 121.493 155.329 114.833C155.259 105.437 155.303 96.0556 155.218 86.7735C155.341 84.0079 155.45 81.3563 155.573 78.5908C155.857 70.0513 156.24 61.6405 156.524 53.1011C156.545 55.6533 156.565 58.2055 156.7 60.7724ZM151.539 162.441C150.997 153.1 150.441 143.874 150.014 134.548C149.909 127.233 149.804 119.918 149.684 112.718C149.74 108.669 149.681 104.605 149.737 100.556C149.748 96.8492 149.76 93.1422 149.772 89.4352C150.135 82.992 150.384 76.534 150.747 70.0908C150.987 66.4131 151.127 62.6067 151.367 58.929C151.084 53.9093 151.543 48.5215 152.477 42.1514C153.498 44.1368 152.74 49.1387 152.86 51.8195C153.021 59.6049 153.082 67.2615 153.243 75.0468C153.234 86.8665 153.111 98.6715 153.102 110.491C153.064 113.499 152.927 116.379 152.888 119.387C152.765 126.673 152.628 134.072 152.505 141.357C152.069 148.371 151.747 155.399 151.539 162.441ZM152.809 153.449C153.005 145.594 153.201 137.738 153.398 129.883C153.611 134.546 153.81 139.323 154.024 143.986C155.724 156.952 154.942 173.888 153.959 191.493C153.224 184.561 152.604 177.644 151.983 170.726C152.259 164.967 152.534 159.208 152.809 153.449ZM139.623 301.371C140.319 297.752 141.115 294.261 141.812 290.642C142.336 287.465 142.845 284.401 143.369 281.223C143.703 279.528 143.908 277.932 144.241 276.236C144.344 275.438 144.446 274.64 144.549 273.842C145.371 266.53 146.308 259.234 147.13 251.922C147.631 247.119 148.131 242.316 148.518 237.498C148.983 230.257 149.448 223.015 149.914 215.774C150.204 209.901 150.379 204.013 150.684 198.026C150.947 191.454 151.325 184.896 151.588 178.325C152.37 179.468 152.165 185.584 152.501 187.481C152.847 191.118 153.291 194.884 153.637 198.521C153.306 203.809 152.99 208.984 152.773 214.287C152.278 221.756 151.798 229.112 151.304 236.581C151.096 239.104 150.774 241.612 150.551 244.249C150.01 248.467 149.583 252.701 149.027 257.033C148.47 261.365 147.929 265.584 147.373 269.916C146.79 273.55 146.208 277.184 145.64 280.704C145.102 283.995 144.449 287.272 143.925 290.45C143.056 294.51 142.087 298.442 141.218 302.503C140.076 306.876 138.821 311.234 137.665 315.722C137.311 314.865 137.085 313.909 136.86 312.953C137.715 309.006 138.669 305.189 139.623 301.371ZM137.258 322.507C137.243 322.621 137.214 322.849 137.199 322.963C137 322.706 136.93 322.349 137.003 321.779C137.088 322.022 137.173 322.264 137.258 322.507ZM136.154 323.872C136.623 324.743 136.245 326.781 135.259 327.234C134.647 326.576 135.909 324.883 136.154 323.872ZM132.66 345.674C132.303 345.744 132.06 345.829 131.703 345.899C130.392 345.267 129.511 343.995 129.23 342.569C130.714 342.759 130.998 343.259 132.11 343.634C132.265 344.233 132.519 344.961 132.66 345.674ZM136.383 319.382C136.029 318.525 135.917 317.583 135.692 316.627C135.917 317.583 136.143 318.54 136.383 319.382ZM134.568 324.48C133.518 322.722 134.665 321.015 135.028 319.092C135.95 320.948 135.174 322.471 134.568 324.48ZM135.341 314.844C135.326 314.958 135.312 315.072 135.282 315.3C132.748 304.313 130.228 293.212 127.808 282.239C126.936 278.187 126.064 274.135 125.192 270.082C128.628 284.894 131.92 299.919 135.341 314.844ZM95.1331 17.9868C95.4316 18.3727 95.4287 19.2995 95.3555 19.8696C95.1272 19.8402 95.0131 19.8256 94.7995 19.6823C94.9721 19.2409 95.0599 18.5568 95.1331 17.9868ZM92.7536 30.1975C93.2013 37.5561 93.6636 44.8006 93.9972 52.1445C95.3344 71.554 96.6862 90.8494 98.0235 110.259C99.1676 123.038 100.312 135.817 101.456 148.596C104.692 172.189 106.817 195.408 110.741 218.163C112.395 227.878 114.048 237.593 116.073 247.124C116.761 250.805 117.448 254.486 118.136 258.167C119.711 265.786 121.399 273.42 122.974 281.039C121.61 274.49 120.132 267.926 118.768 261.377C115.33 247.493 113.106 233.184 110.539 218.832C105.813 192.382 102.802 165.225 99.5215 137.454C97.7131 122.619 97.4177 107.747 95.7673 92.5857C95.0065 80.4354 94.1316 68.2705 93.3708 56.1203C93.0841 52.0273 92.8968 48.063 92.6101 43.97C92.2677 39.4064 91.9809 35.3134 92.7536 30.1975ZM120.108 316.018C121.489 321.526 122.756 327.02 124.152 332.414C123.201 330.785 122.894 328.66 122.443 326.748C121.144 322.409 120.102 317.871 118.946 313.319C115.323 299.063 112.558 284.454 108.964 269.969C101.876 241.13 97.232 211.33 92.0757 181C90.4223 171.285 89.9249 161.602 88.5144 151.802C87.0629 141.417 86.5538 130.922 85.3599 120.338C84.4001 112.45 83.3261 104.548 84.769 95.1142C85.5649 105.183 86.2467 115.237 87.0426 125.306C89.5153 146.715 90.9462 168.107 94.5486 188.85C98.9762 214.914 102.719 240.891 108.935 265.678C110.243 271.756 111.551 277.834 112.845 284.027C115.294 294.771 117.644 305.387 120.108 316.018ZM81.8715 108.649C81.6813 110.131 81.6052 111.628 81.4296 112.996C81.172 117.715 80.8997 122.547 80.6421 127.266C80.3524 124.099 80.0627 120.933 79.773 117.767C80.3965 110.198 81.0053 102.743 81.5146 95.1601C81.6668 96.6862 81.6902 98.3117 81.8424 99.8378C82.3486 102.221 81.7955 105.626 81.8715 108.649ZM92.1099 21.6549C92.5489 22.7542 91.8582 24.5198 91.7411 25.4319C91.3021 24.3325 91.8494 22.7803 92.1099 21.6549ZM83.6455 75.8481C83.742 76.9035 83.7245 77.9443 83.821 78.9997C84.1809 82.5226 83.8824 86.6563 83.256 90.6321C83.259 89.7053 83.1331 88.878 83.1361 87.9512C82.7761 84.4283 82.9898 80.0519 83.6455 75.8481ZM80.2562 95.9257C79.943 100.173 79.5157 104.406 79.2025 108.654C78.9684 105.959 78.8338 103.392 78.7138 100.711C79.3636 93.841 80.1422 86.8716 80.792 80.0016C81.7109 82.785 80.6134 86.8162 80.8416 91.3652C80.6513 92.8473 80.4464 94.4435 80.2562 95.9257ZM83.0925 61.1749C84.2514 64.8004 82.7207 70.3984 82.507 74.7748C82.1061 70.6672 82.3198 66.2908 83.0925 61.1749ZM88.2996 12.474C88.2849 12.588 88.3844 12.7167 88.3698 12.8307C88.1708 12.5734 88.1854 12.4593 88.2996 12.474ZM88.0772 10.5912C88.1474 10.9479 88.2176 11.3046 88.2879 11.6613C88.045 11.746 88.045 11.746 87.9016 11.9593C87.846 11.4886 87.9045 11.0326 88.0772 10.5912ZM85.2472 7.33069C85.373 8.15807 85.4988 8.98546 85.6247 9.81284C85.3818 9.89755 85.1535 9.86825 84.9252 9.83895C84.5565 9.09627 85.0306 8.11412 85.2472 7.33069ZM68.2189 111.069C67.487 125.809 66.7552 140.549 66.0234 155.289C65.8857 167.208 65.7333 179.241 65.4815 191.145C65.7008 202.994 65.9348 214.729 66.04 226.564C65.5747 224.766 65.1094 222.967 64.7436 221.298C64.6851 217.234 64.612 213.285 64.5535 209.221C63.9156 198.825 64.864 187.821 64.3695 177.212C64.4223 174.089 64.5891 170.982 64.6418 167.859C64.282 159.817 65.6927 151.538 65.3621 143.267C65.5289 140.16 65.8099 137.067 65.9768 133.959C66.4598 125.677 66.8433 117.266 67.3263 108.984C67.5634 106.233 67.8151 103.368 68.0522 100.617C68.5264 95.1154 69.0005 89.6135 69.4747 84.1116C69.6357 82.8575 69.782 81.7174 69.943 80.4632C70.4728 75.4321 71.1021 70.5296 71.6319 65.4984C72.027 62.4201 72.4221 59.3417 72.7031 56.2488C72.8964 49.3201 74.4593 42.5673 75.551 35.8699C76.7245 39.3814 74.3509 49.7386 73.6923 54.8692C72.5918 64.3468 71.5908 73.9531 70.4903 83.4308C69.9898 88.2339 69.4892 93.037 69.1029 97.8549C68.8745 102.345 68.5467 106.707 68.2189 111.069ZM65.2848 239.678C67.0729 242.921 66.9001 252.402 66.8708 257.149C65.4514 254.649 64.8721 243.797 65.2848 239.678ZM67.099 266.218C66.578 263.949 65.6152 261.508 65.823 258.985C66.4757 260.228 67.1897 264.607 67.099 266.218ZM62.2295 235.462C60.8335 230.067 59.6249 224.118 60.1869 217.932C60.6376 219.844 61.0883 221.756 61.5389 223.668C63.0051 229.419 63.5874 234.825 63.4527 241.297C63.1162 239.4 62.6801 237.374 62.2295 235.462ZM63.8126 249.34C62.8703 244.931 61.928 240.522 60.9857 236.113C61.2812 237.426 61.5768 238.739 61.8724 240.051C62.5337 243.034 63.5229 246.174 63.8126 249.34ZM63.0052 224.899C62.6774 220.222 59.7509 215.906 60.0085 211.187C60.7899 212.331 63.2247 223.189 63.0052 224.899C63.1193 224.914 63.1193 224.914 63.0052 224.899ZM59.5254 223.989C59.0308 222.419 58.6504 220.864 58.2553 219.422C57.2954 216.054 56.4497 212.701 55.5893 209.461C52.3439 197.687 48.5394 186.653 44.5213 175.475C42.9644 171.335 41.308 167.066 39.7511 162.926C42.6074 166.885 44.4628 171.412 46.4178 176.066C50.1725 184.776 52.9409 193.94 56.0225 203.375C58.0447 209.313 60.3362 215.865 59.5254 223.989ZM40.5846 206.144C41.8547 210.711 43.2243 215.407 44.4651 220.202C46.9322 229.905 49.0129 239.907 51.4506 249.839C52.7002 256.374 53.9644 262.794 55.214 269.328C56.2675 274.679 57.2068 280.014 58.2604 285.364C58.9627 288.931 60.2796 292.229 59.5801 296.775C57.8506 288.557 56.1357 280.224 54.4062 272.006C51.4886 255.87 48.7699 239.992 44.8514 224.423C42.7648 216.275 40.7778 208.255 38.6912 200.107C39.3701 202.048 39.9203 204.089 40.5846 206.144ZM65.121 232.82C65.8731 234.191 66.3208 237.03 66.3442 238.655C65.7911 237.541 65.0595 234.202 65.121 232.82ZM78.6973 20.3968C79.6308 23.0662 77.0465 32.3534 76.4641 35.9871C75.2203 32.119 78.0124 24.8286 78.6973 20.3968ZM76.8886 23.6413C77.4534 21.0484 78.0183 18.4554 78.5832 15.8624C79.0075 17.0758 76.6574 24.5388 76.35 26.933C76.1101 26.091 76.6574 24.5388 76.8886 23.6413ZM60.2636 166.718C60.3954 161.172 60.5272 155.626 60.6589 150.081C60.8521 147.672 61.0453 145.263 61.2385 142.854C61.4054 139.746 61.5869 136.525 61.6396 133.402C61.8474 130.879 61.9557 128.228 62.1635 125.705C62.4533 119.832 62.8573 113.973 63.1325 108.214C63.3256 105.805 63.6183 103.525 63.8115 101.116C64.6516 92.7638 65.3628 84.5109 66.2029 76.1588C66.759 71.8263 67.201 67.4792 67.7571 63.1468C68.5034 57.3322 69.2644 51.4035 70.1249 45.6036C70.1777 37.9616 73.122 27.6776 74.9776 18.6445C76.3267 20.7879 74.237 31.6451 73.4116 35.3635C72.3404 40.0934 71.3775 46.6915 71.3218 50.7405C70.8682 54.2749 70.3999 57.9233 70.0603 61.4723C69.4164 66.4888 68.8866 71.52 68.2427 76.5365C67.95 78.8167 67.7568 81.2256 67.4641 83.5059C66.7499 92.6854 65.907 101.964 65.1928 111.144C64.66 121.622 64.0131 132.085 63.4803 142.562C63.3456 144.515 63.211 146.468 63.2051 148.321C63.0206 156.989 62.8362 165.658 62.6517 174.326C62.6428 181.626 62.6339 188.926 62.6397 196.112C62.7362 201.687 62.8327 207.262 62.9292 212.837C62.6044 211.752 62.2942 210.554 61.9693 209.469C61.0094 206.101 60.0905 203.317 59.7745 199.452C59.1922 189.527 60.6293 177.427 60.2636 166.718ZM42.6806 161.796C44.2142 164.31 45.4609 167.252 46.4939 170.05C47.3865 172.135 48.3786 174.348 49.2712 176.433C51.4075 182.385 53.4297 188.324 55.3086 194.475C56.2128 197.373 57.003 200.255 57.9073 203.153C58.4721 205.08 59.3939 206.936 59.2008 209.345C58.5364 207.29 57.8721 205.234 57.3073 203.308C56.0636 199.44 55.0481 195.601 53.6755 191.832C51.6241 186.122 49.7862 180.555 47.4626 175.157C46.1866 172.444 45.3964 169.561 43.8629 167.047C42.6133 165.032 41.3637 163.017 40.2135 161.131C39.4175 160.102 38.6068 159.187 37.8108 158.157C37.2723 156.929 36.6344 155.573 36.0959 154.345C35.3291 153.087 34.6765 151.845 33.9097 150.587C38.2118 153.226 40.2955 157.781 42.6806 161.796ZM20.9977 140.006C23.0931 140.855 24.2199 141.115 25.4139 142.659C24.7144 142.685 24.0296 142.598 23.3302 142.624C22.8443 142.793 22.458 143.091 21.9722 143.261C21.5303 143.088 21.2025 142.93 20.7606 142.757C19.3061 142.339 18.2057 142.777 17.3482 143.131C18.0389 141.365 19.5256 140.629 20.9977 140.006ZM21.6091 163.263C21.8344 164.219 20.933 164.915 20.5028 165.555C20.6052 164.757 20.8364 163.859 21.1818 162.976C21.2813 163.105 21.3808 163.234 21.6091 163.263ZM22.0012 161.111C22.1007 161.24 22.2002 161.369 22.2998 161.497C22.2705 161.725 22.2559 161.839 22.1124 162.053C22.0129 161.924 21.8988 161.909 21.7993 161.781C21.7144 161.538 21.8432 161.439 22.0012 161.111ZM21.3781 146.082C21.4073 145.854 21.6356 145.883 21.7497 145.897C21.7351 146.011 21.6063 146.111 21.3781 146.082ZM18.9312 166.048C18.9604 165.82 19.0043 165.478 18.9195 165.236C19.1331 165.379 19.1185 165.493 18.9312 166.048ZM21.7088 145.313C21.8522 145.099 21.981 145 22.1244 144.787C22.4375 145.059 22.7507 145.331 23.0638 145.603C22.6219 145.43 22.1653 145.371 21.7088 145.313ZM19.657 162.201C19.7712 162.216 19.9994 162.245 20.0989 162.374C19.9116 162.929 19.7243 163.485 19.5224 164.154C19.2531 163.54 19.4551 162.871 19.657 162.201ZM20.2101 167.835C19.9057 169.302 19.4023 170.513 18.8989 171.723C18.6033 170.41 19.8501 168.832 20.2101 167.835ZM20.8452 161.079C20.617 161.05 20.3887 161.02 20.0463 160.976C20.1194 160.406 20.2921 159.965 20.3653 159.395C20.6931 159.553 20.9067 159.696 21.2345 159.854C21.1906 160.196 21.0179 160.638 20.8452 161.079ZM20.784 144.383C20.4972 144.81 20.225 145.122 19.9382 145.549C19.4816 145.49 19.0251 145.432 18.5539 145.487C19.0983 144.862 19.6982 144.707 20.4416 144.339C20.5557 144.354 20.6698 144.368 20.784 144.383ZM19.587 143.766C19.7011 143.78 19.8153 143.795 20.0436 143.824C18.6563 144.689 17.5969 145.712 16.2243 146.463C17.1286 144.841 17.9861 144.487 19.587 143.766ZM8.23106 200.601C9.93707 216.233 11.3885 231.138 14.5403 245.449C16.1732 252.612 17.8208 259.661 19.4538 266.824C20.2995 270.178 21.2594 273.546 22.1051 276.899C20.756 274.756 20.2263 270.748 19.5064 268.222C17.8413 262.213 16.3195 255.992 14.7977 249.77C10.9495 234.558 9.04443 218.668 7.15698 201.738C6.67122 197.387 6.85565 193.239 6.62743 188.69C6.07442 178.537 7.16037 164.653 10.8861 155.513C10.5963 156.866 10.2919 158.334 10.0022 159.687C9.17976 162.479 8.12026 168.021 8.18168 171.158C7.95922 173.795 7.86554 176.333 7.64308 178.97C7.86248 186.299 7.39706 193.54 8.23106 200.601ZM13.2186 149.09C13.3328 149.105 13.4469 149.12 13.5611 149.134C12.7006 150.415 12.1533 151.967 11.208 153.004C10.8802 152.846 10.4237 152.788 10.0959 152.63C10.4735 150.592 11.6031 149.926 13.2186 149.09ZM9.42278 153.355C9.76519 153.399 10.1076 153.443 10.4354 153.601C8.97205 155.962 7.76332 159.052 7.33892 162.358C6.97312 160.689 8.98962 154.922 9.42278 153.355ZM51.3293 351.112C50.6738 350.796 50.0767 350.024 49.6934 349.395C50.6767 349.869 50.9606 350.369 51.3293 351.112ZM52.1517 352.84C49.8982 352.319 48.4642 349.933 47.6711 347.977C47.7852 347.991 52.1517 352.84 52.1517 352.84ZM31.5606 310.794C34.1359 317.846 36.5825 324.998 39.1578 332.05C40.504 335.12 41.8648 338.076 43.0969 341.132C44.4021 343.617 46.1639 346.161 47.197 348.959C42.9095 346.207 40.8112 341.765 38.6983 337.438C34.5572 329.026 31.1332 319.547 28.1365 310.355C26.2694 305.016 24.2735 299.776 22.4064 294.437C18.678 281.906 14.42 269.887 11.5638 256.888C10.2556 250.81 8.94752 244.731 7.52527 238.638C6.72636 234.016 5.94209 229.28 5.25732 224.672C4.90909 221.962 4.56086 219.252 4.21263 216.542C3.6625 209.981 2.98362 203.52 2.43349 196.959C1.53514 187.689 1.89236 174.06 3.25625 167.049C4.24258 162.077 4.64358 157.145 7.85119 153.848C7.95069 153.977 7.18388 157.239 6.9673 158.023C6.01611 160.914 4.85123 168.181 5.05312 172.032C4.92429 176.651 4.9096 181.284 4.78077 185.903C4.81586 188.342 4.97972 190.681 5.01481 193.119C6.18828 201.15 6.24376 210.66 7.70111 219.191C12.7696 250.205 20.4457 282.597 31.5606 310.794ZM18.843 198.37C19.8203 209.737 20.3704 220.817 22.3633 231.503C23.5836 238.266 24.918 245.043 26.1383 251.805C25.8574 250.378 25.477 248.823 25.196 247.396C24.479 243.943 23.7621 240.491 23.0451 237.038C20.1333 223.568 18.9365 209.392 17.7133 194.517C17.2481 188.199 16.8678 177.604 19.8559 171.498C19.49 174.348 19.2383 177.213 18.8725 180.063C18.7524 181.902 18.6324 183.741 18.6412 185.481C18.7845 189.787 18.8138 194.079 18.843 198.37ZM22.5425 170.452C22.1475 169.011 21.6383 167.555 23.0694 166.348C22.9084 167.602 22.7182 169.084 22.5425 170.452ZM22.8587 165.278C22.8733 165.164 22.888 165.05 22.9172 164.822C23.1309 164.965 23.1455 164.851 23.2304 165.094C23.1016 165.193 22.9875 165.178 22.8587 165.278ZM25.3465 145.896C24.7203 145.352 24.094 144.808 23.4823 144.15C23.7545 143.837 24.1115 143.767 24.3545 143.682C27.2079 144.048 29.1131 146.379 29.7774 148.434C28.9375 147.747 28.0829 147.174 27.243 146.487C26.5582 146.399 25.888 146.197 25.3465 145.896ZM57.4728 308.673C57.3294 308.887 57.4582 308.787 57.2153 308.872C55.5091 306.799 55.4213 302.963 54.5024 300.18C51.9593 291.973 51.415 283.559 49.4133 275.653C48.7403 271.858 48.0672 268.063 47.3795 264.382C46.6069 260.459 45.849 256.421 45.0764 252.498C44.3741 248.931 43.5576 245.349 42.8406 241.896C40.5697 233.377 39.525 225.246 36.9379 217.381C35.7118 212.472 34.5002 207.449 33.274 202.541C31.6645 197.003 29.9408 191.451 28.3312 185.913C26.9733 182.03 25.5013 178.133 24.1287 174.364C24.4214 172.084 24.6995 169.918 24.9922 167.638C26.3881 168.512 27.389 172.465 27.9977 174.05C30.6901 180.19 32.7386 186.827 34.673 193.449C39.3759 209.234 42.9491 225.686 46.9788 242.196C49.1561 253.253 51.348 264.196 53.4111 275.239C55.1406 283.457 56.3843 291.845 58.386 299.751C59.0503 301.806 59.2639 306.469 57.4728 308.673ZM60.423 296.536C60.9907 297.536 61.974 302.529 61.614 303.526C60.6951 300.743 60.1566 299.515 60.423 296.536ZM62.4568 307.806C61.9739 307.049 61.6198 306.192 61.2511 305.45C61.6081 305.38 61.9798 305.196 62.3369 305.126C62.8197 305.883 62.8168 306.81 62.4568 307.806ZM65.5766 309.713C65.6205 309.371 65.5912 309.599 65.7492 309.272C65.7346 309.386 65.72 309.5 65.8195 309.629C65.6907 309.728 65.5766 309.713 65.5766 309.713ZM67.2798 317.233C66.6388 316.803 66.4428 315.619 66.1882 314.891C66.4018 315.034 66.6154 315.178 66.8144 315.435C67.2417 315.722 67.6134 315.538 67.9705 315.468C67.669 316.008 67.4817 316.564 67.2798 317.233ZM65.8575 311.14C66.0009 310.927 66.0302 310.699 66.1736 310.485C66.4575 310.985 66.756 311.371 67.0398 311.871C67.4818 312.044 67.7247 311.959 68.1959 311.904C67.9793 312.687 67.7627 313.471 67.432 314.24C66.7355 313.339 66.2965 312.24 65.8575 311.14ZM75.8355 216.232C74.9635 203.14 76.1607 190.198 75.5316 177.022C75.0752 167.924 76.3894 158.59 75.9768 149.15C75.7252 142.975 76.9018 136.52 76.6941 130.004C77.1888 122.534 77.6981 114.951 78.0787 107.467C78.1606 108.636 78.2425 109.806 78.3244 110.975C78.4473 112.729 78.5556 114.598 78.6785 116.352C78.4238 120.143 78.1692 123.935 77.9145 127.727C77.6598 131.518 77.534 135.211 77.2793 139.002C77.0333 149.053 76.7874 159.104 76.5268 169.269C76.4419 173.546 76.4711 177.838 76.3861 182.115C76.5733 195.119 76.7604 208.122 76.8334 221.112C76.8626 225.403 77.006 229.71 77.0206 234.115C77.7578 253.68 78.3663 273.343 79.0889 293.021C78.5973 290.525 78.091 288.142 77.7135 285.66C77.2309 262.304 76.5903 239.275 75.8355 216.232ZM74.7456 312.397C74.3915 311.54 73.894 310.897 74.254 309.9C74.3681 309.915 74.5964 309.944 74.7251 309.845C75.009 310.345 74.848 311.599 74.7456 312.397ZM71.6229 311.417C71.8512 311.446 71.9653 311.461 72.179 311.604C72.1643 311.718 72.0356 311.817 72.0209 311.931C71.9068 311.917 71.7927 311.902 71.579 311.759C71.5937 311.645 71.6083 311.531 71.6229 311.417ZM73.4519 319.764C72.6559 318.734 71.6287 314.083 71.5907 312.571C72.5038 312.689 72.8053 312.148 72.9926 311.592C73.2033 312.663 73.8588 312.978 74.3973 314.207C74.9943 314.978 73.6539 319.094 73.4519 319.764ZM74.2743 321.492C74.046 321.463 73.9465 321.334 73.8324 321.319C74.4646 320.01 75.0674 318.928 75.3162 316.99C75.7259 318.317 74.6343 320.495 74.2743 321.492ZM77.8332 310.939C77.0255 309.097 77.4938 305.449 77.8157 302.94C78.9073 305.282 78.7551 308.276 77.8332 310.939ZM82.3987 307.005C82.1646 308.83 81.8456 310.411 81.3422 311.621C80.2184 310.434 80.1101 308.566 80.5169 306.3C81.0437 306.716 81.9276 307.061 82.3987 307.005ZM79.6875 167.241C79.705 175.24 79.7371 183.125 79.7545 191.123C79.8188 197.853 79.8685 204.697 79.9328 211.427C80.0469 215.961 80.0615 220.367 80.1756 224.901C80.6378 236.666 81.1001 248.43 81.4482 260.179C81.8724 270.432 82.2966 280.685 82.5921 291.037C82.8408 293.619 82.7705 302.302 81.7081 304.251C81.2691 303.152 80.9736 301.839 80.6633 300.64C80.7248 299.258 80.7863 297.875 80.719 296.591C80.6313 292.756 80.5435 288.92 80.3416 285.07C79.8735 270.639 79.2767 256.308 78.8086 241.878C77.726 227.716 78.6012 212.763 77.7907 198.288C77.7205 193.412 77.7791 188.436 77.7089 183.56C77.7968 178.356 77.8993 173.038 77.873 167.819C77.9931 161.461 78.1132 155.102 78.2479 148.63C78.0489 143.853 78.9065 138.98 78.7368 133.974C78.9037 130.867 79.0705 127.759 79.2374 124.652C79.3339 125.707 79.4305 126.762 79.5271 127.818C79.7348 129.815 79.9426 131.811 80.165 133.694C80.045 135.533 80.0245 137.501 79.9045 139.339C79.9892 148.622 79.8311 157.988 79.6875 167.241ZM122.727 340.807C119.236 339.084 118.121 330.597 116.991 326.743C112.794 313.341 110.526 299.374 107.073 285.604C104.217 272.605 101.361 259.606 98.3905 246.593C97.2667 240.886 96.0435 235.05 94.9198 229.343C93.6292 222.224 92.324 215.219 90.9193 208.086C89.7166 200.282 88.5139 192.479 87.197 184.662C85.5114 176.101 85.2949 167.845 83.9663 159.215C83.2289 153.209 82.4915 147.204 81.8828 141.1C81.3707 136.051 82.8868 130.567 82.5181 125.304C82.6849 122.197 82.8518 119.089 83.0187 115.982C83.8468 124.896 84.6895 133.696 85.6318 142.624C86.3692 148.629 86.9925 154.62 87.7299 160.625C88.2596 164.633 88.7893 168.641 89.3043 172.764C91.3411 183.107 92.1341 194.103 94.3113 205.16C99.2716 229.786 103.515 255.479 109.447 279.766C110.966 286.915 112.599 294.078 114.117 301.226C116.315 310.316 118.642 319.306 120.839 328.396C121.744 331.293 122.648 334.191 123.552 337.088C124.021 337.96 124.36 338.93 124.828 339.802C124.299 340.313 123.669 340.696 122.727 340.807ZM125.674 338.635C125.405 338.021 125.136 337.407 124.881 336.679C125.408 337.095 125.791 337.723 125.674 338.635C125.788 338.65 125.788 338.65 125.674 338.635ZM125.54 286.352C121.066 266.076 117.062 245.745 113.246 224.858C108.827 200.534 106.437 175.774 103.063 150.54C101.125 135.805 100.929 121.062 99.1356 106.114C97.1077 88.4698 96.8943 70.2476 95.3668 52.3203C94.9689 47.2859 94.9426 42.0675 94.4598 36.7905C93.9769 31.5134 93.4648 26.4644 94.8668 20.9657C95.8179 22.5944 95.452 25.4447 95.6598 27.4415C95.929 32.5752 96.1982 37.7089 96.4673 42.8427C97.7958 60.5126 99.0101 78.168 100.353 95.7239C101.963 110.301 102.501 125.088 104.239 139.566C104.596 144.015 105.067 148.48 105.424 152.929C106.592 162.814 107.759 172.699 109.056 182.484C110.437 192.512 111.947 202.441 113.328 212.469C115.444 224.909 117.575 237.235 119.933 249.59C123.064 265.869 126.31 282.163 130.299 298.088C131.806 304.424 133.313 310.759 134.805 317.209C134.416 318.434 134.141 319.673 133.752 320.898C130.934 309.411 128.23 297.938 125.54 286.352ZM128.636 340.87C129.306 341.072 129.52 341.215 129.675 341.814C129.104 341.741 128.791 341.469 128.636 340.87ZM131.837 348.466C129.912 348.103 129.221 345.349 128.712 343.893C130.134 345.466 130.286 346.992 132.9 346.516C133.084 346.888 133.169 347.13 133.353 347.502C132.938 348.028 132.437 348.311 131.837 348.466ZM134.164 343.897C134.179 343.783 134.308 343.684 134.536 343.713C134.507 343.941 134.521 343.827 134.378 344.041C134.392 343.927 134.278 343.912 134.164 343.897ZM134.427 346.365C134.357 346.008 134.272 345.765 134.302 345.537C134.817 345.14 135.232 344.614 135.747 344.216C135.531 345 135.101 345.64 134.656 346.394C134.542 346.379 134.427 346.365 134.427 346.365ZM134.951 347.707C135.639 346.868 136.456 345.93 136.944 344.834C137.416 344.778 137.699 345.278 138.141 345.451C138.697 345.638 142.069 344.68 142.441 344.496C142.994 345.61 138.425 350.471 137.439 350.923C135.841 350.718 135.133 349.005 134.951 347.707ZM137.421 351.964C140.134 351.617 142.619 346.721 143.869 344.216C143.983 344.23 144.097 344.245 144.211 344.26C142.961 346.765 140.488 352.474 137.421 351.964ZM144.396 340.111C144.554 339.784 144.712 339.457 144.998 339.03C144.94 339.486 144.668 339.799 144.396 340.111ZM144.799 343.292C144.744 342.822 144.902 342.494 145.174 342.181C145.016 342.509 144.843 342.95 144.799 343.292ZM144.504 337.46C143.977 337.045 143.778 336.787 143.579 336.53C143.579 336.53 146.438 330.523 146.755 329.868C148.853 325.27 150.196 320.227 151.897 315.115C152.561 312.65 153.24 310.072 154.019 307.623C154.344 308.707 152.467 315.188 152.078 316.413C150.521 321.312 149.579 325.943 147.753 330.228C146.632 332.634 145.625 335.054 144.504 337.46ZM152.488 331.299C150.893 334.687 148.976 340.583 146.201 342.313C147.662 336.359 152.254 333.124 154.071 327.099C154.168 328.154 152.962 330.317 152.488 331.299ZM154.999 313.543C156.059 308 157.218 302.586 158.277 297.044C158.845 293.524 159.413 290.004 159.98 286.484C160.361 283.52 160.87 280.457 161.251 277.492C162.085 270.994 162.934 264.381 163.654 257.867C164.918 259.768 164.21 267.094 163.285 270.684C162.193 277.381 161.101 284.079 159.896 290.762C159.041 294.708 158.3 298.669 157.446 302.616C156.749 306.235 155.81 309.938 154.999 313.543ZM164.312 279.855C163.832 282.691 163.238 285.512 162.758 288.348C162.09 291.739 161.309 295.115 160.642 298.506C159.831 302.11 159.006 305.829 158.081 309.419C157.475 311.427 156.869 313.435 156.263 315.444C157.305 310.942 158.333 306.554 159.374 302.052C160.1 298.205 160.926 294.486 161.651 290.639C162.146 287.69 162.626 284.854 163.121 281.904C163.923 276.56 164.739 271.102 165.655 265.773C167.256 269.571 164.411 275.464 164.312 279.855ZM166.583 265.776C165.612 261.596 166.531 255.339 167.303 250.224C169.033 253.922 167.297 261.117 166.583 265.776ZM175.337 205.71C174.89 202.871 174.328 200.018 174.896 196.498C175.981 205.213 177.052 214.042 178.252 222.772C179.75 231.888 180.906 240.96 182.791 249.778C183.929 255.371 185.182 260.978 186.335 266.457C185.954 264.902 185.589 263.233 185.208 261.677C183.967 256.882 183.326 251.933 182.1 247.024C179.507 236.493 178.372 225.453 176.552 214.326C176.089 211.601 175.77 208.663 175.337 205.71ZM185.541 332.297C185.412 332.397 185.283 332.496 185.04 332.581C183.633 330.893 183.554 328.797 182.647 326.826C180.563 322.271 179.951 317.093 178.298 311.898C176.802 306.375 175.307 300.852 173.697 295.314C173.191 292.932 172.556 290.648 172.05 288.265C170.903 285.453 170.715 281.488 169.668 278.804C169.062 276.293 168.441 273.895 167.836 271.384C168.319 267.622 168.916 263.874 169.384 260.225C170.666 265.605 171.948 270.985 173.115 276.35C176.203 288.451 179.404 300.567 182.506 312.554C183.961 317.492 185.316 322.302 186.77 327.24C187.121 329.023 186.03 331.201 185.541 332.297ZM193.795 277.034C194.462 278.163 195.164 281.729 195.088 283.226C194.491 282.454 193.619 278.402 193.795 277.034ZM190.054 331.486C189.714 330.515 189.003 329.728 188.807 328.544C189.035 328.574 189.249 328.717 189.591 328.761C189.831 329.603 190.057 330.559 190.297 331.401C190.168 331.5 190.168 331.5 190.054 331.486ZM195.328 297.627C194.848 295.943 194.497 294.16 194.017 292.476C193.941 289.453 193.979 286.445 193.903 283.422C195.451 285.822 195.583 293.836 195.328 297.627ZM193.229 333.863C193.159 333.507 193.074 333.264 192.89 332.893C193.118 332.922 193.346 332.951 193.56 333.095C193.545 333.209 193.516 333.437 193.615 333.565C193.472 333.779 193.343 333.878 193.229 333.863ZM194.098 334.323C194.496 334.837 194.795 335.223 195.436 335.653C196.006 335.727 196.249 335.642 196.521 335.329C196.647 336.156 196.044 337.238 195.6 337.992C194.403 337.375 193.908 335.805 193.598 334.606C193.712 334.621 193.855 334.407 194.098 334.323ZM195.333 340.971C194.479 340.398 193.756 338.799 193.659 337.743C194.057 338.258 194.341 338.758 194.997 339.074C195.681 339.162 195.825 338.948 196.197 338.764C195.951 339.776 195.649 340.316 195.333 340.971ZM206.777 242.774C206.889 239.196 207.015 235.504 207.012 231.911C207.269 227.192 207.413 222.459 207.67 217.741C208.311 209.131 208.838 200.507 209.479 191.898C210.041 185.712 210.475 179.625 211.037 173.439C211.3 171.387 211.563 169.335 211.713 167.268C212.635 160.085 213.442 152.888 214.35 145.819C215.035 141.387 215.605 136.941 216.305 132.395C217.309 126.381 218.313 120.368 219.317 114.355C220.701 118.936 217.402 128.364 217.157 133.895C216.674 142.177 213.639 154.072 213.568 162.754C213.276 165.035 213.097 167.33 212.79 169.724C212.494 172.931 212.084 176.123 211.789 179.33C211.268 186.101 210.732 192.985 210.211 199.756C209.909 204.817 209.593 209.991 209.292 215.052C209.11 218.273 208.914 221.609 208.847 224.845C208.572 235.124 208.311 245.289 208.036 255.568C208.085 266.932 208.021 278.28 208.085 289.53C208.208 295.804 208.331 302.078 208.454 308.352C208.781 313.029 208.907 318.376 208.249 323.507C207.769 321.823 207.289 320.139 206.908 318.583C207.063 314.663 207.104 310.728 207.245 306.922C207.049 296.698 206.838 286.589 206.757 276.38C206.078 265.399 207.199 253.954 206.777 242.774ZM203.226 336.422C202.582 336.918 201.804 334.848 202.006 334.179C202.135 334.079 203.136 333.513 203.294 333.185C203.706 333.586 203.671 335.667 203.226 336.422ZM200.361 335.242C200.232 335.342 200.218 335.456 200.089 335.555C199.975 335.541 199.861 335.526 199.747 335.511C199.905 335.184 200.133 335.213 200.361 335.242ZM201.233 343.814C200.437 342.785 198.869 337.832 198.945 336.335C199.53 336.295 199.987 336.353 200.329 336.397C200.472 336.184 200.73 335.985 200.873 335.772C201.544 335.974 201.424 337.813 203.036 337.904C203.273 339.672 202.108 342.42 201.476 343.73C201.347 343.829 201.347 343.829 201.233 343.814ZM202.456 345.13C202.099 345.2 202 345.072 201.886 345.057C202.834 343.093 203.867 341.371 204.262 338.293C204.599 340.19 202.945 344.034 202.456 345.13ZM205.872 334.791C205.819 333.394 205.995 332.025 206.171 330.657C207.051 331.929 206.633 333.382 205.872 334.791ZM207.271 330.219C206.99 328.792 206.308 327.778 206.642 326.082C207.438 327.111 207.719 328.538 207.499 330.248C207.385 330.234 207.385 330.234 207.271 330.219ZM211.052 330.588C211.462 331.916 210.113 334.292 209.639 335.274C207.798 335.154 208.778 332.035 209.141 330.111C209.925 330.328 210.253 330.486 211.052 330.588ZM212.836 209.133C212.546 215.006 212.256 220.879 212.081 226.767C212.01 230.93 211.826 235.078 211.741 239.355C212.411 253.116 210.839 267.169 211.539 280.702C211.541 284.295 211.53 288.002 211.647 291.61C212.22 299.796 212.179 308.25 211.895 316.79C211.714 320.011 211.509 326.127 209.946 328.36C209.121 327.559 209.811 325.794 209.788 324.168C209.94 321.175 209.964 318.28 210.116 315.287C209.923 304.136 209.744 292.872 209.551 281.722C209.551 272.682 209.537 263.757 209.537 254.718C209.631 252.18 209.724 249.642 209.719 246.976C209.929 239.007 210.126 231.151 210.336 223.182C210.5 221.001 210.679 218.706 210.729 216.511C211.106 209.954 211.583 203.525 211.961 196.968C212.318 192.378 212.675 187.788 213.032 183.198C213.562 178.167 213.978 173.121 214.508 168.09C214.903 165.012 215.184 161.919 215.579 158.84C215.974 155.762 216.369 152.684 216.65 149.591C217.543 142.636 218.535 135.81 219.428 128.855C220.077 131.025 219.469 133.96 219.489 136.512C219.035 140.046 218.582 143.581 218.128 147.115C217.569 152.374 217.01 157.634 216.451 162.893C216.126 166.328 215.687 169.748 215.377 173.069C215.476 182.237 213.029 193.164 213.328 202.59C213.263 204.899 213.114 206.966 212.836 209.133ZM248.301 174.166C248.954 175.409 248.389 178.002 248.541 179.528C248.965 185.261 247.976 191.16 246.887 196.931C246.685 193.081 246.483 189.23 246.267 185.494C246.993 181.647 247.704 177.914 248.301 174.166ZM244.683 212.293C244.66 210.668 244.522 209.028 244.484 207.516C244.086 202.482 243.762 196.877 245.058 193.104C245.125 194.387 245.178 195.784 245.245 197.068C245.643 202.102 245.456 207.177 244.683 212.293ZM243.972 18.0855C243.957 18.1995 244.056 18.3282 244.027 18.5562C243.799 18.5269 243.828 18.2989 243.972 18.0855ZM243.72 20.9505C243.893 25.0288 244.194 29.0077 244.367 33.0861C244.861 43.6956 245.341 54.4191 245.721 65.0139C246.874 79.5323 246.098 94.6144 247.093 109.46C247.108 113.866 247.222 118.4 247.236 122.806C247.573 138.263 247.894 153.833 248.345 169.304C247.648 172.923 247.066 176.557 246.384 180.062C246.141 175.627 246.012 171.207 245.884 166.787C245.691 155.636 245.369 144.585 245.176 133.435C245.062 128.901 244.962 124.252 244.848 119.718C243.669 104.501 244.919 88.4367 243.696 73.5616C243.497 68.7846 243.412 64.0222 243.213 59.2451C242.961 53.0706 242.71 46.8962 242.458 40.7217C241.794 34.1465 241.472 27.6154 243.72 20.9505ZM240.609 34.3421C240.834 39.8178 240.945 45.279 241.185 50.6407C242.159 62.9343 241.621 75.2654 242.452 87.7723C242.911 109.503 243.37 131.233 243.829 152.964C243.993 159.822 244.172 166.567 244.335 173.425C244.871 180.1 245.322 186.532 243.899 193.998C243.495 186.297 243.22 178.497 242.817 170.797C242.574 161.842 242.331 152.887 242.088 143.933C241.67 122.787 241.252 101.641 240.834 80.4953C240.523 70.2571 240.085 60.1183 239.774 49.8802C239.517 45.5592 238.639 38.8408 240.609 34.3421ZM240.062 22.3351C240.755 24.1625 239.506 26.6676 239.128 28.7052C238.549 26.8924 239.599 24.13 240.062 22.3351ZM227.982 343.308C226.516 342.076 226.452 339.866 226.215 338.097C225.615 333.733 226.311 330.113 225.799 325.064C225.232 319.545 226.209 312.833 225.557 307.07C226.06 305.86 225.835 300.384 225.697 298.744C226.043 297.861 225.92 291.588 225.753 290.175C225.791 287.167 225.844 284.045 225.882 281.037C225.771 275.576 225.674 270 225.563 264.539C226.037 263.557 225.496 258.736 225.3 257.552C225.759 256.684 225.224 250.009 224.998 249.053C224.931 247.77 224.993 246.387 224.925 245.104C224.779 241.724 224.633 238.345 224.372 234.95C224.299 231.001 224.127 226.922 224.053 222.973C223.638 214.459 223.237 205.832 222.822 197.319C222.772 194.994 222.722 192.67 222.687 190.232C222.123 174.746 221.558 159.26 220.864 143.874C221.874 136.007 222.998 128.155 224.023 120.174C224.435 134.134 224.848 148.094 225.374 162.068C225.757 171.736 226.141 181.404 226.41 191.058C227.141 207.956 227.873 224.854 228.604 241.752C228.742 247.911 228.993 254.086 229.131 260.246C229.107 267.66 229.198 275.088 229.189 282.388C229.06 287.007 229.06 291.527 228.931 296.146C229.566 307.469 228.413 320.069 229.185 328.512C229.308 330.266 229.302 332.12 229.425 333.874C229.736 335.073 229.932 336.257 230.242 337.455C230.652 338.783 228.597 343.039 227.982 343.308ZM231.813 332.442C231.319 326.352 231.939 319.71 231.547 312.823C231.556 310.042 231.565 307.262 231.46 304.467C231.556 301.003 231.668 297.425 231.65 293.946C231.7 287.23 231.75 280.515 231.8 273.8C230.936 257.928 231.756 242.504 230.308 226.673C230.15 222.48 229.992 218.288 229.848 213.982C229.155 198.595 228.576 183.223 227.882 167.837C227.824 163.773 227.651 159.695 227.607 155.517C227.385 149.115 227.163 142.712 226.955 136.195C226.946 134.456 226.952 132.603 226.943 130.863C226.797 122.964 226.551 114.936 226.405 107.036C226.87 104.315 227.222 101.579 227.687 98.8569C227.781 105.359 228.003 111.761 228.096 118.263C228.573 134.433 228.936 150.588 229.413 166.758C230.527 193.324 231.657 219.777 232.772 246.343C232.906 253.429 233.055 260.402 233.19 267.488C233.219 276.3 233.233 285.225 233.263 294.037C233.242 296.004 233.107 297.957 233.072 300.039C233.017 304.088 232.961 308.137 233.005 312.314C233.227 318.717 232.893 324.932 231.813 332.442ZM255.313 168.345C256.203 171.356 254.737 174.645 254.368 178.422C253.554 182.953 252.869 187.385 252.056 191.916C250.967 188.647 252.767 179.143 253.979 175.127C254.385 172.861 254.792 170.596 255.313 168.345ZM255.091 161.942C255.6 163.398 253.253 169.934 252.872 172.899C252.477 171.457 254.514 163.722 255.091 161.942ZM249.389 200.034C249.858 200.905 249.539 202.486 249.635 203.542C250.007 207.877 248.734 213.277 247.961 218.393C247.739 216.51 247.645 214.528 247.537 212.66C248.192 208.456 248.734 204.237 249.389 200.034ZM246.486 224.461C246.858 228.797 246.24 234.512 245.854 239.33C245.687 233.398 245.447 228.037 246.281 221.538C246.392 222.479 246.489 223.535 246.486 224.461ZM232.99 330.507C233.657 331.636 233.356 336.696 232.896 337.564C231.676 335.322 232.639 333.243 232.99 330.507ZM233.695 342.187C233.566 342.286 233.452 342.271 233.323 342.371C232.712 341.713 232.53 340.415 232.191 339.444C232.747 339.631 233.233 339.462 233.52 339.035C234.216 339.936 234.155 341.319 233.695 342.187ZM264.117 155.8C264.102 155.914 263.959 156.127 263.944 156.241C263.888 155.77 263.833 155.3 263.891 154.843C263.947 155.314 264.032 155.557 264.117 155.8ZM263.833 150.78C263.929 151.835 263.912 152.876 264.008 153.931C263.894 153.917 263.651 154.001 263.537 153.987C263.312 153.031 263.558 152.019 263.833 150.78ZM237.582 345.351C238.805 346.667 238.319 346.836 240.333 346.515C240.444 347.457 239.513 348.38 239.182 349.149C239.054 349.248 238.925 349.348 238.682 349.433C237.628 348.602 237.62 346.863 237.324 345.55C237.438 345.564 237.567 345.465 237.582 345.351ZM238.872 352.47C238.044 352.596 237.722 350.584 237.681 349.999C238.208 350.415 238.307 350.543 239.235 350.547C239.507 350.234 239.908 349.822 240.18 349.509C240.406 350.465 239.302 351.83 238.872 352.47ZM267.225 156.894C267.298 156.324 267.371 155.754 267.558 155.198C267.927 155.941 267.512 156.467 267.225 156.894ZM301.165 125.672C301.221 126.143 301.276 126.613 301.431 127.213C301.045 127.511 301.06 127.397 300.887 127.838C300.559 127.68 300.474 127.438 299.904 127.364C300.433 126.853 300.849 126.327 301.165 125.672ZM301.428 128.14C301.171 128.338 301.057 128.324 300.957 128.195C300.972 128.081 300.986 127.967 300.887 127.838C301.001 127.853 301.115 127.868 301.343 127.897C301.329 128.011 301.443 128.025 301.428 128.14ZM291.489 134.165C291.563 133.595 291.636 133.025 291.609 132.326C291.896 131.899 292.11 132.043 291.782 131.885C291.984 131.215 292.057 130.645 292.259 129.976C293.003 129.608 293.445 129.78 294.343 130.011C294.284 130.467 294.211 131.038 294.153 131.494C293.682 131.549 293.196 131.718 292.725 131.774C292.353 131.958 291.706 133.381 291.489 134.165ZM290.327 163.104C290.822 155.635 291.302 148.279 291.797 140.81C291.691 138.015 292.376 133.583 293.922 132.391C293.556 135.241 293.304 138.106 292.938 140.957C292.414 148.654 291.89 156.351 291.495 163.949C290.801 175.681 289.993 187.398 289.285 199.244C288.761 206.941 288.237 214.639 287.827 222.351C287.499 226.713 287.172 231.074 286.958 235.451C286.276 243.476 285.579 251.614 285.011 259.654C284.774 257.885 284.537 256.116 284.286 254.462C284.476 252.979 284.651 251.611 284.728 250.114C285.219 243.572 285.726 236.915 286.217 230.373C287.473 207.935 288.957 185.527 290.327 163.104ZM278.204 263.879C278.385 265.177 278.567 266.475 278.748 267.774C279.266 270.969 280.241 274.223 279.658 277.857C279.459 273.08 277.663 268.098 278.204 263.879ZM271.08 332.036C270.623 327.457 270.281 322.894 269.824 318.315C268.73 307.86 268.405 297.736 266.667 287.778C266.038 283.641 265.409 279.505 264.794 275.254C264.051 271.102 263.351 266.608 264.153 261.265C265.145 267.998 266.137 274.731 267.13 281.464C268.432 289.396 269.234 297.611 270.249 305.969C271.379 314.343 271.867 322.286 271.08 332.036ZM280.499 251.426C281.224 256.618 281.406 262.436 280.457 268.92C279.898 265.14 279.354 261.246 278.795 257.465C279.179 253.574 279.562 249.683 279.817 245.891C280.153 247.789 280.262 249.657 280.499 251.426ZM276.941 167.065C276.856 166.822 276.885 166.594 276.915 166.366C276.885 166.594 276.97 166.837 276.941 167.065ZM276.648 169.345C277.541 171.429 276.903 174.593 277.052 177.045C277.16 183.433 277.268 189.821 277.362 196.323C277.889 205.778 277.388 215.101 278.172 224.357C278.971 233.499 279.957 242.085 278.324 253.001C277.85 249.463 277.505 245.827 277.145 242.304C276.747 237.269 276.349 232.235 275.951 227.2C275.632 219.743 275.313 212.285 274.98 204.941C274.944 202.503 275.024 200.079 274.988 197.641C274.795 191.01 274.731 184.28 274.538 177.65C275.36 174.858 276.054 172.166 276.648 169.345ZM273.244 185.017C273.44 195.24 273.75 205.478 273.946 215.702C274.713 225.999 274.909 236.222 276.062 246.221C276.366 249.273 276.685 252.211 276.99 255.263C277.382 257.632 277.803 259.772 277.423 262.736C276.431 256.003 275.652 249.413 274.774 242.695C273.425 231.512 273.361 220.262 272.442 208.439C272.296 205.06 272.264 201.695 272.117 198.315C271.886 194.693 271.591 188.861 273.244 185.017ZM261.642 265.462C261.508 267.415 261.373 269.368 261.338 271.449C261.247 273.06 261.057 274.542 260.966 276.153C260.799 279.261 260.618 282.482 260.565 285.604C260.018 282.637 259.585 279.684 259.152 276.731C259.643 270.189 260.036 263.517 260.527 256.975C260.779 258.629 261.031 260.284 261.282 261.939C261.364 263.108 261.446 264.278 261.642 265.462ZM272.92 170.373C273.698 172.443 272.244 176.544 271.837 178.81C271.102 176.398 272.355 172.966 272.92 170.373ZM262.055 243.264C262.585 247.272 262.728 251.579 262.128 256.253C261.947 254.955 261.88 253.672 261.698 252.373C261.253 248.608 261.125 244.188 261.71 239.627C261.777 240.91 261.973 242.095 262.055 243.264ZM258.385 261.915C258.382 262.842 258.007 268.472 257.75 268.671C257.472 266.317 257.094 263.835 256.816 261.482C257.352 254.597 257.888 247.712 258.423 240.828C258.505 241.997 258.716 243.067 258.798 244.237C258.965 245.649 259.117 247.175 259.284 248.587C259.055 253.077 258.727 257.439 258.385 261.915ZM246.49 344.64C247.219 344.386 247.591 344.202 248.006 343.676C248.957 345.305 248.24 346.372 247.365 347.766C247.251 347.751 247.137 347.736 247.008 347.836C246.812 346.652 246.086 345.979 246.49 344.64ZM269.642 159.754C269.414 159.724 269.414 159.724 269.314 159.596C269.344 159.368 269.387 159.026 269.303 158.783C269.502 159.04 269.572 159.397 269.642 159.754ZM260.361 223.925C260.858 224.568 260.624 226.392 260.736 227.333C261.04 230.386 260.727 234.633 260.144 238.267C259.881 235.8 259.603 233.446 259.454 230.993C259.761 228.599 260.068 226.205 260.361 223.925ZM245.442 355.515C244.477 354.001 244.152 348.396 244.942 346.759C245.056 346.774 245.17 346.789 245.399 346.818C245.083 347.473 245.963 348.745 246.833 349.204C247.204 349.02 247.661 349.078 248.261 348.924C247.155 351.215 246.505 353.566 245.442 355.515ZM246.394 357.144C246.066 356.986 245.966 356.857 245.981 356.743C247.611 355.794 249.455 350.468 249.791 347.845C250.4 349.43 247.067 356.419 246.394 357.144ZM249.631 340.06C249.528 340.858 249.411 341.77 249.423 342.583C249.227 341.399 249.285 340.943 249.631 340.06ZM253.901 334.814C253.655 331.305 253.567 327.47 253.479 323.634C253.784 317.647 254.074 311.774 254.264 305.772C254.478 301.395 254.82 296.92 255.034 292.543C255.561 283.919 255.973 275.28 256.5 266.656C256.682 267.954 256.878 269.138 257.059 270.436C257.999 275.772 256.579 282.311 256.831 288.486C256.538 295.286 256.131 302.071 255.838 308.871C255.683 312.792 255.399 316.811 255.244 320.732C255.387 325.038 254.828 330.297 253.901 334.814ZM258.85 281.792C258.961 282.733 259.072 283.675 259.298 284.631C259.62 286.642 259.927 288.768 260.363 290.794C260.211 293.787 260.044 296.895 259.892 299.888C260.184 306.648 258.976 314.257 258.738 321.528C258.557 324.749 258.244 328.997 257.436 331.675C256.83 333.683 256.11 335.677 255.49 337.799C255.753 335.747 256.002 333.809 256.265 331.756C256.52 327.965 256.903 324.074 257.158 320.282C257.656 307.366 258.253 294.579 258.85 281.792ZM254.407 346.236C252.841 344.876 253.874 343.154 254.48 341.146C255.536 341.05 255.964 341.337 256.839 339.942C257.076 341.711 255.039 344.926 254.407 346.236ZM268.428 353.598C267.904 352.256 267.494 350.929 267.099 349.488C266.35 342.67 265.601 335.852 264.966 329.049C264.638 324.371 264.311 319.693 263.983 315.016C263.401 309.61 262.818 304.204 262.236 298.799C262.42 294.65 262.719 290.517 262.918 286.254C263.085 283.147 263.266 279.925 263.319 276.803C263.585 278.343 263.738 279.87 264.018 281.296C264.534 285.419 265.163 289.555 265.678 293.678C267.448 302.481 266.842 313.529 268.253 323.329C268.513 326.723 268.888 330.132 269.163 333.412C270.158 339.218 270.723 345.665 268.428 353.598ZM273.029 347.583C272.397 344.373 271.808 340.821 271.548 337.427C271.785 334.676 272.007 332.039 272.13 329.273C272.628 329.916 272.546 333.267 272.628 334.436C273.298 339.158 273.787 342.581 273.029 347.583ZM282.81 269.57C284.16 271.713 283.191 280.165 282.708 283.927C282.471 282.158 282.234 280.389 281.982 278.735C282.263 275.642 282.529 272.663 282.81 269.57ZM273.728 352.077C273.444 351.577 273.304 350.863 273.149 350.264C273.351 349.595 273.98 349.212 274.296 348.557C274.621 349.642 273.874 350.937 273.728 352.077ZM281.777 293.89C281.528 291.308 280.993 289.154 281.402 285.961C282.31 287.932 282.128 291.154 281.777 293.89ZM302.593 129.911C302.637 129.569 302.567 129.213 302.611 128.871C302.924 129.143 303.094 129.628 303.035 130.084C302.921 130.069 302.821 129.941 302.593 129.911ZM277.928 355.513C278.44 356.042 278.194 357.054 279.251 356.958C279.049 357.627 278.961 358.311 278.759 358.981C278.32 357.881 278.124 356.697 277.928 355.513ZM278.621 361.86C278.452 361.375 278.381 361.018 278.326 360.547C278.554 360.577 278.668 360.591 278.896 360.621C278.738 360.948 278.68 361.404 278.621 361.86ZM281.677 357.037C281.706 356.809 281.721 356.695 281.735 356.581C281.835 356.71 281.706 356.809 281.677 357.037ZM285.241 362.71C284.934 360.585 284.627 358.459 284.448 356.234C284.72 355.921 284.82 356.05 284.978 355.723C286.017 356.667 285.733 360.687 285.241 362.71ZM292.365 308.113C293.536 294.472 294.692 280.946 295.863 267.305C297.403 245.367 299.042 223.559 300.582 201.621C301.226 192.085 301.998 182.449 302.642 172.913C303.049 166.128 303.441 159.457 303.848 152.671C304.109 147.026 304.355 141.495 304.615 135.85C307.319 138.283 305.259 144.392 305.388 148.813C305.209 151.108 305.016 153.516 304.952 155.826C304.571 163.31 304.062 170.893 303.681 178.377C303.532 180.444 303.268 182.497 303.119 184.563C301.72 202.694 300.45 220.726 299.051 238.857C298.304 249.192 297.672 259.541 296.925 269.875C296.718 272.398 296.396 274.906 296.173 277.543C295.45 284.983 294.856 292.324 294.133 299.764C293.434 308.829 292.734 317.895 292.163 326.861C292.081 325.692 291.999 324.522 291.917 323.353C291.739 321.128 291.56 318.903 291.396 316.564C291.876 313.729 292.114 310.978 292.365 308.113ZM285.73 366.134C285.891 364.879 286.181 363.526 286.47 362.172C286.825 363.029 286.16 365.493 285.73 366.134ZM289.707 354.128C289.456 352.473 289.304 350.947 289.166 349.307C289.479 345.059 289.907 340.826 290.234 336.464C290.331 337.52 290.428 338.575 290.524 339.631C290.94 343.624 291.036 349.199 289.707 354.128ZM293.117 336.603C293.831 327.423 294.431 318.229 295.131 309.163C295.766 302.407 296.287 295.637 296.922 288.881C297.215 286.6 297.379 284.419 297.672 282.139C298.134 275.825 298.611 269.396 299.074 263.081C299.7 254.586 300.212 246.076 300.839 237.58C301.761 225.878 302.583 214.047 303.505 202.344C303.83 198.909 304.155 195.474 304.351 192.139C304.603 189.274 304.869 186.295 305.007 183.415C305.578 174.449 306.034 165.468 306.605 156.502C306.38 151.026 308.095 145.799 307.483 140.622C307.246 138.853 306.895 137.069 306.014 135.797C305.602 135.397 305.174 135.11 304.762 134.71C304.463 134.324 304.343 131.643 304.059 131.143C304.873 131.131 306.044 131.05 306.699 131.366C306.828 131.266 306.957 131.167 307.085 131.068C309.31 131.817 309.845 133.971 309.494 136.708C308.768 136.035 307.972 135.006 306.831 134.859C306.802 135.087 306.787 135.201 306.758 135.429C311.262 137.398 308.484 144.574 308.753 149.708C308.224 159.259 307.58 168.795 307.05 178.346C306.783 181.325 306.517 184.304 306.251 187.283C304.837 205.528 303.537 223.788 302.123 242.033C301.538 251.113 300.938 260.308 300.353 269.388C300.115 272.139 299.878 274.89 299.641 277.641C299.375 280.619 298.98 283.698 298.713 286.677C298.061 294.474 297.408 302.27 296.869 310.082C296.553 315.256 296.108 320.53 295.792 325.705C295.628 327.885 295.45 330.18 295.286 332.361C294.873 336.48 294.589 340.5 294.176 344.619C293.714 341.894 293.465 339.313 293.117 336.603ZM293.401 355.181C293.333 353.898 292.754 352.085 293.085 351.316C293.412 351.474 293.626 351.618 293.969 351.662C293.808 352.916 293.547 354.041 293.401 355.181Z" fill="#D4F54D"/>
</svg>
