<svg width="163" height="122" viewBox="0 0 163 122" fill="none" xmlns="http://www.w3.org/2000/svg">
<path d="M6.06421 30.5645V24.7461H0.931396V21.3711H6.06421V15.6406H9.77319V21.3711H15.0115V24.7461H9.77319V30.5645H6.06421Z" fill="#D4F54D"/>
<path fill-rule="evenodd" clip-rule="evenodd" d="M110.229 67.09L140 93.5546L110.229 67.09L140 93.5546L96.978 90.3954L95.7597 116L75.4525 112.159L60.5823 104.343L40.4257 107.648L73.2966 65.8305L24.8739 75.7039L53.4669 63.787L24 38.0204L36.1119 20.8562L58.6946 23.2445L75.1583 25.1756L87.0579 35.5444L123.235 20L108.568 52.7248L110.229 67.09Z" fill="#D4F54D"/>
<path d="M61.0928 44.7686L154.033 35.0002L160.491 96.4459L67.5511 106.214L61.0928 44.7686Z" fill="#FF6635"/>
<path d="M149.013 41.1985L154.293 91.4261L72.5706 100.015L67.2915 49.7878L149.013 41.1985Z" fill="white"/>
<path d="M141.535 41.9846L149.013 41.1986L154.293 91.4262L146.814 92.2122L141.535 41.9846Z" fill="#F5F4F7"/>
<path d="M98.3752 118.005L96.9289 111.055L89.8296 111.085L105.229 92.068L113.775 98.9882L98.3752 118.005Z" fill="#5745FF"/>
<path d="M132.792 114.388L132.762 107.289L139.712 105.842L120.695 90.4426L113.775 98.9883L132.792 114.388Z" fill="#5745FF"/>
<path d="M114.378 104.725C121.536 103.972 126.729 97.5597 125.976 90.4016C125.224 83.2436 118.811 78.0507 111.653 78.803C104.495 79.5554 99.3025 85.968 100.055 93.1261C100.807 100.284 107.22 105.477 114.378 104.725Z" fill="#FFD850"/>
<path d="M113.737 98.6253C117.526 98.227 120.276 94.8321 119.877 91.0425C119.479 87.253 116.084 84.5038 112.294 84.9021C108.505 85.3004 105.756 88.6953 106.154 92.4849C106.552 96.2744 109.947 99.0236 113.737 98.6253Z" fill="#FFC72E"/>
<path d="M112.296 84.9202C111.044 85.0518 109.918 85.5188 108.963 86.2065C111.351 87.2769 113.052 89.6675 113.059 92.5298C113.056 94.7692 111.95 96.8126 110.211 98.0782C111.288 98.5522 112.486 98.775 113.739 98.6434C117.514 98.2465 120.278 94.8544 119.879 91.0606C119.48 87.2667 116.072 84.5233 112.296 84.9202Z" fill="#FABD20"/>
<path d="M89.2363 56.199L128.881 52.0321L129.837 61.1265L90.1921 65.2933L89.2363 56.199Z" fill="#FFD850"/>
<path d="M78.7738 75.7435L143.178 68.9743C143.959 68.8923 144.509 68.1921 144.429 67.4297C144.349 66.6673 143.647 66.0987 142.885 66.1789L78.48 72.9481C77.6995 73.0301 77.1491 73.7303 77.2292 74.4927C77.3093 75.2551 77.9933 75.8256 78.7738 75.7435Z" fill="#FF6635"/>
<path d="M143.695 73.8933L128.738 75.4654C127.957 75.5474 127.407 76.2476 127.487 77.01C127.569 77.7906 128.269 78.341 129.032 78.2609L143.989 76.6888C144.77 76.6067 145.32 75.9065 145.24 75.1441C145.158 74.3636 144.476 73.8113 143.695 73.8933Z" fill="#FF6635"/>
<path d="M144.508 81.6264L133.871 82.7445C133.09 82.8265 132.54 83.5267 132.62 84.2891C132.702 85.0696 133.402 85.62 134.165 85.5399L144.802 84.4219C145.583 84.3399 146.133 83.6396 146.053 82.8772C145.971 82.0967 145.289 81.5444 144.508 81.6264Z" fill="#FF6635"/>
<path d="M94.2484 79.0906L79.2909 80.6627C78.5103 80.7447 77.9599 81.4449 78.04 82.2073C78.1221 82.9879 78.8223 83.5383 79.5847 83.4581L94.5422 81.886C95.3228 81.804 95.8732 81.1038 95.793 80.3414C95.711 79.5608 95.029 79.0085 94.2484 79.0906Z" fill="#FF6635"/>
<path d="M90.7409 87.2775L80.1036 88.3956C79.3231 88.4776 78.7727 89.1778 78.8528 89.9402C78.9348 90.7208 79.635 91.2712 80.3974 91.191L91.0347 90.073C91.8153 89.991 92.3657 89.2908 92.2855 88.5284C92.2217 87.7459 91.5215 87.1955 90.7409 87.2775Z" fill="#FF6635"/>
<path d="M82.4922 62.9278C84.2893 62.7389 84.0118 59.9234 82.1965 60.1142C80.4013 60.3212 80.6952 63.1167 82.4922 62.9278Z" fill="#FF6635"/>
<path d="M136.877 57.2115C138.674 57.0227 138.396 54.2071 136.581 54.3979C134.768 54.6069 135.061 57.4023 136.877 57.2115Z" fill="#FF6635"/>
<path d="M42.2236 54.0243L63.644 51.7729C65.4148 51.5868 66.7045 49.9834 66.5172 48.2011L64.1226 25.4184L56.6255 26.2063C54.8547 26.3925 53.2598 25.0923 53.0725 23.3099L52.2793 15.7636L38.356 17.227C36.5853 17.4131 35.2955 19.0165 35.4829 20.7988L38.6706 51.1279C38.8579 52.9102 40.4528 54.2104 42.2236 54.0243ZM44.234 31.9412L57.0862 30.5904C57.6789 30.5281 58.2079 30.9594 58.2706 31.5559C58.3333 32.1524 57.9055 32.6842 57.3129 32.7465L44.4606 34.0973C43.8679 34.1596 43.3389 33.7284 43.2762 33.1318C43.2136 32.5353 43.6413 32.0035 44.234 31.9412ZM44.6872 36.2534L57.5395 34.9026C58.1321 34.8403 58.6611 35.2715 58.7238 35.8681C58.7865 36.4646 58.3587 36.9964 57.7661 37.0587L44.9138 38.4095C44.3212 38.4718 43.7922 38.0405 43.7295 37.444C43.6668 36.8475 44.0946 36.3157 44.6872 36.2534ZM45.1404 40.5656L57.9927 39.2148C58.5853 39.1525 59.1143 39.5837 59.177 40.1802C59.2397 40.7768 58.812 41.3086 58.2193 41.3709L45.367 42.7217C44.7744 42.784 44.2454 42.3527 44.1827 41.7562C44.12 41.1597 44.5478 40.6279 45.1404 40.5656ZM45.5937 44.8778L54.1618 43.9772C54.7545 43.9149 55.2835 44.3462 55.3462 44.9427C55.4089 45.5392 54.9811 46.071 54.3885 46.1333L45.8203 47.0339C45.2276 47.0962 44.6986 46.6649 44.6359 46.0684C44.5732 45.4719 45.001 44.9401 45.5937 44.8778Z" fill="white"/>
<path d="M56.3989 24.0503L63.2677 23.3283L54.4878 16.1709L55.2145 23.0848C55.2772 23.6813 55.8062 24.1125 56.3989 24.0503Z" fill="white"/>
</svg>
