<svg width="154" height="136" viewBox="0 0 154 136" fill="none" xmlns="http://www.w3.org/2000/svg">
<path d="M6.06445 30.5645V24.7461H0.931641V21.3711H6.06445V15.6406H9.77344V21.3711H15.0117V24.7461H9.77344V30.5645H6.06445Z" fill="#D4F54D"/>
<path fill-rule="evenodd" clip-rule="evenodd" d="M125.033 33.6828L125.895 51.1566L125.033 33.6828L125.895 51.1566L140 65.4655L129.014 80.7616L128.58 100.837L107.326 101.629L92.6744 101.711L79.523 102.215L59.6544 110L59.1646 87.2255L28.085 85.1969L50.4099 64.2836L44.0653 48.5706L28 14L65.0647 25.7366L79.9045 21.4321L92.2858 36.506L110.853 24.6718L125.033 33.6828Z" fill="#D4F54D"/>
<path d="M148.432 40.0615L58.1919 49.2998L60.0215 68.8967L150.262 59.6583L148.432 40.0615Z" fill="#F9233D"/>
<path d="M150.289 59.1299L60.0488 68.3682L61.8784 87.9649L152.119 78.7266L150.289 59.1299Z" fill="white"/>
<path d="M152.139 78.1276L61.899 87.366L63.7287 106.963L153.969 97.7245L152.139 78.1276Z" fill="#F9233D"/>
<path d="M146.397 109.487L145.191 108.362L144.625 105.959C144.164 103.999 142.194 102.772 140.225 103.235L132.425 105.069C131.975 105.175 131.681 104.936 131.566 104.822C131.461 104.715 131.214 104.412 131.32 103.964L132.829 97.5779C132.966 96.9998 132.97 96.3824 132.833 95.7983C132.363 93.7252 130.271 92.4298 128.194 92.9183L127.518 93.0773C127.268 93.1361 127.058 93.2912 126.934 93.514L119.764 106.039C118.268 108.663 117.818 111.727 118.509 114.664L120.449 122.916C121.603 127.822 126.539 130.879 131.445 129.725L141.105 127.453C142.599 127.102 143.809 126.033 144.342 124.596L147.787 115.359C148.167 114.354 148.236 113.264 147.989 112.212C147.742 111.161 147.185 110.218 146.397 109.487Z" fill="white"/>
<path d="M111.761 109.929L106.421 111.185C104.452 111.648 103.236 113.625 103.697 115.585L107.465 131.605C107.926 133.566 109.896 134.793 111.865 134.33L117.204 133.074C119.165 132.613 120.391 130.643 119.928 128.674L116.161 112.654C115.691 110.695 113.721 109.468 111.761 109.929Z" fill="white"/>
</svg>
