<svg width="163" height="122" viewBox="0 0 163 122" fill="none" xmlns="http://www.w3.org/2000/svg">
<path d="M6.06445 30.5645V24.7461H0.931641V21.3711H6.06445V15.6406H9.77344V21.3711H15.0117V24.7461H9.77344V30.5645H6.06445Z" fill="#D4F54D"/>
<path fill-rule="evenodd" clip-rule="evenodd" d="M143.516 69.3004L151 98.7325L143.516 69.3004L151 98.7325L90.2063 84.0852L77.9793 110L54.9927 97.0958L28 89.4453L37.6793 69.3004L55.531 60.2522L31.4191 13L77.9793 60.2181L120.04 18.4408L143.545 42.873L143.516 69.3004Z" fill="#D4F54D"/>
<path d="M65.3802 19.9543C55.9481 20.9456 49.0779 29.4441 50.071 38.8921C51.304 50.6234 68.4251 66.2367 69.1562 66.8889C69.8372 67.509 70.9078 67.3964 71.445 66.6483C72.0235 65.8491 85.5253 47.0266 84.2923 35.2952C83.3085 25.8464 74.8215 18.962 65.3802 19.9543ZM68.0882 45.7188C63.3444 46.2174 59.0703 42.7504 58.5709 37.9987C58.0715 33.247 61.5313 28.9671 66.2751 28.4685C71.0188 27.9699 75.2929 31.4369 75.7923 36.1886C76.2918 40.9403 72.8411 45.2192 68.0882 45.7188Z" fill="white"/>
<path d="M127.721 107.617L80.7954 112.549C78.3046 112.81 76.1384 110.889 75.8784 108.415L71.2064 63.9636C70.9446 61.4728 72.6832 59.3258 75.1739 59.064L117.683 54.5962C120.157 54.3362 122.32 56.073 122.582 58.5637L127.721 107.617Z" fill="#FFD850"/>
<path d="M157.118 75.5162L144.585 65.3671C143.796 64.7281 142.677 64.3084 141.614 64.4201L123.382 66.3364L127.719 107.6L156.761 104.547C159.235 104.287 161.137 101.938 160.877 99.4643L158.643 78.2099C158.531 76.9794 158.09 76.136 157.118 75.5162Z" fill="#FF6635"/>
<path d="M75.6326 106.076L75.9677 109.264C76.2277 111.738 78.3764 113.493 80.8672 113.232L156.851 105.245C159.326 104.985 161.228 102.637 160.968 100.162L160.632 96.9742L75.6151 105.91L75.6326 106.076Z" fill="#EE4A16"/>
<path d="M153.285 85.0525L152.709 79.5728L141.533 70.3555L130.026 71.5649L131.682 87.323L153.285 85.0525Z" fill="#5745FF"/>
<path d="M98.8951 119.595C104.957 118.957 109.354 113.527 108.717 107.465C108.08 101.403 102.65 97.0057 96.5878 97.6428C90.526 98.2799 86.1285 103.71 86.7656 109.772C87.4027 115.834 92.8333 120.232 98.8951 119.595Z" fill="#5745FF"/>
<path d="M98.2999 113.932C101.235 113.624 103.363 110.995 103.055 108.06C102.747 105.125 100.118 102.996 97.183 103.305C94.2484 103.613 92.1194 106.242 92.4279 109.177C92.7363 112.111 95.3653 114.24 98.2999 113.932Z" fill="#E8EAE9"/>
<path d="M143.529 114.903C149.591 114.266 153.989 108.835 153.351 102.773C152.714 96.7116 147.284 92.314 141.222 92.9511C135.16 93.5882 130.763 99.0188 131.4 105.081C132.037 111.142 137.467 115.54 143.529 114.903Z" fill="#5745FF"/>
<path d="M142.934 109.241C145.869 108.932 147.998 106.303 147.689 103.369C147.381 100.434 144.752 98.3052 141.817 98.6136C138.882 98.9221 136.754 101.551 137.062 104.486C137.37 107.42 139.999 109.549 142.934 109.241Z" fill="#E8EAE9"/>
<path d="M82.6808 65.7964C80.5554 66.0198 78.9654 67.9833 79.1888 70.1087L81.5903 92.9571C81.8136 95.0825 83.7771 96.6725 85.9025 96.4491C88.028 96.2257 89.618 94.2623 89.3946 92.1368L86.9931 69.2884C86.5871 67.1822 84.8063 65.573 82.6808 65.7964Z" fill="#FABD20"/>
<path d="M97.0275 64.2884C94.902 64.5117 93.312 66.4752 93.5354 68.6006L95.9369 91.4491C96.1603 93.5745 98.1238 95.1645 100.249 94.9411C102.375 94.7177 103.965 92.7542 103.741 90.6288L101.34 67.7804C100.934 65.6741 99.1529 64.065 97.0275 64.2884Z" fill="#FABD20"/>
<path d="M111.374 62.7803C109.249 63.0037 107.659 64.9672 107.882 67.0926L110.284 89.941C110.507 92.0664 112.47 93.6564 114.596 93.433C116.721 93.2096 118.311 91.2462 118.088 89.1207L115.686 66.2723C115.28 64.1661 113.5 62.5569 111.374 62.7803Z" fill="#FABD20"/>
</svg>
