<svg width="163" height="114" viewBox="0 0 163 114" fill="none" xmlns="http://www.w3.org/2000/svg">
<path d="M6.06427 30.5645V24.7461H0.931458V21.3711H6.06427V15.6406H9.77325V21.3711H15.0115V24.7461H9.77325V30.5645H6.06427Z" fill="#D4F54D"/>
<path fill-rule="evenodd" clip-rule="evenodd" d="M142.35 87.9987L82.9588 113L142.35 87.9987L82.9588 113L34.1562 88.1844L27.9997 41.9695L73.3082 44.4362L84.8042 16.8005L159 16L142.35 87.9987Z" fill="#D4F54D"/>
<path d="M111.218 22.6584L74.4393 45.6223C73.9741 45.9129 73.7219 46.4402 73.7793 46.9868L78.6674 93.4937C78.7249 94.0402 79.0812 94.5036 79.5966 94.6911L120.347 109.524C121.165 109.818 122.061 109.724 122.799 109.266L159.575 86.285C160.04 85.9944 160.293 85.4671 160.235 84.9206L155.347 38.4136C155.29 37.8671 154.933 37.4038 154.418 37.2162L113.652 22.4025C112.85 22.0896 111.937 22.1856 111.218 22.6584Z" fill="#FF855F"/>
<path d="M73.9353 46.1941C73.8065 46.4321 73.7507 46.7143 73.7812 47.0046L78.6693 93.5116C78.7267 94.0581 79.0831 94.5215 79.5985 94.709L120.348 109.525C120.756 109.672 121.19 109.73 121.595 109.687L116.551 61.6941L73.9353 46.1941Z" fill="#EE4A16"/>
<path d="M155.013 37.6726C155.188 37.8786 155.301 38.143 155.332 38.4333L160.22 84.9403C160.278 85.4868 160.025 86.0141 159.56 86.3048L122.782 109.269C122.413 109.497 122.001 109.644 121.595 109.687L116.551 61.6941L155.013 37.6726Z" fill="#FF6635"/>
<path d="M90.006 89.8164C89.8031 89.8377 89.5949 89.8078 89.383 89.7437L83.0916 87.4522C82.3626 87.1834 81.9686 86.3615 82.2331 85.6257C82.4976 84.8899 83.3105 84.4936 84.0395 84.7624L90.331 87.0539C91.06 87.3227 91.454 88.1446 91.1895 88.8804C91.0049 89.4006 90.5301 89.7613 90.006 89.8164Z" fill="#FF855F"/>
<path d="M95.1347 85.5991C94.9319 85.6204 94.7236 85.5905 94.5118 85.5264L82.4443 81.1309C81.7153 80.8622 81.3213 80.0402 81.5858 79.3044C81.8503 78.5686 82.6632 78.1723 83.3923 78.4411L95.4597 82.8366C96.1887 83.1054 96.5828 83.9273 96.3183 84.6631C96.1354 85.2004 95.6588 85.544 95.1347 85.5991Z" fill="#FF6635"/>
<path d="M141.988 45.7934L99.209 30.2069L89.0271 36.5956L131.909 52.1885L141.988 45.7934Z" fill="#7768FF"/>
<path d="M131.909 52.1884L133.528 67.5939C133.584 68.1234 134.161 68.4081 134.609 68.1192L142.964 62.8895C143.429 62.5989 143.681 62.0716 143.624 61.5251L141.969 45.778L131.909 52.1884Z" fill="#5745FF"/>
<path d="M59.6519 18.7762C49.9432 21.4031 44.1491 31.496 46.7761 41.2046C49.4031 50.9133 59.4959 56.7074 69.2046 54.0805C78.9132 51.4535 84.7074 41.3607 82.0804 31.652C79.4534 21.9433 69.3606 16.1492 59.6519 18.7762ZM63.8791 45.3387L53.6163 39.3538L55.8696 35.4288L62.1776 39.0502L69.9031 25.5931L73.828 27.8463L63.8791 45.3387Z" fill="white"/>
</svg>
