<svg width="162" height="127" viewBox="0 0 162 127" fill="none" xmlns="http://www.w3.org/2000/svg">
<path d="M6.06445 30.5645V24.7461H0.931641V21.3711H6.06445V15.6406H9.77344V21.3711H15.0117V24.7461H9.77344V30.5645H6.06445Z" fill="#D4F54D"/>
<path fill-rule="evenodd" clip-rule="evenodd" d="M115.064 60.316L139 79.988L115.064 60.316L139 79.988L126.908 110L93.6654 89.0526L92.6013 76.0686L28 93.9599L46.9259 55.6385L71.7471 33.0885L108.487 15L115.064 60.316Z" fill="#D4F54D"/>
<path d="M105.299 66.1745C99.058 59.947 88.9262 59.947 82.685 66.1745C79.6697 69.1909 78 73.2128 78 77.4941C78 81.7593 79.6697 85.7812 82.685 88.7976C85.7975 91.9113 89.8988 93.4681 93.984 93.4681C98.0691 93.4681 102.171 91.9113 105.283 88.7976C111.524 82.5539 111.524 72.4181 105.299 66.1745Z" fill="white"/>
<path d="M105.299 83.1054C102.187 86.2191 98.0854 87.776 94.0002 87.776C89.9151 87.776 85.8137 86.2191 82.7012 83.1054C80.3668 80.7701 78.843 77.8348 78.2756 74.64C78.1135 75.5644 78.0162 76.5212 78.0162 77.478C78.0162 81.7432 79.686 85.765 82.7012 88.7815C85.8137 91.8952 89.9151 93.452 94.0002 93.452C98.0854 93.452 102.187 91.8952 105.299 88.7815C109.141 84.938 110.616 79.6187 109.725 74.6238C109.157 77.7375 107.682 80.7215 105.299 83.1054Z" fill="#E3E3E3"/>
<path d="M135.516 45.692C132.015 44.0378 127.362 43.081 122.434 42.9999C117.506 42.9188 112.821 43.7297 109.271 45.2703C105.413 46.9407 103.257 49.3409 103.224 52.0005C103.192 54.6601 105.251 57.1252 109.06 58.9253C112.562 60.5795 117.198 61.5363 122.142 61.6174C122.369 61.6174 122.58 61.6174 122.807 61.6174C127.492 61.6174 131.918 60.8227 135.306 59.3469C139.164 57.6766 141.32 55.2764 141.352 52.6168C141.385 49.9571 139.31 47.4921 135.516 45.692Z" fill="#FFD850"/>
<path d="M135.289 53.8169C131.901 55.2927 127.476 56.0873 122.791 56.0873C122.564 56.0873 122.353 56.0873 122.126 56.0873C117.182 56.0062 112.546 55.0494 109.044 53.3952C106.645 52.26 104.943 50.8653 104.019 49.3247C103.5 50.168 103.224 51.0762 103.208 52.0006C103.159 54.6602 105.234 57.1252 109.044 58.9253C112.546 60.5795 117.182 61.5363 122.126 61.6174C122.353 61.6174 122.564 61.6174 122.791 61.6174C127.476 61.6174 131.901 60.8228 135.289 59.347C139.148 57.6766 141.304 55.2764 141.336 52.6168C141.352 51.6276 141.077 50.6707 140.542 49.7626C139.585 51.3356 137.802 52.7303 135.289 53.8169Z" fill="#FABD20"/>
<path d="M141.028 106.053L156.493 90.6138C159.411 87.711 161.016 83.835 161.016 79.7158C161.016 75.5967 159.411 71.7369 156.51 68.8178C153.608 65.8987 149.733 64.2932 145.616 64.2932C145.616 64.2932 145.616 64.2932 145.6 64.2932C141.482 64.2932 137.624 65.8987 134.722 68.8016L119.257 84.2405L119.241 84.2567L141.028 106.053Z" fill="#FDF6D2"/>
<path d="M119.241 84.2568C119.241 84.2568 119.257 84.2568 119.241 84.2568L103.792 99.6957C100.874 102.599 99.2687 106.474 99.2687 110.594C99.2687 114.713 100.857 118.573 103.775 121.492C106.677 124.411 110.552 126.016 114.669 126.016H114.685C118.803 126.016 122.661 124.411 125.563 121.508L141.028 106.069L119.241 84.2568Z" fill="#E8E0B7"/>
<path d="M161 79.7157C161 75.5966 159.395 71.7368 156.493 68.8177C155.829 68.1528 155.132 67.569 154.386 67.05C156.169 69.6124 157.142 72.6612 157.142 75.856C157.142 79.9752 155.537 83.8349 152.619 86.754L137.154 102.193L141.012 106.053L156.477 90.6138C159.395 87.6946 161 83.8187 161 79.7157Z" fill="#E9D9B1"/>
<path d="M141.028 106.053L137.17 102.193L121.705 117.632C118.803 120.535 114.929 122.14 110.827 122.14C110.827 122.14 110.827 122.14 110.811 122.14C107.634 122.14 104.586 121.184 102.025 119.383C102.543 120.129 103.127 120.827 103.775 121.475C106.677 124.395 110.552 126 114.669 126H114.685C118.803 126 122.661 124.395 125.563 121.492L141.028 106.053Z" fill="#D3C49B"/>
<path d="M66.4512 27.7829L52.629 28.3397L46.1111 16.0995L42.2806 29.4274L28.6594 31.755L40.1022 39.4458L38.0568 53.1443L49.1008 44.5441L61.6915 50.6602L56.8428 37.6863L66.4512 27.7829Z" fill="white"/>
</svg>
