<svg width="558" height="465" viewBox="0 0 558 465" fill="none" xmlns="http://www.w3.org/2000/svg">
<path d="M60.9222 245.569H119.677V78.2557L60.9222 245.569ZM119.677 398V303.901H0V241.729L102.58 0H189.268V245.569H229V303.901H189.268V398H119.677Z" fill="#D4F54D"/>
<path d="M278 39L291.451 130.008L331.205 46.9972L317.159 137.916L379.682 70.278L339.388 153.029L419.125 106.774L356.162 174.004L446.028 153.242L365.991 198.978L458 205.553L368 225.731L453.979 259.06L362.014 251.888L434.322 309.008L348.563 275.122L400.775 350.959L328.841 293.369L356.318 381.185L304.603 305.009L304.904 397L278 309.008L251.097 397L251.398 305.009L199.682 381.185L227.159 293.369L155.226 350.959L207.438 275.122L121.678 309.008L193.987 251.888L102.021 259.06L188 225.731L98 205.553L190.011 198.978L109.973 153.242L199.839 174.004L136.876 106.774L216.613 153.029L176.318 70.278L238.841 137.916L224.795 46.9972L264.549 130.008L278 39Z" fill="white"/>
<path d="M277.5 285C266.364 285 257.83 281.598 251.898 274.795C245.966 267.939 243 258.807 243 247.398V189.151C243 177.324 245.862 168.008 251.586 161.205C257.362 154.402 266 151 277.5 151C288.948 151 297.56 154.428 303.336 161.284C309.112 168.087 312 177.376 312 189.151V247.398C312 258.755 309.008 267.861 303.024 274.716C297.092 281.572 288.584 285 277.5 285ZM277.5 263.255C283.796 263.255 286.945 257.787 286.945 246.849V189.779C286.945 187.529 286.867 185.619 286.71 184.049C286.554 182.479 286.19 180.725 285.618 178.789C285.045 176.853 284.083 175.361 282.73 174.315C281.377 173.268 279.633 172.745 277.5 172.745C276.043 172.745 274.768 173.006 273.675 173.53C272.583 174.001 271.698 174.707 271.021 175.649C270.397 176.591 269.877 177.585 269.46 178.632C269.044 179.626 268.732 180.856 268.524 182.322C268.368 183.787 268.264 185.043 268.212 186.09C268.16 187.084 268.133 188.314 268.133 189.779V246.849C268.133 257.787 271.256 263.255 277.5 263.255Z" fill="#D4F54D"/>
<path d="M254.097 156.861C225.672 158.917 196.223 161.389 170.218 174.196C152.718 182.721 132.221 198.152 127.272 217.939C121.254 242.071 144.346 258.298 164.451 264.715C192.549 273.696 222.793 277.183 252.269 277.664C282.029 277.673 312.044 274.261 341.291 267.841C363.734 262.88 387.729 257.052 405.705 242.171C419.707 230.68 430.42 210.094 421.832 192.246C412.596 173.121 382.919 168.692 364.093 165.074C304.445 153.492 241.447 163.537 188.406 193.006C185.547 194.759 187.685 199.344 190.79 197.609C230.103 175.963 274.586 164.782 319.655 165.689C341.696 166.106 363.783 169.23 384.892 175.477C396.055 178.768 408.697 182.17 415.402 192.012C423.687 203.938 418.729 220.529 410.015 230.939C396.918 246.922 375.297 254.157 355.814 259.339C333.052 265.26 309.431 269.395 285.974 271.331C260.526 273.364 234.768 272.915 209.228 269.533C185.908 266.317 151.243 262.254 136.672 241.501C117.397 214.006 153.147 186.932 175.252 176.538C200.196 164.635 227.709 161.527 254.271 157.857C254.783 157.65 254.591 156.898 254.097 156.861Z" fill="#FF6635"/>
<path d="M389.922 312.569H448.677V145.256L389.922 312.569ZM448.677 465V370.901H329V308.729L431.58 67H518.268V312.569H558V370.901H518.268V465H448.677Z" fill="#D4F54D"/>
</svg>
