<svg width="304" height="169" viewBox="0 0 304 169" fill="none" xmlns="http://www.w3.org/2000/svg">
<path fill-rule="evenodd" clip-rule="evenodd" d="M163.775 163.39C171.435 161.939 178.97 159.824 184.871 158.936L187.082 158.288C191.546 157.213 197.153 154.774 200.391 154.62C205.998 152.18 209.278 152.248 214.434 149.894C216.603 149.024 218.772 148.154 220.899 147.062L222.209 146.585C227.323 144.009 230.886 143.104 235.592 140.835C238.861 138.379 245.296 137.85 245.327 135.547L248.271 133.841C250.524 133.415 256.864 129.918 256.329 129.559C259.148 127.188 261.443 126.983 263.853 124.919L264.671 124.305C267.94 121.849 271.209 119.392 273.986 116.799C274.803 116.185 275.62 115.571 275.945 114.821C279.875 113.388 279.822 110.641 282.808 109.157C284.726 106.957 286.643 104.756 288.11 102.641L291.41 97.8819C294.721 95.6472 295.852 91.7581 297.56 88.4489C297.842 87.4766 298.534 86.1973 298.816 85.225L299.141 84.4744C300.115 82.2228 300.639 80.0565 301.162 77.8902C302.514 77.6343 302.346 76.7473 302.629 75.775C302.87 74.581 302.702 73.694 302.942 72.5L302.816 71.8348C303.214 69.0033 304.849 67.7751 302.668 66.1207C302.206 63.6815 304.25 62.1462 302.845 59.656L302.719 58.9907C301.848 56.8586 301.963 54.9994 302.078 53.1401L301.177 53.3108C301.333 51.6733 301.532 50.2575 300.211 48.2107C299.791 45.9933 297.046 46.2835 298.146 44.6971L298.104 44.4753C296.824 42.6503 295.545 40.8252 293.816 39.0855C294.675 38.6931 294.591 38.2497 294.014 37.6698C291.09 34.5485 288.207 31.6489 287.462 30.1821C284.789 28.3912 283.059 26.6515 281.822 25.0482L279.684 23.6155C278.122 22.7628 277.011 21.8247 275.449 20.9719C275.858 20.6649 275.774 20.2214 274.747 19.7268C267.43 15.5994 262.042 11.796 253.049 8.67507C252.389 7.65168 248.112 4.78634 246.351 5.34933L245.366 5.07648C244.381 4.80363 243.395 4.53077 242.41 4.25792C237.568 3.33714 241.005 1.76766 235.472 2.12621C232.065 1.39296 231.813 0.062513 228.334 1.41025C226.364 0.864546 225.096 1.56397 223.167 1.24001C217.393 2.79258 216.167 3.71374 216.953 5.40236C219.573 4.44699 222.509 10.0927 228.284 8.54017L231.197 9.13699C234.237 10.399 237.277 11.6611 242.119 12.5819C244.131 13.3493 246.594 14.0314 248.607 14.7989C248.45 16.4364 255.137 17.2377 257.317 18.8921C261.258 19.9835 260.651 21.7063 264.141 22.883C267.223 24.3668 267.066 26.0043 271.133 27.761C273.229 28.9719 274.875 30.2681 276.563 31.7861C274.394 32.6562 278.827 33.884 279.037 34.9927C282.329 37.5852 284.677 40.1266 285.181 42.7875C285.757 43.3674 286.376 44.169 286.952 44.749L287.036 45.1924C284.951 46.506 289.102 48.7061 288.945 50.3436C290.969 53.6355 291.839 55.7676 292.511 59.3155C290.51 61.0725 293.434 64.1938 292.953 66.5818C293.373 68.7992 293.3 70.8802 293.269 73.1829C290.974 73.3878 292.788 75.571 292.012 76.4068C292.558 79.2895 291.248 79.7671 290.484 83.1275L290.159 83.878C288.2 85.8568 289.846 87.153 287.604 90.104L287.279 90.8546C287.164 92.7138 284.376 92.7822 284.261 94.6415C285.457 96.023 282.638 98.3942 281.003 99.6224L280.637 100.151C279.128 102.045 278.07 103.853 276.11 105.832C273.899 106.48 272.475 108.817 270.473 110.574C268.514 112.553 266.555 114.531 264.145 116.595L261.326 118.967C260.917 119.274 260.551 119.802 259.691 120.195L257.69 121.952C255.154 123.351 252.126 124.613 251.56 126.558C248.856 127.069 246.08 129.662 243.093 131.147C240.798 131.351 237.937 133.501 234.951 134.985C234.542 135.292 233.683 135.684 233.274 135.991C229.145 138.84 222.837 140.035 221.778 141.843C219.525 142.269 217.765 142.832 215.595 143.702C213.426 144.572 210.806 145.528 208.186 146.483C203.397 148.309 198.608 150.134 194.102 150.987C192.792 151.465 191.031 152.028 189.721 152.506C187.961 153.069 186.2 153.632 183.989 154.28C180.751 154.434 179.86 157.129 178.99 154.997C177.638 155.252 176.821 155.867 175.962 156.259C173.582 156.02 169.202 157.539 165.555 157.999C158.837 159.501 152.486 160.474 145.643 161.31C144.039 160.235 137.405 162.18 134.125 162.112C129.084 162.607 128.916 161.72 124.902 162.71C124.65 161.379 118.383 162.796 116.004 162.557C111.823 162.659 107.599 162.54 103.868 162.558C102.264 161.483 96.2797 161.927 92.4227 161.279C88.283 161.603 86.3126 161.058 83.8914 160.597C81.9629 160.273 79.5838 160.035 77.6973 159.932C73.9662 159.95 75.5589 158.5 72.2785 158.432C69.0401 158.585 68.4635 158.006 64.5225 156.914C59.2716 156.3 58.9358 154.527 54.0936 153.606C50.6452 152.651 47.1549 151.474 43.6646 150.297C44.4819 149.683 43.4967 149.41 42.4695 148.916C40.9916 148.506 39.5138 148.097 38.9792 147.739L35.9395 146.477C34.2097 144.737 28.3292 140.797 26.3167 140.03C26.5994 139.058 26.0229 138.478 24.461 137.625C22.8153 136.329 21.1695 135.032 19.9743 133.651C20.4558 131.263 15.2778 128.568 14.2814 125.771C16.4926 125.123 13.4529 123.86 13.7356 122.888L12.9911 121.421C11.0206 120.876 12.3614 118.095 11.0404 116.048C13.2936 115.622 11.1132 113.967 11.3959 112.995C10.0748 110.948 11.0181 111 11.007 108.475C13.3021 108.27 11.5304 106.309 11.8551 105.558L11.7711 105.115C12.5773 101.976 11.0575 101.345 12.4403 98.7864C11.7266 95.0168 17.5738 91.3833 16.1687 88.893L16.5354 88.3642C19.5639 87.1018 19.7935 83.3833 21.7529 81.4045L22.1196 80.8758C23.6283 78.9823 25.137 77.0889 26.6457 75.1954C28.1964 73.5237 29.3384 72.1591 30.931 70.7091C31.7063 69.8733 33.341 68.645 32.3558 68.3722L33.4978 67.0075C36.1596 66.2739 41.7969 61.5316 41.587 60.4229L42.3623 59.5871C44.6995 59.604 46.9416 56.6529 49.0688 55.5612L49.8861 54.947C51.1121 54.0259 52.3801 53.3264 54.0567 52.32L56.1839 51.2282L57.8606 50.2217C59.9878 49.1299 61.6644 48.1234 63.7917 47.0316C65.0596 46.3322 66.3696 45.8545 67.6795 45.3768C70.1735 43.7562 76.4824 42.5618 77.0898 40.839C78.4837 40.8048 85.1594 39.0816 85.4001 37.8876C91.9078 35.2774 102.765 33.4516 107.47 31.1827L108.822 30.9268C112.595 31.1312 120.046 28.5722 124.312 28.913L127.917 28.2305C132.423 27.3774 136.521 26.8313 141.069 26.1999C145.618 25.5685 150.617 24.8518 155.207 24.4421L157.502 24.2373C168.444 22.8549 180.129 22.9395 188 22.5979C193.125 22.5464 197.799 22.5802 202.516 22.8357C207.599 22.5625 214.003 24.3361 218.059 23.5682C220.48 24.0286 222.324 23.9091 223.676 23.6532C223.435 24.8472 229.011 24.7104 231.065 25.6996L232.051 25.9724C235.95 26.8421 239.398 27.7971 242.438 29.0591C247.479 28.5641 243.518 32.2999 246.714 31.9245C249.712 32.9648 249.177 32.6066 251.809 34.1757L252.668 33.7833L253.244 34.3632C258.045 35.0623 260.569 31.139 257.32 28.7682C256.209 27.8301 254.731 27.4208 253.337 27.455C252.791 24.5724 246.188 24.2146 240.151 21.9123L239.166 21.6394C234.324 20.7186 227.836 18.5016 223.329 19.3548C218.529 18.6557 213.32 18.2637 208.604 18.0082L207.084 17.3771C201.833 16.7634 188.429 17.4636 181.868 17.3276C179.531 17.3107 176.785 17.6008 174.448 17.5839L169.365 17.8571C166.126 18.0108 162.93 18.3863 159.241 18.6253C156.946 18.8302 154.2 19.1203 151.905 19.3251C146.947 20.2636 141.456 20.8439 136.048 21.8677L132.401 22.3284C130.148 22.755 127.444 23.2669 125.149 23.4717L123.797 23.7277C120.643 24.3249 117.037 25.0074 113.883 25.6046C114.616 24.547 107.899 26.0485 108.968 26.7648C95.124 30.0748 87.5471 31.9686 75.7576 36.2678C75.265 36.1313 73.5044 36.6943 73.6304 37.3596C65.7707 40.2257 58.4877 43.6717 51.6973 47.2541C45.3994 50.973 39.1436 54.9136 33.873 59.1271C31.8297 60.6623 29.7864 62.1976 28.2357 63.8693C26.2344 65.6263 24.2331 67.3834 22.2738 69.3621C20.8799 69.3963 21.0058 70.0616 21.0898 70.505C19.4971 71.955 18.3551 73.3196 17.2551 74.906L16.8884 75.4348C14.6463 78.3859 12.4043 81.3369 10.6128 84.2026C9.135 83.7934 6.9769 87.1879 9.23009 86.7613C8.53873 88.0406 7.84731 89.32 7.15593 90.5993C4.12739 91.8617 4.79909 95.4096 3.33236 97.5248C3.00765 98.2753 2.72496 99.2476 2.8509 99.9128C3.39663 102.795 -0.239334 105.781 1.89908 107.213C-0.426936 109.721 2.25718 114.036 0.874438 116.595C1.50413 119.921 3.03512 123.077 5.01672 126.147C4.56607 126.232 3.70677 126.624 4.24137 126.983C4.85993 127.784 5.52047 128.808 6.13904 129.609C7.33418 130.991 8.07866 132.458 9.72444 133.754C8.58241 135.119 13.5197 139.007 13.9704 138.922L15.6162 140.218C14.0655 141.89 19.5263 143.612 21.1721 144.909C24.6624 146.085 23.5203 147.45 26.0674 148.576L26.518 148.49C28.6564 149.923 29.4009 151.39 33.3839 152.703C37.252 155.875 44.3894 156.591 50.1021 159.644C52.8059 159.132 53.6763 161.264 57.942 161.605C59.9125 162.151 61.841 162.475 64.2201 162.714C64.514 164.266 71.9761 164.231 75.4244 165.186C77.8455 165.647 80.6753 165.8 83.0544 166.039L83.9977 166.09C87.3201 166.379 90.6425 166.669 94.4155 166.874C94.1748 168.068 100.117 167.402 102.046 167.726L104.383 167.743C109.057 167.777 114.182 167.725 118.814 167.537C119.517 168.783 126.276 167.503 129.557 167.571L134.598 167.076C138.738 166.752 142.835 166.205 146.933 165.659C150.339 166.393 158.776 164.106 163.775 163.39Z" fill="#FF6635"/>
</svg>
