<svg width="19" height="29" viewBox="0 0 19 29" fill="none" xmlns="http://www.w3.org/2000/svg">
<path d="M9.65644 7.82773L8.53761 0.51543C8.49147 0.220898 8.23195 0 7.93205 0C7.92628 0 7.92052 0 7.90898 0C7.59756 0.0113281 7.3438 0.249219 7.31496 0.555078L6.77862 6.90449C6.74401 7.29531 6.04042 7.29531 6.00581 6.90449L5.46947 0.555078C5.44063 0.237891 5.17534 0 4.85814 0C4.53518 0 4.26989 0.237891 4.24106 0.555078L3.70471 6.90449C3.67011 7.29531 2.96651 7.29531 2.93191 6.90449L2.39556 0.555078C2.36672 0.249219 2.11297 0.0113281 1.80154 0C1.79577 0 1.79 0 1.78424 0C1.47858 0 1.21905 0.215234 1.17868 0.51543L0.0540837 7.82773C-0.274646 9.96875 0.907626 12.0191 2.90307 12.8744L1.95725 25.9471C1.89958 26.7344 2.18217 27.516 2.73006 28.0938C3.27794 28.6715 4.05074 29 4.85238 29H4.85814C5.65978 29 6.43835 28.6715 6.98623 28.0938C7.53412 27.516 7.81671 26.7344 7.75904 25.9471L6.80745 12.8687C8.8029 12.0191 9.98517 9.96875 9.65644 7.82773Z" fill="#D4F54D"/>
<path d="M18.7455 0.113281C18.584 0 18.3764 -0.0283203 18.1861 0.0396484C18.1342 0.0566406 12.8572 1.95977 12.8572 7.85605C12.8572 12.0984 14.2644 14.2451 15.0545 15.1117L14.2644 15.8877C14.1664 15.984 14.1029 16.1143 14.0856 16.2559L13.111 25.8168C13.0245 26.6324 13.3013 27.4424 13.8549 28.0484C14.4144 28.6545 15.216 29 16.0465 29C17.6728 29 18.9993 27.6973 18.9993 26.1V0.606055C19.005 0.407812 18.907 0.226562 18.7455 0.113281Z" fill="#D4F54D"/>
</svg>
