<svg width="29" height="29" viewBox="0 0 29 29" fill="none" xmlns="http://www.w3.org/2000/svg">
<path d="M26.9534 2.04925C24.2253 -0.678566 19.7898 -0.687598 17.0617 2.04925L10.2142 8.89589L20.115 18.7955L26.9534 11.9398C29.6815 9.203 29.6815 4.77707 26.9534 2.04925ZM19.9343 6.09582L16.8178 9.16687L16.8087 9.1759C16.4474 9.52817 15.8783 9.51914 15.535 9.15784C15.1827 8.79654 15.1917 8.22749 15.5531 7.88425L18.6787 4.8132L18.6877 4.80417C19.049 4.4519 19.6182 4.46093 19.9614 4.82223C20.3047 5.1745 20.2957 5.75258 19.9343 6.09582Z" fill="#D4F54D"/>
<path d="M8.93145 10.1695L2.03884 17.0703C-0.680264 19.8072 -0.680264 24.2241 2.03884 26.9609C4.79408 29.6797 9.22956 29.6797 11.9848 26.9609L18.8413 20.0781L8.93145 10.1695Z" fill="#D4F54D"/>
</svg>
