<svg width="20" height="20" viewBox="0 0 20 20" fill="none" xmlns="http://www.w3.org/2000/svg">
<path fill-rule="evenodd" clip-rule="evenodd" d="M5.8774 0.06C6.94376 0.0109091 7.28376 0 10.0001 0C12.7165 0 13.0565 0.0118182 14.1219 0.06C15.1874 0.108182 15.9147 0.278182 16.551 0.524545C17.2174 0.776364 17.8219 1.17 18.3219 1.67909C18.831 2.17818 19.2238 2.78182 19.4747 3.44909C19.7219 4.08545 19.891 4.81273 19.9401 5.87636C19.9892 6.94455 20.0001 7.28455 20.0001 10C20.0001 12.7164 19.9883 13.0564 19.9401 14.1227C19.8919 15.1864 19.7219 15.9136 19.4747 16.55C19.2238 17.2174 18.8304 17.822 18.3219 18.3218C17.8219 18.8309 17.2174 19.2236 16.551 19.4745C15.9147 19.7218 15.1874 19.8909 14.1238 19.94C13.0565 19.9891 12.7165 20 10.0001 20C7.28376 20 6.94376 19.9882 5.8774 19.94C4.81376 19.8918 4.08649 19.7218 3.45012 19.4745C2.78278 19.2236 2.17814 18.8302 1.6783 18.3218C1.16956 17.8224 0.775863 17.2181 0.524668 16.5509C0.278304 15.9145 0.109213 15.1873 0.0601221 14.1236C0.0110311 13.0555 0.00012207 12.7155 0.00012207 10C0.00012207 7.28364 0.0119402 6.94364 0.0601221 5.87818C0.108304 4.81273 0.278304 4.08545 0.524668 3.44909C0.776234 2.78189 1.17023 2.17756 1.67921 1.67818C2.17834 1.16955 2.78237 0.775858 3.44921 0.524545C4.08558 0.278182 4.81376 0.109091 5.8774 0.06ZM14.041 1.86C12.9865 1.81182 12.6701 1.80182 10.0001 1.80182C7.33012 1.80182 7.01376 1.81182 5.95921 1.86C4.98376 1.90455 4.45467 2.06727 4.10194 2.20455C3.63558 2.38636 3.30194 2.60182 2.95194 2.95182C2.62016 3.27459 2.36483 3.66753 2.20467 4.10182C2.06739 4.45455 1.90467 4.98364 1.86012 5.95909C1.81194 7.01364 1.80194 7.33 1.80194 10C1.80194 12.67 1.81194 12.9864 1.86012 14.0409C1.90467 15.0164 2.06739 15.5455 2.20467 15.8982C2.36467 16.3318 2.62012 16.7255 2.95194 17.0482C3.27467 17.38 3.6683 17.6355 4.10194 17.7955C4.45467 17.9327 4.98376 18.0955 5.95921 18.14C7.01376 18.1882 7.32921 18.1982 10.0001 18.1982C12.671 18.1982 12.9865 18.1882 14.041 18.14C15.0165 18.0955 15.5456 17.9327 15.8983 17.7955C16.3647 17.6136 16.6983 17.3982 17.0483 17.0482C17.3801 16.7255 17.6356 16.3318 17.7956 15.8982C17.9328 15.5455 18.0956 15.0164 18.1401 14.0409C18.1883 12.9864 18.1983 12.67 18.1983 10C18.1983 7.33 18.1883 7.01364 18.1401 5.95909C18.0956 4.98364 17.9328 4.45455 17.7956 4.10182C17.6138 3.63545 17.3983 3.30182 17.0483 2.95182C16.7255 2.62006 16.3326 2.36474 15.8983 2.20455C15.5456 2.06727 15.0165 1.90455 14.041 1.86ZM8.72285 13.0827C9.43618 13.3797 10.2305 13.4197 10.9701 13.1961C11.7096 12.9725 12.3487 12.499 12.7779 11.8566C13.2072 11.2142 13.4002 10.4426 13.3238 9.67373C13.2474 8.90485 12.9065 8.18634 12.3592 7.64091C12.0103 7.29225 11.5885 7.02528 11.1241 6.85922C10.6596 6.69317 10.1641 6.63215 9.6733 6.68056C9.18245 6.72897 8.70844 6.88562 8.2854 7.13921C7.86235 7.3928 7.5008 7.73704 7.22676 8.14714C6.95272 8.55723 6.77302 9.02299 6.70059 9.51087C6.62816 9.99876 6.66481 10.4966 6.80789 10.9687C6.95097 11.4407 7.19692 11.8751 7.52805 12.2407C7.85918 12.6062 8.26724 12.8938 8.72285 13.0827ZM6.36558 6.36545C6.84287 5.88816 7.4095 5.50955 8.03312 5.25124C8.65674 4.99293 9.32512 4.85998 10.0001 4.85998C10.6751 4.85998 11.3435 4.99293 11.9671 5.25124C12.5907 5.50955 13.1574 5.88816 13.6347 6.36545C14.112 6.84275 14.4906 7.40938 14.7489 8.033C15.0072 8.65662 15.1401 9.325 15.1401 10C15.1401 10.675 15.0072 11.3434 14.7489 11.967C14.4906 12.5906 14.112 13.1573 13.6347 13.6345C12.6707 14.5985 11.3633 15.14 10.0001 15.14C8.6369 15.14 7.32952 14.5985 6.36558 13.6345C5.40164 12.6706 4.8601 11.3632 4.8601 10C4.8601 8.63678 5.40164 7.3294 6.36558 6.36545ZM16.2801 5.62545C16.3984 5.51388 16.4931 5.37971 16.5586 5.23089C16.6241 5.08206 16.659 4.92161 16.6614 4.75903C16.6638 4.59645 16.6335 4.43504 16.5724 4.28437C16.5113 4.1337 16.4205 3.99683 16.3055 3.88185C16.1906 3.76688 16.0537 3.67614 15.903 3.61502C15.7524 3.55389 15.5909 3.52361 15.4284 3.52598C15.2658 3.52835 15.1053 3.56332 14.9565 3.62881C14.8077 3.69431 14.6735 3.789 14.5619 3.90727C14.3449 4.1373 14.2262 4.44284 14.2308 4.75903C14.2354 5.07522 14.363 5.37716 14.5866 5.60077C14.8102 5.82437 15.1122 5.95203 15.4284 5.95664C15.7446 5.96125 16.0501 5.84245 16.2801 5.62545Z" fill="#D4F54D"/>
</svg>
