<svg width="19" height="29" viewBox="0 0 19 29" fill="none" xmlns="http://www.w3.org/2000/svg">
<path d="M9.65693 7.82773L8.53809 0.51543C8.49196 0.220898 8.23243 0 7.93254 0C7.92677 0 7.92101 0 7.90947 0C7.59804 0.0113281 7.34429 0.249219 7.31545 0.555078L6.7791 6.90449C6.7445 7.29531 6.0409 7.29531 6.0063 6.90449L5.46995 0.555078C5.44112 0.237891 5.17583 0 4.85863 0C4.53567 0 4.27038 0.237891 4.24154 0.555078L3.7052 6.90449C3.67059 7.29531 2.967 7.29531 2.93239 6.90449L2.39605 0.555078C2.36721 0.249219 2.11346 0.0113281 1.80203 0C1.79626 0 1.79049 0 1.78473 0C1.47907 0 1.21954 0.215234 1.17917 0.51543L0.0545719 7.82773C-0.274157 9.96875 0.908115 12.0191 2.90356 12.8744L1.95774 25.9471C1.90007 26.7344 2.18266 27.516 2.73054 28.0938C3.27843 28.6715 4.05123 29 4.85287 29H4.85863C5.66027 29 6.43884 28.6715 6.98672 28.0938C7.5346 27.516 7.8172 26.7344 7.75952 25.9471L6.80794 12.8687C8.80338 12.0191 9.98566 9.96875 9.65693 7.82773Z" fill="#FF6635"/>
<path d="M18.746 0.113281C18.5845 0 18.3769 -0.0283203 18.1866 0.0396484C18.1347 0.0566406 12.8577 1.95977 12.8577 7.85605C12.8577 12.0984 14.2649 14.2451 15.055 15.1117L14.2649 15.8877C14.1669 15.984 14.1034 16.1143 14.0861 16.2559L13.1115 25.8168C13.025 26.6324 13.3018 27.4424 13.8554 28.0484C14.4149 28.6545 15.2165 29 16.047 29C17.6733 29 18.9998 27.6973 18.9998 26.1V0.606055C19.0055 0.407812 18.9075 0.226562 18.746 0.113281Z" fill="#FF6635"/>
</svg>
