<svg width="29" height="29" viewBox="0 0 29 29" fill="none" xmlns="http://www.w3.org/2000/svg">
<path d="M26.9539 2.04925C24.2258 -0.678566 19.7903 -0.687598 17.0621 2.04925L10.2147 8.89589L20.1155 18.7955L26.9539 11.9398C29.682 9.203 29.682 4.77707 26.9539 2.04925ZM19.9348 6.09582L16.8182 9.16687L16.8092 9.1759C16.4479 9.52817 15.8787 9.51914 15.5355 9.15784C15.1832 8.79654 15.1922 8.22749 15.5535 7.88425L18.6792 4.8132L18.6882 4.80417C19.0495 4.4519 19.6186 4.46093 19.9619 4.82223C20.3052 5.1745 20.2962 5.75258 19.9348 6.09582Z" fill="#FF6635"/>
<path d="M8.93194 10.1695L2.03933 17.0703C-0.679776 19.8072 -0.679776 24.2241 2.03933 26.9609C4.79456 29.6797 9.23004 29.6797 11.9853 26.9609L18.8418 20.0781L8.93194 10.1695Z" fill="#FF6635"/>
</svg>
