<svg width="142" height="168" viewBox="0 0 142 168" fill="none" xmlns="http://www.w3.org/2000/svg">
<path d="M91.802 99.5413C88.0312 75.7104 83.4291 52.0932 78.6782 28.4816C77.264 21.3431 75.7587 14.0867 78.5138 6.78953C81.3846 -0.75477 85.574 -1.5818 90.9866 3.88723C94.9172 7.83458 98.1121 12.4169 101.609 17.2911C104.052 13.162 106.105 8.77458 111.17 8.73363C116.057 8.76013 119.761 11.4719 122.794 15.1499C130.072 23.9772 135.226 34.2206 140.291 44.4977C142.039 47.9515 140.743 51.0355 137.731 52.9406C134.424 55.0086 131.399 53.9705 129.564 50.7021C126.57 45.5356 123.839 40.1163 120.874 34.888C119.223 32.0071 117.337 29.3172 114.71 26.959C117.991 45.7406 126.402 62.7793 129.205 81.488C129.357 85.8522 131.436 89.5361 133.042 93.4505C134.739 97.4829 133.505 100.747 129.747 102.528C126.077 104.276 123.313 102.682 121.709 98.9194C120.074 95.0668 118.233 91.3434 116.42 87.5583C113.616 85.2675 112.881 81.8359 111.673 78.6347C106.118 63.3082 101.865 47.3859 93.5943 31.7682C96.822 48.9434 100.239 64.7761 102.794 80.7326C103.479 84.8945 104.91 89.028 103.84 93.3476C105.575 106.21 109.775 118.492 110.559 131.512C110.88 137.235 110.932 142.908 109.493 148.486C108.337 152.991 106.224 157.35 101.473 158.442C96.3942 159.606 94.186 155.259 92.0488 151.699C88.3564 145.679 86.9134 138.602 84.5835 132.014C81.6316 123.629 78.7398 115.273 75.848 106.916C73.4573 104.366 73.6114 100.597 71.9586 97.565C71.7532 101.912 73.4524 106.096 72.2026 110.332C73.4643 123.424 76.5997 136.263 76.2546 149.508C76.1583 153.153 75.853 156.776 75.6078 160.427C75.3648 164.23 73.2819 166.494 69.6237 166.967C66.0544 167.406 64.3525 165.104 63.0864 162.026C58.0841 149.896 54.5954 137.343 51.4911 124.594C51.1092 122.909 51.3186 120.898 49.2409 119.399C46.7044 123.259 47.3079 127.909 45.7558 131.853C44.1192 136.133 43.3248 140.958 37.8176 141.32C32.1615 141.687 31.7603 136.604 30.3632 132.712C29.9923 131.785 29.6213 130.858 29.2504 129.932C28.8645 125.91 28.4498 121.95 28.0017 117.749C18.7816 125.11 13.2258 124.168 9.16993 113.61C2.60632 96.5314 0.676655 78.4571 0.351613 60.079C0.296866 56.2877 2.0044 52.7935 6.68257 52.7976C11.3607 52.8017 12.598 55.9411 12.7171 60.0638C12.8463 69.0113 14.0468 77.8574 15.365 86.608C15.8494 87.1358 15.9804 87.9502 16.7582 88.1634C16.8317 87.0681 17.772 86.1523 17.2478 84.928C17.1694 77.4352 17.1509 69.9704 17.0725 62.4776C17.0488 58.7762 17.8319 55.2261 19.0327 51.7208C21.9547 43.5979 26.011 41.8049 34.2777 44.7679C35.3226 42.8466 34.7563 40.7742 34.5501 38.8701C34.0376 34.3375 34.9319 30.237 40.0191 29.6793C44.9285 29.189 46.8857 32.6652 47.1026 37.3608C47.6575 51.0263 50.7972 64.1686 53.6391 77.3223C53.7368 77.8952 54.0433 78.4904 54.2299 79.0296C54.6854 79.6192 54.9052 80.3999 55.4785 80.894C55.5253 80.0121 56.0211 79.2649 55.9191 78.3887C55.517 67.0541 53.8059 55.8604 51.708 44.7117C50.4183 37.9326 49.2774 31.1479 49.8922 24.2053C50.1707 20.7958 50.8938 17.2177 55.1099 16.1772C59.1771 15.1424 61.3279 17.5794 63.2785 20.6006C71.6522 33.0279 74.4538 47.5184 77.3443 61.9751C80.0417 75.4377 82.828 88.8666 88.0768 101.565C92.4782 107.163 93.059 114.364 95.1003 119.536C95.7555 121.575 96.4847 120.485 95.7756 120.906C95.6578 121.002 95.5067 120.856 95.4112 120.435C94.0015 113.599 91.2827 106.905 91.802 99.5413Z" fill="#FF6635"/>
</svg>
