<svg width="360" height="124" viewBox="0 0 360 124" fill="none" xmlns="http://www.w3.org/2000/svg">
<rect y="122" width="360" height="2" fill="white"/>
<path d="M24.028 106.078C15.6 106.078 9.622 103.824 6.094 99.316C2.566 94.7427 0.802002 88.1767 0.802002 79.618V51.198C0.802002 42.4433 2.53334 35.8447 5.996 31.402C9.524 26.894 15.5347 24.64 24.028 24.64C32.1293 24.64 37.846 26.6327 41.178 30.618C44.5753 34.538 46.274 40.1893 46.274 47.572V54.236H30.594V46.886C30.594 44.534 30.4633 42.6393 30.202 41.202C30.006 39.7647 29.418 38.5887 28.438 37.674C27.5233 36.694 26.086 36.204 24.126 36.204C21.186 36.204 19.2913 37.1513 18.442 39.046C17.5927 40.9407 17.168 43.7173 17.168 47.376V83.44C17.168 87.164 17.658 89.9407 18.638 91.77C19.618 93.5993 21.4473 94.514 24.126 94.514C26.87 94.514 28.634 93.5993 29.418 91.77C30.202 89.8753 30.594 87.0987 30.594 83.44V75.698H46.274V82.264C46.274 89.8427 44.608 95.7227 41.276 99.904C37.944 104.02 32.1947 106.078 24.028 106.078Z" fill="#D4F54D"/>
<path d="M53.206 25.62H99.952V105H83.978V37.184H69.082V105H53.206V25.62Z" fill="#D4F54D"/>
<path d="M120.302 25.62H138.236L153.524 105H138.628L135.688 87.556H123.144L120.106 105H104.916L120.302 25.62ZM134.12 77.56L129.318 45.612L124.614 77.56H134.12Z" fill="#D4F54D"/>
<path d="M180.679 106.078C172.251 106.078 166.273 103.824 162.745 99.316C159.217 94.7427 157.453 88.1767 157.453 79.618V51.198C157.453 42.4433 159.184 35.8447 162.647 31.402C166.175 26.894 172.185 24.64 180.679 24.64C188.78 24.64 194.497 26.6327 197.829 30.618C201.226 34.538 202.925 40.1893 202.925 47.572V54.236H187.245V46.886C187.245 44.534 187.114 42.6393 186.853 41.202C186.657 39.7647 186.069 38.5887 185.089 37.674C184.174 36.694 182.737 36.204 180.777 36.204C177.837 36.204 175.942 37.1513 175.093 39.046C174.243 40.9407 173.819 43.7173 173.819 47.376V83.44C173.819 87.164 174.309 89.9407 175.289 91.77C176.269 93.5993 178.098 94.514 180.777 94.514C183.521 94.514 185.285 93.5993 186.069 91.77C186.853 89.8753 187.245 87.0987 187.245 83.44V75.698H202.925V82.264C202.925 89.8427 201.259 95.7227 197.927 99.904C194.595 104.02 188.845 106.078 180.679 106.078Z" fill="#D4F54D"/>
<path d="M210.053 25.62H222.989V73.15L243.961 25.62H254.545V105H241.413V56.686L220.245 105H210.053V25.62Z" fill="#D4F54D"/>
<path d="M263.96 25.62H302.278V37.87H280.13V59.038H283.56C291.531 59.038 297.509 60.8673 301.494 64.526C305.48 68.1847 307.472 73.9993 307.472 81.97C307.472 87.9807 306.427 92.6847 304.336 96.082C302.311 99.414 299.469 101.733 295.81 103.04C292.217 104.347 287.774 105 282.482 105H263.96V25.62ZM282.58 94.22C286.174 94.22 288.722 93.3053 290.224 91.476C291.727 89.6467 292.478 86.5433 292.478 82.166C292.478 78.246 291.76 75.306 290.322 73.346C288.885 71.3207 286.239 70.308 282.384 70.308H280.13V94.22H282.58Z" fill="#D4F54D"/>
<path d="M336.09 106.078C327.662 106.078 321.651 103.889 318.058 99.512C314.465 95.0693 312.668 88.5687 312.668 80.01V50.414C312.668 41.8553 314.465 35.42 318.058 31.108C321.651 26.796 327.662 24.64 336.09 24.64C344.453 24.64 350.431 26.8287 354.024 31.206C357.683 35.518 359.512 41.9207 359.512 50.414V80.108C359.512 88.6013 357.683 95.0693 354.024 99.512C350.431 103.889 344.453 106.078 336.09 106.078ZM336.09 94.514C338.834 94.514 340.663 93.5993 341.578 91.77C342.558 89.8753 343.048 87.2947 343.048 84.028V46.494C343.048 43.2273 342.558 40.712 341.578 38.948C340.663 37.1187 338.834 36.204 336.09 36.204C333.346 36.204 331.484 37.1187 330.504 38.948C329.589 40.712 329.132 43.2273 329.132 46.494V84.028C329.132 87.36 329.589 89.9407 330.504 91.77C331.419 93.5993 333.281 94.514 336.09 94.514Z" fill="#D4F54D"/>
<rect width="360" height="2" fill="white"/>
</svg>
