<svg width="315" height="373" viewBox="0 0 315 373" fill="none" xmlns="http://www.w3.org/2000/svg">
<path d="M314.121 331.502C313.817 325.178 313.627 318.97 313.323 312.645C313.009 307.7 312.811 302.756 312.498 297.811C312.208 289.303 311.803 280.794 311.512 272.286C311.527 269.987 311.428 267.573 311.443 265.274C311.138 259.065 310.948 252.856 310.643 246.647C310.545 244.002 310.332 241.242 310.234 238.598C309.622 226.524 308.895 214.335 308.283 202.261C308.079 198.236 307.99 194.213 307.786 190.188C307.595 184.094 307.29 177.885 307.099 171.792C307.004 168.802 306.909 165.698 306.813 162.709C306.189 152.474 305.565 142.125 304.941 131.89C304.277 127.748 305.112 123.27 302.943 120.612C302.372 119.919 300.194 118.64 298.807 119.436C298.115 119.776 296.85 119.653 296.041 120.108C295.702 119.186 295.593 118.265 294.559 117.914C294.568 116.65 294.349 114.924 293.431 114.458C293.201 114.457 292.971 114.455 292.626 114.453C292.161 115.14 291.579 116.17 291.457 117.204C291.227 117.203 290.997 117.086 290.767 117.085C290.661 115.705 290.914 112.258 289.998 111.562C289.767 111.561 289.652 111.56 289.423 111.444C288.957 112.36 289.406 114.087 289.398 115.237C289.169 115.12 288.825 115.003 288.363 115.115C288.014 115.802 288.003 117.527 287.996 118.561C286.96 118.554 286.61 119.357 286.603 120.391C285.914 120.157 284.882 119.691 284.074 120.03C282.228 120.708 282.313 125.421 282.642 127.837C282.944 134.621 283.36 141.406 283.661 148.19C284.386 160.724 285.225 173.259 285.95 185.794C286.368 192.233 286.671 198.788 287.09 205.227C287.293 209.367 287.497 213.506 287.815 217.647C288.123 223.396 288.316 229.145 288.624 234.894C287.392 229.714 286.275 224.419 285.158 219.239C283.804 197.275 282.45 175.425 281.211 153.462C280.905 147.368 280.6 141.158 280.179 135.063C279.975 131.039 279.423 127.472 282.205 124.271C282.091 124.155 281.977 124.04 281.746 124.038C280.706 124.721 280.011 125.521 279.657 126.784C278.599 130.225 279.022 135.975 279.573 139.772C279.676 141.612 279.664 143.566 279.767 145.406C281.233 167.831 282.584 190.14 284.05 212.565C283.364 211.87 283.494 209.572 283.271 208.536C282.607 204.509 281.941 200.596 281.277 196.569C279.843 187.018 278.524 177.354 277.09 167.804C276.202 162.855 276.005 157.681 274.421 153.533C273.502 153.297 272.811 153.293 272.005 153.402C270.957 155.235 270.704 158.797 270.804 161.211C270.461 160.864 270.118 160.517 270.006 160.057C269.776 159.94 269.547 159.824 269.086 159.936C268.738 160.393 268.505 160.852 268.5 161.541C268.058 158.665 266.72 152.104 264.769 151.286C264.548 149.791 264.332 147.72 263.416 146.91C263.071 146.907 262.841 146.906 262.496 146.789C261.685 147.703 261.559 149.427 261.319 150.919C260.644 148.501 260.678 143.214 258.378 143.084C256.992 143.879 257.899 145.954 257.199 147.444C256.966 147.788 256.389 148.014 256.271 148.588C256.148 149.736 255.91 150.999 255.787 152.148C255.555 152.491 254.978 152.717 254.745 153.176C253.931 154.55 253.911 157.538 253.784 159.492C253.098 158.683 252.545 155.346 251.976 154.307C251.631 154.305 251.285 154.303 250.826 154.185C249.206 155.554 249.044 162.795 248.911 165.553C248.69 164.172 248.469 162.791 248.132 161.524C247.905 160.948 247.446 160.715 247.219 160.254C245.678 149.439 244.251 138.739 242.71 127.924C241.611 119.985 240.396 112.161 239.296 104.222C238.307 97.0889 237.317 89.9556 236.328 82.8223C233.877 70.2769 232.695 57.3949 230.127 45.1936C228.341 36.6758 227.708 27.8205 225.805 19.5318C225.135 16.4239 224.811 13.0882 223.792 10.5527C223.101 10.5483 222.526 10.5445 221.836 10.4251C220.675 12.0269 220.421 15.7037 220.406 18.0026C219.833 17.7689 219.836 17.3092 219.377 16.9614C219.147 16.9599 219.033 16.8442 218.803 16.8427C218.225 17.2987 218.335 17.9892 217.985 18.6766C217.539 16.4897 217.094 14.1878 216.648 11.8859C216.421 11.4246 215.961 11.4217 215.733 11.0753C215.164 10.1521 215.866 8.3174 214.254 8.53686C214.151 6.58206 213.936 4.28167 212.211 4.04061C211.745 4.95719 211.613 7.60018 210.804 8.16969C210.353 6.67243 209.928 1.15209 208.782 0.454976C208.552 0.453487 208.322 0.451998 208.092 0.335564C207.164 1.47906 207.842 3.43759 207.029 4.69677C206.912 4.92591 206.451 5.03788 206.219 5.38123C206.096 6.52993 205.858 7.79284 205.735 8.94154C205.617 9.40058 204.809 9.7402 204.576 10.3134C204.331 12.4959 203.972 14.6776 203.728 16.8601C203.502 16.1689 203.043 15.9361 202.932 15.3606C202.936 14.7859 202.824 14.2104 202.829 13.5207C202.605 12.5997 202.378 12.0235 202.039 11.1017C201.463 11.0979 201.348 11.2121 200.889 10.9793C199.496 12.8095 198.983 20.9676 198.96 24.5309C197.932 23.2598 199.242 16.4862 196.936 17.161C195.06 22.5515 196.053 29.225 194.979 35.0805C194.102 46.11 193.341 57.0253 192.464 68.0548C192.331 70.9277 192.198 73.6856 191.949 76.5577C191.292 89.083 190.522 101.493 189.865 114.018C189.717 119.075 189.57 124.132 189.307 129.188C189.276 134.015 189.245 138.728 189.099 143.555C189.064 148.957 189.145 154.246 189.11 159.648C189.096 161.832 189.082 163.901 189.183 166.086C189.38 171.26 189.577 176.319 189.774 181.493C189.965 187.471 190.271 193.566 190.463 199.544C190.668 203.339 190.873 207.249 191.079 211.043C191.931 221.509 192.899 231.976 193.752 242.442C193.413 241.52 193.19 240.484 192.85 239.562C191.951 236.338 190.936 233.113 190.036 229.888C187.107 220.214 184.755 210.198 182.289 200.066C179.486 188.668 177.146 176.698 174.576 164.957C173.242 157.591 172.024 150.227 170.691 142.861C170.257 138.72 169.823 134.694 169.39 130.553C167.509 118.816 167.012 106.743 164.899 95.3494C164.571 92.8184 164.357 90.1731 164.029 87.6421C162.712 77.633 161.396 67.6238 160.08 57.6147C159.304 53.1266 159.219 48.4131 157.98 44.2669C157.405 44.2632 156.829 44.2595 156.255 44.1408C155.441 45.4 156.55 51.8444 156.653 53.7992C157.517 62.5409 158.035 71.2805 159.593 79.5669C161.565 94.983 163.535 110.514 165.507 125.93C166.721 133.869 168.051 141.809 169.265 149.749C169.586 153.544 169.907 157.34 170.343 161.021C170.772 165.967 171.201 170.797 171.744 175.744C170.407 168.953 169.3 162.164 168.078 155.374C167.538 149.968 166.998 144.561 166.457 139.155C165.912 134.554 165.481 129.953 164.935 125.352C163.291 112.696 161.646 100.156 160.117 87.5019C158.562 78.8706 158.273 70.1325 156.716 61.8461C155.937 57.7028 155.968 52.8751 154.146 49.8747C153.916 49.8732 153.801 49.8724 153.57 49.9859C152.746 52.8543 154.206 58.4963 154.301 61.6005C153.638 57.3431 152.974 53.2006 152.311 48.9432C152.089 47.6773 152.221 45.1493 150.956 44.9112C150.731 44.1051 150.621 43.4147 150.396 42.6086C150.051 42.4914 149.936 42.4906 149.59 42.6033C149.599 41.224 149.036 39.3812 148.696 38.5743C148.351 38.5721 148.12 38.5706 147.775 38.5684C147.309 39.4849 147.53 40.8658 147.638 42.016C147.523 42.0152 147.408 42.0145 147.178 42.013C146.718 41.8951 146.717 42.01 146.714 42.4698C146.27 40.053 145.943 37.1771 145.035 35.2171C144.805 35.2156 144.46 35.2134 144.23 35.2119C143.88 35.8993 143.753 37.7377 144.092 38.6595C144.091 38.7744 144.091 38.8894 144.089 39.1192C142.365 38.8782 142.693 41.4092 142.683 43.0184C142.568 43.0177 142.338 43.0162 142.222 43.1304C141.071 43.123 140.915 49.5591 141.018 51.399C140.109 49.5539 139.552 46.6766 138.989 44.8337C138.644 44.8315 138.298 44.8293 137.953 44.827C136.674 46.8878 137.915 50.6892 137.67 52.9866C138.202 59.7721 138.619 66.4419 139.15 73.2274C138.38 67.8197 137.61 62.2972 136.839 56.8895C136.505 55.1631 136.531 51.1401 135.157 50.0966C133.778 49.8578 134.106 52.5038 134.097 53.8831C134.303 57.6778 134.509 61.3575 134.715 65.1522C135.032 69.5223 135.349 73.8925 135.665 78.3775C135.871 82.0573 136.192 85.7377 136.4 89.3025C136.613 91.8328 136.713 94.2474 136.927 96.7777C137.579 102.644 138.232 108.511 138.885 114.263C140.091 123.466 141.297 132.67 142.504 141.759C143.501 147.858 144.612 153.957 145.607 160.171C146.945 166.847 148.167 173.637 149.505 180.313C150.669 195.953 151.833 211.709 152.998 227.35C153.416 233.904 153.719 240.459 154.136 247.013C154.237 249.198 154.223 251.382 154.323 253.682C154.304 256.67 154.399 259.775 154.38 262.763C154.454 269.086 154.413 275.408 154.486 281.845C154.216 288.051 153.946 294.257 153.675 300.462C153.423 303.909 153.055 307.47 152.802 310.917C152.437 314.018 152.072 317.119 151.591 320.22C149.103 313.537 146.614 306.854 144.241 300.171C142.096 293.835 139.835 287.498 137.69 281.047C134.868 272.637 131.931 264.112 129.109 255.703C125.953 245.452 122.796 235.316 119.64 225.065C112.996 202.721 107.849 180.043 102.13 156.901C98.6659 140.901 95.3164 125.016 91.8525 109.016C90.8481 104.181 89.958 99.4624 88.9536 94.628C87.0473 86.9141 86.0629 78.9762 84.2709 71.3779C82.4885 62.2853 80.9311 53.9989 79.2593 45.5967C78.1421 40.4167 77.7175 34.8964 75.7888 30.6308C75.2134 30.6271 74.6381 30.6233 74.0627 30.6196C73.0226 31.3026 72.9995 34.8659 72.8748 36.3594C72.6461 36.128 72.4182 35.7817 72.1896 35.5503C71.6142 35.5466 71.6135 35.6616 71.2668 35.8892C70.9402 33.0134 69.8021 31.0518 68.5489 29.0896C67.866 27.9357 68.2201 26.5586 67.3055 25.6331C66.961 25.5159 66.8459 25.5151 66.4992 25.7428C65.9216 26.0839 65.7976 27.4625 65.6766 28.3813C65.344 26.425 64.8964 24.468 64.2156 22.9692C63.9855 22.9677 63.6403 22.9655 63.4109 22.8491C62.7145 23.7641 63.0515 25.0308 62.5838 26.1772C62.4665 26.5213 62.0047 26.7482 61.7709 27.3215C61.6506 28.1254 61.6461 28.815 61.5259 29.6189C61.1784 29.9615 60.946 30.3048 60.5978 30.7624C60.358 32.2552 60.2333 33.7487 59.9935 35.2415C59.5421 33.8592 59.3216 32.3634 58.6379 31.3244C58.2927 31.3222 58.0626 31.3207 57.7173 31.3185C56.5547 33.1502 56.646 36.8291 56.3995 39.3564C56.1731 38.7802 55.9667 35.1005 54.6957 35.8969C54.1174 36.353 54.2213 38.0779 54.1003 38.9967C53.8501 42.0987 53.6006 45.0858 53.2353 48.1871C52.6398 51.2869 53.1921 54.8539 52.7103 58.1843C52.7021 59.4487 52.6939 60.7131 52.5707 61.9768C52.5454 65.8849 52.5193 69.908 52.379 73.8153C52.344 79.2178 52.3083 84.7351 52.3884 90.1383C52.4737 94.7368 52.4447 99.2197 52.53 103.818C52.6265 106.693 52.6079 109.566 52.7044 112.441C53.1089 121.064 53.5134 129.688 53.9179 138.312C54.5525 146.937 55.0721 155.562 55.7068 164.187C55.8025 167.177 56.014 170.052 56.1098 173.041C56.8647 180.863 57.6189 188.799 58.3738 196.62C59.2475 203.868 60.0069 211 60.8806 218.247C59.3008 213.409 56.2296 207.872 53.9572 203.374C49.9818 195.302 46.1229 187 40.5275 180.297C37.673 176.83 34.4838 171.752 28.7302 171.714C27.1311 169.865 25.4132 168.589 23.5825 166.968C22.209 165.81 21.1823 164.424 19.5773 163.494C18.7747 163.029 17.1682 162.329 15.7851 162.665C13.0189 163.336 11.9647 166.203 11.1421 168.842C10.7894 169.989 10.4368 171.136 10.0841 172.284C9.85398 172.282 9.62384 172.281 9.27863 172.278C8.35657 172.502 7.3172 173.07 6.73738 173.756C5.80863 175.015 5.7997 176.394 4.86946 177.882C4.63857 177.996 4.29187 178.223 4.06099 178.337C3.25102 179.021 2.55241 180.281 2.08543 181.313C-0.0208183 186.702 0.120066 200.497 1.22838 207.056C1.55426 210.047 1.9952 213.038 2.32108 216.029C3.88076 223.971 4.86656 231.679 6.88876 239.279C9.81144 249.988 12.3897 260.58 16.0072 270.604C19.3976 280.167 23.0182 289.731 26.9862 298.953C28.9156 303.103 30.8451 307.254 32.6594 311.404C35.9482 318.897 39.3527 326.276 43.3356 333.198C48.3429 341.852 52.0793 351.302 57.6665 359.27C59.2626 361.579 60.8573 364.118 63.0325 365.857C63.8342 366.437 64.7503 367.132 65.5521 367.712C66.2411 367.946 66.9293 368.296 67.6182 368.53C67.9612 368.877 68.3034 369.339 68.6464 369.686C69.6754 370.728 70.7073 371.309 72.3153 371.779C72.7756 371.782 72.7756 371.782 72.8929 371.438C73.809 372.134 74.2648 372.826 75.76 372.951C75.5366 371.915 74.8446 372.14 73.9285 371.445C73.1268 370.865 72.4445 369.596 71.8751 368.673C72.4497 368.791 72.9085 369.024 73.4831 369.143C73.4846 368.913 73.371 368.682 73.2574 368.452C74.0615 368.687 74.8647 369.037 75.6687 369.272C75.6695 369.157 75.6702 369.042 75.6717 368.812C74.9835 368.463 74.8714 368.002 74.2983 367.654C74.299 367.539 74.4149 367.425 74.4156 367.31C75.4498 367.546 75.5596 368.352 76.5923 368.818C72.9554 361.783 69.7884 353.256 66.2733 345.187C62.9816 338.153 59.8049 331.121 56.5132 324.088C54.4695 319.821 52.4265 315.44 50.2676 311.173C46.866 303.334 43.3494 295.495 40.1802 287.313C36.4453 277.633 33.0579 267.611 30.0164 257.475C29.0061 253.56 27.995 249.761 26.9846 245.846C25.4064 240.778 24.7516 235.256 23.2907 229.844C20.5981 219.136 19.5277 206.715 19.7269 193.727C21.6697 195.808 20.9257 204.08 21.4802 207.302C21.916 211.098 22.4675 214.78 22.9033 218.576C24.2395 225.482 25.2313 232.27 26.7991 238.948C31.7366 258.406 37.3711 276.834 44.5091 294.123C50.7428 308.877 57.903 322.717 64.2533 337.242C67.3141 344.389 70.49 351.536 73.3192 358.911C74.2241 361.331 75.7957 367.434 77.6294 368.595C76.9487 367.096 76.04 365.251 75.821 363.525C76.1588 364.677 76.6116 365.83 77.8759 366.068C77.9917 365.953 77.9925 365.839 77.994 365.609C76.8544 363.877 76.5248 361.461 75.8485 359.272C74.8337 356.047 73.7031 352.936 72.6883 349.711C69.6327 341.76 66.3447 334.152 62.9424 326.428C59.3092 318.818 55.7911 311.209 52.1579 303.598C49.3235 297.028 46.6041 290.458 43.7698 283.888C37.9904 270.056 34.0573 255.432 29.6677 240.231C27.304 232.054 26.0933 223.54 24.3094 214.677C23.4193 209.958 22.5337 204.55 22.5687 199.148C24.046 202.031 25.5234 204.914 26.8856 207.797C29.2672 213.215 31.5344 218.517 33.9159 223.935C35.613 228.429 37.31 232.923 39.0071 237.417C45.8021 254.359 51.8999 272.33 57.4224 290.298C60.354 299.628 63.0547 309.072 66.5654 317.831C67.8103 321.057 68.7004 325.776 71.3352 327.632C73.1778 327.414 73.3174 323.622 73.3271 322.127C73.892 323.74 74.7947 326.505 76.866 326.518C77.0977 326.29 77.2142 326.061 77.4458 325.832C78.6982 327.91 79.8043 334.814 82.2186 335.174C82.4487 335.176 82.6789 335.177 83.0248 335.065C84.0694 333.692 84.1986 331.509 84.3293 329.096C85.0175 329.445 85.2365 331.171 85.4622 331.862C86.3686 334.052 87.3819 337.507 89.7955 337.982C91.7584 336.96 91.5714 330.292 91.1289 327.53C91.3576 327.762 92.3873 328.688 92.8513 328.116C93.659 327.777 93.6657 326.742 94.0154 326.055C94.3532 327.206 95.1572 327.441 95.9619 327.562C97.5841 325.848 97.0259 323.2 97.1603 320.213C97.285 318.719 97.8745 316.539 97.5419 314.582C97.3282 312.052 97.1144 309.522 96.9006 306.992C95.6817 299.742 94.5771 292.608 93.3581 285.358C89.901 268.323 88.2887 250.726 84.9489 233.346C84.0715 226.674 83.1933 220.116 82.3159 213.443C81.4377 206.885 80.5595 200.327 79.6814 193.77C78.0155 184.448 77.1619 174.097 76.4189 164.436C77.764 169.963 79.1092 175.489 80.34 180.9C83.6049 192.071 85.9485 203.351 89.33 214.293C99.2466 246.773 110.321 278.111 121.282 309.333C125.463 321.085 129.762 332.493 134.523 343.674C135.318 345.404 139.629 354.972 142.31 349.702C142.425 349.588 142.541 349.474 142.772 349.36C143.231 349.593 143.575 349.825 144.033 350.173C145.629 352.482 147.873 361.348 152.044 356.892C153.418 358.05 154.095 360.124 156.163 360.597C158.002 360.954 159.051 358.891 159.633 357.975C160.446 356.716 161.262 355.112 161.847 353.622C162.082 352.819 162.318 352.015 162.668 351.213C163.247 350.757 163.71 350.3 164.288 349.844C165.448 348.472 166.149 346.753 166.851 345.033C168.955 339.989 170.259 334.135 171.678 328.281C172.037 326.1 172.396 323.918 172.756 321.621C173.465 318.752 174.304 313.585 174.21 310.366C174.709 304.392 175.209 298.302 175.708 292.328C175.968 287.732 176.113 283.02 176.373 278.424C177.167 280.268 177.846 281.997 178.409 283.839C179.994 287.873 181.35 291.79 183.051 295.709C186.794 304.125 189.499 312.879 193.243 321.179C194.717 324.522 197.991 334.314 200.744 335.711C202.47 335.723 202.949 332.852 202.844 331.242C203.987 332.514 204.086 334.928 206.62 334.6C207.068 336.557 210.241 344.049 212.431 343.489C213.932 342.809 213.599 340.852 214.185 339.247C214.973 341.896 216.906 345.472 219.546 346.523C221.969 345.619 221.775 339.986 221.682 336.652C222.946 336.89 223.64 336.319 223.764 334.941C224.45 335.635 225.025 335.754 225.944 335.874C228.15 332.9 227.971 324.967 228.005 319.795C228.055 312.094 226.952 304.73 225.73 297.94C225.18 294.028 224.629 290.231 224.079 286.319C222.295 277.456 222.011 267.914 220.46 258.708C220.024 254.912 219.704 251.001 219.268 247.205C217.603 237.883 217.898 227.77 216.35 218.104C216.145 214.194 215.94 210.285 215.621 206.259C215.204 199.475 214.902 192.805 214.486 186.021C214.285 181.536 214.199 177.053 213.998 172.568C213.899 170.039 213.916 167.395 213.817 164.866C213.735 159.807 213.653 154.749 213.57 149.691C215.235 159.242 216.669 168.792 218.219 178.228C218.77 181.91 219.323 185.477 219.874 189.159C221.539 198.711 223.087 208.377 224.751 217.928C228.207 235.193 229.821 252.561 233.044 270.169C233.917 277.532 234.79 284.894 235.664 292.142C235.985 295.822 236.421 299.618 236.742 303.299C238.184 311.699 238.703 320.439 240.262 328.495C241.153 332.984 240.995 339.65 244.321 341.396C246.277 341.409 246.988 338.195 247.113 336.701C247.792 338.545 248.475 339.584 249.966 340.398C250.658 340.173 250.89 339.944 251.352 339.602C253.406 342.374 253.02 348.694 256.694 349.982C258.426 348.959 259.481 346.092 259.614 343.334C260.507 347.478 261.287 351.506 264.384 353.021C266.801 352.922 267.414 347.178 267.89 344.767C267.895 343.963 268.015 343.274 268.02 342.469C268.37 341.667 269.292 341.443 269.529 340.41C270.215 341.104 270.329 341.334 271.247 341.685C274.251 339.865 274.053 334.806 274.77 330.673C274.782 328.949 274.908 327.225 274.918 325.616C276.471 316.775 274.115 307.449 274.17 299.058C275.063 303.317 275.956 307.461 276.849 311.72C278.411 319.316 279.857 327.027 281.766 334.396C282.666 337.621 283.648 345.904 286.173 346.955C287.903 346.276 287.709 340.757 287.726 338.113C289.212 339.617 288.715 345.362 291.474 345.839C292.052 345.383 292.4 344.926 292.521 344.007C292.972 345.504 293.888 346.2 294.341 347.237C295.249 349.197 295.221 353.565 296.825 354.61C297.055 354.727 297.285 354.728 297.514 354.844C298.902 353.819 299.038 350.486 299.053 348.187C299.397 348.419 299.626 348.651 300.203 348.425C300.549 348.197 300.666 347.968 300.669 347.508C302.488 350.968 301.533 356.25 305.09 357.767C306.938 356.745 306.303 348.234 306.322 345.246C306.547 346.052 306.996 347.894 308.148 347.671C308.494 347.444 308.726 347.215 308.958 346.872C309.428 345.381 309.44 343.657 309.451 341.817C309.901 343.43 310.235 345.271 310.801 346.654C311.146 346.771 311.376 346.773 311.72 346.89C314.269 344.263 314.092 336.1 314.121 331.502ZM41.8247 282.151C44.6583 288.836 47.3769 295.521 50.2106 302.206C52.9358 307.857 55.5453 313.621 58.2706 319.271C61.785 327.455 65.5317 335.296 69.0454 343.595C70.4062 346.708 71.5361 349.934 72.666 353.16C72.7795 353.39 72.8924 353.736 73.006 353.966C73.3452 354.888 73.6837 355.925 74.023 356.847C74.7015 358.69 75.3808 360.419 75.945 362.147C75.2657 360.418 74.7023 358.575 74.023 356.847C73.5709 355.579 73.1188 354.312 72.666 353.16C70.0587 347.05 67.4522 340.826 64.845 334.717C61.2126 326.992 57.4658 319.151 53.8333 311.426C50.7666 305.199 48.3917 298.746 45.6724 292.176C43.7459 287.566 42.0511 282.727 40.2412 277.888C39.4498 275.698 38.7728 273.625 37.9814 271.436C39.2242 275.007 40.582 278.579 41.8247 282.151ZM214.593 9.45866C214.707 9.57435 214.706 9.68929 214.82 9.91993C214.819 10.0349 214.818 10.1498 214.818 10.2648C214.359 10.0319 214.475 9.91769 214.593 9.45866ZM214.12 82.5636C215.48 85.6761 214.3 90.2664 214.278 93.7148C213.724 90.3777 213.405 86.2374 214.12 82.5636ZM213.607 108.424C213.448 115.205 213.175 121.87 213.016 128.651C212.683 126.81 212.35 124.854 212.132 123.013C212.407 116.003 212.684 108.878 212.959 101.868C213.416 102.445 213.732 106.93 213.607 108.424ZM212.576 72.2082C213.712 74.3996 212.534 78.6451 212.517 81.2888C211.96 78.4115 212.325 75.3102 212.576 72.2082ZM212.424 6.68583C212.652 7.03216 212.651 7.26205 212.419 7.49045C212.42 7.3755 212.422 7.03067 212.424 6.68583ZM210.167 106.563C210.548 101.047 210.814 95.4166 211.195 89.9015C212.221 91.5174 211.476 99.9039 211.113 102.66C211.105 103.925 210.981 105.303 210.972 106.568C210.734 107.831 211.167 112.087 210.588 112.658C210.945 110.821 209.689 109.318 210.167 106.563ZM208.743 6.54706C208.971 6.89338 209.081 7.5838 208.848 8.04209C208.735 7.69651 208.739 7.12178 208.743 6.54706ZM208.305 3.09573C208.648 3.4428 208.642 4.36236 208.754 4.82288C208.751 5.28266 208.636 5.28192 208.289 5.50957C208.179 4.70422 208.299 4.01529 208.305 3.09573ZM202.858 258.019C203.513 263.426 204.169 268.833 204.824 274.24C204.144 272.626 203.465 270.897 202.9 269.284C202.683 267.214 202.467 265.028 202.135 262.957C201.374 256.17 200.611 249.498 199.85 242.711C199.748 240.641 199.53 238.686 199.429 236.616C198.891 230.75 198.469 224.885 197.932 219.019C197.618 214.189 197.189 209.244 196.875 204.414C196.885 202.919 196.78 201.424 196.788 200.045C196.585 195.906 196.382 191.766 196.179 187.512C196.083 184.522 195.988 181.533 195.777 178.543C195.675 176.473 195.689 174.404 195.587 172.334C195.597 170.725 195.493 169.115 195.503 167.506C195.42 162.563 195.338 157.504 195.255 152.561C195.295 146.354 195.336 140.032 195.376 133.825C195.518 129.573 195.546 125.32 195.689 121.067C195.96 114.632 196.117 108.196 196.389 101.76C196.784 94.0614 197.295 86.2481 197.69 78.549C198.453 67.2889 199.332 56.0295 200.094 44.8843C201.341 47.8811 200.719 55.0039 200.121 58.4485C199.989 61.0915 199.742 63.7338 199.61 66.3768C199.093 75.1096 198.576 83.8424 198.059 92.5753C197.658 101.194 197.257 109.813 196.741 118.43C196.583 125.097 196.54 131.763 196.382 138.429C196.332 146.131 196.396 153.948 196.346 161.649C196.444 164.293 196.542 166.938 196.64 169.582C197.033 180.045 197.426 190.393 197.934 200.857C198.143 204.192 198.351 207.527 198.56 210.862C199.418 220.523 200.16 230.299 201.018 239.96C201.553 246.171 202.206 252.037 202.858 258.019ZM198.99 268.914C200.911 274.329 202.716 279.859 203.022 285.953C201.324 281.574 199.626 277.195 198.044 272.701C197.606 269.25 197.169 265.799 196.615 262.347C197.407 264.536 198.198 266.725 198.99 268.914ZM196.191 256.826C197.771 261.55 199.467 266.273 201.047 270.997C199.353 266.158 197.771 261.55 196.191 256.826ZM196.443 306.831C198.822 312.594 201.085 318.471 203.464 324.349C203.463 324.464 203.463 324.579 203.462 324.694C201.08 319.276 198.815 313.743 196.548 308.326C192.699 298.531 188.85 288.62 185.001 278.824C183.417 274.676 181.834 270.412 180.364 266.265C179.232 263.384 177.981 261.192 178.122 257.054C180.949 264.889 183.66 272.723 186.485 280.673C189.767 289.316 193.162 298.074 196.443 306.831ZM197.441 63.6039C197.444 63.1442 197.446 62.7993 197.334 62.3388C197.564 62.4552 197.445 63.0292 197.441 63.6039ZM197.458 61.0752C197.687 61.1916 197.567 61.8805 197.565 62.2254C197.567 61.8805 197.455 61.42 197.458 61.0752ZM197.689 60.9617C197.694 60.1571 197.7 59.2375 197.705 58.4329C197.934 58.6643 197.692 60.387 197.689 60.9617ZM197.821 58.3187C197.826 57.5141 197.832 56.5945 197.837 55.7899C198.181 56.0221 197.824 57.744 197.821 58.3187ZM201.962 22.941C202.869 25.016 202.618 28.2329 202.258 30.5296C201.883 35.2401 201.623 39.8364 201.247 44.5469C200.465 40.9784 200.501 35.3461 201.339 30.4087C201.585 27.8814 201.716 25.4683 201.962 22.941ZM199.971 28.3307C200.344 24.08 200.717 19.8293 201.204 15.5793C201.771 16.9624 201.062 19.7166 200.707 21.3236C200.451 25.2302 200.081 29.1361 199.825 33.0427C199.255 32.3494 199.962 29.7101 199.971 28.3307ZM199.217 38.0966C198.834 43.9566 198.451 49.8165 197.952 55.7907C197.613 54.8689 198.092 51.8833 198.215 50.7346C198.588 46.4839 198.96 42.2331 199.217 38.0966ZM191.597 202.081C191.299 194.722 191.002 187.363 190.588 180.119C190.396 174.255 190.204 168.391 189.897 162.527C189.921 158.734 189.946 154.94 189.854 151.262C189.884 146.664 189.914 142.066 189.829 137.467C189.977 132.296 190.011 127.123 190.159 121.951C190.42 117.24 190.565 112.528 190.826 107.817C190.96 104.944 190.978 102.07 191.112 99.1974C191.634 89.66 192.271 80.1232 192.793 70.5858C193.302 63.1174 193.81 55.7639 194.433 48.2962C194.81 43.3558 195.187 38.5303 195.564 33.5899C196.056 28.6503 196.549 23.7106 197.041 18.771C197.147 20.151 197.368 21.5319 197.474 22.912C198.14 26.8245 198.574 30.8506 197.857 34.9842C197.729 36.9375 197.486 38.89 197.358 40.9583C196.212 57.9635 195.065 75.0835 193.92 92.0887C193.648 98.5241 193.375 105.074 192.989 111.509C192.833 117.715 192.677 124.037 192.407 130.242C192.369 136.104 192.331 141.967 192.408 147.83C192.389 150.818 192.484 153.922 192.465 156.911C192.452 158.865 192.439 160.819 192.541 162.889C192.735 168.523 192.929 174.041 193.238 179.676C193.437 184.505 193.636 189.334 193.835 194.164C194.043 197.498 194.137 200.833 194.346 204.053C194.984 212.103 195.623 220.039 196.262 228.089C197.017 235.796 197.773 243.502 198.53 251.094C198.856 253.97 199.183 256.731 199.51 259.607C198.595 258.796 198.494 256.611 198.041 255.459C197.025 252.349 195.895 249.238 194.879 246.128C194.772 244.862 194.665 243.597 194.559 242.332C192.802 229.217 192.889 215.768 191.597 202.081ZM176.276 186.693C178.178 195.097 180.195 203.501 182.096 212.02C184.799 221.233 186.809 230.672 189.512 239.656C191.429 245.76 193.346 251.865 195.377 258.086C195.816 261.422 196.139 264.873 196.578 268.209C195.56 265.444 194.658 262.564 193.64 259.799C191.607 253.923 189.803 248.049 188.002 241.945C184.51 230.312 181.596 218.224 178.453 206.019C177.331 201.528 176.324 197.039 175.203 192.549C174.996 188.984 174.673 185.418 174.466 181.968C174.251 179.553 174.037 177.138 173.822 174.722C174.602 178.636 175.382 182.664 176.276 186.693ZM175.865 250.258C175.858 251.292 175.851 252.327 175.96 253.362C175.286 250.829 174.261 249.213 174.285 245.42C174.85 247.033 175.415 248.645 175.865 250.258ZM173.244 264.035C172.906 262.883 172.454 261.616 172.116 260.464C172.033 255.635 171.833 250.921 171.749 246.093C173.571 249.093 173.419 254.725 173.506 259.094C173.269 260.242 173.592 263.577 173.244 264.035ZM172.682 244.26C172.126 241.267 171.104 239.077 171.131 234.939C171.695 236.667 172.144 238.394 172.708 240.122C172.7 241.386 172.806 242.766 172.798 244.031C172.797 244.26 172.797 244.26 172.682 244.26ZM171.14 180.223C172.035 184.137 173.16 188.167 173.128 192.995C172.794 191.269 172.344 189.656 172.01 187.93C170.888 183.555 169.883 178.835 169.916 173.663C170.247 175.849 170.694 178.036 171.14 180.223ZM168.839 322.286C169.179 323.093 168.824 324.7 168.587 325.733C168.344 327.685 167.986 329.752 167.628 331.589C167.388 333.197 167.147 334.919 166.907 336.412C167.032 334.804 167.273 333.196 167.628 331.589C167.87 329.866 168.227 328.029 168.468 326.307C168.469 326.192 168.585 325.962 168.587 325.733C168.709 324.584 168.832 323.435 168.839 322.286ZM164.918 145.812C165.584 149.61 166.249 153.523 166.915 157.32C167.018 159.16 167.236 161.001 167.34 162.841C167.557 164.796 167.659 166.751 167.876 168.822C167.319 165.944 166.763 163.067 166.206 160.19C165.202 155.355 165.121 149.952 164.236 144.544C163.911 141.438 163.585 138.447 163.26 135.341C163.813 138.793 164.365 142.36 164.918 145.812ZM162.128 114.643C162.675 119.015 163.107 123.386 163.653 127.872C163.432 126.491 163.325 125.226 163.104 123.845C162.445 118.898 161.787 113.951 161.129 109.004C160.364 102.677 159.599 96.3496 158.836 89.9075C158.183 84.0409 157.415 78.1734 156.763 72.3068C157.641 78.8646 158.404 85.4217 159.282 91.9795C160.27 99.4576 161.256 107.051 162.128 114.643ZM160.957 348.903C160.5 348.44 160.273 347.979 159.931 347.402C160.28 346.83 160.514 346.256 160.864 345.569C161.207 345.801 161.437 345.917 162.011 346.036C161.774 347.069 161.423 347.986 160.957 348.903ZM157.335 303.934C157.092 306.002 156.963 308.185 156.719 310.252C156.798 315.886 154.917 321.966 154.422 327.365C153.86 325.292 155.039 320.932 155.515 318.521C156.001 314.501 156.487 310.596 156.973 306.576C157.224 303.359 157.591 300.028 157.842 296.811C158.406 298.539 157.117 302.094 157.335 303.934ZM155.933 325.076C157 320.14 157.151 314.623 158.105 309.457C158.231 307.848 158.355 306.355 158.481 304.746C158.859 299.691 159.237 294.636 159.615 289.58C159.626 287.856 159.636 286.247 159.763 284.523C160.72 278.782 159.384 271.877 159.997 266.018C159.908 261.994 159.934 257.971 159.845 253.947C160.267 242.11 158.162 229.567 158.124 217.612C159.718 220.266 159.236 223.712 159.901 227.509C160.209 233.259 160.518 238.893 160.826 244.643C160.817 246.022 160.808 247.516 160.914 248.896C161.909 255.225 160.484 261.998 161.246 268.67C161.231 270.969 161.217 273.153 161.202 275.452C161.184 278.325 161.05 281.198 161.031 284.072C161.021 285.681 161.011 287.29 160.886 288.784C160.507 293.954 160.128 299.239 159.634 304.409C159.03 308.888 158.54 313.368 157.936 317.847C157.104 321.865 156.157 325.997 155.556 329.901C155.337 328.176 155.578 326.568 155.933 325.076ZM157.579 212.896C156.943 204.5 156.307 196.105 155.671 187.709C155.893 188.975 156.23 190.242 156.452 191.508C157.014 193.58 157.226 196.341 157.668 199.217C157.772 200.942 157.876 202.667 157.98 204.392C158.295 208.992 158.611 213.592 159.041 218.193C158.593 216.351 158.144 214.624 157.579 212.896ZM156.564 351.978C156.797 351.635 157.144 351.292 157.377 350.834C157.835 351.182 158.293 351.645 158.751 351.992C157.941 352.677 157.367 352.443 156.564 352.093L156.564 351.978ZM158.533 350.037C158.419 349.921 158.42 349.691 158.306 349.576C158.653 349.233 158.887 348.775 159.234 348.432C159.576 348.894 159.918 349.356 160.375 349.934C160.258 350.163 160.257 350.393 160.14 350.622C159.45 350.618 159.106 350.385 158.533 350.037ZM154.552 165.057C155.557 169.776 156.439 175.759 156.404 181.162C155.298 174.258 153.276 166.543 153.442 158.728C153.773 160.914 154.105 162.985 154.552 165.057ZM141.251 68.7579C142.017 74.7403 142.785 80.6077 143.552 86.59C143.767 88.8904 143.868 91.0751 144.083 93.3755C145.504 104.995 146.809 116.728 148.23 128.347C148.876 135.133 149.637 142.035 150.284 148.821C149.84 146.29 149.51 143.874 149.066 141.342C147.841 135.127 147.649 129.148 146.426 122.588C145.22 113.269 144.13 103.951 142.924 94.7474C142.711 91.9872 142.498 89.342 142.286 86.5818C141.536 78.0707 140.899 69.6752 140.149 61.1641C140.478 63.6951 140.807 66.2261 141.251 68.7579ZM148.419 170.305C146.752 161.098 145.085 152.006 143.533 142.8C142.545 135.552 141.556 128.304 140.566 121.171C140.132 117.145 139.583 113.118 139.148 109.092C138.712 105.41 138.275 101.729 137.839 98.048C137.42 91.6081 136.887 85.1675 136.468 78.7276C136.262 75.0479 135.941 71.2524 135.735 67.5727C134.846 62.6241 134.651 57.2202 134.808 50.7841C136.061 52.6314 135.914 57.6882 136.357 60.3349C137.458 68.0437 138.444 75.6367 139.545 83.3455C140.965 95.0796 142.27 106.813 143.69 118.547C144.016 121.538 144.228 124.413 144.554 127.404C145.312 134.65 146.07 142.012 146.829 149.259C147.244 156.273 147.774 163.289 148.419 170.305ZM148.593 161.225C147.838 153.404 147.083 145.582 146.328 137.761C147.104 142.364 147.879 147.082 148.654 151.685C151.91 164.35 153.181 181.256 154.333 198.851C152.766 192.059 151.314 185.267 149.862 178.476C149.439 172.725 149.016 166.975 148.593 161.225ZM153.386 309.656C153.64 305.979 154.008 302.418 154.262 298.742C154.398 295.524 154.533 292.421 154.669 289.203C154.795 287.48 154.806 285.871 154.932 284.147C154.937 283.343 154.942 282.538 154.947 281.733C154.88 274.376 154.928 267.02 154.86 259.663C154.776 254.834 154.692 250.006 154.494 245.177C154.08 237.932 153.667 230.688 153.253 223.443C152.831 217.578 152.294 211.712 151.872 205.732C151.339 199.176 150.921 192.621 150.388 186.066C151.302 187.106 151.838 193.202 152.401 195.045C153.184 198.613 154.081 202.298 154.863 205.866C155.174 211.156 155.486 216.331 155.912 221.621C156.324 229.095 156.736 236.455 157.148 243.929C157.247 246.459 157.231 248.988 157.329 251.632C157.301 255.885 157.389 260.139 157.36 264.507C157.332 268.875 157.305 273.128 157.276 277.495C157.138 281.173 156.999 284.85 156.861 288.413C156.724 291.746 156.472 295.078 156.336 298.295C155.964 302.431 155.478 306.451 155.106 310.587C154.502 315.066 153.782 319.544 153.177 324.138C152.722 323.331 152.383 322.409 152.043 321.487C152.415 317.466 152.9 313.561 153.386 309.656ZM153.593 330.923C153.593 331.038 153.591 331.268 153.59 331.383C153.362 331.152 153.249 330.806 153.253 330.231C153.366 330.462 153.48 330.693 153.593 330.923ZM152.663 332.412C153.233 333.22 153.105 335.288 152.181 335.857C151.494 335.278 152.541 333.445 152.663 332.412ZM151.83 354.476C151.484 354.589 151.253 354.703 150.907 354.815C149.529 354.347 148.501 353.191 148.05 351.808C149.546 351.818 149.888 352.28 151.037 352.517C151.264 353.093 151.604 353.785 151.83 354.476ZM152.347 327.926C151.892 327.119 151.668 326.198 151.328 325.276C151.668 326.198 152.007 327.12 152.347 327.926ZM151.162 333.206C149.907 331.589 150.839 329.756 150.967 327.803C152.106 329.534 151.521 331.14 151.162 333.206ZM150.764 323.548C150.764 323.663 150.763 323.778 150.761 324.008C146.917 313.408 143.074 302.692 139.345 292.093C137.99 288.176 136.634 284.259 135.278 280.342C140.479 294.629 145.564 309.146 150.764 323.548ZM74.9632 33.7291C75.3062 34.0762 75.4153 34.9965 75.4116 35.5712C75.1814 35.5697 75.0664 35.569 74.837 35.4525C74.955 34.9935 74.9595 34.3038 74.9632 33.7291ZM74.0774 46.1379C75.4114 53.3884 76.7461 60.5239 77.965 67.7736C81.6389 86.8791 85.3135 105.87 88.9874 124.975C91.6681 137.522 94.3487 150.069 97.0293 162.616C103.094 185.645 108.01 208.437 114.657 230.55C117.473 239.994 120.288 249.438 123.451 258.655C124.578 262.225 125.706 265.796 126.834 269.367C129.318 276.74 131.917 284.113 134.401 291.486C132.255 285.15 129.995 278.813 127.849 272.477C122.757 259.11 118.82 245.176 114.537 231.239C106.648 205.554 100.376 178.96 93.7622 151.789C90.1736 137.282 88.0825 122.555 84.6112 107.704C82.3871 95.735 80.048 83.7651 77.8239 71.796C77.0444 67.7677 76.3793 63.8551 75.5998 59.8268C74.7083 55.338 73.9288 51.3097 74.0774 46.1379ZM135.785 326.555C137.822 331.856 139.744 337.156 141.782 342.342C140.641 340.84 140.079 338.767 139.4 336.924C137.586 332.774 136.003 328.395 134.305 324.016C128.985 310.303 124.474 296.135 119.156 282.192C108.633 254.421 100.421 225.4 91.6354 195.916C88.8196 186.472 87.1553 176.92 84.5704 167.363C81.8741 157.23 80.0999 146.873 77.6353 136.511C75.7289 128.797 73.7075 121.083 73.9993 111.544C76.0067 121.442 77.8989 131.34 79.9062 141.239C84.9491 162.193 88.9555 183.254 95.0392 203.41C102.585 228.748 109.441 254.081 118.608 277.935C120.641 283.81 122.675 289.686 124.707 295.677C128.438 306.046 132.054 316.3 135.785 326.555ZM72.7594 125.33C72.7497 126.824 72.8551 128.319 72.8462 129.698C73.1609 134.413 73.4749 139.243 73.7896 143.958C73.1192 140.85 72.4489 137.742 71.7785 134.634C71.4824 127.046 71.1856 119.572 70.7744 111.983C71.1099 113.479 71.3296 115.09 71.6652 116.587C72.4558 118.891 72.3184 122.338 72.7594 125.33ZM72.4056 37.7358C72.9743 38.774 72.5021 40.6101 72.4961 41.5297C71.9274 40.4915 72.2831 38.8845 72.4056 37.7358ZM70.5548 92.5548C70.7783 93.5908 70.8867 94.6261 71.1101 95.6621C71.8933 99.1156 72.0967 103.255 71.9556 107.277C71.8465 106.357 71.6215 105.551 71.5124 104.631C70.7292 101.177 70.4123 96.807 70.5548 92.5548ZM69.6177 112.895C69.8203 117.149 69.9079 121.403 70.1105 125.657C69.5522 123.01 69.1083 120.478 68.6651 117.832C68.4796 110.933 68.4099 103.921 68.2244 97.0228C69.4731 99.6747 68.871 103.809 69.6474 108.297C69.6378 109.791 69.6274 111.401 69.6177 112.895ZM68.2321 78.0561C69.8208 81.5149 68.9781 87.2569 69.295 91.6271C68.4005 87.598 68.0835 83.2279 68.2321 78.0561ZM67.5133 29.0829C67.5126 29.1978 67.6269 29.3135 67.6261 29.4285C67.3975 29.1971 67.3982 29.0821 67.5133 29.0829ZM67.0649 27.2408C67.1778 27.5864 67.2906 27.9319 67.4034 28.2775C67.1725 28.391 67.1725 28.391 67.056 28.6201C66.9439 28.1596 66.9469 27.6998 67.0649 27.2408ZM63.8615 24.3463C64.0864 25.1524 64.3114 25.9585 64.5363 26.7646C64.3054 26.8781 64.0753 26.8766 63.8451 26.8751C63.3893 26.1825 63.7412 25.1502 63.8615 24.3463ZM59.4994 129.382C60.5549 144.103 61.6104 158.823 62.6659 173.543C63.9701 185.392 65.2736 197.355 66.4628 209.202C68.113 220.938 69.7639 232.558 71.2991 244.293C70.6198 242.565 69.9405 240.836 69.3756 239.223C68.8263 235.196 68.2762 231.284 67.7269 227.258C65.8369 217.015 65.448 205.977 63.6745 195.505C63.3494 192.4 63.1393 189.295 62.8142 186.189C61.4847 178.249 61.8842 169.86 60.5561 161.69C60.3461 158.585 60.2511 155.481 60.041 152.376C59.5192 144.096 58.8831 135.7 58.3613 127.421C58.2641 124.661 58.1676 121.787 58.0704 119.027C57.8759 113.509 57.6815 107.99 57.4871 102.471C57.4952 101.206 57.5027 100.057 57.5109 98.7927C57.4285 93.7343 57.4605 88.7917 57.3782 83.7334C57.3982 80.6299 57.4183 77.5263 57.3233 74.4221C56.6775 67.5209 57.4126 60.6287 57.6866 53.8484C59.276 57.1923 58.172 67.7605 58.1385 72.933C58.1918 82.4742 58.3595 92.1311 58.4128 101.672C58.4967 106.501 58.5805 111.329 58.7794 116.158C59.0956 120.643 59.2975 125.013 59.4994 129.382ZM72.1349 257.403C74.3019 260.406 75.2765 269.838 75.8214 274.554C74.1102 272.244 72.2231 261.542 72.1349 257.403ZM77.1442 283.529C76.3528 281.34 75.1019 279.033 75.0032 276.503C75.8013 277.658 77.0396 281.919 77.1442 283.529ZM68.5922 253.587C66.5544 248.401 64.6353 242.641 64.4454 236.432C65.1239 238.276 65.8024 240.12 66.4809 241.963C68.6316 247.495 69.8632 252.79 70.5119 259.232C69.9485 257.389 69.2707 255.43 68.5922 253.587ZM71.8415 267.172C70.3731 262.909 68.9047 258.647 67.4363 254.384C67.8884 255.651 68.3405 256.919 68.7926 258.186C69.8096 261.066 71.1711 264.064 71.8415 267.172ZM68.0853 243.008C67.1944 238.404 63.7676 234.474 63.4529 229.759C64.3667 230.799 68.0964 241.284 68.0853 243.008C68.2003 243.009 68.2003 243.009 68.0853 243.008ZM64.521 242.525C63.8402 241.026 63.2746 239.528 62.7081 238.145C61.3481 234.918 60.1031 231.691 58.8574 228.58C54.2124 217.285 49.1019 206.791 43.7619 196.181C41.7159 192.26 39.5556 188.222 37.5096 184.301C40.8236 187.886 43.2126 192.154 45.7159 196.539C50.4961 204.731 54.352 213.492 58.5516 222.485C61.2769 228.135 64.3437 234.363 64.521 242.525ZM43.5618 227.101C45.3747 231.481 47.3019 235.977 49.1133 240.586C52.7354 249.921 56.01 259.598 59.6305 269.162C61.6609 275.497 63.692 281.718 65.7224 288.053C67.415 293.237 68.9925 298.42 70.6851 303.603C71.8135 307.059 73.5195 310.174 73.3747 314.771C70.6643 306.822 67.9546 298.758 65.2442 290.809C60.3973 275.144 55.7791 259.711 50.0071 244.73C46.9508 236.894 44.0087 229.173 40.9524 221.337C41.8611 223.182 42.6539 225.141 43.5618 227.101ZM71.1431 250.615C72.0555 251.885 72.8431 254.649 73.0629 256.26C72.3791 255.221 71.2492 251.995 71.1431 250.615ZM58.9392 38.1084C60.1887 40.6454 58.7461 50.1769 58.6072 53.8544C56.9049 50.165 58.7952 42.5905 58.9392 38.1084ZM57.5361 41.5478C57.7833 38.9056 58.0306 36.2634 58.2778 33.6211C58.8457 34.7743 57.415 42.4667 57.3994 44.8805C57.0594 44.0737 57.415 42.4667 57.5361 41.5478ZM58.3301 185.585C57.7905 180.064 57.2508 174.543 56.7112 169.022C56.6117 166.607 56.5123 164.193 56.4128 161.778C56.2027 158.673 55.9934 155.453 55.6683 152.347C55.5696 149.818 55.3566 147.173 55.2579 144.643C54.8355 138.778 54.5282 132.913 54.1051 127.163C54.0057 124.749 54.0206 122.45 53.9211 120.035C53.7453 111.643 53.4536 103.364 53.2778 94.9719C53.306 90.604 53.2192 86.2354 53.2475 81.8674C53.2854 76.0053 53.3241 70.0281 53.4771 64.1667C52.6056 56.5744 54.2851 46.0098 55.035 36.8187C56.6333 38.7832 55.8715 49.8135 55.5018 53.6044C55.0102 58.4291 54.852 65.0952 55.2863 69.1212C55.2632 72.6845 55.2394 76.3628 55.3314 79.9268C55.2987 84.9844 55.381 90.0427 55.3483 95.1003C55.3334 97.3992 55.4329 99.8138 55.418 102.113C55.8188 111.311 56.1037 120.624 56.5045 129.823C57.2423 140.288 57.8651 150.752 58.6029 161.217C58.7053 163.172 58.8077 165.127 59.026 166.968C59.8908 175.594 60.7556 184.221 61.6203 192.848C62.4941 200.096 63.3678 207.343 64.2422 214.476C65.012 219.998 65.7818 225.521 66.5516 231.043C66.098 230.006 65.6452 228.853 65.1916 227.816C63.8315 224.589 62.5829 221.937 61.8019 218.138C60.024 208.356 59.9878 196.171 58.3301 185.585ZM40.281 182.824C42.1073 185.135 43.7004 187.904 45.0642 190.557C46.2022 192.518 47.4546 194.596 48.5927 196.557C51.433 202.208 54.1583 207.858 56.767 213.738C58.015 216.504 59.1478 219.271 60.3958 222.037C61.1894 223.882 62.3289 225.613 62.4284 228.028C61.5204 226.068 60.6125 224.108 59.8189 222.264C58.1166 218.574 56.6445 214.886 54.8264 211.311C52.0997 205.891 49.6023 200.587 46.6432 195.51C45.0485 192.971 43.9157 190.205 42.0894 187.894C40.6054 186.045 39.1214 184.196 37.7517 182.463C36.837 181.538 35.9217 180.727 35.007 179.802C34.3241 178.648 33.5267 177.378 32.8437 176.224C31.9306 175.069 31.1326 173.914 30.2194 172.759C34.8089 174.857 37.428 179.128 40.281 182.824ZM16.1229 163.816C18.3055 164.405 19.4555 164.528 20.8274 165.916C20.1363 166.026 19.4458 166.022 18.7547 166.132C18.2929 166.359 17.9454 166.702 17.4837 166.929C17.0241 166.811 16.6797 166.694 16.2201 166.576C14.7257 166.336 13.6863 166.904 12.8778 167.359C13.35 165.523 14.7368 164.612 16.1229 163.816ZM19.5413 186.828C19.8806 187.75 19.0699 188.55 18.7202 189.237C18.7254 188.432 18.8465 187.514 19.0825 186.595C19.1969 186.711 19.3112 186.827 19.5413 186.828ZM19.6705 184.645C19.7849 184.761 19.8992 184.877 20.0135 184.992C20.012 185.222 20.0113 185.337 19.8947 185.566C19.7804 185.451 19.6653 185.45 19.551 185.334C19.4374 185.103 19.5532 184.989 19.6705 184.645ZM17.2349 169.801C17.2364 169.571 17.4666 169.572 17.5816 169.573C17.5809 169.688 17.4651 169.802 17.2349 169.801ZM17.2198 189.917C17.2213 189.687 17.2235 189.342 17.11 189.112C17.3394 189.228 17.3386 189.343 17.2198 189.917ZM17.4703 168.998C17.5868 168.769 17.7027 168.654 17.8192 168.425C18.1629 168.657 18.5067 168.89 18.8504 169.122C18.3908 169.004 17.9306 169.001 17.4703 168.998ZM17.4753 186.01C17.5903 186.011 17.8205 186.013 17.9348 186.128C17.816 186.702 17.6972 187.276 17.5777 187.965C17.2362 187.388 17.3557 186.699 17.4753 186.01ZM18.7053 191.536C18.5806 193.029 18.2272 194.292 17.8738 195.554C17.4217 194.286 18.4685 192.569 18.7053 191.536ZM18.5191 184.753C18.2889 184.751 18.0588 184.75 17.7136 184.747C17.7173 184.173 17.8354 183.714 17.8391 183.139C18.1835 183.256 18.4129 183.373 18.7574 183.49C18.7552 183.835 18.6371 184.294 18.5191 184.753ZM16.4398 168.186C16.2067 168.645 15.9743 168.988 15.7412 169.446C15.2809 169.443 14.8207 169.44 14.3596 169.552C14.8244 168.866 15.4012 168.64 16.0946 168.184C16.2097 168.185 16.3248 168.186 16.4398 168.186ZM15.177 167.718C15.2921 167.719 15.4072 167.72 15.6373 167.721C14.3648 168.748 13.4368 169.891 12.1651 170.803C12.8667 169.083 13.6751 168.628 15.177 167.718ZM10.7754 225.51C14.3587 240.821 17.6013 255.441 22.4602 269.266C24.9471 276.179 27.4348 282.977 29.9217 289.891C31.1667 293.117 32.5267 296.345 33.7717 299.571C32.1733 297.607 31.163 293.692 30.143 291.271C27.7636 285.508 25.5009 279.516 23.2381 273.524C17.579 258.889 13.767 243.346 9.84662 226.768C8.8385 222.508 8.52007 218.368 7.74357 213.88C5.96714 203.868 5.36672 189.955 7.96003 180.431C7.83603 181.81 7.71129 183.303 7.58729 184.682C7.10841 187.553 6.72675 193.183 7.16695 196.289C7.26491 198.934 7.47869 201.464 7.57666 204.108C8.68051 211.357 9.09394 218.602 10.7754 225.51ZM9.4991 173.774C9.61417 173.775 9.72924 173.776 9.84432 173.776C9.14496 175.151 8.78933 176.758 7.97639 177.902C7.63192 177.785 7.17164 177.782 6.82717 177.665C6.95563 175.597 7.99648 174.799 9.4991 173.774ZM6.2466 178.466C6.59182 178.468 6.93703 178.47 7.2815 178.588C6.11442 181.109 5.28809 184.322 5.26652 187.656C4.70158 186.043 6.00604 180.074 6.2466 178.466ZM71.7533 369.706C71.0644 369.472 70.3784 368.778 69.9219 368.2C70.9553 368.552 71.2975 369.014 71.7533 369.706ZM72.7786 371.322C70.4786 371.078 68.7667 368.882 67.7429 367.037C67.858 367.037 72.7786 371.322 72.7786 371.322ZM47.2554 332.074C50.6645 338.763 53.9576 345.567 57.3666 352.256C59.0741 355.141 60.7823 357.911 62.3748 360.795C63.9709 363.104 66.0273 365.416 67.391 368.069C62.8023 365.855 60.1824 361.7 57.5618 357.66C52.4342 349.81 47.8893 340.815 43.8033 332.052C41.3045 326.978 38.6898 322.018 36.1909 316.944C30.975 304.956 25.2951 293.539 20.8884 280.981C18.855 275.105 16.8217 269.23 14.6732 263.353C13.3214 258.862 11.9703 254.255 10.7335 249.764C10.0602 247.116 9.38686 244.467 8.71354 241.819C7.37434 235.373 5.91932 229.042 4.58011 222.596C2.56759 213.502 1.2745 199.929 1.7809 192.806C2.15885 187.75 1.96069 182.806 4.74621 179.146C4.86053 179.262 4.49375 182.593 4.37347 183.397C3.77877 186.382 3.50103 193.736 4.16691 197.534C4.59744 202.135 5.14305 206.736 5.57358 211.337C5.90317 213.753 6.34858 216.055 6.67818 218.471C8.81396 226.302 10.0187 235.735 12.4968 244.028C21.2775 274.201 32.8132 305.427 47.2554 332.074ZM21.0398 222.013C23.3842 233.178 25.2697 244.11 28.5398 254.477C30.5687 261.042 32.7127 267.608 34.7416 274.174C34.2902 272.791 33.7245 271.293 33.2732 269.911C32.144 266.57 31.0149 263.229 29.8857 259.888C25.3669 246.87 22.4651 232.942 19.4526 218.324C18.227 212.109 16.5686 201.638 18.7966 195.215C18.778 198.088 18.8745 200.963 18.8559 203.836C18.9591 205.676 19.0622 207.516 19.2812 209.242C19.9441 213.499 20.492 217.756 21.0398 222.013ZM21.3371 193.852C20.7707 192.469 20.0892 191.085 21.3639 189.714C21.3557 190.978 21.346 192.473 21.3371 193.852ZM21.0254 188.677C21.0261 188.562 21.0269 188.447 21.0283 188.217C21.2577 188.334 21.2585 188.219 21.3721 188.45C21.2563 188.564 21.1412 188.563 21.0254 188.677ZM21.1518 169.137C20.4644 168.672 19.7769 168.208 19.0902 167.629C19.3226 167.285 19.6685 167.173 19.8994 167.059C22.7762 167.078 24.9492 169.161 25.8571 171.121C24.9403 170.54 24.0227 170.075 23.1058 169.494C22.4154 169.49 21.7257 169.37 21.1518 169.137ZM72.7212 326.836C72.6047 327.066 72.7205 326.951 72.4896 327.065C70.5453 325.213 69.9945 321.416 68.7458 318.764C65.2291 310.925 63.6717 302.638 60.7289 295.033C59.602 291.347 58.4751 287.661 57.3475 284.091C56.1062 280.289 54.8657 276.373 53.6245 272.572C52.4961 269.116 51.2526 265.659 50.1235 262.318C46.8392 254.136 44.8192 246.191 41.3004 238.697C39.4897 233.972 37.6798 229.132 35.8692 224.408C33.6019 219.105 31.2197 213.802 28.9524 208.5C27.1351 204.81 25.2027 201.119 23.3846 197.544C23.3995 195.245 23.4136 193.061 23.4285 190.762C24.92 191.461 26.3913 195.264 27.1872 196.764C30.6021 202.533 33.438 208.874 36.1588 215.214C42.7355 230.315 48.2714 246.213 54.2675 262.115C57.7656 272.828 61.2643 283.426 64.6473 294.138C67.3577 302.088 69.6063 310.264 72.5491 317.869C73.457 319.829 74.2328 324.432 72.7212 326.836ZM74.1824 314.431C74.8669 315.355 76.4466 320.193 76.2098 321.226C74.9611 318.575 74.2781 317.421 74.1824 314.431ZM77.5639 325.373C76.993 324.68 76.5379 323.872 76.0821 323.18C76.4281 323.067 76.7747 322.839 77.1207 322.727C77.6916 323.42 77.8007 324.34 77.5639 325.373ZM80.8913 326.889C80.8935 326.544 80.892 326.774 81.0093 326.43C81.0086 326.545 81.0078 326.66 81.1222 326.776C81.0064 326.89 80.8913 326.889 80.8913 326.889ZM83.4911 334.148C82.8029 333.799 82.4651 332.647 82.1243 331.955C82.3537 332.071 82.5831 332.188 82.8118 332.419C83.2706 332.652 83.6173 332.425 83.9633 332.312C83.7294 332.885 83.6106 333.459 83.4911 334.148ZM81.3427 328.272C81.4592 328.042 81.4607 327.813 81.5773 327.583C81.9195 328.045 82.2625 328.393 82.6047 328.855C83.0643 328.972 83.2951 328.859 83.7562 328.747C83.6359 329.551 83.5156 330.355 83.2803 331.158C82.48 330.348 81.9113 329.31 81.3427 328.272ZM79.7737 232.853C77.3254 219.963 76.9492 206.971 74.7318 193.968C73.1788 184.991 73.3549 175.567 71.8041 166.246C70.8079 160.147 71.1955 153.597 70.2015 147.154C69.7896 139.679 69.3784 132.09 68.8514 124.615C69.0741 125.766 69.2968 126.917 69.5195 128.068C69.8536 129.794 70.1869 131.635 70.5209 133.362C70.7265 137.156 70.9321 140.951 71.1377 144.746C71.3433 148.54 71.6647 152.221 71.8703 156.016C72.8413 166.023 73.8122 176.029 74.7824 186.151C75.2151 190.407 75.763 194.664 76.1957 198.92C77.9536 211.806 79.7114 224.691 81.3542 237.576C81.902 241.833 82.5649 246.09 83.112 250.462C86.2091 269.794 89.1903 289.239 92.2866 308.686C91.4967 306.267 90.7061 303.963 90.0313 301.545C86.7286 278.418 83.3087 255.636 79.7737 232.853ZM90.3175 328.445C89.8624 327.637 89.2908 327.059 89.5276 326.026C89.6427 326.026 89.8728 326.028 89.9886 325.914C90.3309 326.376 90.3227 327.64 90.3175 328.445ZM87.0992 327.849C87.3294 327.851 87.4444 327.851 87.6738 327.968C87.6731 328.083 87.5573 328.197 87.5565 328.312C87.4415 328.311 87.3264 328.31 87.097 328.194C87.0977 328.079 87.0985 327.964 87.0992 327.849ZM89.9239 335.914C89.0093 334.988 87.4273 330.495 87.2068 328.999C88.1274 329.005 88.3613 328.432 88.4801 327.858C88.8186 328.895 89.5075 329.129 90.1905 330.283C90.8765 330.977 90.0435 335.225 89.9239 335.914ZM90.9492 337.53C90.719 337.528 90.6047 337.413 90.4896 337.412C90.9588 336.035 91.4265 334.889 91.4392 332.935C92.0064 334.203 91.186 336.497 90.9492 337.53ZM93.2062 326.624C92.1817 324.893 92.2055 321.215 92.2219 318.686C93.5886 320.879 93.7994 323.869 93.2062 326.624ZM97.2627 322.167C97.2508 324.006 97.1253 325.615 96.7719 326.877C95.5128 325.834 95.1795 323.993 95.3095 321.695C95.8826 322.043 96.8017 322.279 97.2627 322.167ZM77.6748 183.756C78.6591 191.694 79.6442 199.517 80.6285 207.455C81.5059 214.128 82.3826 220.915 83.26 227.588C83.9215 232.075 84.4685 236.447 85.13 240.934C87.0111 252.556 88.8921 264.179 90.6582 275.8C92.3188 285.926 93.9794 296.053 95.5242 306.293C96.0832 308.826 97.0631 317.453 96.2442 319.517C95.6755 318.479 95.2234 317.211 94.7705 316.059C94.6644 314.679 94.5582 313.299 94.3363 312.033C93.7855 308.236 93.2347 304.439 92.5688 300.641C90.3596 286.373 88.0346 272.219 85.8254 257.951C83.0386 244.024 82.0996 229.075 79.5452 214.805C78.886 209.972 78.3427 205.026 77.6835 200.194C77.1416 195.018 76.6005 189.726 75.9435 184.549C75.294 178.223 74.6445 171.897 73.9957 165.455C73.2207 160.737 73.4828 155.796 72.7093 150.848C72.4992 147.743 72.2892 144.638 72.0791 141.533C72.3026 142.569 72.526 143.605 72.7495 144.641C73.1971 146.598 73.6447 148.555 74.0931 150.397C74.1963 152.237 74.4138 154.193 74.517 156.033C75.7233 165.237 76.6986 174.554 77.6748 183.756ZM141.382 350.845C137.707 349.557 135.575 341.267 133.987 337.578C128.201 324.782 124.262 311.192 119.169 297.94C114.762 285.382 110.355 272.824 105.834 260.265C104.028 254.736 102.108 249.091 100.303 243.561C98.1613 236.651 96.0188 229.855 93.762 222.943C91.6248 215.343 89.4875 207.742 87.2352 200.141C84.527 191.847 83.314 183.678 80.9518 175.271C79.4938 169.399 78.0358 163.527 76.6937 157.541C75.5749 152.591 76.4169 146.964 75.4147 141.785C75.2046 138.68 74.9946 135.575 74.7845 132.47C76.6842 141.218 78.5846 149.852 80.5994 158.601C82.0574 164.473 83.4003 170.344 84.8583 176.216C85.8687 180.131 86.879 184.046 87.8886 188.075C91.161 198.097 93.2774 208.916 96.7755 219.629C104.677 243.475 111.995 268.466 120.819 291.858C123.191 298.77 125.678 305.684 128.05 312.596C131.331 321.353 134.727 329.996 138.007 338.754C139.255 341.521 140.503 344.288 141.751 347.054C142.321 347.863 142.776 348.785 143.346 349.594C142.882 350.165 142.304 350.622 141.382 350.845ZM144.045 348.334C143.703 347.757 143.362 347.18 143.021 346.488C143.594 346.837 144.05 347.414 144.045 348.334C144.16 348.335 144.16 348.335 144.045 348.334ZM137.591 296.45C130.698 276.864 124.266 257.166 117.953 236.894C110.626 213.281 105.259 188.992 98.8593 164.352C95.1549 149.959 93.1781 135.348 89.5903 120.726C85.4442 103.456 83.0294 85.3937 79.3459 67.7826C78.3422 62.8332 77.6853 57.6562 76.568 52.4763C75.4508 47.2963 74.332 42.3462 75.0589 36.7184C76.2 38.2201 76.1814 41.0938 76.629 43.0508C77.5169 48.1143 78.4047 53.1779 79.2925 58.2414C82.7474 75.6212 86.0873 93.0002 89.5429 110.265C92.9028 124.541 95.2249 139.154 98.7006 153.315C99.5929 157.689 100.6 162.064 101.493 166.438C103.847 176.109 106.201 185.78 108.67 195.337C111.254 205.124 113.953 214.797 116.537 224.585C120.141 236.678 123.746 248.656 127.581 260.636C132.657 276.417 137.848 292.198 143.733 307.525C145.995 313.632 148.257 319.739 150.519 325.96C150.28 327.223 150.157 328.487 149.919 329.75C145.732 318.688 141.661 307.626 137.591 296.45ZM147.255 350.194C147.944 350.313 148.174 350.43 148.4 351.006C147.825 351.002 147.481 350.77 147.255 350.194ZM151.351 357.347C149.396 357.22 148.377 354.569 147.696 353.185C149.298 354.575 149.633 356.072 152.17 355.283C152.398 355.63 152.511 355.86 152.739 356.207C152.39 356.779 151.928 357.121 151.351 357.347ZM153.108 352.531C153.109 352.416 153.225 352.301 153.455 352.303C153.454 352.533 153.454 352.418 153.338 352.647C153.339 352.532 153.223 352.531 153.108 352.531ZM153.668 354.948C153.555 354.603 153.442 354.372 153.443 354.142C153.906 353.685 154.255 353.113 154.719 352.656C154.598 353.46 154.249 354.147 153.898 354.95C153.783 354.949 153.668 354.948 153.668 354.948ZM154.35 356.217C154.932 355.301 155.629 354.271 155.981 353.124C156.442 353.012 156.785 353.474 157.244 353.592C157.819 353.711 161.05 352.352 161.397 352.124C162.08 353.163 158.133 358.541 157.209 359.109C155.598 359.099 154.687 357.484 154.35 356.217ZM157.317 360.145C159.968 359.472 161.843 354.311 162.78 351.674C162.895 351.674 163.011 351.675 163.126 351.676C162.188 354.314 160.423 360.28 157.317 360.145ZM162.807 347.536C162.924 347.192 163.042 346.847 163.275 346.389C163.272 346.849 163.04 347.192 162.807 347.536ZM163.593 350.644C163.48 350.184 163.598 349.84 163.83 349.496C163.713 349.84 163.595 350.299 163.593 350.644ZM162.594 344.89C162.021 344.542 161.792 344.31 161.564 344.079C161.564 344.079 163.676 337.77 163.91 337.082C165.438 332.264 166.162 327.096 167.231 321.815C167.593 319.289 167.955 316.647 168.432 314.122C168.886 315.159 167.807 321.819 167.568 323.082C166.615 328.134 166.239 332.844 164.945 337.319C164.123 339.842 163.416 342.367 162.594 344.89ZM169.775 337.81C168.601 341.366 167.411 347.45 164.866 349.503C165.596 343.415 169.763 339.649 170.839 333.449C171.062 334.485 170.127 336.778 169.775 337.81ZM170.121 319.88C170.502 314.25 170.998 308.736 171.38 303.106C171.518 299.543 171.656 295.98 171.795 292.418C171.814 289.429 171.949 286.327 171.968 283.338C172.011 276.786 172.054 270.119 171.981 263.567C173.466 265.301 173.649 272.659 173.164 276.334C172.89 283.114 172.616 289.894 172.227 296.674C171.856 300.695 171.6 304.716 171.229 308.737C170.975 312.414 170.49 316.204 170.121 319.88ZM175.293 285.314C175.159 288.187 174.91 291.059 174.777 293.932C174.524 297.378 174.157 300.825 173.904 304.271C173.535 307.947 173.165 311.738 172.681 315.414C172.323 317.48 171.964 319.547 171.606 321.614C172.096 317.019 172.585 312.539 173.075 307.944C173.33 304.038 173.7 300.247 173.956 296.34C174.09 293.352 174.224 290.479 174.358 287.492C174.508 282.09 174.659 276.573 174.924 271.172C176.972 274.749 174.861 280.943 175.293 285.314ZM175.845 271.063C174.375 267.031 174.531 260.709 174.68 255.538C176.844 259 175.991 266.351 175.845 271.063ZM177.274 210.379C176.486 207.615 175.583 204.851 175.721 201.288C177.853 209.808 179.983 218.443 182.23 226.964C184.819 235.832 187.063 244.698 190 253.223C191.806 258.637 193.728 264.052 195.534 269.352C194.969 267.854 194.404 266.241 193.838 264.743C192.027 260.133 190.792 255.297 188.982 250.572C185.135 240.432 182.673 229.611 179.521 218.785C178.732 216.136 178.061 213.258 177.274 210.379ZM202.706 334.804C202.59 334.919 202.474 335.033 202.243 335.146C200.642 333.642 200.31 331.57 199.171 329.724C196.552 325.454 195.319 320.388 193.05 315.43C190.898 310.129 188.746 304.827 186.478 299.525C185.688 297.221 184.781 295.031 183.991 292.727C182.512 290.073 181.847 286.161 180.482 283.623C179.577 281.203 178.672 278.898 177.767 276.479C177.791 272.685 177.931 268.893 177.955 265.215C179.877 270.4 181.8 275.585 183.608 280.769C188.135 292.409 192.778 304.049 197.307 315.573C199.348 320.299 201.274 324.91 203.315 329.636C203.879 331.364 203.059 333.657 202.706 334.804ZM204.218 278.949C205.017 279.988 206.145 283.444 206.251 284.939C205.565 284.245 204.209 280.328 204.218 278.949ZM207.088 333.453C206.633 332.531 205.832 331.836 205.494 330.684C205.725 330.686 205.954 330.802 206.299 330.804C206.639 331.611 206.978 332.533 207.318 333.34C207.203 333.454 207.203 333.454 207.088 333.453ZM208.23 299.206C207.55 297.592 206.986 295.864 206.306 294.251C205.865 291.259 205.539 288.268 205.098 285.277C206.925 287.472 208.024 295.411 208.23 299.206ZM210.527 335.43C210.414 335.084 210.301 334.854 210.073 334.507C210.303 334.509 210.533 334.51 210.762 334.627C210.762 334.742 210.76 334.972 210.875 335.087C210.758 335.316 210.642 335.431 210.527 335.43ZM211.445 335.781C211.903 336.243 212.246 336.59 212.934 336.94C213.509 336.943 213.74 336.83 213.973 336.487C214.197 337.293 213.73 338.439 213.379 339.242C212.117 338.774 211.436 337.275 210.983 336.122C211.098 336.123 211.215 335.894 211.445 335.781ZM213.475 342.231C212.557 341.765 211.647 340.265 211.423 339.229C211.88 339.692 212.223 340.154 212.912 340.388C213.602 340.393 213.719 340.163 214.065 339.936C213.944 340.97 213.71 341.543 213.475 342.231ZM212.964 243.371C212.642 239.805 212.32 236.125 211.883 232.559C211.569 227.844 211.139 223.128 210.824 218.413C210.42 209.789 209.9 201.164 209.495 192.541C209.305 186.332 209 180.238 208.81 174.029C208.823 171.96 208.836 169.891 208.735 167.822C208.782 160.58 208.713 153.338 208.76 146.211C208.904 141.729 208.933 137.246 209.077 132.649C209.347 126.559 209.617 120.468 209.886 114.377C211.814 118.758 209.68 128.515 210.104 134.035C210.626 142.315 209.051 154.489 210.031 163.117C210.016 165.416 210.116 167.715 210.101 170.129C210.195 173.349 210.174 176.567 210.268 179.786C210.57 186.57 210.87 193.469 211.172 200.253C211.484 205.313 211.796 210.488 212.108 215.547C212.318 218.767 212.526 222.102 212.851 225.323C213.82 235.56 214.79 245.682 215.76 255.918C217.183 267.193 218.491 278.466 219.915 289.626C220.795 295.839 221.675 302.052 222.556 308.265C223.447 312.868 224.218 318.161 224.184 323.334C223.504 321.72 222.824 320.106 222.259 318.608C221.939 314.698 221.504 310.787 221.183 306.991C219.753 296.866 218.321 286.857 217.006 276.732C215.005 265.914 214.734 254.417 212.964 243.371ZM220.76 336.761C220.181 337.332 219.158 335.371 219.278 334.682C219.394 334.568 220.319 333.884 220.436 333.54C220.894 333.888 221.111 335.958 220.76 336.761ZM217.774 335.937C217.658 336.051 217.657 336.166 217.541 336.28C217.426 336.279 217.311 336.278 217.196 336.278C217.313 335.934 217.543 335.935 217.774 335.937ZM219.676 344.34C218.761 343.415 216.605 338.688 216.5 337.193C217.076 337.081 217.536 337.084 217.881 337.087C217.998 336.858 218.229 336.629 218.346 336.4C219.036 336.519 219.139 338.359 220.751 338.255C221.2 339.982 220.376 342.85 219.906 344.227C219.791 344.341 219.791 344.341 219.676 344.34ZM221.049 345.499C220.703 345.611 220.589 345.496 220.474 345.495C221.177 343.43 221.995 341.596 222.015 338.493C222.578 340.336 221.402 344.351 221.049 345.499ZM223.189 334.822C222.968 333.441 222.977 332.062 222.986 330.683C224.014 331.839 223.774 333.332 223.189 334.822ZM224.025 330.115C223.574 328.732 222.774 327.807 222.901 326.084C223.815 327.01 224.267 328.392 224.256 330.116C224.14 330.115 224.14 330.115 224.025 330.115ZM227.824 330.024C228.391 331.292 227.339 333.814 226.987 334.847C225.145 334.95 225.741 331.735 225.869 329.782C226.674 329.902 227.018 330.019 227.824 330.024ZM214.911 209.243C215.333 215.109 215.756 220.974 216.293 226.84C216.727 230.981 217.045 235.121 217.478 239.377C219.807 252.956 219.945 267.096 222.275 280.445C222.713 284.011 223.149 287.692 223.701 291.259C225.26 299.316 226.242 307.714 226.992 316.225C227.202 319.445 227.737 325.541 226.456 327.946C225.54 327.251 226.012 325.414 225.792 323.804C225.582 320.814 225.255 317.938 225.044 314.948C223.505 303.903 221.966 292.743 220.426 281.697C219.333 272.724 218.24 263.866 217.147 254.893C216.934 252.363 216.72 249.832 216.392 247.186C215.637 239.25 214.883 231.428 214.128 223.492C214.027 221.307 213.927 219.008 213.711 216.822C213.293 210.267 212.99 203.828 212.572 197.273C212.371 192.674 212.171 188.075 211.971 183.476C211.888 178.417 211.691 173.358 211.609 168.3C211.629 165.196 211.534 162.092 211.554 158.989C211.574 155.885 211.594 152.782 211.499 149.677C211.544 142.666 211.704 135.77 211.749 128.758C212.657 130.833 212.407 133.82 212.736 136.351C212.713 139.914 212.69 143.478 212.667 147.041C212.748 152.329 212.829 157.617 212.909 162.906C213.002 166.355 212.98 169.803 213.073 173.137C214.28 182.226 213.173 193.369 214.608 202.689C214.823 204.99 214.925 207.059 214.911 209.243ZM245.889 170.246C246.687 171.401 246.44 174.043 246.775 175.539C247.889 181.179 247.621 187.155 247.237 193.015C246.572 189.217 245.906 185.419 245.239 181.737C245.494 177.83 245.749 174.038 245.889 170.246ZM246.907 208.531C246.687 206.92 246.352 205.309 246.132 203.813C245.128 198.864 244.128 193.339 244.959 189.437C245.181 190.702 245.402 192.083 245.624 193.349C246.628 198.299 247.055 203.359 246.907 208.531ZM222.722 15.8335C222.721 15.9484 222.836 16.0641 222.834 16.294C222.604 16.2925 222.605 16.0626 222.722 15.8335ZM222.818 18.7079C223.483 22.7354 224.263 26.6487 224.927 30.6763C226.701 41.1482 228.474 51.735 230.132 62.2062C233.032 76.4787 234.085 91.544 236.867 106.161C237.414 110.532 238.076 115.02 238.623 119.391C240.825 134.694 243.027 150.111 245.345 165.415C245.091 169.091 244.952 172.769 244.699 176.331C243.921 171.958 243.259 167.585 242.597 163.213C241.057 152.168 239.402 141.237 237.862 130.192C237.201 125.704 236.54 121.102 235.879 116.615C232.869 101.652 232.167 85.5542 229.155 70.9361C228.38 66.2181 227.72 61.5009 226.945 56.7829C225.949 50.6842 224.953 44.5854 223.956 38.4866C222.502 32.04 221.393 25.5956 222.818 18.7079ZM221.349 32.3774C222.235 37.7857 223.005 43.1934 223.892 48.4868C226.345 60.5724 227.301 72.8782 229.638 85.1929C232.721 106.708 235.804 128.224 238.887 149.74C239.878 156.528 240.871 163.202 241.863 169.99C243.201 176.551 244.426 182.881 243.917 190.464C242.585 182.869 241.369 175.16 240.037 167.564C238.714 158.705 237.39 149.845 236.066 140.985C233.095 120.045 230.123 99.105 227.152 78.1649C225.606 68.0393 223.945 58.028 222.399 47.9024C221.621 43.6442 219.938 37.0812 221.349 32.3774ZM219.354 20.5246C220.264 22.2548 219.326 24.8926 219.198 26.9608C218.403 25.2314 219.112 22.3623 219.354 20.5246ZM246.167 340.603C244.563 339.558 244.232 337.372 243.783 335.645C242.66 331.385 242.914 327.708 241.795 322.758C240.564 317.347 240.723 310.566 239.379 304.925C239.732 303.663 238.846 298.254 238.511 296.643C238.748 295.725 237.867 289.512 237.531 288.13C237.205 285.14 236.88 282.034 236.554 279.043C235.783 273.635 235.014 268.113 234.243 262.705C234.595 261.673 233.475 256.953 233.137 255.801C233.488 254.884 232.15 248.323 231.81 247.401C231.589 246.135 231.482 244.755 231.26 243.489C230.707 240.152 230.153 236.815 229.484 233.477C228.934 229.565 228.27 225.538 227.719 221.626C226.278 213.225 224.837 204.71 223.395 196.309C223.065 194.008 222.735 191.707 222.405 189.291C219.972 173.987 217.54 158.682 214.991 143.493C215.043 135.561 215.209 127.631 215.261 119.585C217.358 133.392 219.455 147.2 221.667 161.008C223.217 170.559 224.766 180.11 226.2 189.66C228.969 206.346 231.738 223.031 234.507 239.717C235.388 245.815 236.384 251.914 237.265 258.012C238.138 265.374 239.126 272.737 240 279.985C240.431 284.586 240.977 289.072 241.408 293.673C243.407 304.836 243.785 317.483 245.573 325.771C245.907 327.497 246.125 329.338 246.459 331.064C246.912 332.217 247.25 333.368 247.703 334.521C248.27 335.789 246.745 340.262 246.167 340.603ZM248.657 329.354C247.43 323.369 247.243 316.701 246.021 309.911C245.693 307.15 245.366 304.389 244.923 301.627C244.601 298.177 244.278 294.611 243.84 291.16C243.078 284.488 242.316 277.816 241.553 271.144C238.778 255.493 237.727 240.083 234.375 224.543C233.711 220.4 233.048 216.258 232.385 212C229.836 196.81 227.403 181.621 224.854 166.431C224.305 162.405 223.641 158.377 223.092 154.235C222.097 147.907 221.103 141.578 220.109 135.134C219.89 133.409 219.671 131.568 219.453 129.842C218.352 122.019 217.138 114.079 216.038 106.256C216.171 103.498 216.189 100.739 216.321 97.9811C217.2 104.424 218.195 110.753 219.074 117.196C221.502 133.189 223.815 149.182 226.244 165.176C230.562 191.412 234.881 217.534 239.199 243.771C240.189 250.789 241.18 257.692 242.17 264.711C243.265 273.454 244.358 282.312 245.452 291.055C245.67 293.011 245.772 294.966 245.989 297.036C246.423 301.062 246.857 305.088 247.406 309.23C248.401 315.559 248.821 321.769 248.657 329.354ZM252.146 163.619C253.393 166.501 252.335 169.943 252.426 173.737C252.166 178.333 252.022 182.815 251.762 187.411C250.286 184.298 250.924 174.647 251.641 170.513C251.771 168.215 251.901 165.917 252.146 163.619ZM251.151 157.291C251.833 158.675 250.293 165.447 250.273 168.435C249.707 167.052 250.794 159.128 251.151 157.291ZM250.096 195.792C250.667 196.6 250.541 198.209 250.764 199.245C251.658 203.504 251.046 209.017 250.898 214.189C250.45 212.347 250.117 210.391 249.784 208.549C249.926 204.297 249.954 200.044 250.096 195.792ZM250.167 220.392C251.06 224.651 251.138 230.399 251.337 235.228C250.455 229.36 249.568 224.066 249.611 217.514C249.835 218.435 250.058 219.471 250.167 220.392ZM249.591 327.291C250.389 328.331 250.702 333.391 250.351 334.308C248.868 332.229 249.573 330.05 249.591 327.291ZM251.703 338.8C251.587 338.914 251.472 338.913 251.356 339.028C250.669 338.448 250.332 337.182 249.878 336.259C250.452 336.378 250.914 336.151 251.147 335.693C251.948 336.503 252.054 337.883 251.703 338.8ZM259.368 150.102C259.367 150.217 259.251 150.446 259.25 150.561C259.138 150.101 259.026 149.64 259.029 149.18C259.141 149.641 259.254 149.871 259.368 150.102ZM258.479 145.153C258.703 146.189 258.811 147.225 259.035 148.261C258.92 148.26 258.689 148.373 258.574 148.373C258.234 147.451 258.356 146.417 258.479 145.153ZM255.943 341.471C257.317 342.63 256.855 342.857 258.815 342.294C259.039 343.215 258.227 344.245 257.991 345.048C257.876 345.162 257.76 345.276 257.529 345.39C256.383 344.693 256.164 342.967 255.712 341.7C255.827 341.7 255.942 341.586 255.943 341.471ZM258.085 348.382C257.278 348.607 256.715 346.649 256.604 346.073C257.177 346.422 257.291 346.538 258.213 346.429C258.445 346.085 258.793 345.628 259.026 345.285C259.365 346.206 258.435 347.695 258.085 348.382ZM262.586 150.813C262.589 150.238 262.593 149.663 262.712 149.089C263.168 149.782 262.819 150.354 262.586 150.813ZM292.502 115.717C292.614 116.177 292.727 116.638 292.953 117.214C292.606 117.556 292.606 117.442 292.488 117.901C292.144 117.783 292.03 117.553 291.455 117.549C291.919 116.977 292.268 116.405 292.502 115.717ZM293.062 118.134C292.83 118.363 292.715 118.362 292.601 118.246C292.602 118.131 292.603 118.016 292.488 117.901C292.603 117.901 292.718 117.902 292.949 117.904C292.948 118.018 293.063 118.019 293.062 118.134ZM283.925 125.317C283.928 124.742 283.932 124.167 283.821 123.477C284.055 123.019 284.284 123.135 283.939 123.018C284.059 122.329 284.063 121.754 284.182 121.065C284.876 120.61 285.335 120.728 286.255 120.849C286.252 121.309 286.248 121.883 286.245 122.343C285.784 122.455 285.323 122.682 284.861 122.794C284.515 123.022 284.045 124.513 283.925 125.317ZM286.269 154.184C285.858 146.71 285.445 139.351 285.033 131.876C284.59 129.115 284.735 124.632 286.124 123.262C286.106 126.136 286.202 129.01 286.184 131.884C286.594 139.588 287.004 147.292 287.531 154.882C288.26 166.612 288.875 178.341 289.604 190.185C290.014 197.89 290.425 205.594 290.95 213.299C291.152 217.668 291.354 222.038 291.671 226.408C291.964 234.456 292.257 242.62 292.665 250.669C292.216 248.941 291.766 247.214 291.317 245.602C291.326 244.108 291.335 242.729 291.23 241.233C290.927 234.679 290.625 228.01 290.322 221.456C288.856 199.032 287.62 176.608 286.269 154.184ZM286.418 255.686C286.755 256.953 287.092 258.219 287.429 259.486C288.33 262.595 289.69 265.708 289.552 269.385C288.777 264.667 286.391 259.939 286.418 255.686ZM287.586 324.204C286.579 319.714 285.688 315.225 284.681 310.736C282.331 300.49 280.784 290.479 277.855 280.805C276.73 276.774 275.606 272.744 274.482 268.598C273.242 264.567 272.004 260.191 272.154 254.789C273.953 261.353 275.752 267.917 277.551 274.48C279.802 282.197 281.591 290.255 283.61 298.429C285.743 306.604 287.189 314.43 287.586 324.204ZM287.19 243.047C288.539 248.113 289.422 253.866 289.264 260.417C288.253 256.732 287.241 252.933 286.23 249.248C286.14 245.339 286.05 241.43 285.845 237.635C286.408 239.478 286.741 241.319 287.19 243.047ZM273.46 159.734C273.346 159.503 273.348 159.274 273.349 159.044C273.348 159.274 273.462 159.504 273.46 159.734ZM273.445 162.033C274.583 163.994 274.332 167.211 274.777 169.628C275.657 175.956 276.536 182.284 277.415 188.727C279.081 198.049 279.711 207.364 281.609 216.457C283.507 225.435 285.524 233.84 285.222 244.873C284.324 241.419 283.542 237.85 282.758 234.397C281.755 229.447 280.751 224.498 279.747 219.549C278.529 212.184 277.311 204.819 276.092 197.57C275.763 195.154 275.548 192.738 275.218 190.322C274.225 183.764 273.348 177.091 272.354 170.532C272.833 167.662 273.196 164.905 273.445 162.033ZM271.961 178.001C273.391 188.126 274.937 198.252 276.367 208.377C278.373 218.505 279.804 228.63 282.157 238.416C282.828 241.409 283.5 244.287 284.171 247.28C284.847 249.584 285.524 251.657 285.504 254.646C283.706 248.082 282.136 241.634 280.452 235.071C277.761 224.134 276.338 212.974 273.996 201.349C273.443 198.012 273.004 194.676 272.45 191.339C271.783 187.771 270.784 182.017 271.961 178.001ZM270.169 259.259C270.272 261.214 270.374 263.169 270.591 265.239C270.696 266.849 270.686 268.344 270.79 269.954C271.001 273.059 271.21 276.279 271.535 279.384C270.633 276.505 269.846 273.626 269.059 270.747C268.756 264.193 268.339 257.523 268.036 250.969C268.486 252.581 268.936 254.193 269.386 255.806C269.609 256.957 269.831 258.108 270.169 259.259ZM269.868 163.504C270.891 165.465 269.943 169.712 269.813 172.01C268.792 169.704 269.621 166.146 269.868 163.504ZM267.896 237.174C268.906 241.089 269.569 245.346 269.538 250.059C269.201 248.793 268.979 247.527 268.642 246.26C267.746 242.576 267.083 238.203 267.113 233.606C267.335 234.872 267.673 236.023 267.896 237.174ZM266.507 256.132C266.616 257.052 266.925 262.687 266.693 262.915C266.133 260.613 265.458 258.194 264.898 255.892C264.597 248.993 264.296 242.094 263.996 235.195C264.218 236.346 264.557 237.382 264.78 238.533C265.116 239.915 265.452 241.412 265.788 242.793C266.104 247.278 266.306 251.648 266.507 256.132ZM264.7 339.689C265.393 339.348 265.74 339.121 266.089 338.548C267.23 340.05 266.647 341.196 265.947 342.685C265.832 342.685 265.717 342.684 265.601 342.798C265.263 341.646 264.461 341.067 264.7 339.689ZM265.331 153.359C265.101 153.358 265.101 153.358 264.986 153.242C264.988 153.012 264.99 152.667 264.877 152.437C265.105 152.668 265.218 153.014 265.331 153.359ZM263.876 218.181C264.447 218.76 264.435 220.599 264.66 221.52C265.331 224.513 265.533 228.768 265.394 232.445C264.835 230.028 264.274 227.725 263.83 225.308C263.845 222.894 263.861 220.48 263.876 218.181ZM264.975 350.611C263.833 349.224 262.833 343.7 263.42 341.979C263.535 341.98 263.65 341.981 263.88 341.982C263.646 342.671 264.674 343.827 265.592 344.178C265.939 343.95 266.399 343.953 266.976 343.727C266.155 346.135 265.794 348.547 264.975 350.611ZM266.116 352.112C265.772 351.995 265.657 351.88 265.658 351.765C267.161 350.625 268.348 345.115 268.365 342.471C269.161 343.971 266.697 351.312 266.116 352.112ZM267.264 334.762C267.259 335.567 267.253 336.487 267.363 337.292C267.025 336.14 267.028 335.681 267.264 334.762ZM270.868 329.038C270.2 325.585 269.65 321.789 269.099 317.992C268.677 312.012 268.255 306.146 267.718 300.166C267.401 295.795 267.2 291.311 266.883 286.941C266.363 278.316 265.729 269.691 265.209 261.066C265.546 262.333 265.884 263.485 266.221 264.751C267.799 269.934 267.18 276.597 268.176 282.696C268.708 289.482 269.124 296.266 269.656 303.052C269.976 306.962 270.18 310.987 270.5 314.897C271.163 319.155 271.243 324.443 270.868 329.038ZM269.372 275.807C269.596 276.728 269.82 277.649 270.159 278.571C270.722 280.529 271.284 282.601 271.962 284.56C272.173 287.55 272.383 290.655 272.593 293.645C273.701 300.319 273.421 308.019 274.065 315.265C274.274 318.485 274.477 322.739 273.998 325.495C273.64 327.562 273.166 329.628 272.807 331.81C272.82 329.741 272.833 327.787 272.846 325.718C272.641 321.923 272.551 318.014 272.345 314.219C271.278 301.338 270.325 288.572 269.372 275.807ZM272.752 340.316C271.033 339.155 271.851 337.321 272.209 335.254C273.246 335.031 273.705 335.264 274.405 333.774C274.854 335.501 273.221 338.939 272.752 340.316ZM287.56 345.929C286.878 344.66 286.311 343.392 285.744 342.009C284.177 335.332 282.609 328.654 281.156 321.978C280.265 317.374 279.374 312.77 278.483 308.167C277.252 302.871 276.02 297.575 274.789 292.28C274.47 288.139 274.267 284 273.949 279.745C273.739 276.64 273.53 273.42 273.205 270.314C273.655 271.811 273.991 273.308 274.442 274.69C275.452 278.72 276.577 282.75 277.586 286.78C280.408 295.305 281.142 306.345 283.727 315.902C284.396 319.24 285.18 322.579 285.849 325.802C287.539 331.445 288.879 337.776 287.56 345.929ZM291.4 339.402C290.385 336.291 289.371 332.836 288.702 329.499C288.605 326.739 288.507 324.095 288.295 321.334C288.866 321.913 289.19 325.249 289.413 326.399C290.649 331.005 291.548 334.345 291.4 339.402ZM291.679 260.778C293.277 262.742 293.337 271.249 293.313 275.042C292.863 273.315 292.414 271.588 291.964 269.976C291.869 266.871 291.774 263.882 291.679 260.778ZM292.638 343.778C292.295 343.316 292.07 342.625 291.843 342.048C291.963 341.359 292.541 340.903 292.776 340.215C293.229 341.253 292.645 342.628 292.638 343.778ZM293.593 285.045C293.034 282.512 292.242 280.438 292.263 277.219C293.402 279.066 293.611 282.286 293.593 285.045ZM294.433 119.752C294.435 119.407 294.322 119.062 294.324 118.717C294.668 118.949 294.895 119.41 294.892 119.87C294.777 119.869 294.663 119.754 294.433 119.752ZM297.222 346.681C297.794 347.145 297.672 348.178 298.71 347.955C298.59 348.644 298.586 349.334 298.466 350.023C297.897 348.985 297.56 347.833 297.222 346.681ZM298.678 352.898C298.45 352.437 298.338 352.091 298.226 351.631C298.456 351.632 298.571 351.633 298.801 351.634C298.684 351.978 298.681 352.438 298.678 352.898ZM301.128 347.741C301.129 347.511 301.13 347.396 301.131 347.281C301.245 347.397 301.129 347.511 301.128 347.741ZM305.352 352.941C304.79 350.868 304.228 348.796 303.782 346.609C304.014 346.265 304.128 346.381 304.246 346.037C305.391 346.849 305.595 350.874 305.352 352.941ZM305.823 297.883C305.336 284.201 304.849 270.634 304.362 256.952C303.238 234.989 302.229 213.142 301.105 191.179C300.591 181.635 300.194 171.977 299.68 162.433C299.264 155.648 298.846 148.978 298.43 142.193C298.006 136.558 297.582 131.038 297.158 125.402C300.136 127.491 298.83 133.805 299.492 138.177C299.592 140.477 299.691 142.891 299.907 145.192C300.434 152.667 300.845 160.256 301.372 167.731C301.474 169.801 301.46 171.87 301.562 173.94C302.365 192.107 303.284 210.16 304.087 228.327C304.595 238.676 305.219 249.026 305.727 259.374C305.826 261.904 305.809 264.433 305.907 267.077C306.089 274.55 306.387 281.909 306.569 289.382C306.97 298.465 307.372 307.549 307.889 316.518C307.666 315.367 307.444 314.217 307.221 313.066C306.775 310.879 306.329 308.692 305.883 306.39C306.017 303.517 305.92 300.758 305.823 297.883ZM306.251 356.28C306.259 355.016 306.383 353.637 306.507 352.259C306.962 353.066 306.6 355.593 306.251 356.28ZM308.748 343.882C308.298 342.27 307.962 340.773 307.627 339.162C307.425 334.907 307.337 330.654 307.135 326.284C307.359 327.32 307.582 328.356 307.806 329.392C308.701 333.306 309.471 338.829 308.748 343.882ZM310.014 326.073C309.613 316.874 309.097 307.675 308.695 298.591C308.509 291.808 308.208 285.024 308.022 278.241C308.037 275.942 307.936 273.757 307.95 271.459C307.646 265.134 307.343 258.695 307.038 252.371C306.633 243.862 306.113 235.352 305.707 226.844C305.208 215.115 304.594 203.272 304.095 191.543C304.002 188.094 303.909 184.645 303.701 181.31C303.604 178.436 303.508 175.447 303.297 172.572C302.779 163.602 302.147 154.632 301.63 145.663C300.744 140.254 301.815 134.859 300.582 129.793C300.133 128.066 299.568 126.338 298.54 125.182C298.082 124.834 297.623 124.601 297.165 124.253C296.822 123.906 296.379 121.259 296.037 120.797C296.843 120.688 297.995 120.465 298.684 120.699C298.8 120.585 298.916 120.471 299.032 120.357C301.33 120.832 302.122 122.906 302.104 125.664C301.303 125.084 300.388 124.159 299.237 124.151C299.236 124.381 299.235 124.496 299.234 124.726C303.943 126.136 302.053 133.596 302.941 138.659C303.57 148.204 304.083 157.748 304.712 167.293C304.808 170.282 304.903 173.272 304.999 176.261C305.801 194.543 306.719 212.826 307.521 231.108C308.038 240.193 308.554 249.392 309.07 258.476C309.167 261.236 309.265 263.995 309.362 266.755C309.458 269.744 309.437 272.848 309.533 275.837C309.828 283.655 310.122 291.474 310.532 299.293C310.844 304.468 311.04 309.757 311.352 314.932C311.453 317.116 311.553 319.416 311.654 321.601C311.742 325.739 311.946 329.764 312.034 333.903C311.246 331.254 310.687 328.721 310.014 326.073ZM312.541 344.481C312.319 343.215 311.525 341.486 311.76 340.683C312.105 340.8 312.334 340.917 312.679 340.919C312.671 342.183 312.549 343.332 312.541 344.481Z" fill="#D4F54D"/>
</svg>
