<svg width="133" height="96" viewBox="0 0 133 96" fill="none" xmlns="http://www.w3.org/2000/svg">
<path fill-rule="evenodd" clip-rule="evenodd" d="M93.6626 47.09L126 73.5546L93.6626 47.09L126 73.5546L79.2692 70.3954L77.9459 96L55.8881 92.1592L39.7359 84.343L17.8417 87.6477L53.5464 45.8305L0.949284 55.7039L32.0071 43.787L0 18.0204L13.1561 0.856205L37.6855 3.24453L55.5685 5.17556L68.4939 15.5444L107.79 0L91.8581 32.7248L93.6626 47.09Z" fill="#FF6635"/>
<path d="M96.983 53.2496C96.983 56.4095 95.8108 59.4675 93.6872 61.795C93.6872 61.795 93.6872 61.812 93.6702 61.812C93.6702 61.8459 93.6532 61.8629 93.6532 61.8799C93.3644 63.3919 92.8887 64.87 92.2091 66.2631C90.9689 68.8793 89.1002 71.1558 86.7897 72.8887C86.5009 73.0926 86.2121 73.3134 85.9233 73.5003C85.8723 73.5343 85.8213 73.5683 85.7704 73.6022C84.853 74.1969 83.8846 74.7065 82.8822 75.1143L82.9332 75.1652C83.7147 75.8618 84.3943 76.6602 84.9719 77.5267C88.4206 82.4874 89.2531 89.7417 89.4399 92.9016C89.4569 93.3093 89.304 93.7171 89.0322 94.0059C88.7604 94.2947 88.3527 94.4646 87.9449 94.4646H83.3749C82.6444 94.4646 82.0158 93.9549 81.8799 93.2414C81.4382 90.9989 79.7733 86.208 73.0117 83.9655C65.6555 81.5191 63.3111 79.0557 62.6995 74.9614C62.5636 73.959 62.5126 72.9567 62.5126 71.9543C59.9133 71.9543 57.348 71.4786 54.9186 70.5273C51.9455 73.976 47.3585 75.573 42.8735 74.7235C38.4054 73.8741 34.7188 70.6971 33.2238 66.382C32.3234 66.7048 31.389 66.9766 30.4376 67.1635C29.3843 67.3503 28.331 67.4523 27.2607 67.4523C17.7299 67.4863 10 59.7733 10 50.2425C10 47.6602 10.5776 45.0949 11.7329 42.7674C12.1916 41.7651 12.7692 40.8307 13.4318 39.9473C13.3468 39.6925 13.2619 39.4376 13.2109 39.1658C13.075 38.6222 13.007 38.0445 13.024 37.4839C13.024 33.8993 15.5554 30.8243 19.0721 30.1277C19.0381 29.8389 19.0211 29.5331 19.0211 29.2443C19.0211 28.5308 19.089 27.8002 19.2589 27.1037C20.2613 22.6526 24.2027 19.4927 28.7727 19.4927C30.2337 19.4927 31.6778 19.8155 33.0029 20.4611C35.1605 16.8084 38.8301 14.3281 43.0264 13.6655C47.2226 13.0029 51.4698 14.2431 54.6637 17.0293C56.1418 14.6509 58.843 13.2918 61.6292 13.5126C64.4323 13.7335 66.8617 15.5173 67.949 18.0996C68.6286 18.0147 69.3251 17.9807 70.0217 17.9807C79.3825 17.9807 87.1804 25.15 87.9619 34.4769H88.0299C90.6971 34.4769 93.1775 35.887 94.5196 38.1974C95.8617 40.5079 95.8787 43.3451 94.5536 45.6725C96.1166 47.8811 96.983 50.5314 96.983 53.2496Z" fill="#FFBABA"/>
<path d="M27.3966 32.7093C27.1417 32.9132 26.8189 33.0151 26.4961 33.0151C26.0205 33.0151 25.5787 32.7942 25.2899 32.4205C23.8968 30.5857 21.5694 29.6853 19.3098 30.11C19.2249 30.127 19.123 30.144 19.038 30.144C19.004 29.8552 18.9871 29.5494 18.9871 29.2606C18.9871 28.547 19.055 27.8165 19.2249 27.12C22.4698 26.6613 25.7147 28.0034 27.6854 30.6367C28.195 31.2822 28.0591 32.2166 27.3966 32.7093Z" fill="#EE8686"/>
<path d="M93.6532 61.8795C93.3644 63.3915 92.8887 64.8695 92.2092 66.2626C90.4084 67.0781 88.4546 67.5028 86.4839 67.4858C84.2414 67.4858 82.0159 66.9592 80.0282 65.9228C78.8899 65.3452 77.8366 64.6317 76.9022 63.7653C73.2326 65.5151 68.8325 63.9861 67.0317 60.3505C66.7429 59.8748 66.7429 59.2632 67.0487 58.7875C67.3375 58.3118 67.8811 58.04 68.4417 58.074C69.0024 58.1249 69.4951 58.4817 69.6989 58.9914C70.6333 60.8771 72.7229 61.8625 74.7616 61.3868C76.8003 60.9111 78.2443 59.0763 78.2273 56.9867C78.2273 56.2901 78.0574 55.5936 77.7516 54.982C77.3949 54.2345 77.6837 53.3511 78.4312 52.9773C79.1617 52.6036 80.0621 52.9094 80.4359 53.6399C81.795 56.3581 81.3873 59.637 79.3656 61.9135C79.9772 62.4401 80.6567 62.8988 81.3703 63.2556C85.3796 65.3112 90.2215 64.7676 93.6532 61.8795Z" fill="#EE8686"/>
<path d="M82.9163 75.165C83.6978 75.8616 84.3773 76.6601 84.955 77.5265C83.29 78.325 81.5402 78.8686 79.7224 79.1574C79.6374 79.1744 79.5695 79.1744 79.4845 79.1744C78.754 79.1744 78.1254 78.6478 78.0065 77.9172C77.9386 77.5265 78.0405 77.1188 78.2783 76.796C78.5162 76.4732 78.856 76.2523 79.2637 76.2014C80.5039 75.9975 81.7271 75.6577 82.9163 75.165Z" fill="#EE8686"/>
<path d="M69.1042 74.0107C67.4732 74.5034 65.7913 74.8092 64.0925 74.9281C63.6507 74.9791 63.1581 74.996 62.6654 74.996C62.5295 73.9937 62.4785 72.9914 62.4785 71.989C62.9372 71.989 63.4129 71.972 63.8546 71.9211C65.3326 71.8191 66.7937 71.5643 68.2208 71.1226C68.7304 70.9697 69.2911 71.1056 69.6818 71.4624C70.0725 71.8361 70.2424 72.3798 70.1235 72.9064C70.0046 73.4331 69.6138 73.8578 69.1042 74.0107Z" fill="#EE8686"/>
<path d="M34.0902 56.4592C33.0539 58.209 32.4933 60.1967 32.4933 62.2354C32.4933 63.4926 32.6971 64.7328 33.1219 65.905C33.1728 66.0749 33.2068 66.2448 33.2068 66.4147C32.3064 66.7374 31.372 67.0093 30.4206 67.1961C30.3697 67.1112 30.3357 67.0263 30.3017 66.9243C29.7581 65.4123 29.4862 63.8324 29.4862 62.2354C29.4862 61.9806 29.5372 61.7427 29.5372 61.4879H29.4862C25.3409 61.4879 21.9941 58.1241 21.9941 53.9958C21.9941 53.1633 22.6567 52.4838 23.4892 52.4668C23.8799 52.4668 24.2706 52.6197 24.5425 52.8915C24.8313 53.1633 24.9842 53.5371 24.9842 53.9448V54.0128C24.9842 56.4932 27.0059 58.4978 29.4862 58.5148C29.6561 58.5148 29.826 58.4978 29.9959 58.4639C30.3357 57.2237 30.8453 56.0345 31.5079 54.9302C31.9496 54.2336 32.867 53.9958 33.5806 54.4205C34.2941 54.8282 34.5149 55.7626 34.0902 56.4592Z" fill="#EE8686"/>
<path d="M31.4569 25.6253C31.321 25.6253 31.2021 25.6083 31.0832 25.5743C30.6924 25.4724 30.3696 25.2176 30.1658 24.8778C29.9619 24.538 29.9109 24.1303 30.0129 23.7395C31.406 18.456 35.4153 14.2767 40.6479 12.6968C45.8805 11.1168 51.5378 12.323 55.6321 15.9247C56.0568 16.2644 56.2607 16.8251 56.1588 17.3687C56.0568 17.9124 55.6661 18.3541 55.1564 18.524C54.6298 18.6938 54.0691 18.5579 53.6614 18.1842C51.3339 16.1455 48.3609 15.0243 45.2689 15.0243C40.7668 15.0412 36.6046 17.4027 34.2941 21.2592C33.6995 22.2785 33.2408 23.3658 32.952 24.521C32.7481 25.1666 32.1365 25.6253 31.4569 25.6253Z" fill="#EE8686"/>
<path d="M68.4925 22.4991C67.6601 22.4991 66.9975 21.8196 66.9975 21.0041C66.9975 17.6913 64.3133 15.007 61.0004 15.007C57.6876 15.007 54.9864 17.6913 54.9864 21.0041C54.9864 21.8366 54.3068 22.4991 53.4914 22.4991C52.6759 22.4991 51.9963 21.8196 51.9963 21.0041C51.9963 16.0264 56.0227 12 61.0004 12C65.9782 12 70.0045 16.0264 70.0045 21.0041C70.0045 21.3948 69.8516 21.7856 69.5628 22.0574C69.274 22.3462 68.8833 22.4991 68.4925 22.4991Z" fill="#EE8686"/>
<path d="M91.1559 50.2925C90.4594 50.2925 89.8478 49.7999 89.6949 49.1203C89.542 48.4407 89.8818 47.7272 90.5273 47.4384C91.6656 46.9118 92.6 46.0453 93.2286 44.958C94.6386 42.4777 94.112 39.3687 91.9714 37.4829C89.8308 35.5972 86.6709 35.4952 84.3944 37.1941C83.9696 37.5169 83.392 37.5849 82.8993 37.381C82.4067 37.1771 82.0669 36.7184 81.9989 36.1748C81.931 35.6481 82.1518 35.1215 82.5935 34.7987C85.3118 32.76 88.9644 32.4202 92.0224 33.9492C95.0804 35.4782 97.0001 38.5872 97.0001 42.002C97.0001 45.5017 94.9784 48.6786 91.8015 50.1566C91.5806 50.2416 91.3768 50.2925 91.1559 50.2925Z" fill="#EE8686"/>
<path d="M53.4916 58.4996H53.4576C52.761 58.4826 52.1494 57.9899 52.0135 57.2934L47.4775 34.6472L45.9485 42.2922C45.8126 42.9888 45.184 43.4984 44.4705 43.4984H33.9713C33.1389 43.4984 32.4763 42.8189 32.4763 42.0034C32.4763 41.188 33.1559 40.5084 33.9713 40.5084H43.2473L46.0164 26.6964C46.1524 25.9999 46.7809 25.4902 47.4945 25.4902C48.208 25.4902 48.8196 25.9999 48.9725 26.6964L53.6275 49.9372L58.0446 31.1475C58.1975 30.485 58.7921 30.0093 59.4716 29.9923C60.1512 29.9753 60.7628 30.417 60.9497 31.0796L63.6339 40.4914H66.9977C67.8302 40.4914 68.4927 41.171 68.4927 41.9864C68.4927 42.8019 67.8132 43.4814 66.9977 43.4814H62.4957C61.8331 43.4814 61.2385 43.0397 61.0516 42.3942L59.6415 37.4334L54.9696 57.3274C54.7997 58.0069 54.1881 58.4996 53.4916 58.4996Z" fill="white"/>
<path d="M75.985 43.4969H72.9779C72.1455 43.4969 71.4829 42.8173 71.4829 42.0019C71.4829 41.1864 72.1625 40.5068 72.9779 40.5068H75.985C76.8174 40.5068 77.48 41.1864 77.48 42.0019C77.48 42.8173 76.8174 43.4969 75.985 43.4969Z" fill="white"/>
<path d="M94.383 63.9692C95.858 67.4378 98.3482 70.8688 101.833 72.3476C102.231 72.5152 102.682 72.6409 103.146 72.7456C104.074 71.3464 105.139 70.2111 106.386 69.2811C107.459 68.4851 108.582 67.8609 109.738 67.3708C109.407 67.1362 109.059 66.9226 108.694 66.7299C107.244 65.9632 105.674 65.2888 104.145 64.564C105.583 64.9578 107.232 65.1044 108.607 65.6113C109.465 65.9297 110.256 66.3696 110.994 66.8932C113.194 66.135 115.493 65.7705 117.789 65.494C115.928 62.3689 111.959 59.8595 108.968 58.7242C105.844 57.5387 102.305 57.3921 98.8288 57.0276C96.6991 56.8056 94.383 56.0012 92.6884 55.0628C92.303 54.8492 91.8929 55.2053 92.0254 55.6368C92.8583 58.3304 93.2809 61.3802 94.383 63.9692Z" fill="white"/>
<path d="M131.114 63.5584C127.194 65.7117 122.699 65.9756 118.294 66.4867C116.144 66.7381 114.014 67.0481 111.988 67.6681C111.549 67.8021 111.11 67.9529 110.679 68.1205C109.398 68.6148 108.164 69.2642 106.999 70.1313C105.906 70.944 105.011 71.9076 104.257 72.9674C103.055 74.6599 102.218 76.6079 101.53 78.6313C100.275 82.3052 99.6988 86.2096 99.8107 90.093C99.8563 91.6682 99.8811 93.3061 100.266 94.8436C100.353 95.1829 100.436 95.6144 100.697 95.8658C101.037 96.1967 101.646 95.8574 101.509 95.3756C100.523 91.9782 101.137 88.0068 102.5 84.7601C104.066 81.0275 107.091 78.8072 110.786 77.4541C111.768 77.0938 112.771 76.7796 113.79 76.4822C113.811 76.4738 113.832 76.4738 113.853 76.4738C114.056 76.4738 114.143 76.7754 113.931 76.8718C112.73 77.4206 111.536 77.9736 110.401 78.5726C104.841 81.5051 102.413 88.3335 104.497 88.3335C104.667 88.3335 104.866 88.2875 105.093 88.1911C108.309 86.8464 112.129 86.8338 115.663 86.1719C116.906 85.9415 118.116 85.6273 119.251 85.1497C123.759 83.2478 126.983 79.5278 128.901 75.0537C130.331 71.7149 130.886 67.7728 131.967 64.3041C132.108 63.8601 131.797 63.4788 131.416 63.4788C131.321 63.4746 131.217 63.4998 131.114 63.5584Z" fill="white"/>
</svg>
