<svg width="138" height="98" viewBox="0 0 138 98" fill="none" xmlns="http://www.w3.org/2000/svg">
<path fill-rule="evenodd" clip-rule="evenodd" d="M129.603 57.3004L138 86.7325L129.603 57.3004L138 86.7325L69.7924 72.0852L56.0744 98L30.2845 85.0958L0 77.4453L10.8597 57.3004L30.8884 48.2522L3.83611 1L56.0744 48.2181L103.264 6.44079L129.636 30.873L129.603 57.3004Z" fill="#FF6635"/>
<path d="M60.4062 13.969C59.283 9.33149 52.9383 3.40674 52.9383 3.40674C51.0737 -0.219801 47.3722 1.43338 47.3722 1.43338L44.9289 2.38245C42.4918 3.39106 42.9589 6.68292 44.1057 7.22455C44.6161 7.47189 46.0298 7.38351 46.4114 6.98221C46.5187 6.85054 46.3725 6.32413 46.3725 6.32413C49.0532 6.19287 49.1001 4.62282 49.1001 4.62282L49.9797 4.34978C50.8248 3.74928 51.2566 5.8409 51.2566 5.8409C51.2535 11.8609 54.0871 13.7603 54.0871 13.7603C53.8229 14.992 52.5103 14.8892 52.5103 14.8892C48.1228 13.1832 45.494 17.553 45.494 17.553C42.9488 15.8039 38.467 19.8266 38.467 19.8266C35.7984 20.6488 35.3077 17.4196 35.3077 17.4196C35.3077 17.4196 34.972 15.3781 34.8602 15.1792C34.7061 14.8643 35.4135 14.9705 35.4135 14.9705C37.3554 10.4021 35.0193 11.2195 35.0193 11.2195C34.8091 3.74707 28.4141 5.98434 28.4141 5.98434C23.4974 7.88564 25.8796 12.6918 25.8796 12.6918C24.7435 12.5403 25.4546 14.121 25.4546 14.121C26.02 16.62 26.8589 15.9599 26.8589 15.9599C27.0726 16.8404 27.7099 18.0075 27.7099 18.0075L28.0125 20.0224C27.7971 23.4462 23.9396 21.0224 23.9396 21.0224C21.5338 18.2955 16.4688 20.5133 16.4688 20.5133C13.2915 16.784 9.25045 19.5263 9.25045 19.5263C9.59635 18.4967 8.53483 13.5818 8.53483 13.5818C9.00812 12.9 9.6932 9.33652 9.6932 9.33652C10.2081 9.91448 12.2836 9.78663 12.2836 9.78663C12.5303 10.6938 13.2298 11.0115 13.2298 11.0115C14.6966 11.4292 13.6221 6.96717 13.6221 6.96717C13.8313 5.50045 11.4581 5.3887 11.4581 5.3887C7.32665 4.67918 6.6344 7.31032 6.6344 7.31032L5.82728 9.71275C4.47535 11.5404 2.2189 17.4361 2.2189 17.4361C1.04131 22.0746 2.71283 22.7116 2.71283 22.7116L5.91823 24.6923C11.4258 28.9894 14.3782 27.9868 14.3782 27.9868C18.4112 27.4726 18.3572 30.127 18.3572 30.127C18.9231 34.0706 22.1727 37.9128 22.1727 37.9128C22.4543 38.5755 22.6823 39.304 22.9071 40.0027L42.0114 37.9948C42.2894 37.183 42.5705 36.401 42.853 35.9198C44.1785 33.5532 46.0341 30.4687 46.6155 28.5114C47.7815 24.6265 48.5096 24.6403 48.5096 24.6403C54.0193 24.0612 56.6275 19.7839 56.6275 19.7839C57.4038 18.5285 58.6342 16.9845 59.5629 16.315C60.7959 15.3728 60.4062 13.969 60.4062 13.969Z" fill="white"/>
<path d="M79.9637 23.793L75.5156 29.7239L71.0674 23.793H79.9637Z" fill="#3F3F3F"/>
<path d="M59.2054 72.7228V71.2401L54.6089 58.5813C51.9215 51.2048 53.3671 42.9756 58.3899 36.9335L60.6881 34.172H62.3561C64.2837 34.172 65.9703 32.8746 66.4707 31.0212C66.5634 30.6505 66.619 30.2798 66.619 29.9091V22.8291L75.5153 23.2739V34.172H79.9635L78.8144 38.1753C77.6468 42.2713 78.0545 46.6639 79.9635 50.4819C75.8675 54.578 75.8675 61.2132 79.9635 65.3092L89.731 70.4246L59.2054 72.7228Z" fill="#F4CEAF"/>
<path d="M119.997 81.8229C119.997 87.4387 115.438 91.9981 109.822 91.9981H55.2021C49.994 91.9981 44.823 91.1641 39.8929 89.5146C35.3706 88.0133 32.9427 83.1203 34.4439 78.6165C35.6116 75.095 38.9106 72.7227 42.6175 72.7227H59.2054V71.24H63.1903C69.2138 71.24 74.9594 68.6637 78.9442 64.1414C79.2593 64.5492 79.5929 64.9384 79.9451 65.3091L105.096 78.4868L103.965 74.5576L100.907 63.7337L107.487 60.4531L118.218 76.0588C119.367 77.7454 119.997 79.7471 119.997 81.8229Z" fill="#5745FF"/>
<path d="M108.135 53.6696C108.135 54.8743 107.654 56.0234 106.801 56.8389C105.967 57.6544 104.855 58.1178 103.687 58.1178C103.002 58.1178 102.316 57.951 101.704 57.6359L93.1599 53.373L84.4119 48.999L79.9637 50.4817L72.55 43.0681L79.9637 34.1717L87.3773 35.6545L92.3259 41.2147L99.2391 48.999L96.4219 38.6385L94.7909 32.689L88.86 31.2063L91.8255 25.2754H94.7909L97.7564 26.7581L99.2391 32.689L104.966 42.2526C107.042 45.6999 108.135 49.6477 108.135 53.6696Z" fill="#F4CEAF"/>
<path d="M91.8255 20.8261V25.2743L88.8601 31.2052L84.4119 26.757L76.9983 21.8084L73.2915 19.3434L62.171 22.3088V35.6534L53.2747 51.9633L54.4794 24.1808C54.6647 19.9921 55.4987 15.8775 56.9629 11.9483C58.0194 9.13111 61.0034 7.55571 63.9132 8.26001C64.2839 8.35268 64.636 8.46388 64.9697 8.63069L76.9983 14.0797L91.8255 20.8261Z" fill="#F4CEAF"/>
<path d="M76.9982 14.0804V21.8091L73.2914 19.3441L62.171 22.3096V28.2405C61.2072 26.9616 60.6882 25.4048 60.6882 23.7923V16.3787C60.6882 15.8041 60.7253 15.2481 60.7994 14.6735C61.1516 12.2641 62.2266 10.0215 63.9132 8.26074C64.2838 8.35341 64.636 8.46462 64.9696 8.63142L76.9982 14.0804Z" fill="#F2C194"/>
<path d="M79.9635 50.4816C76.2938 54.1514 75.8675 59.9711 78.9627 64.1412C74.9593 68.645 69.2323 71.2398 63.2087 71.2398H59.2054L54.6089 58.581C51.9215 51.2045 53.3671 42.9753 58.3899 36.9332L60.6881 34.1716H62.3561C62.801 34.1716 63.2272 34.0975 63.6535 33.9678V37.1371C63.6535 38.7681 64.9695 40.1026 66.619 40.1026C69.4176 40.1026 72.0495 38.7866 73.7361 36.544L75.5153 34.1716H79.9635L78.8144 38.175C77.6468 42.271 78.0545 46.6636 79.9635 50.4816Z" fill="#D4F54D"/>
<path d="M82.9291 26.7577C85.3858 26.7577 87.3773 24.7662 87.3773 22.3095C87.3773 19.8528 85.3858 17.8613 82.9291 17.8613C80.4725 17.8613 78.481 19.8528 78.481 22.3095C78.481 24.7662 80.4725 26.7577 82.9291 26.7577Z" fill="#3F3F3F"/>
<path d="M82.9291 16.3791C82.9291 22.1061 78.277 26.7582 72.55 26.7582C66.8229 26.7582 62.1709 22.1061 62.1709 16.3791C62.1709 10.6521 66.8229 6 72.55 6C78.277 6 82.9291 10.6521 82.9291 16.3791Z" fill="#3F3F3F"/>
<path d="M96.2736 90.1627C96.2736 90.7928 96.1439 91.423 95.903 91.9976H91.4733C92.4927 91.9976 93.3082 91.1821 93.3082 90.1627C93.3082 89.4769 92.919 88.8282 92.2888 88.5317L79.2594 82.0262C78.4439 81.6185 77.5542 81.4146 76.6646 81.4146C75.3672 81.4146 74.1069 81.8409 73.0875 82.6378L72.4944 83.1012L62.1154 80.2655C58.2417 79.209 54.1828 78.9125 50.1979 79.4129L44.3782 80.1357L44.0076 77.1888L49.8273 76.466C54.2013 75.91 58.6495 76.2251 62.8938 77.3927L71.8828 79.8392C73.3099 78.9125 74.9595 78.4121 76.6646 78.4306C78.0361 78.4306 79.3706 78.7457 80.5938 79.3573L93.6233 85.8628C95.2543 86.6783 96.2736 88.3463 96.2736 90.1627Z" fill="#4638CA"/>
<path d="M106.801 56.8391C105.967 57.6546 104.855 58.118 103.687 58.118C103.002 58.118 102.316 57.9512 101.704 57.6361L93.16 53.3733C93.0302 52.8914 92.9375 52.391 92.9005 51.872L92.085 42.9756C92.0294 42.3826 92.1221 41.7709 92.3259 41.2149L99.2391 48.9992L96.422 38.6387C97.9232 38.7684 99.2206 39.7322 99.7766 41.1222L105.022 54.2258L106.801 56.8391Z" fill="#F2C194"/>
<path d="M107.487 60.4532L100.907 63.7337L99.2392 57.8955C96.5332 56.9873 94.6242 54.5779 94.3647 51.7422L93.5492 42.8458C93.4195 41.4558 94.4389 40.251 95.8289 40.1213C96.941 40.0286 97.9789 40.6588 98.3866 41.6782L103.687 54.93L107.487 60.4532Z" fill="#F4CEAF"/>
<path d="M93.3081 90.1634C93.3081 91.1828 92.4926 91.9983 91.4732 91.9983H69.5845V82.2865L72.5499 83.102C74.3292 81.3227 77.0352 80.8964 79.2593 82.0085L92.2887 88.5139C92.9189 88.829 93.3081 89.4777 93.3081 90.1634Z" fill="#F4CEAF"/>
<path d="M75.5153 23.2554V31.2065H68.1017C67.5457 31.2065 67.0082 31.1509 66.4707 31.0212C66.5634 30.6505 66.619 30.2798 66.619 29.9091V22.8291L75.5153 23.2554Z" fill="#F2C194"/>
<path d="M75.5154 19.3437V29.7228H68.1018C64.8213 29.7228 62.1709 27.0724 62.1709 23.7919V16.3782C62.1709 15.8778 62.208 15.3774 62.2821 14.8955H71.0673C73.5323 14.8955 75.5154 16.8787 75.5154 19.3437Z" fill="#F4CEAF"/>
<path d="M65.1363 20.8268C65.9552 20.8268 66.619 20.1629 66.619 19.3441C66.619 18.5252 65.9552 17.8613 65.1363 17.8613C64.3174 17.8613 63.6536 18.5252 63.6536 19.3441C63.6536 20.1629 64.3174 20.8268 65.1363 20.8268Z" fill="#3F3F3F"/>
<path d="M69.5845 20.8268C70.4034 20.8268 71.0673 20.1629 71.0673 19.3441C71.0673 18.5252 70.4034 17.8613 69.5845 17.8613C68.7656 17.8613 68.1018 18.5252 68.1018 19.3441C68.1018 20.1629 68.7656 20.8268 69.5845 20.8268Z" fill="#3F3F3F"/>
<path d="M75.5154 19.3444C75.5154 17.7134 76.8498 16.3789 78.4808 16.3789C80.1118 16.3789 81.4463 17.7134 81.4463 19.3444V22.3098C81.4463 23.9408 80.1118 25.2753 78.4808 25.2753H75.5154V19.3444Z" fill="#F2C194"/>
<path d="M112.473 78.9873L111.101 81.6191L105.114 78.4868L104.002 74.5576L112.473 78.9873Z" fill="#4638CA"/>
</svg>
