<svg width="143" height="118" viewBox="0 0 143 118" fill="none" xmlns="http://www.w3.org/2000/svg">
<path fill-rule="evenodd" clip-rule="evenodd" d="M107.033 35.6828L107.895 53.1566L107.033 35.6828L107.895 53.1566L122 67.4655L111.014 82.7616L110.58 102.837L89.3261 103.629L74.6744 103.711L61.523 104.215L41.6544 112L41.1646 89.2255L10.085 87.1969L32.4099 66.2836L26.0653 50.5706L10 16L47.0647 27.7366L61.9045 23.4321L74.2858 38.506L92.8532 26.6718L107.033 35.6828Z" fill="#FF6635"/>
<path d="M69.2903 61.1814L69.8675 56.5637C70.4542 51.8194 72.8832 47.4795 76.6299 44.5047C77.3013 43.9625 78.2708 43.9455 78.9635 44.4746C79.6562 45.0036 79.9061 45.9136 79.5712 46.7228L78.5132 49.2673C77.727 51.1634 76.6336 52.9094 75.2817 54.4515L69.2903 61.1814Z" fill="white"/>
<path d="M69.0856 62.3317L72.0266 58.7131C75.0453 54.9921 79.4009 52.6305 84.1539 52.0931C85.0208 51.9984 85.8301 52.4977 86.1383 53.3098C86.4465 54.1218 86.18 55.0374 85.46 55.5503L83.1928 57.1571C81.524 58.344 79.6599 59.249 77.6931 59.8282L69.0856 62.3317Z" fill="white"/>
<path d="M68.8403 61.8538L66.6648 57.7438C64.4159 53.5073 63.9206 48.5797 65.2926 43.9885C65.5398 43.1599 66.309 42.593 67.1864 42.6201C68.0442 42.652 68.8007 43.2687 68.9727 44.1157L69.5716 46.8221C70.0135 48.8227 70.1192 50.8875 69.8836 52.9141L68.8403 61.8538Z" fill="white"/>
<path d="M67.4368 62.1035L63.7088 59.3171C59.8589 56.458 57.3178 52.2124 56.5791 47.4705C56.4462 46.6136 56.9175 45.7698 57.7017 45.427C58.5053 45.0792 59.4365 45.3204 59.9591 45.9961L61.6684 48.1738C62.9235 49.7828 63.9011 51.6068 64.5573 53.5533L67.4368 62.1035Z" fill="white"/>
<path d="M41.0924 53.1523L37.7143 49.9462C34.2338 46.6623 32.1988 42.1232 32.0303 37.3408C31.9996 36.4788 32.5492 35.6981 33.3969 35.4427C34.2251 35.1923 35.1225 35.5456 35.577 36.2799L37.0041 38.6532C38.0695 40.4137 38.8183 42.3162 39.2407 44.3218L41.0924 53.1523Z" fill="white"/>
<path d="M41.888 54.0293L40.7307 49.5173C39.5439 44.8886 40.228 39.9532 42.6288 35.8269C43.0613 35.0758 43.9427 34.7083 44.7911 34.9497C45.6345 35.1717 46.201 35.9398 46.1732 36.8165L46.124 39.583C46.0786 41.6238 45.7017 43.6654 45.0031 45.5812L41.888 54.0293Z" fill="white"/>
<path d="M41.3721 53.9278L36.7622 53.2283C32.0256 52.5194 27.7586 49.9736 24.8878 46.1437C24.3605 45.4487 24.3882 44.4894 24.923 43.8161C25.4579 43.1428 26.3929 42.9067 27.1876 43.2651L29.7276 44.3836C31.5949 45.2165 33.3116 46.3565 34.8242 47.7551L41.3721 53.9278Z" fill="white"/>
<path d="M40.7415 55.2049L36.277 56.5594C31.6956 57.9434 26.7509 57.4738 22.5242 55.2501C21.7588 54.8431 21.3531 53.9729 21.5563 53.1351C21.7596 52.2974 22.4941 51.6774 23.3611 51.6655L26.1374 51.5856C28.1734 51.527 30.2392 51.8334 32.1788 52.4614L40.7415 55.2049Z" fill="white"/>
<path d="M74.1656 68.0926C72.1094 67.6585 69.9859 67.6969 67.9706 68.2465L67.2745 68.4428C66.812 68.5801 66.3345 68.4934 65.9346 68.2214L60.0037 64.1666L61.8198 61.5133L67.146 65.1407C69.6626 64.444 72.317 64.3752 74.8606 64.935L74.1656 68.0926Z" fill="#98D90E"/>
<path d="M36.781 64.3895L34.3948 62.2367C36.9559 59.4162 40.4982 57.6945 44.287 57.4433C44.2714 54.5891 45.7125 51.9268 48.1203 50.3877L48.3343 50.2508L50.0543 52.9651L49.8403 53.1019C48.0016 54.2698 47.1149 56.5023 47.6501 58.6248C47.7729 59.1116 47.6716 59.6135 47.3558 60.0038C47.0595 60.3892 46.5827 60.6337 46.0859 60.6347L45.2579 60.6364C42.0432 60.6186 38.9727 61.9935 36.781 64.3895Z" fill="#98D90E"/>
<path d="M47.8882 72.6276L34.383 68.3495L37.0377 73.2099L27.7168 73.9449L21.179 77.996L27.1887 80.0634L20.6704 84.1096L17.0537 89.9715L23.3056 88.9748L21.3664 93.4403L23.6262 102.894L27.3566 95.5126L32.3502 91.3332L31.8026 97.4567L36.7962 93.2772L40.5266 85.8955L43.3145 89.2311L46.9117 83.3741L47.8882 72.6276Z" fill="#D4F54D"/>
<path d="M68.4973 78.1381L78.4499 67.1784L78.6079 72.9789L87.415 68.7284L95.4471 68.9604L91.1225 73.9859L99.1546 74.2179L105.479 77.6144L99.3077 79.999L103.4 83.0056L106.328 92.7262L99.0708 88.0116L92.3567 86.8467L96.0643 92.1042L89.3502 90.9393L82.0931 86.2247L81.3181 90.7073L74.994 87.3108L68.4973 78.1381Z" fill="#D4F54D"/>
<path d="M66.7917 101.598L63.6761 102.384L60.1652 88.4609C58.3289 81.261 52.794 75.5737 45.6398 73.567L46.4956 70.4724C54.7608 72.7788 61.1596 79.3459 63.2758 87.6557L66.7917 101.598Z" fill="#98D90E"/>
<path d="M67.9703 106.271L64.8547 107.057L61.8004 94.9449C59.3698 85.3061 60.4643 75.1097 64.8881 66.2069L67.7549 67.6379C63.6756 75.8532 62.6525 85.2653 64.8965 94.1642L67.9508 106.276L67.9703 106.271Z" fill="#98D90E"/>
<path d="M67.5775 104.714L64.4619 105.5L51.8913 55.6504L47.1109 23.5532L50.2856 23.084L55.0267 55.0255L67.5775 104.714Z" fill="#98D90E"/>
<path d="M48.708 23.3157L50.5475 22.5619C55.8034 20.4081 61.8259 21.6231 65.8572 25.6185L62.1769 26.5466C58.5551 27.4599 54.7062 26.8979 51.4876 24.9758L48.708 23.3157Z" fill="white"/>
<path d="M48.2508 23.6384L46.4179 22.8579C41.2115 20.6086 35.1547 21.7217 31.0714 25.6509L34.741 26.6516C38.3424 27.6281 42.194 27.1332 45.4536 25.2757L48.2508 23.6384Z" fill="white"/>
<path d="M44.4005 12.804L43.7667 14.8899C43.2394 16.659 43.4528 18.5727 44.3961 20.1781C45.3394 21.7835 46.8857 22.9054 48.7081 23.3157C51.5016 19.8567 50.9751 14.8119 47.5161 12.0183L45.5655 10.8534L44.4005 12.804Z" fill="white"/>
<path d="M66.4126 106.664C65.5558 106.881 64.678 106.356 64.462 105.5L58.3682 81.3343C56.3057 73.0731 51.644 65.6744 45.0771 60.2474L47.1274 57.7836C54.2213 63.6576 59.2348 71.6303 61.4692 80.573L62.4955 84.6427C63.6191 81.5427 65.513 78.787 68.0121 76.6242C68.1482 76.507 68.3088 76.4044 68.4791 76.3408L68.8587 76.2036C76.66 73.1387 85.4636 74.2945 92.2195 79.239L90.3252 81.8291C84.4571 77.5306 76.7936 76.5429 70.0094 79.2064L69.8975 79.2553C65.4781 83.1657 63.6105 89.2286 65.0736 94.9485L67.5386 104.724C67.7936 105.571 67.2694 106.448 66.4126 106.664Z" fill="#98D90E"/>
<path d="M29.6386 87.15L26.7135 85.8166C29.6034 79.4545 35.2291 74.7429 42.0104 73.0536L47.6379 71.6345L48.4236 74.75L42.8155 76.1642C36.9689 77.6179 32.1309 81.6752 29.6386 87.15Z" fill="#98D90E"/>
<path d="M137.468 82.4879L136.261 81.3629L135.696 78.9599C135.235 76.9992 133.265 75.772 131.296 76.2351L123.496 78.0696C123.045 78.1756 122.751 77.9365 122.637 77.8227C122.532 77.7152 122.285 77.4123 122.391 76.9647L123.9 70.5784C124.037 70.0003 124.041 69.3829 123.904 68.7988C123.434 66.7257 121.342 65.4303 119.265 65.9188L118.589 66.0778C118.339 66.1366 118.128 66.2917 118.005 66.5145L110.835 79.0398C109.339 81.6633 108.889 84.7277 109.579 87.6646L111.52 95.9164C112.674 100.822 117.61 103.879 122.515 102.725L132.176 100.453C133.669 100.102 134.88 99.0338 135.413 97.5963L138.858 88.3598C139.238 87.3547 139.307 86.2642 139.06 85.2129C138.812 84.1616 138.256 83.2183 137.468 82.4879Z" fill="white"/>
<path d="M102.831 82.9297L97.492 84.1855C95.5232 84.6485 94.3065 86.6253 94.7677 88.586L98.5353 104.606C98.9965 106.566 100.967 107.793 102.936 107.33L108.275 106.075C110.235 105.614 111.462 103.643 110.999 101.674L107.231 85.6546C106.762 83.6958 104.792 82.4686 102.831 82.9297Z" fill="white"/>
</svg>
