<svg width="100" height="101" viewBox="0 0 100 101" fill="none" xmlns="http://www.w3.org/2000/svg">
<path fill-rule="evenodd" clip-rule="evenodd" d="M29.9135 86.1275C34.0646 76.3455 37.5709 64.9062 41.6415 54.5987C44.6238 47.0399 47.9286 39.279 51.7976 32.2052C52.8455 30.265 54.3367 26.9504 56.2712 25.8995C58.8908 24.5252 61.8329 26.2633 62.4777 28.2843C63.6465 31.9627 61.9135 37.0962 61.6717 40.4916C64.0495 36.4091 66.1855 31.5585 68.6843 27.0717C69.45 25.657 70.4979 23.9997 71.6667 23.2721C74.2057 21.6552 77.1881 23.1104 77.9941 25.374C78.5986 27.0313 78.4374 29.497 78.3568 31.7202C78.2762 33.9434 78.0747 36.1665 77.9941 38.0663C78.115 38.1876 78.518 37.743 78.7598 37.46C80.5331 35.4794 82.2259 33.3775 84.2813 31.4776C86.2964 29.5778 90.0042 27.3547 93.6717 29.4566C96.1704 30.8713 96.7347 33.5796 98.6692 35.7623C99.1528 36.2878 99.9992 37.1367 99.9992 38.1472C100.039 39.4811 98.9513 40.4916 98.0646 40.9767C94.518 42.8765 91.0117 40.2895 90.0042 37.46C88.8757 38.1876 87.9488 39.4003 86.9412 40.5321C85.974 41.6234 85.0067 42.7148 84.0395 43.8466C82.1049 45.989 80.0092 48.5759 77.3896 49.6269C72.8354 51.4459 68.7649 48.2526 69.4903 42.8765C67.9588 45.7464 66.3871 49.3844 64.6541 52.901C62.9614 56.2964 61.5508 60.0152 59.052 62.2788C58.5684 62.7234 57.8833 63.1681 57.319 63.4106C54.4979 64.5424 51.8782 62.8851 51.0319 60.5811C50.3468 58.6813 50.911 56.3368 51.0319 54.1541C46.1553 65.5529 42.5684 78.0836 37.6515 89.725C36.1201 93.4033 34.1855 97.5668 31.3241 99.6687C29.7926 100.8 27.1326 101.447 24.916 100.639C23.1024 99.992 21.6918 98.2943 21.1276 96.3137C20.1604 92.9183 21.0067 88.0273 21.4903 84.551C22.0546 80.8323 22.78 77.2752 23.586 73.8393C28.4223 53.184 34.6289 33.0541 38.6994 11.9945C34.4677 17.0876 31.042 22.9891 27.7372 28.9715C24.4324 35.0347 21.4903 41.3809 18.5483 47.8483C15.5659 54.3562 13.2284 61.147 10.7699 68.2208C8.31148 75.2541 6.33667 82.7725 5.53063 91.0589C6.45758 90.7759 7.50544 90.9781 7.70695 91.8269C7.94876 92.9991 6.94121 93.6459 6.29637 94.2118C5.32911 95.0606 4.44246 96.2328 2.70947 95.9499C-0.43411 95.4648 -0.111692 89.1591 0.170424 85.602C0.371935 83.1363 0.774958 80.711 1.37949 78.2453C2.50796 73.3543 3.59612 68.9888 4.96639 64.7849C10.4475 47.6462 17.7825 32.4073 26.3266 17.896C28.382 14.4198 30.518 10.984 33.1377 7.62897C34.3064 6.13338 35.6364 4.55694 37.1679 3.14219C39.0218 1.40406 41.7221 -0.940381 44.7447 0.393528C48.8153 2.17207 47.3644 9.97342 46.518 14.6219C44.6238 25.2932 42.0445 35.5198 39.586 45.4635C36.12 59.4897 32.2913 71.98 29.9135 86.1275Z" fill="#5745FF"/>
</svg>
