<svg width="129" height="98" viewBox="0 0 129 98" fill="none" xmlns="http://www.w3.org/2000/svg">
<path fill-rule="evenodd" clip-rule="evenodd" d="M112.604 73.2565L54.12 98L112.604 73.2565L54.12 98L6.06248 73.4402L0 27.7018L44.6167 30.143L55.9372 2.79229L129 2L112.604 73.2565Z" fill="#FF6635"/>
<path d="M51.9735 9.35814L116.322 2.58356C117.465 2.46321 118.49 3.2965 118.611 4.44358L127.106 85.404C127.226 86.5511 126.396 87.5797 125.253 87.7001L60.9047 94.4747C59.7616 94.595 58.7361 93.7617 58.6157 92.6146L50.1206 11.6542C50.0003 10.5071 50.8304 9.4785 51.9735 9.35814Z" fill="#FFD850"/>
<path d="M61.7563 83.2746L55.1311 20.1358C59.0908 19.7189 61.983 16.1537 61.5644 12.1639L107.54 7.3237C107.957 11.2969 111.511 14.2002 115.487 13.7816L122.114 76.9371C118.154 77.3539 115.262 80.9192 115.681 84.909L69.6889 89.7509C69.2685 85.7445 65.7159 82.8578 61.7563 83.2746Z" fill="#FABD20"/>
<path d="M71.308 87.4629C70.1499 84.0887 67.165 81.6632 63.6352 81.2281L57.3937 21.7459C60.7561 20.5851 63.1723 17.591 63.6047 14.0494L105.902 9.5964C107.06 12.9706 110.045 15.396 113.575 15.8312L119.815 75.2967C116.452 76.4575 114.036 79.4516 113.604 82.9932L71.308 87.4629Z" fill="white"/>
<path d="M67.8279 21.418L103.291 17.6858L103.505 19.7261L68.042 23.4583L67.8279 21.418Z" fill="#F5F4F7"/>
<path d="M73.3027 28.8945L99.5072 26.1363L99.7213 28.177L73.5169 30.9352L73.3027 28.8945Z" fill="#F5F4F7"/>
<path d="M65.3115 37.7881L109.173 33.1735L109.387 35.2131L65.5257 39.8278L65.3115 37.7881Z" fill="#F5F4F7"/>
<path d="M66.1467 45.7363L110.008 41.1217L110.222 43.1614L66.3609 47.776L66.1467 45.7363Z" fill="#F5F4F7"/>
<path d="M67.8208 61.6621L91.7394 59.1443L91.9536 61.1851L68.035 63.7029L67.8208 61.6621Z" fill="#F5F4F7"/>
<path d="M68.4761 67.8965L81.9431 66.4783L82.1572 68.52L68.6902 69.9382L68.4761 67.8965Z" fill="#F5F4F7"/>
<path d="M69.1299 74.1162L88.7751 72.0479L88.9893 74.0891L69.3441 76.1573L69.1299 74.1162Z" fill="#F5F4F7"/>
<path d="M105.061 66.6882L101.453 67.757C101.464 70.4113 100.781 73.0042 99.4815 75.3091C100.339 75.0172 101.156 74.6622 101.931 74.2277C102.069 74.5829 102.138 74.7605 102.261 75.1341C102.456 75.7186 102.62 76.3232 102.751 76.9312C104.686 73.0133 105.371 70.2857 105.061 66.6882Z" fill="#EE4A16"/>
<path d="M102.624 67.4139C102.668 69.9138 102.142 72.4065 101.073 74.6707C101.425 74.516 101.584 74.432 101.933 74.244C102.071 74.5993 102.139 74.7769 102.262 75.1506C103.455 72.6213 104.017 69.839 103.892 67.045L102.624 67.4139Z" fill="#FF6635"/>
<path d="M106.184 66.5703L109.934 66.8646C110.475 69.4631 111.681 71.8571 113.431 73.841C112.532 73.734 111.659 73.557 110.81 73.2934C110.749 73.6696 110.718 73.8576 110.676 74.2487C110.606 74.8611 110.571 75.4866 110.569 76.1086C107.864 72.6792 106.644 70.1522 106.184 66.5703Z" fill="#EE4A16"/>
<path d="M108.718 66.7744C109.194 69.2287 110.226 71.5571 111.742 73.5489C111.365 73.4709 111.192 73.4219 110.812 73.3106C110.751 73.6868 110.72 73.8749 110.678 74.266C108.986 72.0406 107.858 69.4365 107.401 66.6777L108.718 66.7744Z" fill="#FF6635"/>
<path d="M113.474 61.027C113.42 60.5117 112.105 60.2636 111.953 59.7754C111.803 59.3037 112.739 58.3311 112.508 57.8849C112.277 57.4386 110.949 57.7129 110.622 57.3103C110.297 56.9243 110.803 55.6778 110.4 55.3504C109.997 55.0231 108.904 55.7769 108.443 55.5396C107.999 55.3006 107.992 53.9567 107.491 53.8078C107.006 53.6572 106.271 54.7934 105.764 54.746C105.256 54.6986 104.741 53.4587 104.227 53.5127C103.714 53.5668 103.467 54.887 102.981 55.039C102.511 55.1894 101.541 54.2494 101.096 54.4811C100.653 54.7294 100.925 56.0454 100.524 56.3733C100.123 56.7013 98.8972 56.1917 98.5711 56.5958C98.245 56.9999 98.9967 58.0972 98.7604 58.5591C98.5224 59.0044 97.1831 59.0109 97.0348 59.5139C96.8849 60.0003 98.0176 60.7383 97.9705 61.2474C97.9234 61.7566 96.6879 62.2733 96.742 62.7886C96.796 63.304 98.1118 63.552 98.2635 64.0403C98.4153 64.5285 97.4771 65.4845 97.7081 65.9308C97.9558 66.3753 99.2672 66.1028 99.5942 66.5053C99.9194 66.8913 99.4137 68.1379 99.8166 68.4652C100.219 68.7926 101.313 68.0388 101.773 68.276C102.217 68.515 102.224 69.8589 102.725 70.0078C103.21 70.1584 103.945 69.0222 104.453 69.0696C104.96 69.117 105.476 70.3569 105.989 70.3029C106.503 70.2488 106.749 68.9287 107.236 68.7766C107.722 68.6245 108.676 69.5662 109.12 69.3345C109.563 69.0862 109.291 67.7703 109.692 67.4423C110.077 67.1161 111.319 67.624 111.645 67.2199C111.971 66.8158 111.22 65.7184 111.456 65.2565C111.692 64.7946 113.033 64.8047 113.182 64.3017C113.332 63.8153 112.199 63.0774 112.246 62.5682C112.291 62.0424 113.529 61.5423 113.474 61.027Z" fill="#FFD850"/>
<path d="M105.697 67.3573C108.698 67.0413 110.875 64.3442 110.559 61.3332C110.243 58.3221 107.554 56.1373 104.553 56.4533C101.552 56.7693 99.3748 59.4663 99.6907 62.4774C100.007 65.4884 102.696 67.6733 105.697 67.3573Z" fill="#FABD20"/>
<path d="M31.8378 32.2359L33.9356 28.8219L37.7278 27.5281L38.1491 23.5391L41 20.727L39.6463 16.9535L41 13.1801L38.1491 10.368L37.7278 6.37891L33.9356 5.08516L31.8378 1.67109L27.8753 2.15625L24.4955 0L21.1247 2.15625L17.1532 1.68008L15.0554 5.09414L11.2722 6.38789L10.8509 10.377L8 13.1801L9.35371 16.9535L8 20.7359L10.8509 23.5391L11.2722 27.5281L15.0644 28.8219L17.1622 32.2359L21.1337 31.7598L24.5045 33.916L27.8753 31.7598L31.8378 32.2359ZM12.8949 16.9535C12.8949 10.5387 18.1035 5.32773 24.4955 5.32773C30.8875 5.32773 36.0962 10.5477 36.0962 16.9535C36.0962 23.3594 30.8965 28.5883 24.4955 28.5883C18.0945 28.5883 12.8949 23.3684 12.8949 16.9535Z" fill="white"/>
<path d="M24.4955 8.02305C19.5827 8.02305 15.5844 12.0301 15.5844 16.9535C15.5844 21.877 19.5827 25.884 24.4955 25.884C29.4083 25.884 33.4067 21.877 33.4067 16.9535C33.4067 12.0301 29.4173 8.02305 24.4955 8.02305Z" fill="white"/>
<path d="M20.4882 34.5539L15.7637 35.1289L13.2714 31.068L12.4197 30.7805L8.76202 42.2355L15.3513 41.8762L20.5061 46L23.5363 36.5035L20.4882 34.5539Z" fill="white"/>
<path d="M35.7286 31.068L33.2363 35.1289L28.5118 34.5539L25.4637 36.5035L28.4939 46L33.6487 41.8762L40.238 42.2355L36.5803 30.7715L35.7286 31.068Z" fill="white"/>
</svg>
