<svg width="212" height="191" viewBox="0 0 212 191" fill="none" xmlns="http://www.w3.org/2000/svg">
<path fill-rule="evenodd" clip-rule="evenodd" d="M134.501 145.804C138.339 143.484 141.903 140.712 144.929 139.089L145.967 138.256C148.133 136.74 150.52 134.06 152.283 133.407C154.669 130.726 156.524 130.224 158.685 127.681C159.631 126.696 160.577 125.712 161.432 124.576L162.018 124.016C164.088 121.321 165.802 120.078 167.738 117.67C168.813 115.37 172.248 113.913 171.56 112.266L172.684 110.555C173.813 109.873 176.286 106.315 175.877 106.149C176.727 103.985 177.947 103.454 178.662 101.578L178.931 101.003C180.007 98.7023 181.082 96.4019 181.84 94.0868C182.109 93.5117 182.378 92.9366 182.33 92.3469C184.088 90.6655 183.218 88.7158 184.433 87.1563C184.831 85.2652 185.229 83.3742 185.401 81.6195L185.789 77.6716C186.956 75.5223 186.398 72.5589 186.339 69.9123C186.2 69.1714 186.195 68.143 186.055 67.4021L186.007 66.8124C185.862 65.0431 185.492 63.4102 185.121 61.7774C185.799 61.3681 185.433 60.7636 185.294 60.0228C185.063 59.1308 184.698 58.5264 184.467 57.6344L184.193 57.1811C183.548 55.0949 184.086 53.9447 182.361 53.1306C181.356 51.4684 182.029 50.0306 180.481 48.4903L180.207 48.037C179.068 46.6623 178.563 45.317 178.058 43.9718L177.607 44.2446C177.193 43.0505 176.871 42.0074 175.506 40.7692C174.593 39.2582 173.147 39.9257 173.277 38.6098L173.185 38.4586C171.912 37.3716 170.638 36.2845 169.139 35.3339C169.499 34.9099 169.317 34.6077 168.817 34.2908C166.227 32.5554 163.728 30.971 162.863 30.0497C160.821 29.2209 159.322 28.2702 158.14 27.3343L156.506 26.6712C155.372 26.325 154.464 25.8424 153.33 25.4962C153.465 25.2086 153.282 24.9064 152.557 24.726C147.204 23.0097 143.029 21.2009 137.047 20.4837C136.365 19.8646 133.098 18.5385 132.286 19.2353L131.652 19.206C131.018 19.1767 130.383 19.1474 129.749 19.1181C126.761 19.2736 128.202 17.5777 125.219 18.7617C123.091 18.8102 122.543 17.9035 121.011 19.4484C119.742 19.3898 119.248 20.1013 118.071 20.1938C115.318 22.2697 114.915 23.1324 115.871 24.2048C117.043 23.0839 120.412 26.618 123.164 24.542L124.976 24.4789C127.061 24.869 129.146 25.2592 132.134 25.1036C133.494 25.3134 135.079 25.3867 136.439 25.5964C136.852 26.7906 140.835 26.2404 142.56 27.0545C145.096 27.1718 145.284 28.5025 147.595 28.7562C149.772 29.2975 150.185 30.4917 152.996 31.0623C154.538 31.5742 155.855 32.2226 157.262 33.0221C156.316 34.0066 159.17 34.1385 159.627 34.8941C162.26 36.1909 164.35 37.6095 165.446 39.4227C165.946 39.7396 166.537 40.2076 167.037 40.5245L167.219 40.8267C166.456 42.1133 169.449 42.9861 169.863 44.1803C172.001 46.1887 173.14 47.5633 174.601 49.981C174.02 51.5698 176.61 53.3053 177.072 55.0893C177.985 56.6003 178.582 58.0967 179.269 59.7442C178.049 60.2753 179.731 61.5282 179.553 62.2544C180.741 64.2187 180.155 64.7792 180.756 67.304L180.804 67.8937C180.315 69.6337 181.631 70.2821 181.281 72.7629L181.33 73.3527C181.834 74.698 180.297 75.2145 180.802 76.5597C181.893 77.3446 181.043 79.5085 180.506 80.6587L180.462 81.0974C180.199 82.7009 180.161 84.168 179.671 85.908C178.634 86.7413 178.553 88.647 177.972 90.2359C177.482 91.9758 176.993 93.7158 176.278 95.5922L175.428 97.7562C175.294 98.0437 175.25 98.4824 174.89 98.9064L174.309 100.495C173.32 101.918 172.014 103.327 172.293 104.808C170.938 105.627 170.18 107.942 168.965 109.502C167.745 110.033 166.804 112.046 165.589 113.605C165.455 113.893 165.094 114.317 164.96 114.604C163.524 117.329 160.364 119.239 160.326 120.706C159.197 121.388 158.385 122.085 157.439 123.07C156.493 124.054 155.321 125.175 154.149 126.296C152.031 128.401 149.913 130.506 147.656 131.871C147.07 132.431 146.258 133.128 145.672 133.689C144.86 134.385 144.049 135.082 143.011 135.916C141.248 136.569 141.576 138.64 140.437 137.265C139.759 137.675 139.491 138.25 139.13 138.674C137.728 138.903 135.744 140.721 133.847 141.661C130.552 143.859 127.3 145.618 123.731 147.362C122.505 146.865 119.393 149.365 117.539 149.867C114.873 151.065 114.508 150.461 112.567 151.84C112.019 150.933 108.95 152.995 107.547 153.224C105.241 153.998 102.844 154.622 100.764 155.26C99.539 154.763 96.3302 156.083 93.9762 156.268C91.7617 157.194 90.4934 157.135 88.9993 157.213C87.8223 157.306 86.4195 157.535 85.3339 157.778C83.2538 158.416 83.7002 157.115 81.8459 157.617C80.083 158.27 79.5833 157.953 77.0466 157.836C73.924 158.279 73.1934 157.07 70.2052 157.226C67.9856 157.123 65.6747 156.869 63.3638 156.615C63.6327 156.04 62.9985 156.011 62.273 155.831C61.3218 155.787 60.3705 155.743 59.9621 155.577L57.877 155.187C56.3778 154.236 51.8853 152.413 50.5256 152.203C50.3861 151.462 49.8863 151.145 48.7524 150.799C47.4359 150.151 46.1193 149.502 45.0285 148.717C44.5668 146.933 40.848 145.88 39.435 144.052C40.4725 143.219 38.3873 142.829 38.2478 142.088L37.3827 141.166C36.1144 141.108 36.0128 138.9 34.648 137.662C35.7768 136.979 34.0518 136.165 33.9123 135.424C32.5475 134.186 33.0904 134.064 32.3115 132.266C33.5316 131.735 31.9411 130.633 31.8929 130.043L31.7102 129.741C31.2002 127.367 30.1577 127.172 30.1474 125.115C28.5949 122.547 30.7509 118.974 29.2034 117.434L29.2465 116.995C30.5528 115.587 29.5431 112.896 30.0326 111.156L30.0757 110.718C30.3395 109.114 30.6032 107.511 30.8669 105.907C31.222 104.455 31.4426 103.29 31.889 101.988C32.0665 101.262 32.6043 100.112 31.9701 100.083L32.1907 98.9179C33.4539 97.9481 35.1533 93.6202 34.6967 92.8647L34.8742 92.1385C36.1856 91.7585 36.5356 89.2776 37.3904 88.1421L37.6592 87.567C38.0625 86.7043 38.5571 85.9928 39.1862 84.9937L40.041 83.8582L40.67 82.8591C41.5248 81.7235 42.1539 80.7244 43.0087 79.5889C43.5033 78.8774 44.0892 78.3169 44.6752 77.7565C45.5731 76.1823 48.7336 74.2721 48.5459 72.9414C49.3145 72.6832 52.5181 70.3343 52.2873 69.4424C55.1256 66.4891 60.6351 63.3655 62.5705 60.958L63.2477 60.5486C65.4191 60.0615 68.8003 56.9864 71.2887 56.514L73.0948 55.4224C75.3523 54.058 77.4755 52.9811 79.8244 51.7677C82.1732 50.5544 84.7479 49.2046 87.1881 48.1424L88.4082 47.6113C94.1003 44.7899 100.657 42.8899 104.952 41.3258C107.801 40.4294 110.423 39.6694 113.138 39.0604C115.895 38.0129 120.017 38.2035 122.049 36.9755C123.543 36.8977 124.537 36.503 125.215 36.0937C125.445 36.9856 128.52 35.9527 129.971 36.3136L130.605 36.3429C133.05 36.3091 135.27 36.4117 137.355 36.8019C140.021 35.6032 138.951 38.932 140.622 38.128C142.616 38.3671 142.208 38.2014 144.158 38.8791L144.519 38.4551L145.018 38.772C147.915 38.4653 148.126 35.2436 145.584 34.0979C144.676 33.6152 143.724 33.5712 142.956 33.8295C141.769 31.8651 137.969 32.7176 133.89 32.0883L133.256 32.059C130.267 32.2146 125.963 31.7218 123.705 33.0862C120.808 33.3929 117.777 33.9872 115.063 34.5961L114.02 34.401C110.898 34.8441 103.62 37.5922 99.9115 38.5958C98.6001 38.9758 97.1542 39.6433 95.8428 40.0234L93.0855 41.0709C91.3225 41.7238 89.6509 42.5278 87.6622 43.3172C86.4421 43.8483 84.9963 44.5158 83.7762 45.047C81.2928 46.5478 78.4011 47.883 75.692 49.5203L73.7947 50.4608C72.6659 51.143 71.3114 51.9616 70.0913 52.4928L69.414 52.9021C67.8337 53.8572 66.0276 54.9488 64.4474 55.9039C64.5336 55.0265 61.2385 57.2243 62.0554 57.5559C55.3309 62.2389 51.6757 64.8607 46.4023 69.9047C46.0852 69.89 45.2735 70.5869 45.5475 71.0402C42.0318 74.4028 39.0159 78.0823 36.3171 81.7765C33.9353 85.4853 31.6449 89.3453 29.9887 93.2345C29.3165 94.6723 28.6444 96.11 28.2893 97.5624C27.7085 99.1513 27.1277 100.74 26.6382 102.48C25.8696 102.738 26.1435 103.192 26.3262 103.494C25.8798 104.795 25.6592 105.96 25.5299 107.276L25.4868 107.715C25.1368 110.195 24.7869 112.676 24.6627 115.021C23.7115 114.977 23.5442 117.76 24.673 117.078C24.6781 118.106 24.6832 119.134 24.6883 120.163C23.382 121.571 24.8432 123.989 24.6708 125.744C24.719 126.333 24.8586 127.074 25.1326 127.527C26.3198 129.492 25.2013 132.231 26.8349 132.894C26.3023 135.073 29.1232 137.7 29.1335 139.757C30.5034 142.023 32.3248 144.017 34.3719 145.874C34.1462 146.011 33.786 146.435 34.1944 146.601C34.7854 147.069 35.4678 147.688 36.0589 148.156C37.1497 148.94 38.0147 149.862 39.3313 150.51C39.1107 151.675 43.0603 153.62 43.2861 153.484L44.6026 154.132C44.2476 155.585 47.8268 155.897 49.1433 156.545C51.4543 156.799 51.2336 157.964 53.0017 158.34L53.2274 158.203C54.8611 158.866 55.7261 159.787 58.3541 160.056C61.4869 161.67 65.6952 160.983 69.8224 162.202C71.1769 161.383 72.316 162.758 74.8044 162.285C76.0727 162.344 77.2497 162.252 78.6525 162.023C79.2918 163.08 83.4518 161.804 85.6714 161.907C87.1655 161.829 88.794 161.463 90.1968 161.234L90.7396 161.113C92.6852 160.762 94.6308 160.411 96.8022 159.924C97.033 160.816 100.151 159.345 101.328 159.252L102.639 158.872C105.262 158.112 108.11 157.216 110.642 156.304C111.416 157.075 114.802 155.028 116.656 154.526L119.322 153.328C121.537 152.402 123.66 151.325 125.783 150.248C127.911 150.2 131.927 147.154 134.501 145.804Z" fill="#FF6635"/>
</svg>
