<svg width="141" height="97" viewBox="0 0 141 97" fill="none" xmlns="http://www.w3.org/2000/svg">
<path fill-rule="evenodd" clip-rule="evenodd" d="M129.603 56.3009L138 85.733L129.603 56.3009L138 85.733L69.7924 71.0857L56.0744 97.0005L30.2845 84.0963L0 76.4458L10.8597 56.3009L30.8884 47.2527L3.83611 0.000488281L56.0744 47.2186L103.264 5.44128L129.636 29.8735L129.603 56.3009Z" fill="#D4F54D"/>
<path d="M96.2895 7.33862C92.2307 5.0716 86.7365 3.54584 80.8407 3.04644C74.9449 2.54705 69.2676 3.13579 64.8898 4.69121C60.1325 6.37688 57.3542 9.07554 57.0983 12.2583C56.8424 15.4411 59.107 18.5615 63.5227 21.0285C67.5815 23.2955 73.0563 24.82 78.9715 25.3207C79.2433 25.3392 79.4957 25.3564 79.7676 25.3749C85.3787 25.7574 90.7441 25.1669 94.9225 23.6759C99.6798 21.9902 102.458 19.2916 102.714 16.1088C102.97 12.926 100.686 9.80426 96.2895 7.33862Z" fill="#FFD850"/>
<path d="M95.3546 17.0514C91.1762 18.5423 85.8108 19.1328 80.1997 18.7504C79.9278 18.7319 79.6754 18.7147 79.4036 18.6961C73.4884 18.1954 68.0136 16.671 63.9548 14.404C61.1739 12.8485 59.2491 11.0391 58.2682 9.11848C57.578 10.0861 57.1738 11.1514 57.079 12.2572C56.8036 15.4386 59.0876 18.5604 63.5034 21.0273C67.5622 23.2944 73.037 24.8188 78.9522 25.3195C79.224 25.338 79.4764 25.3552 79.7482 25.3738C85.3594 25.7562 90.7248 25.1657 94.9032 23.6748C99.6605 21.9891 102.439 19.2904 102.695 16.1076C102.795 14.9241 102.543 13.7556 101.976 12.6243C100.702 14.4303 98.4527 15.9551 95.3546 17.0514Z" fill="#FABD20"/>
<path d="M107.173 74.0496C103.529 71.1622 98.3502 68.7767 92.6104 67.3401C86.8706 65.9034 81.1722 65.5759 76.6018 66.4105C71.636 67.313 68.4617 69.5322 67.6996 72.633C66.9376 75.7338 68.6735 79.1765 72.6375 82.3184C76.2811 85.2058 81.4413 87.5869 87.2001 89.028C87.4655 89.0898 87.7119 89.1471 87.9772 89.2089C93.4548 90.4845 98.8455 90.7604 103.209 89.9575C108.174 89.055 111.349 86.8358 112.111 83.735C112.873 80.6342 111.118 77.1872 107.173 74.0496Z" fill="#FFD850"/>
<path d="M104.695 83.4875C100.332 84.2905 94.9415 84.0146 89.4639 82.739C89.1986 82.6772 88.9522 82.6198 88.6868 82.558C82.928 81.117 77.7678 78.7359 74.1242 75.8485C71.6281 73.8679 70.0177 71.7738 69.3569 69.7209C68.5207 70.5657 67.9512 71.5524 67.6806 72.6288C66.8996 75.7252 68.6545 79.1722 72.6185 82.3142C76.2621 85.2016 81.4223 87.5827 87.1811 89.0237C87.4464 89.0855 87.6928 89.1429 87.9582 89.2047C93.4358 90.4803 98.8265 90.7562 103.19 89.9533C108.155 89.0508 111.33 86.8316 112.092 83.7308C112.38 82.5786 112.318 81.3849 111.94 80.1774C110.394 81.7562 107.929 82.9013 104.695 83.4875Z" fill="#FABD20"/>
<path d="M131.769 36.4626C127.365 34.9738 121.684 34.4754 115.796 35.0595C109.908 35.6436 104.434 37.2577 100.413 39.5853C96.0426 42.1102 93.803 45.2702 94.1317 48.4463C94.4605 51.6224 97.2561 54.2776 102.048 55.898C106.452 57.3869 112.113 57.8874 118.02 57.3011C118.291 57.2698 118.542 57.2407 118.813 57.2093C124.4 56.5621 129.567 55.0032 133.404 52.7753C137.774 50.2504 140.013 47.0904 139.685 43.9143C139.356 40.7382 136.541 38.0853 131.769 36.4626Z" fill="#FFD850"/>
<path d="M132.62 46.183C128.784 48.4109 123.616 49.9698 118.029 50.617C117.759 50.6484 117.507 50.6775 117.237 50.7088C111.329 51.2951 105.668 50.7946 101.264 49.3057C98.2465 48.2833 96.024 46.8553 94.7093 45.1457C94.2072 46.223 94.004 47.3441 94.1123 48.4487C94.4217 51.627 97.2367 54.2799 102.028 55.9003C106.432 57.3892 112.093 57.8898 118.001 57.3035C118.271 57.2721 118.523 57.243 118.793 57.2116C124.38 56.5645 129.548 55.0055 133.384 52.7776C137.755 50.2527 139.994 47.0927 139.665 43.9166C139.548 42.7347 139.087 41.6318 138.324 40.6227C137.401 42.6307 135.467 44.5402 132.62 46.183Z" fill="#FABD20"/>
<path d="M36.5235 79H11.5273C6.30263 79 2 83.0645 2 88C2 92.9355 6.30263 97 11.5273 97H36.4723C41.7481 97 45.9995 92.9355 45.9995 88C46.0508 83.0645 41.7481 79 36.5235 79ZM14.0884 82.5806C7.42951 82.5806 6.96852 85.9194 6.96852 85.9677C6.91729 86.4032 6.50752 86.7903 6.04652 86.7903C5.9953 86.7903 5.9953 86.7903 5.94408 86.7903C5.43186 86.7419 5.02209 86.3065 5.12453 85.8226C5.12453 85.629 5.79042 80.8387 14.1396 80.8387C14.6518 80.8387 15.0616 81.2258 15.0616 81.7581C15.0103 82.1935 14.6006 82.5806 14.0884 82.5806Z" fill="white"/>
</svg>
