<svg width="129" height="96" viewBox="0 0 129 96" fill="none" xmlns="http://www.w3.org/2000/svg">
<path fill-rule="evenodd" clip-rule="evenodd" d="M112.604 71.2565L54.12 96L112.604 71.2565L54.12 96L6.06248 71.4402L0 25.7018L44.6167 28.143L55.9372 0.792292L129 0L112.604 71.2565Z" fill="#D4F54D"/>
<path d="M108.192 45.9233L109.1 45.8275C112.322 45.4873 114.647 42.5683 114.248 39.3411C113.857 36.1893 110.935 33.9922 107.789 34.3244L91.3916 36.0552C90.9832 36.0984 90.582 36.0643 90.2198 35.965C88.7092 35.5592 87.1441 35.5106 85.586 35.675L84.5726 35.782C82.122 36.0407 80.3024 33.5592 81.3047 31.2993C83.0485 27.3569 84.1708 23.1746 84.6388 18.8781L85.0675 14.937C85.6325 12.0052 85.1819 9.74589 84.0319 8.11037L80.8185 7.65515C79.8983 8.65366 79.3513 9.85721 79.1974 11.3095L78.8624 14.5379C78.4054 18.9402 77.2488 23.2331 75.454 27.2725L71.9224 35.1771C70.051 39.3621 66.1004 42.2388 61.5473 42.7194L65.586 81.3119L73.0586 80.5231C76.0688 80.2053 79.12 80.5708 81.9819 81.6131C84.8272 82.6419 87.8799 83.0224 90.9052 82.703L106.198 81.0887L107.605 80.9402L107.585 80.7438C109.965 79.8202 111.532 77.3939 111.253 74.7344C110.975 72.0749 108.941 70.0286 106.421 69.6224L106.397 69.3957L108.061 69.2201C111.238 68.8848 113.554 66.0278 113.222 62.8546C112.89 59.6813 110.033 57.3705 106.856 57.7058L109.382 57.4391C112.559 57.1038 114.875 54.2469 114.543 51.0736C114.226 47.8988 111.369 45.5879 108.192 45.9233Z" fill="#F4CEAF"/>
<path d="M83.4307 13.5715L82.7189 20.0788C82.2488 24.3605 81.1272 28.5582 79.3822 32.501C78.3793 34.7611 80.1995 37.2426 82.651 36.9836L91.3978 36.0598C88.9463 36.3187 87.1261 33.8373 88.129 31.5771C89.874 27.6344 90.9971 23.4517 91.4658 19.1549L92.1775 12.6476C92.5523 9.06346 89.9539 5.86976 86.3656 5.50014C84.1996 5.27057 82.1641 6.14253 80.8082 7.66079C82.5974 8.96907 83.67 11.1781 83.4307 13.5715Z" fill="#DFAF82"/>
<path d="M115.491 45.169L116.399 45.0731C119.623 44.7327 121.95 41.8131 121.551 38.5855C121.16 35.4335 118.237 33.2365 115.089 33.569L110.079 34.0981L106.326 34.4945C109.474 34.162 112.38 36.3455 112.798 39.4641C113.229 42.7036 110.89 45.655 107.651 45.9971L106.743 46.093C109.921 45.7573 112.78 48.0681 113.112 51.2416C113.444 54.4151 111.126 57.2726 107.948 57.6083L105.42 57.8753C108.598 57.5396 111.457 59.8504 111.789 63.0239C112.121 66.1974 109.803 69.0549 106.624 69.3906L104.944 69.5681L104.965 69.7645C107.486 70.1705 109.521 72.2168 109.8 74.8766C110.078 77.5363 108.511 79.9631 106.128 80.887L106.149 81.0834L106.164 81.0818L113.384 80.3193L114.897 80.1595L114.876 79.963C117.259 79.0392 118.826 76.6124 118.548 73.9526C118.277 71.3685 116.338 69.3579 113.916 68.8803C113.792 68.8628 113.705 68.765 113.693 68.6441L115.373 68.4667C118.551 68.131 120.869 65.2735 120.537 62.1C120.205 58.9265 117.346 56.6157 114.168 56.9513L116.696 56.6844C119.874 56.3487 122.192 53.4912 121.86 50.3177C121.528 47.1442 118.685 44.8318 115.491 45.169Z" fill="#DFAF82"/>
<path d="M62.9228 78.2248C65.0572 77.9995 66.6027 76.0944 66.3797 73.9635L62.7946 39.7022C62.7218 39.007 61.911 37.8397 60.8816 37.9484L52.7073 38.8113C50.6485 39.0287 49.1438 40.8836 49.3605 42.9541L53.0657 78.3639L54.3868 79.1413L62.9228 78.2248Z" fill="#5745FF"/>
<path d="M61.7876 37.8538L60.8795 37.9497C61.3833 38.523 61.7181 39.2364 61.8035 40.0525L65.2828 73.287C65.4996 75.3575 63.9952 77.2124 61.9217 77.4312L53.0678 78.3654L53.5804 83.2622C53.7956 85.3176 55.6512 86.8179 57.7247 86.5992L66.8056 85.6409C68.8791 85.4221 70.3835 83.5673 70.1667 81.4967L65.9486 41.2043C65.7167 39.1354 63.8611 37.635 61.7876 37.8538Z" fill="#4538C0"/>
<path d="M107.575 46.3427L92.3828 47.9429C91.7328 48.0114 91.1634 47.5374 91.097 46.9036C91.0305 46.2698 91.5042 45.686 92.1391 45.6191L107.347 44.0172C107.997 43.9488 108.566 44.4228 108.633 45.0565C108.699 45.6903 108.225 46.2742 107.575 46.3427Z" fill="#DFAF82"/>
<path d="M104.145 58.347L93.593 59.4595C92.9429 59.5281 92.3736 59.0543 92.3072 58.4208C92.2393 57.7721 92.7147 57.2035 93.3496 57.1365L103.902 56.024C104.552 55.9555 105.121 56.4292 105.188 57.0628C105.254 57.6963 104.795 58.2785 104.145 58.347Z" fill="#DFAF82"/>
<path d="M103.678 70.0443L96.4061 70.8111C95.756 70.8797 95.1867 70.4056 95.1203 69.7716C95.0539 69.1377 95.5277 68.5536 96.1626 68.4866L103.434 67.7197C104.084 67.6512 104.654 68.1253 104.72 68.7592C104.787 69.3932 104.328 69.9757 103.678 70.0443Z" fill="#DFAF82"/>
<path d="M11.5311 68.3293L20.8553 77.7429C21.0642 75.4227 21.4975 66.9387 17.0792 62.4779C15.578 60.9624 13.5894 59.9859 11.5311 59.3687V68.3293Z" fill="white"/>
<path d="M0.0635416 60.064C-0.044789 61.728 -0.199547 66.6809 1.34803 71.001H10.8966L0.0635416 60.064Z" fill="white"/>
<path d="M9.20973 65.9856V58.814C5.96756 58.2125 2.9343 58.3219 1.70398 58.4078L9.20973 65.9856Z" fill="white"/>
<path d="M13.218 73.3447H2.41586C2.88014 74.165 3.43726 74.9227 4.09499 75.5868C7.39907 78.9226 12.9317 79.5241 16.4756 79.5241C17.6673 79.5241 18.6345 79.4538 19.2148 79.3991L13.218 73.3447Z" fill="white"/>
<path d="M37.5304 65.2981C38.1263 62.0248 38.0179 58.9625 37.9328 57.7203L30.427 65.2981H37.5304Z" fill="white"/>
<path d="M25.4593 67.0012L36.2924 56.0642C34.6442 55.9548 29.7384 55.7985 25.4593 57.361V67.0012Z" fill="white"/>
<path d="M28.1134 67.6418L23.2153 72.5869C23.3469 74.415 23.3004 76.0321 23.2308 77.1336C26.6664 76.9383 31.0925 76.0868 33.9014 73.2431C35.4025 71.7276 36.3698 69.7198 36.981 67.6418H28.1134Z" fill="white"/>
<path d="M22.8516 69.6339L23.1379 69.3449V58.4391C22.3255 58.9078 21.5749 59.4703 20.9172 60.1343C20.4142 60.6421 19.9732 61.2046 19.5863 61.8061C20.5767 63.056 21.3814 64.5482 21.9773 66.2669C22.3487 67.3059 22.6427 68.4386 22.8516 69.6339Z" fill="white"/>
<path d="M5.55745 87.8519H8.49785C9.00081 87.8519 9.28711 88.3363 9.28711 88.8675C9.28711 89.3206 9.0395 89.844 8.49785 89.844H5.55745V93.7657H11.0281C11.5311 93.7657 11.8174 94.2969 11.8174 94.8985C11.8174 95.4297 11.5698 95.9922 11.0281 95.9922H4.14141C3.58428 95.9922 3.04263 95.7188 3.04263 95.1953V82.5162C3.04263 81.985 3.58428 81.7193 4.14141 81.7193H11.0281C11.5698 81.7193 11.8174 82.2818 11.8174 82.813C11.8174 83.4146 11.5234 83.9458 11.0281 83.9458H5.55745V87.8519Z" fill="white"/>
<path d="M18.6732 83.8364C17.3732 83.8364 16.6459 84.5552 16.6459 86.0785V91.5236C16.6459 93.047 17.381 93.7735 18.7119 93.7735C20.4684 93.7735 20.6231 92.508 20.685 91.6799C20.7237 91.0783 21.2654 90.883 21.9231 90.883C22.7897 90.883 23.1999 91.133 23.1999 92.133C23.1999 94.4922 21.2809 96 18.5803 96C16.1429 96 14.131 94.7891 14.131 91.5314V86.0785C14.131 82.8209 16.1584 81.61 18.5958 81.61C21.2809 81.61 23.1999 83.0552 23.1999 85.3208C23.1999 86.3363 22.7975 86.5707 21.9463 86.5707C21.2344 86.5707 20.7083 86.352 20.6928 85.7739C20.6463 85.1645 20.5071 83.8364 18.6732 83.8364Z" fill="white"/>
<path d="M25.7147 91.5314V86.0785C25.7147 82.8209 27.6878 81.61 30.2413 81.61C32.7948 81.61 34.7835 82.8209 34.7835 86.0785V91.5236C34.7835 94.7813 32.7948 95.9922 30.2413 95.9922C27.6878 95.9922 25.7147 94.7891 25.7147 91.5314ZM32.2687 86.0785C32.2687 84.5317 31.4949 83.8364 30.2413 83.8364C28.9646 83.8364 28.2295 84.5395 28.2295 86.0785V91.5236C28.2295 93.0704 28.9646 93.7735 30.2413 93.7735C31.4949 93.7735 32.2687 93.0704 32.2687 91.5236V86.0785Z" fill="white"/>
</svg>
