<svg width="158" height="96" viewBox="0 0 158 96" fill="none" xmlns="http://www.w3.org/2000/svg">
<path fill-rule="evenodd" clip-rule="evenodd" d="M93.6626 47.09L126 73.5546L93.6626 47.09L126 73.5546L79.2692 70.3954L77.9459 96L55.8881 92.1592L39.7359 84.343L17.8417 87.6477L53.5464 45.8305L0.949284 55.7039L32.0071 43.787L0 18.0204L13.1561 0.856205L37.6855 3.24453L55.5685 5.17556L68.4939 15.5444L107.79 0L91.8581 32.7248L93.6626 47.09Z" fill="#D4F54D"/>
<path d="M39.9733 10.3591L104.323 3.58348C105.466 3.46311 106.492 4.29636 106.612 5.44343L115.106 86.4028C115.226 87.5499 114.396 88.5785 113.253 88.6989L48.9032 95.4745C47.76 95.5949 46.7346 94.7616 46.6142 93.6146L38.1204 12.6552C38 11.5081 38.8301 10.4795 39.9733 10.3591Z" fill="#FF6635"/>
<path d="M49.7547 84.2747L43.1305 21.1367C47.0902 20.7198 49.9826 17.1545 49.564 13.1648L95.5402 8.32383C95.9571 12.297 99.5113 15.2002 103.488 14.7815L110.114 77.9362C106.154 78.3531 103.261 81.9184 103.68 85.9081L57.6873 90.7508C57.267 86.7444 53.7144 83.8578 49.7547 84.2747Z" fill="#EE4A16"/>
<path d="M59.3067 88.4628C58.1487 85.0887 55.1638 82.6633 51.6339 82.2282L45.3934 22.7468C48.7558 21.586 51.1721 18.5919 51.6046 15.0503L93.9029 10.5966C95.0609 13.9707 98.0458 16.3961 101.576 16.8312L107.814 76.296C104.452 77.4568 102.036 80.4509 101.603 83.9925L59.3067 88.4628Z" fill="white"/>
<path d="M55.8276 22.4185L91.2911 18.6859L91.5052 20.7257L56.0417 24.4583L55.8276 22.4185Z" fill="#F5F4F7"/>
<path d="M61.3027 29.8945L87.5072 27.136L87.7213 29.1762L61.5168 31.9348L61.3027 29.8945Z" fill="#F5F4F7"/>
<path d="M53.3115 38.7881L97.1728 34.173L97.3869 36.2123L53.5256 40.8273L53.3115 38.7881Z" fill="#F5F4F7"/>
<path d="M54.1465 46.7363L98.0077 42.1213L98.2218 44.1605L54.3606 48.7756L54.1465 46.7363Z" fill="#F5F4F7"/>
<path d="M55.8208 62.6631L79.7395 60.1449L79.9536 62.1854L56.0349 64.7035L55.8208 62.6631Z" fill="#F5F4F7"/>
<path d="M56.4761 68.897L69.9431 67.4785L70.1572 69.52L56.6902 70.9384L56.4761 68.897Z" fill="#F5F4F7"/>
<path d="M57.1299 75.1167L76.7752 73.0481L76.9893 75.0889L57.344 77.1575L57.1299 75.1167Z" fill="#F5F4F7"/>
<path d="M93.0596 67.6877L89.4528 68.7565C89.4633 71.411 88.7805 74.0041 87.4812 76.3091C88.3384 76.0171 89.1555 75.6622 89.9308 75.2276C90.0685 75.5829 90.1374 75.7605 90.2604 76.1341C90.4557 76.7186 90.6197 77.3232 90.7505 77.9314C92.6846 74.0132 93.37 71.2854 93.0596 67.6877Z" fill="#EE4A16"/>
<path d="M90.6235 68.4148C90.668 70.9144 90.142 73.4069 89.0725 75.6709C89.4249 75.5161 89.5837 75.4322 89.9326 75.2442C90.0704 75.5994 90.1393 75.777 90.2623 76.1507C91.4547 73.6217 92.0174 70.8396 91.8918 68.046L90.6235 68.4148Z" fill="#FF6635"/>
<path d="M94.1841 67.5698L97.9339 67.8641C98.4745 70.4628 99.6806 72.857 101.43 74.841C100.531 74.734 99.6579 74.5569 98.8094 74.2933C98.7484 74.6695 98.7179 74.8576 98.6752 75.2487C98.6054 75.8611 98.5705 76.4867 98.5688 77.1087C95.8637 73.679 94.6437 71.1519 94.1841 67.5698Z" fill="#EE4A16"/>
<path d="M96.718 67.7744C97.1934 70.2286 98.2252 72.5571 99.7412 74.5489C99.3644 74.4709 99.1917 74.4218 98.8114 74.3106C98.7503 74.6868 98.7198 74.8749 98.677 75.266C96.9857 73.0406 95.8579 70.4365 95.4009 67.6777L96.718 67.7744Z" fill="#FF6635"/>
<path d="M101.474 62.0271C101.42 61.5118 100.105 61.2637 99.9528 60.7755C99.8028 60.3039 100.739 59.3313 100.508 58.885C100.277 58.4387 98.9492 58.713 98.6222 58.3105C98.2969 57.9245 98.8027 56.678 98.3998 56.3506C97.997 56.0233 96.9035 56.7771 96.4431 56.5399C95.9993 56.3009 95.9923 54.957 95.491 54.8081C95.0062 54.6575 94.2711 55.7937 93.7636 55.7463C93.2561 55.6989 92.7408 54.459 92.2272 54.5131C91.7136 54.5672 91.4669 55.8873 90.9803 56.0394C90.5104 56.1897 89.5407 55.2498 89.0961 55.4815C88.6531 55.7298 88.9252 57.0457 88.5241 57.3737C88.123 57.7017 86.897 57.1921 86.5709 57.5962C86.2448 58.0003 86.9964 59.0976 86.7601 59.5595C86.5221 60.0047 85.1828 60.0113 85.0345 60.5143C84.8846 61.0007 86.0172 61.7386 85.9702 62.2478C85.9231 62.757 84.6875 63.2736 84.7416 63.789C84.7956 64.3043 86.1114 64.5523 86.2632 65.0406C86.4149 65.5288 85.4767 66.4848 85.7077 66.9311C85.9554 67.3756 87.2668 67.103 87.5938 67.5056C87.919 67.8915 87.4133 69.1381 87.8161 69.4654C88.219 69.7928 89.3124 69.039 89.7728 69.2762C90.2166 69.5152 90.2236 70.8591 90.725 71.008C91.2098 71.1586 91.9448 70.0223 92.4523 70.0697C92.9598 70.1172 93.4751 71.357 93.9887 71.303C94.5023 71.2489 94.749 69.9288 95.2356 69.7767C95.7221 69.6246 96.6752 70.5663 97.1199 70.3346C97.5628 70.0863 97.2908 68.7703 97.6919 68.4424C98.0764 68.1162 99.3189 68.624 99.6451 68.2199C99.9712 67.8158 99.2195 66.7184 99.4558 66.2566C99.6921 65.7947 101.033 65.8048 101.181 65.3017C101.331 64.8153 100.199 64.0774 100.246 63.5683C100.291 63.0425 101.528 62.5424 101.474 62.0271Z" fill="#FFD850"/>
<path d="M93.6963 68.3578C96.6974 68.0418 98.8742 65.3446 98.5582 62.3334C98.2423 59.3222 95.5533 57.1373 92.5522 57.4532C89.5511 57.7692 87.3743 60.4665 87.6902 63.4777C88.0061 66.4889 90.6951 68.6738 93.6963 68.3578Z" fill="#EE4A16"/>
<path d="M148.838 82.2359L150.936 78.8219L154.728 77.5281L155.149 73.5391L158 70.727L156.646 66.9535L158 63.1801L155.149 60.368L154.728 56.3789L150.936 55.0852L148.838 51.6711L144.875 52.1562L141.496 50L138.125 52.1562L134.153 51.6801L132.055 55.0941L128.272 56.3879L127.851 60.377L125 63.1801L126.354 66.9535L125 70.7359L127.851 73.5391L128.272 77.5281L132.064 78.8219L134.162 82.2359L138.134 81.7598L141.504 83.916L144.875 81.7598L148.838 82.2359ZM129.895 66.9535C129.895 60.5387 135.104 55.3277 141.496 55.3277C147.888 55.3277 153.096 60.5477 153.096 66.9535C153.096 73.3594 147.896 78.5883 141.496 78.5883C135.095 78.5883 129.895 73.3684 129.895 66.9535Z" fill="white"/>
<path d="M141.496 58.023C136.583 58.023 132.584 62.0301 132.584 66.9535C132.584 71.877 136.583 75.884 141.496 75.884C146.408 75.884 150.407 71.877 150.407 66.9535C150.407 62.0301 146.417 58.023 141.496 58.023Z" fill="white"/>
<path d="M137.488 84.5539L132.764 85.1289L130.271 81.068L129.42 80.7805L125.762 92.2355L132.351 91.8762L137.506 96L140.536 86.5035L137.488 84.5539Z" fill="white"/>
<path d="M152.729 81.068L150.236 85.1289L145.512 84.5539L142.464 86.5035L145.494 96L150.649 91.8762L157.238 92.2355L153.58 80.7715L152.729 81.068Z" fill="white"/>
</svg>
