<svg width="153" height="97" viewBox="0 0 153 97" fill="none" xmlns="http://www.w3.org/2000/svg">
<path fill-rule="evenodd" clip-rule="evenodd" d="M97.0331 19.6828L97.8953 37.1566L97.0331 19.6828L97.8953 37.1566L112 51.4655L101.014 66.7616L100.58 86.8373L79.3261 87.6292L64.6744 87.7109L51.523 88.2152L31.6544 96L31.1646 73.2255L0.0850102 71.1969L22.4099 50.2836L16.0653 34.5706L0 0L37.0647 11.7366L51.9045 7.43212L64.2858 22.506L82.8532 10.6718L97.0331 19.6828Z" fill="#D4F54D"/>
<path d="M97.6436 51.6797C96.8887 50.3855 95.2351 49.9361 93.9589 50.6911L77.9077 57.7371C76.8472 58.7976 76.8472 60.5051 77.9077 61.5476L85.9602 69.6002C88.0812 71.7212 91.047 72.4402 93.8151 71.7032C96.5831 70.9663 98.7041 68.9172 99.459 66.1851C100.825 61.332 100.16 56.0295 97.6436 51.6797Z" fill="#8F8F8F"/>
<path d="M68.417 22.2193C63.8694 19.3793 58.3153 18.6064 53.1387 20.0983C50.4785 20.8712 48.4833 22.9562 47.7823 25.6883C47.0633 28.4924 47.8722 31.5121 49.9033 33.5432L58.3872 42.0271C59.4477 43.0876 61.1553 43.0876 62.1978 42.0271L69.2618 25.94C70.0527 24.6818 69.6752 23.0101 68.417 22.2193Z" fill="#AFAFAF"/>
<path d="M56.5538 63.5605C51.7007 59.1927 48.8428 54.7171 41.8867 54.6632C36.3326 54.5553 30.5088 57.8986 23.7684 64.5851C22.7439 65.6635 22.7439 67.3891 23.7684 68.4136C29.8078 74.453 35.2002 77.3649 40.215 77.3649C41.0778 77.3649 41.9406 77.311 43.1269 77.0414C42.6955 78.4973 42.4798 79.9532 42.4798 81.3552C42.5337 87.4486 46.7937 91.5468 49.8673 94.5125C53.3903 98.0355 54.1812 96.2561 56.8774 93.7576C60.5442 90.3604 65.0737 86.1544 65.1816 79.9532C65.2894 73.5903 60.9755 68.2519 56.5538 63.5605Z" fill="#AFAFAF"/>
<path d="M49.8674 94.5128C53.3904 98.0358 54.1813 96.2563 56.8774 93.7578C60.5442 90.3607 65.0738 86.1547 65.1816 79.9535C65.2895 73.5905 60.9756 68.2521 56.5539 63.5608C56.5359 63.5428 56.5179 63.5248 56.482 63.5068L42.8933 77.0955C42.9652 77.0775 43.0371 77.0596 43.109 77.0416C42.6776 78.4975 42.4619 79.9535 42.4619 81.3555C42.5338 87.4488 46.7938 91.547 49.8674 94.5128Z" fill="#8F8F8F"/>
<path d="M111.628 38.3422C105.696 53.6564 90.3098 62.6976 55.2057 68.7909C53.3723 69.1145 51.3232 67.317 51.6468 65.232C57.6322 30.775 66.0083 14.8855 80.8373 8.73828L90.8131 12.5129L98.4702 21.5181L104.671 28.7978L111.628 38.3422Z" fill="#EEEEEE"/>
<path d="M55.2061 68.7914C90.3102 62.698 105.696 53.6569 111.628 38.3426L104.672 28.7982L98.4706 21.5186L52.3481 67.641C53.0671 68.4858 54.1636 68.9711 55.2061 68.7914Z" fill="#D1D1D1"/>
<path d="M115.025 13.0524C115.025 19.1997 114.755 25.6705 113.515 31.656C113.029 33.9208 112.436 36.1855 111.627 38.3425C102.137 41.3622 93.2395 38.5582 87.2541 32.7884C81.2686 26.9107 78.2488 17.9055 80.8372 8.73854C82.9402 7.87577 85.151 7.22869 87.4158 6.68945C93.617 5.28744 100.465 4.90998 106.882 4.9639C109.093 4.9639 111.142 5.8806 112.598 7.33653C114.054 8.79246 114.971 10.8416 115.025 13.0524Z" fill="#D0D0D0"/>
<path d="M87.2542 32.7883C93.2397 38.5581 102.137 41.3622 111.628 38.3425C112.436 36.1855 113.03 33.9207 113.515 31.656C114.755 25.6705 115.025 19.1997 115.025 13.0524C114.971 10.8595 114.072 8.81042 112.616 7.35449L87.2183 32.7704C87.2362 32.7704 87.2362 32.7883 87.2542 32.7883Z" fill="#AFAFAF"/>
<path d="M91.73 45.2988C91.029 46.6469 89.4113 47.1322 88.1172 46.4851C84.9357 44.8674 82.0778 42.8183 79.6512 40.3918C77.1168 37.9113 75.0138 35.1073 73.3422 32.0876C72.6412 30.7934 73.1265 29.1757 74.4206 28.4208C75.7148 27.7198 77.3864 28.2051 78.0874 29.4992C79.5433 32.1415 81.3228 34.5141 83.4798 36.5632C85.5288 38.6123 87.9015 40.3378 90.5437 41.6859C91.8918 42.3869 92.431 44.0046 91.73 45.2988Z" fill="#AFAFAF"/>
<path d="M79.6512 40.3919C82.0777 42.8184 84.9357 44.8675 88.1172 46.4852C89.4113 47.1323 91.029 46.647 91.73 45.2989C92.431 44.0047 91.8918 42.387 90.5437 41.686C87.9015 40.3379 85.5288 38.6124 83.4797 36.5633C83.4618 36.5453 83.4618 36.5453 83.4438 36.5273L79.6152 40.3739C79.6332 40.3739 79.6332 40.3919 79.6512 40.3919Z" fill="#AFAFAF"/>
<path d="M96.5292 21.8596C98.0182 21.8596 99.2253 20.6525 99.2253 19.1635C99.2253 17.6744 98.0182 16.4673 96.5292 16.4673C95.0401 16.4673 93.833 17.6744 93.833 19.1635C93.833 20.6525 95.0401 21.8596 96.5292 21.8596Z" fill="#151516"/>
<path d="M124.9 56.0281C126.088 56.2953 126.964 56.711 127.632 57.1934C130.549 56.3844 133.918 56.0578 137.11 56.3695C133.874 52.718 129.376 52.2801 124.774 53.8832C123.661 54.2692 123.809 55.8129 124.9 56.0281Z" fill="#F5F4F7"/>
<path d="M120.173 76.134C122.384 74.2043 124.9 73.759 127.661 74.8203C130.222 75.8371 134.415 77.032 138.238 77.6481C137.963 77.2176 137.963 77.2102 137.941 77.1805C136.909 75.3918 134.653 70.7383 135.915 66.2703C136.664 63.6356 138.483 61.5203 141.333 59.9766C141.355 59.9617 141.355 59.9692 141.815 59.7094C138.342 58.4031 134.386 58.2102 130.734 58.8039C127.431 59.3309 125.702 60.1695 124.084 61.2383C116.209 66.4336 113.96 73.477 115.415 79.3922C117.115 86.3242 124.225 90.6586 124.529 90.8441C124.7 90.948 124.893 91 125.108 91C125.42 91 127.379 90.9332 128.738 89.3301C129.94 87.9125 130.281 85.8121 129.754 83.0734C129.621 82.3758 128.871 81.975 128.211 82.2645C128.196 82.2719 126.348 83.066 124.091 82.9844C121.382 82.8805 119.26 81.5816 117.76 79.1102C118.154 78.4422 118.963 77.1953 120.173 76.134Z" fill="#F5F4F7"/>
<path d="M152.985 75.3918C152.006 69.0164 149.215 63.784 144.294 60.8969C141.704 62.3145 142.595 61.8246 142.402 61.9359C140.093 63.1828 138.631 64.8527 138.06 66.8863C137.028 70.5231 138.965 74.4938 139.863 76.0524L141.11 78.0191C144.829 78.3606 148.696 78.1527 151.954 76.7574C152.34 76.5941 152.614 76.4977 152.83 76.1637C152.971 75.9336 153.03 75.659 152.985 75.3918ZM144.695 69.5582C144.049 69.5582 143.574 69.0461 143.574 68.4449C143.574 67.8438 144.057 67.3317 144.695 67.3317C145.311 67.3317 145.808 67.8289 145.808 68.4449C145.808 69.0609 145.311 69.5582 144.695 69.5582Z" fill="#F5F4F7"/>
</svg>
