<svg width="196" height="108" viewBox="0 0 196 108" fill="none" xmlns="http://www.w3.org/2000/svg">
<path d="M8.27881 30.4745C5.771 30.4745 3.84912 29.7128 2.51318 28.1894C1.17725 26.6542 0.509277 24.6093 0.509277 22.0546V9.01166C0.509277 6.36322 1.15381 4.27728 2.44287 2.75385C3.74365 1.23041 5.68896 0.468689 8.27881 0.468689C10.8569 0.468689 12.7964 1.23627 14.0972 2.77142C15.3979 4.29486 16.0483 6.37494 16.0483 9.01166V22.0546C16.0483 24.5976 15.3745 26.6367 14.0269 28.1718C12.6909 29.707 10.7749 30.4745 8.27881 30.4745ZM8.27881 25.6054C9.69678 25.6054 10.4058 24.3808 10.4058 21.9316V9.15228C10.4058 8.64838 10.3882 8.22064 10.353 7.86908C10.3179 7.51752 10.2358 7.12494 10.1069 6.69135C9.97803 6.25775 9.76123 5.92377 9.45654 5.68939C9.15186 5.45502 8.75928 5.33783 8.27881 5.33783C7.95068 5.33783 7.66357 5.39642 7.41748 5.51361C7.17139 5.61908 6.97217 5.77728 6.81982 5.98822C6.6792 6.19916 6.56201 6.42181 6.46826 6.65619C6.37451 6.87885 6.3042 7.15424 6.25732 7.48236C6.22217 7.81049 6.19873 8.09174 6.18701 8.32611C6.17529 8.54877 6.16943 8.82416 6.16943 9.15228V21.9316C6.16943 24.3808 6.87256 25.6054 8.27881 25.6054Z" fill="#D4F54D"/>
<path d="M26.0601 30.4745C24.8531 30.4745 23.8043 30.3339 22.9137 30.0527C22.023 29.7714 21.2965 29.3847 20.734 28.8925C20.1832 28.3886 19.7379 27.7499 19.398 26.9765C19.0699 26.2031 18.8414 25.3828 18.7125 24.5156C18.5836 23.6484 18.5191 22.6406 18.5191 21.4921H23.9332C23.9332 22.3359 23.9625 23.0273 24.0211 23.5663C24.0797 24.1054 24.191 24.5976 24.3551 25.0429C24.5191 25.4882 24.7652 25.8105 25.0933 26.0097C25.398 26.1972 25.7906 26.291 26.2711 26.291C26.2945 26.291 26.3238 26.291 26.359 26.291C26.6285 26.2792 26.8687 26.2382 27.0797 26.1679C27.3023 26.0976 27.4898 25.9745 27.6422 25.7988C27.7945 25.623 27.9234 25.4472 28.0289 25.2714C28.1461 25.0956 28.234 24.8437 28.2926 24.5156C28.3629 24.1874 28.4156 23.9003 28.4508 23.6542C28.4976 23.3964 28.5269 23.0331 28.5387 22.5644C28.5621 22.0956 28.5738 21.7031 28.5738 21.3867C28.5855 21.0585 28.5914 20.6074 28.5914 20.0331C28.5914 19.4824 28.5797 19.0019 28.5562 18.5917C28.5328 18.1816 28.4918 17.7656 28.4332 17.3437C28.3863 16.9101 28.3043 16.5527 28.1871 16.2714C28.0699 15.9785 27.9234 15.7148 27.7476 15.4804C27.5719 15.246 27.3492 15.0703 27.0797 14.9531C26.8101 14.8359 26.4937 14.7773 26.1304 14.7773C24.8179 14.7773 23.9859 15.6386 23.6344 17.3613H18.8355L19.2047 0.855408H32.6871V5.68939H23.8101L23.4937 12.0527C23.8101 11.6894 24.3023 11.3788 24.9703 11.121C25.6383 10.8632 26.3765 10.705 27.1851 10.6464C27.3961 10.6347 27.5953 10.6288 27.7828 10.6288C29.6929 10.6288 31.1637 11.3554 32.1949 12.8085C33.3199 14.414 33.8824 16.7226 33.8824 19.7343C33.8824 20.8359 33.8414 21.8203 33.7594 22.6874C33.6773 23.5429 33.5308 24.3925 33.3199 25.2363C33.1207 26.08 32.8277 26.8066 32.441 27.416C32.066 28.0253 31.5972 28.5703 31.0347 29.0507C30.4722 29.5195 29.7691 29.871 28.9254 30.1054C28.0933 30.3515 27.1383 30.4745 26.0601 30.4745Z" fill="#D4F54D"/>
<path fill-rule="evenodd" clip-rule="evenodd" d="M139.086 59.0899L168.857 85.5546L139.086 59.0899L168.857 85.5546L125.835 82.3953L124.617 108L104.31 104.159L89.4397 96.343L69.2831 99.6477L102.154 57.8304L53.7314 67.7039L82.3243 55.7869L52.8574 30.0203L64.9694 12.8561L87.552 15.2445L104.016 17.1755L115.915 27.5444L152.093 11.9999L137.425 44.7247L139.086 59.0899Z" fill="#D4F54D"/>
<path d="M184.458 11.7055C179.904 10.7702 174.205 10.9752 168.434 12.2799C162.663 13.5846 157.429 15.8606 153.725 18.6657C149.699 21.7095 147.866 25.1212 148.583 28.2327C149.3 31.3441 152.402 33.6348 157.356 34.6528C161.91 35.588 167.59 35.3877 173.38 34.0784C173.645 34.0139 173.891 33.9541 174.155 33.8897C179.62 32.5594 184.556 30.376 188.089 27.6926C192.115 24.6488 193.949 21.237 193.231 18.1256C192.514 15.0141 189.394 12.7281 184.458 11.7055Z" fill="#FFD850"/>
<path d="M186.5 21.2469C182.967 23.9302 178.031 26.1137 172.566 27.4439C172.301 27.5083 172.056 27.5682 171.791 27.6326C166.001 28.9419 160.321 29.1423 155.767 28.2071C152.646 27.5642 150.265 26.4207 148.75 24.886C148.384 26.0169 148.32 27.1545 148.564 28.2373C149.262 31.3534 152.383 33.6394 157.337 34.6574C161.891 35.5927 167.571 35.3923 173.361 34.083C173.626 34.0186 173.871 33.9587 174.136 33.8943C179.601 32.5641 184.537 30.3806 188.07 27.6972C192.096 24.6534 193.93 21.2416 193.212 18.1302C192.95 16.9717 192.357 15.9339 191.475 15.0265C190.806 17.1329 189.122 19.266 186.5 21.2469Z" fill="#FABD20"/>
<path d="M184.458 68.7055C179.904 67.7702 174.205 67.9752 168.434 69.2799C162.663 70.5846 157.429 72.8606 153.725 75.6657C149.699 78.7095 147.866 82.1212 148.583 85.2327C149.3 88.3441 152.402 90.6348 157.356 91.6528C161.91 92.588 167.59 92.3877 173.38 91.0784C173.645 91.0139 173.891 90.9541 174.155 90.8897C179.62 89.5594 184.556 87.376 188.089 84.6926C192.115 81.6488 193.949 78.237 193.231 75.1256C192.514 72.0141 189.394 69.7281 184.458 68.7055Z" fill="#FFD850"/>
<path d="M186.5 78.2469C182.967 80.9303 178.031 83.1137 172.566 84.444C172.301 84.5084 172.056 84.5682 171.791 84.6327C166.001 85.942 160.321 86.1423 155.767 85.2071C152.646 84.5642 150.265 83.4207 148.75 81.8861C148.384 83.017 148.32 84.1546 148.564 85.2374C149.262 88.3534 152.383 90.6395 157.337 91.6575C161.891 92.5927 167.571 92.3924 173.361 91.0831C173.626 91.0186 173.871 90.9588 174.136 90.8944C179.601 89.5641 184.537 87.3807 188.07 84.6973C192.096 81.6535 193.93 78.2417 193.212 75.1303C192.95 73.9718 192.357 72.934 191.475 72.0266C190.806 74.133 189.122 76.2661 186.5 78.2469Z" fill="#FABD20"/>
<path d="M148.655 49.7529C145.696 46.1675 141.13 42.7519 135.817 40.1469C130.505 37.5419 125.001 36.0301 120.357 35.8908C115.312 35.735 111.744 37.2415 110.351 40.1144C108.957 42.9873 109.935 46.7168 113.154 50.6182C116.114 54.2036 120.662 57.6109 125.992 60.2242C126.239 60.3401 126.468 60.4478 126.714 60.5637C131.804 62.9564 137.018 64.3533 141.452 64.4803C146.497 64.6361 150.065 63.1296 151.459 60.2567C152.852 57.3838 151.857 53.646 148.655 49.7529Z" fill="#FFD850"/>
<path d="M144.259 58.4642C139.825 58.3371 134.611 56.9402 129.521 54.5475C129.274 54.4316 129.045 54.324 128.799 54.2081C123.469 51.5948 118.92 48.1874 115.961 44.602C113.934 42.1434 112.797 39.7588 112.58 37.6131C111.586 38.2644 110.823 39.1103 110.333 40.1063C108.922 42.9709 109.917 46.7087 113.137 50.61C116.096 54.1954 120.644 57.6028 125.975 60.2161C126.221 60.332 126.45 60.4396 126.697 60.5555C131.787 62.9482 137 64.3451 141.435 64.4722C146.48 64.6279 150.048 63.1215 151.441 60.2486C151.964 59.1821 152.154 58.0018 152.036 56.742C150.194 57.9625 147.544 58.567 144.259 58.4642Z" fill="#FABD20"/>
<path d="M87.5235 90H62.5273C57.3026 90 53 94.0645 53 99C53 103.935 57.3026 108 62.5273 108H87.4723C92.7481 108 96.9995 103.935 96.9995 99C97.0508 94.0645 92.7481 90 87.5235 90ZM65.0884 93.5806C58.4295 93.5806 57.9685 96.9194 57.9685 96.9677C57.9173 97.4032 57.5075 97.7903 57.0465 97.7903C56.9953 97.7903 56.9953 97.7903 56.9441 97.7903C56.4319 97.7419 56.0221 97.3065 56.1245 96.8226C56.1245 96.629 56.7904 91.8387 65.1396 91.8387C65.6518 91.8387 66.0616 92.2258 66.0616 92.7581C66.0103 93.1935 65.6006 93.5806 65.0884 93.5806Z" fill="white"/>
</svg>
