<svg width="193" height="108" viewBox="0 0 193 108" fill="none" xmlns="http://www.w3.org/2000/svg">
<path d="M8.19922 31.4745C5.69141 31.4745 3.76953 30.7128 2.43359 29.1894C1.09766 27.6542 0.429688 25.6093 0.429688 23.0546V10.0117C0.429688 7.36322 1.07422 5.27728 2.36328 3.75385C3.66406 2.23041 5.60938 1.46869 8.19922 1.46869C10.7773 1.46869 12.7168 2.23627 14.0176 3.77142C15.3184 5.29486 15.9688 7.37494 15.9688 10.0117V23.0546C15.9688 25.5976 15.2949 27.6367 13.9473 29.1718C12.6113 30.707 10.6953 31.4745 8.19922 31.4745ZM8.19922 26.6054C9.61719 26.6054 10.3262 25.3808 10.3262 22.9316V10.1523C10.3262 9.64838 10.3086 9.22064 10.2734 8.86908C10.2383 8.51752 10.1562 8.12494 10.0273 7.69135C9.89844 7.25775 9.68164 6.92377 9.37695 6.68939C9.07227 6.45502 8.67969 6.33783 8.19922 6.33783C7.87109 6.33783 7.58398 6.39642 7.33789 6.51361C7.0918 6.61908 6.89258 6.77728 6.74023 6.98822C6.59961 7.19916 6.48242 7.42181 6.38867 7.65619C6.29492 7.87885 6.22461 8.15424 6.17773 8.48236C6.14258 8.81049 6.11914 9.09174 6.10742 9.32611C6.0957 9.54877 6.08984 9.82416 6.08984 10.1523V22.9316C6.08984 25.3808 6.79297 26.6054 8.19922 26.6054Z" fill="#D4F54D"/>
<path d="M18.3516 30.9999V27.08L25.3653 16.164C25.4473 16.0351 25.7227 15.6191 26.1915 14.916C26.6602 14.2011 26.9649 13.7148 27.1055 13.457C27.2579 13.1874 27.4747 12.7656 27.7559 12.1913C28.0489 11.6171 28.2481 11.0898 28.3536 10.6093C28.4591 10.1171 28.5118 9.60736 28.5118 9.08002C28.5118 8.0722 28.3067 7.31049 27.8966 6.79486C27.545 6.34955 27.0645 6.12689 26.4552 6.12689C26.3614 6.12689 26.2618 6.13275 26.1563 6.14447C24.6212 6.2851 23.8536 7.7265 23.8536 10.4687V11.787H18.4395V10.3808C18.4395 9.04486 18.586 7.84955 18.879 6.79486C19.172 5.72845 19.6231 4.79095 20.2325 3.98236C20.8419 3.16205 21.6622 2.5351 22.6934 2.1015C23.7247 1.65619 24.9317 1.43353 26.3145 1.43353C28.8458 1.43353 30.7618 2.10736 32.0626 3.45502C33.3634 4.80267 34.0137 6.69525 34.0137 9.13275C34.0137 9.96478 33.9259 10.7617 33.7501 11.5234C33.586 12.2734 33.3223 13.0117 32.9591 13.7382C32.5958 14.4648 32.2559 15.0859 31.9395 15.6015C31.6348 16.1054 31.213 16.7499 30.6739 17.5351C30.4981 17.7812 30.3692 17.9687 30.2872 18.0976L24.6622 26.5878H33.2403V30.9999H18.3516Z" fill="#D4F54D"/>
<path fill-rule="evenodd" clip-rule="evenodd" d="M154.542 77.9987L103.765 103L154.542 77.9987L103.765 103L62.0409 78.1843L56.7773 31.9695L95.5143 34.4361L105.343 6.80048L168.777 5.99994L154.542 77.9987Z" fill="#D4F54D"/>
<path d="M108.468 19.9694L107.261 18.8444L106.696 16.4414C106.235 14.4807 104.265 13.2535 102.296 13.7166L94.4958 15.5511C94.0453 15.6571 93.7513 15.418 93.6365 15.3042C93.532 15.1967 93.2847 14.8938 93.3907 14.4462L94.8997 8.05989C95.0366 7.48177 95.0411 6.86436 94.9037 6.28032C94.4337 4.2072 92.3419 2.91177 90.2646 3.40033L89.5888 3.55926C89.3385 3.61812 89.1285 3.77318 89.0048 3.99598L81.8349 16.5213C80.3389 19.1448 79.8887 22.2092 80.5794 25.1462L82.5202 33.3979C83.674 38.3039 88.6101 41.3606 93.5155 40.2069L103.176 37.9348C104.669 37.5836 105.88 36.5153 106.413 35.0778L109.858 25.8413C110.238 24.8362 110.307 23.7457 110.06 22.6944C109.812 21.6431 109.256 20.6998 108.468 19.9694Z" fill="white"/>
<path d="M73.8313 20.4112L68.492 21.667C66.5232 22.13 65.3065 24.1068 65.7677 26.0675L69.5353 42.0871C69.9965 44.0478 71.9667 45.275 73.9355 44.8119L79.2748 43.5562C81.2353 43.0951 82.4622 41.1248 81.9991 39.1557L78.2314 23.1361C77.7619 21.1773 75.7918 19.9502 73.8313 20.4112Z" fill="white"/>
<path d="M174.485 101.59L144.178 104.782C143.784 104.823 143.428 104.534 143.387 104.139L141.057 81.9319L172.795 78.5901L175.125 100.797C175.167 101.192 174.896 101.547 174.485 101.59Z" fill="#F4CEAF"/>
<path d="M167.26 79.1726L169.667 102.103L174.485 101.596C174.879 101.554 175.167 101.197 175.126 100.802L172.795 78.5901L167.26 79.1726Z" fill="#DFAF82"/>
<path d="M181.651 29.1642C178.922 28.3442 176.027 29.9016 175.21 32.6379L169.492 51.8098C169.372 52.2217 168.904 52.4162 168.538 52.2007L168.52 52.2026C168.288 52.0636 168.152 51.8056 168.196 51.5288L171.872 23.7679C172.294 20.5468 170.254 18.5288 167.867 18.0359C165.183 17.4654 162.1 18.7884 161.612 22.4158L158.425 46.3858C158.361 46.81 157.938 47.0906 157.525 46.9525L157.507 46.9544C157.263 46.8712 157.075 46.6368 157.049 46.3854L153.866 16.0431C153.566 13.1884 151.016 11.1334 148.187 11.4313C145.358 11.7291 143.29 14.2704 143.588 17.1071L146.737 47.1263C146.78 47.5392 146.585 47.9228 146.246 48.1401L146.23 48.1599C145.619 48.5509 144.806 48.2191 144.625 47.5302L138.342 23.5227C137.614 20.7312 134.668 18.6998 131.804 19.0014C128.939 19.303 127.195 21.8283 127.922 24.6198L137.071 59.5438C137.378 60.7458 137.03 62.0894 135.797 62.9272C134.479 63.8283 132.694 63.5443 131.661 62.328L124.546 53.8558C122.706 51.6716 119.435 51.3806 117.258 53.2254C115.08 55.0703 114.792 58.368 116.65 60.5503L125.728 71.339C125.728 71.339 129.439 77.3743 130.415 83.5704C131.392 89.7845 135.752 98.7284 145.348 97.718L170.233 95.0978C176.928 94.3928 181.257 88.0375 180.494 81.111L178.384 61.8557C178.203 60.1321 178.348 58.4105 178.845 56.7608L185.152 35.6208C185.949 32.8685 184.398 29.9823 181.651 29.1642Z" fill="#F4CEAF"/>
<path d="M131.698 19.9128L137.981 43.9204C138.594 46.3065 142.399 48.5738 144.626 47.5222L138.342 23.5146C137.615 20.7231 134.667 18.6921 131.801 18.9943C131.496 19.0264 131.196 19.0944 130.915 19.1785C131.252 19.2881 131.529 19.513 131.698 19.9128Z" fill="#DFAF82"/>
<path d="M148.326 16.6018L150.735 39.5851C151.52 47.0726 157.044 46.3634 157.044 46.3634L153.863 16.0183C153.564 13.1633 151.011 11.1086 148.18 11.407C147.158 11.5146 146.24 11.92 145.487 12.5077C147.016 13.2724 148.134 14.7703 148.326 16.6018Z" fill="#DFAF82"/>
<path d="M166.333 24.3496L163.643 44.6563C162.972 50.3545 166.447 51.7128 168.185 51.5296L171.869 23.7661C172.292 20.5447 170.251 18.5269 167.863 18.0344C166.343 17.7045 164.672 18.0077 163.433 18.9733C165.294 19.7937 166.683 21.6441 166.333 24.3496Z" fill="#DFAF82"/>
<path d="M181.657 29.1675C179.974 28.6552 178.223 29.0576 176.954 30.0809C179.171 31.1904 180.327 33.7551 179.606 36.2091L173.291 57.3509C172.794 59.0008 172.633 60.7423 172.829 62.4461L174.938 81.7016C175.701 88.6461 171.385 94.9826 164.668 95.6907L170.203 95.1072C176.902 94.401 181.235 88.0447 180.473 81.1181L178.364 61.8626C178.184 60.139 178.329 58.4173 178.826 56.7674L185.141 35.6256C185.957 32.8711 184.405 29.9851 181.657 29.1675Z" fill="#DFAF82"/>
<path d="M119.023 54.452L126.137 62.9209C127.17 64.1369 130.331 65.7998 134.124 63.4762C133.201 63.4827 132.291 63.0887 131.671 62.3555L124.557 53.8866C122.739 51.7373 119.558 51.4375 117.386 53.1728C117.995 53.4534 118.549 53.9031 119.023 54.452Z" fill="#DFAF82"/>
<path d="M160.874 73.8477C152.408 65.0836 140.899 65.4423 140.413 65.4753C139.674 65.4987 139.09 66.141 139.113 66.8826C139.137 67.6243 139.777 68.2102 140.517 68.1868C140.624 68.1755 151.303 67.8316 158.919 75.7414C159.447 76.2848 160.298 76.286 160.824 75.7769C161.383 75.2461 161.402 74.3911 160.874 73.8477Z" fill="#DFAF82"/>
</svg>
