<svg width="197" height="108" viewBox="0 0 197 108" fill="none" xmlns="http://www.w3.org/2000/svg">
<path d="M8.19971 30.4745C5.69189 30.4745 3.77002 29.7128 2.43408 28.1894C1.09814 26.6542 0.430176 24.6093 0.430176 22.0546V9.01166C0.430176 6.36322 1.07471 4.27728 2.36377 2.75385C3.66455 1.23041 5.60986 0.468689 8.19971 0.468689C10.7778 0.468689 12.7173 1.23627 14.0181 2.77142C15.3188 4.29486 15.9692 6.37494 15.9692 9.01166V22.0546C15.9692 24.5976 15.2954 26.6367 13.9478 28.1718C12.6118 29.707 10.6958 30.4745 8.19971 30.4745ZM8.19971 25.6054C9.61768 25.6054 10.3267 24.3808 10.3267 21.9316V9.15228C10.3267 8.64838 10.3091 8.22064 10.2739 7.86908C10.2388 7.51752 10.1567 7.12494 10.0278 6.69135C9.89893 6.25775 9.68213 5.92377 9.37744 5.68939C9.07275 5.45502 8.68018 5.33783 8.19971 5.33783C7.87158 5.33783 7.58447 5.39642 7.33838 5.51361C7.09229 5.61908 6.89307 5.77728 6.74072 5.98822C6.6001 6.19916 6.48291 6.42181 6.38916 6.65619C6.29541 6.87885 6.2251 7.15424 6.17822 7.48236C6.14307 7.81049 6.11963 8.09174 6.10791 8.32611C6.09619 8.54877 6.09033 8.82416 6.09033 9.15228V21.9316C6.09033 24.3808 6.79346 25.6054 8.19971 25.6054Z" fill="#D4F54D"/>
<path d="M25.9986 30.4745C20.7486 30.4745 18.1236 27.5624 18.1236 21.7382V20.7011H23.6959V21.6152C23.7076 23.1035 23.8775 24.1757 24.2056 24.832C24.5338 25.4882 25.149 25.8163 26.0513 25.8163C26.5318 25.8163 26.9185 25.7285 27.2115 25.5527C27.5162 25.3652 27.7447 25.0781 27.8971 24.6913C28.0494 24.2929 28.149 23.8652 28.1959 23.4081C28.2545 22.9394 28.2838 22.3417 28.2838 21.6152C28.2838 20.0683 28.0553 18.9199 27.5982 18.1699C27.1412 17.4199 26.3033 17.0214 25.0846 16.9745H24.1529V12.7558H24.9791C26.233 12.7324 27.0943 12.3984 27.5631 11.7538C28.0435 11.1093 28.2838 10.0429 28.2838 8.55463C28.2838 7.32416 28.108 6.4101 27.7564 5.81244C27.4166 5.21478 26.8131 4.91595 25.9459 4.91595C25.0787 4.91595 24.4869 5.24408 24.1705 5.90033C23.8658 6.55658 23.7076 7.51166 23.6959 8.76556V10.0312H18.1236V8.44916C18.1236 5.90619 18.8092 3.93744 20.1803 2.54291C21.5513 1.13666 23.4674 0.433533 25.9283 0.433533C28.4361 0.433533 30.3697 1.10736 31.7291 2.45502C33.1002 3.80267 33.7857 5.74213 33.7857 8.27338C33.7857 9.92572 33.44 11.3203 32.7486 12.457C32.0572 13.582 31.1607 14.2968 30.0592 14.6015C32.5435 15.5038 33.7857 17.8007 33.7857 21.4921C33.7857 22.8632 33.6392 24.082 33.3463 25.1484C33.065 26.2148 32.6197 27.1523 32.0103 27.9609C31.4127 28.7695 30.6041 29.3906 29.5846 29.8242C28.5767 30.2578 27.3814 30.4745 25.9986 30.4745Z" fill="#D4F54D"/>
<path fill-rule="evenodd" clip-rule="evenodd" d="M144.626 52.3159L168.778 71.9879L144.626 52.3159L168.778 71.9879L156.577 102L123.035 81.0526L121.961 68.0685L56.7778 85.9598L75.8742 47.6384L100.919 25.0885L137.989 6.99994L144.626 52.3159Z" fill="#D4F54D"/>
<path d="M185.056 18.0435L151.188 21.6096L148.023 21.9428L120.011 24.8924C110.198 25.9255 86.8194 44.0614 115.986 93.2911L116.069 94.0821C116.152 94.8731 116.851 95.4392 117.643 95.3559C122.516 94.5229 137.193 91.0582 139.722 77.0369C139.722 77.0369 170.641 75.8606 171.793 48.7093C179.475 42.6224 186.525 33.5631 187.729 20.641C187.896 19.1839 186.639 17.8768 185.056 18.0435Z" fill="#FF6635"/>
<path d="M150.902 60.0293C121.556 68.557 116.319 82.7029 115.85 90.4292L116.09 94.2424C116.173 95.0334 116.872 95.5995 117.664 95.5161C122.537 94.6832 137.214 91.2186 139.743 77.1978C139.743 77.1978 170.661 76.0216 171.813 48.8712C161.939 56.9479 150.902 60.0293 150.902 60.0293Z" fill="#EE4A16"/>
<path d="M185.056 18.0434L151.188 21.6095C152.565 34.7395 143.074 46.4548 129.938 47.8379C128.989 47.9379 128.289 47.3718 128.19 46.4226C128.09 45.4735 128.657 44.774 129.606 44.6741C141.001 43.4743 149.218 33.3326 148.023 21.9428L120.01 24.8922C110.198 25.9254 86.8194 44.0611 115.986 93.2905L115.845 90.4264C116.398 83.4908 120.692 71.0431 143.626 62.3907L143.784 62.374C144.7 61.9577 145.633 61.6995 146.725 61.4247C147.041 61.3913 147.183 61.2165 147.499 61.1831C148.591 60.9083 149.665 60.4753 150.915 60.1838C150.915 60.1838 150.915 60.1838 151.073 60.1671C151.073 60.1671 151.231 60.1504 151.389 60.1338C151.389 60.1338 151.389 60.1338 151.548 60.1171C151.706 60.1005 151.864 60.0838 152.006 59.9089L152.164 59.8923C152.322 59.8756 152.622 59.6841 152.781 59.6674C152.781 59.6674 152.781 59.6674 152.939 59.6508C153.255 59.6174 153.555 59.4259 153.872 59.3926C155.721 58.718 158.17 57.6605 161.061 56.2365C161.678 56.0117 162.119 55.6453 162.736 55.4204C163.336 55.0374 163.952 54.8125 164.552 54.4295C166.968 53.0555 169.509 51.3485 172.017 49.3251C179.699 43.2383 186.749 34.1791 187.953 21.257C187.896 19.1839 186.638 17.8768 185.056 18.0434Z" fill="#FF6635"/>
<path d="M129.602 44.6677C128.653 44.7676 128.086 45.4671 128.185 46.4163C128.285 47.3655 128.985 47.9316 129.934 47.8316C143.07 46.4485 152.562 34.7326 151.184 21.602L148.019 21.9353C149.214 33.3257 140.839 43.4845 129.602 44.6677Z" fill="#FFD850"/>
<path d="M146.354 66.9064C142.396 67.3238 139.178 70.2222 138.118 73.8528C136.61 73.212 134.66 72.9377 132.602 73.1547C131.652 73.2549 131.085 73.9545 131.184 74.9037C131.284 75.8528 131.983 76.4189 132.933 76.3187C134.042 76.2019 134.85 76.2766 135.5 76.368C130.374 77.8681 127.048 81.2578 127.429 84.8963C127.528 85.8455 128.228 86.4115 129.178 86.3114C130.128 86.2112 130.695 85.5116 130.596 84.5625C130.38 82.5059 133.315 79.9573 138.015 78.9819L140.501 102.712C140.6 103.661 141.3 104.227 142.25 104.127C143.2 104.026 143.767 103.327 143.668 102.378L141.015 77.066C140.651 73.5857 143.202 70.4376 146.686 70.0704C147.636 69.9702 148.203 69.2707 148.103 68.3215C148.004 67.3723 147.146 66.823 146.354 66.9064Z" fill="#FFD850"/>
<path d="M144.012 75.1508C143.06 75.251 142.493 75.9507 142.592 76.9001L145.248 102.217C145.347 103.166 146.048 103.732 146.999 103.632C147.95 103.532 148.518 102.832 148.419 101.883L145.763 76.5662C145.663 75.6168 144.804 75.0674 144.012 75.1508Z" fill="#FFD850"/>
<path d="M94.971 68.9745C94.8694 66.8337 93.1738 65.1304 91.0251 65.0288C87.3448 64.8491 80.6875 65.3648 77.3823 70.8028C77.2339 71.0528 77.1792 71.3419 77.2339 71.6309C77.2651 71.7794 77.9059 75.0375 80.2578 78.0846L79.1639 79.1785C78.0543 78.3346 76.7651 77.7799 75.3742 77.5455C74.7335 77.4439 74.1318 77.8737 74.0303 78.5143C73.9287 79.155 74.3584 79.7566 74.9992 79.8582C75.9056 80.0067 76.7494 80.3426 77.4917 80.8505L75.5852 82.7569C74.4756 81.9131 73.1864 81.3583 71.7955 81.1239C71.1548 81.0224 70.5532 81.4521 70.4516 82.0928C70.35 82.7335 70.7798 83.3351 71.4205 83.4366C72.3269 83.5851 73.1708 83.9211 73.9131 84.4289L72.0143 86.3275C70.9048 85.4837 69.6155 84.929 68.2247 84.6946C67.584 84.593 66.9823 85.0227 66.8807 85.6634C66.7792 86.3041 67.2089 86.9057 67.8496 87.0073C68.756 87.1557 69.5999 87.4917 70.3422 87.9995L68.6154 89.7262C67.1698 88.6324 65.4196 88.0464 63.5833 88.0464C61.3486 88.0464 59.2467 88.9137 57.6606 90.4997L55.3399 92.8202C54.8867 93.2812 54.8867 94.0235 55.3399 94.4766C56.9183 96.0549 59.028 96.93 61.2627 96.93C61.9659 96.93 62.6613 96.844 63.3255 96.6721C63.1536 97.3363 63.0676 98.0316 63.0676 98.7348C63.0676 100.969 63.935 103.071 65.5211 104.657C65.9743 105.11 66.7245 105.118 67.1777 104.657L69.4905 102.344C71.0689 100.766 71.944 98.6645 71.944 96.4221C71.944 94.586 71.3502 92.8281 70.2641 91.3904L71.9909 89.6637C72.4988 90.406 72.8348 91.2498 72.9832 92.1561C73.0848 92.7812 73.6708 93.2265 74.3272 93.125C74.9679 93.0234 75.3977 92.4218 75.2961 91.7811C75.0695 90.3904 74.5069 89.1012 73.663 87.9917L75.5461 86.1087C76.054 86.851 76.39 87.6948 76.5385 88.6011C76.64 89.234 77.2339 89.6715 77.8824 89.57C78.5231 89.4684 78.9529 88.8668 78.8513 88.2261C78.6247 86.8354 78.0621 85.5462 77.2183 84.4367L79.1248 82.5303C79.6327 83.2726 79.9687 84.1164 80.1171 85.0227C80.2109 85.6009 80.711 86.0072 81.2736 86.0072C81.3361 86.0072 81.3986 85.9994 81.4611 85.9915C82.1018 85.89 82.5316 85.2884 82.43 84.6477C82.2034 83.2569 81.6486 81.9678 80.7969 80.8583L81.8909 79.7645C84.7585 81.9756 88.0949 82.8038 88.5638 82.8038C88.7747 82.8038 88.9857 82.7491 89.1732 82.6319C94.6428 79.3113 95.1507 72.6467 94.971 68.9745ZM88.8919 72.2794C88.2434 72.2794 87.7199 71.756 87.7199 71.1075C87.7199 70.459 88.2434 69.9355 88.8919 69.9355C89.5405 69.9355 90.064 70.459 90.064 71.1075C90.064 71.756 89.5405 72.2794 88.8919 72.2794Z" fill="white"/>
</svg>
