<svg width="189" height="103" viewBox="0 0 189 103" fill="none" xmlns="http://www.w3.org/2000/svg">
<path d="M8.05664 30.4745C5.54883 30.4745 3.62695 29.7128 2.29102 28.1894C0.955078 26.6542 0.287109 24.6093 0.287109 22.0546V9.01166C0.287109 6.36322 0.931641 4.27728 2.2207 2.75385C3.52148 1.23041 5.4668 0.468689 8.05664 0.468689C10.6348 0.468689 12.5742 1.23627 13.875 2.77142C15.1758 4.29486 15.8262 6.37494 15.8262 9.01166V22.0546C15.8262 24.5976 15.1523 26.6367 13.8047 28.1718C12.4688 29.707 10.5527 30.4745 8.05664 30.4745ZM8.05664 25.6054C9.47461 25.6054 10.1836 24.3808 10.1836 21.9316V9.15228C10.1836 8.64838 10.166 8.22064 10.1309 7.86908C10.0957 7.51752 10.0137 7.12494 9.88477 6.69135C9.75586 6.25775 9.53906 5.92377 9.23438 5.68939C8.92969 5.45502 8.53711 5.33783 8.05664 5.33783C7.72852 5.33783 7.44141 5.39642 7.19531 5.51361C6.94922 5.61908 6.75 5.77728 6.59766 5.98822C6.45703 6.19916 6.33984 6.42181 6.24609 6.65619C6.15234 6.87885 6.08203 7.15424 6.03516 7.48236C6 7.81049 5.97656 8.09174 5.96484 8.32611C5.95312 8.54877 5.94727 8.82416 5.94727 9.15228V21.9316C5.94727 24.3808 6.65039 25.6054 8.05664 25.6054Z" fill="#D4F54D"/>
<path d="M22.0763 18.8378H26.3653V6.58588L22.0763 18.8378ZM26.3653 29.9999V23.1093H17.629V18.5566L25.1173 0.855408H31.4454V18.8378H34.3458V23.1093H31.4454V29.9999H26.3653Z" fill="#D4F54D"/>
<path fill-rule="evenodd" clip-rule="evenodd" d="M161.82 61.3003L168.635 90.7324L161.82 61.3003L168.635 90.7324L113.278 76.0851L102.144 102L81.2135 89.0957L56.6348 81.4453L65.4485 61.3003L81.7036 52.2522L59.7481 4.99994L102.144 52.218L140.444 10.4407L161.847 34.8729L161.82 61.3003Z" fill="#D4F54D"/>
<path d="M84 11.5333C85.5882 13.1333 88.2353 15.8 89.8235 17.4C90.6176 18.2 90.8824 18.4667 90.8824 18.4667C90.8824 18.4667 89.2941 20.3333 88.5 21.1333C87.7059 21.9333 89.0294 21.9333 89.0294 21.9333L98.8235 23C98.8235 23 99.6176 23 99.6176 22.2C99.6176 21.1333 98.2941 12.0667 98.2941 12.0667C98.2941 12.0667 98.2941 10.7333 97.5 11.5333C96.7059 12.3333 95.3824 13.9333 95.3824 13.9333C95.3824 13.9333 94.8529 13.4 94.3235 12.8667C92.7353 11.2667 90.0882 8.6 88.5 7C87.7059 9.13333 86.1176 11 84 11.5333Z" fill="white"/>
<path d="M104.912 37.6667C104.912 37.6667 104.912 39 105.706 38.2C106.5 37.4 108.088 35.8 108.088 35.8C108.088 35.8 108.353 36.0667 109.147 36.8667C110.735 38.4667 113.647 41.4 115.235 43C116.029 40.8667 117.882 39.2667 120 38.7333C118.412 37.1333 115.235 33.9333 113.647 32.3333C112.853 31.5333 112.588 31.2667 112.588 31.2667C112.588 31.2667 114.441 29.4 115.235 28.6C116.029 27.8 114.706 27.8 114.706 27.8L104.382 27C104.382 27 103.588 27 103.588 27.8C103.588 28.8667 104.912 37.6667 104.912 37.6667Z" fill="white"/>
<path d="M88.5 43C90.0882 41.4 93 38.4667 94.8529 36.6C95.6471 35.8 95.9118 35.5333 95.9118 35.5333C95.9118 35.5333 97.7647 37.4 98.5588 38.2C99.3529 39 99.3529 37.6667 99.3529 37.6667L100.412 27.8C100.412 27.8 100.412 27 99.6176 27C98.2941 26.7333 89.2941 28.0667 89.2941 28.0667C89.2941 28.0667 87.9706 28.0667 88.7647 28.8667C89.5588 29.6667 91.1471 31.2667 91.1471 31.2667C91.1471 31.2667 90.8824 31.8 90.3529 32.3333C88.7647 33.9333 85.5882 37.1333 84 38.7333C86.1176 39.2667 87.7059 40.8667 88.5 43Z" fill="white"/>
<path d="M120 11.5333C118.412 13.1333 115.765 15.8 114.176 17.4C113.382 18.2 113.118 18.4667 113.118 18.4667C113.118 18.4667 114.971 20.3333 115.765 21.1333C116.559 21.9333 115.235 21.9333 115.235 21.9333L104.912 22.7333C104.912 22.7333 104.118 22.7333 104.118 21.9333C104.118 20.8667 105.441 11.8 105.441 11.8C105.441 11.8 105.441 10.4667 106.235 11.2667C107.294 12.3333 108.618 13.9333 108.618 13.9333C108.618 13.9333 108.882 13.6667 109.676 12.8667C111.265 11.5333 113.647 8.86667 115.235 7.26667C116.029 9.13333 117.882 10.7333 120 11.5333Z" fill="white"/>
<path d="M134.453 90.8311V102.147H182.544L188.202 96.4889V90.8311H134.453Z" fill="#FFD850"/>
<path d="M134.452 44.1538H188.202V90.831H134.452V44.1538Z" fill="white"/>
<path d="M188.202 44.1538V27.1803L182.544 20.108H140.11L134.452 27.1803V44.1538H188.202Z" fill="#FFD850"/>
<path d="M172.643 44.1539C172.643 50.3952 167.568 55.4696 161.327 55.4696C155.086 55.4696 150.011 50.3952 150.011 44.1539C150.011 37.9126 155.086 32.8383 161.327 32.8383C167.568 32.8383 172.643 37.9126 172.643 44.1539Z" fill="#FABD20"/>
<path d="M162.741 69.6141H176.886V72.4431H162.741V69.6141Z" fill="#F5F4F7"/>
<path d="M147.665 69.6141H160.395V72.4431H147.665V69.6141Z" fill="#F5F4F7"/>
<path d="M159.913 63.9563H169.814V66.7852H159.913V63.9563Z" fill="#F5F4F7"/>
<path d="M151.525 63.9563H155.769V66.7852H151.525V63.9563Z" fill="#F5F4F7"/>
<path d="M154.254 75.272H168.399V78.1009H154.254V75.272Z" fill="#F5F4F7"/>
<path d="M162.741 102.147L139.12 74.5824C137.953 73.2209 136.238 72.443 134.452 72.443C132.667 72.443 130.951 73.2209 129.785 74.5824L106.163 102.147H162.741Z" fill="#F5CC7D"/>
<path d="M117.479 95.0745H121.722V97.9034H117.479V95.0745Z" fill="#E6A565"/>
<path d="M124.551 92.2456H128.795V95.0745H124.551V92.2456Z" fill="#E6A565"/>
<path d="M124.551 85.1733H128.794V88.0023H124.551V85.1733Z" fill="#E6A565"/>
<path d="M140.11 95.0745H144.354V97.9034H140.11V95.0745Z" fill="#E6A565"/>
<path d="M138.696 85.1731H142.939V88.002H138.696V85.1731Z" fill="#E6A565"/>
<path d="M133.038 78.1008H137.281V80.9297H133.038V78.1008Z" fill="#E6A565"/>
<path d="M145.769 90.8311H150.012V93.66H145.769V90.8311Z" fill="#E6A565"/>
</svg>
