<svg width="184" height="103" viewBox="0 0 184 103" fill="none" xmlns="http://www.w3.org/2000/svg">
<path fill-rule="evenodd" clip-rule="evenodd" d="M154.033 25.6828L154.895 43.1566L154.033 25.6828L154.895 43.1566L169 57.4655L158.014 72.7616L157.58 92.8373L136.326 93.6292L121.674 93.7109L108.523 94.2152L88.6544 102L88.1646 79.2255L57.085 77.1969L79.4099 56.2836L73.0653 40.5706L57 6L94.0647 17.7366L108.905 13.4321L121.286 28.506L139.853 16.6718L154.033 25.6828Z" fill="#D4F54D"/>
<path d="M165.644 57.6797C164.889 56.3855 163.235 55.9361 161.959 56.6911L145.908 63.7371C144.847 64.7976 144.847 66.5051 145.908 67.5476L153.96 75.6002C156.081 77.7212 159.047 78.4402 161.815 77.7032C164.583 76.9663 166.704 74.9172 167.459 72.1851C168.825 67.332 168.16 62.0295 165.644 57.6797Z" fill="#8F8F8F"/>
<path d="M136.417 28.2195C131.869 25.3796 126.315 24.6066 121.139 26.0985C118.478 26.8714 116.483 28.9565 115.782 31.6886C115.063 34.4926 115.872 37.5123 117.903 39.5434L126.387 48.0274C127.448 49.0879 129.155 49.0879 130.198 48.0274L137.262 31.9402C138.053 30.682 137.675 29.0104 136.417 28.2195Z" fill="#AFAFAF"/>
<path d="M124.554 69.5608C119.701 65.193 116.843 60.7173 109.887 60.6634C104.333 60.5556 98.5088 63.8988 91.7684 70.5853C90.7439 71.6638 90.7439 73.3893 91.7684 74.4139C97.8078 80.4533 103.2 83.3652 108.215 83.3652C109.078 83.3652 109.941 83.3112 111.127 83.0416C110.696 84.4975 110.48 85.9535 110.48 87.3555C110.534 93.4488 114.794 97.547 117.867 100.513C121.39 104.036 122.181 102.256 124.877 99.7579C128.544 96.3607 133.074 92.1547 133.182 85.9535C133.289 79.5905 128.976 74.2521 124.554 69.5608Z" fill="#AFAFAF"/>
<path d="M117.867 100.513C121.39 104.036 122.181 102.256 124.877 99.7579C128.544 96.3607 133.074 92.1547 133.182 85.9535C133.289 79.5906 128.976 74.2522 124.554 69.5608C124.536 69.5428 124.518 69.5249 124.482 69.5069L110.893 83.0956C110.965 83.0776 111.037 83.0596 111.109 83.0417C110.678 84.4976 110.462 85.9535 110.462 87.3555C110.534 93.4489 114.794 97.5471 117.867 100.513Z" fill="#8F8F8F"/>
<path d="M179.628 44.3426C173.696 59.6569 158.31 68.698 123.206 74.7914C121.372 75.1149 119.323 73.3175 119.647 71.2324C125.632 36.7754 134.008 20.886 148.837 14.7387L158.813 18.5133L166.47 27.5185L172.671 34.7982L179.628 44.3426Z" fill="#EEEEEE"/>
<path d="M123.206 74.7914C158.31 68.698 173.696 59.6569 179.628 44.3426L172.672 34.7982L166.471 27.5186L120.348 73.641C121.067 74.4858 122.164 74.9711 123.206 74.7914Z" fill="#D1D1D1"/>
<path d="M183.025 19.0526C183.025 25.1999 182.755 31.6707 181.515 37.6562C181.029 39.9209 180.436 42.1857 179.627 44.3427C170.137 47.3624 161.24 44.5583 155.254 38.7885C149.269 32.9109 146.249 23.9057 148.837 14.7387C150.94 13.8759 153.151 13.2289 155.416 12.6896C161.617 11.2876 168.465 10.9102 174.882 10.9641C177.093 10.9641 179.142 11.8808 180.598 13.3367C182.054 14.7926 182.971 16.8417 183.025 19.0526Z" fill="#D0D0D0"/>
<path d="M155.254 38.7886C161.24 44.5584 170.137 47.3624 179.628 44.3427C180.436 42.1858 181.03 39.921 181.515 37.6562C182.755 31.6707 183.025 25.1999 183.025 19.0526C182.971 16.8598 182.072 14.8107 180.616 13.3547L155.218 38.7706C155.236 38.7706 155.236 38.7886 155.254 38.7886Z" fill="#AFAFAF"/>
<path d="M159.73 51.2988C159.029 52.6469 157.411 53.1322 156.117 52.4851C152.936 50.8674 150.078 48.8183 147.651 46.3918C145.117 43.9113 143.014 41.1073 141.342 38.0876C140.641 36.7934 141.126 35.1757 142.421 34.4208C143.715 33.7198 145.386 34.2051 146.087 35.4992C147.543 38.1415 149.323 40.5141 151.48 42.5632C153.529 44.6123 155.901 46.3378 158.544 47.6859C159.892 48.3869 160.431 50.0046 159.73 51.2988Z" fill="#AFAFAF"/>
<path d="M147.651 46.3919C150.078 48.8184 152.936 50.8675 156.117 52.4852C157.411 53.1323 159.029 52.647 159.73 51.2989C160.431 50.0047 159.892 48.387 158.544 47.686C155.901 46.3379 153.529 44.6124 151.48 42.5633C151.462 42.5453 151.462 42.5453 151.444 42.5273L147.615 46.3739C147.633 46.3739 147.633 46.3919 147.651 46.3919Z" fill="#AFAFAF"/>
<path d="M164.529 27.86C166.018 27.86 167.225 26.6529 167.225 25.1639C167.225 23.6748 166.018 22.4677 164.529 22.4677C163.04 22.4677 161.833 23.6748 161.833 25.1639C161.833 26.6529 163.04 27.86 164.529 27.86Z" fill="#151516"/>
<path d="M52.9004 35.0281C54.0879 35.2953 54.9637 35.711 55.6317 36.1934C58.5486 35.3844 61.9182 35.0578 65.1097 35.3695C61.8737 31.718 57.3759 31.2801 52.7742 32.8832C51.6609 33.2692 51.8093 34.8129 52.9004 35.0281Z" fill="#F5F4F7"/>
<path d="M48.1725 55.134C50.3843 53.2043 52.9004 52.759 55.6614 53.8203C58.222 54.8371 62.4155 56.032 66.2378 56.6481C65.9632 56.2176 65.9632 56.2102 65.9409 56.1805C64.9093 54.3918 62.653 49.7383 63.9147 45.2703C64.6644 42.6356 66.4828 40.5203 69.3328 38.9766C69.3551 38.9617 69.3551 38.9692 69.8153 38.7094C66.3417 37.4031 62.3858 37.2102 58.7341 37.8039C55.4313 38.3309 53.702 39.1695 52.084 40.2383C44.2092 45.4336 41.9603 52.477 43.415 58.3922C45.1146 65.3242 52.225 69.6586 52.5293 69.8441C52.7 69.948 52.893 70 53.1082 70C53.4199 70 55.3794 69.9332 56.7376 68.3301C57.94 66.9125 58.2814 64.8121 57.7544 62.0734C57.6208 61.3758 56.8712 60.975 56.2106 61.2645C56.1958 61.2719 54.3477 62.066 52.0914 61.9844C49.3823 61.8805 47.2596 60.5816 45.7604 58.1102C46.1537 57.4422 46.9627 56.1953 48.1725 55.134Z" fill="#F5F4F7"/>
<path d="M80.9855 54.3918C80.0057 48.0164 77.2151 42.784 72.2942 39.8969C69.7039 41.3145 70.5946 40.8246 70.4016 40.9359C68.0933 42.1828 66.6312 43.8527 66.0597 45.8863C65.028 49.5231 66.9652 53.4938 67.8633 55.0524L69.1102 57.0191C72.8286 57.3606 76.6955 57.1527 79.9538 55.7574C80.3397 55.5941 80.6144 55.4977 80.8296 55.1637C80.9706 54.9336 81.03 54.659 80.9855 54.3918ZM72.695 48.5582C72.0493 48.5582 71.5743 48.0461 71.5743 47.4449C71.5743 46.8438 72.0567 46.3317 72.695 46.3317C73.3111 46.3317 73.8083 46.8289 73.8083 47.4449C73.8083 48.0609 73.3111 48.5582 72.695 48.5582Z" fill="#F5F4F7"/>
<path d="M8.42188 30.4746C5.91406 30.4746 3.99219 29.7129 2.65625 28.1895C1.32031 26.6543 0.652344 24.6094 0.652344 22.0547V9.01172C0.652344 6.36328 1.29688 4.27734 2.58594 2.75391C3.88672 1.23047 5.83203 0.46875 8.42188 0.46875C11 0.46875 12.9395 1.23633 14.2402 2.77148C15.541 4.29492 16.1914 6.375 16.1914 9.01172V22.0547C16.1914 24.5977 15.5176 26.6367 14.1699 28.1719C12.834 29.707 10.918 30.4746 8.42188 30.4746ZM8.42188 25.6055C9.83984 25.6055 10.5488 24.3809 10.5488 21.9316V9.15234C10.5488 8.64844 10.5312 8.2207 10.4961 7.86914C10.4609 7.51758 10.3789 7.125 10.25 6.69141C10.1211 6.25781 9.9043 5.92383 9.59961 5.68945C9.29492 5.45508 8.90234 5.33789 8.42188 5.33789C8.09375 5.33789 7.80664 5.39648 7.56055 5.51367C7.31445 5.61914 7.11523 5.77734 6.96289 5.98828C6.82227 6.19922 6.70508 6.42188 6.61133 6.65625C6.51758 6.87891 6.44727 7.1543 6.40039 7.48242C6.36523 7.81055 6.3418 8.0918 6.33008 8.32617C6.31836 8.54883 6.3125 8.82422 6.3125 9.15234V21.9316C6.3125 24.3809 7.01562 25.6055 8.42188 25.6055Z" fill="#D4F54D"/>
<path d="M24.3927 30V6.69141L20.0509 8.18555V4.03711C21.0352 3.63867 22.0899 3.14648 23.2149 2.56055C24.3516 1.97461 25.1661 1.40625 25.6583 0.855469H29.9649V30H24.3927Z" fill="#D4F54D"/>
</svg>
