<svg width="146" height="129" viewBox="0 0 146 129" fill="none" xmlns="http://www.w3.org/2000/svg">
<path d="M42.1677 113.664C42.1677 113.664 41.7143 113.664 41.7143 114.115C41.7143 114.566 41.2609 115.469 40.8075 115.92C40.8075 116.371 40.8075 116.371 41.2609 116.371C41.2609 115.469 41.7143 115.017 42.1677 115.017C42.1677 114.566 42.1677 114.566 42.1677 114.115C42.6211 114.115 42.6211 113.664 42.1677 113.664Z" fill="#5745FF"/>
<path d="M28.5652 82.0909C28.1118 81.6399 28.5652 81.6399 27.6584 81.1888C27.6584 81.6399 27.205 81.6399 27.205 82.0909L27.6584 82.542C28.5652 82.542 28.5652 82.542 28.5652 82.0909Z" fill="#5745FF"/>
<path d="M51.6894 109.154C52.1429 108.703 52.1429 108.703 52.1429 108.252H51.6894C51.236 108.703 51.236 108.703 51.6894 109.154Z" fill="#5745FF"/>
<path d="M50.3292 103.29C50.3292 103.29 49.8758 103.29 49.8758 102.839C49.4224 102.839 48.9689 103.29 48.5155 103.29C48.9689 103.741 49.4224 103.741 50.3292 103.741C50.3292 103.741 50.3292 103.741 50.3292 103.29Z" fill="#5745FF"/>
<path d="M46.2484 109.605H45.795C45.3416 110.056 45.3416 110.056 45.3416 110.507C45.3416 110.507 45.795 110.507 45.795 110.958C45.795 110.958 46.2484 110.958 46.2484 110.507V109.605Z" fill="#5745FF"/>
<path d="M65.7453 11.2762V10.8252C65.7453 10.8252 65.2919 10.8252 65.2919 10.3741C64.8385 10.3741 64.8385 10.8252 64.3851 10.8252V11.2762C64.8385 11.2762 64.8385 11.2762 65.2919 11.7273L65.7453 11.2762Z" fill="#5745FF"/>
<path d="M31.2857 93.3671C31.2857 92.9161 31.7391 92.9161 30.8323 92.9161C30.8323 92.9161 30.8323 92.9161 30.3789 92.9161C30.3789 92.9161 30.3789 92.9161 30.3789 93.3671C30.3789 93.3671 30.3789 93.3671 30.3789 93.8182C30.8323 93.3671 30.8323 93.3671 31.2857 93.3671Z" fill="#5745FF"/>
<path d="M34.913 114.115C35.3665 112.762 36.2733 112.311 36.7267 110.958C37.1801 110.958 37.1801 110.958 37.6335 110.507C38.087 110.958 38.5404 111.409 38.5404 112.311C38.5404 112.311 38.9938 112.311 38.9938 112.762C39.9006 112.311 40.354 110.507 41.2609 110.507C41.7143 110.056 41.2609 109.605 41.2609 109.154C42.1677 108.703 42.1677 108.252 43.528 108.252C45.3416 106.899 44.8882 103.741 48.5155 103.741C48.5155 103.29 48.5155 103.29 48.0621 102.839C49.4224 101.937 49.8758 100.584 51.6894 100.133C53.5031 99.6818 54.8634 101.486 56.2236 99.6818C55.7702 99.2308 54.8634 98.7797 54.4099 98.3287C54.4099 98.3287 54.4099 97.8776 53.9565 97.8776C54.8634 97.4266 55.3168 96.5245 56.2236 96.0734C56.677 96.0734 57.5839 96.5245 58.0373 96.5245C58.9441 96.0734 58.9441 95.6224 60.3043 95.6224L60.7578 96.0734L54.4099 102.839C54.8634 103.741 55.3168 103.29 55.7702 104.192C55.7702 104.192 55.7702 104.192 56.2236 104.192C57.1304 103.29 57.5839 101.937 58.0373 100.133C58.9441 99.6818 58.9441 100.133 59.8509 100.133C60.7578 99.2308 61.6646 98.7797 62.5714 97.8776C62.5714 97.4266 62.118 97.4266 62.118 96.9755C62.118 96.9755 62.5714 96.9755 62.5714 96.5245C63.0248 96.9755 63.4783 96.9755 63.9317 97.4266C64.3851 96.9755 64.3851 96.0734 64.8385 95.6224C66.1988 94.2692 68.0124 93.3671 69.3727 92.014C69.8261 91.5629 69.8261 90.2098 70.2795 90.2098C70.7329 90.2098 71.1863 89.7588 71.6398 89.7588C73 88.8567 72.5466 87.0525 74.3602 86.6014C74.3602 86.1504 74.8137 85.6993 74.8137 85.2483C77.0807 84.3462 78.441 84.3462 79.3478 81.6399C83.4286 80.7378 83.882 76.6783 86.6025 74.8741C87.0559 74.8741 87.9627 74.4231 88.4162 74.4231C89.7764 73.972 90.2298 71.7168 91.5901 70.8147C95.2174 68.5594 103.832 62.2448 105.193 58.6364C107.913 57.7343 110.18 55.9301 111.994 54.1259C111.994 53.6748 111.994 53.6748 111.54 53.2238C111.087 52.7727 110.634 52.7727 110.18 52.7727C110.18 52.3217 110.18 52.3217 109.727 51.8706C111.087 50.9685 113.354 50.5175 115.168 50.9685C115.621 50.5175 116.075 49.6154 116.981 49.1643C117.435 49.1643 118.795 46.9091 119.248 46.458C119.702 46.007 122.422 45.556 122.876 45.1049C122.876 44.6539 122.876 44.6539 122.876 43.7518C124.689 42.8497 126.05 43.3007 127.863 41.9476C128.77 41.4965 128.317 40.1434 129.224 39.6923C131.037 38.7902 132.851 39.2413 132.851 36.986C133.758 36.535 134.211 36.535 135.118 36.535C136.478 34.7308 139.652 34.2797 140.559 32.4755C141.012 32.0245 140.559 31.5734 140.106 31.5734C138.745 31.1224 137.385 32.0245 136.025 32.4755V32.0245C136.932 31.5734 137.385 31.1224 137.839 30.2203C138.292 29.3182 137.385 27.514 136.932 26.6119C136.478 26.6119 136.478 26.6119 136.025 26.6119C135.571 27.0629 134.665 27.0629 133.758 27.0629C132.851 28.8671 130.584 31.5734 128.317 32.4755C128.317 32.9266 128.317 32.9266 128.317 33.3776L127.863 33.8287C126.957 33.3776 126.503 33.3776 125.596 32.9266C125.143 33.3776 125.143 33.8287 124.689 34.2797C124.236 34.7308 123.783 34.2797 123.329 34.2797C122.876 35.1818 117.888 40.1434 116.981 40.5944C116.528 40.5944 115.621 40.5944 115.168 41.0455C115.168 41.0455 115.168 41.0455 114.714 41.0455C114.714 41.9476 114.714 41.4965 115.168 41.9476V42.3986C113.807 43.3007 112.447 42.8497 110.634 43.7518C110.18 44.2028 110.18 44.6539 109.727 45.1049C109.273 45.556 108.82 45.1049 108.366 45.1049C107.46 45.556 107.006 46.458 106.099 46.9091C106.553 47.8112 107.006 47.3601 107.006 48.7133C106.553 48.7133 106.099 49.1643 105.646 49.1643C105.193 49.6154 105.193 49.6154 105.193 50.0664C104.286 50.5175 103.379 50.5175 102.472 50.9685C102.019 50.9685 102.019 50.0664 100.658 50.5175C99.2981 50.9685 97.9379 52.7727 97.0311 53.6748C97.0311 54.5769 97.4845 54.5769 97.4845 55.028C97.0311 55.479 96.5776 55.9301 96.1242 56.3811C95.6708 55.9301 95.6708 55.479 94.764 55.479C92.9503 55.479 91.5901 57.7343 90.2298 58.6364C89.323 59.5385 87.5093 59.9895 86.6025 60.4406C86.1491 59.9895 86.1491 59.9895 86.1491 59.5385C85.6957 59.5385 85.2422 59.5385 84.7888 59.9895C84.3354 60.4406 84.3354 60.4406 83.882 60.8916V61.3427C84.3354 60.8916 84.7888 60.8916 85.2422 60.4406C86.1491 61.3427 85.2422 63.1469 84.3354 63.1469C84.3354 63.1469 84.3354 63.1469 83.882 63.5979C83.4286 63.1469 83.882 62.6958 83.4286 62.2448H82.9752C81.6149 61.7937 79.3478 64.049 78.8944 65.4021C78.8944 65.4021 78.8944 65.4021 78.441 65.4021C77.9876 64.9511 77.9876 64.5 77.5342 64.5C76.1739 65.4021 77.0807 66.7552 76.6273 68.1084C76.1739 69.4615 73.9068 70.8147 72.5466 71.2657C71.6398 71.2657 71.1863 70.8147 70.2795 70.8147C69.8261 71.7168 69.3727 76.2273 68.0124 76.2273C67.559 76.2273 66.6522 75.7762 66.1988 75.7762C65.2919 76.6783 64.3851 77.5804 63.9317 78.9336C63.0248 79.3846 62.118 79.8357 61.6646 80.2867C61.2112 81.1888 61.2112 82.993 59.8509 83.4441C59.3975 83.4441 58.9441 82.993 58.0373 82.993C57.5839 82.542 57.5839 82.542 57.1304 82.0909C56.677 82.993 55.7702 83.8951 55.3168 85.2483C54.4099 85.6993 53.5031 86.6014 52.5963 87.0525C52.1429 87.5035 51.6894 87.9546 51.6894 88.8567C51.236 88.8567 50.3292 89.3077 49.8758 89.3077C48.0621 91.1119 47.6087 94.2692 44.8882 95.1713C43.9814 94.7203 43.528 94.2692 43.0745 95.1713C43.528 95.6224 43.528 95.6224 43.9814 96.0734C43.528 96.5245 43.528 96.5245 43.0745 96.9755C43.0745 96.5245 42.6211 96.5245 42.6211 96.0734H42.1677C42.1677 96.0734 42.1677 96.0734 41.7143 96.5245C41.7143 96.9755 42.1677 96.9755 42.6211 97.4266C41.7143 100.584 41.2609 98.3287 39.4472 98.7797C38.087 99.6818 37.6335 101.937 36.7267 103.29C35.8199 103.29 35.3665 102.839 34.4596 102.839C33.5528 103.741 32.646 104.643 32.646 106.448C31.7391 106.899 30.8323 106.899 29.9255 107.35C29.472 107.801 29.472 108.252 29.0186 109.154C28.5652 109.605 25.3913 111.86 24.9379 112.311C23.5776 113.213 21.3106 113.664 19.4969 114.566C18.5901 114.115 18.1366 113.664 16.7764 114.115C17.6832 115.469 16.7764 116.371 15.8696 117.273H15.4162C14.9627 116.822 15.4161 115.469 14.9627 114.566C14.5093 114.566 13.6025 114.566 13.1491 114.566C12.6957 115.469 11.7888 116.371 11.3354 117.724C11.3354 118.175 11.7888 118.626 11.7888 118.626C12.2422 119.979 10.882 124.49 13.6025 124.038C15.4161 123.587 16.7764 122.234 18.1366 121.783C18.5901 121.783 19.4969 122.234 19.9503 122.234C21.764 121.783 22.6708 119.528 24.0311 118.626C25.8447 117.724 27.6584 116.371 29.472 115.92C29.472 115.92 29.9255 115.92 29.9255 116.371C29.9255 116.822 29.9255 117.273 29.9255 118.175C29.472 118.626 29.0186 119.077 28.5652 119.077C28.1118 119.528 28.1118 119.979 27.6584 119.979C27.6584 119.979 27.6584 119.979 28.1118 120.43C30.3789 119.979 31.7391 118.175 33.5528 117.724C35.3665 115.469 34.913 115.017 34.913 114.115ZM134.211 33.3776C134.665 33.3776 134.665 33.3776 135.118 33.3776C135.118 33.3776 135.571 33.3776 135.571 33.8287C135.571 34.2797 135.118 34.7308 135.118 35.1818L134.665 35.6329H134.211C133.304 34.7308 133.758 34.2797 134.211 33.3776ZM131.491 36.0839C131.944 36.0839 131.944 36.0839 131.944 36.535C131.491 36.986 131.491 37.4371 131.491 38.3392C130.584 38.3392 130.13 38.7902 129.677 38.7902C128.77 38.7902 128.77 38.3392 127.863 38.3392C127.863 38.3392 127.863 38.3392 127.863 37.8881C128.77 36.535 129.677 37.4371 131.491 36.0839ZM116.981 41.9476C116.981 41.9476 117.435 41.9476 117.435 41.4965H117.888L118.342 41.9476C117.888 42.8497 117.888 42.8497 116.981 42.8497C116.981 42.8497 116.981 42.8497 116.981 41.9476C116.981 42.3986 116.981 42.3986 116.981 41.9476ZM109.727 45.556C109.727 45.1049 110.18 45.1049 110.18 45.1049C110.18 45.1049 110.18 45.1049 110.634 45.556C110.634 46.458 110.18 46.9091 110.18 47.8112C109.727 47.8112 109.727 48.2622 109.273 48.2622C108.82 47.8112 108.366 47.3601 107.913 46.9091C108.366 46.458 108.82 46.458 109.727 45.556ZM102.019 55.479H102.472C102.472 55.479 102.472 55.479 102.472 55.9301C102.472 55.9301 102.472 55.9301 102.472 56.3811C102.019 56.8322 101.112 56.8322 100.658 57.2832C100.658 57.2832 100.658 56.8322 100.205 56.8322C101.112 55.9301 101.565 55.9301 102.019 55.479ZM88.4162 60.8916C88.4162 61.3427 88.4162 61.3427 88.4162 61.7937C88.4162 61.3427 88.4162 60.8916 88.4162 60.8916ZM63.9317 93.8182C63.4783 93.8182 63.0248 94.2692 62.5714 94.2692C62.5714 93.8182 62.5714 93.8182 62.5714 93.3671C62.5714 92.9161 63.0248 92.9161 63.0248 92.465H63.4783C63.9317 92.9161 64.3851 92.9161 63.9317 93.8182ZM66.1988 78.4825H66.6522C66.6522 78.9336 66.6522 78.9336 66.6522 79.3846C66.6522 79.3846 66.1988 79.3846 66.1988 79.8357V79.3846C66.1988 78.9336 66.1988 78.4825 66.1988 78.4825ZM66.6522 85.6993C67.559 86.1504 67.1056 86.1504 67.1056 86.6014C68.0124 86.1504 68.4658 85.6993 68.9193 84.7972C69.3727 84.7972 69.3727 85.2483 69.8261 85.2483C70.2795 86.6014 68.9193 87.0525 68.0124 87.9546C67.559 87.9546 65.2919 87.0525 64.8385 86.1504C65.7453 86.6014 66.1988 86.1504 66.6522 85.6993ZM62.118 90.2098C62.5714 90.2098 63.0248 90.6609 63.4783 90.6609C64.3851 90.6609 65.2919 89.7587 65.7453 89.3077C66.1988 89.3077 66.6522 89.3077 66.6522 89.3077L67.1056 89.7588C66.1988 90.6608 65.7453 91.1119 64.8385 92.014C62.118 91.5629 62.5714 91.1119 60.3043 92.465C60.3043 92.465 60.3043 92.014 59.8509 92.014C60.7578 91.1119 61.2112 90.6609 62.118 90.2098ZM52.5963 89.3077C52.5963 89.3077 53.0497 89.3077 53.0497 89.7588C53.0497 89.7588 52.5963 89.7587 52.5963 89.3077C52.5963 89.7587 52.5963 89.7587 52.5963 89.3077ZM36.2733 105.545H36.7267C37.1801 105.997 37.1801 105.545 37.1801 105.997L36.7267 106.448C36.2733 105.997 36.2733 105.997 36.2733 105.545Z" fill="#5745FF"/>
<path d="M134.211 26.1608C134.211 25.2587 134.211 25.2587 133.758 24.8077C133.304 25.7098 132.851 25.7098 131.944 26.1608C131.944 26.6119 131.944 26.6119 131.944 27.0629C131.944 27.0629 131.944 27.0629 132.398 27.0629C132.851 27.0629 133.304 26.6119 134.211 26.1608Z" fill="#5745FF"/>
<path d="M145.093 77.5804C142.826 77.1294 141.919 76.2273 139.652 76.2273C139.199 75.3252 139.199 74.8741 139.199 73.972C139.199 73.972 139.199 73.972 138.745 73.972C137.385 74.4231 136.478 75.3252 135.571 76.2273H135.118C134.665 75.3252 134.211 75.3252 134.665 73.972C134.211 73.972 134.211 73.972 133.758 73.521C132.398 74.8741 129.224 77.5804 126.957 77.5804C126.503 78.4825 126.503 80.2867 126.957 80.7378V81.1888C125.596 80.7378 124.236 79.8357 123.329 79.3846L122.876 79.8357C122.876 80.2867 123.329 80.2867 123.783 80.2867C123.329 80.7378 122.876 81.1888 121.969 81.1888C121.062 81.1888 121.062 80.7378 120.155 80.7378C119.702 81.6399 120.155 83.4441 120.609 83.8951C120.609 84.3462 121.516 83.4441 121.516 82.993H121.969L120.155 85.6993C119.702 85.6993 119.248 85.6993 118.795 85.6993C118.342 84.7972 116.981 84.3462 116.981 83.4441C115.621 83.8951 114.261 85.6993 112.901 86.6014C112.901 87.9546 112.901 88.8567 112.447 90.2098C112.447 90.2098 111.994 90.2098 111.994 90.6609C111.087 90.6609 111.087 89.7587 110.634 89.3077C110.634 88.8567 111.087 88.4056 111.087 87.9546H110.634C109.727 88.4056 109.727 88.8567 108.366 88.8567C107.913 89.7588 106.099 91.1119 106.099 92.014C105.646 92.9161 106.099 94.2692 105.646 95.1713C104.739 95.1713 103.379 94.7203 102.925 93.8182C102.925 93.8182 102.472 93.8182 102.472 93.3671C100.658 94.7203 99.2981 97.8776 95.6708 97.8776C94.764 100.584 94.3106 101.937 92.4969 103.741H92.0435C92.0435 103.741 92.0435 103.741 92.0435 103.29C92.4969 102.388 92.4969 101.937 92.9503 101.486V101.035C92.0435 101.035 92.0435 100.584 91.1367 100.584C90.2298 102.388 88.8696 105.545 86.6025 104.643C85.6957 105.545 85.6957 106.448 84.3354 106.899C83.4286 107.35 82.9752 106.448 82.5217 106.448C81.6149 106.448 81.6149 106.899 80.7081 106.899C80.7081 106.899 80.7081 106.899 80.7081 106.448C82.9752 103.741 84.7888 102.388 87.5093 100.133C87.9627 99.6818 88.4162 98.7797 88.4162 98.3287C89.323 97.8776 90.2298 97.4266 91.1367 96.9755C91.1367 96.5245 91.5901 96.0734 91.5901 95.6224L95.6708 91.5629C96.5776 90.6608 102.925 86.1504 102.925 85.6993C103.832 84.7972 104.739 84.7972 106.099 84.3462C106.553 83.8951 107.006 83.4441 107.46 82.542C109.727 81.1888 110.18 82.542 111.54 79.3846C111.994 79.3846 112.447 79.3846 112.901 79.3846C112.901 78.9336 113.354 78.0315 113.354 77.5804C113.807 77.5804 114.261 77.5804 114.714 77.1294C115.621 76.2273 116.075 75.7762 116.981 74.8741C118.342 73.972 119.248 73.972 119.248 71.7168C120.155 71.2657 120.609 71.2657 121.516 71.2657C121.969 70.3636 122.422 69.9126 123.329 69.4615C123.783 69.0105 123.783 69.4615 124.236 69.9126C125.596 69.0105 125.143 67.6573 126.957 67.2063C127.41 66.7552 127.41 66.7552 127.41 66.3042C127.41 66.3042 134.211 63.1469 135.118 63.1469C135.118 62.6958 135.118 62.6958 135.571 62.2448C135.118 62.2448 134.665 62.2448 134.211 62.6958V62.2448C135.571 61.3427 136.478 61.3427 137.839 60.8916C137.839 60.4406 137.839 60.4406 138.292 59.9895C137.385 59.5385 136.478 59.0874 136.025 58.1853C134.665 58.6364 134.211 59.5385 133.304 60.4406H132.851C131.491 58.1853 131.944 58.6364 132.851 56.8322C133.304 56.8322 133.304 57.2832 133.758 57.2832C134.211 56.8322 134.665 56.8322 135.118 56.3811C135.118 55.028 134.211 54.5769 132.851 54.1259C131.037 54.5769 130.584 55.479 128.317 55.028C127.863 54.1259 128.317 54.1259 127.863 53.2238H127.41C127.41 54.1259 126.957 54.5769 126.957 55.479C127.41 55.9301 127.41 55.9301 127.863 55.479V55.9301C127.41 56.8322 126.957 56.8322 126.503 57.2832C126.05 56.8322 125.596 56.8322 125.143 56.3811C123.783 57.2832 124.236 57.7343 123.329 59.0874C122.876 59.5385 121.969 60.4406 121.062 60.8916H120.609C121.062 59.9895 121.969 59.9895 121.969 59.0874C121.969 59.0874 121.969 59.0874 121.969 58.6364H121.516C119.702 59.5385 120.155 61.3427 119.248 63.1469H118.795C118.795 62.6958 118.795 62.2448 118.342 61.7937C116.528 62.6958 116.528 65.8532 114.714 66.7552C114.261 67.2063 112.901 67.2063 112.447 67.2063C112.447 66.7552 112.447 66.7552 112.447 66.3042C111.54 66.3042 111.087 66.3042 110.634 66.7552C110.18 67.6573 110.18 67.2063 110.634 68.1084C110.634 68.1084 110.634 68.1084 110.18 68.5594C109.727 68.5594 108.82 68.1084 108.366 68.1084C105.646 69.4615 105.193 72.1678 102.925 73.521C102.472 73.972 101.565 73.972 101.112 74.4231C99.7515 75.3252 99.2981 77.1294 97.9379 78.0315C97.4845 78.0315 96.5776 78.4825 96.1242 78.4825C95.6708 78.9336 94.764 79.3846 94.3106 80.2867C93.4037 80.7378 93.4037 79.8357 92.4969 80.2867C91.1366 81.1888 90.6832 83.8951 90.2298 85.2483C90.2298 85.2483 90.2298 85.2483 89.7764 85.6993C89.323 86.1504 89.323 85.6993 88.4162 85.2483C86.6025 86.1504 85.6957 87.0525 83.882 87.5035C83.882 87.9546 83.882 88.4056 84.3354 88.8567C83.882 88.8567 83.882 89.3077 83.4286 89.3077C79.8012 88.4056 79.8012 91.5629 77.5342 92.465C77.0807 93.8182 77.5342 95.1713 75.7205 95.6224C75.7205 94.7203 75.7205 94.7203 76.1739 93.8182H75.7205C73.9068 94.7203 73.9068 96.0734 72.5466 96.9755C72.0932 96.9755 71.6398 96.9755 71.1863 96.9755L66.1988 101.035C66.1988 101.486 65.7453 102.388 65.7453 102.839C65.2919 103.29 64.3851 103.29 63.9317 103.741C63.4783 104.643 63.4783 105.545 62.5714 105.997C61.6646 105.997 60.3044 105.545 59.3975 105.545C58.9441 106.899 58.9441 106.899 58.9441 107.801C58.0373 108.252 57.5839 108.252 56.677 109.154C57.1304 109.605 57.5839 110.507 57.5839 110.958H57.1304C56.677 110.507 56.2236 110.056 55.7702 109.154C54.8634 109.154 53.5031 110.507 53.0497 111.409C52.5963 112.311 53.5031 112.311 53.5031 113.213C53.5031 114.115 53.0497 115.017 52.5963 116.371C52.1429 116.371 52.1429 116.822 51.6894 116.822C51.6894 115.92 51.6894 115.469 51.236 115.017C51.236 114.115 52.1429 113.213 52.5963 112.762C50.7826 113.213 50.3292 114.566 48.9689 115.017C48.0621 115.92 46.7019 115.469 45.795 115.92C45.3416 116.822 44.4348 117.273 43.9814 118.175C42.1677 119.528 36.7267 124.038 34.0062 122.234C33.5528 121.783 33.0994 121.332 33.0994 120.43H32.646C32.1925 120.881 31.7391 121.332 31.7391 121.332C31.7391 121.783 31.7391 122.234 31.7391 122.234C32.1925 122.685 32.646 123.136 33.5528 123.136C34.0062 123.587 33.5528 123.587 33.5528 124.49C34.4596 124.49 35.3665 124.941 36.2733 124.941C37.1801 126.294 37.6335 128.098 38.5404 128.549C39.4472 128.098 39.9006 128.549 40.354 129C42.1677 128.098 43.528 127.196 44.8882 125.843C45.795 125.843 45.795 126.294 45.795 126.745H46.2484C47.1553 125.392 48.5155 124.49 50.7826 124.038C50.7826 124.038 50.7826 124.038 50.7826 123.587C50.3292 123.136 50.3292 122.685 49.8758 122.234C51.236 120.43 51.6894 121.783 53.0497 121.783C53.9565 121.332 54.8634 120.43 55.3168 119.528C56.2236 119.528 56.2236 119.528 56.677 119.979C57.1304 119.528 57.5839 119.077 58.0373 118.175C58.4907 118.175 58.4907 118.175 58.9441 118.626C59.8509 119.077 58.9441 119.979 59.3975 120.881C59.8509 121.332 60.7578 122.234 61.2112 123.136C61.2112 123.587 61.2112 124.038 61.2112 124.49C64.3851 126.745 66.1988 124.038 69.3727 123.587C70.7329 123.587 71.6398 124.038 73 124.038C74.3603 123.587 74.3603 122.234 75.2671 121.783C75.7205 121.783 76.1739 121.783 76.6273 121.783C77.5342 121.332 77.9876 120.43 78.8944 119.979C80.2547 119.528 81.1615 119.528 82.5217 119.077C82.5217 118.175 82.0683 118.175 82.0683 117.273C82.0683 117.273 82.0683 116.822 82.5217 116.822C83.882 116.822 87.9627 115.469 88.4162 114.566C89.323 113.213 89.323 112.311 90.6832 111.409C91.5901 110.958 92.4969 110.958 93.8571 110.507C95.2174 109.605 97.0311 108.252 98.3913 107.801C98.8447 107.801 99.7516 107.35 100.205 107.35C102.019 105.997 102.019 104.643 104.739 104.192C106.099 102.388 105.193 101.937 104.739 100.133C105.193 100.133 105.193 100.133 105.646 99.6818C106.099 100.133 106.099 100.584 106.553 101.486C107.46 101.937 108.366 101.486 108.82 100.584C109.273 100.584 109.273 100.584 109.727 100.584C109.727 101.035 110.18 101.486 110.18 101.486C109.273 102.388 108.366 102.839 107.913 103.741C107.006 104.192 106.553 103.741 106.099 104.192C106.553 104.643 106.553 105.545 107.006 105.997C107.006 105.997 106.553 105.997 106.553 106.448C105.646 106.899 105.193 105.997 104.286 105.997C103.379 106.448 102.472 107.35 101.112 107.801C101.112 108.252 101.112 108.703 101.112 109.154C100.205 110.056 96.5776 113.664 96.1242 113.664C95.6708 113.664 94.764 113.664 94.3106 113.664C93.4037 114.566 93.8571 116.371 92.4969 116.822C91.5901 116.822 91.1366 117.273 90.2298 117.273C90.6832 118.175 91.1367 118.626 90.6832 119.528C90.6832 119.528 90.6832 119.528 90.6832 119.979C90.2298 120.43 89.7764 119.979 88.8696 120.43V120.881C89.323 121.783 91.1366 125.392 92.0435 125.843C94.764 127.647 104.739 124.49 106.553 123.587C107.46 122.685 108.366 122.234 109.273 121.332C109.727 120.881 110.18 121.783 111.087 121.332C112.901 120.881 113.354 119.528 114.714 118.626C115.621 117.724 117.435 118.175 118.795 117.724C119.248 118.175 118.795 119.528 119.248 119.979C120.155 122.685 122.422 123.136 125.143 124.038C125.596 123.587 125.596 123.587 126.05 123.136C126.957 122.685 128.317 123.136 129.677 123.136C131.037 122.685 131.491 121.783 132.398 120.881V120.43C130.584 120.43 128.317 120.881 126.05 120.43L125.596 119.979C126.05 117.273 131.037 111.86 132.398 109.605C131.491 108.252 129.677 108.252 127.863 108.703C127.41 107.801 126.503 107.801 126.503 106.448C126.503 106.448 122.876 106.448 121.969 106.448C120.155 108.252 118.795 107.35 116.528 108.703C115.168 109.154 114.714 110.056 113.354 110.507C113.354 111.86 112.901 112.311 112.447 113.213C111.087 114.115 111.54 112.762 110.18 112.762C109.273 113.664 108.82 114.115 107.913 115.017C107.006 114.566 106.553 114.566 105.193 114.566L104.739 114.115C105.193 113.213 106.553 113.664 107.006 112.762C109.727 110.507 111.994 107.35 114.714 105.545C115.168 105.094 115.621 105.545 116.075 105.545C116.075 105.094 116.528 104.643 116.528 104.643C118.795 102.388 121.516 101.035 123.783 99.2308C123.783 98.7797 124.236 98.7797 124.236 98.3287C125.143 97.8776 126.05 97.8776 127.41 96.9755C127.863 96.5245 128.317 95.6224 128.77 95.1713C129.224 95.1713 129.677 94.7203 130.13 94.7203C130.13 94.2692 130.584 93.8182 130.584 93.3671C131.491 92.465 132.851 92.465 133.758 92.014C133.758 91.5629 134.211 91.1119 134.211 90.6609C134.665 90.2098 135.118 90.2098 136.025 89.7588C136.932 88.8567 137.839 87.9546 138.292 87.0525C141.012 85.2483 144.186 83.4441 145.547 81.1888C146 80.7378 145.547 80.7378 145.093 80.2867C145.547 79.8357 145.547 79.8357 146 79.8357C145.547 79.3846 145.547 78.4825 145.093 77.5804ZM131.037 61.7937H131.491C131.491 62.2448 131.944 62.2448 131.944 62.6958C131.944 62.6958 131.944 63.1469 131.491 63.1469H131.037C130.584 63.1469 130.584 62.6958 130.13 62.6958C131.037 62.2448 131.037 61.7937 131.037 61.7937ZM126.503 64.5C126.957 64.5 126.957 64.5 126.957 64.5C126.957 64.9511 126.957 64.9511 127.41 65.4021H126.957C126.503 65.4021 126.503 64.9511 126.503 64.5ZM123.783 64.951C124.689 65.4021 124.689 65.4021 124.236 66.3042C123.783 66.3042 123.329 66.3042 122.876 66.3042C122.422 65.8531 122.422 66.3042 122.422 65.8532C122.876 65.4021 123.329 64.951 123.783 64.951ZM114.261 69.9126C114.714 69.4615 115.168 69.0105 116.075 69.4615H116.528C116.528 69.0105 116.075 69.0105 116.075 68.5594L116.528 68.1084C116.981 68.1084 116.981 68.1084 117.435 68.1084C117.435 68.5594 117.435 68.5594 116.981 69.0105C116.981 69.9126 116.981 70.8147 117.435 71.2657V71.7168C116.528 71.7168 116.075 71.2657 115.168 71.2657C114.261 70.8147 114.261 70.3636 114.261 69.9126ZM107.46 70.3636H107.913C107.913 70.8147 107.913 70.8147 107.46 70.8147C107.46 70.3636 107.46 70.3636 107.46 70.3636ZM100.658 78.9336H101.112C101.112 78.9336 101.112 78.9336 101.112 79.3846C100.658 79.8357 100.205 80.2867 99.7516 80.2867L99.2981 79.8357C99.7516 78.9336 100.205 78.9336 100.658 78.9336ZM81.6149 91.5629H82.0683C82.0683 92.014 81.6149 92.9161 81.1615 92.9161C81.1615 92.9161 81.1615 92.9161 80.7081 93.3671L80.2547 92.9161C81.1615 92.014 81.1615 92.014 81.6149 91.5629ZM38.9938 127.196C38.087 126.745 38.087 126.294 37.6335 125.392C38.087 125.392 38.087 125.392 38.5404 125.392C38.5404 125.843 38.9938 126.294 38.9938 127.196C38.9938 126.745 38.9938 126.745 38.9938 127.196ZM52.5963 117.724L52.1429 118.175H51.6894V117.724C51.6894 117.724 52.1429 117.724 52.1429 117.273L52.5963 117.724ZM60.7578 109.605C60.3043 109.605 60.3043 109.605 60.7578 109.605C60.3043 109.154 60.3043 109.154 59.8509 108.703L60.3043 108.252C60.7578 108.252 60.7578 108.252 61.2112 108.252C61.2112 108.252 61.2112 108.252 61.2112 108.703C61.2112 108.703 60.7578 109.154 60.7578 109.605ZM66.1988 114.115C65.7453 114.115 65.7453 113.664 65.2919 113.664C65.2919 113.213 65.2919 113.213 65.7453 112.762H66.1988C66.6522 112.762 66.6522 113.213 66.6522 113.213C66.6522 114.115 66.1988 114.115 66.1988 114.115ZM67.559 112.762L67.1056 112.311L67.559 111.86C67.559 111.86 67.559 111.86 68.0124 111.86C68.0124 111.86 68.0124 112.311 68.4658 112.311C68.0124 112.311 67.559 112.762 67.559 112.762ZM79.3478 108.252V107.801H79.8012C79.8012 108.252 80.2547 107.801 79.3478 108.252ZM87.9627 112.311C87.5093 112.311 87.5093 112.311 87.0559 112.311C86.6025 110.958 88.4162 109.605 89.323 109.154H89.7764L90.2298 109.605C89.323 110.056 88.4161 111.409 87.9627 112.311ZM100.205 102.839C99.7516 102.839 99.2981 103.29 98.8447 103.29C98.8447 103.29 98.8447 103.29 98.3913 103.29C97.9379 102.839 98.3913 102.388 98.3913 101.486C99.2981 101.486 99.2981 101.486 99.7516 101.486C100.205 101.486 100.205 101.486 100.658 101.937C100.205 102.388 100.205 102.388 100.205 102.839ZM104.739 96.9755C104.286 96.9755 104.286 97.4266 103.832 97.4266H103.379C103.832 96.9755 103.832 96.5245 104.286 96.0734C104.286 96.5245 104.286 96.5245 104.739 96.9755ZM112.901 115.017H113.354V115.469C112.901 115.469 112.901 115.017 112.901 115.017ZM103.832 119.979C104.286 120.43 104.286 120.43 104.286 120.881C103.832 120.881 103.832 120.881 103.379 121.332C103.832 120.881 103.379 120.881 103.832 119.979ZM113.807 87.9546H114.261C114.261 87.9546 114.261 87.9546 114.261 88.4056L113.807 88.8567C113.807 88.8567 113.807 88.8567 113.354 88.8567C113.354 88.4056 113.807 88.4056 113.807 87.9546ZM107.913 93.8182C109.273 93.8182 108.82 93.8182 110.18 93.8182C110.18 93.8182 110.18 93.8182 110.634 94.2692V94.7203C110.18 95.1713 110.18 95.6224 109.273 95.6224C108.366 95.1713 107.913 94.7203 107.913 93.8182ZM109.727 100.133C109.273 99.6818 109.273 99.6818 109.273 98.7797C110.18 97.8776 111.54 97.8776 112.901 97.4266C113.354 97.4266 113.354 97.4266 113.807 97.8776C113.807 98.3287 113.807 99.2308 113.354 99.6818C111.994 99.6818 111.087 100.133 109.727 100.133ZM111.54 104.643C111.54 104.643 111.54 104.192 111.087 104.192C111.54 103.741 112.447 103.741 112.901 103.29C112.901 103.29 113.354 103.29 113.354 103.741C113.354 103.741 111.994 104.643 111.54 104.643ZM114.261 101.937C113.807 101.486 114.261 101.937 114.261 101.486C114.261 101.486 114.261 101.486 114.261 101.937ZM112.901 95.6224C113.354 94.2692 114.261 94.7203 115.168 93.8182C116.075 93.8182 117.435 94.7203 117.888 95.1713C116.981 96.9755 114.714 96.9755 112.901 95.6224ZM121.516 93.8182C121.062 93.8182 120.609 93.8182 120.609 93.8182C120.609 93.8182 120.609 93.3671 120.155 93.3671C120.155 93.3671 120.155 93.3671 120.155 92.9161C120.609 92.014 121.516 92.014 122.422 91.5629C122.876 91.5629 122.876 91.5629 123.329 91.5629C123.329 92.014 123.783 92.014 123.783 92.465C122.422 93.3671 121.969 92.465 121.516 93.8182ZM121.516 88.4056H121.062C121.062 88.4056 121.062 87.9546 120.609 87.9546C121.516 86.6014 122.422 85.6993 123.329 84.3462H123.783V84.7972C123.329 86.1504 122.422 87.0525 121.516 88.4056ZM131.491 80.7378C131.037 81.1888 130.13 81.1888 129.224 81.1888C128.77 80.7378 128.77 80.2867 128.77 79.3846C129.677 78.0315 131.037 77.5804 132.398 76.6783C132.851 76.6783 132.851 76.6783 133.304 77.5804C132.851 78.4825 131.944 78.4825 131.491 80.7378Z" fill="#5745FF"/>
<path d="M87.0559 118.175C87.0559 118.626 87.0559 118.626 87.0559 118.175V118.175Z" fill="#5745FF"/>
<path d="M135.118 73.521C134.665 73.972 134.665 73.521 135.118 73.521V73.521Z" fill="#5745FF"/>
<path d="M133.304 119.979C132.851 120.43 132.398 120.43 131.944 120.881L132.398 121.332C132.851 121.332 132.851 121.332 133.304 121.332C133.758 120.881 133.758 120.881 134.211 120.43C134.211 120.43 133.758 119.979 133.304 119.979C133.758 119.979 133.758 119.979 133.304 119.979Z" fill="#5745FF"/>
<path d="M36.2733 119.979V120.881C37.1801 120.881 37.1801 120.43 37.6335 120.43V119.979C37.1801 119.528 36.7267 119.528 36.7267 119.528C36.7267 119.528 36.7267 119.528 36.2733 119.979Z" fill="#5745FF"/>
<path d="M38.087 115.017V114.566C38.087 114.566 37.6335 114.566 37.6335 114.115C37.6335 114.566 37.1801 114.566 37.1801 115.017V115.92H37.6335C38.087 115.469 37.6335 115.469 38.087 115.017Z" fill="#5745FF"/>
<path d="M52.5963 105.094C51.6894 105.997 51.236 107.35 50.3292 108.252C49.8758 108.703 48.5155 109.154 48.0621 109.605C48.0621 110.056 47.6087 110.507 47.6087 110.958C47.1553 111.409 47.1553 110.958 46.7019 111.409C45.795 112.311 45.3416 113.213 44.4348 114.566L44.8882 115.017C45.795 114.566 47.6087 112.762 47.6087 111.409H48.0621C48.5155 110.958 48.9689 110.507 49.4224 110.056C50.7826 110.507 51.236 110.958 51.6894 109.154C51.236 109.154 50.7826 109.154 50.7826 108.703C50.7826 108.252 50.7826 108.252 50.3292 107.801C51.236 107.35 51.6894 106.448 52.5963 105.997C52.5963 105.545 52.5963 105.545 52.5963 105.094Z" fill="#5745FF"/>
<path d="M19.4969 107.35C19.4969 107.801 19.4969 108.252 19.4969 108.252C18.5901 109.154 17.6832 109.154 16.7764 110.056C17.2298 110.507 17.2298 110.056 18.1366 110.507C21.3106 111.409 20.8571 109.605 22.6708 108.703V108.252C21.3106 106.899 21.3106 107.35 19.4969 106.899C19.9503 106.899 19.4969 107.35 19.4969 107.35Z" fill="#5745FF"/>
<path d="M46.7019 92.465C46.7019 92.9161 46.7019 92.9161 46.7019 92.465C47.1553 92.9161 47.1553 92.9161 47.1553 92.9161C47.1553 92.9161 47.1553 92.465 47.6087 92.465V92.014H47.1553C46.7019 92.465 46.7019 92.465 46.7019 92.465Z" fill="#5745FF"/>
<path d="M77.5342 63.1469C77.5342 63.5979 77.5342 63.5979 77.5342 63.1469C77.9876 63.5979 77.9876 63.5979 77.9876 63.5979C77.9876 63.1469 77.9876 63.1469 77.9876 62.6958H77.5342V63.1469Z" fill="#5745FF"/>
<path d="M23.1242 104.192C22.6708 104.192 22.2174 104.643 22.2174 104.643C22.6708 104.643 22.6708 105.094 23.1242 105.094C23.1242 105.094 23.1242 104.643 23.1242 104.192Z" fill="#5745FF"/>
<path d="M112.447 42.8497C112.447 42.3986 112.447 42.3986 112.447 42.8497C112.447 42.3986 112.447 42.3986 112.447 42.3986C111.994 42.3986 111.994 42.3986 112.447 42.8497Z" fill="#5745FF"/>
<path d="M10.882 118.626C10.882 119.077 10.882 119.077 10.882 118.626C10.882 119.077 11.3354 119.077 11.7888 119.077C11.7888 119.077 11.7888 119.077 11.7888 118.626C11.3354 119.077 11.3354 119.077 10.882 118.626Z" fill="#5745FF"/>
<path d="M14.0559 49.6154C17.6832 47.8112 22.2174 44.2028 25.3913 41.4965C27.205 40.5944 29.472 37.8881 32.1925 38.3392C33.5528 36.986 35.3665 36.0839 36.7267 34.7308C37.1801 34.2797 37.1801 33.3776 38.087 32.9266C38.9938 32.9266 39.9006 32.4755 40.354 32.4755C44.8882 29.7692 48.9689 25.7098 53.5031 22.5525C54.8634 21.6504 58.9441 18.9441 59.8509 18.042C60.3043 17.1399 60.3043 16.2378 60.7578 15.3357C61.2112 15.3357 61.6646 15.7867 62.118 15.7867H62.5714C63.0248 14.8846 63.4783 13.5315 63.9317 13.0804C63.4783 12.1783 63.0248 12.1783 63.0248 10.8252C64.8385 9.92308 66.6522 9.02098 68.4658 8.56993C70.2795 6.76573 70.7329 4.51049 73.4534 4.51049C74.8137 6.31469 72.0932 8.56993 71.6398 9.47203C71.6398 9.92308 71.6398 10.3741 71.6398 10.8252C70.7329 11.7273 67.559 13.9825 66.1988 14.8846C65.7453 15.3357 64.8385 16.2378 64.3851 16.6888C62.118 18.493 59.3975 20.2972 57.1304 22.1014C56.677 23.0035 55.7702 23.9056 55.3168 24.8077C53.5031 26.1608 53.0497 25.2587 52.1429 27.965C49.4224 28.4161 49.8758 29.7692 48.5155 31.1224C47.6087 32.0245 45.3416 31.5734 46.2484 33.3776V33.8287C43.528 35.1818 42.6211 35.6329 42.6211 38.3392C41.7143 38.7902 38.087 39.6923 37.1801 40.1434C36.2733 41.4965 35.3665 42.8497 34.4596 44.2028C34.0062 44.6539 33.5528 45.1049 32.646 45.556C31.2857 47.3601 29.472 49.1643 28.1118 50.5175C28.1118 50.9685 28.5652 51.4196 28.5652 51.4196C28.1118 53.2238 25.3913 53.6748 24.4845 54.5769C23.5776 55.479 23.5776 56.8322 23.1242 57.7343C22.2174 59.0874 20.8571 59.0874 21.764 61.3427C21.3106 61.7937 21.3106 61.3427 20.8571 61.3427C20.4037 61.7937 19.9503 62.6958 19.9503 63.5979C21.3106 65.4021 23.1242 66.3042 25.3913 67.6573C26.7516 67.2063 29.0186 66.3042 30.3789 65.4021C31.2857 64.5 31.7391 63.1469 33.0994 62.6958C37.1801 61.3427 39.9006 58.1853 43.0745 55.9301C45.3416 54.1259 48.5155 53.2238 50.7826 51.4196C50.7826 50.9685 50.7826 50.5175 50.7826 49.6154C51.236 49.6154 52.1429 50.0664 52.5963 50.0664C54.8634 47.8112 58.4907 46.458 61.2112 44.2028C61.2112 44.6539 61.2112 44.2028 61.6646 44.6539C61.2112 44.6539 61.2112 44.6539 60.7578 45.1049C60.7578 45.556 60.7578 45.556 60.7578 46.458C60.3043 46.9091 60.3043 46.9091 59.8509 47.3601C59.3975 47.3601 59.3975 46.9091 58.9441 46.9091C58.0373 47.3601 57.5839 48.2622 56.677 48.2622C56.677 49.1643 56.2236 50.0664 56.2236 50.5175C55.3168 50.9685 55.3168 51.4196 53.9565 51.4196C53.0497 52.7727 52.5963 55.028 49.8758 54.5769C48.9689 55.9301 48.0621 57.2832 46.7019 58.6364C46.2484 58.6364 45.795 59.0874 45.3416 59.0874C45.3416 59.5385 45.3416 59.9895 45.3416 60.4406C44.8882 60.8916 44.4348 61.3427 43.9814 61.7937C43.9814 62.6958 44.8882 63.1469 44.8882 63.5979C44.4348 64.049 44.8882 64.049 44.4348 64.049C43.9814 63.5979 43.9814 63.1469 43.528 62.6958L43.0745 62.2448C41.7143 63.1469 41.2609 63.5979 40.8075 63.5979C39.9006 64.9511 40.8075 64.5 40.354 65.8532C39.9006 66.3042 39.9006 67.2063 39.4472 67.6573H38.9938C38.9938 67.2063 38.9938 67.2063 38.5404 66.7552H38.087C36.7267 67.6573 32.1925 73.521 32.1925 75.3252C31.7391 75.7762 31.7391 75.3252 30.8323 75.3252C29.9255 75.7762 29.472 76.6783 29.0186 77.5804C29.0186 78.0315 29.0186 78.0315 29.472 78.4825C29.472 78.9336 29.0186 78.9336 29.0186 79.3846C28.1118 79.3846 28.5652 80.7378 28.1118 81.1888L28.5652 81.6399C28.1118 82.0909 28.1118 82.542 27.6584 83.4441C28.5652 85.6993 29.9255 86.1504 32.1925 87.0525C32.1925 87.5035 32.1925 87.5035 31.7391 87.9546C32.646 88.8567 33.5528 89.3077 34.913 89.7588C34.913 90.2098 34.913 90.2098 34.913 90.6609C34.4596 90.6609 34.0062 91.1119 33.5528 91.1119C33.0994 92.014 32.646 92.9161 32.1925 93.8182C32.1925 94.7203 32.646 94.7203 33.0994 95.6224C32.646 96.5245 32.1925 96.5245 32.1925 97.8776C31.7391 97.8776 30.8323 97.8776 30.3789 97.8776C30.3789 97.4266 30.3789 97.4266 29.9255 96.9755L29.472 96.5245C29.0186 96.9755 25.8447 99.2308 25.8447 99.6818C25.3913 100.584 24.9379 101.937 24.4845 102.839C24.0311 103.741 23.1242 103.29 22.6708 104.643C23.5776 105.094 24.0311 105.094 24.9379 105.545C25.3913 105.094 25.8447 105.094 25.8447 104.643H26.2981C26.2981 104.643 26.2981 104.643 26.7516 104.643C26.2981 105.545 25.8447 105.997 25.3913 106.899L25.8447 107.35C26.2981 107.35 27.205 106.899 27.6584 106.899C28.1118 105.997 28.5652 105.094 28.5652 103.741C30.3789 102.839 32.1925 101.937 33.0994 100.133C33.0994 99.6818 33.5528 99.2308 33.5528 98.7797C34.0062 98.3287 34.4596 98.3287 34.913 97.8776C35.3665 97.4266 35.3665 96.5245 35.8199 96.0734C37.6335 94.7203 39.4472 94.2692 40.8075 93.8182C41.2609 93.3671 41.2609 92.465 42.1677 92.014C43.9814 90.2098 49.8758 87.5035 49.4224 83.8951C50.3292 83.4441 50.7826 84.3462 51.6894 83.8951C53.5031 82.993 54.4099 81.1888 55.7702 79.8357C56.677 79.3846 57.1304 78.9336 58.0373 78.4825C58.4907 78.0315 58.4907 77.5804 58.9441 77.1294C60.7578 75.7762 62.5714 74.4231 64.3851 73.0699C64.8385 72.1678 65.2919 71.2657 65.7453 70.8147C66.6522 70.3636 68.0124 70.3636 68.9193 69.9126C70.2795 69.0105 70.2795 67.6573 71.1863 66.7552C71.6398 66.3042 73.4534 66.3042 73.9068 65.4021C74.8137 64.5 74.8137 63.5979 75.7205 62.6958C76.6273 62.2448 77.0807 62.6958 77.9876 62.2448C78.441 61.7937 78.8944 60.8916 78.8944 60.4406C82.0683 58.1853 84.7888 56.3811 87.9627 54.5769C90.6832 52.3217 92.4969 49.1643 96.5776 48.2622C97.0311 47.8112 97.0311 47.8112 97.0311 46.9091C98.3913 46.007 99.7515 46.007 101.112 45.1049C101.565 44.2028 102.019 43.7518 102.472 42.8497C103.832 42.3986 104.739 41.9476 106.099 41.4965C107.46 41.0455 107.913 39.6923 109.273 39.2413C109.727 38.7902 109.727 37.8881 110.634 37.4371C113.354 35.1818 116.075 33.3776 118.342 31.5734C118.795 31.1224 118.795 30.2203 119.248 29.7692C120.609 28.8671 121.516 29.3182 122.876 28.8671C122.876 28.8671 123.783 27.965 123.329 27.965C123.783 27.514 123.783 27.0629 124.236 27.0629C122.876 26.6119 121.969 26.1608 120.609 25.7098C120.155 24.8077 120.155 24.3566 120.155 23.4545C119.248 23.0035 118.342 23.4545 117.888 23.9056H117.435C116.981 23.4545 116.981 23.0035 116.528 22.5525C116.528 22.1014 116.981 21.6504 116.981 21.1993L116.528 20.7483C114.714 21.1993 115.168 22.5524 114.261 23.4545C113.807 23.4545 113.354 23.4545 112.901 23.9056C111.087 24.3566 111.087 25.2587 109.273 24.8077C108.82 24.8077 108.82 25.2587 108.366 25.7098C107.46 26.1608 106.553 26.1608 106.099 27.0629C105.193 28.4161 105.646 29.7692 104.739 30.6713C104.286 31.5734 102.925 31.5734 102.019 32.0245C101.112 32.4755 101.112 33.3776 100.205 33.8287C100.205 32.9266 100.658 32.4755 101.112 31.1224C100.658 30.6713 101.112 30.6713 100.205 30.6713C99.7516 31.1224 99.2981 31.5734 99.2981 32.0245C98.8447 32.0245 98.3913 32.0245 97.9379 32.0245C95.2174 36.535 92.9503 36.535 88.4162 39.2413C87.9627 39.6923 87.5093 40.5944 86.6025 41.0455C85.6957 41.4965 85.2422 41.4965 84.3354 41.9476C83.882 42.3986 83.882 42.8497 83.4286 43.3007C82.9752 43.3007 82.0683 43.3007 81.6149 43.7518C79.8012 44.2028 78.441 45.556 77.9876 47.3601C77.0807 47.8112 76.6273 47.3601 75.7205 47.8112C74.8137 48.7133 74.3603 49.6154 73.4534 50.5175C73 50.5175 72.0932 50.5175 71.6398 50.5175C70.2795 51.4196 69.8261 54.1259 68.0124 55.028C67.559 55.028 67.1056 55.028 66.6522 54.5769C65.7453 56.3811 65.2919 58.6364 63.4783 59.0874V58.6364C63.4783 58.6364 63.4783 58.1853 63.0248 58.1853H62.5714C62.118 58.6364 61.6646 59.9895 61.2112 60.4406C60.7578 60.8916 59.8509 60.4406 58.9441 60.8916C58.0373 61.3427 56.2236 62.6958 55.7702 63.1469C55.3168 64.049 54.8634 64.5 54.4099 65.4021C53.9565 65.4021 53.5031 65.8532 52.5963 65.8532C52.1429 66.3042 51.6894 67.2063 51.236 67.6573C48.5155 69.4615 46.2485 70.8147 43.528 72.6189C43.0745 73.0699 42.6211 73.972 42.1677 74.4231C40.354 75.3252 39.4472 75.7762 37.6335 76.6783C37.6335 76.6783 37.6335 76.6783 37.6335 76.2273C38.5404 74.4231 40.354 73.0699 41.7143 71.7168C42.6211 70.8147 42.6211 69.4615 43.528 68.5594C43.9814 68.5594 44.4348 68.1084 44.8882 68.1084C45.795 67.6573 48.5155 64.5 49.4224 63.5979C49.8758 63.1469 49.8758 62.2448 50.3292 61.7937C50.7826 61.3427 52.1429 60.8916 52.5963 60.4406C53.5031 59.5385 54.8634 58.1853 55.7702 57.2832C56.2236 56.8322 56.677 55.9301 56.677 55.479C57.5839 54.5769 58.9441 54.5769 59.8509 53.6748C63.0248 51.4196 65.2919 48.7133 68.4658 46.458C71.1863 44.2028 73.9068 42.3986 77.0807 40.5944C77.5342 40.1434 77.5342 39.6923 77.9876 39.2413C78.441 38.7902 79.3478 38.7902 79.8012 38.3392C81.1615 37.4371 82.0683 36.0839 83.4286 35.1818C85.6956 33.8287 87.9627 32.4755 90.2298 30.6713C90.6832 30.2203 91.1367 29.7692 91.1367 28.8671C94.764 26.6119 97.4845 24.3566 99.2981 20.2972C97.9379 18.9441 97.0311 18.042 94.764 17.1399C93.8571 16.2378 93.8571 14.8846 92.0435 15.7867C92.0435 16.2378 92.0435 16.6888 91.5901 17.1399C91.1367 17.1399 91.1367 17.1399 90.6832 17.5909C90.6832 17.1399 90.2298 16.6888 90.2298 16.2378C89.323 16.2378 88.4161 16.6888 87.5093 16.6888C86.6025 18.042 85.6957 18.9441 84.7888 20.2972C83.882 20.2972 83.4286 20.2972 82.0683 20.2972C82.0683 20.7483 82.0683 20.7483 82.0683 21.6504C82.5217 22.1014 82.0683 22.5525 81.6149 23.0035C80.7081 23.0035 80.7081 22.5525 79.8012 22.5525C79.8012 22.5525 79.3478 22.5525 79.3478 23.0035C78.8944 26.1608 76.1739 27.514 73.4534 27.965C73.4534 29.3182 72.5466 30.2203 72.0932 31.1224C70.7329 31.5734 70.2795 32.0245 69.3727 32.4755C68.0124 32.9266 67.1056 32.0245 66.1988 32.9266C64.8385 33.8287 64.8385 35.1818 64.3851 36.0839C63.9317 36.535 63.0248 36.986 62.5714 37.4371C61.6646 37.4371 61.6646 36.986 60.7578 36.986C60.3043 37.8881 59.8509 38.7902 59.3975 39.6923C58.4907 40.5944 58.0373 39.6923 57.1304 40.1434C56.677 40.5944 55.7702 41.4965 55.3168 41.9476C53.0497 43.7518 50.3292 44.6539 49.4224 47.3601C48.5155 47.3601 48.9689 47.3601 48.5155 46.9091C48.0621 46.9091 41.7143 50.5175 41.7143 50.9685C41.2609 51.8706 41.2609 52.3217 40.8075 53.2238C40.354 53.2238 39.9006 53.2238 39.4472 53.6748C37.6335 54.5769 34.0062 56.8322 33.0994 58.6364C33.0994 58.6364 33.0994 58.6364 32.646 58.6364C33.0994 57.2832 36.2733 54.5769 37.1801 53.2238C37.1801 52.7727 37.6335 52.3217 37.6335 51.8706C38.5404 50.5175 41.2609 47.8112 42.6211 46.458C43.0745 46.007 43.528 46.458 44.4348 46.007C45.3416 45.5559 44.8882 44.6539 45.3416 43.7518C45.3416 42.3986 47.1553 41.9476 47.6087 40.5944C48.0621 40.1434 47.6087 39.2413 48.0621 38.7902C48.9689 37.4371 49.8758 36.986 50.7826 36.0839C55.7702 30.2203 61.6646 25.7098 68.0124 21.1993C68.4658 20.7483 68.4658 20.2972 68.9193 19.8462C70.2795 18.493 73.4534 16.2378 75.7205 15.3357C75.7205 14.8846 75.7205 14.4336 75.2671 13.9825C75.7205 13.5315 77.0807 13.0804 77.9876 12.6294C77.5342 12.1783 77.5342 11.7273 77.0807 11.7273C77.5342 9.92308 79.3478 7.66783 78.441 6.31469L77.9876 5.86364C77.5342 6.31469 77.5342 6.76574 77.0807 7.21678H76.6273C76.6273 7.21678 76.6273 7.21678 76.6273 6.76573C76.6273 6.31469 76.6273 5.41259 77.5342 5.41259C77.0807 2.70629 75.2671 3.15734 74.3602 0.902098C73.4534 0.451049 72.5466 0 71.1863 0C71.1863 0 70.7329 0 70.7329 0.451049C70.7329 0.902098 70.2795 1.35315 70.2795 1.35315C69.8261 1.35315 69.3727 1.35315 69.3727 0.902098C68.4658 2.25524 66.6522 2.25524 65.2919 3.15734C64.3851 4.05944 63.9317 4.51049 63.0248 5.41259C62.118 5.41259 61.6646 5.86364 60.7578 5.86364C58.4907 7.21678 57.5839 9.02098 54.8634 10.3741C54.4099 10.3741 54.8634 10.3741 54.4099 9.92308C54.4099 9.92308 54.4099 9.92308 53.9565 9.47203C53.9565 9.02098 54.4099 9.02098 55.3168 8.56993C57.1304 6.31469 54.4099 2.70629 51.6894 2.70629C49.8758 2.25524 46.7019 3.60839 45.3416 4.51049C38.9938 8.11888 33.0994 12.6294 27.205 17.1399C25.3913 18.493 23.1242 21.1993 20.8571 22.5525C19.9503 23.0035 19.0435 23.0035 17.6832 23.4545C17.2298 24.3566 16.7764 25.2587 15.8696 26.1608C15.4161 26.1608 14.9627 26.1608 14.5093 26.1608C13.1491 27.0629 11.7888 27.965 10.4286 28.4161V28.8671C12.2422 31.5734 15.8696 28.4161 19.0435 29.3182V29.7692C18.5901 30.6713 18.1366 30.2203 16.7764 30.2203C15.4161 32.9266 14.0559 37.8881 9.97516 37.8881C9.52174 38.7902 9.06832 40.1434 8.16149 40.5944C7.70807 41.0455 7.25466 41.0455 6.80124 41.4965C6.80124 41.9476 6.80124 42.3986 6.34783 42.3986C4.53416 44.2028 4.53416 42.3986 3.62733 45.1049C0.906832 46.458 1.81366 46.458 0 48.2622C0.453416 48.7133 4.08075 52.7727 4.53416 52.7727C5.89441 53.2238 10.4286 50.0664 11.7888 49.6154C12.6957 49.6154 13.1491 50.0664 14.0559 49.6154ZM29.0186 101.937C28.5652 101.937 28.5652 101.937 28.1118 102.388C28.1118 102.388 28.1118 102.388 27.6584 101.937V101.486L28.1118 101.035C28.1118 101.035 28.1118 101.035 28.5652 101.035C28.5652 101.035 29.0186 101.035 29.0186 101.486C29.0186 101.486 29.0186 101.486 29.0186 101.937ZM30.3789 97.4266C30.3789 97.8776 29.9255 97.8776 29.472 97.8776C29.0186 97.4266 29.0186 97.4266 29.0186 96.9755C29.472 96.9755 29.472 96.9755 29.9255 96.5245C30.3789 96.9755 30.3789 96.9755 30.3789 97.4266ZM68.9193 63.5979C69.3727 63.5979 69.8261 63.5979 70.7329 63.5979L71.1863 64.049C70.7329 64.5 69.8261 64.049 69.3727 64.049C68.9193 64.049 68.9193 64.049 68.9193 63.5979ZM60.7578 70.3636H61.2112C61.2112 70.8147 60.7578 70.8147 60.7578 70.3636ZM58.9441 71.2657L59.3975 70.8147L59.8509 71.2657C59.3975 71.2657 59.3975 71.7168 58.9441 71.7168C58.9441 71.7168 58.9441 71.7168 58.9441 71.2657C58.9441 71.7168 58.9441 71.7168 58.9441 71.2657ZM57.5839 73.521C58.0373 73.521 58.0373 73.521 58.4907 73.521C58.4907 73.972 58.4907 74.4231 58.0373 74.4231C57.1304 74.4231 57.1304 73.972 57.5839 73.521ZM51.236 77.1294H51.6894C51.6894 77.5804 52.1429 78.0315 52.1429 78.4825C51.6894 78.9336 51.6894 78.9336 51.236 79.3846C51.236 78.9336 51.236 78.4825 50.7826 78.4825C50.3292 78.4825 50.3292 78.4825 49.8758 78.4825L49.4224 78.0315C50.7826 77.5804 51.236 77.5804 51.236 77.1294ZM44.4348 84.3462C45.3416 84.3462 45.795 84.3462 45.795 84.7972V85.2483C45.3416 85.6993 44.8882 85.6993 43.9814 85.2483V84.7972C43.9814 84.3462 44.4348 84.3462 44.4348 84.3462ZM40.354 83.4441C40.8075 83.4441 40.8075 82.993 41.2609 82.542C41.7143 82.542 41.7143 82.542 42.1677 82.542C42.1677 82.993 42.6211 82.993 42.6211 83.4441C41.7143 83.8951 41.2609 84.7972 40.354 85.2483C40.354 84.7972 40.354 84.3462 40.354 83.4441ZM39.4472 86.1504C39.9006 86.6014 39.4472 87.9546 39.4472 88.8567C40.354 89.3077 40.8075 89.7588 42.1677 89.7588V90.2098C42.1677 90.6609 41.7143 90.6609 41.7143 91.1119H41.2609C40.8075 90.6609 40.8075 90.6609 40.354 90.2098C39.4472 91.5629 38.5404 92.9161 36.7267 93.3671L36.2733 92.9161C36.2733 91.1119 37.6335 91.1119 37.6335 89.7588C37.6335 89.3077 37.6335 89.3077 37.6335 89.3077C37.1801 88.4056 35.3665 88.4056 34.4596 87.9546C34.4596 87.9546 34.4596 87.9546 34.4596 87.5035C34.913 87.0525 35.3665 87.0525 36.2733 87.0525C36.7267 86.1504 36.2733 86.1504 35.8199 85.2483C35.8199 85.2483 35.8199 85.2483 36.2733 85.2483C37.6335 85.2483 38.9938 85.6993 39.4472 86.1504ZM48.0621 59.5385C47.6087 59.5385 47.6087 59.5385 48.0621 59.5385C47.6087 59.0874 47.6087 59.0874 47.6087 58.6364L48.0621 58.1853H48.5155C48.5155 58.6364 48.5155 58.6364 48.9689 59.0874C48.5155 59.0874 48.0621 59.5385 48.0621 59.5385ZM56.2236 50.5175C56.2236 50.0664 56.2236 50.0664 56.2236 49.6154H56.677C57.1304 50.0664 56.677 49.6154 57.1304 50.0664C57.1304 50.5175 56.677 50.5175 56.2236 50.5175ZM63.9317 37.4371C64.3851 37.8881 64.3851 37.4371 64.3851 37.8881C64.3851 37.8881 64.3851 37.8881 63.9317 37.8881C63.9317 37.8881 63.9317 37.8881 63.9317 37.4371ZM70.2795 1.8042C70.2795 1.8042 70.7329 1.8042 70.7329 1.35315C71.1863 1.35315 71.1863 1.35315 71.6398 1.8042C71.1863 2.70629 71.1863 3.60839 70.7329 4.51049C69.8261 4.51049 69.3727 4.05944 68.9193 3.60839C69.8261 3.15734 69.8261 2.25524 70.2795 1.8042ZM64.8385 5.41259H65.2919C65.2919 5.41259 65.2919 5.41259 65.7453 5.41259V5.86364C65.2919 5.86364 65.2919 6.31469 64.8385 5.86364V5.41259C64.3851 5.86364 64.3851 5.41259 64.8385 5.41259ZM59.8509 12.1783C59.8509 12.1783 60.3043 12.1783 60.3043 12.6294V13.0804C59.3975 12.6294 59.8509 12.6294 59.8509 12.1783C59.3975 12.1783 59.3975 12.1783 59.8509 12.1783ZM50.7826 12.1783C51.6894 11.7273 52.1429 11.2762 53.0497 11.2762C53.5031 11.7273 52.5963 12.6294 52.1429 13.0804C51.6894 13.0804 51.236 13.0804 51.236 13.0804C50.7826 12.6294 50.7826 12.1783 50.7826 12.1783ZM48.0621 14.8846C48.5155 14.8846 48.5155 14.8846 48.9689 14.8846C48.9689 14.8846 48.9689 14.8846 48.9689 15.3357L48.5155 15.7867H48.0621C47.6087 14.8846 47.6087 15.3357 48.0621 14.8846Z" fill="#5745FF"/>
<path d="M81.1615 61.7937C81.6149 61.7937 82.0683 61.3427 82.0683 61.3427V60.8916H81.6149C81.6149 60.8916 81.1615 60.8916 81.1615 61.3427V61.7937Z" fill="#5745FF"/>
<path d="M88.4162 57.7343C91.1367 57.2832 92.9503 55.028 93.8571 53.2238L93.4037 52.7727C91.5901 54.1259 89.7764 55.479 87.9627 56.8322C88.4161 57.2832 88.4162 57.2832 88.4162 57.7343Z" fill="#5745FF"/>
</svg>
