<svg width="180" height="213" viewBox="0 0 180 213" fill="none" xmlns="http://www.w3.org/2000/svg">
<path d="M179.102 188.076C178.905 184.478 178.774 180.945 178.578 177.347C178.381 174.534 178.25 171.721 178.054 168.908C177.857 164.068 177.595 159.227 177.398 154.386C177.398 153.077 177.333 151.704 177.333 150.395C177.136 146.863 177.005 143.33 176.809 139.798C176.743 138.293 176.612 136.723 176.547 135.218C176.153 128.35 175.695 121.415 175.302 114.546C175.171 112.257 175.105 109.967 174.974 107.678C174.843 104.21 174.646 100.678 174.515 97.2107C174.45 95.5098 174.384 93.7436 174.319 92.0427C173.926 86.2205 173.533 80.3329 173.14 74.5107C172.746 72.1557 173.205 69.6044 171.96 68.0998C171.633 67.7073 170.388 66.9877 169.601 67.4456C169.208 67.6419 168.488 67.5765 168.029 67.8381C167.832 67.3148 167.767 66.7915 167.177 66.5952C167.177 65.8756 167.046 64.8943 166.522 64.6327C166.391 64.6327 166.26 64.6327 166.063 64.6327C165.801 65.0252 165.474 65.6139 165.408 66.2027C165.277 66.2027 165.146 66.1373 165.015 66.1373C164.95 65.3523 165.081 63.3897 164.556 62.9972C164.425 62.9972 164.36 62.9972 164.229 62.9318C163.967 63.4552 164.229 64.4364 164.229 65.0906C164.098 65.0252 163.901 64.9598 163.639 65.0252C163.443 65.4177 163.443 66.399 163.443 66.9877C162.853 66.9877 162.656 67.4456 162.656 68.0344C162.263 67.9036 161.674 67.6419 161.215 67.8381C160.167 68.2307 160.232 70.9128 160.429 72.2865C160.625 76.1462 160.887 80.0058 161.084 83.8655C161.543 90.996 162.067 98.1265 162.525 105.257C162.787 108.92 162.984 112.649 163.246 116.313C163.377 118.668 163.508 121.023 163.705 123.378C163.901 126.649 164.032 129.92 164.229 133.19C163.508 130.247 162.853 127.237 162.198 124.294C161.346 111.799 160.494 99.3695 159.708 86.8747C159.511 83.4076 159.315 79.875 159.053 76.4079C158.922 74.1182 158.594 72.0903 160.167 70.2586C160.101 70.1932 160.036 70.1278 159.905 70.1278C159.315 70.5203 158.922 70.9782 158.725 71.6978C158.135 73.6603 158.398 76.9312 158.725 79.09C158.791 80.1367 158.791 81.2488 158.856 82.2954C159.773 95.0519 160.625 107.743 161.543 120.499C161.149 120.107 161.215 118.799 161.084 118.21C160.691 115.92 160.298 113.696 159.905 111.406C159.053 105.977 158.267 100.482 157.415 95.0519C156.891 92.2389 156.76 89.2952 155.842 86.9401C155.318 86.8093 154.925 86.8093 154.466 86.8747C153.877 87.9214 153.746 89.9493 153.811 91.3231C153.615 91.1268 153.418 90.9306 153.353 90.6689C153.221 90.6035 153.09 90.5381 152.828 90.6035C152.632 90.8652 152.501 91.1268 152.501 91.5194C152.239 89.8839 151.452 86.1551 150.339 85.6972C150.208 84.8467 150.077 83.6692 149.552 83.2113C149.356 83.2113 149.225 83.2113 149.028 83.1459C148.57 83.6692 148.504 84.6505 148.373 85.5009C147.98 84.1272 147.98 81.1179 146.67 81.0525C145.883 81.5104 146.407 82.688 146.014 83.5384C145.883 83.7346 145.556 83.8655 145.49 84.1926C145.425 84.8467 145.294 85.5663 145.228 86.2205C145.097 86.4168 144.769 86.5476 144.638 86.8093C144.18 87.5943 144.18 89.2952 144.114 90.4073C143.721 89.9493 143.394 88.0522 143.066 87.4635C142.869 87.4635 142.673 87.4634 142.411 87.398C141.493 88.183 141.428 92.3044 141.362 93.8744C141.231 93.0894 141.1 92.3044 140.904 91.5848C140.773 91.2577 140.511 91.1268 140.38 90.8652C139.462 84.7159 138.611 78.6321 137.693 72.4828C137.038 67.969 136.317 63.5206 135.662 59.0068C135.073 54.9509 134.483 50.895 133.893 46.8391C132.452 39.7085 131.731 32.3818 130.224 25.4475C129.176 20.6066 128.783 15.5694 127.669 10.8593C127.276 9.09306 127.079 7.19595 126.489 5.75676C126.096 5.75676 125.769 5.75676 125.376 5.69134C124.72 6.60719 124.589 8.70055 124.589 10.0089C124.262 9.87807 124.262 9.6164 124 9.42015C123.869 9.42015 123.803 9.35473 123.672 9.35473C123.344 9.6164 123.41 10.0089 123.213 10.4014C122.951 9.15848 122.689 7.85012 122.427 6.54177C122.296 6.2801 122.034 6.2801 121.903 6.08385C121.575 5.5605 121.969 4.51382 121.051 4.64466C120.986 3.53256 120.855 2.2242 119.872 2.09337C119.61 2.61671 119.544 4.12131 119.086 4.4484C118.824 3.59797 118.562 0.457924 117.906 0.0654177C117.775 0.0654177 117.644 0.0654177 117.513 0C116.989 0.654177 117.382 1.76628 116.924 2.48587C116.858 2.61671 116.596 2.68213 116.465 2.87838C116.399 3.53256 116.268 4.25215 116.203 4.90633C116.137 5.168 115.679 5.36425 115.548 5.69134C115.417 6.93428 115.22 8.17721 115.089 9.42015C114.958 9.02764 114.696 8.89681 114.63 8.56972C114.63 8.24263 114.565 7.91554 114.565 7.52303C114.434 6.99969 114.303 6.67261 114.106 6.14926C113.779 6.14926 113.713 6.21468 113.451 6.08385C112.665 7.13053 112.403 11.7752 112.403 13.8031C111.813 13.0835 112.534 9.22389 111.223 9.6164C110.175 12.691 110.765 16.4853 110.175 19.8216C109.716 26.1017 109.323 32.3163 108.865 38.5964C108.799 40.2319 108.734 41.8019 108.603 43.4373C108.275 50.5679 107.882 57.633 107.554 64.7635C107.489 67.6419 107.423 70.5203 107.292 73.3986C107.292 76.1462 107.292 78.8283 107.227 81.5759C107.227 84.6505 107.292 87.6597 107.292 90.7343C107.292 91.9773 107.292 93.1548 107.358 94.3977C107.489 97.3415 107.62 100.22 107.751 103.164C107.882 106.565 108.078 110.033 108.209 113.434C108.34 115.593 108.472 117.817 108.603 119.976C109.127 125.929 109.716 131.882 110.241 137.835C110.044 137.312 109.913 136.723 109.716 136.2C109.192 134.368 108.603 132.536 108.078 130.705C106.375 125.209 104.999 119.518 103.558 113.761C101.92 107.285 100.544 100.482 99.0367 93.809C98.2504 89.6222 97.5297 85.4355 96.7435 81.2488C96.4814 78.8937 96.2193 76.6041 95.9572 74.2491C94.8434 67.5765 94.5158 60.7076 93.2709 54.2313C93.0744 52.7921 92.9433 51.2875 92.7468 49.8483C91.9605 44.1569 91.1743 38.4656 90.3881 32.7743C89.9294 30.223 89.8639 27.5408 89.1432 25.1858C88.8156 25.1858 88.488 25.1858 88.1604 25.1204C87.7017 25.84 88.3569 29.5034 88.4225 30.6155C88.9466 35.5872 89.2742 40.559 90.1915 45.269C91.3709 54.035 92.5502 62.8664 93.7296 71.6324C94.4503 76.1462 95.2365 80.66 95.9572 85.1738C96.1538 87.3326 96.3504 89.4914 96.6124 91.5848C96.8745 94.3977 97.1366 97.1453 97.4642 99.9582C96.678 96.0986 96.0228 92.2389 95.302 88.3793C94.9744 85.3047 94.6468 82.23 94.3192 79.1554C93.9916 76.5387 93.7296 73.922 93.402 71.3053C92.4192 64.1093 91.4364 56.9788 90.5191 49.7829C89.6018 44.8765 89.4053 39.9048 88.488 35.1947C88.0293 32.8397 88.0294 30.0921 86.981 28.3913C86.85 28.3913 86.7845 28.3913 86.6534 28.4567C86.1948 30.0921 87.0465 33.2976 87.1121 35.0639C86.7189 32.6434 86.3258 30.2884 85.9327 27.8679C85.8017 27.1483 85.8672 25.7092 85.1465 25.5783C85.0154 25.1204 84.9499 24.7279 84.8189 24.27C84.6223 24.2045 84.5568 24.2045 84.3602 24.27C84.3602 23.4849 84.0326 22.4383 83.8361 21.9803C83.6395 21.9803 83.5085 21.9803 83.3119 21.9803C83.0498 22.5037 83.1809 23.2887 83.2464 23.9429C83.1809 23.9429 83.1154 23.9429 82.9843 23.9429C82.7222 23.8775 82.7222 23.9429 82.7222 24.2045C82.4602 22.8308 82.2636 21.1953 81.7394 20.0832C81.6084 20.0832 81.4118 20.0832 81.2808 20.0832C81.0843 20.4757 81.0187 21.5224 81.2153 22.0458C81.2153 22.1112 81.2153 22.1766 81.2153 22.3074C80.2325 22.1766 80.4291 23.6158 80.4291 24.5316C80.3635 24.5316 80.2325 24.5316 80.167 24.597C79.5118 24.597 79.4463 28.2604 79.5118 29.3071C78.9876 28.2604 78.66 26.625 78.3324 25.5783C78.1359 25.5783 77.9393 25.5783 77.7427 25.5783C77.022 26.7558 77.7427 28.9146 77.6117 30.223C77.9393 34.0826 78.2014 37.8768 78.529 41.7365C78.0703 38.6619 77.6117 35.5218 77.1531 32.4472C76.9565 31.4659 76.9565 29.1763 76.1703 28.5875C75.384 28.4567 75.5806 29.9613 75.5806 30.7463C75.7116 32.9051 75.8427 34.9985 75.9737 37.1572C76.1703 39.6431 76.3668 42.129 76.5634 44.6803C76.6944 46.7736 76.891 48.867 77.022 50.895C77.1531 52.3341 77.2186 53.7079 77.3496 55.1471C77.7427 58.4834 78.1359 61.8197 78.529 65.0906C79.2497 70.324 79.9704 75.5574 80.6911 80.7254C81.2808 84.1926 81.936 87.6597 82.5257 91.1923C83.3119 94.9865 84.0326 98.8461 84.8189 102.64C85.5396 111.537 86.2603 120.499 86.981 129.396C87.2431 133.125 87.4397 136.854 87.7017 140.583C87.7673 141.826 87.7673 143.068 87.8328 144.377C87.8328 146.078 87.8983 147.844 87.8983 149.545C87.9638 153.143 87.9638 156.741 88.0293 160.404C87.8983 163.937 87.7673 167.469 87.6362 171.002C87.5052 172.964 87.3086 174.992 87.1776 176.955C86.981 178.721 86.7845 180.487 86.5224 182.254C85.0809 178.459 83.6395 174.665 82.2636 170.871C81.0187 167.273 79.7083 163.675 78.4635 160.012C76.8255 155.236 75.1219 150.395 73.484 145.62C71.6494 139.798 69.8149 134.041 67.9803 128.219C64.1146 115.528 61.1007 102.64 57.7592 89.4914C55.7281 80.3983 53.7625 71.3707 51.7314 62.2776C51.1417 59.5301 50.6176 56.848 50.0279 54.1004C48.914 49.7174 48.3244 45.2036 47.2761 40.8861C46.2277 35.7181 45.3105 31.008 44.3277 26.2325C43.6725 23.2887 43.4104 20.1486 42.2966 17.7282C41.969 17.7282 41.6414 17.7282 41.3138 17.7282C40.7241 18.1207 40.7241 20.1486 40.6586 20.9991C40.5275 20.8682 40.3965 20.672 40.2654 20.5412C39.9378 20.5412 39.9378 20.6066 39.7413 20.7374C39.5447 19.102 38.8895 17.9899 38.1688 16.8778C37.7757 16.2236 37.9723 15.4386 37.4481 14.9152C37.2515 14.8498 37.186 14.8498 36.9895 14.9807C36.6619 15.1769 36.5963 15.9619 36.5308 16.4853C36.3343 15.3732 36.0722 14.2611 35.6791 13.4106C35.548 13.4106 35.3515 13.4106 35.2204 13.3452C34.8273 13.8685 35.0239 14.5881 34.7618 15.2423C34.6963 15.4386 34.4342 15.5694 34.3031 15.8965C34.2376 16.3544 34.2376 16.7469 34.1721 17.2049C33.9755 17.4011 33.8445 17.5974 33.6479 17.859C33.5169 18.7095 33.4514 19.5599 33.3203 20.4103C33.0583 19.6253 32.9272 18.7749 32.5341 18.1861C32.3376 18.1861 32.2065 18.1861 32.01 18.1861C31.3548 19.2328 31.4203 21.3262 31.2892 22.7654C31.1582 22.4383 31.0272 20.3449 30.3064 20.8028C29.9788 21.0645 30.0444 22.0458 29.9788 22.5691C29.8478 24.3354 29.7168 26.0362 29.5202 27.8025C29.1926 29.5688 29.5202 31.5967 29.2581 33.4939C29.2581 34.2134 29.2581 34.933 29.1926 35.6526C29.1926 37.8768 29.1926 40.1665 29.1271 42.3907C29.1271 45.4653 29.1271 48.6053 29.1926 51.68C29.2581 54.2967 29.2581 56.848 29.3236 59.4647C29.3892 61.1001 29.3892 62.7356 29.4547 64.371C29.7168 69.2773 29.9788 74.1837 30.2409 79.09C30.634 83.9963 30.9616 88.9026 31.3548 93.809C31.4203 95.5098 31.5513 97.1453 31.6168 98.8461C32.0755 103.295 32.5341 107.808 32.9927 112.257C33.5169 116.378 33.9755 120.434 34.4997 124.555C33.5824 121.808 31.8134 118.668 30.503 116.116C28.2098 111.537 25.9821 106.827 22.7717 103.033C21.1337 101.07 19.2991 98.192 16.0231 98.192C15.1059 97.1453 14.1231 96.4257 13.0747 95.5098C12.2885 94.8557 11.6988 94.0706 10.7815 93.5473C10.3229 93.2856 9.40563 92.8931 8.6194 93.0894C7.04692 93.4819 6.45724 95.1173 5.9986 96.6219C5.80205 97.2761 5.60549 97.9303 5.40893 98.5845C5.27789 98.5845 5.14685 98.5845 4.95029 98.5845C4.42613 98.7153 3.83645 99.0424 3.50885 99.4349C2.9847 100.154 2.9847 100.939 2.46054 101.79C2.3295 101.855 2.13294 101.986 2.0019 102.052C1.54326 102.444 1.15014 103.164 0.888063 103.752C-0.291292 106.827 -0.160253 114.677 0.494945 118.406C0.691504 120.107 0.953583 121.808 1.15014 123.509C2.06742 128.022 2.6571 132.405 3.83645 136.723C5.53997 142.807 7.04692 148.825 9.14355 154.517C11.1091 159.946 13.2058 165.376 15.499 170.609C16.6128 172.964 17.7266 175.319 18.775 177.674C20.675 181.927 22.6406 186.113 24.9338 190.038C27.8167 194.945 29.9788 200.309 33.1893 204.823C34.1066 206.131 35.0239 207.57 36.2687 208.552C36.7274 208.879 37.2515 209.271 37.7102 209.598C38.1033 209.729 38.4964 209.925 38.8895 210.056C39.0861 210.252 39.2826 210.514 39.4792 210.71C40.0689 211.299 40.6586 211.626 41.5758 211.888C41.8379 211.888 41.8379 211.888 41.9034 211.692C42.4276 212.084 42.6897 212.477 43.5414 212.542C43.4104 211.953 43.0173 212.084 42.4931 211.692C42.0345 211.365 41.6414 210.645 41.3138 210.122C41.6414 210.187 41.9034 210.318 42.231 210.383C42.231 210.252 42.1655 210.122 42.1 209.991C42.5586 210.122 43.0173 210.318 43.4759 210.449C43.4759 210.383 43.4759 210.318 43.4759 210.187C43.0828 209.991 43.0173 209.729 42.6897 209.533C42.6897 209.467 42.7552 209.402 42.7552 209.337C43.3449 209.467 43.4104 209.925 44.0001 210.187C41.9034 206.197 40.0689 201.356 38.0378 196.776C36.1377 192.786 34.3031 188.795 32.4031 184.805C31.2237 182.385 30.0444 179.899 28.7995 177.478C26.8339 173.03 24.8028 168.581 22.9682 163.937C20.8061 158.442 18.8405 152.75 17.0714 146.994C16.4818 144.769 15.8921 142.611 15.3024 140.386C14.3851 137.508 13.992 134.368 13.1403 131.293C11.5678 125.209 10.9126 118.144 10.9781 110.752C12.0919 111.93 11.6988 116.64 12.0264 118.471C12.2885 120.63 12.6161 122.724 12.8782 124.882C13.6644 128.807 14.2541 132.667 15.1714 136.461C18.0542 147.517 21.3302 157.984 25.458 167.796C29.0616 176.17 33.1893 184.02 36.8584 192.263C38.6274 196.318 40.462 200.374 42.1 204.561C42.6241 205.935 43.5414 209.402 44.5897 210.056C44.1966 209.206 43.6725 208.159 43.5414 207.178C43.738 207.832 44.0001 208.486 44.7208 208.617C44.7863 208.552 44.7863 208.486 44.7863 208.355C44.1311 207.374 43.9345 206 43.5414 204.757C42.9517 202.926 42.2966 201.159 41.7069 199.328C39.9378 194.814 38.0378 190.496 36.0722 186.113C33.9755 181.796 31.9444 177.478 29.8478 173.161C28.2098 169.432 26.6373 165.703 24.9993 161.974C21.6578 154.124 19.3646 145.816 16.8094 137.181C15.4335 132.536 14.7127 127.695 13.6644 122.658C13.1403 119.976 12.6161 116.901 12.6161 113.827C13.4679 115.462 14.3196 117.098 15.1059 118.733C16.4818 121.808 17.7922 124.817 19.1681 127.892C20.1509 130.443 21.1337 132.994 22.1165 135.545C26.0477 145.162 29.5857 155.367 32.7962 165.572C34.4997 170.871 36.0722 176.235 38.1033 181.207C38.824 183.039 39.3482 185.721 40.8551 186.768C41.9034 186.637 41.969 184.478 41.969 183.627C42.2966 184.543 42.8207 186.113 44.0001 186.113C44.1311 185.982 44.1966 185.852 44.3277 185.721C45.0484 186.898 45.7036 190.823 47.0795 191.02C47.2105 191.02 47.3416 191.02 47.5381 190.954C48.1278 190.169 48.1933 188.926 48.2589 187.553C48.652 187.749 48.783 188.73 48.914 189.123C49.4382 190.365 50.0279 192.328 51.4038 192.59C52.5176 192.001 52.3866 188.207 52.1245 186.637C52.2556 186.768 52.8452 187.291 53.1073 186.964C53.566 186.768 53.566 186.179 53.7625 185.786C53.9591 186.44 54.4177 186.571 54.8763 186.637C55.7936 185.655 55.466 184.151 55.5315 182.45C55.5971 181.6 55.9247 180.357 55.7281 179.244C55.5971 177.805 55.466 176.366 55.335 174.927C54.6143 170.806 53.9591 166.75 53.2383 162.628C51.2072 152.947 50.2244 142.938 48.2589 133.06C47.7347 129.265 47.2105 125.537 46.6864 121.742C46.1622 118.014 45.6381 114.285 45.1139 110.556C44.1311 105.257 43.6069 99.3695 43.1483 93.8744C43.9345 97.0144 44.7208 100.154 45.4415 103.229C47.3416 109.575 48.7175 115.986 50.6831 122.2C56.4488 140.648 62.8698 158.442 69.2252 176.17C71.6494 182.842 74.1392 189.319 76.891 195.664C77.3496 196.646 79.8394 202.075 81.3463 199.066C81.4118 199.001 81.4774 198.935 81.6084 198.87C81.8705 199.001 82.067 199.131 82.3291 199.328C83.2464 200.636 84.5568 205.673 86.9155 203.122C87.7018 203.776 88.0949 204.954 89.2742 205.215C90.3225 205.412 90.9122 204.234 91.2398 203.711C91.6985 202.991 92.1571 202.075 92.4847 201.225C92.6157 200.767 92.7468 200.309 92.9433 199.851C93.2709 199.589 93.533 199.328 93.8606 199.066C94.5158 198.281 94.9089 197.3 95.302 196.318C96.4814 193.44 97.2021 190.104 97.9883 186.768C98.1849 185.525 98.3815 184.282 98.578 182.973C98.9711 181.338 99.4298 178.394 99.3643 176.562C99.6263 173.161 99.8884 169.693 100.15 166.292C100.282 163.675 100.347 160.993 100.478 158.376C100.937 159.423 101.33 160.404 101.657 161.451C102.575 163.74 103.361 165.965 104.344 168.189C106.506 172.964 108.078 177.936 110.241 182.646C111.092 184.543 112.992 190.104 114.565 190.889C115.548 190.889 115.81 189.253 115.744 188.338C116.399 189.057 116.465 190.431 117.906 190.235C118.168 191.347 120.003 195.599 121.248 195.272C122.1 194.879 121.903 193.767 122.231 192.851C122.689 194.356 123.803 196.384 125.31 196.973C126.686 196.449 126.555 193.244 126.489 191.347C127.21 191.478 127.603 191.15 127.669 190.365C128.062 190.758 128.39 190.823 128.914 190.889C130.159 189.188 130.028 184.674 130.028 181.73C130.028 177.347 129.372 173.161 128.652 169.301C128.324 167.077 127.996 164.918 127.669 162.694C126.62 157.657 126.424 152.227 125.507 146.994C125.245 144.835 125.048 142.611 124.786 140.452C123.803 135.153 123.934 129.396 123.017 123.901C122.886 121.677 122.755 119.453 122.558 117.163C122.296 113.303 122.1 109.509 121.838 105.65C121.707 103.098 121.641 100.547 121.51 97.9957C121.444 96.5565 121.444 95.0519 121.379 93.6127C121.313 90.7343 121.248 87.856 121.182 84.9776C122.165 90.4073 123.017 95.8369 123.934 101.201C124.262 103.295 124.589 105.322 124.917 107.416C125.9 112.846 126.817 118.341 127.8 123.77C129.831 133.583 130.814 143.461 132.714 153.47C133.238 157.657 133.762 161.843 134.286 165.965C134.483 168.058 134.745 170.217 134.941 172.31C135.793 177.086 136.121 182.057 137.038 186.637C137.562 189.188 137.497 192.982 139.397 193.963C140.511 193.963 140.904 192.132 140.969 191.281C141.362 192.328 141.756 192.917 142.607 193.375C143 193.244 143.131 193.113 143.394 192.917C144.573 194.487 144.376 198.085 146.473 198.804C147.456 198.216 148.045 196.58 148.111 195.01C148.635 197.365 149.094 199.655 150.863 200.505C152.239 200.44 152.566 197.169 152.828 195.795C152.828 195.337 152.894 194.945 152.894 194.487C153.09 194.029 153.615 193.898 153.746 193.309C154.139 193.702 154.204 193.833 154.728 194.029C156.432 192.982 156.301 190.104 156.694 187.749C156.694 186.768 156.76 185.786 156.76 184.87C157.611 179.833 156.235 174.534 156.235 169.759C156.76 172.179 157.284 174.534 157.808 176.955C158.725 181.272 159.577 185.655 160.691 189.842C161.215 191.674 161.805 196.384 163.246 196.973C164.229 196.58 164.098 193.44 164.098 191.936C164.95 192.786 164.687 196.057 166.26 196.318C166.588 196.057 166.784 195.795 166.85 195.272C167.112 196.122 167.636 196.515 167.898 197.104C168.422 198.216 168.422 200.701 169.339 201.29C169.47 201.356 169.601 201.356 169.732 201.421C170.519 200.832 170.584 198.935 170.584 197.627C170.781 197.758 170.912 197.889 171.239 197.758C171.436 197.627 171.502 197.496 171.502 197.234C172.55 199.197 172.026 202.206 174.057 203.057C175.105 202.468 174.712 197.627 174.712 195.926C174.843 196.384 175.105 197.431 175.76 197.3C175.957 197.169 176.088 197.038 176.219 196.842C176.481 195.991 176.481 195.01 176.481 193.963C176.743 194.879 176.94 195.926 177.267 196.711C177.464 196.776 177.595 196.776 177.791 196.842C179.233 195.337 179.102 190.693 179.102 188.076ZM23.8855 160.993C25.5235 164.787 27.096 168.581 28.734 172.376C30.3064 175.581 31.8134 178.852 33.3859 182.057C35.417 186.702 37.5791 191.15 39.6102 195.861C40.3965 197.627 41.0517 199.459 41.7069 201.29C41.7724 201.421 41.8379 201.617 41.9034 201.748C42.1 202.271 42.2966 202.86 42.4931 203.384C42.8862 204.43 43.2794 205.412 43.6069 206.393C43.2138 205.412 42.8862 204.365 42.4931 203.384C42.231 202.664 41.969 201.944 41.7069 201.29C40.1999 197.823 38.693 194.291 37.186 190.823C35.0894 186.44 32.9272 181.992 30.8306 177.609C29.0616 174.076 27.6856 170.413 26.1132 166.684C24.9993 164.068 24.0165 161.32 22.9682 158.572C22.5096 157.33 22.1165 156.152 21.6578 154.909C22.3785 156.937 23.1648 158.965 23.8855 160.993ZM121.248 5.168C121.313 5.23342 121.313 5.29883 121.379 5.42967C121.379 5.49509 121.379 5.5605 121.379 5.62592C121.117 5.49509 121.182 5.42967 121.248 5.168ZM121.248 46.7736C122.034 48.5399 121.379 51.1566 121.379 53.1192C121.051 51.222 120.855 48.867 121.248 46.7736ZM121.051 61.4926C120.986 65.3523 120.855 69.1465 120.789 73.0061C120.593 71.9595 120.396 70.8474 120.265 69.8007C120.396 65.8102 120.527 61.7543 120.658 57.7638C120.92 58.0909 121.117 60.6422 121.051 61.4926ZM120.331 40.8861C120.986 42.129 120.331 44.5494 120.331 46.0541C120.003 44.4186 120.2 42.6523 120.331 40.8861ZM120.003 3.59797C120.134 3.79423 120.134 3.92506 120.003 4.0559C120.003 3.99048 120.003 3.79423 120.003 3.59797ZM119.086 60.4459C119.282 57.3059 119.413 54.1004 119.61 50.9604C120.2 51.8762 119.806 56.6517 119.61 58.2217C119.61 58.9413 119.544 59.7264 119.544 60.4459C119.413 61.1655 119.675 63.586 119.348 63.9131C119.544 62.8664 118.824 62.016 119.086 60.4459ZM117.906 3.53256C118.037 3.72881 118.103 4.12131 117.972 4.38299C117.906 4.18673 117.906 3.85964 117.906 3.53256ZM117.644 1.57002C117.841 1.76628 117.841 2.28962 117.906 2.55129C117.906 2.81296 117.841 2.81296 117.644 2.9438C117.579 2.48587 117.644 2.09337 117.644 1.57002ZM115.482 146.666C115.875 149.741 116.268 152.816 116.661 155.89C116.268 154.975 115.875 153.993 115.548 153.077C115.417 151.9 115.286 150.657 115.089 149.479C114.63 145.62 114.172 141.826 113.713 137.966C113.648 136.788 113.517 135.676 113.451 134.499C113.123 131.162 112.861 127.826 112.534 124.49C112.337 121.742 112.075 118.929 111.879 116.182C111.879 115.331 111.813 114.481 111.813 113.696C111.682 111.341 111.551 108.986 111.42 106.565C111.354 104.865 111.289 103.164 111.158 101.463C111.092 100.285 111.092 99.1078 111.027 97.9303C111.027 97.0144 110.961 96.0986 110.961 95.1827C110.896 92.3698 110.83 89.4914 110.765 86.6784C110.765 83.1459 110.765 79.5479 110.765 76.0154C110.83 73.5949 110.83 71.1744 110.896 68.754C111.027 65.0906 111.092 61.4272 111.223 57.7638C111.42 53.3808 111.682 48.9324 111.879 44.5494C112.272 38.1385 112.73 31.7276 113.123 25.3821C113.844 27.0829 113.517 31.1388 113.189 33.1013C113.123 34.606 112.992 36.1106 112.927 37.6152C112.665 42.5869 112.403 47.5587 112.141 52.5304C111.944 57.4367 111.747 62.3431 111.485 67.2494C111.42 71.0436 111.42 74.8378 111.354 78.6321C111.354 83.015 111.42 87.4635 111.42 91.8464C111.485 93.3511 111.551 94.8557 111.616 96.3603C111.879 102.313 112.141 108.201 112.468 114.154C112.599 116.051 112.73 117.948 112.861 119.845C113.385 125.34 113.844 130.901 114.368 136.396C114.696 139.928 115.089 143.265 115.482 146.666ZM113.32 152.881C114.434 155.956 115.482 159.096 115.679 162.563C114.696 160.077 113.713 157.591 112.796 155.04C112.534 153.077 112.272 151.115 111.944 149.152C112.403 150.395 112.861 151.638 113.32 152.881ZM111.682 146.012C112.599 148.694 113.582 151.377 114.499 154.059C113.517 151.311 112.599 148.694 111.682 146.012ZM112.01 174.469C113.385 177.74 114.696 181.076 116.072 184.412C116.072 184.478 116.072 184.543 116.072 184.609C114.696 181.534 113.385 178.394 112.075 175.319C109.847 169.759 107.62 164.133 105.392 158.572C104.475 156.217 103.558 153.797 102.706 151.442C102.051 149.807 101.33 148.564 101.395 146.209C103.033 150.657 104.606 155.105 106.244 159.619C108.144 164.525 110.11 169.497 112.01 174.469ZM111.682 36.0451C111.682 35.7835 111.682 35.5872 111.616 35.3256C111.747 35.391 111.682 35.7181 111.682 36.0451ZM111.682 34.606C111.813 34.6714 111.747 35.0639 111.747 35.2601C111.747 35.0639 111.682 34.8022 111.682 34.606ZM111.813 34.5405C111.813 34.0826 111.813 33.5593 111.813 33.1013C111.944 33.2322 111.813 34.2135 111.813 34.5405ZM111.879 33.0359C111.879 32.578 111.879 32.0547 111.879 31.5967C112.075 31.7276 111.879 32.7088 111.879 33.0359ZM114.106 12.8873C114.63 14.0648 114.499 15.8965 114.303 17.2049C114.106 19.887 113.975 22.5037 113.779 25.1858C113.32 23.1579 113.32 19.9524 113.779 17.1394C113.91 15.7002 113.975 14.3265 114.106 12.8873ZM112.992 15.9619C113.189 13.5415 113.385 11.121 113.648 8.70055C113.975 9.48557 113.582 11.0556 113.385 11.9714C113.254 14.1956 113.058 16.4198 112.927 18.644C112.599 18.2515 112.992 16.7469 112.992 15.9619ZM112.599 21.5224C112.403 24.8587 112.206 28.195 111.944 31.5967C111.747 31.0734 112.01 29.3725 112.075 28.7184C112.272 26.2979 112.468 23.8775 112.599 21.5224ZM108.865 114.873C108.668 110.687 108.472 106.5 108.209 102.379C108.078 99.0424 107.947 95.7061 107.751 92.3698C107.751 90.211 107.751 88.0522 107.685 85.9588C107.685 83.3421 107.685 80.7254 107.62 78.1087C107.685 75.1649 107.685 72.2211 107.751 69.2773C107.882 66.5952 107.947 63.9131 108.078 61.231C108.144 59.5955 108.144 57.9601 108.209 56.3246C108.472 50.895 108.799 45.4653 109.061 40.0356C109.323 35.7835 109.585 31.5967 109.913 27.3446C110.11 24.5316 110.306 21.7841 110.503 18.9711C110.765 16.1582 111.027 13.3452 111.289 10.5322C111.354 11.3173 111.485 12.1023 111.551 12.8873C111.944 15.1115 112.206 17.4011 111.813 19.7561C111.747 20.8682 111.616 21.9803 111.551 23.1579C110.961 32.8397 110.372 42.5869 109.782 52.2687C109.651 55.9321 109.52 59.6609 109.323 63.3243C109.258 66.8569 109.192 70.4548 109.061 73.9874C109.061 77.3237 109.061 80.66 109.127 83.9963C109.127 85.6972 109.192 87.4635 109.192 89.1643C109.192 90.2764 109.192 91.3885 109.258 92.566C109.389 95.7715 109.52 98.9116 109.716 102.117C109.847 104.865 109.978 107.612 110.11 110.36C110.241 112.257 110.306 114.154 110.437 115.986C110.83 120.565 111.223 125.079 111.616 129.658C112.075 134.041 112.534 138.424 112.992 142.741C113.189 144.377 113.385 145.947 113.582 147.582C113.058 147.124 112.992 145.881 112.73 145.227C112.141 143.461 111.485 141.695 110.896 139.928C110.83 139.209 110.765 138.489 110.699 137.77C109.651 130.312 109.651 122.658 108.865 114.873ZM100.085 106.173C101.199 110.948 102.378 115.724 103.492 120.565C105.064 125.798 106.244 131.162 107.816 136.265C108.93 139.732 110.044 143.199 111.223 146.732C111.485 148.629 111.682 150.592 111.944 152.489C111.354 150.919 110.83 149.283 110.241 147.713C109.061 144.377 108.013 141.041 106.965 137.573C104.933 130.966 103.23 124.097 101.395 117.163C100.74 114.612 100.15 112.061 99.4953 109.509C99.3643 107.481 99.1677 105.453 99.0367 103.491C98.9056 102.117 98.7746 100.743 98.6435 99.3695C99.1022 101.594 99.5608 103.883 100.085 106.173ZM100.085 142.349C100.085 142.938 100.085 143.526 100.15 144.115C99.7574 142.676 99.1677 141.76 99.1677 139.601C99.4953 140.517 99.8229 141.433 100.085 142.349ZM98.6435 150.199C98.447 149.545 98.1849 148.825 97.9883 148.171C97.9228 145.424 97.7918 142.741 97.7263 139.994C98.7746 141.695 98.7091 144.9 98.7746 147.386C98.6435 148.04 98.8401 149.937 98.6435 150.199ZM98.2504 138.947C97.9228 137.246 97.3331 136.003 97.3331 133.648C97.6607 134.63 97.9228 135.611 98.2504 136.592C98.2504 137.312 98.3159 138.097 98.3159 138.816C98.3159 138.947 98.3159 138.947 98.2504 138.947ZM97.1366 102.51C97.6608 104.734 98.3159 107.023 98.3159 109.771C98.1194 108.79 97.8573 107.874 97.6607 106.893C97.0055 104.407 96.4159 101.725 96.4159 98.7807C96.6124 100.024 96.8745 101.267 97.1366 102.51ZM96.3503 183.366C96.5469 183.824 96.3504 184.74 96.2193 185.328C96.0883 186.44 95.8917 187.618 95.6952 188.665C95.5641 189.58 95.4331 190.562 95.302 191.412C95.3676 190.496 95.4986 189.58 95.6952 188.665C95.8262 187.683 96.0228 186.637 96.1538 185.655C96.1538 185.59 96.2193 185.459 96.2193 185.328C96.2848 184.674 96.3503 184.02 96.3503 183.366ZM93.4675 82.9496C93.8606 85.1084 94.2537 87.3326 94.6468 89.4914C94.7124 90.5381 94.8434 91.5848 94.9089 92.6315C95.04 93.7436 95.1055 94.8557 95.2365 96.0332C94.9089 94.3977 94.5813 92.7623 94.2537 91.1268C93.664 88.3793 93.5985 85.3047 93.0744 82.23C92.8778 80.4638 92.6812 78.7629 92.4847 76.9966C92.8123 78.9592 93.1399 80.9871 93.4675 82.9496ZM91.764 65.2214C92.0916 67.7073 92.3537 70.1932 92.6813 72.7445C92.5502 71.9595 92.4847 71.2399 92.3537 70.4548C91.9605 67.6419 91.5674 64.8289 91.1743 62.016C90.7157 58.418 90.257 54.82 89.7984 51.1566C89.4053 47.8203 88.9466 44.484 88.5535 41.1477C89.0777 44.8765 89.5363 48.6053 90.0605 52.3342C90.6501 56.5863 91.2398 60.9039 91.764 65.2214ZM91.9605 198.543C91.6984 198.281 91.5674 198.019 91.3709 197.692C91.5674 197.365 91.6985 197.038 91.895 196.646C92.0916 196.776 92.2226 196.842 92.5502 196.907C92.4192 197.496 92.2226 198.019 91.9605 198.543ZM89.7329 172.964C89.6018 174.142 89.5363 175.385 89.4053 176.562C89.4708 179.768 88.4225 183.235 88.1604 186.31C87.8328 185.132 88.488 182.646 88.7501 181.272C89.0121 178.983 89.2742 176.759 89.5363 174.469C89.6673 172.637 89.8639 170.74 89.9949 168.908C90.3225 169.89 89.6018 171.918 89.7329 172.964ZM89.0121 185.001C89.6018 182.188 89.6673 179.048 90.1915 176.104C90.257 175.189 90.3225 174.338 90.3881 173.422C90.5846 170.544 90.7812 167.666 90.9777 164.787C90.9777 163.806 90.9777 162.89 91.0433 161.909C91.5674 158.638 90.7812 154.713 91.1088 151.377C91.0433 149.087 91.0433 146.797 90.9777 144.508C91.1743 137.77 89.9294 130.639 89.8639 123.836C90.7812 125.34 90.5191 127.303 90.9122 129.462C91.1088 132.732 91.3053 135.938 91.5019 139.209C91.5019 139.994 91.5019 140.844 91.5674 141.629C92.1571 145.227 91.3708 149.087 91.8295 152.881C91.8295 154.189 91.8295 155.432 91.8295 156.741C91.8295 158.376 91.764 160.012 91.764 161.647C91.764 162.563 91.764 163.479 91.6985 164.329C91.5019 167.273 91.3053 170.282 91.0433 173.226C90.7157 175.777 90.4536 178.329 90.126 180.88C89.6673 183.17 89.1432 185.525 88.8156 187.749C88.6845 186.768 88.8156 185.852 89.0121 185.001ZM89.5363 121.154C89.1432 116.378 88.7501 111.603 88.3569 106.827C88.488 107.547 88.6845 108.266 88.8156 108.986C89.1432 110.163 89.2742 111.733 89.5363 113.369C89.6018 114.35 89.6673 115.331 89.7329 116.313C89.9294 118.929 90.126 121.546 90.3881 124.163C90.126 123.116 89.8639 122.135 89.5363 121.154ZM89.4708 200.309C89.6018 200.113 89.7984 199.916 89.9294 199.655C90.1915 199.851 90.4536 200.113 90.7157 200.309C90.257 200.701 89.9294 200.571 89.4708 200.374V200.309ZM90.5846 199.197C90.5191 199.131 90.5191 199.001 90.4536 198.935C90.6501 198.739 90.7812 198.477 90.9777 198.281C91.1743 198.543 91.3708 198.804 91.6329 199.131C91.5674 199.262 91.5674 199.393 91.5019 199.524C91.1088 199.524 90.9122 199.393 90.5846 199.197ZM87.6362 93.9398C88.2259 96.6219 88.7501 100.024 88.7501 103.098C88.0949 99.1732 86.9155 94.7902 86.981 90.3418C87.1776 91.5848 87.3742 92.7623 87.6362 93.9398ZM79.7083 39.1852C80.167 42.5869 80.6256 45.9232 81.0843 49.3249C81.2153 50.6333 81.2808 51.8762 81.4118 53.1846C82.2636 59.7918 83.0499 66.4644 83.9016 73.0716C84.2947 76.9312 84.7534 80.8563 85.1465 84.7159C84.8844 83.2767 84.6878 81.9029 84.4258 80.4638C83.705 76.9312 83.574 73.5295 82.8533 69.8007C82.1326 64.5018 81.4774 59.203 80.7567 53.9696C80.6256 52.3996 80.4946 50.895 80.3635 49.3249C79.9049 44.484 79.5118 39.7085 79.0531 34.8676C79.2497 36.3068 79.4463 37.746 79.7083 39.1852ZM84.1637 96.949C83.1809 91.7156 82.1981 86.5476 81.2808 81.3142C80.6911 77.1929 80.1014 73.0716 79.5118 69.0157C79.2497 66.726 78.9221 64.4364 78.66 62.1468C78.3979 60.0534 78.1359 57.9601 77.8738 55.8667C77.6117 52.2033 77.2841 48.5399 77.022 44.8765C76.891 42.7832 76.6944 40.6244 76.5634 38.531C76.0392 35.7181 75.9082 32.6434 75.9737 28.98C76.6944 30.0267 76.6289 32.9051 76.891 34.4097C77.5462 38.7927 78.1359 43.1103 78.7911 47.4932C79.6428 54.1658 80.4291 60.8385 81.2808 67.5111C81.4774 69.2119 81.6084 70.8474 81.805 72.5482C82.2636 76.6695 82.7222 80.8563 83.1809 84.9776C83.443 88.9681 83.7706 92.9585 84.1637 96.949ZM84.2292 91.781C83.7706 87.3326 83.3119 82.8842 82.8533 78.4358C83.3119 81.0525 83.7706 83.7346 84.2292 86.3513C86.1293 93.5473 86.9155 103.164 87.6362 113.173C86.719 109.313 85.8672 105.453 85.0154 101.594C84.7534 98.3228 84.4913 95.0519 84.2292 91.781ZM87.5052 176.235C87.6362 174.142 87.8328 172.114 87.9638 170.021C88.0294 168.189 88.0949 166.423 88.1604 164.591C88.2259 163.61 88.2259 162.694 88.2914 161.713C88.2914 161.255 88.2914 160.797 88.2914 160.339C88.2259 156.152 88.2259 151.965 88.1604 147.779C88.0949 145.031 88.0294 142.283 87.8983 139.536C87.6362 135.415 87.3741 131.293 87.1121 127.172C86.85 123.836 86.5224 120.499 86.2603 117.098C85.9327 113.369 85.6706 109.64 85.343 105.911C85.8672 106.5 86.1948 109.967 86.5224 111.014C86.981 113.042 87.5052 115.135 87.9638 117.163C88.1604 120.172 88.3569 123.116 88.619 126.125C88.8811 130.377 89.1432 134.564 89.4053 138.816C89.4708 140.256 89.4708 141.695 89.5363 143.199C89.5363 145.62 89.6018 148.04 89.6018 150.526C89.6018 153.012 89.6018 155.432 89.6018 157.918C89.5363 160.012 89.4708 162.105 89.4053 164.133C89.3397 166.03 89.2087 167.927 89.1432 169.759C88.9466 172.114 88.6845 174.404 88.488 176.759C88.1604 179.31 87.7673 181.861 87.4397 184.478C87.1776 184.02 86.981 183.497 86.7845 182.973C86.981 180.684 87.2431 178.459 87.5052 176.235ZM87.7017 188.338C87.7017 188.403 87.7017 188.534 87.7017 188.599C87.5707 188.468 87.5052 188.272 87.5052 187.945C87.5707 188.076 87.6362 188.207 87.7017 188.338ZM87.1776 189.188C87.5052 189.646 87.4397 190.823 86.9155 191.15C86.5224 190.823 87.1121 189.777 87.1776 189.188ZM86.7845 201.748C86.5879 201.814 86.4569 201.879 86.2603 201.944C85.4741 201.683 84.8844 201.029 84.6223 200.244C85.4741 200.244 85.6706 200.505 86.3258 200.636C86.4569 200.963 86.6534 201.356 86.7845 201.748ZM86.981 186.637C86.719 186.179 86.5879 185.655 86.3913 185.132C86.5879 185.655 86.7845 186.179 86.981 186.637ZM86.3258 189.646C85.6051 188.73 86.1293 187.683 86.1948 186.571C86.85 187.553 86.5224 188.468 86.3258 189.646ZM86.0638 184.151C86.0638 184.216 86.0638 184.282 86.0638 184.412C83.8361 178.394 81.6084 172.31 79.4463 166.292C78.66 164.068 77.8738 161.843 77.0875 159.619C80.1015 167.731 83.0498 175.974 86.0638 184.151ZM41.8379 19.4945C42.0345 19.6907 42.1 20.2141 42.1 20.5412C41.969 20.5412 41.9034 20.5412 41.7724 20.4757C41.8379 20.2141 41.8379 19.8216 41.8379 19.4945ZM41.3793 26.5596C42.1655 30.6809 42.9517 34.7368 43.6725 38.8581C45.8346 49.7174 47.9968 60.5114 50.1589 71.3707C51.7314 78.5012 53.3039 85.6318 54.8763 92.7623C58.4144 105.846 61.2973 118.799 65.1629 131.359C66.8009 136.723 68.4389 142.087 70.2735 147.321C70.9287 149.349 71.5839 151.377 72.2391 153.404C73.6805 157.591 75.1875 161.778 76.6289 165.965C75.384 162.367 74.0736 158.769 72.8288 155.171C69.8804 147.582 67.5872 139.667 65.0974 131.751C60.511 117.163 56.8419 102.052 52.9763 86.613C50.8796 78.3704 49.6348 69.9969 47.6037 61.558C46.2933 54.7546 44.9173 47.9512 43.6069 41.1477C43.1483 38.8581 42.7552 36.6339 42.2966 34.3443C41.7724 31.793 41.3138 29.5034 41.3793 26.5596ZM77.5462 185.917C78.7255 188.926 79.8394 191.935 81.0187 194.879C80.3635 194.029 80.0359 192.851 79.6428 191.805C78.5945 189.45 77.6772 186.964 76.6944 184.478C73.615 176.693 70.9942 168.647 67.9148 160.731C61.8214 144.966 57.0385 128.48 51.928 111.733C50.29 106.369 49.3072 100.939 47.8002 95.5098C46.2277 89.7531 45.1794 83.8655 43.738 77.9779C42.6241 73.5949 41.4448 69.2119 41.5758 63.7822C42.7552 69.4082 43.869 75.0341 45.0484 80.66C47.9968 92.566 50.3555 104.537 53.8935 115.986C58.2834 130.377 62.2801 144.769 67.5872 158.311C68.7665 161.647 69.9459 164.983 71.1252 168.385C73.2874 174.273 75.384 180.095 77.5462 185.917ZM40.9206 71.6324C40.9206 72.4828 40.9862 73.3332 40.9862 74.1182C41.1827 76.8004 41.3793 79.5479 41.5758 82.23C41.1827 80.4638 40.7896 78.6975 40.3965 76.9312C40.1999 72.6136 40.0034 68.3615 39.7413 64.0439C39.9378 64.8944 40.0689 65.8102 40.2654 66.6606C40.7241 67.969 40.6586 69.9315 40.9206 71.6324ZM40.3965 21.7841C40.7241 22.3728 40.462 23.4195 40.462 23.9429C40.1344 23.3541 40.331 22.4383 40.3965 21.7841ZM39.5447 52.9883C39.6758 53.5771 39.7413 54.1658 39.8723 54.7546C40.331 56.7171 40.462 59.0722 40.3965 61.3618C40.331 60.8384 40.1999 60.3805 40.1344 59.8572C39.6758 57.8947 39.4792 55.4088 39.5447 52.9883ZM39.0861 64.5673C39.2171 66.9877 39.2826 69.4082 39.4137 71.8286C39.0861 70.324 38.824 68.8848 38.5619 67.3802C38.4309 63.4552 38.3654 59.4647 38.2343 55.5396C38.955 57.0442 38.6274 59.3993 39.0861 61.9506C39.0861 62.801 39.0861 63.7168 39.0861 64.5673ZM38.1688 44.7457C39.0861 46.7082 38.6274 49.9791 38.824 52.465C38.2998 50.1754 38.1033 47.6895 38.1688 44.7457ZM37.5791 16.8778C37.5791 16.9432 37.6446 17.0086 37.6446 17.074C37.5136 16.9432 37.5136 16.8778 37.5791 16.8778ZM37.3171 15.8311C37.3826 16.0273 37.4481 16.2236 37.5136 16.4198C37.3826 16.4853 37.3826 16.4853 37.3171 16.6161C37.2515 16.3544 37.2515 16.0928 37.3171 15.8311ZM35.4825 14.1956C35.6135 14.6536 35.7446 15.1115 35.8756 15.5694C35.7446 15.6348 35.6135 15.6348 35.4825 15.6348C35.2204 15.2423 35.417 14.6536 35.4825 14.1956ZM33.3859 73.9874C34.0411 82.3609 34.6963 90.7343 35.3515 99.1078C36.1377 105.846 36.9239 112.649 37.6446 119.387C38.6274 126.06 39.6102 132.667 40.5275 139.34C40.1344 138.358 39.7413 137.377 39.4137 136.461C39.0861 134.172 38.7585 131.947 38.4309 129.658C37.3171 123.836 37.055 117.556 36.0067 111.603C35.8101 109.836 35.6791 108.07 35.4825 106.304C34.6963 101.79 34.8928 97.0144 34.1066 92.3698C33.9755 90.6035 33.91 88.8372 33.779 87.0709C33.4514 82.3609 33.0583 77.5854 32.7307 72.8753C32.6651 71.3053 32.5996 69.6698 32.5341 68.0998C32.4031 64.9598 32.272 61.8197 32.141 58.6797C32.141 57.9601 32.141 57.3059 32.141 56.5863C32.0755 53.7079 32.0755 50.895 32.01 48.0166C32.01 46.2503 32.01 44.484 31.9444 42.7177C31.5513 38.7927 31.9444 34.8676 32.0755 31.008C32.9927 32.9051 32.4031 38.9235 32.4031 41.8673C32.4686 47.297 32.5996 52.7921 32.6651 58.2217C32.7307 60.9693 32.7962 63.7168 32.9272 66.4644C33.1238 69.0157 33.2548 71.5015 33.3859 73.9874ZM41.0517 146.797C42.2966 148.498 42.8862 153.862 43.2138 156.545C42.231 155.236 41.1172 149.152 41.0517 146.797ZM44.0001 161.647C43.5414 160.404 42.8207 159.096 42.7552 157.657C43.2138 158.311 43.9345 160.731 44.0001 161.647ZM39.0206 144.639C37.8412 141.695 36.7274 138.424 36.5963 134.891C36.9895 135.938 37.3826 136.985 37.7757 138.031C39.0206 141.171 39.7413 144.181 40.1344 147.844C39.8068 146.797 39.4137 145.685 39.0206 144.639ZM40.9206 152.358C40.0689 149.937 39.2171 147.517 38.3654 145.096C38.6274 145.816 38.8895 146.536 39.1516 147.255C39.7413 148.891 40.5275 150.592 40.9206 152.358ZM38.693 138.62C38.1688 136.003 36.2032 133.779 36.0067 131.097C36.5308 131.686 38.693 137.639 38.693 138.62C38.7585 138.62 38.7585 138.62 38.693 138.62ZM36.6619 138.358C36.2687 137.508 35.9411 136.658 35.6135 135.873C34.8273 134.041 34.1066 132.209 33.3859 130.443C30.6996 124.032 27.7512 118.079 24.6717 112.061C23.4924 109.836 22.2475 107.547 21.0682 105.322C22.9682 107.35 24.3441 109.771 25.7856 112.257C28.5374 116.901 30.7651 121.873 33.1893 126.976C34.7618 130.181 36.5308 133.714 36.6619 138.358ZM24.6717 129.658C25.7201 132.144 26.8339 134.695 27.8822 137.312C29.9788 142.611 31.8789 148.106 33.9755 153.535C35.1549 157.133 36.3343 160.666 37.5136 164.264C38.4964 167.208 39.4137 170.151 40.3965 173.095C41.0517 175.058 42.0345 176.824 41.969 179.441C40.3965 174.927 38.824 170.348 37.2515 165.834C34.4342 156.937 31.7479 148.171 28.4064 139.667C26.6373 135.218 24.9338 130.835 23.1648 126.387C23.6889 127.434 24.1476 128.546 24.6717 129.658ZM40.462 142.938C40.9862 143.657 41.4448 145.227 41.5758 146.143C41.1827 145.554 40.5275 143.723 40.462 142.938ZM32.7307 22.0458C33.4514 23.4849 32.6651 28.9146 32.5996 31.008C31.6168 28.9146 32.6651 24.597 32.7307 22.0458ZM31.9444 24.0083C32.0755 22.5037 32.2065 20.9991 32.3376 19.4945C32.6651 20.1486 31.8789 24.5316 31.8789 25.9054C31.6824 25.4475 31.8789 24.5316 31.9444 24.0083ZM32.9272 105.977C32.5996 102.837 32.272 99.6966 31.9444 96.5565C31.8789 95.1827 31.8134 93.809 31.7479 92.4352C31.6168 90.6689 31.4858 88.8372 31.2892 87.0709C31.2237 85.6318 31.0927 84.1271 31.0272 82.688C30.7651 79.3517 30.5685 76.0154 30.3064 72.7445C30.2409 71.3707 30.2409 70.0623 30.1754 68.6886C30.0444 63.9131 29.8478 59.203 29.7168 54.4275C29.7168 51.9416 29.6512 49.4558 29.6512 46.9699C29.6512 43.6336 29.6512 40.2319 29.7168 36.8956C29.1926 32.578 30.1099 26.5596 30.503 21.3262C31.4203 22.4383 31.0272 28.7184 30.8306 30.8771C30.5685 33.6247 30.503 37.4189 30.7651 39.7085C30.7651 41.7365 30.7651 43.8298 30.8306 45.8578C30.8306 48.7362 30.8961 51.6146 30.8961 54.4929C30.8961 55.8013 30.9616 57.1751 30.9616 58.4834C31.2237 63.7168 31.4203 69.0157 31.6824 74.2491C32.141 80.2021 32.5341 86.1551 32.9927 92.1081C33.0583 93.2202 33.1238 94.3323 33.2548 95.379C33.779 100.285 34.3031 105.192 34.8273 110.098C35.3515 114.219 35.8756 118.341 36.3998 122.396C36.8584 125.537 37.3171 128.677 37.7757 131.817C37.5136 131.228 37.2515 130.574 36.9895 129.985C36.2032 128.153 35.4825 126.649 35.0239 124.49C33.9755 118.929 33.91 111.995 32.9272 105.977ZM22.6406 104.472C23.6889 105.78 24.6062 107.35 25.3925 108.855C26.0477 109.967 26.7684 111.145 27.4236 112.257C29.0616 115.462 30.634 118.668 32.141 122.004C32.8617 123.574 33.5169 125.144 34.2376 126.714C34.6963 127.761 35.3515 128.742 35.417 130.116C34.8928 129.004 34.3687 127.892 33.91 126.845C32.9272 124.752 32.0755 122.658 31.0272 120.63C29.4547 117.556 28.0132 114.546 26.3097 111.668C25.3925 110.229 24.7373 108.659 23.6889 107.35C22.8372 106.304 21.9854 105.257 21.1992 104.276C20.675 103.752 20.1509 103.295 19.6267 102.771C19.2336 102.117 18.775 101.397 18.3818 100.743C17.8577 100.089 17.399 99.4349 16.8749 98.7807C19.4957 99.9582 21.0026 102.379 22.6406 104.472ZM8.81595 93.7436C10.0608 94.0706 10.716 94.1361 11.5023 94.9211C11.1091 94.9865 10.716 94.9865 10.3229 95.0519C10.0608 95.1827 9.86427 95.379 9.60219 95.5098C9.34011 95.4444 9.14355 95.379 8.88147 95.3136C8.02972 95.1827 7.44004 95.5098 6.9814 95.7715C7.24348 94.7248 8.02972 94.2015 8.81595 93.7436ZM10.8471 106.827C11.0436 107.35 10.585 107.808 10.3884 108.201C10.3884 107.743 10.4539 107.22 10.585 106.696C10.6505 106.762 10.716 106.827 10.8471 106.827ZM10.9126 105.584C10.9781 105.65 11.0436 105.715 11.1091 105.78C11.1091 105.911 11.1091 105.977 11.0436 106.107C10.9781 106.042 10.9126 106.042 10.8471 105.977C10.7815 105.846 10.8471 105.78 10.9126 105.584ZM9.47115 97.1453C9.47115 97.0144 9.60219 97.0144 9.66771 97.0144C9.66771 97.0798 9.60219 97.1453 9.47115 97.1453ZM9.53667 108.593C9.53667 108.463 9.53667 108.266 9.47115 108.135C9.60219 108.201 9.60219 108.266 9.53667 108.593ZM9.60219 96.6873C9.66771 96.5565 9.73323 96.4911 9.79875 96.3603C9.99531 96.4911 10.1919 96.6219 10.3884 96.7528C10.1263 96.6874 9.86427 96.6873 9.60219 96.6873ZM9.66771 106.369C9.73323 106.369 9.86427 106.369 9.92979 106.435C9.86427 106.762 9.79875 107.089 9.73323 107.481C9.53667 107.154 9.60219 106.762 9.66771 106.369ZM10.3884 109.509C10.3229 110.36 10.1263 111.079 9.92979 111.799C9.66771 111.079 10.2574 110.098 10.3884 109.509ZM10.2574 105.65C10.1263 105.65 9.99531 105.65 9.79875 105.65C9.79875 105.322 9.86427 105.061 9.86427 104.734C10.0608 104.799 10.1919 104.865 10.3884 104.93C10.3884 105.126 10.3229 105.388 10.2574 105.65ZM9.01251 96.2294C8.88147 96.4911 8.75043 96.6873 8.6194 96.949C8.35732 96.949 8.09524 96.949 7.83316 97.0144C8.09524 96.6219 8.42284 96.4911 8.81595 96.2294C8.88147 96.2294 8.94699 96.2294 9.01251 96.2294ZM8.2918 95.9678C8.35732 95.9678 8.42284 95.9678 8.55387 95.9678C7.83316 96.5565 7.309 97.2107 6.58828 97.734C6.9814 96.7528 7.44004 96.4911 8.2918 95.9678ZM5.9986 128.873C8.09524 137.573 9.99531 145.881 12.8127 153.732C14.2541 157.657 15.6955 161.516 17.137 165.441C17.8577 167.273 18.6439 169.105 19.3646 170.936C18.4474 169.824 17.8577 167.6 17.268 166.226C15.8921 162.955 14.5817 159.554 13.2713 156.152C9.99531 147.844 7.76764 139.013 5.47445 129.592C4.88477 127.172 4.68821 124.817 4.22957 122.266C3.18126 116.574 2.78814 108.659 4.22957 103.229C4.16405 104.014 4.09853 104.865 4.03301 105.65C3.77093 107.285 3.57437 110.49 3.83645 112.257C3.90197 113.761 4.03301 115.201 4.09853 116.705C4.75373 120.826 5.01581 124.948 5.9986 128.873ZM5.08133 99.4349C5.14685 99.4349 5.21237 99.4349 5.27789 99.4349C4.88477 100.22 4.68821 101.136 4.22957 101.79C4.03301 101.725 3.77093 101.725 3.57437 101.659C3.63989 100.482 4.22957 100.024 5.08133 99.4349ZM3.24678 102.117C3.44333 102.117 3.63989 102.117 3.83645 102.182C3.18126 103.622 2.72262 105.453 2.72262 107.35C2.39502 106.435 3.11574 103.033 3.24678 102.117ZM41.2482 210.71C40.8551 210.58 40.462 210.187 40.1999 209.86C40.7896 210.056 40.9862 210.318 41.2482 210.71ZM41.8379 211.626C40.5275 211.495 39.5447 210.252 38.955 209.206C39.0206 209.206 41.8379 211.626 41.8379 211.626ZM27.1615 189.384C29.1271 193.178 31.0272 197.038 32.9927 200.832C33.9755 202.468 34.9583 204.038 35.8756 205.673C36.7929 206.982 37.9723 208.29 38.7585 209.795C36.1377 208.552 34.6307 206.197 33.1238 203.907C30.1754 199.459 27.5546 194.356 25.1959 189.384C23.7545 186.506 22.2475 183.693 20.8061 180.814C17.7922 174.011 14.5162 167.535 11.9609 160.404C10.7815 157.068 9.60219 153.732 8.35732 150.395C7.57108 147.844 6.78484 145.227 6.06412 142.676C5.67101 141.171 5.27789 139.667 4.88477 138.162C4.09853 134.499 3.24677 130.901 2.46054 127.237C1.28118 122.069 0.494945 114.35 0.757024 110.294C0.953583 107.416 0.822544 104.603 2.39502 102.51C2.46054 102.575 2.26398 104.472 2.19846 104.93C1.87086 106.631 1.73982 110.818 2.13294 112.976C2.39502 115.593 2.72262 118.21 2.9847 120.826C3.18126 122.2 3.44333 123.509 3.63989 124.882C4.88477 129.331 5.60549 134.695 7.04692 139.405C12.1575 156.545 18.8405 174.273 27.1615 189.384ZM11.8299 126.845C13.2058 133.19 14.3196 139.405 16.2197 145.293C17.399 149.021 18.6439 152.75 19.8233 156.479C19.5612 155.694 19.2336 154.844 18.9715 154.059C18.3163 152.162 17.6611 150.264 17.0059 148.367C14.3851 140.975 12.6816 133.06 10.9126 124.752C10.1919 121.219 9.20907 115.266 10.4539 111.603C10.4539 113.238 10.5195 114.873 10.5195 116.509C10.585 117.556 10.6505 118.602 10.7815 119.584C11.1747 122.004 11.5023 124.424 11.8299 126.845ZM11.8954 110.818C11.5678 110.033 11.1747 109.248 11.8954 108.463C11.8954 109.182 11.8954 110.033 11.8954 110.818ZM11.6988 107.874C11.6988 107.808 11.6988 107.743 11.6988 107.612C11.8299 107.678 11.8299 107.612 11.8954 107.743C11.8299 107.808 11.7643 107.808 11.6988 107.874ZM11.6988 96.7528C11.3057 96.4911 10.9126 96.2294 10.5195 95.9023C10.6505 95.7061 10.8471 95.6407 10.9781 95.5752C12.6161 95.5752 13.861 96.7528 14.3851 97.8649C13.861 97.5378 13.3368 97.2761 12.8127 96.949C12.4195 96.949 12.0264 96.8836 11.6988 96.7528ZM41.6414 186.31C41.5758 186.44 41.6414 186.375 41.5103 186.44C40.3965 185.394 40.0689 183.235 39.3482 181.73C37.3171 177.282 36.3998 172.572 34.6963 168.254C34.0411 166.161 33.3859 164.068 32.7307 162.04C32.0099 159.881 31.2892 157.657 30.5685 155.498C29.9133 153.535 29.1926 151.573 28.5374 149.676C26.6373 145.031 25.458 140.517 23.4269 136.265C22.3785 133.583 21.3302 130.835 20.2819 128.153C18.9715 125.144 17.5956 122.135 16.2852 119.126C15.2369 117.032 14.1231 114.939 13.0747 112.911C13.0747 111.603 13.0747 110.36 13.0747 109.051C13.9265 109.444 14.7783 111.603 15.2369 112.453C17.2025 115.724 18.8405 119.322 20.413 122.92C24.2131 131.49 27.4236 140.517 30.8961 149.545C32.9272 155.629 34.9583 161.647 36.9239 167.731C38.4964 172.245 39.8068 176.889 41.5103 181.207C42.0345 182.319 42.4931 184.936 41.6414 186.31ZM42.4276 179.244C42.8207 179.768 43.738 182.515 43.6069 183.104C42.8862 181.6 42.4931 180.945 42.4276 179.244ZM44.3932 185.459C44.0656 185.067 43.8035 184.609 43.5414 184.216C43.738 184.151 43.9345 184.02 44.1311 183.955C44.4587 184.347 44.5242 184.87 44.3932 185.459ZM46.2933 186.31C46.2933 186.113 46.2933 186.244 46.3588 186.048C46.3588 186.113 46.3588 186.179 46.4243 186.244C46.3588 186.31 46.2933 186.31 46.2933 186.31ZM47.8002 190.431C47.4071 190.235 47.2105 189.58 47.014 189.188C47.145 189.253 47.2761 189.319 47.4071 189.45C47.6692 189.58 47.8657 189.45 48.0623 189.384C47.9313 189.711 47.8657 190.038 47.8002 190.431ZM46.5553 187.095C46.6209 186.964 46.6209 186.833 46.6864 186.702C46.8829 186.964 47.0795 187.16 47.2761 187.422C47.5381 187.487 47.6692 187.422 47.9313 187.356C47.8657 187.814 47.8002 188.272 47.6692 188.73C47.2105 188.272 46.8829 187.683 46.5553 187.095ZM45.3105 132.798C43.869 125.471 43.6069 118.079 42.2966 110.687C41.3793 105.584 41.4448 100.22 40.5275 94.9211C39.9378 91.4539 40.1344 87.7251 39.5447 84.0617C39.2826 79.8096 39.0206 75.492 38.693 71.2399C38.824 71.894 38.955 72.5482 39.0861 73.2024C39.2826 74.1837 39.4792 75.2303 39.6758 76.2116C39.8068 78.3704 39.9378 80.5292 40.0689 82.688C40.1999 84.8467 40.3965 86.9401 40.5275 89.0989C41.1172 94.7902 41.7069 100.482 42.2966 106.238C42.5586 108.659 42.8862 111.079 43.1483 113.5C44.1966 120.826 45.2449 128.153 46.2277 135.48C46.5553 137.9 46.9485 140.321 47.2761 142.807C49.1106 153.797 50.8796 164.853 52.7142 175.908C52.2556 174.534 51.7969 173.226 51.4038 171.852C49.4382 158.703 47.4071 145.751 45.3105 132.798ZM51.6659 187.16C51.4038 186.702 51.0762 186.375 51.2072 185.786C51.2728 185.786 51.4038 185.786 51.4693 185.721C51.6659 185.982 51.6659 186.702 51.6659 187.16ZM49.8313 186.833C49.9624 186.833 50.0279 186.833 50.1589 186.898C50.1589 186.964 50.0934 187.029 50.0934 187.095C50.0279 187.095 49.9624 187.095 49.8313 187.029C49.8313 186.964 49.8313 186.898 49.8313 186.833ZM51.4693 191.412C50.9452 190.889 50.0279 188.338 49.8968 187.487C50.421 187.487 50.552 187.16 50.6176 186.833C50.8141 187.422 51.2072 187.553 51.6004 188.207C51.9935 188.599 51.5348 191.02 51.4693 191.412ZM52.059 192.328C51.928 192.328 51.8624 192.263 51.7969 192.263C52.059 191.478 52.3211 190.823 52.3211 189.711C52.6487 190.431 52.19 191.739 52.059 192.328ZM53.3039 186.113C52.7142 185.132 52.7142 183.039 52.7142 181.6C53.5004 182.842 53.6315 184.543 53.3039 186.113ZM55.5971 183.562C55.5971 184.609 55.5315 185.525 55.335 186.244C54.6143 185.655 54.4177 184.609 54.4832 183.3C54.8108 183.497 55.335 183.627 55.5971 183.562ZM43.9345 104.865C44.5242 109.378 45.1139 113.827 45.7036 118.341C46.2277 122.135 46.7519 125.994 47.2761 129.789C47.6692 132.34 47.9968 134.826 48.3899 137.377C49.5037 143.984 50.6176 150.592 51.6659 157.199C52.6487 162.955 53.6315 168.712 54.5487 174.534C54.8763 175.974 55.466 180.88 55.0074 182.057C54.6798 181.469 54.4177 180.749 54.1556 180.095C54.0901 179.31 54.0246 178.525 53.8935 177.805C53.5659 175.647 53.2384 173.488 52.8452 171.329C51.5348 163.217 50.1589 155.171 48.8485 147.059C47.2105 139.143 46.6209 130.639 45.1139 122.527C44.7208 119.78 44.3932 116.967 44.0001 114.219C43.6725 111.275 43.3449 108.266 42.9518 105.322C42.5586 101.725 42.1655 98.1265 41.7724 94.4632C41.3138 91.781 41.4448 88.9681 40.9862 86.1551C40.8551 84.3888 40.7241 82.6225 40.593 80.8563C40.7241 81.445 40.8551 82.0338 40.9862 82.6225C41.2482 83.7346 41.5103 84.8467 41.7724 85.8934C41.8379 86.9401 41.969 88.0522 42.0345 89.0989C42.7552 94.3323 43.3449 99.6311 43.9345 104.865ZM80.8222 199.72C78.7255 199.001 77.4807 194.291 76.5634 192.197C73.2219 184.936 70.9287 177.217 67.9803 169.693C65.425 162.563 62.8698 155.432 60.249 148.302C59.2007 145.162 58.0868 141.956 57.0385 138.816C55.7936 134.891 54.5487 131.032 53.2383 127.107C51.9935 122.789 50.7486 118.471 49.4382 114.154C47.8657 109.444 47.145 104.799 45.7691 100.024C44.9173 96.6873 44.0656 93.351 43.2794 89.9493C42.6242 87.1364 43.0828 83.9309 42.4931 80.9871C42.3621 79.2208 42.231 77.4545 42.1 75.6883C43.2138 80.66 44.3277 85.5663 45.507 90.5381C46.3588 93.8744 47.145 97.2107 47.9968 100.547C48.5864 102.771 49.1761 104.995 49.7658 107.285C51.6659 112.976 52.9108 119.126 54.9419 125.209C59.5282 138.751 63.787 152.947 68.8976 166.226C70.2735 170.151 71.7149 174.076 73.0908 178.002C74.9909 182.973 76.9565 187.88 78.8566 192.851C79.5773 194.421 80.298 195.991 81.0187 197.561C81.3463 198.019 81.6084 198.543 81.936 199.001C81.6739 199.328 81.3463 199.589 80.8222 199.72ZM82.3291 198.281C82.1326 197.954 81.936 197.627 81.7394 197.234C82.067 197.431 82.3291 197.758 82.3291 198.281C82.3946 198.281 82.3946 198.281 82.3291 198.281ZM78.4635 168.778C74.4668 157.657 70.7321 146.47 67.063 134.957C62.8042 121.546 59.6593 107.743 55.9247 93.7436C53.7625 85.5663 52.5832 77.2583 50.4865 68.9502C48.0623 59.1376 46.6209 48.867 44.4587 38.8581C43.869 36.0451 43.4759 33.1013 42.8207 30.1576C42.1655 27.2138 41.5103 24.4008 41.9034 21.1953C42.5586 22.0458 42.5586 23.6812 42.8207 24.7933C43.3449 27.6717 43.869 30.5501 44.3932 33.4284C46.4243 43.3065 48.3899 53.1846 50.421 62.9972C52.3866 71.109 53.7625 79.4171 55.7936 87.4635C56.3178 89.9493 56.9075 92.4352 57.4316 94.9211C58.8075 100.416 60.1834 105.911 61.6249 111.341C63.1318 116.901 64.7043 122.396 66.2113 127.957C68.3079 134.826 70.4045 141.629 72.6322 148.433C75.5806 157.395 78.5945 166.357 82.0015 175.058C83.3119 178.525 84.6223 181.992 85.9327 185.525C85.8017 186.244 85.7362 186.964 85.6051 187.683C83.1809 181.403 80.8222 175.123 78.4635 168.778ZM84.1637 199.328C84.5568 199.393 84.6878 199.459 84.8189 199.786C84.4913 199.786 84.2947 199.655 84.1637 199.328ZM86.5224 203.384C85.4085 203.318 84.8189 201.814 84.4258 201.029C85.343 201.814 85.5396 202.664 86.981 202.206C87.1121 202.402 87.1776 202.533 87.3086 202.729C87.1121 203.057 86.85 203.253 86.5224 203.384ZM87.5052 200.636C87.5052 200.571 87.5707 200.505 87.7017 200.505C87.7017 200.636 87.7018 200.571 87.6362 200.701C87.6362 200.636 87.5707 200.636 87.5052 200.636ZM87.8328 202.01C87.7673 201.814 87.7017 201.683 87.7017 201.552C87.9638 201.29 88.1604 200.963 88.4225 200.701C88.3569 201.159 88.1604 201.552 87.9638 202.01C87.8983 202.01 87.8328 202.01 87.8328 202.01ZM88.2259 202.729C88.5535 202.206 88.9466 201.617 89.1432 200.963C89.4053 200.898 89.6018 201.159 89.8639 201.225C90.1915 201.29 92.0261 200.505 92.2226 200.374C92.6157 200.963 90.3881 204.038 89.8639 204.365C88.9466 204.365 88.4225 203.449 88.2259 202.729ZM89.9294 204.954C91.4364 204.561 92.4847 201.617 93.0089 200.113C93.0744 200.113 93.1399 200.113 93.2054 200.113C92.6813 201.617 91.6985 205.019 89.9294 204.954ZM93.0089 197.758C93.0744 197.561 93.1399 197.365 93.2709 197.104C93.2709 197.365 93.1399 197.561 93.0089 197.758ZM93.4675 199.524C93.402 199.262 93.4675 199.066 93.5985 198.87C93.533 199.066 93.4675 199.328 93.4675 199.524ZM92.8778 196.253C92.5502 196.057 92.4192 195.926 92.2881 195.795C92.2881 195.795 93.4675 192.197 93.5985 191.805C94.4503 189.057 94.8434 186.113 95.4331 183.104C95.6296 181.665 95.8262 180.16 96.0883 178.721C96.3504 179.31 95.7607 183.104 95.6296 183.824C95.1055 186.702 94.9089 189.384 94.1882 191.936C93.7296 193.375 93.3365 194.814 92.8778 196.253ZM96.94 192.197C96.2848 194.225 95.6296 197.692 94.1882 198.87C94.5813 195.403 96.94 193.244 97.5297 189.711C97.6608 190.3 97.1366 191.608 96.94 192.197ZM97.0711 181.992C97.2676 178.787 97.5297 175.646 97.7263 172.441C97.7918 170.413 97.8573 168.385 97.9228 166.357C97.9228 164.656 97.9883 162.89 97.9883 161.189C97.9883 157.46 97.9883 153.666 97.9228 149.937C98.7746 150.919 98.9056 155.105 98.6435 157.199C98.5125 161.058 98.3815 164.918 98.1849 168.778C97.9883 171.067 97.8573 173.357 97.6607 175.646C97.5297 177.74 97.2676 179.899 97.0711 181.992ZM99.8884 162.301C99.8229 163.937 99.6919 165.572 99.6263 167.208C99.4953 169.17 99.2987 171.133 99.1677 173.095C98.9711 175.189 98.7746 177.347 98.5125 179.441C98.3159 180.618 98.1194 181.796 97.9228 182.973C98.1849 180.357 98.447 177.805 98.7091 175.189C98.8401 172.964 99.0367 170.806 99.1677 168.581C99.2332 166.881 99.2987 165.245 99.3643 163.544C99.4298 160.47 99.4953 157.33 99.6263 154.255C100.806 156.283 99.6264 159.815 99.8884 162.301ZM100.15 154.189C99.2987 151.9 99.3643 148.302 99.4298 145.358C100.675 147.321 100.216 151.507 100.15 154.189ZM100.74 119.649C100.282 118.079 99.7574 116.509 99.8229 114.481C101.068 119.322 102.313 124.228 103.623 129.069C105.13 134.106 106.44 139.143 108.144 143.984C109.192 147.059 110.306 150.134 111.354 153.143C111.027 152.292 110.699 151.377 110.372 150.526C109.323 147.909 108.603 145.162 107.554 142.48C105.327 136.723 103.885 130.574 102.051 124.424C101.592 122.92 101.199 121.284 100.74 119.649ZM115.679 190.365C115.613 190.431 115.548 190.496 115.417 190.562C114.499 189.711 114.303 188.534 113.648 187.487C112.141 185.067 111.42 182.188 110.11 179.375C108.865 176.366 107.62 173.357 106.309 170.348C105.851 169.039 105.327 167.796 104.868 166.488C104.016 164.983 103.623 162.759 102.837 161.32C102.313 159.946 101.788 158.638 101.264 157.264C101.264 155.105 101.33 152.947 101.33 150.853C102.444 153.797 103.558 156.741 104.606 159.685C107.227 166.292 109.913 172.899 112.534 179.441C113.713 182.123 114.827 184.74 116.006 187.422C116.334 188.403 115.875 189.711 115.679 190.365ZM116.334 158.572C116.793 159.161 117.448 161.124 117.513 161.974C117.12 161.582 116.334 159.357 116.334 158.572ZM118.168 189.58C117.906 189.057 117.448 188.665 117.251 188.01C117.382 188.01 117.513 188.076 117.71 188.076C117.906 188.534 118.103 189.057 118.299 189.515C118.234 189.58 118.234 189.58 118.168 189.58ZM118.693 170.086C118.299 169.17 117.972 168.189 117.579 167.273C117.317 165.572 117.12 163.871 116.858 162.17C117.906 163.413 118.562 167.927 118.693 170.086ZM120.134 190.693C120.069 190.496 120.003 190.365 119.872 190.169C120.003 190.169 120.134 190.169 120.265 190.235C120.265 190.3 120.265 190.431 120.331 190.496C120.265 190.627 120.2 190.693 120.134 190.693ZM120.658 190.889C120.92 191.15 121.117 191.347 121.51 191.543C121.838 191.543 121.969 191.478 122.1 191.281C122.231 191.739 121.969 192.393 121.772 192.851C121.051 192.59 120.658 191.739 120.396 191.085C120.462 191.085 120.527 190.954 120.658 190.889ZM121.838 194.552C121.313 194.291 120.789 193.44 120.658 192.851C120.92 193.113 121.117 193.375 121.51 193.506C121.903 193.506 121.969 193.375 122.165 193.244C122.1 193.833 121.969 194.16 121.838 194.552ZM121.182 138.293C120.986 136.265 120.789 134.172 120.527 132.144C120.331 129.462 120.069 126.779 119.872 124.097C119.61 119.191 119.282 114.285 119.02 109.378C118.889 105.846 118.693 102.379 118.562 98.8461C118.562 97.6686 118.562 96.4911 118.496 95.3136C118.496 91.1923 118.431 87.0709 118.431 83.015C118.496 80.4638 118.496 77.9125 118.562 75.2958C118.693 71.8286 118.824 68.3615 118.955 64.8943C120.069 67.3802 118.889 72.9407 119.151 76.0808C119.479 80.7908 118.627 87.7251 119.217 92.6315C119.217 93.9398 119.282 95.2482 119.282 96.6219C119.348 98.4536 119.348 100.285 119.413 102.117C119.61 105.977 119.806 109.902 120.003 113.761C120.2 116.64 120.396 119.584 120.593 122.462C120.724 124.294 120.855 126.191 121.051 128.022C121.641 133.845 122.231 139.601 122.82 145.424C123.672 151.834 124.458 158.245 125.31 164.591C125.834 168.123 126.358 171.656 126.883 175.189C127.407 177.805 127.865 180.814 127.865 183.758C127.472 182.842 127.079 181.927 126.752 181.076C126.555 178.852 126.293 176.628 126.096 174.469C125.245 168.712 124.393 163.021 123.607 157.264C122.427 151.115 122.231 144.573 121.182 138.293ZM125.965 191.412C125.638 191.739 125.048 190.627 125.114 190.235C125.179 190.169 125.703 189.777 125.769 189.58C126.031 189.777 126.162 190.954 125.965 191.412ZM124.262 190.954C124.196 191.02 124.196 191.085 124.131 191.15C124.065 191.15 124 191.15 123.934 191.15C124 190.954 124.131 190.954 124.262 190.954ZM125.376 195.73C124.851 195.206 123.607 192.524 123.541 191.674C123.869 191.608 124.131 191.608 124.327 191.608C124.393 191.478 124.524 191.347 124.589 191.216C124.982 191.281 125.048 192.328 125.965 192.263C126.227 193.244 125.769 194.879 125.507 195.664C125.441 195.73 125.441 195.73 125.376 195.73ZM126.162 196.384C125.965 196.449 125.9 196.384 125.834 196.384C126.227 195.206 126.686 194.16 126.686 192.393C127.014 193.44 126.358 195.73 126.162 196.384ZM127.341 190.3C127.21 189.515 127.21 188.73 127.21 187.945C127.8 188.599 127.669 189.45 127.341 190.3ZM127.8 187.618C127.538 186.833 127.079 186.31 127.145 185.328C127.669 185.852 127.931 186.637 127.931 187.618C127.865 187.618 127.865 187.618 127.8 187.618ZM129.962 187.553C130.29 188.272 129.7 189.711 129.503 190.3C128.455 190.365 128.783 188.534 128.848 187.422C129.307 187.487 129.503 187.553 129.962 187.553ZM122.165 118.864C122.427 122.2 122.689 125.537 123.017 128.873C123.279 131.228 123.476 133.583 123.738 136.003C125.114 143.723 125.245 151.769 126.62 159.357C126.883 161.385 127.145 163.479 127.472 165.507C128.39 170.086 128.979 174.861 129.438 179.702C129.569 181.534 129.896 185.001 129.176 186.375C128.652 185.982 128.914 184.936 128.783 184.02C128.652 182.319 128.455 180.684 128.324 178.983C127.407 172.703 126.489 166.357 125.572 160.077C124.917 154.975 124.262 149.937 123.607 144.835C123.476 143.396 123.344 141.956 123.148 140.452C122.689 135.938 122.231 131.49 121.772 126.976C121.706 125.733 121.641 124.424 121.51 123.182C121.248 119.453 121.051 115.789 120.789 112.061C120.658 109.444 120.527 106.827 120.396 104.21C120.331 101.332 120.2 98.4536 120.134 95.5752C120.134 93.809 120.069 92.0427 120.069 90.2764C120.069 88.5101 120.069 86.7439 120.003 84.9776C120.003 80.9871 120.069 77.062 120.069 73.0716C120.593 74.2491 120.462 75.9499 120.658 77.3891C120.658 79.4171 120.658 81.445 120.658 83.473C120.724 86.4822 120.789 89.4914 120.855 92.5006C120.92 94.4632 120.92 96.4257 120.986 98.3228C121.707 103.491 121.117 109.836 121.969 115.135C122.1 116.443 122.165 117.621 122.165 118.864ZM139.659 96.5565C140.118 97.2107 139.987 98.7153 140.183 99.5657C140.838 102.771 140.707 106.173 140.511 109.509C140.118 107.35 139.724 105.192 139.331 103.098C139.462 100.874 139.593 98.7153 139.659 96.5565ZM140.38 118.341C140.249 117.425 140.052 116.509 139.921 115.658C139.331 112.846 138.742 109.705 139.2 107.481C139.331 108.201 139.462 108.986 139.593 109.705C140.183 112.518 140.445 115.397 140.38 118.341ZM125.9 8.76597C125.9 8.83139 125.965 8.89681 125.965 9.02764C125.834 9.02764 125.834 8.89681 125.9 8.76597ZM125.965 10.4014C126.358 12.691 126.817 14.9152 127.21 17.2049C128.258 23.1579 129.307 29.1763 130.29 35.1293C131.993 43.2411 132.648 51.8108 134.286 60.1189C134.614 62.6047 135.007 65.156 135.335 67.6419C136.645 76.3424 137.955 85.1084 139.331 93.809C139.2 95.9023 139.135 97.9957 139.004 100.024C138.545 97.5378 138.152 95.0519 137.759 92.566C136.842 86.2859 135.859 80.0713 134.941 73.7912C134.548 71.2399 134.155 68.6232 133.762 66.0719C131.993 57.5676 131.534 48.4091 129.765 40.101C129.307 37.4189 128.914 34.7368 128.455 32.0547C127.865 28.5875 127.276 25.1204 126.686 21.6533C125.834 17.9899 125.179 14.3265 125.965 10.4014ZM125.179 18.1861C125.703 21.2607 126.162 24.3354 126.686 27.3446C128.127 34.2135 128.717 41.2131 130.093 48.2128C131.928 60.4459 133.762 72.6791 135.597 84.9122C136.186 88.7718 136.776 92.566 137.366 96.4257C138.152 100.154 138.873 103.752 138.611 108.07C137.824 103.752 137.104 99.3695 136.317 95.0519C135.531 90.0147 134.745 84.9776 133.959 79.9404C132.19 68.0344 130.421 56.1284 128.652 44.2224C127.734 38.4656 126.752 32.7743 125.834 27.0175C125.376 24.5971 124.393 20.8682 125.179 18.1861ZM124 11.4481C124.524 12.4294 124 13.934 123.934 15.1115C123.476 14.1302 123.869 12.4948 124 11.4481ZM140.445 193.506C139.528 192.917 139.331 191.674 139.069 190.693C138.414 188.272 138.545 186.179 137.89 183.366C137.169 180.291 137.235 176.432 136.448 173.226C136.645 172.506 136.121 169.432 135.924 168.516C136.055 167.993 135.531 164.46 135.335 163.675C135.138 161.974 134.941 160.208 134.745 158.507C134.286 155.432 133.828 152.292 133.369 149.218C133.566 148.629 132.91 145.947 132.714 145.293C132.91 144.769 132.124 141.041 131.928 140.517C131.797 139.798 131.731 139.013 131.6 138.293C131.272 136.396 130.945 134.499 130.552 132.602C130.224 130.377 129.831 128.088 129.503 125.864C128.652 121.088 127.8 116.247 126.948 111.472C126.752 110.163 126.555 108.855 126.358 107.481C124.917 98.7807 123.476 90.0802 121.969 81.445C121.969 76.9312 122.034 72.4174 122.034 67.8381C123.279 75.6883 124.524 83.5384 125.834 91.3885C126.752 96.8182 127.669 102.248 128.521 107.678C130.159 117.163 131.797 126.649 133.435 136.134C133.959 139.601 134.548 143.068 135.073 146.536C135.597 150.722 136.186 154.909 136.711 159.03C136.973 161.647 137.3 164.198 137.562 166.815C138.742 173.161 139.004 180.357 140.052 185.067C140.249 186.048 140.38 187.095 140.576 188.076C140.838 188.73 141.035 189.384 141.297 190.038C141.625 190.758 140.773 193.309 140.445 193.506ZM141.821 187.095C141.1 183.693 140.969 179.899 140.249 176.039C140.052 174.469 139.855 172.899 139.593 171.329C139.397 169.366 139.2 167.338 138.938 165.376C138.48 161.582 138.021 157.787 137.562 153.993C135.924 145.096 135.269 136.33 133.303 127.499C132.91 125.144 132.517 122.789 132.124 120.369C130.617 111.733 129.176 103.098 127.669 94.4632C127.341 92.1735 126.948 89.8839 126.62 87.5289C126.031 83.9309 125.441 80.3329 124.851 76.6695C124.72 75.6883 124.589 74.6416 124.458 73.6603C123.803 69.2119 123.082 64.6981 122.427 60.2497C122.493 58.6797 122.493 57.1096 122.558 55.5396C123.082 59.203 123.672 62.801 124.196 66.4644C125.638 75.5574 127.014 84.6505 128.455 93.7436C131.01 108.659 133.566 123.509 136.121 138.424C136.711 142.414 137.3 146.339 137.89 150.33C138.545 155.302 139.2 160.339 139.855 165.311C139.987 166.423 140.052 167.535 140.183 168.712C140.445 171.002 140.707 173.291 141.035 175.646C141.625 179.244 141.887 182.777 141.821 187.095ZM143.197 92.7623C143.918 94.3977 143.328 96.3603 143.394 98.519C143.262 101.136 143.197 103.687 143.066 106.304C142.214 104.537 142.542 99.0424 142.935 96.6873C143 95.379 143.066 94.0706 143.197 92.7623ZM142.607 89.1643C143 89.9493 142.149 93.809 142.149 95.5098C141.821 94.7248 142.411 90.211 142.607 89.1643ZM142.149 111.079C142.476 111.537 142.411 112.453 142.542 113.042C143.066 115.462 142.738 118.602 142.673 121.546C142.411 120.499 142.214 119.387 142.018 118.341C142.083 115.92 142.083 113.5 142.149 111.079ZM142.28 125.079C142.804 127.499 142.869 130.77 143 133.518C142.476 130.181 141.952 127.172 141.952 123.443C142.083 123.967 142.214 124.555 142.28 125.079ZM142.345 185.917C142.804 186.506 143 189.384 142.804 189.908C141.952 188.73 142.345 187.487 142.345 185.917ZM143.59 192.459C143.525 192.524 143.459 192.524 143.394 192.59C143 192.263 142.804 191.543 142.542 191.02C142.869 191.085 143.131 190.954 143.263 190.693C143.721 191.15 143.787 191.936 143.59 192.459ZM147.259 85.043C147.259 85.1084 147.194 85.2393 147.194 85.3047C147.128 85.043 147.063 84.7813 147.063 84.5197C147.128 84.7813 147.194 84.9122 147.259 85.043ZM146.735 82.23C146.866 82.8188 146.932 83.4076 147.063 83.9963C146.997 83.9963 146.866 84.0617 146.801 84.0617C146.604 83.5384 146.67 82.9496 146.735 82.23ZM146.014 193.963C146.801 194.618 146.538 194.748 147.652 194.421C147.783 194.945 147.325 195.533 147.194 195.991C147.128 196.057 147.063 196.122 146.932 196.188C146.276 195.795 146.145 194.814 145.883 194.094C145.949 194.094 146.014 194.029 146.014 193.963ZM147.259 197.889C146.801 198.019 146.473 196.907 146.407 196.58C146.735 196.776 146.801 196.842 147.325 196.776C147.456 196.58 147.652 196.318 147.783 196.122C147.98 196.646 147.456 197.496 147.259 197.889ZM149.094 85.4355C149.094 85.1084 149.094 84.7813 149.159 84.4542C149.421 84.8467 149.225 85.1738 149.094 85.4355ZM165.998 65.3523C166.063 65.6139 166.129 65.8756 166.26 66.2027C166.063 66.3989 166.063 66.3335 165.998 66.5952C165.801 66.5298 165.736 66.399 165.408 66.399C165.67 66.0719 165.867 65.7448 165.998 65.3523ZM166.325 66.726C166.194 66.8569 166.129 66.8569 166.063 66.7915C166.063 66.726 166.063 66.6606 165.998 66.5952C166.063 66.5952 166.129 66.5952 166.26 66.5952C166.26 66.6606 166.325 66.6606 166.325 66.726ZM161.149 70.8474C161.149 70.5203 161.149 70.1932 161.084 69.8007C161.215 69.539 161.346 69.6044 161.149 69.539C161.215 69.1465 161.215 68.8194 161.28 68.4269C161.674 68.1652 161.936 68.2307 162.46 68.2961C162.46 68.5577 162.46 68.8848 162.46 69.1465C162.198 69.2119 161.936 69.3428 161.674 69.4082C161.477 69.539 161.215 70.3894 161.149 70.8474ZM162.591 87.2672C162.329 83.0151 162.067 78.8283 161.805 74.5762C161.543 73.0061 161.608 70.4548 162.394 69.6698C162.394 71.3053 162.46 72.9407 162.46 74.5762C162.722 78.9592 162.984 83.3421 163.312 87.6597C163.77 94.3323 164.163 101.005 164.622 107.743C164.884 112.126 165.146 116.509 165.474 120.892C165.605 123.378 165.736 125.864 165.932 128.35C166.129 132.929 166.325 137.573 166.588 142.153C166.325 141.171 166.063 140.19 165.801 139.274C165.801 138.424 165.801 137.639 165.736 136.788C165.539 133.06 165.343 129.265 165.146 125.537C164.229 112.78 163.443 100.024 162.591 87.2672ZM163.049 145.031C163.246 145.751 163.443 146.47 163.639 147.19C164.163 148.956 164.95 150.722 164.884 152.816C164.425 150.134 163.049 147.451 163.049 145.031ZM163.967 184.02C163.377 181.469 162.853 178.917 162.263 176.366C160.887 170.544 159.97 164.853 158.267 159.357C157.611 157.068 156.956 154.778 156.301 152.423C155.58 150.134 154.859 147.648 154.925 144.573C155.973 148.302 157.022 152.031 158.07 155.76C159.38 160.143 160.429 164.722 161.608 169.366C162.853 174.011 163.705 178.459 163.967 184.02ZM163.443 137.835C164.229 140.713 164.753 143.984 164.687 147.713C164.098 145.62 163.508 143.461 162.918 141.368C162.853 139.143 162.787 136.919 162.656 134.76C162.984 135.807 163.181 136.854 163.443 137.835ZM155.318 90.4727C155.253 90.3418 155.253 90.211 155.253 90.0802C155.253 90.211 155.318 90.3418 155.318 90.4727ZM155.318 91.781C155.973 92.8931 155.842 94.7248 156.104 96.0986C156.629 99.6966 157.153 103.295 157.677 106.958C158.66 112.257 159.053 117.556 160.167 122.724C161.28 127.826 162.46 132.602 162.329 138.882C161.805 136.919 161.346 134.891 160.887 132.929C160.298 130.116 159.708 127.303 159.118 124.49C158.398 120.303 157.677 116.116 156.956 111.995C156.76 110.621 156.629 109.248 156.432 107.874C155.842 104.145 155.318 100.351 154.728 96.6219C154.991 94.9865 155.187 93.4165 155.318 91.781ZM154.532 100.874C155.384 106.631 156.301 112.388 157.153 118.144C158.332 123.901 159.184 129.658 160.56 135.218C160.953 136.919 161.346 138.555 161.739 140.256C162.132 141.564 162.525 142.741 162.525 144.442C161.477 140.713 160.56 137.05 159.577 133.321C158.004 127.107 157.153 120.761 155.777 114.154C155.449 112.257 155.187 110.36 154.859 108.463C154.466 106.435 153.877 103.164 154.532 100.874ZM153.811 147.124C153.877 148.236 153.942 149.349 154.073 150.526C154.139 151.442 154.139 152.292 154.204 153.208C154.335 154.975 154.466 156.806 154.663 158.572C154.139 156.937 153.68 155.302 153.222 153.666C153.025 149.937 152.763 146.143 152.566 142.414C152.828 143.33 153.09 144.246 153.353 145.162C153.484 145.816 153.615 146.47 153.811 147.124ZM153.287 92.6315C153.877 93.7436 153.353 96.164 153.287 97.4724C152.697 96.164 153.156 94.1361 153.287 92.6315ZM152.435 134.564C153.025 136.788 153.418 139.209 153.418 141.891C153.222 141.171 153.09 140.452 152.894 139.732C152.37 137.639 151.977 135.153 151.977 132.536C152.108 133.256 152.304 133.91 152.435 134.564ZM151.715 145.358C151.78 145.881 151.977 149.087 151.846 149.218C151.518 147.909 151.125 146.536 150.797 145.227C150.601 141.302 150.404 137.377 150.208 133.452C150.339 134.106 150.535 134.695 150.666 135.349C150.863 136.134 151.059 136.985 151.256 137.77C151.452 140.321 151.584 142.807 151.715 145.358ZM150.994 192.917C151.387 192.721 151.584 192.59 151.78 192.263C152.435 193.113 152.108 193.767 151.715 194.618C151.649 194.618 151.584 194.618 151.518 194.683C151.321 194.029 150.863 193.702 150.994 192.917ZM150.666 86.8747C150.535 86.8747 150.535 86.8747 150.47 86.8093C150.47 86.6784 150.47 86.4822 150.404 86.3513C150.535 86.4822 150.601 86.6784 150.666 86.8747ZM150.077 123.77C150.404 124.097 150.404 125.144 150.535 125.667C150.928 127.368 151.059 129.789 150.994 131.882C150.666 130.508 150.339 129.2 150.077 127.826C150.077 126.452 150.077 125.079 150.077 123.77ZM151.19 199.131C150.535 198.346 149.946 195.206 150.273 194.225C150.339 194.225 150.404 194.225 150.535 194.225C150.404 194.618 150.994 195.272 151.518 195.468C151.715 195.337 151.977 195.337 152.304 195.206C151.846 196.58 151.649 197.954 151.19 199.131ZM151.846 199.982C151.649 199.916 151.584 199.851 151.584 199.786C152.435 199.131 153.09 195.991 153.09 194.487C153.549 195.337 152.173 199.524 151.846 199.982ZM152.435 190.104C152.435 190.562 152.435 191.085 152.501 191.543C152.304 190.889 152.304 190.627 152.435 190.104ZM154.466 186.833C154.073 184.87 153.746 182.712 153.418 180.553C153.156 177.151 152.894 173.815 152.566 170.413C152.37 167.927 152.239 165.376 152.042 162.89C151.715 157.984 151.321 153.077 150.994 148.171C151.19 148.891 151.387 149.545 151.584 150.264C152.501 153.208 152.173 157.002 152.763 160.47C153.09 164.329 153.353 168.189 153.68 172.049C153.877 174.273 154.008 176.562 154.204 178.787C154.597 181.207 154.663 184.216 154.466 186.833ZM153.418 156.545C153.549 157.068 153.68 157.591 153.877 158.115C154.204 159.227 154.532 160.404 154.925 161.516C155.056 163.217 155.187 164.983 155.318 166.684C155.973 170.479 155.842 174.861 156.235 178.983C156.366 180.814 156.497 183.235 156.235 184.805C156.039 185.982 155.777 187.16 155.58 188.403C155.58 187.225 155.58 186.113 155.58 184.936C155.449 182.777 155.384 180.553 155.253 178.394C154.597 171.067 154.008 163.806 153.418 156.545ZM155.58 193.244C154.597 192.59 155.056 191.543 155.253 190.365C155.842 190.235 156.104 190.365 156.497 189.515C156.76 190.496 155.842 192.459 155.58 193.244ZM164.032 196.384C163.639 195.664 163.312 194.945 162.984 194.16C162.067 190.365 161.149 186.571 160.298 182.777C159.773 180.16 159.249 177.544 158.725 174.927C158.004 171.918 157.284 168.908 156.563 165.899C156.366 163.544 156.235 161.189 156.039 158.769C155.908 157.002 155.777 155.171 155.58 153.404C155.842 154.255 156.039 155.105 156.301 155.89C156.891 158.18 157.546 160.47 158.135 162.759C159.773 167.6 160.232 173.88 161.739 179.31C162.132 181.207 162.591 183.104 162.984 184.936C163.967 188.141 164.753 191.739 164.032 196.384ZM166.194 192.655C165.605 190.889 165.015 188.926 164.622 187.029C164.556 185.459 164.491 183.955 164.36 182.385C164.687 182.712 164.884 184.609 165.015 185.263C165.736 187.88 166.26 189.777 166.194 192.655ZM166.063 147.909C166.981 149.021 167.046 153.862 167.046 156.021C166.784 155.04 166.522 154.059 166.26 153.143C166.194 151.377 166.129 149.676 166.063 147.909ZM166.915 195.141C166.719 194.879 166.588 194.487 166.456 194.16C166.522 193.767 166.85 193.506 166.981 193.113C167.243 193.702 166.915 194.487 166.915 195.141ZM167.243 161.713C166.915 160.273 166.456 159.096 166.456 157.264C167.112 158.311 167.243 160.143 167.243 161.713ZM167.112 67.6419C167.112 67.4456 167.046 67.2494 167.046 67.0531C167.243 67.184 167.374 67.4456 167.374 67.7073C167.308 67.7073 167.243 67.6419 167.112 67.6419ZM169.536 196.776C169.864 197.038 169.798 197.627 170.388 197.496C170.322 197.889 170.322 198.281 170.257 198.674C169.929 198.085 169.733 197.431 169.536 196.776ZM170.388 200.309C170.257 200.047 170.191 199.851 170.126 199.589C170.257 199.589 170.322 199.589 170.453 199.589C170.388 199.786 170.388 200.047 170.388 200.309ZM171.764 197.365C171.764 197.234 171.764 197.169 171.764 197.104C171.829 197.169 171.764 197.234 171.764 197.365ZM174.188 200.309C173.86 199.131 173.533 197.954 173.271 196.711C173.402 196.515 173.467 196.58 173.533 196.384C174.188 196.842 174.319 199.131 174.188 200.309ZM174.253 168.974C173.926 161.189 173.598 153.47 173.271 145.685C172.55 133.19 171.895 120.761 171.174 108.266C170.846 102.837 170.584 97.3415 170.257 91.9118C169.995 88.0522 169.732 84.258 169.47 80.3983C169.208 77.1929 168.946 74.0528 168.684 70.8474C170.388 72.0249 169.667 75.6228 170.06 78.1087C170.126 79.4171 170.191 80.7908 170.322 82.0992C170.65 86.3513 170.912 90.6689 171.239 94.9211C171.305 96.0986 171.305 97.2761 171.37 98.4536C171.895 108.79 172.484 119.06 173.008 129.396C173.336 135.284 173.729 141.171 174.057 147.059C174.122 148.498 174.122 149.937 174.188 151.442C174.319 155.694 174.515 159.881 174.646 164.133C174.909 169.301 175.171 174.469 175.498 179.572C175.367 178.917 175.236 178.263 175.105 177.609C174.843 176.366 174.581 175.123 174.319 173.815C174.384 172.179 174.319 170.609 174.253 168.974ZM174.712 202.206C174.712 201.486 174.778 200.701 174.843 199.916C175.105 200.374 174.909 201.814 174.712 202.206ZM176.088 195.141C175.826 194.225 175.629 193.375 175.433 192.459C175.302 190.038 175.236 187.618 175.105 185.132C175.236 185.721 175.367 186.31 175.498 186.898C176.022 189.123 176.481 192.263 176.088 195.141ZM176.743 185.001C176.481 179.768 176.153 174.534 175.891 169.366C175.76 165.507 175.564 161.647 175.433 157.787C175.433 156.479 175.367 155.236 175.367 153.928C175.171 150.33 174.974 146.666 174.778 143.068C174.515 138.228 174.188 133.387 173.926 128.546C173.598 121.873 173.205 115.135 172.877 108.463C172.812 106.5 172.746 104.537 172.615 102.64C172.55 101.005 172.484 99.3041 172.353 97.6686C172.026 92.566 171.633 87.4634 171.305 82.3609C170.781 79.2862 171.37 76.2116 170.65 73.3332C170.388 72.352 170.06 71.3707 169.47 70.7165C169.208 70.5203 168.946 70.3894 168.684 70.1932C168.488 69.9969 168.226 68.4923 168.029 68.2306C168.488 68.1652 169.143 68.0344 169.536 68.1652C169.601 68.0998 169.667 68.0344 169.732 67.969C171.043 68.2307 171.502 69.4082 171.502 70.9782C171.043 70.6511 170.519 70.1278 169.864 70.1278C169.864 70.2586 169.864 70.324 169.864 70.4548C172.55 71.2399 171.502 75.492 172.026 78.3704C172.419 83.8001 172.746 89.2297 173.14 94.6594C173.205 96.3603 173.271 98.0611 173.336 99.762C173.86 110.163 174.45 120.565 174.974 130.966C175.302 136.134 175.629 141.368 175.957 146.536C176.022 148.106 176.088 149.676 176.153 151.246C176.219 152.947 176.219 154.713 176.284 156.414C176.481 160.862 176.678 165.31 176.94 169.759C177.136 172.703 177.267 175.712 177.464 178.656C177.529 179.899 177.595 181.207 177.66 182.45C177.726 184.805 177.857 187.095 177.922 189.45C177.464 187.945 177.136 186.506 176.743 185.001ZM178.25 195.468C178.119 194.748 177.66 193.767 177.791 193.309C177.988 193.375 178.119 193.44 178.316 193.44C178.316 194.16 178.25 194.814 178.25 195.468Z" fill="#FF6635"/>
</svg>
