<svg width="181" height="213" viewBox="0 0 181 213" fill="none" xmlns="http://www.w3.org/2000/svg">
<path d="M180 188.338C179.804 184.74 179.673 181.207 179.476 177.609C179.28 174.796 179.149 171.983 178.952 169.17C178.755 164.329 178.493 159.488 178.297 154.647C178.297 153.339 178.231 151.965 178.231 150.657C178.035 147.124 177.904 143.592 177.707 140.059C177.642 138.555 177.51 136.985 177.445 135.48C177.052 128.611 176.593 121.677 176.2 114.808C176.069 112.518 176.004 110.229 175.873 107.939C175.741 104.472 175.545 100.94 175.414 97.4724C175.348 95.7715 175.283 94.0052 175.217 92.3044C174.824 86.4822 174.431 80.5946 174.038 74.7724C173.645 72.4174 174.103 69.8661 172.859 68.3615C172.531 67.969 171.286 67.2494 170.5 67.7073C170.107 67.9036 169.386 67.8381 168.927 68.0998C168.731 67.5765 168.665 67.0531 168.076 66.8569C168.076 66.1373 167.945 65.156 167.42 64.8943C167.289 64.8943 167.158 64.8943 166.962 64.8943C166.7 65.2869 166.372 65.8756 166.307 66.4644C166.176 66.4644 166.045 66.399 165.913 66.399C165.848 65.6139 165.979 63.6514 165.455 63.2589C165.324 63.2589 165.258 63.2589 165.127 63.1935C164.865 63.7168 165.127 64.6981 165.127 65.3523C164.996 65.2869 164.8 65.2214 164.538 65.2869C164.341 65.6794 164.341 66.6606 164.341 67.2494C163.751 67.2494 163.555 67.7073 163.555 68.2961C163.162 68.1652 162.572 67.9036 162.113 68.0998C161.065 68.4923 161.131 71.1744 161.327 72.5482C161.524 76.4079 161.786 80.2675 161.982 84.1272C162.441 91.2577 162.965 98.3882 163.424 105.519C163.686 109.182 163.882 112.911 164.144 116.574C164.276 118.929 164.407 121.284 164.603 123.639C164.8 126.91 164.931 130.181 165.127 133.452C164.407 130.508 163.751 127.499 163.096 124.555C162.244 112.061 161.393 99.6311 160.606 87.1364C160.41 83.6692 160.213 80.1367 159.951 76.6695C159.82 74.3799 159.493 72.352 161.065 70.5203C161 70.4549 160.934 70.3894 160.803 70.3894C160.213 70.7819 159.82 71.2399 159.624 71.9595C159.034 73.922 159.296 77.1929 159.624 79.3517C159.689 80.3983 159.689 81.5104 159.755 82.5571C160.672 95.3136 161.524 108.005 162.441 120.761C162.048 120.369 162.113 119.06 161.982 118.471C161.589 116.182 161.196 113.958 160.803 111.668C159.951 106.238 159.165 100.743 158.313 95.3136C157.789 92.5006 157.658 89.5568 156.741 87.2018C156.217 87.071 155.823 87.071 155.365 87.1364C154.775 88.1831 154.644 90.211 154.71 91.5848C154.513 91.3885 154.316 91.1923 154.251 90.9306C154.12 90.8652 153.989 90.7998 153.727 90.8652C153.53 91.1268 153.399 91.3885 153.399 91.781C153.137 90.1456 152.351 86.4168 151.237 85.9588C151.106 85.1084 150.975 83.9309 150.451 83.473C150.254 83.473 150.123 83.473 149.927 83.4076C149.468 83.9309 149.403 84.9122 149.271 85.7626C148.878 84.3888 148.878 81.3796 147.568 81.3142C146.782 81.7721 147.306 82.9496 146.913 83.8001C146.782 83.9963 146.454 84.1272 146.389 84.4542C146.323 85.1084 146.192 85.828 146.127 86.4822C145.995 86.6784 145.668 86.8093 145.537 87.071C145.078 87.856 145.078 89.5568 145.013 90.6689C144.62 90.211 144.292 88.3139 143.964 87.7251C143.768 87.7251 143.571 87.7251 143.309 87.6597C142.392 88.4447 142.326 92.566 142.261 94.1361C142.13 93.351 141.999 92.566 141.802 91.8464C141.671 91.5193 141.409 91.3885 141.278 91.1268C140.361 84.9776 139.509 78.8937 138.592 72.7445C137.937 68.2307 137.216 63.7822 136.561 59.2684C135.971 55.2125 135.381 51.1566 134.792 47.1007C133.35 39.9702 132.629 32.6434 131.123 25.7092C130.074 20.8682 129.681 15.8311 128.567 11.121C128.174 9.35473 127.978 7.45762 127.388 6.01843C126.995 6.01843 126.667 6.01843 126.274 5.95301C125.619 6.86886 125.488 8.96223 125.488 10.2706C125.16 10.1397 125.16 9.87807 124.898 9.68182C124.767 9.68182 124.702 9.6164 124.571 9.6164C124.243 9.87807 124.308 10.2706 124.112 10.6631C123.85 9.42015 123.588 8.1118 123.326 6.80344C123.195 6.54177 122.933 6.54177 122.801 6.34552C122.474 5.82218 122.867 4.77549 121.95 4.90633C121.884 3.79423 121.753 2.48587 120.77 2.35504C120.508 2.87838 120.443 4.38299 119.984 4.71008C119.722 3.85965 119.46 0.719597 118.805 0.327091C118.674 0.327091 118.543 0.327091 118.412 0.261673C117.888 0.91585 118.281 2.02795 117.822 2.74755C117.756 2.87838 117.494 2.9438 117.363 3.14005C117.298 3.79423 117.167 4.51382 117.101 5.168C117.036 5.42967 116.577 5.62592 116.446 5.95301C116.315 7.19595 116.118 8.43888 115.987 9.68182C115.856 9.28931 115.594 9.15848 115.529 8.83139C115.529 8.5043 115.463 8.17721 115.463 7.78471C115.332 7.26137 115.201 6.93428 115.005 6.41094C114.677 6.41094 114.612 6.47635 114.349 6.34552C113.563 7.3922 113.301 12.0369 113.301 14.0648C112.711 13.3452 113.432 9.48557 112.122 9.87807C111.073 12.9527 111.663 16.7469 111.073 20.0832C110.615 26.3633 110.222 32.578 109.763 38.8581C109.698 40.4935 109.632 42.0636 109.501 43.699C109.173 50.8295 108.78 57.8947 108.453 65.0252C108.387 67.9036 108.322 70.7819 108.191 73.6603C108.191 76.4079 108.191 79.09 108.125 81.8375C108.125 84.9122 108.191 87.9214 108.191 90.996C108.191 92.239 108.191 93.4165 108.256 94.6594C108.387 97.6032 108.518 100.482 108.649 103.425C108.78 106.827 108.977 110.294 109.108 113.696C109.239 115.855 109.37 118.079 109.501 120.238C110.025 126.191 110.615 132.144 111.139 138.097C110.942 137.573 110.811 136.985 110.615 136.461C110.091 134.63 109.501 132.798 108.977 130.966C107.273 125.471 105.897 119.78 104.456 114.023C102.818 107.547 101.442 100.743 99.9351 94.0706C99.1489 89.8839 98.4282 85.6972 97.6419 81.5104C97.3798 79.1554 97.1178 76.8658 96.8557 74.5107C95.7418 67.8381 95.4142 60.9693 94.1694 54.4929C93.9728 53.0537 93.8418 51.5491 93.6452 50.11C92.859 44.4186 92.0727 38.7273 91.2865 33.0359C90.8279 30.4846 90.7623 27.8025 90.0416 25.4475C89.714 25.4475 89.3864 25.4475 89.0588 25.3821C88.6002 26.1017 89.2554 29.7651 89.3209 30.8772C89.8451 35.8489 90.1727 40.8206 91.0899 45.5307C92.2693 54.2967 93.4486 63.1281 94.628 71.894C95.3487 76.4079 96.135 80.9217 96.8557 85.4355C97.0522 87.5943 97.2488 89.7531 97.5109 91.8464C97.7729 94.6594 98.035 97.4069 98.3626 100.22C97.5764 96.3603 96.9212 92.5006 96.2005 88.641C95.8729 85.5663 95.5453 82.4917 95.2177 79.4171C94.8901 76.8004 94.628 74.1837 94.3004 71.567C93.3176 64.371 92.3348 57.2405 91.4175 50.0445C90.5003 45.1382 90.3037 40.1665 89.3864 35.4564C88.9278 33.1014 88.9278 30.3538 87.8795 28.6529C87.7484 28.6529 87.6829 28.653 87.5519 28.7184C87.0932 30.3538 87.945 33.5593 88.0105 35.3256C87.6174 32.9051 87.2243 30.5501 86.8312 28.1296C86.7001 27.41 86.7656 25.9708 86.0449 25.84C85.9139 25.3821 85.8484 24.9896 85.7173 24.5316C85.5208 24.4662 85.4552 24.4662 85.2587 24.5316C85.2587 23.7466 84.9311 22.6999 84.7345 22.242C84.538 22.242 84.4069 22.242 84.2104 22.242C83.9483 22.7654 84.0793 23.5504 84.1448 24.2045C84.0793 24.2045 84.0138 24.2045 83.8828 24.2045C83.6207 24.1391 83.6207 24.2045 83.6207 24.4662C83.3586 23.0924 83.162 21.457 82.6379 20.3449C82.5068 20.3449 82.3103 20.3449 82.1792 20.3449C81.9827 20.7374 81.9172 21.7841 82.1137 22.3074C82.1137 22.3729 82.1137 22.4383 82.1137 22.5691C81.1309 22.4383 81.3275 23.8775 81.3275 24.7933C81.262 24.7933 81.1309 24.7933 81.0654 24.8587C80.4102 24.8587 80.3447 28.5221 80.4102 29.5688C79.8861 28.5221 79.5585 26.8867 79.2309 25.84C79.0343 25.84 78.8377 25.84 78.6412 25.84C77.9205 27.0175 78.6412 29.1763 78.5101 30.4846C78.8377 34.3443 79.0998 38.1385 79.4274 41.9982C78.9688 38.9235 78.5101 35.7835 78.0515 32.7088C77.8549 31.7276 77.8549 29.438 77.0687 28.8492C76.2825 28.7184 76.479 30.223 76.479 31.008C76.6101 33.1668 76.7411 35.2601 76.8721 37.4189C77.0687 39.9048 77.2653 42.3907 77.4618 44.942C77.5929 47.0353 77.7894 49.1287 77.9205 51.1566C78.0515 52.5958 78.117 53.9696 78.2481 55.4088C78.6412 58.7451 79.0343 62.0814 79.4274 65.3523C80.1481 70.5857 80.8689 75.8191 81.5896 80.9871C82.1792 84.4542 82.8344 87.9214 83.4241 91.4539C84.2104 95.2482 84.9311 99.1078 85.7173 102.902C86.438 111.799 87.1588 120.761 87.8795 129.658C88.1415 133.387 88.3381 137.115 88.6002 140.844C88.6657 142.087 88.6657 143.33 88.7312 144.639C88.7312 146.339 88.7967 148.106 88.7967 149.807C88.8623 153.404 88.8623 157.002 88.9278 160.666C88.7967 164.198 88.6657 167.731 88.5347 171.264C88.4036 173.226 88.2071 175.254 88.076 177.217C87.8795 178.983 87.6829 180.749 87.4208 182.515C85.9794 178.721 84.538 174.927 83.162 171.133C81.9172 167.535 80.6068 163.937 79.3619 160.273C77.7239 155.498 76.0204 150.657 74.3824 145.881C72.5478 140.059 70.7133 134.303 68.8787 128.48C65.0131 115.789 61.9992 102.902 58.6577 89.7531C56.6265 80.66 54.6609 71.6324 52.6298 62.5393C52.0402 59.7918 51.516 57.1096 50.9263 54.3621C49.8125 49.9791 49.2228 45.4653 48.1745 41.1477C47.1262 35.9797 46.2089 31.2697 45.2261 26.4942C44.5709 23.5504 44.3088 20.4103 43.195 17.9899C42.8674 17.9899 42.5398 17.9899 42.2122 17.9899C41.6225 18.3824 41.6225 20.4103 41.557 21.2607C41.426 21.1299 41.2949 20.9337 41.1639 20.8028C40.8363 20.8028 40.8363 20.8682 40.6397 20.9991C40.4432 19.3636 39.788 18.2515 39.0672 17.1394C38.6741 16.4853 38.8707 15.7002 38.3465 15.1769C38.15 15.1115 38.0844 15.1115 37.8879 15.2423C37.5603 15.4386 37.4948 16.2236 37.4293 16.7469C37.2327 15.6348 36.9706 14.5227 36.5775 13.6723C36.4465 13.6723 36.2499 13.6723 36.1189 13.6069C35.7257 14.1302 35.9223 14.8498 35.6602 15.504C35.5947 15.7002 35.3326 15.8311 35.2016 16.1582C35.1361 16.6161 35.1361 17.0086 35.0705 17.4665C34.874 17.6628 34.7429 17.859 34.5464 18.1207C34.4153 18.9711 34.3498 19.8216 34.2188 20.672C33.9567 19.887 33.8257 19.0366 33.4325 18.4478C33.236 18.4478 33.1049 18.4478 32.9084 18.4478C32.2532 19.4945 32.3187 21.5878 32.1877 23.027C32.0566 22.6999 31.9256 20.6066 31.2049 21.0645C30.8773 21.3262 30.9428 22.3074 30.8773 22.8308C30.7462 24.5971 30.6152 26.2979 30.4186 28.0642C30.091 29.8305 30.4186 31.8584 30.1566 33.7555C30.1566 34.4751 30.1566 35.1947 30.091 35.9143C30.091 38.1385 30.091 40.4281 30.0255 42.6523C30.0255 45.727 30.0255 48.867 30.091 51.9416C30.1566 54.5584 30.1566 57.1096 30.2221 59.7264C30.2876 61.3618 30.2876 62.9972 30.3531 64.6327C30.6152 69.539 30.8773 74.4453 31.1394 79.3517C31.5325 84.258 31.8601 89.1643 32.2532 94.0706C32.3187 95.7715 32.4498 97.4069 32.5153 99.1078C32.9739 103.556 33.4325 108.07 33.8912 112.518C34.4153 116.64 34.874 120.696 35.3981 124.817C34.4809 122.069 32.7118 118.929 31.4014 116.378C29.1082 111.799 26.8806 107.089 23.6701 103.295C22.0321 101.332 20.1976 98.4536 16.9216 98.4536C16.0043 97.4069 15.0215 96.6873 13.9732 95.7715C13.1869 95.1173 12.5973 94.3323 11.68 93.809C11.2213 93.5473 10.3041 93.1548 9.51783 93.351C7.94536 93.7436 7.35568 95.379 6.89704 96.8836C6.70048 97.5378 6.50392 98.192 6.30736 98.8461C6.17632 98.8461 6.04529 98.8461 5.84873 98.8461C5.32457 98.977 4.73489 99.3041 4.40729 99.6966C3.88313 100.416 3.88313 101.201 3.35898 102.052C3.22794 102.117 3.03138 102.248 2.90034 102.313C2.4417 102.706 2.04858 103.425 1.7865 104.014C0.607145 107.089 0.738185 114.939 1.39338 118.668C1.58994 120.369 1.85202 122.069 2.04858 123.77C2.96586 128.284 3.55553 132.667 4.73489 136.985C6.4384 143.068 7.94536 149.087 10.042 154.778C12.0076 160.208 14.1042 165.638 16.3974 170.871C17.5112 173.226 18.6251 175.581 19.6734 177.936C21.5735 182.188 23.5391 186.375 25.8323 190.3C28.7151 195.206 30.8773 200.571 34.0877 205.084C35.005 206.393 35.9223 207.832 37.1672 208.813C37.6258 209.14 38.15 209.533 38.6086 209.86C39.0017 209.991 39.3948 210.187 39.788 210.318C39.9845 210.514 40.1811 210.776 40.3776 210.972C40.9673 211.561 41.557 211.888 42.4743 212.15C42.7364 212.15 42.7364 212.15 42.8019 211.953C43.326 212.346 43.5881 212.738 44.4399 212.804C44.3088 212.215 43.9157 212.346 43.3915 211.953C42.9329 211.626 42.5398 210.907 42.2122 210.383C42.5398 210.449 42.8019 210.58 43.1295 210.645C43.1295 210.514 43.0639 210.383 42.9984 210.252C43.4571 210.383 43.9157 210.58 44.3743 210.71C44.3743 210.645 44.3743 210.58 44.3743 210.449C43.9812 210.252 43.9157 209.991 43.5881 209.795C43.5881 209.729 43.6536 209.664 43.6536 209.598C44.2433 209.729 44.3088 210.187 44.8985 210.449C42.8019 206.458 40.9673 201.617 38.9362 197.038C37.0361 193.048 35.2016 189.057 33.3015 185.067C32.1222 182.646 30.9428 180.16 29.6979 177.74C27.7323 173.291 25.7012 168.843 23.8667 164.198C21.7045 158.703 19.7389 153.012 17.9699 147.255C17.3802 145.031 16.7905 142.872 16.2008 140.648C15.2836 137.77 14.8905 134.63 14.0387 131.555C12.4662 125.471 11.811 118.406 11.8765 111.014C12.9904 112.191 12.5973 116.901 12.9249 118.733C13.1869 120.892 13.5145 122.985 13.7766 125.144C14.5629 129.069 15.1525 132.929 16.0698 136.723C18.9527 147.779 22.2287 158.245 26.3564 168.058C29.96 176.432 34.0877 184.282 37.7569 192.524C39.5259 196.58 41.3604 200.636 42.9984 204.823C43.5226 206.197 44.4399 209.664 45.4882 210.318C45.0951 209.467 44.5709 208.421 44.4399 207.439C44.6364 208.094 44.8985 208.748 45.6192 208.879C45.6847 208.813 45.6847 208.748 45.6847 208.617C45.0295 207.636 44.833 206.262 44.4399 205.019C43.8502 203.187 43.195 201.421 42.6053 199.589C40.8363 195.076 38.9362 190.758 36.9706 186.375C34.874 182.057 32.8429 177.74 30.7462 173.422C29.1082 169.693 27.5358 165.965 25.8978 162.236C22.5563 154.386 20.2631 146.078 17.7078 137.443C16.3319 132.798 15.6112 127.957 14.5629 122.92C14.0387 120.238 13.5145 117.163 13.5145 114.088C14.3663 115.724 15.2181 117.359 16.0043 118.995C17.3802 122.069 18.6906 125.079 20.0665 128.153C21.0493 130.705 22.0321 133.256 23.0149 135.807C26.9461 145.424 30.4842 155.629 33.6946 165.834C35.3981 171.133 36.9706 176.497 39.0017 181.469C39.7224 183.3 40.2466 185.982 41.7536 187.029C42.8019 186.898 42.8674 184.74 42.8674 183.889C43.195 184.805 43.7191 186.375 44.8985 186.375C45.0295 186.244 45.0951 186.113 45.2261 185.982C45.9468 187.16 46.602 191.085 47.9779 191.281C48.109 191.281 48.24 191.281 48.4366 191.216C49.0262 190.431 49.0918 189.188 49.1573 187.814C49.5504 188.01 49.6814 188.992 49.8125 189.384C50.3366 190.627 50.9263 192.59 52.3022 192.851C53.4161 192.263 53.285 188.468 53.023 186.898C53.154 187.029 53.7437 187.553 54.0058 187.225C54.4644 187.029 54.4644 186.44 54.6609 186.048C54.8575 186.702 55.3161 186.833 55.7748 186.898C56.6921 185.917 56.3645 184.412 56.43 182.712C56.4955 181.861 56.8231 180.618 56.6265 179.506C56.4955 178.067 56.3645 176.628 56.2334 175.189C55.5127 171.067 54.8575 167.011 54.1368 162.89C52.1057 153.208 51.1229 143.199 49.1573 133.321C48.6331 129.527 48.109 125.798 47.5848 122.004C47.0607 118.275 46.5365 114.546 46.0123 110.818C45.0295 105.519 44.5054 99.6311 44.0467 94.1361C44.833 97.2761 45.6192 100.416 46.3399 103.491C48.24 109.836 49.6159 116.247 51.5815 122.462C57.3473 140.91 63.7682 158.703 70.1236 176.432C72.5478 183.104 75.0376 189.58 77.7894 195.926C78.2481 196.907 80.7378 202.337 82.2448 199.328C82.3103 199.262 82.3758 199.197 82.5068 199.131C82.7689 199.262 82.9655 199.393 83.2276 199.589C84.1448 200.898 85.4552 205.935 87.8139 203.384C88.6002 204.038 88.9933 205.215 90.1727 205.477C91.221 205.673 91.8107 204.496 92.1383 203.972C92.5969 203.253 93.0555 202.337 93.3831 201.486C93.5142 201.029 93.6452 200.571 93.8418 200.113C94.1694 199.851 94.4314 199.589 94.759 199.328C95.4142 198.543 95.8074 197.561 96.2005 196.58C97.3798 193.702 98.1005 190.365 98.8868 187.029C99.0833 185.786 99.2799 184.543 99.4765 183.235C99.8696 181.6 100.328 178.656 100.263 176.824C100.525 173.422 100.787 169.955 101.049 166.553C101.18 163.937 101.245 161.255 101.377 158.638C101.835 159.685 102.228 160.666 102.556 161.713C103.473 164.002 104.259 166.226 105.242 168.451C107.404 173.226 108.977 178.198 111.139 182.908C111.991 184.805 113.891 190.365 115.463 191.15C116.446 191.15 116.708 189.515 116.643 188.599C117.298 189.319 117.363 190.693 118.805 190.496C119.067 191.608 120.901 195.861 122.146 195.533C122.998 195.141 122.801 194.029 123.129 193.113C123.588 194.618 124.702 196.646 126.209 197.234C127.584 196.711 127.453 193.506 127.388 191.608C128.109 191.739 128.502 191.412 128.567 190.627C128.96 191.02 129.288 191.085 129.812 191.15C131.057 189.45 130.926 184.936 130.926 181.992C130.926 177.609 130.271 173.422 129.55 169.563C129.222 167.338 128.895 165.18 128.567 162.955C127.519 157.918 127.322 152.489 126.405 147.255C126.143 145.096 125.946 142.872 125.684 140.713C124.702 135.415 124.833 129.658 123.915 124.163C123.784 121.939 123.653 119.714 123.457 117.425C123.195 113.565 122.998 109.771 122.736 105.911C122.605 103.36 122.539 100.809 122.408 98.2574C122.343 96.8182 122.343 95.3136 122.277 93.8744C122.212 90.996 122.146 88.1176 122.081 85.2393C123.064 90.6689 123.915 96.0986 124.833 101.463C125.16 103.556 125.488 105.584 125.815 107.678C126.798 113.107 127.715 118.602 128.698 124.032C130.729 133.845 131.712 143.723 133.612 153.732C134.136 157.918 134.661 162.105 135.185 166.226C135.381 168.32 135.643 170.479 135.84 172.572C136.692 177.347 137.019 182.319 137.937 186.898C138.461 189.45 138.395 193.244 140.295 194.225C141.409 194.225 141.802 192.393 141.868 191.543C142.261 192.59 142.654 193.178 143.506 193.636C143.899 193.506 144.03 193.375 144.292 193.178C145.471 194.748 145.275 198.346 147.371 199.066C148.354 198.477 148.944 196.842 149.009 195.272C149.534 197.627 149.992 199.916 151.761 200.767C153.137 200.701 153.465 197.431 153.727 196.057C153.727 195.599 153.792 195.206 153.792 194.748C153.989 194.291 154.513 194.16 154.644 193.571C155.037 193.963 155.103 194.094 155.627 194.291C157.33 193.244 157.199 190.365 157.592 188.01C157.592 187.029 157.658 186.048 157.658 185.132C158.51 180.095 157.134 174.796 157.134 170.021C157.658 172.441 158.182 174.796 158.706 177.217C159.624 181.534 160.475 185.917 161.589 190.104C162.113 191.936 162.703 196.646 164.144 197.234C165.127 196.842 164.996 193.702 164.996 192.197C165.848 193.048 165.586 196.318 167.158 196.58C167.486 196.318 167.683 196.057 167.748 195.533C168.01 196.384 168.534 196.776 168.796 197.365C169.321 198.477 169.321 200.963 170.238 201.552C170.369 201.617 170.5 201.617 170.631 201.683C171.417 201.094 171.483 199.197 171.483 197.889C171.679 198.019 171.81 198.15 172.138 198.019C172.334 197.889 172.4 197.758 172.4 197.496C173.448 199.459 172.924 202.468 174.955 203.318C176.004 202.729 175.61 197.889 175.61 196.188C175.741 196.646 176.004 197.692 176.659 197.561C176.855 197.431 176.986 197.3 177.117 197.104C177.379 196.253 177.379 195.272 177.379 194.225C177.642 195.141 177.838 196.188 178.166 196.973C178.362 197.038 178.493 197.038 178.69 197.104C180.131 195.599 180 190.954 180 188.338ZM24.7839 161.255C26.4219 165.049 27.9944 168.843 29.6324 172.637C31.2049 175.843 32.7118 179.114 34.2843 182.319C36.3154 186.964 38.4776 191.412 40.5087 196.122C41.2949 197.889 41.9501 199.72 42.6053 201.552C42.6708 201.683 42.7364 201.879 42.8019 202.01C42.9984 202.533 43.195 203.122 43.3915 203.645C43.7847 204.692 44.1778 205.673 44.5054 206.654C44.1123 205.673 43.7847 204.627 43.3915 203.645C43.1295 202.926 42.8674 202.206 42.6053 201.552C41.0984 198.085 39.5914 194.552 38.0844 191.085C35.9878 186.702 33.8257 182.254 31.729 177.871C29.96 174.338 28.5841 170.675 27.0116 166.946C25.8978 164.329 24.915 161.582 23.8667 158.834C23.408 157.591 23.0149 156.414 22.5563 155.171C23.277 157.199 24.0632 159.227 24.7839 161.255ZM122.146 5.42967C122.212 5.49509 122.212 5.56051 122.277 5.69134C122.277 5.75676 122.277 5.82218 122.277 5.88759C122.015 5.75676 122.081 5.69134 122.146 5.42967ZM122.146 47.0353C122.933 48.8016 122.277 51.4183 122.277 53.3808C121.95 51.4837 121.753 49.1287 122.146 47.0353ZM121.95 61.7543C121.884 65.6139 121.753 69.4082 121.688 73.2678C121.491 72.2211 121.295 71.109 121.164 70.0623C121.295 66.0719 121.426 62.016 121.557 58.0255C121.819 58.3526 122.015 60.9039 121.95 61.7543ZM121.229 41.1477C121.884 42.3907 121.229 44.8111 121.229 46.3157C120.901 44.6803 121.098 42.914 121.229 41.1477ZM120.901 3.85965C121.032 4.0559 121.032 4.18673 120.901 4.31757C120.901 4.25215 120.901 4.0559 120.901 3.85965ZM119.984 60.7076C120.181 57.5676 120.312 54.3621 120.508 51.2221C121.098 52.1379 120.705 56.9134 120.508 58.4834C120.508 59.203 120.443 59.988 120.443 60.7076C120.312 61.4272 120.574 63.8477 120.246 64.1748C120.443 63.1281 119.722 62.2776 119.984 60.7076ZM118.805 3.79423C118.936 3.99048 119.001 4.38299 118.87 4.64466C118.805 4.4484 118.805 4.12132 118.805 3.79423ZM118.543 1.8317C118.739 2.02795 118.739 2.55129 118.805 2.81296C118.805 3.07463 118.739 3.07463 118.543 3.20547C118.477 2.74755 118.543 2.35504 118.543 1.8317ZM116.381 146.928C116.774 150.003 117.167 153.077 117.56 156.152C117.167 155.236 116.774 154.255 116.446 153.339C116.315 152.162 116.184 150.919 115.987 149.741C115.529 145.881 115.07 142.087 114.612 138.228C114.546 137.05 114.415 135.938 114.349 134.76C114.022 131.424 113.76 128.088 113.432 124.752C113.236 122.004 112.974 119.191 112.777 116.443C112.777 115.593 112.711 114.743 112.711 113.958C112.58 111.603 112.449 109.248 112.318 106.827C112.253 105.126 112.187 103.425 112.056 101.725C111.991 100.547 111.991 99.3695 111.925 98.192C111.925 97.2761 111.86 96.3603 111.86 95.4444C111.794 92.6315 111.729 89.7531 111.663 86.9401C111.663 83.4076 111.663 79.8096 111.663 76.277C111.729 73.8566 111.729 71.4361 111.794 69.0157C111.925 65.3523 111.991 61.6889 112.122 58.0255C112.318 53.6425 112.58 49.1941 112.777 44.8111C113.17 38.4002 113.629 31.9893 114.022 25.6437C114.743 27.3446 114.415 31.4005 114.087 33.363C114.022 34.8676 113.891 36.3722 113.825 37.8768C113.563 42.8486 113.301 47.8203 113.039 52.7921C112.842 57.6984 112.646 62.6047 112.384 67.5111C112.318 71.3053 112.318 75.0995 112.253 78.8937C112.253 83.2767 112.318 87.7251 112.318 92.1081C112.384 93.6127 112.449 95.1173 112.515 96.6219C112.777 102.575 113.039 108.463 113.367 114.416C113.498 116.313 113.629 118.21 113.76 120.107C114.284 125.602 114.743 131.162 115.267 136.658C115.594 140.19 115.987 143.526 116.381 146.928ZM114.218 153.143C115.332 156.217 116.381 159.357 116.577 162.825C115.594 160.339 114.612 157.853 113.694 155.302C113.432 153.339 113.17 151.377 112.842 149.414C113.301 150.657 113.76 151.9 114.218 153.143ZM112.58 146.274C113.498 148.956 114.48 151.638 115.398 154.32C114.415 151.573 113.498 148.956 112.58 146.274ZM112.908 174.731C114.284 178.002 115.594 181.338 116.97 184.674C116.97 184.74 116.97 184.805 116.97 184.87C115.594 181.796 114.284 178.656 112.974 175.581C110.746 170.021 108.518 164.395 106.291 158.834C105.373 156.479 104.456 154.059 103.604 151.704C102.949 150.068 102.228 148.825 102.294 146.47C103.932 150.919 105.504 155.367 107.142 159.881C109.042 164.787 111.008 169.759 112.908 174.731ZM112.58 36.3068C112.58 36.0452 112.58 35.8489 112.515 35.5872C112.646 35.6526 112.58 35.9797 112.58 36.3068ZM112.58 34.8676C112.711 34.933 112.646 35.3256 112.646 35.5218C112.646 35.3256 112.58 35.0639 112.58 34.8676ZM112.711 34.8022C112.711 34.3443 112.711 33.8209 112.711 33.363C112.842 33.4939 112.711 34.4751 112.711 34.8022ZM112.777 33.2976C112.777 32.8397 112.777 32.3163 112.777 31.8584C112.974 31.9893 112.777 32.9705 112.777 33.2976ZM115.005 13.149C115.529 14.3265 115.398 16.1582 115.201 17.4665C115.005 20.1487 114.874 22.7654 114.677 25.4475C114.218 23.4195 114.218 20.2141 114.677 17.4011C114.808 15.9619 114.874 14.5881 115.005 13.149ZM113.891 16.2236C114.087 13.8031 114.284 11.3827 114.546 8.96223C114.874 9.74724 114.48 11.3173 114.284 12.2331C114.153 14.4573 113.956 16.6815 113.825 18.9057C113.498 18.5132 113.891 17.0086 113.891 16.2236ZM113.498 21.7841C113.301 25.1204 113.105 28.4567 112.842 31.8584C112.646 31.3351 112.908 29.6342 112.974 28.98C113.17 26.5596 113.367 24.1391 113.498 21.7841ZM109.763 115.135C109.567 110.948 109.37 106.762 109.108 102.64C108.977 99.3041 108.846 95.9678 108.649 92.6315C108.649 90.4727 108.649 88.3139 108.584 86.2205C108.584 83.6038 108.584 80.9871 108.518 78.3704C108.584 75.4266 108.584 72.4828 108.649 69.539C108.78 66.8569 108.846 64.1748 108.977 61.4926C109.042 59.8572 109.042 58.2217 109.108 56.5863C109.37 51.1566 109.698 45.727 109.96 40.2973C110.222 36.0452 110.484 31.8584 110.811 27.6063C111.008 24.7933 111.205 22.0458 111.401 19.2328C111.663 16.4198 111.925 13.6069 112.187 10.7939C112.253 11.5789 112.384 12.3639 112.449 13.149C112.842 15.3732 113.105 17.6628 112.711 20.0178C112.646 21.1299 112.515 22.242 112.449 23.4195C111.86 33.1013 111.27 42.8486 110.68 52.5304C110.549 56.1938 110.418 59.9226 110.222 63.586C110.156 67.1186 110.091 70.7165 109.96 74.2491C109.96 77.5854 109.96 80.9217 110.025 84.258C110.025 85.9588 110.091 87.7251 110.091 89.426C110.091 90.5381 110.091 91.6502 110.156 92.8277C110.287 96.0332 110.418 99.1732 110.615 102.379C110.746 105.126 110.877 107.874 111.008 110.621C111.139 112.518 111.204 114.416 111.336 116.247C111.729 120.826 112.122 125.34 112.515 129.92C112.974 134.303 113.432 138.686 113.891 143.003C114.087 144.639 114.284 146.209 114.48 147.844C113.956 147.386 113.891 146.143 113.629 145.489C113.039 143.723 112.384 141.956 111.794 140.19C111.729 139.471 111.663 138.751 111.598 138.031C110.549 130.574 110.549 122.92 109.763 115.135ZM100.983 106.435C102.097 111.21 103.277 115.986 104.39 120.826C105.963 126.06 107.142 131.424 108.715 136.527C109.829 139.994 110.942 143.461 112.122 146.994C112.384 148.891 112.58 150.853 112.842 152.75C112.253 151.18 111.729 149.545 111.139 147.975C109.96 144.639 108.911 141.302 107.863 137.835C105.832 131.228 104.128 124.359 102.294 117.425C101.639 114.873 101.049 112.322 100.394 109.771C100.263 107.743 100.066 105.715 99.9351 103.752C99.8041 102.379 99.673 101.005 99.542 99.6311C100.001 101.855 100.459 104.145 100.983 106.435ZM100.983 142.611C100.983 143.199 100.983 143.788 101.049 144.377C100.656 142.938 100.066 142.022 100.066 139.863C100.394 140.779 100.721 141.695 100.983 142.611ZM99.542 150.461C99.3454 149.807 99.0833 149.087 98.8868 148.433C98.8213 145.685 98.6902 143.003 98.6247 140.256C99.673 141.956 99.6075 145.162 99.673 147.648C99.542 148.302 99.7385 150.199 99.542 150.461ZM99.1489 139.209C98.8213 137.508 98.2316 136.265 98.2316 133.91C98.5592 134.891 98.8213 135.873 99.1489 136.854C99.1489 137.573 99.2144 138.358 99.2144 139.078C99.2144 139.209 99.2144 139.209 99.1489 139.209ZM98.035 102.771C98.5592 104.995 99.2144 107.285 99.2144 110.033C99.0178 109.051 98.7557 108.135 98.5592 107.154C97.904 104.668 97.3143 101.986 97.3143 99.0424C97.5109 100.285 97.773 101.528 98.035 102.771ZM97.2488 183.627C97.4453 184.085 97.2488 185.001 97.1178 185.59C96.9867 186.702 96.7901 187.88 96.5936 188.926C96.4625 189.842 96.3315 190.823 96.2005 191.674C96.266 190.758 96.397 189.842 96.5936 188.926C96.7246 187.945 96.9212 186.898 97.0522 185.917C97.0522 185.852 97.1178 185.721 97.1178 185.59C97.1833 184.936 97.2488 184.282 97.2488 183.627ZM94.3659 83.2113C94.759 85.3701 95.1522 87.5943 95.5453 89.7531C95.6108 90.7998 95.7418 91.8464 95.8074 92.8931C95.9384 94.0052 96.0039 95.1173 96.135 96.2948C95.8074 94.6594 95.4798 93.024 95.1522 91.3885C94.5625 88.641 94.497 85.5663 93.9728 82.4917C93.7762 80.7254 93.5797 79.0246 93.3831 77.2583C93.7107 79.2208 94.0383 81.2488 94.3659 83.2113ZM92.6624 65.4831C92.99 67.969 93.2521 70.4548 93.5797 73.0061C93.4486 72.2211 93.3831 71.5015 93.2521 70.7165C92.859 67.9036 92.4659 65.0906 92.0727 62.2776C91.6141 58.6797 91.1555 55.0817 90.6968 51.4183C90.3037 48.082 89.8451 44.7457 89.4519 41.4094C89.9761 45.1382 90.4347 48.867 90.9589 52.5958C91.5486 56.848 92.1383 61.1655 92.6624 65.4831ZM92.859 198.804C92.5969 198.543 92.4659 198.281 92.2693 197.954C92.4659 197.627 92.5969 197.3 92.7934 196.907C92.99 197.038 93.1211 197.104 93.4487 197.169C93.3176 197.758 93.121 198.281 92.859 198.804ZM90.6313 173.226C90.5003 174.404 90.4347 175.646 90.3037 176.824C90.3692 180.029 89.3209 183.497 89.0588 186.571C88.7312 185.394 89.3864 182.908 89.6485 181.534C89.9106 179.244 90.1727 177.02 90.4347 174.731C90.5658 172.899 90.7623 171.002 90.8934 169.17C91.221 170.151 90.5003 172.179 90.6313 173.226ZM89.9106 185.263C90.5003 182.45 90.5658 179.31 91.0899 176.366C91.1555 175.45 91.221 174.6 91.2865 173.684C91.4831 170.806 91.6796 167.927 91.8762 165.049C91.8762 164.068 91.8762 163.152 91.9417 162.17C92.4659 158.9 91.6796 154.975 92.0072 151.638C91.9417 149.349 91.9417 147.059 91.8762 144.769C92.0727 138.031 90.8279 130.901 90.7623 124.097C91.6796 125.602 91.4175 127.564 91.8107 129.723C92.0072 132.994 92.2038 136.2 92.4003 139.471C92.4003 140.256 92.4003 141.106 92.4659 141.891C93.0555 145.489 92.2693 149.349 92.7279 153.143C92.7279 154.451 92.7279 155.694 92.7279 157.002C92.7279 158.638 92.6624 160.273 92.6624 161.909C92.6624 162.825 92.6624 163.74 92.5969 164.591C92.4003 167.535 92.2038 170.544 91.9417 173.488C91.6141 176.039 91.352 178.59 91.0244 181.142C90.5658 183.431 90.0416 185.786 89.714 188.01C89.583 187.029 89.714 186.113 89.9106 185.263ZM90.4347 121.415C90.0416 116.64 89.6485 111.864 89.2554 107.089C89.3864 107.808 89.583 108.528 89.714 109.248C90.0416 110.425 90.1727 111.995 90.4347 113.631C90.5003 114.612 90.5658 115.593 90.6313 116.574C90.8279 119.191 91.0244 121.808 91.2865 124.424C91.0244 123.378 90.7623 122.396 90.4347 121.415ZM90.3692 200.571C90.5003 200.374 90.6968 200.178 90.8279 199.916C91.0899 200.113 91.352 200.374 91.6141 200.571C91.1555 200.963 90.8279 200.832 90.3692 200.636V200.571ZM91.4831 199.459C91.4175 199.393 91.4175 199.262 91.352 199.197C91.5486 199.001 91.6796 198.739 91.8762 198.543C92.0727 198.804 92.2693 199.066 92.5314 199.393C92.4658 199.524 92.4659 199.655 92.4003 199.786C92.0072 199.786 91.8107 199.655 91.4831 199.459ZM88.5347 94.2015C89.1243 96.8836 89.6485 100.285 89.6485 103.36C88.9933 99.4349 87.8139 95.0519 87.8795 90.6035C88.076 91.8464 88.2726 93.024 88.5347 94.2015ZM80.6068 39.4469C81.0654 42.8486 81.524 46.1849 81.9827 49.5866C82.1137 50.895 82.1792 52.1379 82.3103 53.4463C83.162 60.0534 83.9483 66.726 84.8 73.3332C85.1932 77.1929 85.6518 81.1179 86.0449 84.9776C85.7828 83.5384 85.5863 82.1646 85.3242 80.7254C84.6035 77.1929 84.4724 73.7912 83.7517 70.0623C83.031 64.7635 82.3758 59.4647 81.6551 54.2313C81.524 52.6612 81.393 51.1566 81.262 49.5866C80.8033 44.7457 80.4102 39.9702 79.9516 35.1293C80.1481 36.5685 80.3447 38.0077 80.6068 39.4469ZM85.0621 97.2107C84.0793 91.9773 83.0965 86.8093 82.1792 81.5759C81.5896 77.4545 80.9999 73.3332 80.4102 69.2773C80.1481 66.9877 79.8205 64.6981 79.5585 62.4085C79.2964 60.3151 79.0343 58.2217 78.7722 56.1284C78.5101 52.465 78.1825 48.8016 77.9205 45.1382C77.7894 43.0448 77.5929 40.8861 77.4618 38.7927C76.9377 35.9797 76.8066 32.9051 76.8721 29.2417C77.5929 30.2884 77.5273 33.1668 77.7894 34.6714C78.4446 39.0544 79.0343 43.3719 79.6895 47.7549C80.5413 54.4275 81.3275 61.1001 82.1792 67.7727C82.3758 69.4736 82.5069 71.109 82.7034 72.8099C83.162 76.9312 83.6207 81.1179 84.0793 85.2393C84.3414 89.2297 84.669 93.2202 85.0621 97.2107ZM85.1276 92.0427C84.669 87.5943 84.2104 83.1459 83.7517 78.6975C84.2104 81.3142 84.669 83.9963 85.1276 86.613C87.0277 93.809 87.8139 103.425 88.5347 113.434C87.6174 109.575 86.7656 105.715 85.9139 101.855C85.6518 98.5845 85.3897 95.3136 85.1276 92.0427ZM88.4036 176.497C88.5347 174.404 88.7312 172.376 88.8623 170.282C88.9278 168.451 88.9933 166.684 89.0588 164.853C89.1243 163.871 89.1243 162.955 89.1899 161.974C89.1899 161.516 89.1899 161.058 89.1899 160.6C89.1243 156.414 89.1243 152.227 89.0588 148.04C88.9933 145.293 88.9278 142.545 88.7967 139.798C88.5347 135.676 88.2726 131.555 88.0105 127.434C87.7484 124.097 87.4208 120.761 87.1588 117.359C86.8312 113.631 86.5691 109.902 86.2415 106.173C86.7656 106.762 87.0932 110.229 87.4208 111.275C87.8795 113.303 88.4036 115.397 88.8623 117.425C89.0588 120.434 89.2554 123.378 89.5175 126.387C89.7795 130.639 90.0416 134.826 90.3037 139.078C90.3692 140.517 90.3692 141.956 90.4347 143.461C90.4347 145.881 90.5003 148.302 90.5003 150.788C90.5003 153.274 90.5003 155.694 90.5003 158.18C90.4347 160.273 90.3692 162.367 90.3037 164.395C90.2382 166.292 90.1071 168.189 90.0416 170.021C89.8451 172.376 89.583 174.665 89.3864 177.02C89.0588 179.572 88.6657 182.123 88.3381 184.74C88.076 184.282 87.8795 183.758 87.6829 183.235C87.8795 180.945 88.1415 178.721 88.4036 176.497ZM88.6002 188.599C88.6002 188.665 88.6002 188.795 88.6002 188.861C88.4691 188.73 88.4036 188.534 88.4036 188.207C88.4691 188.338 88.5347 188.468 88.6002 188.599ZM88.076 189.45C88.4036 189.908 88.3381 191.085 87.8139 191.412C87.4208 191.085 88.0105 190.038 88.076 189.45ZM87.6829 202.01C87.4864 202.075 87.3553 202.141 87.1588 202.206C86.3725 201.944 85.7828 201.29 85.5208 200.505C86.3725 200.505 86.5691 200.767 87.2243 200.898C87.3553 201.225 87.5519 201.617 87.6829 202.01ZM87.8795 186.898C87.6174 186.44 87.4863 185.917 87.2898 185.394C87.4863 185.917 87.6829 186.44 87.8795 186.898ZM87.2243 189.908C86.5036 188.992 87.0277 187.945 87.0932 186.833C87.7484 187.814 87.4208 188.73 87.2243 189.908ZM86.9622 184.412C86.9622 184.478 86.9622 184.543 86.9622 184.674C84.7345 178.656 82.5069 172.572 80.3447 166.553C79.5585 164.329 78.7722 162.105 77.986 159.881C80.9999 167.993 83.9483 176.235 86.9622 184.412ZM42.7364 19.7561C42.9329 19.9524 42.9984 20.4757 42.9984 20.8028C42.8674 20.8028 42.8019 20.8028 42.6708 20.7374C42.7364 20.4757 42.7364 20.0832 42.7364 19.7561ZM42.2777 26.8213C43.0639 30.9426 43.8502 34.9985 44.5709 39.1198C46.7331 49.9791 48.8952 60.773 51.0574 71.6324C52.6298 78.7629 54.2023 85.8934 55.7748 93.024C59.3129 106.107 62.1957 119.06 66.0614 131.62C67.6994 136.985 69.3374 142.349 71.1719 147.582C71.8271 149.61 72.4823 151.638 73.1375 153.666C74.579 157.853 76.0859 162.04 77.5273 166.226C76.2825 162.628 74.9721 159.03 73.7272 155.432C70.7788 147.844 68.4856 139.928 65.9959 132.013C61.4095 117.425 57.7404 102.313 53.8747 86.8747C51.7781 78.6321 50.5332 70.2586 48.5021 61.8197C47.1917 55.0163 45.8158 48.2128 44.5054 41.4094C44.0467 39.1198 43.6536 36.8956 43.195 34.606C42.6708 32.0547 42.2122 29.765 42.2777 26.8213ZM78.4446 186.179C79.624 189.188 80.7378 192.197 81.9172 195.141C81.262 194.291 80.9344 193.113 80.5413 192.066C79.4929 189.711 78.5757 187.225 77.5929 184.74C74.5134 176.955 71.8926 168.908 68.8132 160.993C62.7199 145.227 57.9369 128.742 52.8264 111.995C51.1884 106.631 50.2056 101.201 48.6987 95.7715C47.1262 90.0147 46.0779 84.1271 44.6364 78.2396C43.5226 73.8566 42.3432 69.4736 42.4743 64.0439C43.6536 69.6698 44.7675 75.2958 45.9468 80.9217C48.8952 92.8277 51.2539 104.799 54.792 116.247C59.1818 130.639 63.1785 145.031 68.4856 158.572C69.665 161.909 70.8443 165.245 72.0237 168.647C74.1858 174.534 76.2825 180.357 78.4446 186.179ZM41.8191 71.894C41.8191 72.7445 41.8846 73.5949 41.8846 74.3799C42.0812 77.062 42.2777 79.8096 42.4743 82.4917C42.0812 80.7254 41.688 78.9592 41.2949 77.1929C41.0984 72.8753 40.9018 68.6232 40.6397 64.3056C40.8363 65.156 40.9673 66.0719 41.1639 66.9223C41.6225 68.2307 41.557 70.1932 41.8191 71.894ZM41.2949 22.0458C41.6225 22.6345 41.3604 23.6812 41.3604 24.2045C41.0328 23.6158 41.2294 22.6999 41.2949 22.0458ZM40.4432 53.25C40.5742 53.8388 40.6397 54.4275 40.7708 55.0163C41.2294 56.9788 41.3604 59.3338 41.2949 61.6235C41.2294 61.1001 41.0984 60.6422 41.0328 60.1189C40.5742 58.1563 40.3776 55.6705 40.4432 53.25ZM39.9845 64.8289C40.1156 67.2494 40.1811 69.6698 40.3121 72.0903C39.9845 70.5857 39.7224 69.1465 39.4604 67.6419C39.3293 63.7168 39.2638 59.7264 39.1328 55.8013C39.8535 57.3059 39.5259 59.6609 39.9845 62.2122C39.9845 63.0627 39.9845 63.9785 39.9845 64.8289ZM39.0672 45.0074C39.9845 46.9699 39.5259 50.2408 39.7224 52.7267C39.1983 50.437 39.0017 47.9512 39.0672 45.0074ZM38.4776 17.1394C38.4776 17.2049 38.5431 17.2703 38.5431 17.3357C38.412 17.2049 38.412 17.1394 38.4776 17.1394ZM38.2155 16.0928C38.281 16.289 38.3465 16.4853 38.412 16.6815C38.281 16.7469 38.281 16.7469 38.2155 16.8778C38.15 16.6161 38.15 16.3544 38.2155 16.0928ZM36.3809 14.4573C36.512 14.9152 36.643 15.3732 36.7741 15.8311C36.643 15.8965 36.512 15.8965 36.3809 15.8965C36.1189 15.504 36.3154 14.9152 36.3809 14.4573ZM34.2843 74.2491C34.9395 82.6225 35.5947 90.996 36.2499 99.3695C37.0361 106.107 37.8224 112.911 38.5431 119.649C39.5259 126.322 40.5087 132.929 41.426 139.601C41.0328 138.62 40.6397 137.639 40.3121 136.723C39.9845 134.433 39.6569 132.209 39.3293 129.92C38.2155 124.097 37.9534 117.817 36.9051 111.864C36.7085 110.098 36.5775 108.332 36.3809 106.565C35.5947 102.052 35.7913 97.2761 35.005 92.6315C34.874 90.8652 34.8085 89.0989 34.6774 87.3326C34.3498 82.6225 33.9567 77.8471 33.6291 73.137C33.5636 71.567 33.4981 69.9315 33.4325 68.3615C33.3015 65.2214 33.1705 62.0814 33.0394 58.9413C33.0394 58.2217 33.0394 57.5676 33.0394 56.848C32.9739 53.9696 32.9739 51.1566 32.9084 48.2783C32.9084 46.512 32.9084 44.7457 32.8429 42.9794C32.4498 39.0544 32.8429 35.1293 32.9739 31.2697C33.8912 33.1668 33.3015 39.1852 33.3015 42.129C33.367 47.5587 33.4981 53.0537 33.5636 58.4834C33.6291 61.231 33.6946 63.9785 33.8257 66.726C34.0222 69.2773 34.1533 71.7632 34.2843 74.2491ZM41.9501 147.059C43.195 148.76 43.7847 154.124 44.1123 156.806C43.1295 155.498 42.0156 149.414 41.9501 147.059ZM44.8985 161.909C44.4399 160.666 43.7191 159.357 43.6536 157.918C44.1123 158.572 44.833 160.993 44.8985 161.909ZM39.919 144.9C38.7396 141.956 37.6258 138.686 37.4948 135.153C37.8879 136.2 38.281 137.246 38.6741 138.293C39.919 141.433 40.6397 144.442 41.0328 148.106C40.7052 147.059 40.3121 145.947 39.919 144.9ZM41.8191 152.619C40.9673 150.199 40.1156 147.779 39.2638 145.358C39.5259 146.078 39.788 146.797 40.05 147.517C40.6397 149.152 41.426 150.853 41.8191 152.619ZM39.5914 138.882C39.0672 136.265 37.1017 134.041 36.9051 131.359C37.4293 131.947 39.5914 137.9 39.5914 138.882C39.6569 138.882 39.6569 138.882 39.5914 138.882ZM37.5603 138.62C37.1672 137.77 36.8396 136.919 36.512 136.134C35.7257 134.303 35.005 132.471 34.2843 130.705C31.598 124.294 28.6496 118.341 25.5702 112.322C24.3908 110.098 23.1459 107.808 21.9666 105.584C23.8667 107.612 25.2426 110.033 26.684 112.518C29.4358 117.163 31.6635 122.135 34.0877 127.237C35.6602 130.443 37.4293 133.975 37.5603 138.62ZM25.5702 129.92C26.6185 132.405 27.7323 134.957 28.7806 137.573C30.8773 142.872 32.7773 148.367 34.874 153.797C36.0533 157.395 37.2327 160.928 38.412 164.525C39.3948 167.469 40.3121 170.413 41.2949 173.357C41.9501 175.319 42.9329 177.086 42.8674 179.702C41.2949 175.189 39.7224 170.609 38.15 166.096C35.3326 157.199 32.6463 148.433 29.3048 139.928C27.5358 135.48 25.8323 131.097 24.0632 126.649C24.5874 127.695 25.046 128.807 25.5702 129.92ZM41.3604 143.199C41.8846 143.919 42.3432 145.489 42.4743 146.405C42.0812 145.816 41.426 143.984 41.3604 143.199ZM33.6291 22.3074C34.3498 23.7466 33.5636 29.1763 33.4981 31.2697C32.5153 29.1763 33.5636 24.8587 33.6291 22.3074ZM32.8429 24.27C32.9739 22.7654 33.1049 21.2608 33.236 19.7561C33.5636 20.4103 32.7773 24.7933 32.7773 26.1671C32.5808 25.7092 32.7773 24.7933 32.8429 24.27ZM33.8257 106.238C33.4981 103.098 33.1705 99.9582 32.8429 96.8182C32.7773 95.4444 32.7118 94.0706 32.6463 92.6969C32.5153 90.9306 32.3842 89.0989 32.1877 87.3326C32.1222 85.8934 31.9911 84.3888 31.9256 82.9496C31.6635 79.6133 31.467 76.277 31.2049 73.0061C31.1394 71.6324 31.1394 70.324 31.0738 68.9502C30.9428 64.1748 30.7462 59.4647 30.6152 54.6892C30.6152 52.2033 30.5497 49.7174 30.5497 47.2316C30.5497 43.8953 30.5497 40.4936 30.6152 37.1572C30.091 32.8397 31.0083 26.8213 31.4014 21.5878C32.3187 22.6999 31.9256 28.98 31.729 31.1388C31.467 33.8864 31.4014 37.6806 31.6635 39.9702C31.6635 41.9982 31.6635 44.0915 31.729 46.1195C31.729 48.9979 31.7946 51.8762 31.7946 54.7546C31.7946 56.063 31.8601 57.4367 31.8601 58.7451C32.1222 63.9785 32.3187 69.2773 32.5808 74.5107C33.0394 80.4638 33.4325 86.4168 33.8912 92.3698C33.9567 93.4819 34.0222 94.594 34.1533 95.6407C34.6774 100.547 35.2016 105.453 35.7257 110.36C36.2499 114.481 36.7741 118.602 37.2982 122.658C37.7569 125.798 38.2155 128.938 38.6741 132.078C38.4121 131.49 38.15 130.835 37.8879 130.247C37.1017 128.415 36.3809 126.91 35.9223 124.752C34.874 119.191 34.8085 112.257 33.8257 106.238ZM23.5391 104.734C24.5874 106.042 25.5047 107.612 26.2909 109.117C26.9461 110.229 27.6668 111.406 28.322 112.518C29.96 115.724 31.5325 118.929 33.0394 122.266C33.7601 123.836 34.4153 125.406 35.1361 126.976C35.5947 128.022 36.2499 129.004 36.3154 130.377C35.7913 129.265 35.2671 128.153 34.8085 127.107C33.8257 125.013 32.9739 122.92 31.9256 120.892C30.3531 117.817 28.9117 114.808 27.2082 111.93C26.2909 110.49 25.6357 108.92 24.5874 107.612C23.7356 106.565 22.8839 105.519 22.0976 104.537C21.5735 104.014 21.0493 103.556 20.5252 103.033C20.132 102.379 19.6734 101.659 19.2803 101.005C18.7561 100.351 18.2975 99.6966 17.7733 99.0424C20.3941 100.22 21.9011 102.64 23.5391 104.734ZM9.71439 94.0052C10.9593 94.3323 11.6145 94.3977 12.4007 95.1827C12.0076 95.2482 11.6145 95.2482 11.2213 95.3136C10.9593 95.4444 10.7627 95.6407 10.5006 95.7715C10.2386 95.7061 10.042 95.6407 9.77991 95.5753C8.92815 95.4444 8.33848 95.7715 7.87984 96.0332C8.14192 94.9865 8.92815 94.4632 9.71439 94.0052ZM11.7455 107.089C11.9421 107.612 11.4834 108.07 11.2869 108.463C11.2869 108.005 11.3524 107.481 11.4834 106.958C11.5489 107.023 11.6145 107.089 11.7455 107.089ZM11.811 105.846C11.8765 105.911 11.9421 105.977 12.0076 106.042C12.0076 106.173 12.0076 106.238 11.9421 106.369C11.8765 106.304 11.811 106.304 11.7455 106.238C11.68 106.107 11.7455 106.042 11.811 105.846ZM10.3696 97.4069C10.3696 97.2761 10.5006 97.2761 10.5661 97.2761C10.5661 97.3415 10.5006 97.4069 10.3696 97.4069ZM10.4351 108.855C10.4351 108.724 10.4351 108.528 10.3696 108.397C10.5006 108.463 10.5006 108.528 10.4351 108.855ZM10.5006 96.949C10.5661 96.8182 10.6317 96.7528 10.6972 96.6219C10.8937 96.7528 11.0903 96.8836 11.2869 97.0144C11.0248 96.949 10.7627 96.949 10.5006 96.949ZM10.5661 106.631C10.6317 106.631 10.7627 106.631 10.8282 106.696C10.7627 107.023 10.6972 107.35 10.6317 107.743C10.4351 107.416 10.5006 107.023 10.5661 106.631ZM11.2869 109.771C11.2213 110.621 11.0248 111.341 10.8282 112.061C10.5661 111.341 11.1558 110.36 11.2869 109.771ZM11.1558 105.911C11.0248 105.911 10.8937 105.911 10.6972 105.911C10.6972 105.584 10.7627 105.322 10.7627 104.995C10.9593 105.061 11.0903 105.126 11.2869 105.192C11.2869 105.388 11.2213 105.65 11.1558 105.911ZM9.91095 96.4911C9.77991 96.7528 9.64887 96.949 9.51783 97.2107C9.25575 97.2107 8.99367 97.2107 8.7316 97.2761C8.99367 96.8836 9.32127 96.7528 9.71439 96.4911C9.77991 96.4911 9.84543 96.4911 9.91095 96.4911ZM9.19023 96.2294C9.25575 96.2294 9.32127 96.2294 9.45231 96.2294C8.7316 96.8182 8.20744 97.4724 7.48672 97.9957C7.87984 97.0144 8.33848 96.7528 9.19023 96.2294ZM6.89704 129.135C8.99368 137.835 10.8937 146.143 13.7111 153.993C15.1525 157.918 16.594 161.778 18.0354 165.703C18.7561 167.535 19.5424 169.366 20.2631 171.198C19.3458 170.086 18.7561 167.862 18.1664 166.488C16.7905 163.217 15.4801 159.815 14.1697 156.414C10.8937 148.106 8.66608 139.274 6.37288 129.854C5.78321 127.434 5.58665 125.079 5.12801 122.527C4.07969 116.836 3.68657 108.92 5.12801 103.491C5.06249 104.276 4.99697 105.126 4.93145 105.911C4.66937 107.547 4.47281 110.752 4.73489 112.518C4.80041 114.023 4.93145 115.462 4.99697 116.967C5.65217 121.088 5.91425 125.209 6.89704 129.135ZM5.97977 99.6966C6.04529 99.6966 6.11081 99.6966 6.17633 99.6966C5.78321 100.482 5.58665 101.397 5.12801 102.052C4.93145 101.986 4.66937 101.986 4.47281 101.921C4.53833 100.743 5.12801 100.285 5.97977 99.6966ZM4.14521 102.379C4.34177 102.379 4.53833 102.379 4.73489 102.444C4.07969 103.883 3.62105 105.715 3.62105 107.612C3.29346 106.696 4.01417 103.295 4.14521 102.379ZM42.1467 210.972C41.7536 210.841 41.3604 210.449 41.0984 210.122C41.688 210.318 41.8846 210.58 42.1467 210.972ZM42.7364 211.888C41.426 211.757 40.4432 210.514 39.8535 209.467C39.919 209.467 42.7364 211.888 42.7364 211.888ZM28.0599 189.646C30.0255 193.44 31.9256 197.3 33.8912 201.094C34.874 202.729 35.8568 204.299 36.7741 205.935C37.6913 207.243 38.8707 208.552 39.6569 210.056C37.0361 208.813 35.5292 206.458 34.0222 204.169C31.0738 199.72 28.453 194.618 26.0943 189.646C24.6529 186.768 23.1459 183.955 21.7045 181.076C18.6906 174.273 15.4146 167.796 12.8593 160.666C11.68 157.33 10.5006 153.993 9.25575 150.657C8.46952 148.106 7.68328 145.489 6.96256 142.938C6.56944 141.433 6.17632 139.928 5.78321 138.424C4.99697 134.76 4.14521 131.162 3.35898 127.499C2.17962 122.331 1.39338 114.612 1.65546 110.556C1.85202 107.678 1.72098 104.865 3.29346 102.771C3.35898 102.837 3.16242 104.734 3.0969 105.192C2.7693 106.893 2.63826 111.079 3.03138 113.238C3.29346 115.855 3.62105 118.471 3.88313 121.088C4.07969 122.462 4.34177 123.77 4.53833 125.144C5.78321 129.592 6.50392 134.957 7.94536 139.667C13.0559 156.806 19.7389 174.534 28.0599 189.646ZM12.7283 127.107C14.1042 133.452 15.2181 139.667 17.1181 145.554C18.2975 149.283 19.5424 153.012 20.7217 156.741C20.4596 155.956 20.132 155.105 19.87 154.32C19.2148 152.423 18.5596 150.526 17.9044 148.629C15.2836 141.237 13.5801 133.321 11.811 125.013C11.0903 121.481 10.1075 115.528 11.3524 111.864C11.3524 113.5 11.4179 115.135 11.4179 116.771C11.4834 117.817 11.5489 118.864 11.68 119.845C12.0731 122.266 12.4007 124.686 12.7283 127.107ZM12.7938 111.079C12.4662 110.294 12.0731 109.509 12.7938 108.724C12.7938 109.444 12.7938 110.294 12.7938 111.079ZM12.5973 108.135C12.5973 108.07 12.5973 108.005 12.5973 107.874C12.7283 107.939 12.7283 107.874 12.7938 108.005C12.7283 108.07 12.6628 108.07 12.5973 108.135ZM12.5973 97.0144C12.2041 96.7528 11.811 96.4911 11.4179 96.164C11.5489 95.9678 11.7455 95.9023 11.8765 95.8369C13.5145 95.8369 14.7594 97.0144 15.2836 98.1265C14.7594 97.7995 14.2353 97.5378 13.7111 97.2107C13.318 97.2107 12.9249 97.1453 12.5973 97.0144ZM42.5398 186.571C42.4743 186.702 42.5398 186.637 42.4088 186.702C41.2949 185.655 40.9673 183.497 40.2466 181.992C38.2155 177.544 37.2982 172.834 35.5947 168.516C34.9395 166.423 34.2843 164.329 33.6291 162.301C32.9084 160.143 32.1877 157.918 31.467 155.76C30.8118 153.797 30.091 151.834 29.4358 149.937C27.5358 145.293 26.3564 140.779 24.3253 136.527C23.277 133.845 22.2287 131.097 21.1803 128.415C19.87 125.406 18.494 122.397 17.1836 119.387C16.1353 117.294 15.0215 115.201 13.9732 113.173C13.9732 111.864 13.9732 110.621 13.9732 109.313C14.8249 109.705 15.6767 111.864 16.1353 112.715C18.1009 115.986 19.7389 119.584 21.3114 123.182C25.1115 131.751 28.322 140.779 31.7946 149.807C33.8257 155.89 35.8568 161.909 37.8224 167.993C39.3948 172.506 40.7052 177.151 42.4088 181.469C42.9329 182.581 43.3916 185.197 42.5398 186.571ZM43.326 179.506C43.7191 180.029 44.6364 182.777 44.5054 183.366C43.7847 181.861 43.3915 181.207 43.326 179.506ZM45.2916 185.721C44.964 185.328 44.7019 184.87 44.4399 184.478C44.6364 184.412 44.833 184.282 45.0295 184.216C45.3571 184.609 45.4227 185.132 45.2916 185.721ZM47.1917 186.571C47.1917 186.375 47.1917 186.506 47.2572 186.31C47.2572 186.375 47.2572 186.44 47.3227 186.506C47.2572 186.571 47.1917 186.571 47.1917 186.571ZM48.6987 190.693C48.3055 190.496 48.109 189.842 47.9124 189.45C48.0434 189.515 48.1745 189.58 48.3055 189.711C48.5676 189.842 48.7642 189.711 48.9607 189.646C48.8297 189.973 48.7642 190.3 48.6987 190.693ZM47.4538 187.356C47.5193 187.225 47.5193 187.095 47.5848 186.964C47.7814 187.225 47.9779 187.422 48.1745 187.683C48.4366 187.749 48.5676 187.683 48.8297 187.618C48.7642 188.076 48.6986 188.534 48.5676 188.992C48.109 188.534 47.7814 187.945 47.4538 187.356ZM46.2089 133.06C44.7675 125.733 44.5054 118.341 43.195 110.948C42.2777 105.846 42.3432 100.482 41.426 95.1827C40.8363 91.7156 41.0328 87.9868 40.4432 84.3234C40.1811 80.0713 39.919 75.7537 39.5914 71.5015C39.7224 72.1557 39.8535 72.8099 39.9845 73.4641C40.1811 74.4453 40.3776 75.492 40.5742 76.4733C40.7052 78.6321 40.8363 80.7908 40.9673 82.9496C41.0984 85.1084 41.2949 87.2018 41.426 89.3606C42.0156 95.0519 42.6053 100.743 43.195 106.5C43.4571 108.92 43.7847 111.341 44.0467 113.761C45.0951 121.088 46.1434 128.415 47.1262 135.742C47.4538 138.162 47.8469 140.583 48.1745 143.068C50.009 154.059 51.7781 165.114 53.6126 176.17C53.154 174.796 52.6954 173.488 52.3022 172.114C50.3366 158.965 48.3055 146.012 46.2089 133.06ZM52.5643 187.422C52.3022 186.964 51.9746 186.637 52.1057 186.048C52.1712 186.048 52.3022 186.048 52.3678 185.982C52.5643 186.244 52.5643 186.964 52.5643 187.422ZM50.7298 187.095C50.8608 187.095 50.9263 187.095 51.0574 187.16C51.0574 187.225 50.9918 187.291 50.9918 187.356C50.9263 187.356 50.8608 187.356 50.7298 187.291C50.7298 187.225 50.7298 187.16 50.7298 187.095ZM52.3678 191.674C51.8436 191.15 50.9263 188.599 50.7953 187.749C51.3194 187.749 51.4505 187.422 51.516 187.095C51.7126 187.683 52.1057 187.814 52.4988 188.468C52.8919 188.861 52.4333 191.281 52.3678 191.674ZM52.9574 192.59C52.8264 192.59 52.7609 192.524 52.6954 192.524C52.9574 191.739 53.2195 191.085 53.2195 189.973C53.5471 190.693 53.0885 192.001 52.9574 192.59ZM54.2023 186.375C53.6126 185.394 53.6126 183.3 53.6126 181.861C54.3989 183.104 54.5299 184.805 54.2023 186.375ZM56.4955 183.824C56.4955 184.87 56.43 185.786 56.2334 186.506C55.5127 185.917 55.3161 184.87 55.3817 183.562C55.7093 183.758 56.2334 183.889 56.4955 183.824ZM44.833 105.126C45.4227 109.64 46.0123 114.088 46.602 118.602C47.1262 122.397 47.6503 126.256 48.1745 130.05C48.5676 132.602 48.8952 135.088 49.2883 137.639C50.4022 144.246 51.516 150.853 52.5643 157.46C53.5471 163.217 54.5299 168.974 55.4472 174.796C55.7748 176.235 56.3645 181.142 55.9058 182.319C55.5782 181.73 55.3161 181.011 55.0541 180.357C54.9885 179.572 54.923 178.787 54.792 178.067C54.4644 175.908 54.1368 173.749 53.7437 171.591C52.4333 163.479 51.0574 155.432 49.747 147.321C48.109 139.405 47.5193 130.901 46.0123 122.789C45.6192 120.041 45.2916 117.229 44.8985 114.481C44.5709 111.537 44.2433 108.528 43.8502 105.584C43.4571 101.986 43.064 98.3882 42.6708 94.7248C42.2122 92.0427 42.3432 89.2297 41.8846 86.4168C41.7536 84.6505 41.6225 82.8842 41.4915 81.1179C41.6225 81.7067 41.7536 82.2954 41.8846 82.8842C42.1467 83.9963 42.4088 85.1084 42.6708 86.1551C42.7364 87.2018 42.8674 88.3139 42.9329 89.3606C43.6536 94.594 44.2433 99.8928 44.833 105.126ZM81.7206 199.982C79.624 199.262 78.3791 194.552 77.4618 192.459C74.1203 185.197 71.8271 177.478 68.8787 169.955C66.3235 162.825 63.7682 155.694 61.1474 148.564C60.0991 145.424 58.9853 142.218 57.9369 139.078C56.6921 135.153 55.4472 131.293 54.1368 127.368C52.8919 123.051 51.647 118.733 50.3366 114.416C48.7642 109.705 48.0434 105.061 46.6675 100.285C45.8158 96.949 44.964 93.6127 44.1778 90.211C43.5226 87.398 43.9812 84.1926 43.3915 81.2488C43.2605 79.4825 43.1295 77.7162 42.9984 75.9499C44.1123 80.9217 45.2261 85.828 46.4055 90.7998C47.2572 94.1361 48.0434 97.4724 48.8952 100.809C49.4849 103.033 50.0746 105.257 50.6642 107.547C52.5643 113.238 53.8092 119.387 55.8403 125.471C60.4267 139.013 64.6855 153.208 69.796 166.488C71.1719 170.413 72.6134 174.338 73.9893 178.263C75.8894 183.235 77.8549 188.141 79.755 193.113C80.4757 194.683 81.1964 196.253 81.9172 197.823C82.2448 198.281 82.5069 198.804 82.8344 199.262C82.5724 199.589 82.2448 199.851 81.7206 199.982ZM83.2276 198.543C83.031 198.216 82.8344 197.889 82.6379 197.496C82.9655 197.692 83.2276 198.019 83.2276 198.543C83.2931 198.543 83.2931 198.543 83.2276 198.543ZM79.3619 169.039C75.3652 157.918 71.6306 146.732 67.9615 135.218C63.7027 121.808 60.5577 108.005 56.8231 94.0052C54.6609 85.828 53.4816 77.52 51.385 69.2119C48.9607 59.3993 47.5193 49.1287 45.3571 39.1198C44.7675 36.3068 44.3743 33.363 43.7191 30.4192C43.0639 27.4754 42.4088 24.6625 42.8019 21.457C43.4571 22.3074 43.4571 23.9429 43.7191 25.055C44.2433 27.9334 44.7675 30.8117 45.2916 33.6901C47.3227 43.5682 49.2883 53.4463 51.3194 63.2589C53.285 71.3707 54.6609 79.6787 56.6921 87.7251C57.2162 90.211 57.8059 92.6969 58.3301 95.1827C59.706 100.678 61.0819 106.173 62.5233 111.603C64.0303 117.163 65.6027 122.658 67.1097 128.219C69.2063 135.088 71.303 141.891 73.5306 148.694C76.479 157.657 79.4929 166.619 82.9 175.319C84.2104 178.787 85.5208 182.254 86.8312 185.786C86.7001 186.506 86.6346 187.225 86.5036 187.945C84.0793 181.665 81.7206 175.385 79.3619 169.039ZM85.0621 199.589C85.4552 199.655 85.5863 199.72 85.7173 200.047C85.3897 200.047 85.1932 199.916 85.0621 199.589ZM87.4208 203.645C86.307 203.58 85.7173 202.075 85.3242 201.29C86.2415 202.075 86.438 202.926 87.8795 202.468C88.0105 202.664 88.076 202.795 88.2071 202.991C88.0105 203.318 87.7484 203.514 87.4208 203.645ZM88.4036 200.898C88.4036 200.832 88.4691 200.767 88.6002 200.767C88.6002 200.898 88.6002 200.832 88.5347 200.963C88.5347 200.898 88.4691 200.898 88.4036 200.898ZM88.7312 202.272C88.6657 202.075 88.6002 201.944 88.6002 201.814C88.8623 201.552 89.0588 201.225 89.3209 200.963C89.2554 201.421 89.0588 201.814 88.8623 202.272C88.7967 202.272 88.7312 202.272 88.7312 202.272ZM89.1243 202.991C89.4519 202.468 89.8451 201.879 90.0416 201.225C90.3037 201.159 90.5003 201.421 90.7623 201.486C91.0899 201.552 92.9245 200.767 93.121 200.636C93.5142 201.225 91.2865 204.299 90.7623 204.627C89.8451 204.627 89.3209 203.711 89.1243 202.991ZM90.8279 205.215C92.3348 204.823 93.3831 201.879 93.9073 200.374C93.9728 200.374 94.0383 200.374 94.1039 200.374C93.5797 201.879 92.5969 205.281 90.8279 205.215ZM93.9073 198.019C93.9728 197.823 94.0383 197.627 94.1694 197.365C94.1694 197.627 94.0383 197.823 93.9073 198.019ZM94.3659 199.786C94.3004 199.524 94.3659 199.328 94.497 199.131C94.4314 199.328 94.3659 199.589 94.3659 199.786ZM93.7763 196.515C93.4487 196.318 93.3176 196.188 93.1866 196.057C93.1866 196.057 94.3659 192.459 94.497 192.066C95.3487 189.319 95.7418 186.375 96.3315 183.366C96.5281 181.927 96.7246 180.422 96.9867 178.983C97.2488 179.572 96.6591 183.366 96.5281 184.085C96.0039 186.964 95.8074 189.646 95.0866 192.197C94.628 193.636 94.2349 195.076 93.7763 196.515ZM97.8385 192.459C97.1833 194.487 96.5281 197.954 95.0866 199.131C95.4798 195.664 97.8385 193.506 98.4281 189.973C98.5592 190.562 98.035 191.87 97.8385 192.459ZM97.9695 182.254C98.1661 179.048 98.4282 175.908 98.6247 172.703C98.6902 170.675 98.7557 168.647 98.8213 166.619C98.8213 164.918 98.8868 163.152 98.8868 161.451C98.8868 157.722 98.8868 153.928 98.8213 150.199C99.673 151.18 99.8041 155.367 99.542 157.46C99.4109 161.32 99.2799 165.18 99.0833 169.039C98.8868 171.329 98.7557 173.619 98.5592 175.908C98.4281 178.002 98.1661 180.16 97.9695 182.254ZM100.787 162.563C100.721 164.198 100.59 165.834 100.525 167.469C100.394 169.432 100.197 171.394 100.066 173.357C99.8696 175.45 99.673 177.609 99.4109 179.702C99.2144 180.88 99.0178 182.057 98.8213 183.235C99.0833 180.618 99.3454 178.067 99.6075 175.45C99.7385 173.226 99.9351 171.067 100.066 168.843C100.132 167.142 100.197 165.507 100.263 163.806C100.328 160.731 100.394 157.591 100.525 154.517C101.704 156.545 100.525 160.077 100.787 162.563ZM101.049 154.451C100.197 152.162 100.263 148.564 100.328 145.62C101.573 147.582 101.114 151.769 101.049 154.451ZM101.639 119.911C101.18 118.341 100.656 116.771 100.721 114.743C101.966 119.584 103.211 124.49 104.521 129.331C106.028 134.368 107.339 139.405 109.042 144.246C110.091 147.321 111.205 150.395 112.253 153.404C111.925 152.554 111.598 151.638 111.27 150.788C110.222 148.171 109.501 145.424 108.453 142.741C106.225 136.985 104.784 130.835 102.949 124.686C102.49 123.182 102.097 121.546 101.639 119.911ZM116.577 190.627C116.512 190.693 116.446 190.758 116.315 190.823C115.398 189.973 115.201 188.795 114.546 187.749C113.039 185.328 112.318 182.45 111.008 179.637C109.763 176.628 108.518 173.619 107.208 170.609C106.749 169.301 106.225 168.058 105.766 166.75C104.915 165.245 104.521 163.021 103.735 161.582C103.211 160.208 102.687 158.9 102.163 157.526C102.163 155.367 102.228 153.208 102.228 151.115C103.342 154.059 104.456 157.002 105.504 159.946C108.125 166.553 110.811 173.161 113.432 179.702C114.612 182.385 115.725 185.001 116.905 187.683C117.232 188.665 116.774 189.973 116.577 190.627ZM117.232 158.834C117.691 159.423 118.346 161.385 118.412 162.236C118.019 161.843 117.232 159.619 117.232 158.834ZM119.067 189.842C118.805 189.319 118.346 188.926 118.15 188.272C118.281 188.272 118.412 188.338 118.608 188.338C118.805 188.795 119.001 189.319 119.198 189.777C119.132 189.842 119.132 189.842 119.067 189.842ZM119.591 170.348C119.198 169.432 118.87 168.451 118.477 167.535C118.215 165.834 118.019 164.133 117.756 162.432C118.805 163.675 119.46 168.189 119.591 170.348ZM121.032 190.954C120.967 190.758 120.901 190.627 120.77 190.431C120.901 190.431 121.032 190.431 121.164 190.496C121.164 190.562 121.164 190.693 121.229 190.758C121.164 190.889 121.098 190.954 121.032 190.954ZM121.557 191.15C121.819 191.412 122.015 191.608 122.408 191.805C122.736 191.805 122.867 191.739 122.998 191.543C123.129 192.001 122.867 192.655 122.67 193.113C121.95 192.851 121.557 192.001 121.295 191.347C121.36 191.347 121.426 191.216 121.557 191.15ZM122.736 194.814C122.212 194.552 121.688 193.702 121.557 193.113C121.819 193.375 122.015 193.636 122.408 193.767C122.802 193.767 122.867 193.636 123.064 193.506C122.998 194.094 122.867 194.421 122.736 194.814ZM122.081 138.555C121.884 136.527 121.688 134.433 121.426 132.405C121.229 129.723 120.967 127.041 120.77 124.359C120.508 119.453 120.181 114.546 119.919 109.64C119.788 106.108 119.591 102.64 119.46 99.1078C119.46 97.9303 119.46 96.7528 119.394 95.5753C119.394 91.4539 119.329 87.3326 119.329 83.2767C119.394 80.7254 119.394 78.1741 119.46 75.5574C119.591 72.0903 119.722 68.6232 119.853 65.156C120.967 67.6419 119.788 73.2024 120.05 76.3424C120.377 81.0525 119.526 87.9868 120.115 92.8931C120.115 94.2015 120.181 95.5098 120.181 96.8836C120.246 98.7153 120.246 100.547 120.312 102.379C120.508 106.238 120.705 110.163 120.901 114.023C121.098 116.901 121.295 119.845 121.491 122.724C121.622 124.555 121.753 126.452 121.95 128.284C122.539 134.106 123.129 139.863 123.719 145.685C124.571 152.096 125.357 158.507 126.209 164.853C126.733 168.385 127.257 171.918 127.781 175.45C128.305 178.067 128.764 181.076 128.764 184.02C128.371 183.104 127.978 182.188 127.65 181.338C127.453 179.114 127.191 176.889 126.995 174.731C126.143 168.974 125.291 163.283 124.505 157.526C123.326 151.377 123.129 144.835 122.081 138.555ZM126.864 191.674C126.536 192.001 125.946 190.889 126.012 190.496C126.077 190.431 126.602 190.038 126.667 189.842C126.929 190.038 127.06 191.216 126.864 191.674ZM125.16 191.216C125.095 191.281 125.095 191.347 125.029 191.412C124.964 191.412 124.898 191.412 124.833 191.412C124.898 191.216 125.029 191.216 125.16 191.216ZM126.274 195.991C125.75 195.468 124.505 192.786 124.439 191.936C124.767 191.87 125.029 191.87 125.226 191.87C125.291 191.739 125.422 191.608 125.488 191.478C125.881 191.543 125.946 192.59 126.864 192.524C127.126 193.506 126.667 195.141 126.405 195.926C126.34 195.991 126.34 195.991 126.274 195.991ZM127.06 196.646C126.864 196.711 126.798 196.646 126.733 196.646C127.126 195.468 127.584 194.421 127.584 192.655C127.912 193.702 127.257 195.991 127.06 196.646ZM128.24 190.562C128.109 189.777 128.109 188.992 128.109 188.207C128.698 188.861 128.567 189.711 128.24 190.562ZM128.698 187.88C128.436 187.095 127.978 186.571 128.043 185.59C128.567 186.113 128.829 186.898 128.829 187.88C128.764 187.88 128.764 187.88 128.698 187.88ZM130.86 187.814C131.188 188.534 130.598 189.973 130.402 190.562C129.353 190.627 129.681 188.795 129.747 187.683C130.205 187.749 130.402 187.814 130.86 187.814ZM123.064 119.126C123.326 122.462 123.588 125.798 123.915 129.135C124.177 131.49 124.374 133.845 124.636 136.265C126.012 143.984 126.143 152.031 127.519 159.619C127.781 161.647 128.043 163.74 128.371 165.768C129.288 170.348 129.878 175.123 130.336 179.964C130.467 181.796 130.795 185.263 130.074 186.637C129.55 186.244 129.812 185.197 129.681 184.282C129.55 182.581 129.353 180.945 129.222 179.244C128.305 172.964 127.388 166.619 126.471 160.339C125.815 155.236 125.16 150.199 124.505 145.096C124.374 143.657 124.243 142.218 124.046 140.713C123.588 136.2 123.129 131.751 122.67 127.237C122.605 125.994 122.539 124.686 122.408 123.443C122.146 119.714 121.95 116.051 121.688 112.322C121.557 109.705 121.426 107.089 121.295 104.472C121.229 101.594 121.098 98.7153 121.032 95.8369C121.032 94.0706 120.967 92.3044 120.967 90.5381C120.967 88.7718 120.967 87.0055 120.901 85.2393C120.901 81.2488 120.967 77.3237 120.967 73.3332C121.491 74.5107 121.36 76.2116 121.557 77.6508C121.557 79.6787 121.557 81.7067 121.557 83.7346C121.622 86.7439 121.688 89.7531 121.753 92.7623C121.819 94.7248 121.819 96.6874 121.884 98.5845C122.605 103.752 122.015 110.098 122.867 115.397C122.998 116.705 123.064 117.883 123.064 119.126ZM140.557 96.8182C141.016 97.4724 140.885 98.977 141.082 99.8274C141.737 103.033 141.606 106.435 141.409 109.771C141.016 107.612 140.623 105.453 140.23 103.36C140.361 101.136 140.492 98.977 140.557 96.8182ZM141.278 118.602C141.147 117.686 140.95 116.771 140.819 115.92C140.23 113.107 139.64 109.967 140.099 107.743C140.23 108.463 140.361 109.248 140.492 109.967C141.082 112.78 141.344 115.658 141.278 118.602ZM126.798 9.02764C126.798 9.09306 126.864 9.15848 126.864 9.28931C126.733 9.28931 126.733 9.15848 126.798 9.02764ZM126.864 10.6631C127.257 12.9527 127.715 15.1769 128.109 17.4665C129.157 23.4195 130.205 29.438 131.188 35.391C132.892 43.5028 133.547 52.0725 135.185 60.3805C135.512 62.8664 135.905 65.4177 136.233 67.9036C137.543 76.6041 138.854 85.3701 140.23 94.0706C140.099 96.164 140.033 98.2574 139.902 100.285C139.444 97.7995 139.05 95.3136 138.657 92.8277C137.74 86.5476 136.757 80.3329 135.84 74.0528C135.447 71.5015 135.054 68.8848 134.661 66.3335C132.892 57.8292 132.433 48.6708 130.664 40.3627C130.205 37.6806 129.812 34.9985 129.353 32.3163C128.764 28.8492 128.174 25.3821 127.584 21.9149C126.733 18.2515 126.077 14.5881 126.864 10.6631ZM126.077 18.4478C126.602 21.5224 127.06 24.5971 127.584 27.6063C129.026 34.4751 129.616 41.4748 130.991 48.4745C132.826 60.7076 134.661 72.9407 136.495 85.1738C137.085 89.0335 137.674 92.8277 138.264 96.6874C139.05 100.416 139.771 104.014 139.509 108.332C138.723 104.014 138.002 99.6311 137.216 95.3136C136.43 90.2764 135.643 85.2393 134.857 80.2021C133.088 68.2961 131.319 56.3901 129.55 44.484C128.633 38.7273 127.65 33.0359 126.733 27.2792C126.274 24.8587 125.291 21.1299 126.077 18.4478ZM124.898 11.7098C125.422 12.691 124.898 14.1956 124.833 15.3732C124.374 14.3919 124.767 12.7565 124.898 11.7098ZM141.344 193.767C140.426 193.178 140.23 191.936 139.968 190.954C139.312 188.534 139.444 186.44 138.788 183.627C138.068 180.553 138.133 176.693 137.347 173.488C137.543 172.768 137.019 169.693 136.823 168.778C136.954 168.254 136.43 164.722 136.233 163.937C136.036 162.236 135.84 160.47 135.643 158.769C135.185 155.694 134.726 152.554 134.267 149.479C134.464 148.891 133.809 146.209 133.612 145.554C133.809 145.031 133.023 141.302 132.826 140.779C132.695 140.059 132.629 139.274 132.498 138.555C132.171 136.658 131.843 134.76 131.45 132.863C131.123 130.639 130.729 128.35 130.402 126.125C129.55 121.35 128.698 116.509 127.847 111.733C127.65 110.425 127.453 109.117 127.257 107.743C125.815 99.0424 124.374 90.3418 122.867 81.7067C122.867 77.1929 122.933 72.6791 122.933 68.0998C124.177 75.9499 125.422 83.8001 126.733 91.6502C127.65 97.0799 128.567 102.51 129.419 107.939C131.057 117.425 132.695 126.91 134.333 136.396C134.857 139.863 135.447 143.33 135.971 146.797C136.495 150.984 137.085 155.171 137.609 159.292C137.871 161.909 138.199 164.46 138.461 167.077C139.64 173.422 139.902 180.618 140.95 185.328C141.147 186.31 141.278 187.356 141.475 188.338C141.737 188.992 141.933 189.646 142.195 190.3C142.523 191.02 141.671 193.571 141.344 193.767ZM142.72 187.356C141.999 183.955 141.868 180.16 141.147 176.301C140.95 174.731 140.754 173.161 140.492 171.591C140.295 169.628 140.099 167.6 139.837 165.638C139.378 161.843 138.919 158.049 138.461 154.255C136.823 145.358 136.168 136.592 134.202 127.761C133.809 125.406 133.416 123.051 133.023 120.63C131.516 111.995 130.074 103.36 128.567 94.7248C128.24 92.4352 127.847 90.1456 127.519 87.7905C126.929 84.1926 126.34 80.5946 125.75 76.9312C125.619 75.9499 125.488 74.9033 125.357 73.922C124.702 69.4736 123.981 64.9598 123.326 60.5114C123.391 58.9413 123.391 57.3713 123.457 55.8013C123.981 59.4647 124.571 63.0627 125.095 66.726C126.536 75.8191 127.912 84.9122 129.353 94.0052C131.909 108.92 134.464 123.77 137.019 138.686C137.609 142.676 138.199 146.601 138.788 150.592C139.444 155.563 140.099 160.6 140.754 165.572C140.885 166.684 140.95 167.796 141.082 168.974C141.344 171.264 141.606 173.553 141.933 175.908C142.523 179.506 142.785 183.039 142.72 187.356ZM144.095 93.024C144.816 94.6594 144.226 96.6219 144.292 98.7807C144.161 101.397 144.095 103.949 143.964 106.565C143.113 104.799 143.44 99.3041 143.833 96.949C143.899 95.6407 143.964 94.3323 144.095 93.024ZM143.506 89.426C143.899 90.211 143.047 94.0706 143.047 95.7715C142.719 94.9865 143.309 90.4727 143.506 89.426ZM143.047 111.341C143.375 111.799 143.309 112.715 143.44 113.303C143.964 115.724 143.637 118.864 143.571 121.808C143.309 120.761 143.113 119.649 142.916 118.602C142.982 116.182 142.982 113.761 143.047 111.341ZM143.178 125.34C143.702 127.761 143.768 131.032 143.899 133.779C143.375 130.443 142.851 127.434 142.851 123.705C142.982 124.228 143.113 124.817 143.178 125.34ZM143.244 186.179C143.702 186.768 143.899 189.646 143.702 190.169C142.851 188.992 143.244 187.749 143.244 186.179ZM144.489 192.721C144.423 192.786 144.357 192.786 144.292 192.851C143.899 192.524 143.702 191.805 143.44 191.281C143.768 191.347 144.03 191.216 144.161 190.954C144.62 191.412 144.685 192.197 144.489 192.721ZM148.158 85.3047C148.158 85.3701 148.092 85.5009 148.092 85.5663C148.027 85.3047 147.961 85.043 147.961 84.7813C148.027 85.043 148.092 85.1738 148.158 85.3047ZM147.633 82.4917C147.765 83.0805 147.83 83.6692 147.961 84.258C147.896 84.258 147.765 84.3234 147.699 84.3234C147.502 83.8001 147.568 83.2113 147.633 82.4917ZM146.913 194.225C147.699 194.879 147.437 195.01 148.551 194.683C148.682 195.206 148.223 195.795 148.092 196.253C148.027 196.318 147.961 196.384 147.83 196.449C147.175 196.057 147.044 195.076 146.782 194.356C146.847 194.356 146.913 194.291 146.913 194.225ZM148.158 198.15C147.699 198.281 147.371 197.169 147.306 196.842C147.633 197.038 147.699 197.104 148.223 197.038C148.354 196.842 148.551 196.58 148.682 196.384C148.878 196.907 148.354 197.758 148.158 198.15ZM149.992 85.6972C149.992 85.3701 149.992 85.043 150.058 84.7159C150.32 85.1084 150.123 85.4355 149.992 85.6972ZM166.896 65.6139C166.962 65.8756 167.027 66.1373 167.158 66.4644C166.962 66.6606 166.962 66.5952 166.896 66.8569C166.7 66.7915 166.634 66.6606 166.307 66.6606C166.569 66.3335 166.765 66.0065 166.896 65.6139ZM167.224 66.9877C167.093 67.1186 167.027 67.1185 166.962 67.0531C166.962 66.9877 166.962 66.9223 166.896 66.8569C166.962 66.8569 167.027 66.8569 167.158 66.8569C167.158 66.9223 167.224 66.9223 167.224 66.9877ZM162.048 71.109C162.048 70.7819 162.048 70.4549 161.982 70.0623C162.113 69.8007 162.244 69.8661 162.048 69.8007C162.113 69.4082 162.113 69.0811 162.179 68.6886C162.572 68.4269 162.834 68.4923 163.358 68.5577C163.358 68.8194 163.358 69.1465 163.358 69.4082C163.096 69.4736 162.834 69.6044 162.572 69.6698C162.375 69.8007 162.113 70.6511 162.048 71.109ZM163.489 87.5289C163.227 83.2767 162.965 79.09 162.703 74.8378C162.441 73.2678 162.506 70.7165 163.293 69.9315C163.293 71.567 163.358 73.2024 163.358 74.8378C163.62 79.2208 163.882 83.6038 164.21 87.9214C164.669 94.594 165.062 101.267 165.52 108.005C165.782 112.388 166.045 116.771 166.372 121.154C166.503 123.639 166.634 126.125 166.831 128.611C167.027 133.19 167.224 137.835 167.486 142.414C167.224 141.433 166.962 140.452 166.7 139.536C166.7 138.686 166.7 137.9 166.634 137.05C166.438 133.321 166.241 129.527 166.045 125.798C165.127 113.042 164.341 100.285 163.489 87.5289ZM163.948 145.293C164.144 146.012 164.341 146.732 164.538 147.451C165.062 149.218 165.848 150.984 165.782 153.077C165.324 150.395 163.948 147.713 163.948 145.293ZM164.865 184.282C164.276 181.73 163.751 179.179 163.162 176.628C161.786 170.806 160.868 165.114 159.165 159.619C158.51 157.33 157.855 155.04 157.199 152.685C156.479 150.395 155.758 147.909 155.823 144.835C156.872 148.564 157.92 152.292 158.968 156.021C160.279 160.404 161.327 164.983 162.506 169.628C163.751 174.273 164.603 178.721 164.865 184.282ZM164.341 138.097C165.127 140.975 165.651 144.246 165.586 147.975C164.996 145.881 164.407 143.723 163.817 141.629C163.751 139.405 163.686 137.181 163.555 135.022C163.882 136.069 164.079 137.115 164.341 138.097ZM156.217 90.7343C156.151 90.6035 156.151 90.4727 156.151 90.3418C156.151 90.4727 156.217 90.6035 156.217 90.7343ZM156.217 92.0427C156.872 93.1548 156.741 94.9865 157.003 96.3603C157.527 99.9582 158.051 103.556 158.575 107.22C159.558 112.518 159.951 117.817 161.065 122.985C162.179 128.088 163.358 132.863 163.227 139.143C162.703 137.181 162.244 135.153 161.786 133.19C161.196 130.377 160.606 127.564 160.017 124.752C159.296 120.565 158.575 116.378 157.855 112.257C157.658 110.883 157.527 109.509 157.33 108.135C156.741 104.407 156.217 100.612 155.627 96.8836C155.889 95.2482 156.086 93.6781 156.217 92.0427ZM155.43 101.136C156.282 106.893 157.199 112.649 158.051 118.406C159.23 124.163 160.082 129.92 161.458 135.48C161.851 137.181 162.244 138.816 162.638 140.517C163.031 141.826 163.424 143.003 163.424 144.704C162.375 140.975 161.458 137.312 160.475 133.583C158.903 127.368 158.051 121.023 156.675 114.416C156.348 112.518 156.086 110.621 155.758 108.724C155.365 106.696 154.775 103.425 155.43 101.136ZM154.71 147.386C154.775 148.498 154.841 149.61 154.972 150.788C155.037 151.704 155.037 152.554 155.103 153.47C155.234 155.236 155.365 157.068 155.561 158.834C155.037 157.199 154.579 155.563 154.12 153.928C153.923 150.199 153.661 146.405 153.465 142.676C153.727 143.592 153.989 144.508 154.251 145.424C154.382 146.078 154.513 146.732 154.71 147.386ZM154.185 92.8931C154.775 94.0052 154.251 96.4257 154.185 97.734C153.596 96.4257 154.054 94.3977 154.185 92.8931ZM153.334 134.826C153.923 137.05 154.317 139.471 154.317 142.153C154.12 141.433 153.989 140.713 153.792 139.994C153.268 137.9 152.875 135.415 152.875 132.798C153.006 133.518 153.203 134.172 153.334 134.826ZM152.613 145.62C152.679 146.143 152.875 149.349 152.744 149.479C152.416 148.171 152.023 146.797 151.696 145.489C151.499 141.564 151.303 137.639 151.106 133.714C151.237 134.368 151.434 134.957 151.565 135.611C151.761 136.396 151.958 137.246 152.154 138.031C152.351 140.583 152.482 143.068 152.613 145.62ZM151.892 193.178C152.285 192.982 152.482 192.851 152.679 192.524C153.334 193.375 153.006 194.029 152.613 194.879C152.547 194.879 152.482 194.879 152.416 194.945C152.22 194.291 151.761 193.963 151.892 193.178ZM151.565 87.1364C151.434 87.1364 151.434 87.1364 151.368 87.071C151.368 86.9401 151.368 86.7439 151.303 86.613C151.434 86.7439 151.499 86.9401 151.565 87.1364ZM150.975 124.032C151.303 124.359 151.303 125.406 151.434 125.929C151.827 127.63 151.958 130.05 151.892 132.144C151.565 130.77 151.237 129.462 150.975 128.088C150.975 126.714 150.975 125.34 150.975 124.032ZM152.089 199.393C151.434 198.608 150.844 195.468 151.172 194.487C151.237 194.487 151.303 194.487 151.434 194.487C151.303 194.879 151.892 195.533 152.416 195.73C152.613 195.599 152.875 195.599 153.203 195.468C152.744 196.842 152.547 198.216 152.089 199.393ZM152.744 200.244C152.547 200.178 152.482 200.113 152.482 200.047C153.334 199.393 153.989 196.253 153.989 194.748C154.448 195.599 153.072 199.786 152.744 200.244ZM153.334 190.365C153.334 190.823 153.334 191.347 153.399 191.805C153.203 191.15 153.203 190.889 153.334 190.365ZM155.365 187.095C154.972 185.132 154.644 182.973 154.317 180.814C154.054 177.413 153.792 174.076 153.465 170.675C153.268 168.189 153.137 165.638 152.941 163.152C152.613 158.245 152.22 153.339 151.892 148.433C152.089 149.152 152.285 149.807 152.482 150.526C153.399 153.47 153.072 157.264 153.661 160.731C153.989 164.591 154.251 168.451 154.579 172.31C154.775 174.534 154.906 176.824 155.103 179.048C155.496 181.469 155.561 184.478 155.365 187.095ZM154.317 156.806C154.448 157.33 154.579 157.853 154.775 158.376C155.103 159.488 155.43 160.666 155.823 161.778C155.954 163.479 156.086 165.245 156.217 166.946C156.872 170.74 156.741 175.123 157.134 179.244C157.265 181.076 157.396 183.497 157.134 185.067C156.937 186.244 156.675 187.422 156.479 188.665C156.479 187.487 156.479 186.375 156.479 185.197C156.348 183.039 156.282 180.814 156.151 178.656C155.496 171.329 154.906 164.068 154.317 156.806ZM156.479 193.506C155.496 192.851 155.954 191.805 156.151 190.627C156.741 190.496 157.003 190.627 157.396 189.777C157.658 190.758 156.741 192.721 156.479 193.506ZM164.931 196.646C164.538 195.926 164.21 195.206 163.882 194.421C162.965 190.627 162.048 186.833 161.196 183.039C160.672 180.422 160.148 177.805 159.624 175.189C158.903 172.179 158.182 169.17 157.461 166.161C157.265 163.806 157.134 161.451 156.937 159.03C156.806 157.264 156.675 155.432 156.479 153.666C156.741 154.517 156.937 155.367 157.199 156.152C157.789 158.442 158.444 160.731 159.034 163.021C160.672 167.862 161.131 174.142 162.638 179.572C163.031 181.469 163.489 183.366 163.882 185.197C164.865 188.403 165.651 192.001 164.931 196.646ZM167.093 192.917C166.503 191.15 165.913 189.188 165.52 187.291C165.455 185.721 165.389 184.216 165.258 182.646C165.586 182.973 165.782 184.87 165.913 185.525C166.634 188.141 167.158 190.038 167.093 192.917ZM166.962 148.171C167.879 149.283 167.945 154.124 167.945 156.283C167.683 155.302 167.42 154.32 167.158 153.404C167.093 151.638 167.027 149.937 166.962 148.171ZM167.814 195.403C167.617 195.141 167.486 194.748 167.355 194.421C167.42 194.029 167.748 193.767 167.879 193.375C168.141 193.963 167.814 194.748 167.814 195.403ZM168.141 161.974C167.814 160.535 167.355 159.357 167.355 157.526C168.01 158.572 168.141 160.404 168.141 161.974ZM168.01 67.9036C168.01 67.7073 167.945 67.5111 167.945 67.3148C168.141 67.4456 168.272 67.7073 168.272 67.969C168.207 67.969 168.141 67.9036 168.01 67.9036ZM170.434 197.038C170.762 197.3 170.696 197.889 171.286 197.758C171.221 198.15 171.221 198.543 171.155 198.935C170.827 198.346 170.631 197.692 170.434 197.038ZM171.286 200.571C171.155 200.309 171.09 200.113 171.024 199.851C171.155 199.851 171.221 199.851 171.352 199.851C171.286 200.047 171.286 200.309 171.286 200.571ZM172.662 197.627C172.662 197.496 172.662 197.431 172.662 197.365C172.728 197.431 172.662 197.496 172.662 197.627ZM175.086 200.571C174.759 199.393 174.431 198.216 174.169 196.973C174.3 196.776 174.366 196.842 174.431 196.646C175.086 197.104 175.217 199.393 175.086 200.571ZM175.152 169.236C174.824 161.451 174.497 153.732 174.169 145.947C173.448 133.452 172.793 121.023 172.072 108.528C171.745 103.098 171.483 97.6032 171.155 92.1735C170.893 88.3139 170.631 84.5197 170.369 80.66C170.107 77.4545 169.845 74.3145 169.583 71.109C171.286 72.2865 170.565 75.8845 170.959 78.3704C171.024 79.6787 171.09 81.0525 171.221 82.3609C171.548 86.613 171.81 90.9306 172.138 95.1827C172.203 96.3603 172.203 97.5378 172.269 98.7153C172.793 109.051 173.383 119.322 173.907 129.658C174.235 135.545 174.628 141.433 174.955 147.321C175.021 148.76 175.021 150.199 175.086 151.704C175.217 155.956 175.414 160.143 175.545 164.395C175.807 169.563 176.069 174.731 176.397 179.833C176.266 179.179 176.135 178.525 176.004 177.871C175.741 176.628 175.479 175.385 175.217 174.076C175.283 172.441 175.217 170.871 175.152 169.236ZM175.61 202.468C175.61 201.748 175.676 200.963 175.741 200.178C176.004 200.636 175.807 202.075 175.61 202.468ZM176.986 195.403C176.724 194.487 176.528 193.636 176.331 192.721C176.2 190.3 176.135 187.88 176.004 185.394C176.135 185.982 176.266 186.571 176.397 187.16C176.921 189.384 177.379 192.524 176.986 195.403ZM177.642 185.263C177.379 180.029 177.052 174.796 176.79 169.628C176.659 165.768 176.462 161.909 176.331 158.049C176.331 156.741 176.266 155.498 176.266 154.189C176.069 150.592 175.873 146.928 175.676 143.33C175.414 138.489 175.086 133.648 174.824 128.807C174.497 122.135 174.104 115.397 173.776 108.724C173.71 106.762 173.645 104.799 173.514 102.902C173.448 101.267 173.383 99.5657 173.252 97.9303C172.924 92.8277 172.531 87.7251 172.203 82.6225C171.679 79.5479 172.269 76.4733 171.548 73.5949C171.286 72.6136 170.959 71.6324 170.369 70.9782C170.107 70.7819 169.845 70.6511 169.583 70.4548C169.386 70.2586 169.124 68.754 168.927 68.4923C169.386 68.4269 170.041 68.2961 170.434 68.4269C170.5 68.3615 170.565 68.2961 170.631 68.2307C171.941 68.4923 172.4 69.6698 172.4 71.2399C171.941 70.9128 171.417 70.3894 170.762 70.3894C170.762 70.5203 170.762 70.5857 170.762 70.7165C173.448 71.5015 172.4 75.7537 172.924 78.6321C173.317 84.0617 173.645 89.4914 174.038 94.9211C174.103 96.6219 174.169 98.3228 174.235 100.024C174.759 110.425 175.348 120.826 175.873 131.228C176.2 136.396 176.528 141.629 176.855 146.797C176.921 148.367 176.986 149.937 177.052 151.507C177.117 153.208 177.117 154.975 177.183 156.675C177.379 161.124 177.576 165.572 177.838 170.021C178.035 172.964 178.166 175.974 178.362 178.917C178.428 180.16 178.493 181.469 178.559 182.712C178.624 185.067 178.755 187.356 178.821 189.711C178.362 188.207 178.035 186.768 177.642 185.263ZM179.148 195.73C179.017 195.01 178.559 194.029 178.69 193.571C178.886 193.636 179.017 193.702 179.214 193.702C179.214 194.421 179.148 195.076 179.148 195.73Z" fill="#FF6635"/>
</svg>
